<svg width="101" height="100" viewBox="0 0 101 100" fill="none" xmlns="http://www.w3.org/2000/svg">
<g clip-path="url(#clip0_2901_31219)">
<ellipse cx="51.7682" cy="88.3567" rx="33.8815" ry="7.14286" fill="#D9D9D9"/>
<path d="M54.2464 33.7262C69.0015 34.4754 77.6664 40.9648 83.0369 48.2797C83.812 49.339 84.511 50.4269 85.1131 51.534C85.4453 52.1209 85.7637 52.7126 86.0682 53.3042C89.8539 60.5619 92.2 68.4971 87.7084 76.022C80.5108 88.0847 62.4752 89.1774 42.0935 87.7793C38.5331 87.5378 35.039 86.9548 31.7124 86.0472C28.6255 85.2229 25.76 84.0488 23.2344 82.5735C15.6907 78.0309 12.9432 71.8993 13.22 66.1733C13.5314 58.9634 17.1787 54.2109 22.4108 47.9982C26.7432 42.8544 35.0689 37.2095 44.2459 34.8475C47.4243 33.9838 50.8349 33.6014 54.2464 33.7262Z" fill="white"/>
<path d="M83.8133 79.5576C73.9789 88.5331 51.0088 90.1745 32.2119 86.4002" stroke="#868686" stroke-width="2.32143" stroke-linecap="round" stroke-linejoin="round"/>
<path d="M72.3242 39.1758C76.3668 41.7529 79.6763 44.8276 82.0825 48.2419C82.8577 49.306 83.5567 50.3939 84.1588 51.4961" stroke="#868686" stroke-width="2.32143" stroke-linecap="round" stroke-linejoin="round"/>
<path d="M48.1436 33.8835C49.841 33.6821 51.5676 33.6228 53.2857 33.707C58.2166 33.9191 63.0079 34.9206 67.2795 36.632" stroke="#868686" stroke-width="2.32143" stroke-linecap="round" stroke-linejoin="round"/>
<path d="M19.3672 50.1691C24.2602 44.1521 31.437 38.5502 40.8216 35.5059" stroke="#868686" stroke-width="2.32143" stroke-linecap="round" stroke-linejoin="round"/>
<path d="M26.2266 84.4911C21.9772 83.1884 18.1985 80.3779 16.4268 78.0303" stroke="#868686" stroke-width="2.32143" stroke-linecap="round" stroke-linejoin="round"/>
<path d="M57.5397 56.2622C57.0357 55.1419 56.2188 54.191 55.1873 53.5239C54.1557 52.8568 52.9534 52.502 51.7249 52.502C50.4965 52.502 49.2942 52.8568 48.2626 53.5239C47.231 54.191 46.4141 55.1419 45.9102 56.2622V56.2943C46.8338 58.8024 49.1174 61.7274 51.7281 61.7274C54.3389 61.7274 56.616 58.8024 57.5397 56.2943V56.2622Z" fill="#FFAFA7"/>
<path d="M62.5628 48.8542C62.5628 48.8542 59.7782 50.1692 57.7148 47.7061" stroke="#868686" stroke-width="2.32143" stroke-linecap="round" stroke-linejoin="round"/>
<path d="M45.225 47.8545C45.225 47.8545 43.579 50.1546 39.9756 48.7531" stroke="#868686" stroke-width="2.32143" stroke-linecap="round" stroke-linejoin="round"/>
<path d="M88.0209 78.925C86.2249 78.3502 84.4031 77.163 83.6974 74.7326C83.5743 74.3239 83.3525 73.9518 83.0515 73.6491C82.7505 73.3464 82.3797 73.1225 81.9717 72.9971C81.0835 72.7142 80.2716 72.2324 79.5977 71.5885C78.9237 70.9445 78.4056 70.1553 78.0826 69.2809C77.1285 66.9425 82.8868 61.9986 85.1061 63.2044C89.5272 65.607 89.596 71.9599 91.2891 75.0061C91.5595 75.4886 91.6771 76.0419 91.6262 76.5926C91.5753 77.1434 91.3584 77.6658 91.0041 78.0906C90.6498 78.5154 90.1749 78.8226 89.6422 78.9716C89.1095 79.1206 88.5442 79.1043 88.0209 78.925Z" fill="#EBEBEB"/>
<path d="M80.1714 71.9837C77.6088 70.9073 76.2497 64.245 78.6553 56.4019C78.7921 55.8455 79.0523 55.327 79.4165 54.8847C79.7808 54.4424 80.2397 54.0876 80.7595 53.8465C82.0076 53.3364 83.4471 53.707 84.6427 54.213C88.5404 55.8686 91.2834 58.8704 92.9821 62.7014C94.2784 65.6299 94.8695 69.1653 96.0552 72.0341C96.7403 73.6757 97.4862 75.2689 98.2929 76.8135C98.4995 77.1887 98.5957 77.6146 98.5702 78.0422C98.5503 78.5637 98.3443 79.0608 97.9896 79.4436C97.6349 79.8264 97.1549 80.0696 96.6365 80.1292C95.4218 80.2978 94.1851 80.0673 93.1128 79.4723C90.4121 77.971 88.7146 75.4581 89.4941 70.6967" fill="#EBEBEB"/>
<path d="M80.1714 71.9837C77.6088 70.9073 76.2497 64.245 78.6553 56.4019C78.7921 55.8455 79.0523 55.327 79.4165 54.8847C79.7808 54.4424 80.2397 54.0876 80.7595 53.8465C82.0076 53.3364 83.4471 53.707 84.6427 54.213C88.5404 55.8686 91.2834 58.8704 92.9821 62.7014C94.2784 65.6299 94.8695 69.1653 96.0552 72.0341C96.7403 73.6757 97.4862 75.2689 98.2929 76.8135C98.4995 77.1887 98.5957 77.6146 98.5702 78.0422C98.5503 78.5637 98.3443 79.0608 97.9896 79.4436C97.6349 79.8264 97.1549 80.0696 96.6365 80.1292C95.4218 80.2978 94.1851 80.0673 93.1128 79.4723C90.4121 77.971 88.7146 75.4581 89.4941 70.6967" stroke="#868686" stroke-width="2.32143" stroke-linecap="round" stroke-linejoin="round"/>
<path d="M86.6177 77.9187C85.7512 77.6297 84.9951 77.0799 84.4531 76.3446C83.0531 74.4156 83.0013 70.5763 84.3875 67.355" stroke="#868686" stroke-width="2.32143" stroke-linecap="round" stroke-linejoin="round"/>
<path d="M12.3496 76.4412C13.46 76.4468 14.5534 76.1682 15.5257 75.6318C16.498 75.0954 17.3169 74.3191 17.9043 73.3768C18.1433 72.9956 18.4723 72.679 18.8625 72.4549C19.2526 72.2308 19.6919 72.1061 20.1415 72.0918C21.125 72.055 22.0869 71.7934 22.9536 71.3271C23.8202 70.8608 24.5685 70.2022 25.1411 69.4018C26.7643 67.2913 22.6126 60.6458 20.0201 61.2555C14.8507 62.461 12.6897 68.8854 10.1284 71.539C9.71862 71.9538 9.44426 72.4832 9.34161 73.0571C9.23895 73.6311 9.31282 74.2227 9.55346 74.7538C9.79411 75.2849 10.1902 75.7306 10.6894 76.0318C11.1886 76.3331 11.7675 76.4758 12.3496 76.4412Z" fill="#EBEBEB"/>
<path d="M22.2737 71.5537C25.1816 71.1744 28.4283 64.8105 28.1792 56.1259C28.1964 55.522 28.0778 54.9219 27.832 54.37C27.5862 53.8181 27.2197 53.3284 26.7593 52.9371C25.6313 52.0501 24.0615 52.0431 22.7055 52.2224C18.2721 52.8145 14.6443 55.1032 11.8434 58.5224C9.70176 61.1418 8.11134 64.5763 6.0986 67.1575C4.94507 68.6412 3.74037 70.0542 2.48453 71.3964C2.17409 71.7233 1.95825 72.1284 1.86004 72.5684C1.73361 73.1057 1.80412 73.6705 2.05877 74.1602C2.31342 74.6499 2.73531 75.032 3.24776 75.237C4.43572 75.7464 5.75697 75.856 7.01266 75.5496C10.1879 74.781 12.6132 72.6994 13.1601 67.6139" fill="#EBEBEB"/>
<path d="M22.2737 71.5537C25.1816 71.1744 28.4283 64.8105 28.1792 56.1259C28.1964 55.522 28.0778 54.9219 27.832 54.37C27.5862 53.8181 27.2197 53.3284 26.7593 52.9371C25.6313 52.0501 24.0615 52.0431 22.7055 52.2224C18.2721 52.8145 14.6443 55.1032 11.8434 58.5224C9.70176 61.1418 8.11134 64.5763 6.0986 67.1575C4.94507 68.6412 3.74037 70.0542 2.48453 71.3964C2.17409 71.7233 1.95825 72.1284 1.86004 72.5684C1.73361 73.1057 1.80412 73.6705 2.05877 74.1602C2.31342 74.6499 2.73531 75.032 3.24776 75.237C4.43572 75.7463 5.75697 75.856 7.01266 75.5496C10.1879 74.781 12.6132 72.6994 13.1601 67.6139" stroke="#868686" stroke-width="2.32143" stroke-linecap="round" stroke-linejoin="round"/>
<path d="M14.053 75.8037C15.0139 75.7497 15.9351 75.4019 16.6919 74.8072C18.6574 73.2377 19.7873 69.3507 19.2771 65.6827" fill="#EBEBEB"/>
<path d="M14.053 75.8037C15.0139 75.7497 15.9351 75.4019 16.6919 74.8072C18.6574 73.2377 19.7873 69.3507 19.2771 65.6827" stroke="#868686" stroke-width="2.32143" stroke-linecap="round" stroke-linejoin="round"/>
<path d="M46.7999 35.5832C50.4951 38.9761 55.7995 39.2235 58.9814 36.7534C57.9987 35.0503 55.5192 31.0911 50.6509 30.9552C48.942 30.8692 47.2379 31.2018 45.6868 31.9242C44.1357 32.6466 42.7844 33.7369 41.7506 35.1004" fill="#FFF8F2"/>
<path d="M46.7999 35.5832C50.4951 38.9761 55.7995 39.2235 58.9814 36.7534C57.9987 35.0503 55.5192 31.0911 50.6509 30.9552C48.942 30.8692 47.2379 31.2018 45.6868 31.9242C44.1357 32.6466 42.7844 33.7369 41.7506 35.1004" stroke="#868686" stroke-width="2.32143" stroke-linecap="round" stroke-linejoin="round"/>
<path d="M46.7261 11.7991C54.2755 9.88132 59.4229 14.484 54.6187 18.1278C49.8145 21.7716 47.9271 21.5797 46.7261 19.8538C45.525 18.1278 48.9566 14.6757 53.5892 16.4017C58.2218 18.1278 59.079 23.3058 56.8489 23.3058C54.6187 23.3058 48.7844 21.5799 51.1868 18.1278C53.5892 14.6757 49.6432 11.4155 46.7261 13.9086C43.8089 16.4017 40.8918 20.2373 43.8089 21.7715C46.7261 23.3058 53.5892 27.7299 53.5892 23.3058C53.5892 18.8817 45.8671 11.4155 43.8089 13.9086C41.7507 16.4017 43.7668 24.4564 46.4691 25.2715C49.1715 26.0866 55.7344 23.9291 57.7933 19.5181C59.4405 15.9894 59.4519 14.3082 59.2517 13.9086" stroke="#868686" stroke-width="1.78571" stroke-linecap="round" stroke-linejoin="round"/>
<path d="M17.168 20.1426V37.8821" stroke="#868686" stroke-width="2.32143" stroke-linecap="round" stroke-linejoin="round"/>
<path d="M26.2285 10.002V29.0119" stroke="#868686" stroke-width="2.32143" stroke-linecap="round" stroke-linejoin="round"/>
<path d="M36.1406 4.5V23.8763" stroke="#868686" stroke-width="2.32143" stroke-linecap="round" stroke-linejoin="round"/>
<path d="M86.2598 20.1426V37.8821" stroke="#868686" stroke-width="2.32143" stroke-linecap="round" stroke-linejoin="round"/>
<path d="M77.1982 10.002V29.0119" stroke="#868686" stroke-width="2.32143" stroke-linecap="round" stroke-linejoin="round"/>
<path d="M67.2861 4.5V23.8763" stroke="#868686" stroke-width="2.32143" stroke-linecap="round" stroke-linejoin="round"/>
<path d="M42.3805 61.741C44.1146 59.2951 43.7147 56.004 43.298 54.6642C43.0747 53.696 39.097 52.9429 38.1029 53.4124C37.1088 53.8818 37.3342 54.5587 37.3905 57.6505C37.4467 60.7423 34.3827 59.7792 31.6001 62.5846C28.8176 65.39 28.9711 69.8369 29.3502 72.038C29.7293 74.2392 36.3794 76.6718 37.4453 75.3549C38.5112 74.0381 35.9031 70.193 37.2509 66.7997C38.5987 63.4064 40.2128 64.7984 42.3805 61.741Z" fill="#DCF8FF" stroke="#868686" stroke-width="2.32143" stroke-linecap="round" stroke-linejoin="round"/>
<path d="M61.2002 61.5217C59.3139 59.1544 59.3877 55.8813 59.6604 54.5407C59.7831 53.5744 63.5138 52.7006 64.5078 53.1338C65.5018 53.5669 65.3497 54.2447 65.5856 57.3093C65.8215 60.3739 68.6593 59.3214 71.5813 62.0111C74.5032 64.7009 74.773 69.111 74.6169 71.3037C74.4608 73.4964 68.3337 76.1197 67.1917 74.8495C66.0497 73.5792 68.1819 69.6864 66.576 66.3682C64.9701 63.05 63.5581 64.4808 61.2002 61.5217Z" fill="#DCF8FF" stroke="#868686" stroke-width="2.32143" stroke-linecap="round" stroke-linejoin="round"/>
</g>
<defs>
<clipPath id="clip0_2901_31219">
<rect width="100" height="100" fill="white" transform="translate(0.5)"/>
</clipPath>
</defs>
</svg>
