<svg width="325" height="180" viewBox="0 0 325 180" fill="none" xmlns="http://www.w3.org/2000/svg">
<rect width="325" height="180" rx="16" fill="#F9F7F2"/>
<path d="M218.202 127.525H222.024C235.188 127.525 241.768 127.525 246.054 123.302C250.33 119.078 250.765 112.151 251.64 98.2979L252.903 78.333C253.376 70.8152 253.612 67.0539 251.47 64.6751C249.322 62.2915 245.699 62.2915 238.447 62.2915H201.778C194.527 62.2915 190.899 62.2915 188.756 64.6751C186.608 67.0587 186.845 70.8152 187.323 78.333L188.586 98.2979C189.461 112.151 189.896 119.083 194.177 123.302C198.458 127.525 205.038 127.525 218.202 127.525Z" fill="#5AD084"/>
<path fill-rule="evenodd" clip-rule="evenodd" d="M208.707 77.1125C210.594 76.9282 212.271 78.2565 212.458 80.0752L214.743 102.13C214.93 103.944 213.555 105.566 211.677 105.75C209.794 105.931 208.113 104.606 207.926 102.788L205.641 80.7331C205.454 78.9144 206.829 77.2927 208.707 77.1125ZM232.239 77.1125C234.121 77.2927 235.497 78.9144 235.305 80.7331L233.02 102.788C232.837 104.606 231.156 105.931 229.273 105.75C227.386 105.566 226.015 103.948 226.203 102.13L228.487 80.071C228.675 78.2565 230.356 76.9282 232.234 77.1083L232.239 77.1125Z" fill="#F9F7F2"/>
<path d="M199.185 23.4351C199.99 22.0397 201.796 21.5797 203.22 22.4017L220.134 32.1672C221.873 29.205 224.549 25.3194 229.123 24.2014C232.887 23.2879 236.857 23.8641 240.206 25.8096C243.565 27.7367 246.049 30.8874 247.14 34.6033C248.459 39.1234 246.432 43.3842 244.736 46.3709L261.65 56.1365C263.074 56.9584 263.576 58.7558 262.773 60.1477C262.576 60.4805 262.315 60.7713 262.006 61.0033C261.696 61.2354 261.344 61.4042 260.969 61.5002C260.595 61.5961 260.205 61.6174 259.822 61.5626C259.439 61.5079 259.07 61.3782 258.738 61.1811L200.307 27.4463C199.97 27.2567 199.674 27.0025 199.435 26.6983C199.196 26.394 199.019 26.0457 198.915 25.6732C198.811 25.3008 198.781 24.9114 198.827 24.5274C198.874 24.1434 198.995 23.7722 199.185 23.4351Z" fill="#5AD084"/>
<path d="M167.754 29.8976C168.032 29.0393 168.639 28.3264 169.443 27.9158C170.246 27.5053 171.179 27.4306 172.038 27.7083L194.692 35.0377C195.55 35.3154 196.263 35.9227 196.673 36.7259C197.084 37.5292 197.159 38.4627 196.881 39.321L191.646 55.5024C191.368 56.3607 190.761 57.0736 189.957 57.4841C189.154 57.8947 188.221 57.9694 187.362 57.6917L164.708 50.3623C163.85 50.0846 163.137 49.4773 162.727 48.6741C162.316 47.8708 162.241 46.9373 162.519 46.079L167.754 29.8976Z" fill="#FFB3A3" stroke="#FFB3A3" stroke-width="3" stroke-linecap="round" stroke-linejoin="round"/>
<path d="M170.039 44.9368L172.133 38.4642C172.41 37.6059 173.018 36.8931 173.821 36.4825C174.624 36.0719 175.558 35.9973 176.416 36.275C177.274 36.5527 177.987 37.16 178.398 37.9632C178.808 38.7665 178.883 39.7 178.605 40.5583L176.511 47.0309M171.086 41.7005L177.558 43.7946L171.086 41.7005ZM189.361 40.4632L186.22 50.172L183.793 49.3867C183.313 49.2314 182.89 48.9372 182.577 48.5414C182.264 48.1456 182.075 47.6658 182.035 47.1629C181.995 46.6599 182.105 46.1563 182.351 45.7158C182.597 45.2753 182.968 44.9176 183.417 44.688C183.866 44.4583 184.374 44.3671 184.875 44.4258C185.376 44.4844 185.848 44.6904 186.233 45.0176C186.617 45.3448 186.895 45.7785 187.033 46.264C187.17 46.7494 187.161 47.2648 187.005 47.7448" fill="#FFB3A3"/>
<path d="M170.039 44.9368L172.133 38.4642C172.41 37.6059 173.018 36.8931 173.821 36.4825C174.624 36.0719 175.558 35.9973 176.416 36.275C177.274 36.5527 177.987 37.16 178.398 37.9632C178.808 38.7665 178.883 39.7 178.605 40.5583L176.511 47.0309M171.086 41.7005L177.558 43.7946M189.361 40.4632L186.22 50.172L183.793 49.3867C183.313 49.2314 182.89 48.9372 182.577 48.5414C182.264 48.1456 182.075 47.6658 182.035 47.1629C181.995 46.6599 182.105 46.1563 182.351 45.7158C182.597 45.2753 182.968 44.9176 183.417 44.688C183.866 44.4583 184.374 44.3671 184.875 44.4258C185.376 44.4844 185.848 44.6904 186.233 45.0176C186.617 45.3448 186.895 45.7785 187.033 46.264C187.17 46.7494 187.161 47.2648 187.005 47.7448" stroke="white" stroke-width="3" stroke-linecap="round" stroke-linejoin="round"/>
<path d="M173.49 21.9778C170.188 18.7996 161.813 12.4245 154.731 12.3499" stroke="#87F0AE" stroke-width="3" stroke-linecap="round"/>
<path d="M159.888 23.1519C156.991 21.1996 149.683 17.3256 143.619 17.4475" stroke="#87F0AE" stroke-width="3" stroke-linecap="round"/>
<path d="M0 108H325V164C325 172.837 317.837 180 309 180H16C7.16344 180 0 172.837 0 164V108Z" fill="#87F0AE"/>
<path d="M25.778 125.766H30.594C31.406 125.766 31.672 126.018 31.672 126.816V127.684C31.672 128.454 31.588 129.182 31.42 129.798C31.308 130.176 30.944 130.302 30.566 130.218C30.202 130.148 29.978 129.896 30.076 129.504C30.216 128.888 30.286 128.314 30.286 127.642V127.264C30.286 127.054 30.202 126.97 29.992 126.97H25.778C25.442 126.97 25.288 126.704 25.288 126.368C25.288 126.046 25.442 125.766 25.778 125.766ZM33.982 125.108C34.346 125.108 34.682 125.29 34.682 125.682V128.51H36.04C36.404 128.51 36.558 128.79 36.558 129.126C36.558 129.462 36.404 129.742 36.04 129.742H34.682V132.626C34.682 133.018 34.346 133.2 33.982 133.2C33.632 133.2 33.296 133.018 33.296 132.626V125.682C33.296 125.29 33.632 125.108 33.982 125.108ZM27.612 128.636C27.962 128.636 28.298 128.818 28.298 129.21V131.212C29.516 131.184 30.776 131.128 32.05 131.016C32.372 130.974 32.54 131.212 32.568 131.534C32.596 131.842 32.456 132.136 32.148 132.164C30.006 132.346 27.528 132.43 24.952 132.43C24.616 132.43 24.462 132.15 24.462 131.828C24.462 131.52 24.616 131.24 24.952 131.24H26.926V129.21C26.926 128.818 27.262 128.636 27.612 128.636ZM30.594 133.298C33.212 133.298 34.738 134.11 34.738 135.748C34.738 137.386 33.212 138.198 30.594 138.198C27.976 138.198 26.45 137.386 26.45 135.748C26.45 134.11 27.976 133.298 30.594 133.298ZM30.594 134.418C28.662 134.418 27.836 134.936 27.836 135.748C27.836 136.574 28.662 137.078 30.594 137.078C32.526 137.078 33.352 136.574 33.352 135.748C33.352 134.936 32.526 134.418 30.594 134.418ZM39.1502 126.004H46.3322C47.1442 126.004 47.4102 126.256 47.4102 127.054V128.342C47.4102 130.05 47.2422 131.352 46.9622 132.626C46.8782 133.004 46.5142 133.158 46.1082 133.074C45.7722 133.018 45.5202 132.78 45.5902 132.416C45.8562 131.1 46.0102 129.84 46.0102 128.3V127.516C46.0102 127.306 45.9262 127.222 45.7162 127.222H39.1502C38.8002 127.222 38.6602 126.956 38.6602 126.62C38.6602 126.284 38.8002 126.004 39.1502 126.004ZM42.2302 130.106C42.5942 130.106 42.9302 130.288 42.9302 130.694V134.796H48.5022C48.8382 134.796 48.9922 135.062 48.9922 135.384C48.9922 135.706 48.8382 135.986 48.5022 135.986H37.7222C37.3862 135.986 37.2322 135.706 37.2322 135.384C37.2322 135.062 37.3862 134.796 37.7222 134.796H41.5442V130.694C41.5442 130.288 41.8802 130.106 42.2302 130.106ZM50.9404 126.074H55.1684C55.9804 126.074 56.2464 126.326 56.2464 127.124V128.678C56.2464 131.016 55.5604 131.786 51.2904 134.418C50.9824 134.6 50.6184 134.446 50.4364 134.18C50.2544 133.914 50.2404 133.494 50.5484 133.298C54.4824 130.89 54.8464 130.428 54.8464 128.622V127.572C54.8464 127.362 54.7764 127.292 54.5524 127.292H50.9404C50.5904 127.292 50.4364 127.012 50.4364 126.69C50.4364 126.354 50.5904 126.074 50.9404 126.074ZM59.2284 125.108C59.5924 125.108 59.9284 125.29 59.9284 125.696V129.336H61.4684C61.8324 129.336 61.9864 129.602 61.9864 129.938C61.9864 130.274 61.8324 130.554 61.4684 130.554H59.9284V136.616C59.9284 137.022 59.5924 137.204 59.2284 137.204C58.8644 137.204 58.5284 137.022 58.5284 136.616V125.696C58.5284 125.29 58.8644 125.108 59.2284 125.108ZM73.1746 125.948C73.5106 125.948 73.6646 126.228 73.6646 126.55C73.6646 126.872 73.5106 127.152 73.1746 127.152H70.9346V128.034C70.9346 128.958 71.2286 129.588 71.9006 130.162C72.5166 130.68 73.1186 131.142 73.5386 131.464C73.8466 131.688 73.8466 132.038 73.6366 132.318C73.4546 132.556 73.0906 132.71 72.7686 132.472C72.4046 132.192 71.8726 131.786 71.2846 131.296C70.5846 130.722 70.3326 130.386 70.2626 130.078H70.2486C70.1786 130.414 69.8986 130.792 69.1986 131.366C68.5966 131.856 68.0226 132.304 67.4766 132.696C67.1686 132.934 66.7906 132.78 66.6226 132.542C66.4266 132.262 66.3846 131.884 66.7206 131.646C67.3226 131.198 67.9526 130.722 68.5686 130.19C69.2406 129.616 69.5346 129 69.5346 128.076V127.152H67.1966C66.8466 127.152 66.6926 126.872 66.6926 126.55C66.6926 126.228 66.8466 125.948 67.1966 125.948H73.1746ZM76.1706 125.108C76.5206 125.108 76.8566 125.29 76.8566 125.696V133.984C76.8566 134.39 76.5206 134.572 76.1706 134.572C75.8066 134.572 75.4706 134.39 75.4706 133.984V129.742H73.4546C73.1046 129.742 72.9506 129.462 72.9506 129.14C72.9506 128.804 73.1046 128.538 73.4546 128.538H75.4706V125.696C75.4706 125.29 75.8066 125.108 76.1706 125.108ZM69.3386 133.396C69.6886 133.396 70.0386 133.578 70.0386 133.984V136.35C70.0386 136.56 70.1086 136.63 70.3326 136.63H76.6886C77.0386 136.63 77.1926 136.91 77.1926 137.246C77.1926 137.568 77.0386 137.848 76.6886 137.848H69.7026C68.8906 137.848 68.6246 137.596 68.6246 136.798V133.984C68.6246 133.578 68.9606 133.396 69.3386 133.396ZM81.2408 125.486C81.5908 125.486 81.9268 125.668 81.9268 126.06V127.292H87.7508V126.06C87.7508 125.668 88.0868 125.486 88.4228 125.486C88.7728 125.486 89.1228 125.668 89.1228 126.06V130.078C89.1228 130.876 88.8568 131.128 88.0448 131.128H81.6328C80.8208 131.128 80.5688 130.876 80.5688 130.078V126.06C80.5688 125.668 80.9048 125.486 81.2408 125.486ZM81.9268 129.742C81.9268 129.882 81.9968 129.952 82.1508 129.952H87.5268C87.6808 129.952 87.7508 129.882 87.7508 129.742V128.482H81.9268V129.742ZM90.2288 132.584C90.5648 132.584 90.7188 132.864 90.7188 133.186C90.7188 133.508 90.5648 133.774 90.2288 133.774H85.5387V137.596C85.5387 138.002 85.2028 138.184 84.8388 138.184C84.4748 138.184 84.1388 138.002 84.1388 137.596V133.774H79.4488C79.1128 133.774 78.9588 133.508 78.9588 133.186C78.9588 132.864 79.1128 132.584 79.4488 132.584H90.2288ZM100.913 126.172C101.249 126.172 101.403 126.452 101.403 126.774C101.403 127.096 101.249 127.376 100.913 127.376H99.1209V128.776C99.1209 129.924 99.3309 130.582 99.9609 131.338C100.451 131.926 100.955 132.444 101.305 132.808C101.543 133.074 101.515 133.466 101.277 133.704C101.039 133.928 100.675 133.984 100.409 133.718C100.171 133.48 99.7229 132.99 99.2749 132.5C98.6589 131.786 98.5049 131.436 98.4489 131.142H98.4349C98.3929 131.45 98.2109 131.842 97.5949 132.542C97.1469 133.046 96.7129 133.508 96.2509 133.97C95.9849 134.236 95.5929 134.166 95.3689 133.942C95.1309 133.69 95.0609 133.312 95.3269 133.032C95.8729 132.486 96.4049 131.926 96.9089 131.338C97.5389 130.582 97.7489 129.924 97.7489 128.776V127.376H95.8449C95.4949 127.376 95.3409 127.096 95.3409 126.774C95.3409 126.452 95.4949 126.172 95.8449 126.172H100.913ZM102.999 125.248C103.321 125.248 103.643 125.416 103.643 125.794V136.07C103.643 136.448 103.321 136.616 102.999 136.616C102.663 136.616 102.341 136.448 102.341 136.07V130.386H100.983C100.633 130.386 100.479 130.12 100.479 129.784C100.479 129.448 100.633 129.182 100.983 129.182H102.341V125.794C102.341 125.416 102.663 125.248 102.999 125.248ZM105.505 125.108C105.841 125.108 106.163 125.276 106.163 125.654V136.658C106.163 137.036 105.841 137.204 105.505 137.204C105.183 137.204 104.861 137.036 104.861 136.658V125.654C104.861 125.276 105.183 125.108 105.505 125.108ZM117.883 125.108C118.247 125.108 118.583 125.29 118.583 125.696V136.616C118.583 137.022 118.247 137.204 117.883 137.204C117.533 137.204 117.197 137.022 117.197 136.616V130.596H114.047C113.557 131.73 112.339 132.64 109.455 134.418C109.147 134.6 108.783 134.446 108.601 134.18C108.419 133.914 108.405 133.494 108.713 133.298C112.647 130.89 112.955 130.47 112.955 128.622V127.572C112.955 127.362 112.885 127.292 112.661 127.292H109.105C108.755 127.292 108.601 127.012 108.601 126.69C108.601 126.354 108.755 126.074 109.105 126.074H113.277C114.089 126.074 114.355 126.326 114.355 127.124V128.678C114.355 128.944 114.341 129.182 114.327 129.406H117.197V125.696C117.197 125.29 117.533 125.108 117.883 125.108ZM131.157 125.108C131.493 125.108 131.815 125.276 131.815 125.654V136.658C131.815 137.036 131.493 137.204 131.157 137.204C130.835 137.204 130.513 137.036 130.513 136.658V131.016H129.155V136.07C129.155 136.448 128.833 136.616 128.497 136.616C128.175 136.616 127.853 136.448 127.853 136.07V125.794C127.853 125.416 128.175 125.248 128.497 125.248C128.833 125.248 129.155 125.416 129.155 125.794V129.826H130.513V125.654C130.513 125.276 130.835 125.108 131.157 125.108ZM126.131 126.158C126.481 126.158 126.621 126.438 126.621 126.76C126.621 127.068 126.481 127.348 126.131 127.348H122.715C122.505 127.348 122.421 127.418 122.421 127.642V129.77C122.421 129.98 122.505 130.064 122.715 130.064H126.271C126.621 130.064 126.761 130.33 126.761 130.652C126.761 130.974 126.621 131.24 126.271 131.24H124.563V133.606C125.305 133.578 126.047 133.55 126.775 133.494C127.097 133.466 127.279 133.704 127.293 134.026C127.307 134.348 127.167 134.628 126.859 134.642C125.319 134.754 123.163 134.824 121.007 134.824C120.671 134.824 120.517 134.544 120.517 134.222C120.517 133.914 120.671 133.648 121.007 133.648C121.721 133.648 122.463 133.648 123.219 133.634V131.24H122.127C121.315 131.24 121.049 130.988 121.049 130.19V127.208C121.049 126.41 121.315 126.158 122.127 126.158H126.131ZM139.308 125.598C142.01 125.598 143.62 126.83 143.62 128.93C143.62 131.03 142.01 132.262 139.308 132.262C136.606 132.262 135.01 131.03 135.01 128.93C135.01 126.83 136.606 125.598 139.308 125.598ZM139.308 126.788C137.306 126.788 136.41 127.712 136.41 128.93C136.41 130.162 137.306 131.072 139.308 131.072C141.31 131.072 142.206 130.162 142.206 128.93C142.206 127.712 141.31 126.788 139.308 126.788ZM137.152 132.542C137.516 132.542 137.852 132.724 137.852 133.116V134.81H140.764V133.116C140.764 132.724 141.1 132.542 141.464 132.542C141.842 132.542 142.164 132.724 142.164 133.116V134.81H144.698C145.034 134.81 145.188 135.076 145.188 135.384C145.188 135.706 145.034 135.986 144.698 135.986H133.918C133.582 135.986 133.428 135.706 133.428 135.384C133.428 135.076 133.582 134.81 133.918 134.81H136.452V133.116C136.452 132.724 136.774 132.542 137.152 132.542Z" fill="white"/>
<path d="M29.698 149.766C29.936 149.766 30.048 149.962 30.048 150.186C30.048 150.424 29.936 150.62 29.698 150.62H26.24C26.044 150.62 25.974 150.69 25.974 150.872V152.16H29.054C29.292 152.16 29.404 152.356 29.404 152.566C29.404 152.804 29.292 153 29.054 153H25.974V154.302C25.974 154.498 26.044 154.568 26.24 154.568C27.598 154.568 29.208 154.47 30.272 154.302C30.482 154.274 30.636 154.442 30.678 154.68C30.706 154.918 30.608 155.142 30.384 155.17C29.544 155.31 27.878 155.422 25.946 155.422C25.218 155.422 24.98 155.198 24.98 154.484V150.704C24.98 149.99 25.218 149.766 25.946 149.766H29.698ZM34.836 149.164C35.088 149.164 35.326 149.29 35.326 149.57V155.59C35.326 155.87 35.088 155.996 34.836 155.996C34.598 155.996 34.36 155.87 34.36 155.59V149.57C34.36 149.29 34.598 149.164 34.836 149.164ZM32.372 149.234C32.61 149.234 32.848 149.36 32.848 149.64V155.52C32.848 155.8 32.61 155.926 32.372 155.926C32.12 155.926 31.882 155.8 31.882 155.52V152.804H30.412C30.174 152.804 30.076 152.608 30.076 152.342C30.076 152.104 30.174 151.908 30.412 151.908H31.882V149.64C31.882 149.36 32.12 149.234 32.372 149.234ZM34.36 156.696C35.088 156.696 35.326 156.92 35.326 157.634V158.768C35.326 159.482 35.088 159.706 34.36 159.706H28.284C28.13 159.706 28.06 159.762 28.06 159.93V160.882C28.06 161.036 28.13 161.092 28.284 161.092H35.326C35.55 161.092 35.662 161.288 35.662 161.512C35.662 161.736 35.55 161.932 35.326 161.932H28.032C27.304 161.932 27.066 161.708 27.066 160.994V159.846C27.066 159.132 27.304 158.908 28.032 158.908H34.108C34.262 158.908 34.332 158.838 34.332 158.684V157.746C34.332 157.592 34.262 157.522 34.108 157.522H27.374C27.15 157.522 27.038 157.326 27.038 157.102C27.038 156.892 27.15 156.696 27.374 156.696H34.36ZM42.7202 149.822C43.4482 149.822 43.6862 150.046 43.6862 150.76V152.482C43.6862 153.196 43.4482 153.42 42.7202 153.42H39.4162C39.2202 153.42 39.1502 153.476 39.1502 153.672V155.086C39.1502 155.268 39.2202 155.338 39.4162 155.338C41.5442 155.338 43.2942 155.24 44.9602 155.002C45.1842 154.974 45.3382 155.142 45.3802 155.38C45.4082 155.618 45.3102 155.856 45.0862 155.884C43.6302 156.08 41.8102 156.206 39.1082 156.206C38.3802 156.206 38.1422 155.982 38.1422 155.268V153.518C38.1422 152.804 38.3802 152.58 39.1082 152.58H42.4262C42.6082 152.58 42.6922 152.524 42.6922 152.328V150.942C42.6922 150.746 42.6082 150.69 42.4262 150.69H38.4782C38.2402 150.69 38.1422 150.48 38.1422 150.256C38.1422 150.018 38.2402 149.822 38.4782 149.822H42.7202ZM47.1582 149.164C47.4102 149.164 47.6622 149.29 47.6622 149.584V156.822C47.6622 157.116 47.4102 157.242 47.1582 157.242C46.8922 157.242 46.6402 157.116 46.6402 156.822V149.584C46.6402 149.29 46.8922 149.164 47.1582 149.164ZM43.7982 157.41C46.3322 157.41 47.7602 158.208 47.7602 159.762C47.7602 161.33 46.3322 162.114 43.7982 162.114C41.2642 162.114 39.8502 161.33 39.8502 159.762C39.8502 158.208 41.2642 157.41 43.7982 157.41ZM43.7982 158.25C41.7962 158.25 40.8582 158.824 40.8582 159.762C40.8582 160.714 41.7962 161.288 43.7982 161.288C45.8142 161.288 46.7522 160.714 46.7522 159.762C46.7522 158.824 45.8142 158.25 43.7982 158.25ZM55.7424 150.116C56.4704 150.116 56.7084 150.34 56.7084 151.054V156.962C56.7084 157.676 56.4704 157.9 55.7424 157.9H51.7944C51.0664 157.9 50.8284 157.676 50.8284 156.962V151.054C50.8284 150.34 51.0664 150.116 51.7944 150.116H55.7424ZM52.1024 150.998C51.9204 150.998 51.8364 151.068 51.8364 151.25V156.766C51.8364 156.948 51.9204 157.018 52.1024 157.018H55.4204C55.6164 157.018 55.6864 156.948 55.6864 156.766V151.25C55.6864 151.068 55.6164 150.998 55.4204 150.998H52.1024ZM59.8864 149.164C60.1524 149.164 60.4044 149.29 60.4044 149.584V160.728C60.4044 161.022 60.1524 161.148 59.8864 161.148C59.6344 161.148 59.3824 161.022 59.3824 160.728V149.584C59.3824 149.29 59.6344 149.164 59.8864 149.164ZM71.7186 149.43C72.4466 149.43 72.6846 149.654 72.6846 150.368V151.25C72.6846 151.964 72.4466 152.188 71.7186 152.188H65.7126C65.5586 152.188 65.4886 152.258 65.4886 152.412V153.154C65.4886 153.308 65.5586 153.364 65.7126 153.364H72.6846C72.9086 153.364 73.0206 153.56 73.0206 153.77C73.0206 153.994 72.9086 154.176 72.6846 154.176H65.4606C64.7326 154.176 64.4946 153.952 64.4946 153.238V152.342C64.4946 151.628 64.7326 151.404 65.4606 151.404H71.4666C71.6346 151.404 71.7046 151.348 71.7046 151.194V150.452C71.7046 150.298 71.6346 150.242 71.4666 150.242H64.8026C64.5786 150.242 64.4666 150.046 64.4666 149.822C64.4666 149.612 64.5786 149.43 64.8026 149.43H71.7186ZM74.0986 155.282C74.3226 155.282 74.4346 155.478 74.4346 155.702C74.4346 155.94 74.3226 156.122 74.0986 156.122H63.0946C62.8706 156.122 62.7586 155.94 62.7586 155.702C62.7586 155.478 62.8706 155.282 63.0946 155.282H74.0986ZM71.7886 157.228C72.5166 157.228 72.7546 157.452 72.7546 158.166V159.062C72.7546 159.776 72.5166 160 71.7886 160H65.6426C65.4746 160 65.4046 160.056 65.4046 160.224V160.952C65.4046 161.12 65.4746 161.176 65.6426 161.176H72.7686C72.9926 161.176 73.0906 161.372 73.0906 161.582C73.0906 161.792 72.9926 161.988 72.7686 161.988H65.3906C64.6626 161.988 64.4246 161.778 64.4246 161.064V160.154C64.4246 159.44 64.6626 159.216 65.3906 159.216H71.5506C71.7046 159.216 71.7746 159.16 71.7746 158.992V158.264C71.7746 158.11 71.7046 158.04 71.5506 158.04H64.7326C64.5086 158.04 64.3966 157.858 64.3966 157.634C64.3966 157.424 64.5086 157.228 64.7326 157.228H71.7886ZM85.3428 150.13C85.5948 150.13 85.7068 150.326 85.7068 150.564C85.7068 150.816 85.5948 151.012 85.3428 151.012H81.0728C80.8768 151.012 80.8068 151.082 80.8068 151.278V156.85C80.8068 157.046 80.8768 157.116 81.0728 157.116C83.1308 157.116 84.7968 157.004 86.4628 156.78C86.6868 156.752 86.8408 156.906 86.8828 157.158C86.9108 157.41 86.8128 157.648 86.5888 157.676C85.1328 157.872 83.3968 157.998 80.7508 157.998C80.0228 157.998 79.7848 157.774 79.7848 157.06V151.068C79.7848 150.354 80.0228 150.13 80.7508 150.13H85.3428ZM88.9688 149.164C89.2208 149.164 89.4728 149.29 89.4728 149.584V160.728C89.4728 161.022 89.2208 161.148 88.9688 161.148C88.7028 161.148 88.4648 161.022 88.4648 160.728V154.344H85.2728C85.0208 154.344 84.9088 154.134 84.9088 153.896C84.9088 153.644 85.0208 153.448 85.2728 153.448H88.4648V149.584C88.4648 149.29 88.7028 149.164 88.9688 149.164ZM105.099 149.542C105.323 149.542 105.435 149.724 105.435 149.962C105.435 150.2 105.323 150.396 105.099 150.396H101.599V150.704C101.599 151.362 101.879 151.684 102.929 152.09C103.895 152.454 104.777 152.776 105.575 153.056C105.841 153.14 105.897 153.392 105.813 153.616C105.729 153.84 105.533 153.98 105.253 153.882C104.483 153.63 103.629 153.308 102.691 152.944C101.557 152.524 101.207 152.202 101.095 151.852H101.081C100.983 152.202 100.619 152.538 99.4849 152.958C98.5329 153.322 97.6789 153.644 96.9229 153.896C96.6429 153.994 96.4329 153.854 96.3489 153.63C96.2649 153.392 96.3209 153.14 96.5869 153.056C97.3849 152.776 98.2669 152.454 99.2329 152.09C100.283 151.684 100.563 151.362 100.563 150.704V150.396H97.0629C96.8389 150.396 96.7269 150.2 96.7269 149.962C96.7269 149.724 96.8389 149.542 97.0629 149.542H105.099ZM106.569 154.764C106.807 154.764 106.919 154.96 106.919 155.198C106.919 155.436 106.807 155.632 106.569 155.632H95.5929C95.3549 155.632 95.2429 155.436 95.2429 155.198C95.2429 154.96 95.3549 154.764 95.5929 154.764H106.569ZM104.273 156.948C105.001 156.948 105.239 157.172 105.239 157.886V158.922C105.239 159.636 105.001 159.86 104.273 159.86H98.1269C97.9729 159.86 97.9029 159.916 97.9029 160.084V160.952C97.9029 161.106 97.9729 161.162 98.1269 161.162H105.253C105.477 161.162 105.575 161.358 105.575 161.568C105.575 161.792 105.477 161.988 105.253 161.988H97.8749C97.1469 161.988 96.9089 161.764 96.9089 161.05V160C96.9089 159.286 97.1469 159.062 97.8749 159.062H104.021C104.189 159.062 104.259 159.006 104.259 158.852V157.984C104.259 157.83 104.189 157.76 104.021 157.76H97.2169C96.9929 157.76 96.8809 157.578 96.8809 157.354C96.8809 157.144 96.9929 156.948 97.2169 156.948H104.273ZM110.967 156.724C111.219 156.724 111.471 156.85 111.471 157.13V158.544H117.449V157.13C117.449 156.85 117.701 156.724 117.953 156.724C118.205 156.724 118.457 156.85 118.457 157.13V160.924C118.457 161.638 118.219 161.862 117.491 161.862H111.429C110.701 161.862 110.463 161.638 110.463 160.924V157.13C110.463 156.85 110.715 156.724 110.967 156.724ZM117.953 149.164C118.205 149.164 118.457 149.29 118.457 149.584V155.59C118.457 155.884 118.205 156.01 117.953 156.01C117.687 156.01 117.449 155.884 117.449 155.59V153.056H114.061C113.655 154.106 112.451 154.75 109.231 156.22C109.021 156.318 108.769 156.22 108.643 155.982C108.531 155.772 108.545 155.478 108.797 155.366C112.843 153.546 113.249 153.196 113.249 151.74V151.026C113.249 150.83 113.179 150.76 112.983 150.76H109.077C108.825 150.76 108.713 150.564 108.713 150.326C108.713 150.074 108.825 149.878 109.077 149.878H113.291C114.019 149.878 114.257 150.102 114.257 150.816V151.782C114.257 151.922 114.243 152.048 114.243 152.174H117.449V149.584C117.449 149.29 117.687 149.164 117.953 149.164ZM111.471 160.742C111.471 160.938 111.541 161.008 111.737 161.008H117.183C117.379 161.008 117.449 160.938 117.449 160.742V159.398H111.471V160.742ZM129.771 150.088C130.499 150.088 130.737 150.312 130.737 151.026V152.314C130.737 154.022 130.555 155.338 130.247 156.738C130.191 156.99 129.939 157.102 129.645 157.06C129.379 157.004 129.197 156.822 129.253 156.584C129.547 155.156 129.729 153.882 129.729 152.272V151.25C129.729 151.054 129.645 150.984 129.463 150.984H122.575C122.337 150.984 122.225 150.788 122.225 150.536C122.225 150.284 122.337 150.088 122.575 150.088H129.771ZM125.711 154.134C125.977 154.134 126.215 154.26 126.215 154.554V158.964H132.039C132.291 158.964 132.403 159.16 132.403 159.412C132.403 159.65 132.291 159.846 132.039 159.846H121.091C120.839 159.846 120.727 159.65 120.727 159.412C120.727 159.16 120.839 158.964 121.091 158.964H125.207V154.554C125.207 154.26 125.445 154.134 125.711 154.134ZM144.39 155.338C144.614 155.324 144.768 155.464 144.81 155.702C144.838 155.94 144.726 156.178 144.516 156.206C142.85 156.416 140.862 156.458 137.586 156.458C137.334 156.458 137.222 156.262 137.222 156.038C137.222 155.8 137.334 155.604 137.586 155.604H138.79V150.942H137.684C137.446 150.942 137.334 150.732 137.334 150.508C137.334 150.284 137.446 150.074 137.684 150.074H144.082C144.334 150.074 144.446 150.284 144.446 150.508C144.446 150.732 144.334 150.942 144.082 150.942H142.976V155.478C143.466 155.45 143.928 155.394 144.39 155.338ZM139.77 155.604C140.582 155.59 141.31 155.562 141.996 155.534V150.942H139.77V155.604ZM146.938 149.164C147.19 149.164 147.442 149.29 147.442 149.584V158.124C147.442 158.418 147.19 158.544 146.938 158.544C146.686 158.544 146.434 158.418 146.434 158.124V154.61H144.754C144.516 154.61 144.404 154.414 144.404 154.176C144.404 153.952 144.516 153.742 144.754 153.742H146.434V152.356H144.754C144.516 152.356 144.404 152.146 144.404 151.908C144.404 151.684 144.516 151.488 144.754 151.488H146.434V149.584C146.434 149.29 146.686 149.164 146.938 149.164ZM139.966 157.732C140.232 157.732 140.484 157.858 140.484 158.152V160.616C140.484 160.798 140.553 160.868 140.75 160.868H147.442C147.694 160.868 147.806 161.078 147.806 161.316C147.806 161.554 147.694 161.764 147.442 161.764H140.414C139.686 161.764 139.448 161.54 139.448 160.826V158.152C139.448 157.858 139.7 157.732 139.966 157.732ZM153.142 149.808C155.27 149.808 156.292 151.208 156.292 152.986C156.292 154.75 155.27 156.15 153.142 156.15C151.014 156.15 149.992 154.75 149.992 152.986C149.992 151.208 151.014 149.808 153.142 149.808ZM153.142 150.69C151.602 150.69 150.986 151.754 150.986 152.986C150.986 154.204 151.602 155.268 153.142 155.268C154.682 155.268 155.298 154.204 155.298 152.986C155.298 151.754 154.682 150.69 153.142 150.69ZM158.98 149.164C159.246 149.164 159.498 149.29 159.498 149.584V152.832H161.276C161.528 152.832 161.64 153.042 161.64 153.294C161.64 153.532 161.528 153.742 161.276 153.742H159.498V158.124C159.498 158.418 159.246 158.544 158.98 158.544C158.728 158.544 158.476 158.418 158.476 158.124V149.584C158.476 149.29 158.728 149.164 158.98 149.164ZM152.218 157.452C152.484 157.452 152.736 157.578 152.736 157.872V160.616C152.736 160.798 152.806 160.868 153.002 160.868H159.498C159.75 160.868 159.862 161.078 159.862 161.316C159.862 161.554 159.75 161.764 159.498 161.764H152.666C151.938 161.764 151.7 161.54 151.7 160.826V157.872C151.7 157.578 151.952 157.452 152.218 157.452ZM166.276 153C168.11 153 169.202 154.134 169.202 155.702C169.202 157.27 168.11 158.404 166.276 158.404C164.442 158.404 163.35 157.27 163.35 155.702C163.35 154.134 164.442 153 166.276 153ZM166.276 149.164C166.542 149.164 166.794 149.29 166.794 149.584V150.998H169.608C169.846 150.998 169.958 151.194 169.958 151.432C169.958 151.684 169.846 151.88 169.608 151.88H162.804C162.552 151.88 162.44 151.684 162.44 151.432C162.44 151.194 162.552 150.998 162.804 150.998H165.758V149.584C165.758 149.29 166.024 149.164 166.276 149.164ZM166.276 153.854C165.044 153.854 164.302 154.61 164.302 155.702C164.302 156.794 165.044 157.55 166.276 157.55C167.508 157.55 168.25 156.794 168.25 155.702C168.25 154.61 167.508 153.854 166.276 153.854ZM171.736 149.164C171.988 149.164 172.24 149.29 172.24 149.584V153.63H174.018C174.27 153.63 174.382 153.84 174.382 154.078C174.382 154.33 174.27 154.54 174.018 154.54H172.24V160.728C172.24 161.022 171.988 161.148 171.736 161.148C171.47 161.148 171.232 161.022 171.232 160.728V149.584C171.232 149.29 171.47 149.164 171.736 149.164ZM182.952 149.304C183.19 149.304 183.428 149.43 183.428 149.71V160.154C183.428 160.434 183.19 160.56 182.952 160.56C182.7 160.56 182.462 160.434 182.462 160.154V154.442H180.222C179.858 155.632 178.864 156.374 176.19 158.264C175.994 158.404 175.7 158.334 175.56 158.124C175.406 157.914 175.406 157.606 175.616 157.466C179.116 155.044 179.41 154.778 179.41 152.608V151.39C179.41 151.208 179.326 151.138 179.144 151.138H175.952C175.7 151.138 175.588 150.928 175.588 150.69C175.588 150.452 175.7 150.242 175.952 150.242H179.438C180.166 150.242 180.404 150.466 180.404 151.18V152.65C180.404 152.986 180.39 153.294 180.362 153.56H182.462V149.71C182.462 149.43 182.7 149.304 182.952 149.304ZM185.5 149.164C185.752 149.164 185.99 149.29 185.99 149.57V160.742C185.99 161.022 185.752 161.148 185.5 161.148C185.262 161.148 185.024 161.022 185.024 160.742V149.57C185.024 149.29 185.262 149.164 185.5 149.164ZM195.19 149.906C197.29 149.906 198.368 151.348 198.368 154.008C198.368 156.668 197.29 158.11 195.19 158.11C193.09 158.11 191.998 156.668 191.998 154.008C191.998 151.348 193.09 149.906 195.19 149.906ZM195.19 150.816C193.664 150.816 193.006 151.978 193.006 154.008C193.006 156.038 193.664 157.2 195.19 157.2C196.716 157.2 197.374 156.038 197.374 154.008C197.374 151.978 196.716 150.816 195.19 150.816ZM201.308 149.164C201.574 149.164 201.826 149.29 201.826 149.584V160.728C201.826 161.022 201.574 161.148 201.308 161.148C201.056 161.148 200.804 161.022 200.804 160.728V149.584C200.804 149.29 201.056 149.164 201.308 149.164ZM210.018 149.458C212.664 149.458 214.162 150.2 214.162 151.754C214.162 152.72 213.574 153.378 212.51 153.728V155.604H215.506C215.744 155.604 215.856 155.8 215.856 156.038C215.856 156.276 215.744 156.472 215.506 156.472H204.53C204.292 156.472 204.18 156.276 204.18 156.038C204.18 155.8 204.292 155.604 204.53 155.604H207.526V153.728C206.448 153.378 205.874 152.72 205.874 151.754C205.874 150.2 207.372 149.458 210.018 149.458ZM210.018 157.578C212.678 157.578 214.19 158.32 214.19 159.874C214.19 161.428 212.678 162.17 210.018 162.17C207.358 162.17 205.846 161.428 205.846 159.874C205.846 158.32 207.358 157.578 210.018 157.578ZM210.018 158.404C207.876 158.404 206.868 158.922 206.868 159.874C206.868 160.826 207.876 161.344 210.018 161.344C212.16 161.344 213.168 160.826 213.168 159.874C213.168 158.922 212.16 158.404 210.018 158.404ZM210.018 150.298C207.89 150.298 206.896 150.802 206.896 151.754C206.896 152.706 207.89 153.21 210.018 153.21C212.146 153.21 213.14 152.706 213.14 151.754C213.14 150.802 212.146 150.298 210.018 150.298ZM210.018 154.05C209.458 154.05 208.954 154.022 208.506 153.952V155.604H211.53V153.952C211.082 154.022 210.564 154.05 210.018 154.05ZM220.717 152.006C222.537 152.006 223.615 152.762 223.615 153.98C223.615 155.198 222.537 155.954 220.717 155.954C218.897 155.954 217.819 155.198 217.819 153.98C217.819 152.762 218.897 152.006 220.717 152.006ZM220.717 148.884C220.983 148.884 221.235 149.01 221.235 149.304V150.298H224.035C224.273 150.298 224.385 150.494 224.385 150.718C224.385 150.97 224.273 151.166 224.035 151.166H217.259C217.021 151.166 216.909 150.97 216.909 150.718C216.909 150.494 217.021 150.298 217.259 150.298H220.199V149.304C220.199 149.01 220.451 148.884 220.717 148.884ZM220.717 152.79C219.457 152.79 218.757 153.252 218.757 153.98C218.757 154.708 219.457 155.17 220.717 155.17C221.977 155.17 222.677 154.708 222.677 153.98C222.677 153.252 221.977 152.79 220.717 152.79ZM226.205 149.164C226.457 149.164 226.709 149.29 226.709 149.584V152.16H228.487C228.739 152.16 228.851 152.37 228.851 152.608C228.851 152.86 228.739 153.07 228.487 153.07H226.709V155.828C226.709 156.122 226.457 156.248 226.205 156.248C225.939 156.248 225.701 156.122 225.701 155.828V149.584C225.701 149.29 225.939 149.164 226.205 149.164ZM225.743 156.948C226.471 156.948 226.709 157.172 226.709 157.886V158.894C226.709 159.608 226.471 159.832 225.743 159.832H220.157C220.003 159.832 219.933 159.888 219.933 160.056V160.896C219.933 161.05 220.003 161.12 220.157 161.12H226.709C226.933 161.12 227.045 161.316 227.045 161.512C227.045 161.736 226.933 161.932 226.709 161.932H219.905C219.177 161.932 218.939 161.708 218.939 160.994V159.986C218.939 159.272 219.177 159.048 219.905 159.048H225.491C225.659 159.048 225.729 158.978 225.729 158.824V157.984C225.729 157.816 225.659 157.76 225.491 157.76H219.247C219.023 157.76 218.911 157.564 218.911 157.34C218.911 157.144 219.023 156.948 219.247 156.948H225.743ZM239.003 149.486C239.269 149.486 239.521 149.626 239.521 149.92V150.788C239.521 151.796 240.011 152.426 240.949 152.916C241.999 153.462 242.853 153.882 243.651 154.26C243.903 154.372 243.917 154.68 243.819 154.876C243.721 155.1 243.497 155.24 243.231 155.114C242.321 154.694 241.453 154.26 240.571 153.784C239.535 153.238 239.101 152.734 239.017 152.37H239.003C238.919 152.748 238.485 153.252 237.449 153.798C236.567 154.274 235.685 154.708 234.789 155.128C234.523 155.254 234.285 155.1 234.187 154.89C234.089 154.68 234.103 154.372 234.355 154.26C235.153 153.882 236.007 153.462 237.057 152.916C237.995 152.426 238.485 151.796 238.485 150.788V149.92C238.485 149.626 238.737 149.486 239.003 149.486ZM244.477 156.612C244.729 156.612 244.841 156.808 244.841 157.06C244.841 157.298 244.729 157.494 244.477 157.494H239.521V161.708C239.521 162.002 239.269 162.128 239.003 162.128C238.751 162.128 238.499 162.002 238.499 161.708V157.494H233.529C233.277 157.494 233.165 157.298 233.165 157.06C233.165 156.808 233.277 156.612 233.529 156.612H244.477ZM253.131 149.696C255.273 149.696 256.295 150.984 256.295 152.664C256.295 154.33 255.273 155.618 253.131 155.618C250.989 155.618 249.967 154.33 249.967 152.664C249.967 150.984 250.989 149.696 253.131 149.696ZM253.131 150.564C251.577 150.564 250.961 151.53 250.961 152.664C250.961 153.798 251.577 154.75 253.131 154.75C254.685 154.75 255.301 153.798 255.301 152.664C255.301 151.53 254.685 150.564 253.131 150.564ZM259.291 149.164C259.543 149.164 259.795 149.29 259.795 149.584V155.954C259.795 156.248 259.543 156.374 259.291 156.374C259.025 156.374 258.773 156.248 258.773 155.954V149.584C258.773 149.29 259.025 149.164 259.291 149.164ZM253.551 156.794C253.803 156.794 254.041 156.92 254.041 157.214V157.97C254.041 158.894 254.195 159.23 254.839 159.958C255.077 160.224 255.357 160.532 255.609 160.756C255.763 160.91 255.875 160.91 256.043 160.756C256.281 160.532 256.575 160.224 256.813 159.958C257.443 159.23 257.597 158.894 257.597 157.97V157.214C257.597 156.92 257.849 156.794 258.101 156.794C258.353 156.794 258.605 156.92 258.605 157.214V157.97C258.605 158.908 258.773 159.272 259.529 159.958C259.879 160.294 260.397 160.7 260.901 161.078C261.083 161.218 261.083 161.47 260.929 161.68C260.761 161.876 260.523 161.932 260.299 161.764C259.823 161.4 259.403 161.05 259.081 160.77C258.437 160.21 258.185 159.902 258.101 159.622H258.087C258.003 159.916 257.793 160.168 257.163 160.84C256.925 161.092 256.687 161.33 256.449 161.554C255.973 161.988 255.679 161.988 255.189 161.554C254.951 161.33 254.727 161.092 254.475 160.84C253.845 160.168 253.649 159.916 253.565 159.622H253.551C253.467 159.916 253.215 160.224 252.557 160.784C252.249 161.05 251.815 161.414 251.339 161.778C251.129 161.932 250.877 161.89 250.723 161.68C250.555 161.484 250.569 161.218 250.737 161.078C251.255 160.7 251.759 160.294 252.123 159.958C252.879 159.272 253.047 158.908 253.047 157.97V157.214C253.047 156.92 253.299 156.794 253.551 156.794ZM272.117 149.164C272.369 149.164 272.621 149.29 272.621 149.584V160.728C272.621 161.022 272.369 161.148 272.117 161.148C271.851 161.148 271.613 161.022 271.613 160.728V154.442H268.897C268.785 156.822 267.735 158.096 265.775 158.096C263.703 158.096 262.625 156.668 262.625 154.008C262.625 151.348 263.703 149.92 265.775 149.92C267.721 149.92 268.785 151.194 268.897 153.56H271.613V149.584C271.613 149.29 271.851 149.164 272.117 149.164ZM265.775 150.83C264.277 150.83 263.633 151.978 263.633 154.008C263.633 156.038 264.277 157.186 265.775 157.186C267.273 157.186 267.917 156.038 267.917 154.008C267.917 151.978 267.273 150.83 265.775 150.83ZM280.729 149.682C283.403 149.682 284.915 150.914 284.915 152.93C284.915 154.946 283.403 156.178 280.729 156.178C278.055 156.178 276.543 154.946 276.543 152.93C276.543 150.914 278.055 149.682 280.729 149.682ZM280.729 150.55C278.587 150.55 277.565 151.558 277.565 152.93C277.565 154.288 278.587 155.296 280.729 155.296C282.871 155.296 283.893 154.288 283.893 152.93C283.893 151.558 282.871 150.55 280.729 150.55ZM278.503 156.5C278.783 156.5 279.021 156.626 279.021 156.92V158.978H282.437V156.92C282.437 156.626 282.675 156.5 282.941 156.5C283.207 156.5 283.459 156.626 283.459 156.92V158.978H286.217C286.455 158.978 286.567 159.174 286.567 159.412C286.567 159.65 286.455 159.846 286.217 159.846H275.241C275.003 159.846 274.891 159.65 274.891 159.412C274.891 159.174 275.003 158.978 275.241 158.978H277.999V156.92C277.999 156.626 278.251 156.5 278.503 156.5Z" fill="white"/>
</svg>
