<svg width="33" height="32" viewBox="0 0 33 32" fill="none" xmlns="http://www.w3.org/2000/svg">
<path d="M10.338 21.1655C9.14889 20.2368 8.1858 19.0507 7.52108 17.6962C6.85636 16.3418 6.50731 14.8543 6.50015 13.3456C6.4702 7.92527 10.84 3.4195 16.2589 3.29196C18.3587 3.2414 20.4212 3.85329 22.1537 5.04085C23.8862 6.2284 25.2008 7.93132 25.911 9.90805C26.6212 11.8848 26.691 14.0349 26.1104 16.0536C25.5299 18.0722 24.3284 19.8567 22.6766 21.1541C22.3127 21.436 22.0178 21.7969 21.8139 22.2096C21.6101 22.6223 21.5028 23.0759 21.5 23.5361L21.5 24.2891C21.5 24.5544 21.3947 24.8087 21.2071 24.9962C21.0196 25.1838 20.7652 25.2891 20.5 25.2891H12.5C12.2348 25.2891 11.9804 25.1838 11.7929 24.9962C11.6053 24.8087 11.5 24.5544 11.5 24.2891L11.5 23.5353C11.4988 23.078 11.3936 22.627 11.1923 22.2164C10.991 21.8058 10.6988 21.4464 10.338 21.1655Z" fill="#FFDC3F" stroke="#FFDC3F" stroke-linecap="round" stroke-linejoin="round"/>
<path d="M11.5 28.7109H21.5M16.5 24.7109V17.7109M16.5 17.7109L12.5 13.7109M16.5 17.7109L20.5 13.7109" stroke="#FFF1B4" stroke-width="2" stroke-linecap="round" stroke-linejoin="round"/>
<path d="M11.5 28.7109H21.5" stroke="#9D621D" stroke-width="2" stroke-linecap="round" stroke-linejoin="round"/>
<path d="M19.939 6.17773C20.8745 6.61675 22.8088 7.87326 23.061 9.38721" stroke="#FEE885" stroke-width="2" stroke-linecap="round"/>
</svg>
