<svg width="24" height="25" viewBox="0 0 24 25" fill="none" xmlns="http://www.w3.org/2000/svg">
<rect x="8.03125" y="3.8125" width="7.9375" height="4.1875" rx="2" stroke="#604136" stroke-width="2"/>
<path d="M2.25 11.0625H21.75V19.3875C21.75 20.3816 20.9441 21.1875 19.95 21.1875H4.05C3.05589 21.1875 2.25 20.3816 2.25 19.3875V11.0625Z" fill="#604136"/>
<path d="M2.25 8.05C2.25 7.05589 3.05589 6.25 4.05 6.25H19.95C20.9441 6.25 21.75 7.05589 21.75 8.05V11.9062H2.25V8.05Z" fill="#795548"/>
<path d="M21.75 11.8332C21.75 12.2588 17.3848 13.5625 12 13.5625C6.61522 13.5625 2.25 12.2588 2.25 11.8332C2.25 11.4075 6.61522 11.0625 12 11.0625C17.3848 11.0625 21.75 11.4075 21.75 11.8332Z" fill="#795548"/>
<rect x="10.6875" y="11.9062" width="2.625" height="4.0625" rx="0.6" fill="#D9D9D9"/>
<rect x="9.96875" y="13.3594" width="4.06" height="1.00781" rx="0.503906" fill="#7C7370"/>
</svg>
