<svg width="27" height="26" viewBox="0 0 27 26" fill="none" xmlns="http://www.w3.org/2000/svg">
<path d="M9.5 17H2.5C2.23478 17 1.98043 16.8946 1.79289 16.7071C1.60536 16.5196 1.5 16.2652 1.5 16V10C1.5 9.73478 1.60536 9.48043 1.79289 9.29289C1.98043 9.10536 2.23478 9 2.5 9H9.5V2C9.5 1.73478 9.60536 1.48043 9.79289 1.29289C9.98043 1.10536 10.2348 1 10.5 1H16.5C16.7652 1 17.0196 1.10536 17.2071 1.29289C17.3946 1.48043 17.5 1.73478 17.5 2V9H24.5C24.7652 9 25.0196 9.10536 25.2071 9.29289C25.3946 9.48043 25.5 9.73478 25.5 10V16C25.5 16.2652 25.3946 16.5196 25.2071 16.7071C25.0196 16.8946 24.7652 17 24.5 17H17.5V24C17.5 24.2652 17.3946 24.5196 17.2071 24.7071C17.0196 24.8946 16.7652 25 16.5 25H10.5C10.2348 25 9.98043 24.8946 9.79289 24.7071C9.60536 24.5196 9.5 24.2652 9.5 24V17Z" stroke="url(#paint0_linear_702_925)" stroke-width="1.5" stroke-linecap="round" stroke-linejoin="round"/>
<defs>
<linearGradient id="paint0_linear_702_925" x1="1.5" y1="26.6847" x2="25.9873" y2="7.43056" gradientUnits="userSpaceOnUse">
<stop offset="0.046875" stop-color="#7CEFA7"/>
<stop offset="1" stop-color="#8FD3F4"/>
</linearGradient>
</defs>
</svg>
