<svg width="141" height="140" viewBox="0 0 141 140" fill="none" xmlns="http://www.w3.org/2000/svg">
<path d="M17.3745 61.1282C17.3745 61.1282 13.8658 70.5813 21.8377 73.4252C20.9951 78.9351 25.2148 82.1607 30.8234 83.2996C30.6786 71.0685 21.1004 60.9176 17.3745 61.1282Z" fill="#FAFFE6"/>
<path d="M22.3798 77.619C22.9526 81.4701 32.1621 85.7226 44.6763 83.5437C44.922 80.7217 44.6453 77.8786 43.86 75.157C42.7936 71.3192 40.7528 68.37 37.0532 65.4472C34.0251 63.0576 30.0687 61.3065 27.0801 59.0617C25.3685 57.7451 23.7294 56.4285 22.1692 55.0132C21.7885 54.6738 21.3215 54.446 20.8197 54.3549C20.2045 54.2136 19.559 54.3014 19.004 54.602C18.4489 54.9025 18.0226 55.3951 17.8047 55.9875C17.2419 57.3527 17.1402 58.8644 17.5151 60.2927C18.4564 63.8936 20.8855 66.6321 26.6785 67.1522" fill="#FAFFE6"/>
<path d="M22.3798 77.619C22.9526 81.4701 32.1621 85.7226 44.6763 83.5437C44.922 80.7217 44.6453 77.8786 43.86 75.157C42.7936 71.3192 40.7528 68.37 37.0532 65.4472C34.0251 63.0576 30.0687 61.3065 27.0801 59.0617C25.3685 57.7451 23.7294 56.4285 22.1692 55.0132C21.7885 54.6738 21.3215 54.446 20.8197 54.3549C20.2045 54.2136 19.559 54.3014 19.004 54.602C18.4489 54.9025 18.0226 55.3951 17.8047 55.9875C17.2419 57.3527 17.1402 58.8644 17.5151 60.2927C18.4564 63.8936 20.8855 66.6321 26.6785 67.1522" stroke="#868686" stroke-width="2.91667" stroke-linecap="round" stroke-linejoin="round"/>
<path d="M17.3711 68.3164C17.4526 69.4175 17.8735 70.4663 18.5758 71.3182C20.4058 73.5301 24.8691 74.7414 29.0492 74.0896" fill="#FAFFE6"/>
<path d="M17.3711 68.3164C17.4526 69.4175 17.8735 70.4663 18.5758 71.3182C20.4058 73.5301 24.8691 74.7414 29.0492 74.0896" stroke="#868686" stroke-width="2.91667" stroke-linecap="round" stroke-linejoin="round"/>
<path d="M73.3798 39.136C87.8623 38.5551 97.4339 46.6311 103.918 56.2812C104.859 57.674 105.722 59.1168 106.518 60.5909C106.94 61.3716 107.348 62.1649 107.749 62.9581C112.673 72.6768 116.307 83.5011 113.233 94.5003C108.276 112.139 90.8904 115.655 70.7927 115.955C67.2759 116.018 63.768 115.598 60.3785 114.706C57.2162 113.89 54.224 112.568 51.531 110.796C43.3813 105.275 39.6817 97.0112 38.9115 88.9664C37.9833 78.8666 40.7284 71.8274 44.7637 62.5771C48.1013 54.9133 55.2504 46.1065 63.7884 41.803C66.734 40.242 70.0122 39.3304 73.3798 39.136Z" fill="white"/>
<path d="M92.8595 44.6846C97.2703 47.871 101.02 51.8059 103.919 56.2896C104.86 57.6824 105.723 59.1253 106.519 60.5993C106.94 61.3801 107.349 62.1733 107.75 62.9665C112.674 72.6853 116.308 83.5096 113.234 94.5087C108.277 112.147 83.0904 118.631 61.8867 115.052" stroke="#868686" stroke-width="2.91667" stroke-linecap="round" stroke-linejoin="round"/>
<path d="M51.531 110.774C31.2687 97.033 37.8977 67.4958 51.4717 51.7184C54.3309 48.3394 57.7318 45.4076 61.5502 43.0303" stroke="#868686" stroke-width="2.91667" stroke-linecap="round" stroke-linejoin="round"/>
<path d="M65.9424 70.8041C65.9759 71.1907 65.8948 71.5786 65.7093 71.9193C65.5237 72.2601 65.2419 72.5386 64.899 72.7202C64.5561 72.9018 64.1673 72.9783 63.7812 72.9402C63.395 72.9022 63.0287 72.7512 62.7278 72.5062C62.427 72.2612 62.2049 71.933 62.0895 71.5626C61.974 71.1921 61.9702 70.7959 62.0786 70.4233C62.1869 70.0508 62.4027 69.7184 62.6988 69.4677C62.9949 69.2169 63.3583 69.059 63.7437 69.0136C64.0063 68.9826 64.2725 69.0047 64.5264 69.0786C64.7804 69.1524 65.0169 69.2766 65.222 69.4436C65.427 69.6106 65.5965 69.817 65.7202 70.0508C65.844 70.2845 65.9195 70.5407 65.9424 70.8041Z" fill="#868686"/>
<path d="M78.3086 70.7012C78.3086 70.7012 79.1973 68.2984 82.0345 69.2793L78.3086 70.7012Z" fill="#FFF8F2"/>
<path d="M78.3086 70.7012C78.3086 70.7012 79.1973 68.2984 82.0345 69.2793" stroke="#868686" stroke-width="2.91667" stroke-linecap="round" stroke-linejoin="round"/>
<path d="M79.0173 78.0614C78.341 76.9999 77.3746 76.1546 76.2327 75.6255C75.0907 75.0965 73.821 74.9058 72.574 75.0763C71.327 75.2467 70.155 75.771 69.1969 76.5871C68.2387 77.4032 67.5346 78.4768 67.168 79.6808C68.4846 82.1033 71.2033 84.7562 73.8365 84.3942C76.4697 84.0321 78.4051 80.7407 78.9975 78.0614H79.0173Z" fill="#FFAFA7"/>
<path d="M121.178 100.316C119.909 100.394 118.642 100.145 117.498 99.5926C116.353 99.0406 115.37 98.204 114.641 97.163C114.343 96.7446 113.948 96.4058 113.489 96.1762C113.029 95.9466 112.521 95.8334 112.008 95.8464C110.884 95.861 109.772 95.6182 108.756 95.1367C107.741 94.6552 106.849 93.9477 106.149 93.0684C105.718 92.5529 105.455 91.918 105.396 91.2488C105.336 90.5796 105.483 89.9082 105.816 89.3248C106.15 88.7415 106.653 88.2741 107.26 87.9854C107.867 87.6967 108.547 87.6006 109.21 87.7099C114.484 88.6676 119.394 91.0564 123.403 94.6154C123.886 95.0648 124.222 95.6488 124.369 96.2918C124.516 96.9348 124.466 97.6071 124.227 98.2215C123.987 98.836 123.568 99.3642 123.024 99.7377C122.481 100.111 121.837 100.313 121.178 100.316Z" fill="#FAFFE6"/>
<path d="M109.571 95.3528C106.226 95.0895 102.145 87.9931 101.921 78.1055C101.866 77.4166 101.966 76.724 102.214 76.079C102.463 75.4341 102.853 74.8532 103.356 74.3795C104.594 73.3263 106.378 73.2012 107.964 73.3329C113.053 73.741 117.325 76.1372 120.722 79.8763C123.322 82.7333 125.33 86.558 127.786 89.3821C129.188 91.0015 130.643 92.5485 132.157 93.9901C132.532 94.3486 132.801 94.8044 132.933 95.3067C133.11 95.9111 133.065 96.5588 132.805 97.1325C132.546 97.7061 132.089 98.1678 131.518 98.4336C130.193 99.0878 128.69 99.2913 127.239 99.0129C123.579 98.3546 120.656 96.0901 119.761 90.3498" fill="#FAFFE6"/>
<path d="M109.571 95.3528C106.226 95.0895 102.145 87.9931 101.921 78.1055C101.866 77.4166 101.966 76.724 102.214 76.079C102.463 75.4341 102.853 74.8532 103.356 74.3795C104.594 73.3263 106.378 73.2012 107.964 73.3329C113.053 73.741 117.325 76.1372 120.722 79.8763C123.322 82.7333 125.33 86.558 127.786 89.3821C129.188 91.0015 130.643 92.5485 132.157 93.9901C132.532 94.3486 132.801 94.8044 132.933 95.3067C133.11 95.9111 133.065 96.5588 132.805 97.1325C132.546 97.7061 132.089 98.1678 131.518 98.4336C130.193 99.0878 128.69 99.2913 127.239 99.0129C123.579 98.3546 120.656 96.0901 119.761 90.3498" stroke="#868686" stroke-width="2.91667" stroke-linecap="round" stroke-linejoin="round"/>
<path d="M119.188 99.7029C118.089 99.6987 117.018 99.3562 116.12 98.722C113.784 97.05 112.269 92.6789 112.632 88.4658" fill="#FAFFE6"/>
<path d="M119.188 99.7029C118.089 99.6987 117.018 99.3562 116.12 98.722C113.784 97.05 112.269 92.6789 112.632 88.4658" stroke="#868686" stroke-width="2.91667" stroke-linecap="round" stroke-linejoin="round"/>
<path d="M77.5057 42.132C79.5342 42.0952 81.5596 42.3088 83.5359 42.768C89.2131 44.061 94.4954 46.7021 98.9361 50.468" stroke="#868686" stroke-width="2.91667" stroke-linecap="round" stroke-linejoin="round"/>
<path d="M107.622 58.7379C107.622 58.7379 114.382 33.1247 86.9179 26.6506C59.4537 20.1766 54.0029 46.0545 54.0029 46.0545" fill="#FFF9CF"/>
<path d="M86.8852 26.6187C84.5082 26.0428 82.0806 25.7005 79.6371 25.5965C78.3533 25.5573 77.0684 25.6008 75.7902 25.7269C57.9019 27.4404 54.0038 46.0485 54.0038 46.0485" stroke="#868686" stroke-width="2.91667" stroke-linecap="round" stroke-linejoin="round"/>
<path d="M108.323 51.8799C108.307 45.5175 106.382 36.1804 96.5938 30.3906" stroke="#868686" stroke-width="2.91667" stroke-linecap="round" stroke-linejoin="round"/>
<path d="M89.1465 25.369L85.4106 24.4855C84.254 24.212 83.0947 24.9278 82.8211 26.0845L80.7947 34.6531C80.5211 35.8097 81.237 36.9691 82.3936 37.2426L86.1294 38.1261C87.286 38.3997 88.4454 37.6838 88.7189 36.5272L90.7454 27.9585C91.019 26.8019 90.3031 25.6426 89.1465 25.369Z" fill="#FFF9CF" stroke="#868686" stroke-width="2.91667" stroke-linecap="round" stroke-linejoin="round"/>
<path d="M72.125 31.9893L71.0646 36.4818" stroke="#868686" stroke-width="2.91667" stroke-linecap="round" stroke-linejoin="round"/>
<path d="M97.8516 37.3301L96.6259 42.5213" stroke="#868686" stroke-width="2.91667" stroke-linecap="round" stroke-linejoin="round"/>
<path d="M81.5071 49.3594C66.7502 45.8647 58.4875 45.8494 54.2565 46.0921C53.4785 46.1343 52.7351 46.427 52.1373 46.9265C51.5394 47.4259 51.1191 48.1054 50.9392 48.8634C50.818 49.3928 50.8178 49.9426 50.9387 50.4721C51.0595 51.0015 51.2981 51.4969 51.6369 51.9213C51.9757 52.3457 52.4059 52.6882 52.8954 52.9233C53.3849 53.1584 53.9211 53.2801 54.4642 53.2792C59.3779 53.2874 68.0252 53.9114 79.7727 56.6924C91.5223 59.4658 99.5385 62.7786 103.931 64.974C104.418 65.2191 104.954 65.3506 105.499 65.3587C106.045 65.3668 106.585 65.2513 107.079 65.0209C107.573 64.7904 108.009 64.451 108.353 64.028C108.697 63.6051 108.941 63.1097 109.067 62.579C109.248 61.8195 109.178 61.0214 108.867 60.3052C108.556 59.5889 108.02 58.9931 107.341 58.6077C103.664 56.492 96.2672 52.8141 81.5157 49.3291L81.5071 49.3594Z" fill="#FFF9CF"/>
<path d="M68.1305 46.8049C63.5407 46.1102 58.8933 45.8715 54.2565 46.0921C53.4785 46.1343 52.7351 46.427 52.1373 46.9265C51.5394 47.4259 51.1191 48.1054 50.9392 48.8634C50.818 49.3928 50.8178 49.9426 50.9387 50.4721C51.0595 51.0015 51.2981 51.4969 51.6369 51.9213C51.9757 52.3457 52.4059 52.6882 52.8954 52.9233C53.3849 53.1584 53.9211 53.2801 54.4642 53.2792C59.3779 53.2874 68.0252 53.9114 79.7727 56.6924C91.5223 59.4658 99.5385 62.7786 103.931 64.974C104.418 65.2191 104.954 65.3506 105.499 65.3587C106.045 65.3668 106.585 65.2513 107.079 65.0209C107.573 64.7904 108.009 64.451 108.353 64.028C108.697 63.6051 108.941 63.1097 109.067 62.579C109.248 61.8195 109.178 61.0214 108.867 60.3052C108.556 59.5889 108.02 58.9931 107.341 58.6077C103.664 56.492 96.2672 52.8141 81.5157 49.3291C79.2018 48.7824 77.0454 48.3159 75.0465 47.9296" stroke="#868686" stroke-width="2.91667" stroke-linecap="round" stroke-linejoin="round"/>
<path d="M38.8969 118.419H10.9062V124.186H38.8969V118.419Z" fill="white"/>
<path d="M18.4375 107.23L20.6362 99.5215H29.6812L31.136 107.23H18.4375Z" fill="white"/>
<path d="M20.2344 98.6761L23.4271 87.8076H26.554L29.3386 98.6761H20.2344Z" fill="#FFF9CF"/>
<path d="M17.7862 108.126L15.4492 117.671H34.1711L31.663 107.823L17.7862 108.126Z" fill="#FFF9CF"/>
<path d="M34.9425 117.993L26.6941 87.29H24.9035H23.1129L14.8711 117.993" stroke="#868686" stroke-width="2.91667" stroke-linecap="round" stroke-linejoin="round"/>
<path d="M31.4714 118.419H38.8969V124.186H10.9062V118.419H23.8549" stroke="#868686" stroke-width="2.91667" stroke-linecap="round" stroke-linejoin="round"/>
<path d="M20.3555 99.0137H29.5189" stroke="#868686" stroke-width="2.91667" stroke-linecap="round" stroke-linejoin="round"/>
<path d="M18.1133 107.598H32.1481" stroke="#868686" stroke-width="2.91667" stroke-linecap="round" stroke-linejoin="round"/>
<path d="M30.6102 52.7462L35.1985 77.735L29.8729 78.7093L23.4414 43.6354L28.7604 42.6611L29.4977 46.6767" fill="white"/>
<path d="M30.6102 52.7462L35.1985 77.735L29.8729 78.7093L23.4414 43.6354L28.7604 42.6611L29.4977 46.6767" stroke="#868686" stroke-width="2.91667" stroke-linecap="round" stroke-linejoin="round"/>
<path d="M24.1324 49.63C33.6396 49.63 41.3468 41.9228 41.3468 32.4156C41.3468 22.9083 33.6396 15.2012 24.1324 15.2012C14.6251 15.2012 6.91797 22.9083 6.91797 32.4156C6.91797 41.9228 14.6251 49.63 24.1324 49.63Z" fill="#FFF9CF"/>
<path d="M26.3384 44.4263C23.9628 44.8633 21.511 44.5859 19.293 43.6293C17.0751 42.6726 15.1907 41.0797 13.8781 39.052C12.5656 37.0242 11.8839 34.6528 11.9193 32.2376C11.9547 29.8224 12.7055 27.472 14.0769 25.4835C15.4482 23.4951 17.3785 21.9581 19.6235 21.0668C21.8685 20.1755 24.3274 19.9701 26.6892 20.4764C29.0509 20.9827 31.2095 22.1781 32.8918 23.9114C34.5742 25.6447 35.7047 27.8379 36.1404 30.2138C36.7189 33.3975 36.0123 36.6809 34.1751 39.3447C32.3379 42.0086 29.52 43.8358 26.3384 44.4263Z" fill="white" stroke="#868686" stroke-width="2.91667" stroke-linecap="round" stroke-linejoin="round"/>
<path d="M17.3438 42.2489L30.9178 22.5791" stroke="#868686" stroke-width="2.91667" stroke-linecap="round" stroke-linejoin="round"/>
<path d="M7.5 27.9502C8.50736 24.1687 10.7732 20.8432 13.9239 18.522C17.0746 16.2008 20.9222 15.0225 24.8324 15.1812C28.7427 15.3399 32.4821 16.8262 35.4343 19.3951C38.3866 21.964 40.3754 25.4621 41.073 29.3129" stroke="#868686" stroke-width="2.91667" stroke-linecap="round" stroke-linejoin="round"/>
<path d="M40.5418 37.6307C39.3752 41.2882 37.0199 44.4511 33.85 46.6168C30.6801 48.7825 26.8774 49.8269 23.046 49.5841C19.2146 49.3413 15.5742 47.8252 12.7031 45.2766C9.83195 42.728 7.89476 39.2931 7.19922 35.5176" stroke="#868686" stroke-width="2.91667" stroke-linecap="round" stroke-linejoin="round"/>
<path d="M119.397 116.086H91.4062V121.853H119.397V116.086Z" fill="white"/>
<path d="M98.9336 104.897L101.132 97.1885H110.177L111.639 104.897H98.9336Z" fill="white"/>
<path d="M100.738 96.343L103.924 85.4746H107.051L109.842 96.343H100.738Z" fill="#FFF9CF"/>
<path d="M98.2862 105.793L95.9492 115.338H114.678L112.17 105.49L98.2862 105.793Z" fill="#FFF9CF"/>
<path d="M115.442 115.66L107.201 84.957H105.404H103.613L95.3711 115.66" stroke="#868686" stroke-width="2.91667" stroke-linecap="round" stroke-linejoin="round"/>
<path d="M108.008 116.086H119.397V121.853H91.4062V116.086H100.741" stroke="#868686" stroke-width="2.91667" stroke-linecap="round" stroke-linejoin="round"/>
<path d="M100.852 96.6807H110.015" stroke="#868686" stroke-width="2.91667" stroke-linecap="round" stroke-linejoin="round"/>
<path d="M98.6133 105.265H112.648" stroke="#868686" stroke-width="2.91667" stroke-linecap="round" stroke-linejoin="round"/>
</svg>
