<svg width="33" height="32" viewBox="0 0 33 32" fill="none" xmlns="http://www.w3.org/2000/svg">
<path d="M26.5221 20.5756L26.52 20.5776L26.52 20.5776L18.2122 28.7245C17.9676 28.9643 17.6382 29.0979 17.2957 29.0963C16.9531 29.0946 16.625 28.9578 16.3828 28.7155L12.801 25.1338C12.6791 25.0119 12.5827 24.8669 12.5173 24.7074C12.452 24.5479 12.419 24.377 12.4203 24.2046C12.4216 24.0322 12.4572 23.8618 12.525 23.7033C12.5928 23.5448 12.6915 23.4013 12.8153 23.2813L21.1906 15.159C22.2657 14.0822 22.2835 12.3015 21.1995 11.2579L26.5221 20.5756ZM26.5221 20.5756C30.5341 16.5636 30.6549 10.0245 26.6658 5.97581C25.712 5.00747 24.576 4.23749 23.3233 3.71022C22.0706 3.18295 20.7259 2.90884 19.3667 2.90369C18.0075 2.89853 16.6607 3.16244 15.404 3.6802C14.1473 4.19796 13.0055 4.95932 12.0444 5.92041L12.0431 5.92171M26.5221 20.5756L12.0431 5.92171M12.0431 5.92171L3.78027 14.2857C3.53892 14.53 3.40404 14.8599 3.40508 15.2033C3.40613 15.5467 3.54301 15.8757 3.78584 16.1186L3.99797 15.9064M12.0431 5.92171L3.99797 15.9064M3.99797 15.9064L3.78584 16.1186L7.36762 19.7003C7.48924 19.822 7.63378 19.9182 7.79287 19.9836C7.95197 20.049 8.12245 20.0821 8.29444 20.0811C8.46643 20.0801 8.63651 20.045 8.79483 19.9778C8.95315 19.9106 9.09656 19.8126 9.21675 19.6896L17.4184 11.2944C17.4188 11.294 17.4192 11.2936 17.4197 11.2932M3.99797 15.9064L17.4197 11.2932M17.4197 11.2932C17.9195 10.794 18.5951 10.5106 19.3015 10.5037C20.0085 10.4969 20.6899 10.7676 21.1995 11.2578L17.4197 11.2932Z" fill="#486A7A" stroke="#486A7A" stroke-width="0.6" stroke-linecap="round" stroke-linejoin="round"/>
<path d="M3.71084 14.1953L3.71084 14.1953L3.70913 14.197C3.44921 14.4601 3.30396 14.8153 3.30508 15.1852C3.30621 15.555 3.45362 15.9094 3.71513 16.1709L7.29691 19.7526C7.42788 19.8836 7.58354 19.9873 7.75487 20.0577C7.9262 20.1281 8.1098 20.1638 8.29502 20.1627C8.48024 20.1616 8.6634 20.1238 8.8339 20.0514C9.0044 19.979 9.15884 19.8735 9.28828 19.741L13.2992 15.6355C13.4523 15.4788 13.4509 15.228 13.296 15.0731L8.34732 10.1245C8.27231 10.0495 8.17056 10.0073 8.06448 10.0073C7.95839 10.0073 7.85665 10.0495 7.78163 10.1245L3.71084 14.1953Z" fill="#FF574C" stroke="#FF574C" stroke-width="0.8" stroke-linecap="round" stroke-linejoin="round"/>
<path d="M12.8651 23.229L12.8651 23.229L12.8634 23.2307C12.6035 23.4938 12.4583 23.849 12.4594 24.2189C12.4605 24.5887 12.6079 24.943 12.8694 25.2046L16.4512 28.7863C16.5822 28.9173 16.7378 29.021 16.9092 29.0914C17.0805 29.1618 17.2641 29.1974 17.4493 29.1964C17.6345 29.1953 17.8177 29.1575 17.9882 29.0851C18.1587 29.0127 18.3131 28.9072 18.4426 28.7747L22.4535 24.6692C22.6066 24.5125 22.6052 24.2617 22.4502 24.1068L17.5016 19.1582C17.4266 19.0832 17.3249 19.041 17.2188 19.041C17.1127 19.041 17.0109 19.0832 16.9359 19.1582L12.8651 23.229Z" fill="#4698FF" stroke="#4698FF" stroke-width="0.8" stroke-linecap="round" stroke-linejoin="round"/>
</svg>
