<svg width="270" height="228" viewBox="0 0 270 228" fill="none" xmlns="http://www.w3.org/2000/svg">
<g filter="url(#filter0_d_1328_120)">
<path d="M169.747 116.811C169.598 116.683 169.402 116.616 169.202 116.625C169.002 116.635 168.814 116.719 168.679 116.86C167.752 117.834 166.63 118.184 165.599 117.834C165.089 117.653 164.649 117.329 164.337 116.904C164.859 116.847 165.363 116.683 165.812 116.424C166.262 116.164 166.648 115.815 166.943 115.401C167.737 114.277 167.806 112.67 167.107 111.582C166.952 111.332 166.742 111.117 166.493 110.95C166.243 110.784 165.959 110.67 165.659 110.617C165.324 110.566 164.982 110.582 164.654 110.665C164.326 110.749 164.02 110.897 163.757 111.1C162.668 111.906 162.047 113.421 162.135 115.052C162.243 117.001 163.397 118.63 165.089 119.203C165.507 119.344 165.948 119.416 166.392 119.414C167.608 119.414 168.82 118.866 169.803 117.833C169.87 117.763 169.922 117.68 169.955 117.591C169.988 117.501 170.003 117.406 169.998 117.311C169.992 117.216 169.968 117.123 169.925 117.037C169.881 116.951 169.821 116.874 169.747 116.811ZM163.761 115.475H163.714C163.683 115.308 163.663 115.14 163.654 114.971C163.593 113.842 164.008 112.743 164.69 112.239C164.785 112.162 164.897 112.104 165.017 112.07C165.137 112.035 165.263 112.024 165.388 112.037C165.476 112.055 165.56 112.091 165.633 112.143C165.705 112.195 165.765 112.262 165.807 112.338C166.191 112.936 166.132 113.946 165.678 114.591C165.471 114.879 165.19 115.112 164.862 115.267C164.533 115.421 164.169 115.493 163.803 115.475H163.761Z" fill="#CCD1CE"/>
<path d="M159.542 110.972C159.304 110.8 159.026 110.686 158.731 110.639C158.437 110.592 158.135 110.614 157.851 110.703C157.309 110.891 156.85 111.25 156.551 111.721C156.252 111.25 155.793 110.891 155.251 110.703C154.967 110.614 154.664 110.591 154.369 110.638C154.074 110.685 153.795 110.8 153.557 110.972C152.325 111.825 152.137 113.344 152.011 114.348C151.852 115.632 151.698 117.15 151.764 118.69C151.772 118.876 151.855 119.053 151.997 119.183C152.138 119.312 152.327 119.384 152.523 119.385H152.554C152.654 119.381 152.751 119.358 152.842 119.318C152.933 119.279 153.014 119.222 153.082 119.152C153.149 119.082 153.202 119 153.236 118.911C153.271 118.822 153.286 118.727 153.282 118.632C153.221 117.194 153.369 115.746 153.521 114.521C153.645 113.522 153.812 112.59 154.451 112.144C154.493 112.106 154.546 112.08 154.603 112.069C154.66 112.057 154.719 112.061 154.774 112.08C155.025 112.158 155.303 112.472 155.409 112.794C155.515 113.116 155.542 113.747 155.568 114.308C155.604 115.078 155.637 115.805 155.834 116.338C155.885 116.48 155.982 116.603 156.111 116.69C156.239 116.777 156.393 116.823 156.55 116.823C156.708 116.823 156.862 116.777 156.99 116.69C157.119 116.603 157.216 116.48 157.267 116.338C157.462 115.805 157.498 115.078 157.533 114.309C157.559 113.747 157.589 113.111 157.693 112.794C157.797 112.477 158.081 112.158 158.328 112.08C158.383 112.061 158.442 112.057 158.499 112.069C158.556 112.081 158.609 112.107 158.651 112.145C159.293 112.59 159.457 113.522 159.581 114.521C159.733 115.746 159.881 117.194 159.82 118.632C159.816 118.727 159.831 118.822 159.866 118.911C159.9 119 159.953 119.082 160.02 119.152C160.088 119.222 160.169 119.279 160.26 119.318C160.35 119.358 160.448 119.381 160.548 119.385H160.579C160.775 119.384 160.964 119.312 161.105 119.183C161.247 119.053 161.33 118.876 161.338 118.69C161.404 117.15 161.25 115.632 161.091 114.348C160.963 113.344 160.774 111.825 159.542 110.972Z" fill="#CCD1CE"/>
<path d="M109.026 116.203C108.932 116.171 108.832 116.157 108.732 116.162C108.632 116.167 108.534 116.19 108.444 116.231C108.353 116.273 108.273 116.33 108.206 116.402C108.139 116.473 108.088 116.556 108.055 116.646C107.94 116.945 107.754 117.214 107.51 117.431C107.266 117.649 106.972 117.809 106.652 117.899C106.351 117.983 106.033 117.996 105.725 117.936C105.417 117.876 105.13 117.746 104.887 117.556C104.726 117.428 104.599 117.265 104.517 117.081C104.434 116.897 104.398 116.697 104.411 116.497C104.473 114.518 104.845 112.636 105.338 110.743C104.835 110.671 104.332 110.598 103.828 110.522C103.332 112.453 102.954 114.387 102.892 116.454C102.87 116.88 102.954 117.305 103.137 117.694C103.32 118.083 103.597 118.426 103.945 118.693C104.378 119.026 104.888 119.253 105.433 119.357C105.977 119.461 106.54 119.438 107.074 119.289C107.627 119.137 108.135 118.862 108.555 118.486C108.975 118.11 109.295 117.644 109.488 117.127C109.555 116.946 109.544 116.747 109.458 116.574C109.371 116.4 109.216 116.267 109.026 116.203Z" fill="#CCD1CE"/>
<path d="M107.633 109.921C109.233 109.846 110.799 109.457 112.235 108.779C112.989 108.413 113.754 107.974 114.102 107.006C114.214 106.677 114.234 106.327 114.161 105.988C113.666 106.086 113.17 106.18 112.673 106.27C112.693 106.359 112.69 106.451 112.664 106.538C112.512 106.958 112.178 107.18 111.544 107.489C110.3 108.071 108.944 108.406 107.56 108.474C107.034 108.498 106.506 108.491 105.98 108.454C106.057 108.191 106.133 107.928 106.212 107.664C106.351 107.185 106.494 106.702 106.635 106.209C107.236 104.099 108.531 102.511 110.825 101.058C112.358 100.087 113.851 99.1062 115.275 97.7831C115.523 97.5527 115.699 97.4722 115.773 97.4528C115.836 97.593 115.865 97.7452 115.858 97.8978C115.853 99.591 114.407 101.095 112.563 101.321C112.464 101.333 112.368 101.364 112.282 101.411C112.195 101.459 112.12 101.522 112.059 101.597C111.998 101.672 111.953 101.758 111.927 101.85C111.901 101.942 111.894 102.037 111.907 102.132C111.919 102.226 111.951 102.317 112.001 102.399C112.051 102.482 112.117 102.554 112.196 102.612C112.275 102.67 112.365 102.713 112.461 102.738C112.558 102.763 112.658 102.769 112.757 102.757C115.342 102.441 117.372 100.309 117.379 97.9024C117.379 96.8847 116.858 96.1445 116.045 96.0186C115.463 95.9261 114.825 96.1796 114.215 96.7468C112.883 97.9811 111.454 98.9202 109.987 99.851C107.397 101.49 105.866 103.387 105.165 105.823C105.024 106.312 104.882 106.793 104.744 107.269C104.647 107.602 104.549 107.93 104.452 108.259C103.197 108.031 102.039 107.641 101.151 107.111C100.981 107.013 100.777 106.983 100.583 107.027C100.389 107.071 100.222 107.186 100.116 107.347C100.01 107.508 99.9749 107.702 100.018 107.887C100.061 108.073 100.178 108.235 100.345 108.338C102.05 109.356 104.453 109.934 106.893 109.934C107.139 109.939 107.386 109.933 107.633 109.921Z" fill="#CCD1CE"/>
<path d="M114.342 103.622C113.927 103.903 113.447 104.085 112.942 104.151C112.388 104.244 111.828 104.239 111.213 104.244C111.012 104.244 110.818 104.32 110.676 104.456C110.533 104.592 110.453 104.776 110.453 104.968C110.453 105.161 110.533 105.345 110.676 105.481C110.818 105.617 111.012 105.693 111.213 105.693H111.333C111.955 105.705 112.577 105.668 113.192 105.58C114.015 105.449 114.713 105.176 115.267 104.77C115.982 104.246 116.421 103.494 116.438 102.759C116.445 102.449 116.373 102.142 116.23 101.863C115.792 102.132 115.352 102.398 114.91 102.662C114.915 102.683 114.918 102.704 114.919 102.725C114.914 103.017 114.687 103.37 114.342 103.622Z" fill="#CCD1CE"/>
<path d="M148.375 116.365C148.403 116.133 148.4 115.899 148.366 115.667C148.366 115.626 148.366 115.585 148.366 115.543C148.352 114.117 148.336 112.501 148.172 111.316C148.145 111.126 148.04 110.953 147.88 110.837C147.72 110.72 147.518 110.669 147.318 110.695C147.119 110.72 146.938 110.82 146.816 110.973C146.693 111.125 146.64 111.318 146.666 111.508C146.685 111.643 146.701 111.786 146.717 111.933C146.27 111.67 145.754 111.531 145.229 111.531C143.516 111.531 142.122 113.023 142.122 114.857C142.122 115.8 142.602 116.82 143.265 117.284C143.345 117.34 143.436 117.381 143.533 117.403C143.63 117.426 143.731 117.43 143.829 117.416C143.928 117.401 144.023 117.369 144.108 117.319C144.193 117.27 144.268 117.205 144.327 117.128C144.386 117.051 144.428 116.964 144.452 116.872C144.475 116.779 144.479 116.683 144.464 116.589C144.449 116.495 144.414 116.405 144.362 116.324C144.31 116.243 144.241 116.172 144.161 116.116C143.947 115.967 143.638 115.432 143.638 114.857C143.638 113.822 144.354 112.98 145.233 112.98C146.111 112.98 146.826 113.822 146.826 114.857C146.826 114.899 146.831 114.941 146.839 114.983C146.839 115.176 146.844 115.368 146.846 115.557C146.846 115.793 146.846 116.02 146.854 116.25C146.806 116.525 146.67 116.78 146.466 116.979C145.811 117.648 144.6 117.956 143.776 117.905C142.411 117.812 141.383 116.908 141.218 115.644C141.178 115.334 141.165 114.996 141.15 114.647C141.093 113.252 141.006 111.146 138.4 110.882C137.603 110.805 136.801 110.965 136.103 111.338C136.078 111.153 135.979 110.984 135.827 110.867C135.675 110.749 135.48 110.693 135.285 110.709C135.09 110.725 134.909 110.812 134.78 110.953C134.651 111.093 134.584 111.276 134.593 111.462C134.622 111.97 134.631 112.665 134.622 113.353C134.607 113.464 134.6 113.576 134.599 113.688C134.599 113.736 134.604 113.783 134.613 113.83C134.603 114.287 134.583 114.722 134.557 115.07C134.54 115.307 134.538 115.562 134.536 115.824C134.536 116.564 134.529 117.333 134.082 117.694C133.979 117.779 133.857 117.843 133.726 117.88C133.594 117.916 133.456 117.925 133.32 117.906C133.157 117.882 133 117.826 132.861 117.741C132.721 117.656 132.602 117.545 132.51 117.414C132.034 116.743 131.954 115.827 131.909 114.868C131.876 114.179 131.877 113.469 131.88 112.782C131.88 112.296 131.88 111.809 131.874 111.322C131.874 111.295 131.867 111.27 131.864 111.245C131.861 111.219 131.864 111.204 131.856 111.184C131.847 111.142 131.833 111.1 131.815 111.06C131.815 111.058 131.815 111.056 131.815 111.054C131.761 110.922 131.667 110.809 131.543 110.73C131.42 110.651 131.274 110.61 131.126 110.613H131.101C131.076 110.613 131.052 110.618 131.027 110.621C131.002 110.624 130.978 110.621 130.955 110.629C130.932 110.638 130.908 110.643 130.884 110.651C130.861 110.658 130.836 110.664 130.813 110.673C130.792 110.682 130.771 110.693 130.751 110.705C130.729 110.717 130.706 110.727 130.684 110.741C130.663 110.755 130.649 110.769 130.632 110.783C130.614 110.797 130.591 110.813 130.573 110.83C130.554 110.847 130.544 110.864 130.529 110.881C130.513 110.898 130.496 110.918 130.481 110.938C130.467 110.959 130.459 110.978 130.447 110.998C130.435 111.019 130.423 111.04 130.413 111.061C130.404 111.084 130.398 111.109 130.39 111.132C130.382 111.155 130.375 111.175 130.37 111.197C130.366 111.224 130.363 111.25 130.362 111.277C130.362 111.297 130.355 111.317 130.355 111.337C130.355 112.916 130.204 114.281 129.893 115.515C129.505 117.042 128.952 117.801 128.146 117.902C127.542 117.977 127.021 117.707 126.545 117.053C127.068 116.359 127.492 115.602 127.807 114.801C128.16 113.908 128.392 112.975 128.498 112.025C128.692 110.372 128.504 108.905 127.952 107.665C127.531 106.718 126.834 106.175 126.039 106.175C125.543 106.19 125.072 106.389 124.728 106.73C124.223 107.199 123.983 107.815 123.83 108.298C123.165 110.392 123.232 112.769 124.024 115.173C124.206 115.756 124.431 116.327 124.696 116.88C124.235 117.328 123.665 117.659 123.037 117.846C121.805 118.192 120.564 117.877 119.79 117.063C121.224 115.269 121.876 112.749 121.983 110.537C122.017 109.841 122.03 109.025 121.872 108.25C121.568 106.757 120.627 105.897 119.481 106.062C117.83 106.298 117.016 108.248 116.823 109.846C116.672 111.092 116.782 112.379 116.894 113.362C117.056 114.783 117.38 115.952 117.883 116.907C117.502 117.239 117.062 117.504 116.584 117.689C115.435 118.126 114.181 118.067 113.31 117.536C113.049 117.378 112.821 117.176 112.636 116.94C113.163 116.885 113.67 116.721 114.124 116.46C114.577 116.199 114.966 115.847 115.262 115.429C116.056 114.304 116.125 112.698 115.426 111.611C115.272 111.361 115.064 111.145 114.815 110.977C114.566 110.81 114.283 110.696 113.984 110.641C113.649 110.59 113.306 110.607 112.978 110.69C112.65 110.774 112.344 110.921 112.08 111.124C110.992 111.931 110.371 113.445 110.459 115.076C110.574 117.161 111.625 118.222 112.49 118.751C113.249 119.203 114.128 119.437 115.023 119.427C115.751 119.424 116.472 119.289 117.147 119.029C117.728 118.807 118.268 118.497 118.746 118.112C119.911 119.259 121.728 119.718 123.464 119.231C124.219 119.015 124.915 118.644 125.503 118.143C126.165 118.928 127.08 119.493 128.341 119.337C129.634 119.176 130.379 118.288 130.815 117.418C130.927 117.702 131.073 117.973 131.25 118.226C131.461 118.526 131.736 118.78 132.056 118.972C132.377 119.164 132.736 119.29 133.111 119.341C133.459 119.388 133.812 119.364 134.149 119.27C134.485 119.177 134.797 119.016 135.064 118.799C136.044 118.007 136.05 116.801 136.055 115.831C136.055 115.602 136.055 115.38 136.072 115.175C136.107 114.712 136.13 114.109 136.139 113.493C136.185 113.225 136.329 112.982 136.544 112.805C136.96 112.447 137.626 112.254 138.24 112.32C139.435 112.442 139.565 113.035 139.634 114.701C139.648 115.071 139.664 115.45 139.712 115.82C139.965 117.763 141.595 119.213 143.675 119.348C143.766 119.353 143.858 119.356 143.954 119.356C145.007 119.346 146.035 119.048 146.915 118.498C146.934 119.735 146.824 120.986 146.175 121.786C145.527 122.586 144.351 122.686 143.543 122.424C143.316 122.351 142.572 122.063 142.572 121.464C142.572 121.272 142.492 121.088 142.35 120.952C142.207 120.816 142.014 120.739 141.812 120.739C141.611 120.739 141.417 120.816 141.275 120.952C141.132 121.088 141.052 121.272 141.052 121.464C141.052 122.502 141.818 123.396 143.05 123.796C143.479 123.932 143.929 124.002 144.382 124C145.45 124 146.604 123.624 147.376 122.671C148.486 121.3 148.489 119.333 148.403 117.596C148.391 117.234 148.382 116.816 148.375 116.365ZM112.123 115.506H112.025C111.997 115.34 111.979 115.172 111.97 115.003C111.908 113.872 112.324 112.774 113.005 112.27C113.101 112.192 113.212 112.134 113.332 112.1C113.452 112.065 113.578 112.054 113.703 112.068C113.792 112.086 113.875 112.122 113.948 112.174C114.02 112.226 114.08 112.292 114.123 112.369C114.511 112.966 114.449 113.977 113.993 114.623C113.786 114.91 113.506 115.141 113.178 115.296C112.851 115.451 112.488 115.523 112.123 115.506ZM118.4 113.201C118.296 112.293 118.195 111.109 118.328 110.007C118.468 108.845 119.02 107.587 119.7 107.49H119.735C120.05 107.49 120.288 108.099 120.375 108.523C120.503 109.149 120.489 109.857 120.459 110.466C120.379 112.142 119.925 114.13 118.958 115.639C118.67 114.851 118.484 114.032 118.404 113.201H118.4ZM125.758 115.539C125.661 115.292 125.564 115.024 125.467 114.735C124.982 113.254 124.549 111.005 125.278 108.713C125.375 108.396 125.527 108.001 125.783 107.761C125.85 107.69 125.938 107.641 126.036 107.621C126.155 107.621 126.381 107.848 126.548 108.227C126.998 109.237 127.145 110.462 126.983 111.865C126.892 112.693 126.689 113.506 126.381 114.285C126.211 114.718 126.004 115.137 125.762 115.539H125.758Z" fill="#CCD1CE"/>
<path d="M131.143 109.911C131.317 109.911 131.487 109.862 131.632 109.77C131.776 109.678 131.889 109.547 131.956 109.393C132.022 109.24 132.04 109.072 132.006 108.909C131.972 108.747 131.888 108.597 131.765 108.48C131.642 108.363 131.485 108.283 131.315 108.25C131.144 108.218 130.967 108.235 130.807 108.298C130.646 108.362 130.509 108.469 130.412 108.607C130.315 108.745 130.264 108.907 130.264 109.073C130.264 109.295 130.356 109.508 130.521 109.665C130.686 109.823 130.91 109.911 131.143 109.911Z" fill="#CCD1CE"/>
</g>
<path d="M106.89 133.41C107.63 133.41 108.28 133.513 108.84 133.72C109.407 133.927 109.88 134.22 110.26 134.6C110.647 134.973 110.937 135.423 111.13 135.95C111.33 136.47 111.43 137.05 111.43 137.69V137.72C111.43 138.013 111.403 138.313 111.35 138.62C111.297 138.92 111.2 139.197 111.06 139.45C110.92 139.703 110.73 139.91 110.49 140.07C110.257 140.23 109.957 140.31 109.59 140.31C109.323 140.31 109.077 140.247 108.85 140.12C108.623 139.987 108.463 139.76 108.37 139.44H108.36C108.293 139.6 108.197 139.737 108.07 139.85C107.95 139.957 107.813 140.043 107.66 140.11C107.513 140.17 107.363 140.217 107.21 140.25C107.063 140.277 106.93 140.29 106.81 140.29C106.477 140.29 106.183 140.24 105.93 140.14C105.683 140.033 105.477 139.887 105.31 139.7C105.15 139.507 105.03 139.277 104.95 139.01C104.87 138.743 104.83 138.45 104.83 138.13V137.76C104.83 137.093 104.993 136.57 105.32 136.19C105.647 135.803 106.113 135.61 106.72 135.61C107.06 135.61 107.343 135.673 107.57 135.8C107.797 135.92 107.957 136.073 108.05 136.26V136.03C108.05 135.897 108.097 135.8 108.19 135.74C108.29 135.673 108.397 135.64 108.51 135.64C108.623 135.64 108.727 135.673 108.82 135.74C108.92 135.8 108.97 135.897 108.97 136.03V138.74C108.97 139.02 109.03 139.23 109.15 139.37C109.27 139.503 109.437 139.57 109.65 139.57C109.97 139.57 110.217 139.43 110.39 139.15C110.563 138.863 110.65 138.397 110.65 137.75V137.72C110.65 137.16 110.567 136.66 110.4 136.22C110.24 135.773 110 135.397 109.68 135.09C109.367 134.777 108.973 134.54 108.5 134.38C108.033 134.213 107.497 134.13 106.89 134.13C106.37 134.13 105.89 134.217 105.45 134.39C105.017 134.557 104.64 134.8 104.32 135.12C104 135.44 103.75 135.83 103.57 136.29C103.397 136.75 103.31 137.27 103.31 137.85V137.9C103.31 138.52 103.397 139.07 103.57 139.55C103.743 140.023 103.99 140.427 104.31 140.76C104.637 141.087 105.03 141.333 105.49 141.5C105.957 141.673 106.483 141.76 107.07 141.76C107.577 141.76 108.047 141.713 108.48 141.62C108.913 141.527 109.3 141.403 109.64 141.25C109.733 141.203 109.823 141.193 109.91 141.22C110.003 141.247 110.073 141.307 110.12 141.4C110.167 141.493 110.177 141.587 110.15 141.68C110.123 141.78 110.057 141.857 109.95 141.91C109.61 142.07 109.2 142.207 108.72 142.32C108.24 142.433 107.7 142.49 107.1 142.49C106.38 142.49 105.737 142.383 105.17 142.17C104.603 141.957 104.123 141.65 103.73 141.25C103.337 140.857 103.037 140.377 102.83 139.81C102.623 139.243 102.52 138.61 102.52 137.91V137.84C102.52 137.2 102.62 136.61 102.82 136.07C103.027 135.53 103.317 135.063 103.69 134.67C104.07 134.27 104.53 133.96 105.07 133.74C105.61 133.52 106.217 133.41 106.89 133.41ZM106.88 136.46C106.52 136.46 106.247 136.57 106.06 136.79C105.88 137.003 105.79 137.347 105.79 137.82V138.09C105.79 138.51 105.87 138.837 106.03 139.07C106.197 139.303 106.48 139.42 106.88 139.42C107.22 139.42 107.493 139.32 107.7 139.12C107.907 138.92 108.01 138.647 108.01 138.3V137.5C108.01 137.2 107.913 136.953 107.72 136.76C107.527 136.56 107.247 136.46 106.88 136.46ZM113.591 134.26C113.724 134.26 113.841 134.293 113.941 134.36C114.041 134.427 114.091 134.533 114.091 134.68V135.71H115.251C115.364 135.71 115.448 135.75 115.501 135.83C115.561 135.91 115.591 136.007 115.591 136.12C115.591 136.233 115.561 136.33 115.501 136.41C115.448 136.483 115.364 136.52 115.251 136.52H114.091V139.38C114.091 139.68 114.138 139.893 114.231 140.02C114.324 140.14 114.481 140.2 114.701 140.2C114.868 140.2 115.031 140.17 115.191 140.11C115.284 140.077 115.374 140.08 115.461 140.12C115.548 140.153 115.611 140.233 115.651 140.36C115.691 140.473 115.691 140.577 115.651 140.67C115.618 140.763 115.551 140.833 115.451 140.88C115.218 140.987 114.944 141.04 114.631 141.04C114.091 141.04 113.701 140.91 113.461 140.65C113.221 140.39 113.101 139.967 113.101 139.38V136.52H112.501C112.388 136.52 112.301 136.483 112.241 136.41C112.188 136.33 112.161 136.233 112.161 136.12C112.161 136.007 112.188 135.91 112.241 135.83C112.301 135.75 112.388 135.71 112.501 135.71H113.101V134.68C113.101 134.533 113.151 134.427 113.251 134.36C113.351 134.293 113.464 134.26 113.591 134.26ZM118.895 135.59C119.241 135.59 119.555 135.643 119.835 135.75C120.121 135.857 120.365 136.013 120.565 136.22C120.771 136.42 120.928 136.667 121.035 136.96C121.148 137.253 121.205 137.587 121.205 137.96V137.98C121.205 138.233 121.151 138.413 121.045 138.52C120.938 138.62 120.755 138.67 120.495 138.67H117.475V138.71C117.475 139.19 117.601 139.56 117.855 139.82C118.108 140.08 118.475 140.21 118.955 140.21C119.255 140.21 119.515 140.183 119.735 140.13C119.961 140.077 120.181 139.993 120.395 139.88C120.508 139.827 120.611 139.817 120.705 139.85C120.805 139.877 120.881 139.947 120.935 140.06C120.988 140.173 121.001 140.283 120.975 140.39C120.948 140.49 120.885 140.567 120.785 140.62C120.545 140.753 120.271 140.857 119.965 140.93C119.665 141.003 119.315 141.04 118.915 141.04C118.161 141.04 117.571 140.83 117.145 140.41C116.718 139.983 116.505 139.343 116.505 138.49V138.15C116.505 137.303 116.718 136.667 117.145 136.24C117.578 135.807 118.161 135.59 118.895 135.59ZM118.875 136.42C118.421 136.42 118.075 136.55 117.835 136.81C117.595 137.063 117.475 137.413 117.475 137.86V137.92H120.255V137.83C120.255 137.397 120.141 137.053 119.915 136.8C119.688 136.547 119.341 136.42 118.875 136.42ZM123.017 133.55C123.15 133.55 123.267 133.583 123.367 133.65C123.467 133.717 123.517 133.823 123.517 133.97V140.59C123.517 140.737 123.467 140.843 123.367 140.91C123.267 140.977 123.15 141.01 123.017 141.01C122.89 141.01 122.777 140.977 122.677 140.91C122.577 140.843 122.527 140.737 122.527 140.59V133.97C122.527 133.823 122.577 133.717 122.677 133.65C122.777 133.583 122.89 133.55 123.017 133.55ZM125.624 133.55C125.758 133.55 125.874 133.583 125.974 133.65C126.074 133.717 126.124 133.823 126.124 133.97V140.59C126.124 140.737 126.074 140.843 125.974 140.91C125.874 140.977 125.758 141.01 125.624 141.01C125.498 141.01 125.384 140.977 125.284 140.91C125.184 140.843 125.134 140.737 125.134 140.59V133.97C125.134 133.823 125.184 133.717 125.284 133.65C125.384 133.583 125.498 133.55 125.624 133.55ZM128.262 133.68C128.448 133.68 128.605 133.743 128.732 133.87C128.858 133.99 128.922 134.137 128.922 134.31C128.922 134.49 128.858 134.643 128.732 134.77C128.605 134.89 128.448 134.95 128.262 134.95C128.075 134.95 127.918 134.89 127.792 134.77C127.665 134.643 127.602 134.49 127.602 134.31C127.602 134.137 127.665 133.99 127.792 133.87C127.918 133.743 128.075 133.68 128.262 133.68ZM128.262 135.66C128.395 135.66 128.508 135.693 128.602 135.76C128.702 135.827 128.752 135.93 128.752 136.07V140.6C128.752 140.74 128.702 140.843 128.602 140.91C128.508 140.977 128.395 141.01 128.262 141.01C128.135 141.01 128.022 140.977 127.922 140.91C127.822 140.843 127.772 140.74 127.772 140.6V136.07C127.772 135.93 127.822 135.827 127.922 135.76C128.022 135.693 128.135 135.66 128.262 135.66ZM133.018 135.59C133.618 135.59 134.085 135.76 134.418 136.1C134.751 136.433 134.918 136.913 134.918 137.54V140.6C134.918 140.74 134.868 140.843 134.768 140.91C134.668 140.977 134.555 141.01 134.428 141.01C134.301 141.01 134.188 140.977 134.088 140.91C133.988 140.843 133.938 140.74 133.938 140.6V137.77C133.938 137.29 133.831 136.953 133.618 136.76C133.411 136.56 133.118 136.46 132.738 136.46C132.558 136.46 132.385 136.493 132.218 136.56C132.058 136.62 131.915 136.707 131.788 136.82C131.668 136.933 131.571 137.073 131.498 137.24C131.425 137.4 131.388 137.583 131.388 137.79V140.6C131.388 140.74 131.338 140.843 131.238 140.91C131.138 140.977 131.021 141.01 130.888 141.01C130.761 141.01 130.648 140.977 130.548 140.91C130.448 140.843 130.398 140.74 130.398 140.6V136.06C130.398 135.92 130.445 135.82 130.538 135.76C130.638 135.693 130.748 135.66 130.868 135.66C130.988 135.66 131.095 135.693 131.188 135.76C131.288 135.82 131.338 135.92 131.338 136.06V136.41H131.358C131.485 136.177 131.698 135.983 131.998 135.83C132.298 135.67 132.638 135.59 133.018 135.59ZM138.392 135.59C138.792 135.59 139.122 135.66 139.382 135.8C139.642 135.94 139.825 136.093 139.932 136.26H139.942V136.06C139.942 135.92 139.988 135.82 140.082 135.76C140.182 135.693 140.295 135.66 140.422 135.66C140.542 135.66 140.648 135.693 140.742 135.76C140.842 135.82 140.892 135.92 140.892 136.06V140.81C140.892 141.577 140.688 142.14 140.282 142.5C139.875 142.867 139.275 143.05 138.482 143.05C138.168 143.05 137.875 143.01 137.602 142.93C137.328 142.857 137.092 142.76 136.892 142.64C136.778 142.573 136.715 142.48 136.702 142.36C136.695 142.247 136.718 142.14 136.772 142.04C136.838 141.927 136.918 141.853 137.012 141.82C137.105 141.787 137.212 141.8 137.332 141.86C137.485 141.953 137.662 142.03 137.862 142.09C138.062 142.157 138.268 142.19 138.482 142.19C138.942 142.19 139.295 142.08 139.542 141.86C139.795 141.647 139.922 141.293 139.922 140.8V140.09H139.902C139.762 140.363 139.548 140.567 139.262 140.7C138.982 140.833 138.662 140.9 138.302 140.9C137.615 140.9 137.092 140.687 136.732 140.26C136.378 139.833 136.202 139.21 136.202 138.39V138.11C136.202 137.277 136.398 136.65 136.792 136.23C137.192 135.803 137.725 135.59 138.392 135.59ZM138.522 136.45C138.088 136.45 137.755 136.59 137.522 136.87C137.295 137.15 137.182 137.577 137.182 138.15V138.35C137.182 138.93 137.285 139.36 137.492 139.64C137.705 139.913 138.035 140.05 138.482 140.05C138.682 140.05 138.868 140.017 139.042 139.95C139.222 139.877 139.375 139.777 139.502 139.65C139.635 139.523 139.738 139.373 139.812 139.2C139.885 139.02 139.922 138.823 139.922 138.61V137.6C139.922 137.46 139.892 137.32 139.832 137.18C139.772 137.04 139.682 136.917 139.562 136.81C139.442 136.703 139.295 136.617 139.122 136.55C138.948 136.483 138.748 136.45 138.522 136.45ZM144.997 135.59C145.384 135.59 145.707 135.677 145.967 135.85C146.234 136.017 146.414 136.233 146.507 136.5C146.681 136.22 146.904 136 147.177 135.84C147.451 135.673 147.801 135.59 148.227 135.59C148.794 135.59 149.241 135.767 149.567 136.12C149.901 136.473 150.067 136.957 150.067 137.57V140.6C150.067 140.74 150.017 140.843 149.917 140.91C149.817 140.977 149.704 141.01 149.577 141.01C149.451 141.01 149.337 140.977 149.237 140.91C149.137 140.843 149.087 140.74 149.087 140.6V137.78C149.087 137.3 148.987 136.963 148.787 136.77C148.594 136.57 148.321 136.47 147.967 136.47C147.621 136.47 147.334 136.583 147.107 136.81C146.887 137.03 146.777 137.337 146.777 137.73V140.6C146.777 140.74 146.727 140.843 146.627 140.91C146.534 140.977 146.421 141.01 146.287 141.01C146.161 141.01 146.047 140.977 145.947 140.91C145.847 140.843 145.797 140.74 145.797 140.6V137.77C145.797 137.31 145.701 136.98 145.507 136.78C145.314 136.573 145.037 136.47 144.677 136.47C144.484 136.47 144.314 136.503 144.167 136.57C144.021 136.637 143.897 136.727 143.797 136.84C143.697 136.947 143.621 137.077 143.567 137.23C143.521 137.377 143.497 137.533 143.497 137.7V140.6C143.497 140.74 143.447 140.843 143.347 140.91C143.247 140.977 143.131 141.01 142.997 141.01C142.871 141.01 142.757 140.977 142.657 140.91C142.557 140.843 142.507 140.74 142.507 140.6V136.06C142.507 135.92 142.554 135.82 142.647 135.76C142.747 135.693 142.857 135.66 142.977 135.66C143.097 135.66 143.204 135.693 143.297 135.76C143.397 135.82 143.447 135.92 143.447 136.06V136.47C143.581 136.217 143.774 136.007 144.027 135.84C144.287 135.673 144.611 135.59 144.997 135.59ZM153.748 135.59C154.095 135.59 154.408 135.643 154.688 135.75C154.975 135.857 155.218 136.013 155.418 136.22C155.625 136.42 155.781 136.667 155.888 136.96C156.001 137.253 156.058 137.587 156.058 137.96V137.98C156.058 138.233 156.005 138.413 155.898 138.52C155.791 138.62 155.608 138.67 155.348 138.67H152.328V138.71C152.328 139.19 152.455 139.56 152.708 139.82C152.961 140.08 153.328 140.21 153.808 140.21C154.108 140.21 154.368 140.183 154.588 140.13C154.815 140.077 155.035 139.993 155.248 139.88C155.361 139.827 155.465 139.817 155.558 139.85C155.658 139.877 155.735 139.947 155.788 140.06C155.841 140.173 155.855 140.283 155.828 140.39C155.801 140.49 155.738 140.567 155.638 140.62C155.398 140.753 155.125 140.857 154.818 140.93C154.518 141.003 154.168 141.04 153.768 141.04C153.015 141.04 152.425 140.83 151.998 140.41C151.571 139.983 151.358 139.343 151.358 138.49V138.15C151.358 137.303 151.571 136.667 151.998 136.24C152.431 135.807 153.015 135.59 153.748 135.59ZM153.728 136.42C153.275 136.42 152.928 136.55 152.688 136.81C152.448 137.063 152.328 137.413 152.328 137.86V137.92H155.108V137.83C155.108 137.397 154.995 137.053 154.768 136.8C154.541 136.547 154.195 136.42 153.728 136.42ZM157.81 140.01C158.004 140.01 158.164 140.073 158.29 140.2C158.424 140.327 158.49 140.487 158.49 140.68C158.49 140.873 158.424 141.033 158.29 141.16C158.164 141.293 158.004 141.36 157.81 141.36C157.617 141.36 157.457 141.293 157.33 141.16C157.204 141.033 157.14 140.873 157.14 140.68C157.14 140.487 157.204 140.327 157.33 140.2C157.457 140.073 157.617 140.01 157.81 140.01ZM160.391 133.68C160.577 133.68 160.734 133.743 160.861 133.87C160.987 133.99 161.051 134.137 161.051 134.31C161.051 134.49 160.987 134.643 160.861 134.77C160.734 134.89 160.577 134.95 160.391 134.95C160.204 134.95 160.047 134.89 159.921 134.77C159.794 134.643 159.731 134.49 159.731 134.31C159.731 134.137 159.794 133.99 159.921 133.87C160.047 133.743 160.204 133.68 160.391 133.68ZM160.391 135.66C160.524 135.66 160.637 135.693 160.731 135.76C160.831 135.827 160.881 135.93 160.881 136.07V140.6C160.881 140.74 160.831 140.843 160.731 140.91C160.637 140.977 160.524 141.01 160.391 141.01C160.264 141.01 160.151 140.977 160.051 140.91C159.951 140.843 159.901 140.74 159.901 140.6V136.07C159.901 135.93 159.951 135.827 160.051 135.76C160.151 135.693 160.264 135.66 160.391 135.66ZM164.707 135.59C165.473 135.59 166.073 135.807 166.507 136.24C166.947 136.667 167.167 137.303 167.167 138.15V138.48C167.167 139.327 166.947 139.967 166.507 140.4C166.073 140.827 165.473 141.04 164.707 141.04C163.94 141.04 163.337 140.827 162.897 140.4C162.463 139.967 162.247 139.327 162.247 138.48V138.15C162.247 137.303 162.463 136.667 162.897 136.24C163.337 135.807 163.94 135.59 164.707 135.59ZM164.707 136.46C164.227 136.46 163.86 136.597 163.607 136.87C163.36 137.143 163.237 137.58 163.237 138.18V138.45C163.237 139.057 163.36 139.497 163.607 139.77C163.86 140.037 164.227 140.17 164.707 140.17C165.193 140.17 165.56 140.037 165.807 139.77C166.053 139.497 166.177 139.057 166.177 138.45V138.18C166.177 137.58 166.053 137.143 165.807 136.87C165.56 136.597 165.193 136.46 164.707 136.46Z" fill="#B3B9B5"/>
<defs>
<filter id="filter0_d_1328_120" x="0" y="0" width="269.999" height="228" filterUnits="userSpaceOnUse" color-interpolation-filters="sRGB">
<feFlood flood-opacity="0" result="BackgroundImageFix"/>
<feColorMatrix in="SourceAlpha" type="matrix" values="0 0 0 0 0 0 0 0 0 0 0 0 0 0 0 0 0 0 127 0" result="hardAlpha"/>
<feOffset dy="4"/>
<feGaussianBlur stdDeviation="50"/>
<feComposite in2="hardAlpha" operator="out"/>
<feColorMatrix type="matrix" values="0 0 0 0 0.679896 0 0 0 0 0.891667 0 0 0 0 0.823153 0 0 0 0.8 0"/>
<feBlend mode="normal" in2="BackgroundImageFix" result="effect1_dropShadow_1328_120"/>
<feBlend mode="normal" in="SourceGraphic" in2="effect1_dropShadow_1328_120" result="shape"/>
</filter>
</defs>
</svg>
