<svg width="20" height="19" viewBox="0 0 20 19" fill="none" xmlns="http://www.w3.org/2000/svg">
<path d="M9.99999 11.3125C12.8926 11.313 15.7393 10.5887 18.2799 9.20583L18.3125 9.18808V9.15094V5.25V5.1875H18.25H1.75H1.6875V5.25V9.15188V9.18902L1.72013 9.20678C4.26095 10.5891 7.10749 11.313 9.99999 11.3125ZM9.99999 11.3125L10 11.25M9.99999 11.3125L10 11.25M10 11.25C7.11794 11.2505 4.28165 10.5292 1.75 9.15188V5.3125V5.25H1.8125H18.1875H18.25V5.3125V9.15094C15.7185 10.5289 12.8822 11.2505 10 11.25ZM14.4375 3.75V3.8125H14.5H18.25C18.6312 3.8125 18.9969 3.96395 19.2665 4.23353C19.536 4.50312 19.6875 4.86875 19.6875 5.25V17.25C19.6875 17.6312 19.536 17.9969 19.2665 18.2665C18.9969 18.536 18.6312 18.6875 18.25 18.6875H1.75C1.36875 18.6875 1.00312 18.536 0.733534 18.2665C0.46395 17.9969 0.3125 17.6312 0.3125 17.25V5.25C0.3125 4.86875 0.46395 4.50312 0.733534 4.23353C1.00312 3.96395 1.36875 3.8125 1.75 3.8125H5.5H5.5625V3.75V3C5.5625 2.41984 5.79297 1.86344 6.2032 1.4532C6.61344 1.04297 7.16984 0.8125 7.75 0.8125H12.25C12.8302 0.8125 13.3866 1.04297 13.7968 1.4532C14.207 1.86344 14.4375 2.41984 14.4375 3V3.75ZM13 3.8125H13.0625V3.75V3C13.0625 2.78451 12.9769 2.57785 12.8245 2.42548C12.6722 2.2731 12.4655 2.1875 12.25 2.1875H7.75C7.53451 2.1875 7.32785 2.2731 7.17548 2.42548C7.0231 2.57785 6.9375 2.78451 6.9375 3V3.75V3.8125H7H13ZM18.25 17.3125H18.3125V17.25V10.8403V10.7402L18.2225 10.7842C15.6624 12.0366 12.85 12.6876 10 12.6875C7.15001 12.688 4.33759 12.0374 1.77746 10.7851L1.6875 10.7411V10.8412V17.25V17.3125H1.75H18.25ZM7.8125 9C7.8125 8.81766 7.88493 8.6428 8.01386 8.51386C8.1428 8.38493 8.31766 8.3125 8.5 8.3125H11.5C11.6823 8.3125 11.8572 8.38493 11.9861 8.51386C12.1151 8.6428 12.1875 8.81766 12.1875 9C12.1875 9.18234 12.1151 9.3572 11.9861 9.48614C11.8572 9.61507 11.6823 9.6875 11.5 9.6875H8.5C8.31766 9.6875 8.1428 9.61507 8.01386 9.48614C7.88493 9.3572 7.8125 9.18234 7.8125 9Z" fill="url(#paint0_linear_712_854)" stroke="url(#paint1_linear_712_854)" stroke-width="0.125"/>
<defs>
<linearGradient id="paint0_linear_712_854" x1="0.250001" y1="20.0135" x2="18.9083" y2="4.12006" gradientUnits="userSpaceOnUse">
<stop offset="0.046875" stop-color="#7CEFA7"/>
<stop offset="1" stop-color="#8FD3F4"/>
</linearGradient>
<linearGradient id="paint1_linear_712_854" x1="0.250001" y1="20.0135" x2="18.9083" y2="4.12006" gradientUnits="userSpaceOnUse">
<stop offset="0.046875" stop-color="#7CEFA7"/>
<stop offset="1" stop-color="#8FD3F4"/>
</linearGradient>
</defs>
</svg>
