<svg width="22" height="19" viewBox="0 0 22 19" fill="none" xmlns="http://www.w3.org/2000/svg">
<path d="M11 17.75C11 17.75 1.625 12.5 1.625 6.12501C1.62519 4.99826 2.01561 3.90635 2.72989 3.03493C3.44416 2.16351 4.4382 1.56636 5.54299 1.34501C6.64778 1.12367 7.79514 1.29179 8.78999 1.82079C9.78484 2.34979 10.5658 3.20702 11 4.24673L11 4.24673C11.4342 3.20702 12.2152 2.34979 13.21 1.82079C14.2049 1.29179 15.3522 1.12367 16.457 1.34501C17.5618 1.56636 18.5558 2.16351 19.2701 3.03493C19.9844 3.90635 20.3748 4.99826 20.375 6.12501C20.375 12.5 11 17.75 11 17.75Z" stroke="#99A29D" stroke-width="1.5" stroke-linecap="round" stroke-linejoin="round"/>
</svg>
