<svg width="33" height="32" viewBox="0 0 33 32" fill="none" xmlns="http://www.w3.org/2000/svg">
<g clip-path="url(#clip0_4390_3512)">
<path d="M21.6744 23.108L26.6859 17.3009C27.1409 16.7738 26.9313 15.9547 26.279 15.7109L22.7754 14.4012C22.4428 14.2768 22.0692 14.3382 21.7939 14.5624L14.6225 20.4015C13.9756 20.9282 14.22 21.9689 15.0338 22.1524L20.6972 23.4301C21.0574 23.5114 21.4331 23.3875 21.6744 23.108Z" fill="#F1B883" stroke="#F1B883"/>
<path d="M8.90374 8.81002L6.18825 13.9825C5.72301 14.8686 5.98447 15.9623 6.8002 16.5422L11.9717 20.2187C12.2501 20.4166 12.5746 20.5399 12.9142 20.5769L18.2404 21.1563C18.824 21.2198 19.4061 21.0237 19.8322 20.62L24.3331 16.3561C25.0211 15.7043 25.1572 14.6592 24.6592 13.853L21.549 8.8184C21.3347 8.4715 21.0194 8.19839 20.6456 8.03567L16.83 6.37512C16.4047 6.19004 15.9284 6.15851 15.4824 6.28593L10.1251 7.81664C9.59928 7.96687 9.15793 8.32585 8.90374 8.81002Z" fill="#FFD1A7" stroke="#FFD1A7"/>
<path d="M27.1534 15.268L23.5387 8.46399C23.4346 8.268 23.2317 8.14549 23.0097 8.14549H18.0415C17.2937 8.14549 12.3398 12.9593 12.3866 13.9408C12.4333 14.9223 14.9101 16.5113 16.359 16.2309C17.3335 16.0423 18.6186 15.0255 19.3921 14.3083C19.6134 14.1031 19.9514 14.077 20.1924 14.2588L24.8286 17.7556C25.0845 17.9486 25.4469 17.9064 25.6516 17.6598L27.0852 15.9328C27.2407 15.7455 27.2676 15.4829 27.1534 15.268Z" fill="#F1B883" stroke="#F1B883"/>
<rect x="10.0356" y="7.40868" width="10.4649" height="5.79129" rx="1.4" transform="rotate(116.44 10.0356 7.40868)" fill="#7DCE9B"/>
<rect width="10.4649" height="5.79129" rx="1.4" transform="matrix(0.445255 0.895404 0.895404 -0.445255 22.9644 7.84211)" fill="#75B2FF"/>
<path d="M17.0356 27.17L13.2682 26.2281C13.1153 26.1899 12.9736 26.1161 12.8547 26.0127L10.0356 23.5623" stroke="url(#paint0_linear_4390_3512)" stroke-width="2" stroke-linecap="round" stroke-linejoin="round"/>
</g>
<defs>
<linearGradient id="paint0_linear_4390_3512" x1="10.0356" y1="27.4232" x2="13.509" y2="22.1241" gradientUnits="userSpaceOnUse">
<stop offset="0.046875" stop-color="#7CEFA7"/>
<stop offset="1" stop-color="#8FD3F4"/>
</linearGradient>
<clipPath id="clip0_4390_3512">
<rect width="32" height="32" fill="white" transform="translate(0.5)"/>
</clipPath>
</defs>
</svg>
