<svg width="57" height="56" viewBox="0 0 57 56" fill="none" xmlns="http://www.w3.org/2000/svg">
<path d="M35.8306 3.86C35.8306 3.9854 35.7934 4.10798 35.7237 4.21225C35.6541 4.31652 35.555 4.39778 35.4392 4.44577C35.3233 4.49376 35.1958 4.50632 35.0728 4.48185C34.9499 4.45739 34.8369 4.397 34.7482 4.30833C34.6595 4.21966 34.5991 4.10668 34.5747 3.98369C34.5502 3.8607 34.5628 3.73321 34.6108 3.61736C34.6587 3.5015 34.74 3.40248 34.8443 3.33281C34.9486 3.26314 35.0711 3.22595 35.1965 3.22595C35.3647 3.22595 35.526 3.29275 35.6449 3.41166C35.7638 3.53057 35.8306 3.69184 35.8306 3.86Z" fill="#868686"/>
<path d="M41.1116 6.47058L36.581 9.87L34.4258 5.65198L32.0117 11.4893L37.3014 13.6743L40.8139 15.1269L44.0109 16.4486L46.4221 10.6112L41.9183 12.0758L41.1116 6.47058Z" fill="#FFF9CF"/>
<path d="M40.8125 15.1269L44.0095 16.4486L46.4207 10.6112L41.9169 12.0758L41.1102 6.47058" stroke="#868686" stroke-width="1.3" stroke-linecap="round" stroke-linejoin="round"/>
<path d="M37.3401 9.29847L36.581 9.87L34.4258 5.65198L32.0117 11.4893L37.3014 13.6743" stroke="#868686" stroke-width="1.3" stroke-linecap="round" stroke-linejoin="round"/>
<path d="M41.1102 6.47058L39.0801 7.99467" stroke="#868686" stroke-width="1.3" stroke-linecap="round" stroke-linejoin="round"/>
<path d="M42.7251 4.41659C42.7257 4.54212 42.689 4.66499 42.6197 4.76965C42.5504 4.87431 42.4516 4.95604 42.3358 5.00449C42.22 5.05293 42.0924 5.06591 41.9692 5.04179C41.846 5.01766 41.7328 4.95751 41.6438 4.86896C41.5548 4.7804 41.4941 4.66743 41.4694 4.54436C41.4447 4.42129 41.4571 4.29365 41.505 4.17762C41.5529 4.06159 41.6342 3.96239 41.7385 3.89259C41.8428 3.82279 41.9655 3.78552 42.0911 3.78552C42.2587 3.78552 42.4195 3.85191 42.5384 3.97018C42.6572 4.08844 42.7243 4.24895 42.7251 4.41659Z" fill="#868686"/>
<path d="M48.2993 8.74781C48.2993 8.87321 48.2622 8.9958 48.1925 9.10007C48.1228 9.20434 48.0238 9.2856 47.9079 9.33359C47.7921 9.38158 47.6646 9.39414 47.5416 9.36967C47.4186 9.34521 47.3056 9.28482 47.217 9.19615C47.1283 9.10748 47.0679 8.9945 47.0434 8.87151C47.019 8.74852 47.0315 8.62103 47.0795 8.50517C47.1275 8.38932 47.2088 8.29029 47.313 8.22062C47.4173 8.15096 47.5399 8.11377 47.6653 8.11377C47.8335 8.11377 47.9947 8.18057 48.1136 8.29948C48.2325 8.41838 48.2993 8.57965 48.2993 8.74781Z" fill="#868686"/>
<path d="M4.23279 29.8679C4.03037 30.874 4.11074 32.0558 5.08116 33.0381C5.24175 33.2062 5.359 33.4108 5.42279 33.6343C5.48658 33.8579 5.49499 34.0936 5.44729 34.3211C5.34477 34.8187 5.35773 35.3331 5.4852 35.8249C5.61266 36.3167 5.85123 36.7727 6.18254 37.1579C7.03984 38.2325 10.1981 37.6669 10.216 36.2917C10.2458 33.5501 7.9656 30.9663 6.95947 29.3648C6.80168 29.1102 6.57075 28.9092 6.29686 28.7879C6.02298 28.6667 5.71889 28.6309 5.42434 28.6852C5.12979 28.7396 4.85849 28.8815 4.6459 29.0925C4.43332 29.3035 4.28934 29.5737 4.23279 29.8679Z" fill="#D9FFC0"/>
<path d="M5.45193 35.4434C5.28524 36.9497 8.09229 39.3697 12.4651 40.3074C12.7676 40.3924 13.0853 40.4079 13.3946 40.3527C13.7039 40.2976 13.9967 40.1732 14.2511 39.9889C14.8257 39.5275 15.031 38.7446 15.1084 38.0421C15.3585 35.7471 14.656 33.6455 13.2867 31.8178C12.2389 30.4217 10.7118 29.2012 9.66401 27.8736C9.06866 27.1136 8.50804 26.3356 7.98215 25.5399C7.85751 25.3435 7.68148 25.1849 7.47313 25.0815C7.21939 24.9518 6.92755 24.9174 6.65063 24.9846C6.37371 25.0518 6.13006 25.2161 5.96393 25.4476C5.56122 25.981 5.34287 26.6308 5.3418 27.2991C5.3418 28.981 6.083 30.4604 8.55666 31.3534" fill="#D9FFC0"/>
<path d="M5.45193 35.4434C5.28524 36.9497 8.0923 39.3697 12.4651 40.3074C12.7676 40.3924 13.0853 40.4079 13.3946 40.3527C13.7039 40.2976 13.9967 40.1732 14.2511 39.9889C14.8257 39.5275 15.031 38.7446 15.1084 38.0421C15.3585 35.7471 14.656 33.6455 13.2867 31.8178C12.2389 30.4217 10.7118 29.2012 9.66401 27.8736C9.06866 27.1136 8.50804 26.3356 7.98215 25.5399C7.85751 25.3435 7.68148 25.1849 7.47313 25.0815C7.21939 24.9518 6.92755 24.9174 6.65063 24.9846C6.37371 25.0518 6.13006 25.2161 5.96393 25.4476C5.56122 25.981 5.34287 26.6308 5.3418 27.2991C5.3418 28.981 6.083 30.4604 8.55666 31.3534" stroke="#868686" stroke-width="1.3" stroke-linecap="round" stroke-linejoin="round"/>
<path d="M4.34783 30.8026C4.25653 31.2914 4.31785 31.7965 4.52345 32.2493C5.06819 33.44 6.88102 34.4729 8.78315 34.6694" fill="#D9FFC0"/>
<path d="M4.34783 30.8026C4.25653 31.2914 4.31785 31.7965 4.52345 32.2493C5.06819 33.44 6.88102 34.4729 8.78315 34.6694" stroke="#868686" stroke-width="1.3" stroke-linecap="round" stroke-linejoin="round"/>
<path d="M29.2409 13.4398C36.4802 13.3253 41.1461 17.4649 44.268 22.326C44.7217 23.032 45.1348 23.7596 45.5141 24.4934C45.7172 24.8897 45.9136 25.286 46.1032 25.6855C48.4463 30.5744 50.1393 35.9959 48.4734 41.4236C45.7985 50.1303 37.0897 51.6691 27.0705 51.5762C25.312 51.5607 23.5658 51.3051 21.8899 50.8176C20.315 50.3711 18.837 49.6775 17.522 48.7679C13.5231 45.9256 11.7658 41.7766 11.4847 37.7701C11.1461 32.7387 12.5852 29.274 14.7048 24.7256C16.4588 20.9575 20.1224 16.6754 24.4294 14.6319C25.9111 13.9002 27.558 13.4922 29.2409 13.4398Z" fill="white"/>
<path d="M39.1433 16.4487C41.2761 18.0311 42.9929 20.108 44.3894 22.3208C44.8319 23.0255 45.2346 23.7518 45.6044 24.4843C45.8025 24.8799 45.994 25.2755 46.1789 25.6742C48.4635 30.5542 50.1143 35.9659 48.49 41.3838C45.8817 50.0746 33.567 52.989 23.2859 50.9647" stroke="#868686" stroke-width="1.3" stroke-linecap="round" stroke-linejoin="round"/>
<path d="M26.5186 13.685C27.3462 13.5353 28.2013 13.4532 29.0625 13.4408C31.5419 13.3995 33.9991 13.7432 36.2146 14.4413" stroke="#868686" stroke-width="1.3" stroke-linecap="round" stroke-linejoin="round"/>
<path d="M17.445 48.5688C9.91281 43.1849 10.4264 33.2235 13.7406 25.7635C15.7263 21.2901 19.4748 17.2783 23.8846 14.7108" stroke="#868686" stroke-width="1.3" stroke-linecap="round" stroke-linejoin="round"/>
<path d="M33.2605 31.4634C33.0215 30.9487 32.6404 30.5131 32.1621 30.2078C31.6837 29.9025 31.1281 29.7403 30.5606 29.7403C29.9931 29.7403 29.4375 29.9025 28.9592 30.2078C28.4808 30.5131 28.0997 30.9487 27.8607 31.4634V31.4783C28.2923 32.6422 29.3491 33.9996 30.5606 33.9996C31.7721 33.9996 32.8289 32.6452 33.2605 31.4783V31.4634Z" fill="#FFAFA7"/>
<path d="M27.1401 28.7337C27.7155 28.7337 28.1819 28.2673 28.1819 27.6919C28.1819 27.1165 27.7155 26.65 27.1401 26.65C26.5647 26.65 26.0982 27.1165 26.0982 27.6919C26.0982 28.2673 26.5647 28.7337 27.1401 28.7337Z" fill="#868686"/>
<path d="M33.9818 28.7337C34.5572 28.7337 35.0237 28.2673 35.0237 27.6919C35.0237 27.1165 34.5572 26.65 33.9818 26.65C33.4064 26.65 32.9399 27.1165 32.9399 27.6919C32.9399 28.2673 33.4064 28.7337 33.9818 28.7337Z" fill="#868686"/>
<path d="M30.487 16.9748C31.3566 16.572 32.1225 15.9744 32.7256 15.2279C33.95 13.732 34.3937 11.9048 34.0067 10.4256C32.4854 10.3453 30.7839 11.1217 29.5595 12.6176C28.3351 14.1135 27.8914 15.9407 28.2784 17.4199" fill="#FFF8F2"/>
<path d="M30.487 16.9748C31.3566 16.572 32.1225 15.9744 32.7256 15.2279C33.95 13.732 34.3937 11.9048 34.0067 10.4256C32.4854 10.3453 30.7839 11.1217 29.5595 12.6176C28.3351 14.1135 27.8914 15.9407 28.2784 17.4199" stroke="#868686" stroke-width="1.3" stroke-linecap="round" stroke-linejoin="round"/>
<path d="M49.9199 27.2514L52.8579 26.3315" stroke="#868686" stroke-width="1.3" stroke-linecap="round" stroke-linejoin="round"/>
<path d="M49.2012 25.1914L50.636 24.0454" stroke="#868686" stroke-width="1.3" stroke-linecap="round" stroke-linejoin="round"/>
<path d="M14.7144 17.8629L12.4551 15.7733" stroke="#868686" stroke-width="1.3" stroke-linecap="round" stroke-linejoin="round"/>
<path d="M13.279 19.512L11.5703 18.8362" stroke="#868686" stroke-width="1.3" stroke-linecap="round" stroke-linejoin="round"/>
<path d="M38.9165 34.5236C38.8162 35.0899 38.8636 35.6725 39.0539 36.2153C39.2442 36.758 39.571 37.2426 40.003 37.6223C40.1767 37.7769 40.3098 37.9717 40.3907 38.1897C40.4717 38.4076 40.498 38.6421 40.4674 38.8726C40.4031 39.3764 40.4552 39.8882 40.6199 40.3687C40.7845 40.8491 41.0572 41.2854 41.4169 41.6439C42.3546 42.653 46.3107 42.1202 46.2214 40.7509C46.0428 38.0153 42.7207 35.3392 41.5955 33.8181C41.4189 33.5768 41.1737 33.3944 40.8919 33.2945C40.6101 33.1946 40.3048 33.1819 40.0157 33.2581C39.7265 33.3342 39.467 33.4956 39.271 33.7214C39.0749 33.9471 38.9514 34.2266 38.9165 34.5236Z" fill="#D9FFC0"/>
<path d="M40.5557 39.9918C40.5051 41.507 43.4878 43.7038 47.9172 44.3051C48.224 44.3651 48.5403 44.3553 48.8428 44.2765C49.1452 44.1976 49.4261 44.0518 49.6645 43.8497C50.2003 43.3466 50.3462 42.5518 50.37 41.8463C50.4415 39.5364 49.5842 37.4973 48.0779 35.7797C46.9259 34.467 45.3096 33.3656 44.1635 32.1243C43.5067 31.4099 42.8885 30.6766 42.309 29.9245C42.1696 29.7378 41.981 29.5935 41.7643 29.5078C41.5025 29.3942 41.2082 29.3802 40.9368 29.4685C40.6655 29.5568 40.4357 29.7412 40.2908 29.987C39.9292 30.5491 39.7609 31.2138 39.8116 31.8802C39.9336 33.5561 40.7909 34.9731 43.3241 35.6785" fill="#D9FFC0"/>
<path d="M40.5557 39.9918C40.5051 41.507 43.4878 43.7038 47.9172 44.3051C48.224 44.3651 48.5403 44.3553 48.8428 44.2765C49.1452 44.1976 49.4261 44.0518 49.6645 43.8497C50.2003 43.3466 50.3462 42.5518 50.37 41.8463C50.4415 39.5364 49.5842 37.4973 48.0779 35.7797C46.9259 34.467 45.3096 33.3656 44.1635 32.1243C43.5067 31.4099 42.8885 30.6766 42.309 29.9245C42.1696 29.7378 41.981 29.5935 41.7643 29.5078C41.5025 29.3942 41.2082 29.3802 40.9368 29.4685C40.6655 29.5568 40.4357 29.7412 40.2908 29.987C39.9292 30.5491 39.7609 31.2138 39.8116 31.8802C39.9336 33.5561 40.7909 34.9731 43.3241 35.6785" stroke="#868686" stroke-width="1.3" stroke-linecap="round" stroke-linejoin="round"/>
<path d="M39.0937 35.4493C39.0451 35.9448 39.1489 36.4433 39.3914 36.8782C40.0254 38.0123 41.9127 38.9143 43.8237 38.9619" fill="#D9FFC0"/>
<path d="M39.0937 35.4493C39.0451 35.9448 39.1489 36.4433 39.3914 36.8782C40.0254 38.0123 41.9127 38.9143 43.8237 38.9619" stroke="#868686" stroke-width="1.3" stroke-linecap="round" stroke-linejoin="round"/>
</svg>
