<svg width="57" height="56" viewBox="0 0 57 56" fill="none" xmlns="http://www.w3.org/2000/svg">
<path d="M38.234 10.7127C40.3474 10.9027 42.8896 10.0492 43.1119 9.06754C43.6153 6.85834 40.2483 4.88744 35.9218 3.90225C31.5952 2.91705 27.3219 3.79917 26.8197 5.99508C26.3174 8.19099 29.497 10.9055 33.8269 11.891C35.1988 12.2052 36.6924 12.6209 37.8416 12.8046" fill="#D2E6FF"/>
<path d="M27.6708 4.69826C28.4543 4.1568 29.3593 3.81701 30.3056 3.70905C34.1698 3.17486 38.1009 3.96757 41.4562 5.95755C44.2423 7.68194 43.5468 10.1653 40.4251 10.6451C37.7323 11.0496 33.6001 10.1756 31.2011 8.6904C29.1289 7.40872 29.335 6.08395 31.6546 5.73303C33.6581 5.43075 36.7886 5.85955 38.545 7.0023C39.7852 7.8139 39.3705 8.99933 37.3291 8.97662C36.0577 8.95948 34.3284 8.40874 34.1225 7.56951" stroke="#868686" stroke-width="1.3" stroke-linecap="round" stroke-linejoin="round"/>
<path d="M37.4267 12.7873C34.4725 12.3195 31.634 11.2948 29.0622 9.76759C27.4754 8.78748 26.7052 7.66638 26.6625 6.65088" stroke="#868686" stroke-width="1.3" stroke-linecap="round" stroke-linejoin="round"/>
<path d="M43.6978 12.899C42.4976 13.0747 41.284 13.1427 40.0717 13.1023" stroke="#868686" stroke-width="1.3" stroke-linecap="round" stroke-linejoin="round"/>
<path d="M27.2835 13.9327C19.2039 14.5069 14.5102 19.0153 11.6318 24.0831C11.2195 24.8125 10.8484 25.5645 10.5205 26.3355C10.3426 26.743 10.1722 27.1505 10.0092 27.5617C8.00136 32.5814 6.11204 37.9937 8.846 43.0726C12.921 50.6373 25.2645 51.8079 34.4074 51.1745C36.3323 51.0151 38.2273 50.599 40.042 49.9372C41.6974 49.3733 43.2548 48.5546 44.6578 47.5107C48.7625 44.3433 50.2146 40.1016 50.0368 36.1414C49.8072 31.1699 48.0475 27.9581 45.1283 23.6941C42.7129 20.16 37.8229 16.2443 32.7737 14.6514C31.005 14.069 29.1425 13.8252 27.2835 13.9327Z" fill="white"/>
<path d="M18.5967 16.6852C16.2773 18.2653 14.2755 20.2672 12.6953 22.5865C12.2061 23.2849 11.7535 24.0082 11.3395 24.7537C11.1209 25.1463 10.906 25.5464 10.6986 25.9428C8.16096 30.818 6.34573 36.2192 8.26469 41.6056C11.3395 50.2446 25.3982 53.0638 37.0786 50.9744" stroke="#868686" stroke-width="1.3" stroke-linecap="round" stroke-linejoin="round"/>
<path d="M30.2504 13.7622C29.323 13.6303 28.3845 13.5943 27.4497 13.6547C25.5214 13.78 23.6218 14.1869 21.8114 14.8624" stroke="#868686" stroke-width="1.3" stroke-linecap="round" stroke-linejoin="round"/>
<path d="M44.7223 47.4848C52.3055 41.5575 50.5459 31.9257 46.0263 24.976C43.3146 20.8121 39.3581 16.9445 34.2347 14.8625" stroke="#868686" stroke-width="1.3" stroke-linecap="round" stroke-linejoin="round"/>
<path d="M31.0934 27.9321C30.864 27.2606 30.4456 26.6696 29.8885 26.2301C29.3314 25.7905 28.6593 25.5212 27.9528 25.4543C27.2464 25.3874 26.5357 25.5258 25.906 25.853C25.2763 26.1802 24.7544 26.6821 24.403 27.2986V27.3172C24.7994 28.799 25.9626 30.6179 27.4519 30.7587C28.9411 30.8994 30.4155 29.3398 31.0897 27.9506L31.0934 27.9321Z" fill="#FFAFA7"/>
<path d="M31.0147 13.4845C29.9293 16.174 27.2064 17.615 24.9504 17.1149C25.1467 11.4284 30.8221 11.0172 32.5854 11.5803" fill="#FFF8F2"/>
<path d="M31.0147 13.4845C29.9293 16.174 27.2064 17.615 24.9504 17.1149C25.1467 11.4284 30.8221 11.0172 32.5854 11.5803" stroke="#868686" stroke-width="1.3" stroke-linecap="round" stroke-linejoin="round"/>
<path d="M14.7822 44.81C14.0806 44.67 13.4268 44.3522 12.8832 43.8872C12.3396 43.4221 11.9246 42.8253 11.6777 42.1538C11.5788 41.8805 11.4136 41.6359 11.1971 41.442C10.9805 41.248 10.7193 41.1108 10.4367 41.0425C9.82356 40.8891 9.25366 40.5974 8.77075 40.1896C8.28784 39.7819 7.90476 39.2689 7.65091 38.6901C6.91 37.149 9.95884 33.7519 11.511 34.4706C14.6043 35.9117 15.5564 40.0274 16.8122 42.013C17.0155 42.327 17.119 42.6951 17.109 43.069C17.0991 43.4429 16.9761 43.8051 16.7564 44.1078C16.5367 44.4104 16.2305 44.6395 15.8781 44.7649C15.5257 44.8902 15.1437 44.9059 14.7822 44.81Z" fill="#D2E6FF"/>
<path d="M9.18026 40.446C7.39837 39.82 6.1944 35.3708 7.49469 29.9584C7.56364 29.5761 7.71762 29.2142 7.94525 28.8993C8.17288 28.5845 8.46834 28.3248 8.8098 28.1395C9.63592 27.7431 10.6213 27.9321 11.4548 28.2247C14.1666 29.1805 16.1448 31.0957 17.4562 33.6185C18.4601 35.5449 19.0084 37.9158 19.9346 39.8051C20.4631 40.8918 21.0348 41.9402 21.6498 42.9503C21.8031 43.196 21.8852 43.4794 21.8868 43.769C21.8969 44.1221 21.7785 44.4669 21.5537 44.7394C21.3289 45.0119 21.0129 45.1936 20.6643 45.2508C19.8497 45.418 19.0027 45.3139 18.2527 44.9545C16.3634 44.0543 15.1075 42.4243 15.4335 39.168" fill="#D2E6FF"/>
<path d="M9.18026 40.446C7.39837 39.82 6.1944 35.3708 7.49469 29.9584C7.56364 29.5761 7.71762 29.2142 7.94525 28.8993C8.17288 28.5845 8.46834 28.3248 8.8098 28.1395C9.63592 27.7431 10.6213 27.9321 11.4548 28.2247C14.1666 29.1805 16.1448 31.0957 17.4562 33.6185C18.4601 35.5449 19.0084 37.9158 19.9346 39.8051C20.4631 40.8918 21.0348 41.9402 21.6498 42.9503C21.8031 43.196 21.8852 43.4794 21.8868 43.769C21.8969 44.1221 21.7785 44.4669 21.5537 44.7394C21.3289 45.0119 21.0129 45.1936 20.6643 45.2508C19.8497 45.418 19.0027 45.3139 18.2527 44.9545C16.3634 44.0543 15.1075 42.4243 15.4335 39.168" stroke="#868686" stroke-width="1.3" stroke-linecap="round" stroke-linejoin="round"/>
<path d="M13.7893 44.1914C13.1916 44.0288 12.6578 43.6875 12.2593 43.2134C11.2332 41.9686 11.0331 39.3717 11.837 37.1305" stroke="#868686" stroke-width="1.3" stroke-linecap="round" stroke-linejoin="round"/>
<path d="M35.1316 48.5479C35.8434 48.4797 36.5257 48.2299 37.1133 47.8226C37.701 47.4153 38.1743 46.864 38.4879 46.2214C38.6159 45.9615 38.8058 45.737 39.041 45.5678C39.2761 45.3985 39.5493 45.2897 39.8364 45.2509C40.4619 45.1619 41.0587 44.9306 41.5809 44.5748C42.103 44.219 42.5366 43.7482 42.8482 43.1985C43.7484 41.7427 40.9959 38.3159 39.3881 38.8753C36.1615 39.9867 34.8464 43.7135 33.3942 45.5657C33.1622 45.8577 33.0237 46.2129 32.9969 46.5849C32.9701 46.9568 33.0562 47.3282 33.2439 47.6505C33.4317 47.9727 33.7123 48.2308 34.0491 48.3909C34.3859 48.551 34.7632 48.6057 35.1316 48.5479Z" fill="#D2E6FF"/>
<path d="M41.1537 44.7767C43.0059 44.3358 44.6396 40.0349 43.9024 34.5188C43.8743 34.1322 43.7599 33.7567 43.5676 33.4202C43.3752 33.0836 43.1099 32.7944 42.7911 32.5739C42.0094 32.096 41.0092 32.1812 40.1534 32.3887C37.3565 33.0629 35.193 34.767 33.6297 37.1379C32.4332 38.9531 31.6478 41.2573 30.5327 43.0429C29.8955 44.0654 29.2201 45.0533 28.5063 46.0066C28.3284 46.2364 28.217 46.5106 28.184 46.7993C28.1394 47.1507 28.2222 47.5064 28.4172 47.802C28.6122 48.0976 28.9067 48.3136 29.2472 48.4108C30.0412 48.658 30.8939 48.6411 31.6774 48.3627C33.6482 47.6588 35.0671 46.1622 35.0745 42.8911" fill="#D2E6FF"/>
<path d="M41.1537 44.7767C43.0059 44.3358 44.6396 40.0349 43.9024 34.5188C43.8743 34.1322 43.7599 33.7567 43.5676 33.4202C43.3752 33.0836 43.1099 32.7944 42.7911 32.5739C42.0094 32.096 41.0092 32.1812 40.1534 32.3887C37.3565 33.0629 35.193 34.767 33.6297 37.1379C32.4332 38.9531 31.6478 41.2573 30.5327 43.0429C29.8955 44.0654 29.2201 45.0533 28.5063 46.0066C28.3284 46.2364 28.217 46.5106 28.184 46.7993C28.1394 47.1507 28.2222 47.5064 28.4172 47.802C28.6122 48.0976 28.9067 48.3136 29.2472 48.4108C30.0412 48.658 30.8939 48.6411 31.6774 48.3627C33.6482 47.6588 35.0671 46.1622 35.0745 42.8911" stroke="#868686" stroke-width="1.3" stroke-linecap="round" stroke-linejoin="round"/>
<path d="M36.1792 48.0292C36.7896 47.9287 37.3552 47.6459 37.8018 47.2179C38.9502 46.0806 39.4133 43.5133 38.8428 41.2091" stroke="#868686" stroke-width="1.3" stroke-linecap="round" stroke-linejoin="round"/>
<path d="M31.6683 23.0532L33.691 24.4684" stroke="#868686" stroke-width="1.3" stroke-linecap="round" stroke-linejoin="round"/>
<path d="M24.9028 22.3123L22.6245 23.2569" stroke="#868686" stroke-width="1.3" stroke-linecap="round" stroke-linejoin="round"/>
</svg>
