<svg width="293" height="231" viewBox="0 0 293 231" fill="none" xmlns="http://www.w3.org/2000/svg">
<g filter="url(#filter0_d_4352_43271)">
<rect x="16.5" y="25.8071" width="260" height="113.6" rx="22.4" fill="#FFFDFA"/>
<path d="M59.3057 58.4912C61.6217 58.4912 63.0017 59.5832 63.0017 61.4192C63.0017 63.0992 61.8497 64.1552 59.9057 64.3232V66.3752H63.9257C64.2137 66.3752 64.3457 66.6032 64.3457 66.8792C64.3457 67.1552 64.2137 67.3952 63.9257 67.3952H54.6857C54.3977 67.3952 54.2657 67.1552 54.2657 66.8792C54.2657 66.6032 54.3977 66.3752 54.6857 66.3752H58.7057V64.3232C56.7497 64.1552 55.6217 63.0992 55.6217 61.4192C55.6217 59.5832 56.9897 58.4912 59.3057 58.4912ZM59.3057 59.5112C57.5897 59.5112 56.8217 60.3392 56.8217 61.4192C56.8217 62.4992 57.5897 63.3272 59.3057 63.3272C61.0217 63.3272 61.7897 62.4992 61.7897 61.4192C61.7897 60.3392 61.0217 59.5112 59.3057 59.5112ZM67.1796 58.1792C67.4916 58.1792 67.7796 58.3352 67.7796 58.6952V60.5552C67.7796 60.7352 67.8516 60.7952 68.0316 60.7952H73.6716C73.9476 60.7952 74.0796 61.0232 74.0796 61.2872C74.0796 61.5632 73.9476 61.7912 73.6716 61.7912H67.4916C66.7956 61.7912 66.5796 61.5752 66.5796 60.8912V58.6952C66.5796 58.3352 66.8676 58.1792 67.1796 58.1792ZM74.8596 62.7392C75.1356 62.7392 75.2676 62.9672 75.2676 63.2312C75.2676 63.5072 75.1356 63.7352 74.8596 63.7352H65.5956C65.3196 63.7352 65.1876 63.5072 65.1876 63.2312C65.1876 62.9672 65.3196 62.7392 65.5956 62.7392H74.8596ZM72.9756 64.7072C73.6716 64.7072 73.8996 64.9232 73.8996 65.6072V66.4952C73.8996 67.1792 73.6716 67.3952 72.9756 67.3952H67.8996C67.7676 67.3952 67.7076 67.4432 67.7076 67.5752V68.0672C67.7076 68.1872 67.7676 68.2472 67.8996 68.2472H73.7676C74.0316 68.2472 74.1636 68.4752 74.1636 68.7152C74.1636 68.9672 74.0316 69.1832 73.7676 69.1832H67.4676C66.7716 69.1832 66.5436 68.9672 66.5436 68.2832V67.3952C66.5436 66.7112 66.7716 66.4952 67.4676 66.4952H72.5436C72.6756 66.4952 72.7356 66.4352 72.7356 66.3152V65.8352C72.7356 65.7032 72.6756 65.6432 72.5436 65.6432H66.9036C66.6396 65.6432 66.5196 65.4272 66.5196 65.1752C66.5196 64.9352 66.6396 64.7072 66.9036 64.7072H72.9756ZM80.0575 58.8512C80.3815 58.8512 80.6695 59.0072 80.6695 59.3672V64.2872C80.6695 64.4672 80.7415 64.5392 80.9215 64.5392C81.7855 64.5392 82.9855 64.4672 83.8255 64.3472C84.0895 64.3112 84.2695 64.5032 84.2935 64.7912C84.3295 65.0792 84.2215 65.3312 83.9575 65.3792C83.3455 65.4752 82.0375 65.5712 80.3815 65.5712C79.6855 65.5712 79.4575 65.3552 79.4575 64.6712V59.3672C79.4575 59.0072 79.7455 58.8512 80.0575 58.8512ZM87.9415 58.0712C88.2295 58.0712 88.5055 58.2152 88.5055 58.5392V67.9712C88.5055 68.2952 88.2295 68.4392 87.9415 68.4392C87.6655 68.4392 87.3895 68.2952 87.3895 67.9712V62.7752H86.0335V67.4672C86.0335 67.7912 85.7575 67.9352 85.4695 67.9352C85.1935 67.9352 84.9175 67.7912 84.9175 67.4672V58.6592C84.9175 58.3352 85.1935 58.1912 85.4695 58.1912C85.7575 58.1912 86.0335 58.3352 86.0335 58.6592V61.7552H87.3895V58.5392C87.3895 58.2152 87.6655 58.0712 87.9415 58.0712ZM96.6433 58.1912C96.9193 58.1912 97.1953 58.3352 97.1953 58.6592V67.4672C97.1953 67.7912 96.9193 67.9352 96.6433 67.9352C96.3553 67.9352 96.0793 67.7912 96.0793 67.4672V62.7752H94.3993C94.0993 63.7472 93.2593 64.4072 91.0633 65.9552C90.8233 66.1232 90.4873 66.0272 90.3193 65.7992C90.1633 65.5712 90.1273 65.2112 90.3793 65.0312C93.2593 63.0512 93.4273 62.8352 93.4273 61.0952V60.2552C93.4273 60.0752 93.3553 60.0152 93.1753 60.0152H90.7393C90.4393 60.0152 90.3073 59.7752 90.3073 59.4992C90.3073 59.2112 90.4393 58.9712 90.7393 58.9712H93.6553C94.3513 58.9712 94.5793 59.1872 94.5793 59.8712V61.1432C94.5793 61.3712 94.5793 61.5752 94.5673 61.7552H96.0793V58.6592C96.0793 58.3352 96.3553 58.1912 96.6433 58.1912ZM98.8633 58.0712C99.1513 58.0712 99.4273 58.2152 99.4273 58.5392V67.9712C99.4273 68.2952 99.1513 68.4392 98.8633 68.4392C98.5873 68.4392 98.3113 68.2952 98.3113 67.9712V58.5392C98.3113 58.2152 98.5873 58.0712 98.8633 58.0712ZM108.621 58.6352C109.317 58.6352 109.545 58.8512 109.545 59.5352V62.6312C109.545 63.3152 109.317 63.5312 108.621 63.5312H105.441C104.745 63.5312 104.517 63.3152 104.517 62.6312V59.5352C104.517 58.8512 104.745 58.6352 105.441 58.6352H108.621ZM105.945 59.6432C105.765 59.6432 105.693 59.7152 105.693 59.8952V62.2832C105.693 62.4632 105.765 62.5232 105.945 62.5232H108.117C108.297 62.5232 108.369 62.4632 108.369 62.2832V59.8952C108.369 59.7152 108.297 59.6432 108.117 59.6432H105.945ZM112.485 58.0712C112.785 58.0712 113.073 58.2272 113.073 58.5752V63.8192C113.073 64.1672 112.785 64.3232 112.485 64.3232C112.185 64.3232 111.885 64.1672 111.885 63.8192V62.6312H110.493C110.205 62.6312 110.085 62.3912 110.085 62.1152C110.085 61.8392 110.205 61.6112 110.493 61.6112H111.885V60.6152H110.493C110.205 60.6152 110.085 60.3872 110.085 60.1112C110.085 59.8352 110.205 59.6072 110.493 59.6072H111.885V58.5752C111.885 58.2272 112.185 58.0712 112.485 58.0712ZM109.545 64.0472C109.857 64.0472 110.145 64.2032 110.145 64.5512V65.2352H112.977C113.241 65.2352 113.361 65.4632 113.361 65.7152C113.361 65.9552 113.241 66.1832 112.977 66.1832H110.145V66.3152C110.145 66.7712 110.457 67.1192 111.213 67.4312C111.921 67.6952 112.569 67.9232 113.205 68.1272C113.481 68.2232 113.541 68.4632 113.457 68.7152C113.361 68.9672 113.181 69.1352 112.881 69.0392C112.209 68.8232 111.585 68.5952 110.985 68.3672C110.073 68.0072 109.653 67.6472 109.557 67.3472H109.545C109.449 67.6712 109.017 68.0312 108.105 68.3912C107.505 68.6192 106.881 68.8472 106.209 69.0632C105.921 69.1472 105.717 68.9792 105.633 68.7392C105.537 68.4752 105.609 68.2232 105.885 68.1272C106.521 67.9232 107.169 67.6952 107.865 67.4312C108.633 67.1192 108.945 66.7712 108.945 66.3152V66.1832H106.065C105.801 66.1832 105.669 65.9552 105.669 65.7152C105.669 65.4632 105.801 65.2352 106.065 65.2352H108.945V64.5512C108.945 64.2032 109.233 64.0472 109.545 64.0472ZM118.583 58.9712H121.499C122.195 58.9712 122.423 59.1872 122.423 59.8712V61.1432C122.423 63.3272 122.111 63.6872 118.907 65.9552C118.667 66.1232 118.331 66.0272 118.163 65.7992C118.007 65.5712 117.971 65.2112 118.223 65.0312C121.103 63.0512 121.271 62.8352 121.271 61.0952V60.2552C121.271 60.0752 121.199 60.0152 121.019 60.0152H118.583C118.283 60.0152 118.151 59.7752 118.151 59.4992C118.151 59.2112 118.283 58.9712 118.583 58.9712ZM126.707 58.0712C126.995 58.0712 127.271 58.2152 127.271 58.5392V67.9712C127.271 68.2952 126.995 68.4392 126.707 68.4392C126.431 68.4392 126.155 68.2952 126.155 67.9712V62.7752H124.799V67.4672C124.799 67.7912 124.523 67.9352 124.235 67.9352C123.959 67.9352 123.683 67.7912 123.683 67.4672V58.6592C123.683 58.3352 123.959 58.1912 124.235 58.1912C124.523 58.1912 124.799 58.3352 124.799 58.6592V61.7552H126.155V58.5392C126.155 58.2152 126.431 58.0712 126.707 58.0712ZM132.493 58.6952C134.413 58.6952 135.397 59.8232 135.397 61.3112C135.397 62.8112 134.413 63.9392 132.493 63.9392C130.573 63.9392 129.589 62.8112 129.589 61.3112C129.589 59.8232 130.573 58.6952 132.493 58.6952ZM132.493 59.7032C131.293 59.7032 130.729 60.3992 130.729 61.3112C130.729 62.2232 131.293 62.9312 132.493 62.9312C133.693 62.9312 134.257 62.2232 134.257 61.3112C134.257 60.3992 133.693 59.7032 132.493 59.7032ZM135.793 65.2952C136.069 65.2712 136.225 65.4632 136.237 65.7512C136.261 66.0272 136.153 66.2792 135.877 66.3032C133.957 66.4832 131.713 66.5552 129.361 66.5552C129.073 66.5552 128.941 66.3152 128.941 66.0392C128.941 65.7632 129.073 65.5232 129.361 65.5232C131.485 65.5232 133.573 65.4992 135.793 65.2952ZM137.461 58.0712C137.773 58.0712 138.061 58.2272 138.061 58.5752V67.9352C138.061 68.2832 137.773 68.4392 137.461 68.4392C137.161 68.4392 136.873 68.2832 136.873 67.9352V58.5752C136.873 58.2272 137.161 58.0712 137.461 58.0712ZM143.535 58.6832H147.171C147.867 58.6832 148.095 58.8992 148.095 59.5832V60.4472C148.095 62.1032 147.471 62.5952 143.763 64.2872C143.487 64.4072 143.199 64.2512 143.067 63.9872C142.959 63.7592 142.971 63.4112 143.283 63.2792C146.619 61.7792 146.895 61.4672 146.895 60.3992V59.9672C146.895 59.7872 146.835 59.7152 146.643 59.7152H143.535C143.247 59.7152 143.115 59.4872 143.115 59.2112C143.115 58.9232 143.247 58.6832 143.535 58.6832ZM150.651 58.0712C150.963 58.0712 151.251 58.2272 151.251 58.5752V60.6032H152.571C152.883 60.6032 153.015 60.8432 153.015 61.1192C153.015 61.4192 152.883 61.6472 152.571 61.6472H151.251V63.8192C151.251 64.1672 150.963 64.3232 150.651 64.3232C150.339 64.3232 150.051 64.1672 150.051 63.8192V58.5752C150.051 58.2272 150.339 58.0712 150.651 58.0712ZM145.287 64.8392H150.327C151.023 64.8392 151.251 65.0552 151.251 65.7392V68.1752C151.251 68.8592 151.023 69.0752 150.327 69.0752H145.287C144.591 69.0752 144.363 68.8592 144.363 68.1752V65.7392C144.363 65.0552 144.591 64.8392 145.287 64.8392ZM149.811 65.8472H145.803C145.623 65.8472 145.551 65.9192 145.551 66.0992V67.8152C145.551 67.9952 145.623 68.0672 145.803 68.0672H149.811C149.991 68.0672 150.063 67.9952 150.063 67.8152V66.0992C150.063 65.9192 149.991 65.8472 149.811 65.8472ZM159.605 58.6952C159.893 58.6952 160.025 58.9352 160.025 59.2112C160.025 59.4872 159.893 59.7152 159.605 59.7152H157.685V60.3632C157.685 61.1312 157.901 61.6112 158.477 62.0792C159.029 62.5352 159.545 62.9192 159.905 63.1712C160.169 63.3752 160.169 63.6632 160.001 63.9032C159.845 64.0952 159.557 64.2512 159.257 64.0472C158.993 63.8552 158.501 63.4832 157.985 63.0752C157.373 62.5952 157.169 62.3192 157.109 62.0792H157.097C157.037 62.3432 156.797 62.6432 156.197 63.1352C155.669 63.5432 155.165 63.9152 154.709 64.2392C154.433 64.4432 154.121 64.2992 153.977 64.0952C153.809 63.8552 153.797 63.5432 154.073 63.3392C154.625 62.9432 155.141 62.5712 155.705 62.1152C156.269 61.6472 156.485 61.1672 156.485 60.3872V59.7152H154.481C154.181 59.7152 154.049 59.4872 154.049 59.2112C154.049 58.9352 154.181 58.6952 154.481 58.6952H159.605ZM162.173 58.0712C162.473 58.0712 162.761 58.2272 162.761 58.5752V64.1552C162.761 64.4912 162.473 64.6472 162.173 64.6472C161.861 64.6472 161.573 64.4912 161.573 64.1552V61.8392H159.845C159.545 61.8392 159.413 61.5992 159.413 61.3232C159.413 61.0352 159.545 60.8072 159.845 60.8072H161.573V58.5752C161.573 58.2272 161.861 58.0712 162.173 58.0712ZM159.305 64.7552C161.525 64.7552 162.821 65.5232 162.821 67.0232C162.821 68.5232 161.525 69.2912 159.305 69.2912C157.085 69.2912 155.789 68.5232 155.789 67.0232C155.789 65.5232 157.085 64.7552 159.305 64.7552ZM159.305 65.7272C157.673 65.7272 156.977 66.2312 156.977 67.0232C156.977 67.8152 157.673 68.3192 159.305 68.3192C160.925 68.3192 161.633 67.8152 161.633 67.0232C161.633 66.2312 160.925 65.7272 159.305 65.7272ZM167.791 58.6832C169.651 58.6832 170.611 59.9432 170.611 62.2712C170.611 64.5992 169.651 65.8592 167.791 65.8592C165.931 65.8592 164.983 64.5992 164.983 62.2712C164.983 59.9432 165.931 58.6832 167.791 58.6832ZM167.791 59.7392C166.615 59.7392 166.147 60.6392 166.147 62.2712C166.147 63.9032 166.615 64.8032 167.791 64.8032C168.979 64.8032 169.447 63.9032 169.447 62.2712C169.447 60.6392 168.979 59.7392 167.791 59.7392ZM172.999 58.0712C173.323 58.0712 173.611 58.2272 173.611 58.5752V67.9352C173.611 68.2832 173.323 68.4392 172.999 68.4392C172.699 68.4392 172.399 68.2832 172.399 67.9352V58.5752C172.399 58.2272 172.699 58.0712 172.999 58.0712ZM179.48 58.5632C179.78 58.5632 180.08 58.7192 180.08 59.0672V60.3992H182.84V59.0672C182.84 58.7192 183.128 58.5632 183.428 58.5632C183.728 58.5632 184.028 58.7192 184.028 59.0672V62.9552C184.028 63.6392 183.8 63.8552 183.104 63.8552H179.816C179.12 63.8552 178.892 63.6392 178.892 62.9552V59.0672C178.892 58.7192 179.18 58.5632 179.48 58.5632ZM180.08 62.6192C180.08 62.7992 180.14 62.8592 180.332 62.8592H182.588C182.768 62.8592 182.84 62.7992 182.84 62.6192V61.3952H180.08V62.6192ZM186.416 58.0712C186.728 58.0712 187.016 58.2272 187.016 58.5752V60.7592H188.336C188.648 60.7592 188.78 60.9992 188.78 61.2752C188.78 61.5752 188.648 61.8032 188.336 61.8032H187.016V64.2272C187.016 64.5632 186.728 64.7192 186.416 64.7192C186.104 64.7192 185.816 64.5632 185.816 64.2272V58.5752C185.816 58.2272 186.104 58.0712 186.416 58.0712ZM183.644 64.8272C185.816 64.8272 187.076 65.5832 187.076 67.0592C187.076 68.5352 185.816 69.2912 183.644 69.2912C181.472 69.2912 180.212 68.5352 180.212 67.0592C180.212 65.5832 181.472 64.8272 183.644 64.8272ZM183.644 65.7992C182.06 65.7992 181.4 66.2912 181.4 67.0592C181.4 67.8272 182.06 68.3192 183.644 68.3192C185.216 68.3192 185.888 67.8272 185.888 67.0592C185.888 66.2912 185.216 65.7992 183.644 65.7992ZM197.182 58.4912C197.878 58.4912 198.106 58.7072 198.106 59.3912V61.6592C198.106 62.3432 197.878 62.5592 197.182 62.5592H191.71C191.014 62.5592 190.798 62.3432 190.798 61.6592V59.3912C190.798 58.7072 191.014 58.4912 191.71 58.4912H197.182ZM192.238 59.4992C192.046 59.4992 191.986 59.5592 191.986 59.7512V61.2992C191.986 61.4912 192.046 61.5512 192.238 61.5512H196.654C196.846 61.5512 196.906 61.4912 196.906 61.2992V59.7512C196.906 59.5592 196.846 59.4992 196.654 59.4992H192.238ZM199.066 63.6512C199.354 63.6512 199.486 63.8792 199.486 64.1552C199.486 64.4192 199.354 64.6592 199.066 64.6592H195.178V66.3392C195.178 66.6512 194.914 66.7952 194.578 66.7952C194.254 66.7952 193.99 66.6512 193.99 66.3392V64.6592H189.826C189.538 64.6592 189.406 64.4192 189.406 64.1552C189.406 63.8792 189.538 63.6512 189.826 63.6512H199.066ZM191.374 65.6312C191.686 65.6312 191.974 65.7872 191.974 66.1352V67.7672C191.974 67.9472 192.046 68.0192 192.226 68.0192H197.902C198.19 68.0192 198.322 68.2472 198.322 68.5232C198.322 68.7992 198.19 69.0392 197.902 69.0392H191.686C190.99 69.0392 190.774 68.8232 190.774 68.1392V66.1352C190.774 65.7872 191.062 65.6312 191.374 65.6312ZM203.076 60.8672C204.504 60.8672 205.332 61.6112 205.332 62.7512C205.332 63.8912 204.504 64.6352 203.076 64.6352C201.636 64.6352 200.808 63.8912 200.808 62.7512C200.808 61.6112 201.636 60.8672 203.076 60.8672ZM203.064 58.0232C203.376 58.0232 203.664 58.1792 203.664 58.5152V59.2592H205.356C205.644 59.2592 205.776 59.4992 205.776 59.7752C205.776 60.0392 205.644 60.2792 205.356 60.2792H200.628C200.328 60.2792 200.196 60.0392 200.196 59.7752C200.196 59.4992 200.328 59.2592 200.628 59.2592H202.476V58.5152C202.476 58.1792 202.776 58.0232 203.064 58.0232ZM203.076 61.7912C202.308 61.7912 201.852 62.1632 201.852 62.7512C201.852 63.3392 202.308 63.7112 203.076 63.7112C203.832 63.7112 204.3 63.3392 204.3 62.7512C204.3 62.1632 203.832 61.7912 203.076 61.7912ZM209.16 58.0712C209.448 58.0712 209.724 58.2152 209.724 58.5392V64.2872C209.724 64.6112 209.448 64.7552 209.16 64.7552C208.884 64.7552 208.608 64.6112 208.608 64.2872V61.8992H207.336V64.2392C207.336 64.5512 207.06 64.6952 206.784 64.6952C206.508 64.6952 206.232 64.5512 206.232 64.2392V58.5872C206.232 58.2752 206.508 58.1312 206.784 58.1312C207.06 58.1312 207.336 58.2752 207.336 58.5872V60.9032H208.608V58.5392C208.608 58.2152 208.884 58.0712 209.16 58.0712ZM204.012 65.0672C204.312 65.0672 204.6 65.2232 204.6 65.5592V65.8472C204.6 66.5072 204.684 66.7592 205.128 67.2512C205.32 67.4432 205.536 67.6472 205.728 67.8152C205.932 67.9712 205.992 67.9712 206.196 67.8152C206.376 67.6472 206.604 67.4432 206.796 67.2512C207.24 66.7592 207.324 66.5072 207.324 65.8472V65.5592C207.324 65.2232 207.6 65.0672 207.912 65.0672C208.212 65.0672 208.5 65.2232 208.5 65.5592V65.8472C208.5 66.5192 208.644 66.8312 209.184 67.2992C209.52 67.5752 209.952 67.8992 210.312 68.1512C210.552 68.3072 210.54 68.6192 210.372 68.8472C210.216 69.0512 209.916 69.1472 209.64 68.9552C209.328 68.7392 209.004 68.4992 208.74 68.2832C208.176 67.8272 207.972 67.5752 207.912 67.3352H207.9C207.852 67.5752 207.684 67.7912 207.132 68.3072C206.94 68.4752 206.748 68.6552 206.556 68.7992C206.1 69.1712 205.824 69.1712 205.368 68.7992C205.176 68.6552 204.984 68.4752 204.792 68.3072C204.24 67.7912 204.072 67.5752 204.024 67.3232H204.012C203.94 67.5872 203.748 67.8392 203.184 68.2952C202.92 68.5112 202.596 68.7512 202.272 68.9792C202.008 69.1712 201.708 69.0752 201.552 68.8472C201.384 68.6192 201.372 68.3072 201.612 68.1512C201.972 67.8992 202.404 67.5752 202.74 67.2992C203.28 66.8312 203.424 66.5192 203.424 65.8472V65.5592C203.424 65.2232 203.712 65.0672 204.012 65.0672ZM212.318 58.7792C212.642 58.7792 212.93 58.9352 212.93 59.2952V64.3592C212.93 64.5392 213.002 64.6112 213.182 64.6112C214.718 64.6112 216.05 64.5272 217.346 64.3472C217.622 64.3112 217.802 64.5152 217.826 64.7912C217.862 65.0792 217.754 65.3432 217.49 65.3792C216.374 65.5352 214.946 65.6432 212.642 65.6432C211.946 65.6432 211.718 65.4272 211.718 64.7432V59.2952C211.718 58.9352 212.006 58.7792 212.318 58.7792ZM219.182 58.0712C219.494 58.0712 219.782 58.2272 219.782 58.5752V61.6952H221.102C221.414 61.6952 221.546 61.9232 221.546 62.2112C221.546 62.4992 221.414 62.7392 221.102 62.7392H219.782V67.9352C219.782 68.2832 219.494 68.4392 219.182 68.4392C218.87 68.4392 218.582 68.2832 218.582 67.9352V58.5752C218.582 58.2272 218.87 58.0712 219.182 58.0712ZM227.212 58.4912C229.528 58.4912 230.908 59.5472 230.908 61.3472C230.908 63.1472 229.528 64.2032 227.212 64.2032C224.896 64.2032 223.528 63.1472 223.528 61.3472C223.528 59.5472 224.896 58.4912 227.212 58.4912ZM227.212 59.5112C225.496 59.5112 224.728 60.3032 224.728 61.3472C224.728 62.4032 225.496 63.1832 227.212 63.1832C228.928 63.1832 229.696 62.4032 229.696 61.3472C229.696 60.3032 228.928 59.5112 227.212 59.5112ZM225.364 64.4432C225.676 64.4432 225.964 64.5992 225.964 64.9352V66.3872H228.46V64.9352C228.46 64.5992 228.748 64.4432 229.06 64.4432C229.384 64.4432 229.66 64.5992 229.66 64.9352V66.3872H231.832C232.12 66.3872 232.252 66.6152 232.252 66.8792C232.252 67.1552 232.12 67.3952 231.832 67.3952H222.592C222.304 67.3952 222.172 67.1552 222.172 66.8792C222.172 66.6152 222.304 66.3872 222.592 66.3872H224.764V64.9352C224.764 64.5992 225.04 64.4432 225.364 64.4432ZM235.83 58.6952C237.486 58.6952 238.494 59.5832 238.494 60.8912V61.0112C238.494 61.8152 238.122 62.3432 237.15 63.2192C236.31 63.9872 236.202 64.2632 236.202 64.8152C236.202 65.1152 235.938 65.2832 235.65 65.2832C235.35 65.2832 235.074 65.1392 235.074 64.7912C235.074 63.9752 235.218 63.5312 236.154 62.7032C237.078 61.8872 237.294 61.5512 237.294 61.0232V60.9392C237.294 60.2672 236.802 59.7632 235.806 59.7632C235.086 59.7632 234.582 60.0272 234.138 60.3872C233.898 60.5672 233.622 60.5072 233.43 60.2672C233.25 60.0512 233.25 59.7272 233.49 59.5352C234.03 59.0672 234.834 58.6952 235.83 58.6952ZM235.638 66.2672C236.094 66.2672 236.43 66.6032 236.43 67.0472C236.43 67.4912 236.094 67.8392 235.638 67.8392C235.194 67.8392 234.858 67.4912 234.858 67.0472C234.858 66.6032 235.194 66.2672 235.638 66.2672Z" fill="#07BEB8"/>
<path d="M105.273 85.3633C107.565 85.3633 108.861 86.4553 108.861 88.2073C108.861 89.8513 107.733 90.9073 105.717 91.0393V93.3193H109.965C110.181 93.3193 110.277 93.4873 110.277 93.7033C110.277 93.9073 110.181 94.0753 109.965 94.0753H100.581C100.365 94.0753 100.269 93.9073 100.269 93.7033C100.269 93.4873 100.365 93.3193 100.581 93.3193H104.841V91.0393C102.812 90.9073 101.685 89.8513 101.685 88.2073C101.685 86.4553 102.98 85.3633 105.273 85.3633ZM105.273 86.1073C103.437 86.1073 102.561 87.0073 102.561 88.2073C102.561 89.4073 103.437 90.3073 105.273 90.3073C107.109 90.3073 107.985 89.4073 107.985 88.2073C107.985 87.0073 107.109 86.1073 105.273 86.1073ZM113.086 85.0513C113.314 85.0513 113.518 85.1593 113.518 85.4113V87.5593C113.518 87.7153 113.59 87.7753 113.746 87.7753H119.65C119.854 87.7753 119.95 87.9433 119.95 88.1473C119.95 88.3513 119.854 88.5193 119.65 88.5193H113.47C112.846 88.5193 112.642 88.3273 112.642 87.7153V85.4113C112.642 85.1593 112.846 85.0513 113.086 85.0513ZM120.898 89.6593C121.102 89.6593 121.198 89.8273 121.198 90.0313C121.198 90.2353 121.102 90.4033 120.898 90.4033H111.49C111.286 90.4033 111.19 90.2353 111.19 90.0313C111.19 89.8273 111.286 89.6593 111.49 89.6593H120.898ZM118.93 91.5913C119.554 91.5913 119.758 91.7833 119.758 92.3953V93.2833C119.758 93.8953 119.554 94.0873 118.93 94.0873H113.662C113.53 94.0873 113.47 94.1353 113.47 94.2793V95.0233C113.47 95.1553 113.53 95.2033 113.662 95.2033H119.77C119.962 95.2033 120.046 95.3713 120.046 95.5513C120.046 95.7433 119.962 95.9113 119.77 95.9113H113.446C112.822 95.9113 112.618 95.7193 112.618 95.1073V94.2073C112.618 93.5953 112.822 93.4033 113.446 93.4033H118.714C118.858 93.4033 118.918 93.3553 118.918 93.2233V92.4793C118.918 92.3473 118.858 92.2873 118.714 92.2873H112.882C112.69 92.2873 112.594 92.1313 112.594 91.9393C112.594 91.7593 112.69 91.5913 112.882 91.5913H118.93ZM126.084 85.6513C126.312 85.6513 126.528 85.7593 126.528 86.0113V91.3873C126.528 91.5553 126.588 91.6153 126.756 91.6153C128.484 91.6153 129.912 91.5193 131.34 91.3273C131.532 91.3033 131.664 91.4353 131.7 91.6513C131.724 91.8673 131.64 92.0713 131.448 92.0953C130.2 92.2633 128.712 92.3713 126.468 92.3713C125.844 92.3713 125.64 92.1793 125.64 91.5673V86.0113C125.64 85.7593 125.856 85.6513 126.084 85.6513ZM133.056 84.9193C133.284 84.9193 133.5 85.0273 133.5 85.2793V88.6273H135.024C135.24 88.6273 135.336 88.8073 135.336 89.0113C135.336 89.2273 135.24 89.4073 135.024 89.4073H133.5V94.8313C133.5 95.0833 133.284 95.1913 133.056 95.1913C132.84 95.1913 132.624 95.0833 132.624 94.8313V85.2793C132.624 85.0273 132.84 84.9193 133.056 84.9193ZM143.714 85.1473C144.338 85.1473 144.542 85.3393 144.542 85.9513V86.7073C144.542 87.3193 144.338 87.5113 143.714 87.5113H138.566C138.434 87.5113 138.374 87.5713 138.374 87.7033V88.3393C138.374 88.4713 138.434 88.5193 138.566 88.5193H144.542C144.734 88.5193 144.83 88.6873 144.83 88.8673C144.83 89.0593 144.734 89.2153 144.542 89.2153H138.35C137.726 89.2153 137.522 89.0233 137.522 88.4113V87.6433C137.522 87.0313 137.726 86.8393 138.35 86.8393H143.498C143.642 86.8393 143.702 86.7913 143.702 86.6593V86.0233C143.702 85.8913 143.642 85.8433 143.498 85.8433H137.786C137.594 85.8433 137.498 85.6753 137.498 85.4833C137.498 85.3033 137.594 85.1473 137.786 85.1473H143.714ZM145.754 90.1633C145.946 90.1633 146.042 90.3313 146.042 90.5233C146.042 90.7273 145.946 90.8833 145.754 90.8833H136.322C136.13 90.8833 136.034 90.7273 136.034 90.5233C136.034 90.3313 136.13 90.1633 136.322 90.1633H145.754ZM143.774 91.8313C144.398 91.8313 144.602 92.0233 144.602 92.6353V93.4033C144.602 94.0153 144.398 94.2073 143.774 94.2073H138.506C138.362 94.2073 138.302 94.2553 138.302 94.3993V95.0233C138.302 95.1673 138.362 95.2153 138.506 95.2153H144.614C144.806 95.2153 144.89 95.3833 144.89 95.5633C144.89 95.7433 144.806 95.9113 144.614 95.9113H138.29C137.666 95.9113 137.462 95.7313 137.462 95.1193V94.3393C137.462 93.7273 137.666 93.5353 138.29 93.5353H143.57C143.702 93.5353 143.762 93.4873 143.762 93.3433V92.7193C143.762 92.5873 143.702 92.5273 143.57 92.5273H137.726C137.534 92.5273 137.438 92.3713 137.438 92.1793C137.438 91.9993 137.534 91.8313 137.726 91.8313H143.774ZM153.268 84.7993C153.496 84.7993 153.712 84.9073 153.712 85.1593V86.2153H155.98C156.184 86.2153 156.28 86.3833 156.28 86.5873C156.28 86.8033 156.184 86.9713 155.98 86.9713H153.712V87.5233C153.712 88.3393 153.94 88.7833 154.54 89.2153C155.14 89.6473 155.704 90.0193 156.088 90.2593C156.292 90.3913 156.316 90.6433 156.196 90.8113C156.088 90.9673 155.872 91.0513 155.656 90.9193C155.332 90.7153 154.78 90.3553 154.252 89.9833C153.592 89.5153 153.34 89.1793 153.28 88.9273H153.268C153.22 89.2033 152.944 89.5393 152.296 90.0073C151.732 90.4033 151.192 90.7753 150.688 91.0873C150.484 91.2073 150.268 91.1233 150.16 90.9673C150.04 90.7873 150.04 90.5473 150.256 90.4153C150.844 90.0313 151.396 89.6713 151.996 89.2273C152.596 88.7953 152.824 88.3513 152.824 87.5353V86.9713H150.484C150.28 86.9713 150.184 86.8033 150.184 86.5873C150.184 86.3833 150.28 86.2153 150.484 86.2153H152.824V85.1593C152.824 84.9073 153.052 84.7993 153.268 84.7993ZM157.9 84.9193C158.128 84.9193 158.344 85.0273 158.344 85.2793V87.6433H159.868C160.084 87.6433 160.18 87.8233 160.18 88.0393C160.18 88.2433 160.084 88.4233 159.868 88.4233H158.344V90.9793C158.344 91.2313 158.128 91.3393 157.9 91.3393C157.684 91.3393 157.468 91.2313 157.468 90.9793V85.2793C157.468 85.0273 157.684 84.9193 157.9 84.9193ZM158.332 92.0113C158.524 92.0113 158.62 92.1793 158.62 92.3833C158.62 92.5873 158.524 92.7553 158.332 92.7553H155.44V93.0313C155.44 93.5953 155.656 93.8953 156.484 94.2553C157.288 94.6033 157.936 94.8673 158.608 95.1193C158.788 95.1793 158.848 95.3953 158.764 95.5873C158.68 95.7673 158.524 95.8633 158.32 95.7913C157.672 95.5513 156.952 95.2633 156.364 95.0113C155.44 94.6153 155.08 94.2553 155.02 94.0153H155.008C154.936 94.2673 154.588 94.6273 153.652 95.0233C153.064 95.2753 152.344 95.5633 151.696 95.8033C151.492 95.8753 151.324 95.7793 151.24 95.5873C151.168 95.4073 151.216 95.1793 151.408 95.1193C152.068 94.8673 152.716 94.6153 153.52 94.2553C154.348 93.8833 154.564 93.5953 154.564 93.0313V92.7553H151.672C151.468 92.7553 151.372 92.5873 151.372 92.3833C151.372 92.1793 151.468 92.0113 151.672 92.0113H158.332ZM163.842 85.5673C165.63 85.5673 166.554 86.7913 166.554 89.0713C166.554 91.3513 165.63 92.5753 163.842 92.5753C162.054 92.5753 161.118 91.3513 161.118 89.0713C161.118 86.7913 162.054 85.5673 163.842 85.5673ZM163.842 86.3473C162.546 86.3473 161.982 87.3313 161.982 89.0713C161.982 90.8113 162.546 91.7953 163.842 91.7953C165.138 91.7953 165.702 90.8113 165.702 89.0713C165.702 87.3313 165.138 86.3473 163.842 86.3473ZM168.822 84.9193C169.05 84.9193 169.266 85.0273 169.266 85.2793V88.6273H170.79C171.006 88.6273 171.102 88.8073 171.102 89.0113C171.102 89.2273 171.006 89.4073 170.79 89.4073H169.266V94.8313C169.266 95.0833 169.05 95.1913 168.822 95.1913C168.606 95.1913 168.39 95.0833 168.39 94.8313V85.2793C168.39 85.0273 168.606 84.9193 168.822 84.9193ZM178.424 90.1633C178.604 90.1393 178.736 90.2713 178.748 90.4873C178.76 90.6913 178.676 90.8713 178.484 90.8833C176.372 91.0633 174.308 91.1233 172.1 91.1233C171.884 91.1233 171.788 90.9553 171.788 90.7513C171.788 90.5473 171.884 90.3793 172.1 90.3793C172.988 90.3793 173.876 90.3793 174.8 90.3553V89.1913C173.252 89.0713 172.508 88.2793 172.508 87.2233C172.508 86.0953 173.396 85.2553 175.22 85.2553C177.044 85.2553 177.932 86.0953 177.932 87.2233C177.932 88.2673 177.188 89.0593 175.664 89.1913V90.3313C176.552 90.2953 177.464 90.2473 178.424 90.1633ZM175.064 91.9273C175.292 91.9273 175.496 92.0353 175.496 92.2873V92.7073C175.496 93.4153 175.592 93.6913 176.132 94.2313C176.348 94.4593 176.6 94.7113 176.828 94.9033C176.972 95.0233 177.068 95.0233 177.212 94.9033C177.44 94.7113 177.692 94.4593 177.908 94.2313C178.448 93.6913 178.544 93.4153 178.544 92.7073V92.2873C178.544 92.0353 178.748 91.9273 178.976 91.9273C179.192 91.9273 179.396 92.0353 179.396 92.2873V92.7073C179.396 93.4153 179.54 93.7393 180.152 94.2433C180.56 94.5793 180.992 94.8913 181.352 95.1433C181.52 95.2513 181.532 95.4793 181.412 95.6473C181.28 95.8273 181.076 95.8873 180.872 95.7553C180.524 95.5153 180.164 95.2513 179.816 94.9753C179.264 94.5313 179.036 94.2793 178.976 94.0633H178.964C178.904 94.2793 178.712 94.5073 178.184 94.9993C177.968 95.2033 177.752 95.4073 177.536 95.5873C177.14 95.9233 176.9 95.9233 176.504 95.5873C176.288 95.4073 176.072 95.2033 175.856 94.9993C175.328 94.5073 175.136 94.2793 175.076 94.0633H175.064C175.004 94.2793 174.776 94.5433 174.224 94.9753C173.876 95.2633 173.516 95.5273 173.168 95.7673C172.964 95.8993 172.76 95.8393 172.628 95.6593C172.508 95.4793 172.52 95.2633 172.688 95.1433C173.048 94.8913 173.48 94.5793 173.888 94.2433C174.5 93.7393 174.644 93.4153 174.644 92.7073V92.2873C174.644 92.0353 174.848 91.9273 175.064 91.9273ZM175.22 85.9753C173.924 85.9753 173.348 86.5273 173.348 87.2233C173.348 87.9313 173.924 88.4833 175.22 88.4833C176.516 88.4833 177.092 87.9313 177.092 87.2233C177.092 86.5273 176.516 85.9753 175.22 85.9753ZM179.96 84.9193C180.188 84.9193 180.392 85.0273 180.392 85.2793V87.9193H181.76C181.976 87.9193 182.072 88.0993 182.072 88.3033C182.072 88.5193 181.976 88.6993 181.76 88.6993H180.392V91.2193C180.392 91.4713 180.188 91.5793 179.96 91.5793C179.732 91.5793 179.528 91.4713 179.528 91.2193V85.2793C179.528 85.0273 179.732 84.9193 179.96 84.9193ZM188.11 85.6273C188.326 85.6273 188.422 85.7953 188.422 85.9993C188.422 86.2153 188.326 86.3833 188.11 86.3833H184.498C184.33 86.3833 184.27 86.4433 184.27 86.5993V90.0793C184.27 90.2473 184.33 90.3073 184.498 90.3073C186.262 90.3073 187.69 90.2113 189.118 90.0193C189.31 89.9953 189.442 90.1273 189.478 90.3433C189.502 90.5593 189.418 90.7633 189.226 90.7873C187.978 90.9553 186.49 91.0633 184.222 91.0633C183.598 91.0633 183.394 90.8713 183.394 90.2593V86.4313C183.394 85.8193 183.598 85.6273 184.222 85.6273H188.11ZM191.266 84.9193C191.482 84.9193 191.698 85.0273 191.698 85.2793V92.5993C191.698 92.8513 191.482 92.9593 191.266 92.9593C191.038 92.9593 190.834 92.8513 190.834 92.5993V88.5673H188.098C187.882 88.5673 187.786 88.3993 187.786 88.1833C187.786 87.9793 187.882 87.8113 188.098 87.8113H190.834V85.2793C190.834 85.0273 191.038 84.9193 191.266 84.9193ZM185.29 92.0953C185.518 92.0953 185.734 92.2033 185.734 92.4553V94.7353C185.734 94.8913 185.794 94.9513 185.962 94.9513H191.698C191.914 94.9513 192.01 95.1313 192.01 95.3353C192.01 95.5393 191.914 95.7193 191.698 95.7193H185.674C185.05 95.7193 184.846 95.5273 184.846 94.9153V92.4553C184.846 92.2033 185.062 92.0953 185.29 92.0953Z" fill="#808983"/>
<path d="M82.3521 103.747C82.5681 103.747 82.6641 103.915 82.6641 104.119C82.6641 104.335 82.5681 104.503 82.3521 104.503H78.6441C78.4761 104.503 78.4161 104.563 78.4161 104.731V109.435C78.4161 109.603 78.4761 109.663 78.6441 109.663C80.4081 109.663 81.8361 109.567 83.2641 109.375C83.4561 109.351 83.5881 109.483 83.6241 109.699C83.6481 109.915 83.5641 110.119 83.3721 110.143C82.1241 110.311 80.6361 110.419 78.3681 110.419C77.7441 110.419 77.5401 110.227 77.5401 109.615V104.551C77.5401 103.939 77.7441 103.747 78.3681 103.747H82.3521ZM84.9801 102.919C85.2081 102.919 85.4241 103.027 85.4241 103.279V106.627H86.9481C87.1641 106.627 87.2601 106.807 87.2601 107.011C87.2601 107.227 87.1641 107.407 86.9481 107.407H85.4241V112.831C85.4241 113.083 85.2081 113.191 84.9801 113.191C84.7641 113.191 84.5481 113.083 84.5481 112.831V103.279C84.5481 103.027 84.7641 102.919 84.9801 102.919ZM90.742 102.991C90.97 102.991 91.174 103.099 91.174 103.339V104.503H92.95C93.166 104.503 93.262 104.671 93.262 104.875C93.262 105.091 93.166 105.259 92.95 105.259H91.174V106.339C91.174 107.323 91.39 107.827 91.99 108.499C92.446 109.003 92.89 109.459 93.19 109.747C93.334 109.879 93.31 110.131 93.154 110.275C93.01 110.431 92.794 110.443 92.638 110.299C92.302 109.975 91.93 109.591 91.594 109.231C91.054 108.655 90.814 108.271 90.766 107.947H90.754C90.694 108.283 90.442 108.679 89.902 109.255C89.566 109.615 89.134 110.059 88.654 110.527C88.51 110.659 88.27 110.647 88.126 110.503C87.97 110.335 87.946 110.107 88.078 109.963C88.582 109.483 89.05 109.003 89.494 108.499C90.106 107.827 90.31 107.323 90.31 106.339V105.259H88.378C88.162 105.259 88.066 105.091 88.066 104.875C88.066 104.671 88.162 104.503 88.378 104.503H90.31V103.339C90.31 103.099 90.526 102.991 90.742 102.991ZM96.79 102.919C97.006 102.919 97.21 103.027 97.21 103.267V112.843C97.21 113.083 97.006 113.191 96.79 113.191C96.586 113.191 96.382 113.083 96.382 112.843V107.443H94.786V112.339C94.786 112.579 94.582 112.687 94.366 112.687C94.162 112.687 93.958 112.579 93.958 112.339V103.387C93.958 103.147 94.162 103.039 94.366 103.039C94.582 103.039 94.786 103.147 94.786 103.387V106.687H96.382V103.267C96.382 103.027 96.586 102.919 96.79 102.919ZM106.584 103.567C107.208 103.567 107.412 103.759 107.412 104.371V105.931C107.412 106.543 107.208 106.735 106.584 106.735H101.436C101.268 106.735 101.208 106.795 101.208 106.963V108.223C101.208 108.379 101.268 108.439 101.436 108.439H107.4C107.604 108.439 107.7 108.607 107.7 108.811C107.7 109.015 107.604 109.195 107.4 109.195H104.328V111.319H108.576C108.792 111.319 108.888 111.487 108.888 111.703C108.888 111.907 108.792 112.075 108.576 112.075H99.1918C98.9758 112.075 98.8798 111.907 98.8798 111.703C98.8798 111.487 98.9758 111.319 99.1918 111.319H103.452V109.195H101.172C100.548 109.195 100.344 109.003 100.344 108.391V106.819C100.344 106.207 100.548 106.015 101.172 106.015H106.332C106.488 106.015 106.56 105.955 106.56 105.787V104.539C106.56 104.371 106.488 104.311 106.332 104.311H100.62C100.416 104.311 100.32 104.143 100.32 103.939C100.32 103.735 100.416 103.567 100.62 103.567H106.584ZM114.806 103.195C117.074 103.195 118.358 103.915 118.358 105.331C118.358 106.747 117.074 107.467 114.806 107.467C112.538 107.467 111.254 106.747 111.254 105.331C111.254 103.915 112.538 103.195 114.806 103.195ZM114.806 103.927C112.982 103.927 112.13 104.455 112.13 105.331C112.13 106.207 112.982 106.735 114.806 106.735C116.63 106.735 117.482 106.207 117.482 105.331C117.482 104.455 116.63 103.927 114.806 103.927ZM119.51 108.571C119.714 108.571 119.81 108.739 119.81 108.943C119.81 109.147 119.714 109.315 119.51 109.315H115.358V111.247C115.358 111.487 115.166 111.583 114.926 111.583C114.698 111.583 114.494 111.487 114.494 111.247V109.315H110.102C109.898 109.315 109.802 109.147 109.802 108.943C109.802 108.739 109.898 108.571 110.102 108.571H119.51ZM111.674 110.479C111.902 110.479 112.106 110.587 112.106 110.839V112.795C112.106 112.963 112.178 113.023 112.334 113.023H118.286C118.49 113.023 118.586 113.191 118.586 113.395C118.586 113.599 118.49 113.767 118.286 113.767H112.058C111.434 113.767 111.23 113.575 111.23 112.963V110.839C111.23 110.587 111.434 110.479 111.674 110.479ZM128.152 103.555C128.776 103.555 128.98 103.747 128.98 104.359V105.211C128.98 106.867 128.344 107.311 124.624 109.015C124.444 109.099 124.228 109.015 124.12 108.811C124.024 108.631 124.036 108.379 124.252 108.283C127.72 106.723 128.116 106.387 128.116 105.175V104.539C128.116 104.371 128.056 104.311 127.888 104.311H124.492C124.276 104.311 124.18 104.143 124.18 103.939C124.18 103.723 124.276 103.555 124.492 103.555H128.152ZM131.668 102.919C131.896 102.919 132.112 103.027 132.112 103.279V105.523H133.636C133.852 105.523 133.948 105.703 133.948 105.919C133.948 106.123 133.852 106.303 133.636 106.303H132.112V108.739C132.112 108.991 131.896 109.099 131.668 109.099C131.452 109.099 131.236 108.991 131.236 108.739V103.279C131.236 103.027 131.452 102.919 131.668 102.919ZM131.284 109.711C131.908 109.711 132.112 109.903 132.112 110.515V112.999C132.112 113.611 131.908 113.803 131.284 113.803H126.256C125.632 113.803 125.428 113.611 125.428 112.999V110.515C125.428 109.903 125.632 109.711 126.256 109.711H131.284ZM126.532 110.455C126.364 110.455 126.304 110.515 126.304 110.683V112.831C126.304 112.999 126.364 113.059 126.532 113.059H131.02C131.176 113.059 131.248 112.999 131.248 112.831V110.683C131.248 110.515 131.176 110.455 131.02 110.455H126.532ZM140.693 103.567C140.897 103.567 140.993 103.735 140.993 103.939C140.993 104.155 140.897 104.323 140.693 104.323H138.521V105.175C138.521 106.003 138.749 106.507 139.361 106.999C139.961 107.467 140.525 107.887 140.897 108.151C141.101 108.307 141.113 108.535 140.981 108.703C140.873 108.859 140.657 108.955 140.441 108.799C140.153 108.607 139.601 108.187 139.037 107.755C138.413 107.251 138.149 106.915 138.089 106.663H138.077C138.017 106.927 137.753 107.275 137.117 107.779C136.565 108.223 135.989 108.643 135.521 108.967C135.317 109.111 135.101 109.015 134.981 108.859C134.861 108.691 134.849 108.451 135.065 108.307C135.641 107.899 136.193 107.491 136.793 107.011C137.405 106.519 137.633 106.015 137.633 105.199V104.323H135.389C135.185 104.323 135.089 104.155 135.089 103.939C135.089 103.735 135.185 103.567 135.389 103.567H140.693ZM143.189 102.919C143.405 102.919 143.621 103.027 143.621 103.279V109.123C143.621 109.375 143.405 109.483 143.189 109.483C142.961 109.483 142.757 109.375 142.757 109.123V106.507H140.705C140.501 106.507 140.405 106.339 140.405 106.123C140.405 105.919 140.501 105.739 140.705 105.739H142.757V103.279C142.757 103.027 142.961 102.919 143.189 102.919ZM140.285 109.627C142.469 109.627 143.705 110.395 143.705 111.823C143.705 113.251 142.469 114.019 140.285 114.019C138.101 114.019 136.877 113.251 136.877 111.823C136.877 110.395 138.101 109.627 140.285 109.627ZM140.285 110.347C138.557 110.347 137.741 110.911 137.741 111.823C137.741 112.735 138.557 113.299 140.285 113.299C142.025 113.299 142.841 112.735 142.841 111.823C142.841 110.911 142.025 110.347 140.285 110.347ZM150.571 103.051C152.839 103.051 154.123 103.651 154.123 104.923C154.123 106.183 152.839 106.783 150.571 106.783C148.303 106.783 147.019 106.183 147.019 104.923C147.019 103.651 148.303 103.051 150.571 103.051ZM150.571 103.771C148.747 103.771 147.895 104.167 147.895 104.923C147.895 105.667 148.747 106.075 150.571 106.075C152.395 106.075 153.247 105.667 153.247 104.923C153.247 104.167 152.395 103.771 150.571 103.771ZM155.275 107.719C155.479 107.719 155.575 107.887 155.575 108.091C155.575 108.295 155.479 108.463 155.275 108.463H145.867C145.663 108.463 145.567 108.295 145.567 108.091C145.567 107.887 145.663 107.719 145.867 107.719H155.275ZM153.307 109.591C153.931 109.591 154.135 109.783 154.135 110.395V111.283C154.135 111.895 153.931 112.087 153.307 112.087H148.039C147.907 112.087 147.847 112.135 147.847 112.279V113.023C147.847 113.155 147.907 113.203 148.039 113.203H154.147C154.339 113.203 154.423 113.371 154.423 113.551C154.423 113.743 154.339 113.911 154.147 113.911H147.823C147.199 113.911 146.995 113.719 146.995 113.107V112.207C146.995 111.595 147.199 111.403 147.823 111.403H153.091C153.235 111.403 153.295 111.355 153.295 111.223V110.479C153.295 110.347 153.235 110.287 153.091 110.287H147.259C147.067 110.287 146.971 110.131 146.971 109.939C146.971 109.759 147.067 109.591 147.259 109.591H153.307ZM167.721 103.195C167.925 103.195 168.021 103.351 168.021 103.555C168.021 103.759 167.925 103.927 167.721 103.927H162.045C161.877 103.927 161.817 103.975 161.817 104.143V105.667C161.817 105.835 161.877 105.883 162.045 105.883H167.841C168.045 105.883 168.141 106.051 168.141 106.255C168.141 106.459 168.045 106.615 167.841 106.615H161.769C161.145 106.615 160.941 106.423 160.941 105.811V103.999C160.941 103.387 161.145 103.195 161.769 103.195H167.721ZM169.197 107.719C169.401 107.719 169.497 107.887 169.497 108.091C169.497 108.295 169.401 108.463 169.197 108.463H159.789C159.585 108.463 159.489 108.295 159.489 108.091C159.489 107.887 159.585 107.719 159.789 107.719H169.197ZM167.229 109.591C167.853 109.591 168.057 109.783 168.057 110.395V111.283C168.057 111.895 167.853 112.087 167.229 112.087H161.961C161.829 112.087 161.769 112.135 161.769 112.279V113.023C161.769 113.155 161.829 113.203 161.961 113.203H168.069C168.261 113.203 168.345 113.371 168.345 113.551C168.345 113.743 168.261 113.911 168.069 113.911H161.745C161.121 113.911 160.917 113.719 160.917 113.107V112.207C160.917 111.595 161.121 111.403 161.745 111.403H167.013C167.157 111.403 167.217 111.355 167.217 111.223V110.479C167.217 110.347 167.157 110.287 167.013 110.287H161.181C160.989 110.287 160.893 110.131 160.893 109.939C160.893 109.759 160.989 109.591 161.181 109.591H167.229ZM173.483 103.567C175.235 103.567 176.135 104.791 176.135 107.071C176.135 109.351 175.235 110.575 173.483 110.575C171.731 110.575 170.819 109.351 170.819 107.071C170.819 104.791 171.731 103.567 173.483 103.567ZM173.483 104.347C172.223 104.347 171.683 105.331 171.683 107.071C171.683 108.811 172.223 109.795 173.483 109.795C174.743 109.795 175.283 108.811 175.283 107.071C175.283 105.331 174.743 104.347 173.483 104.347ZM178.955 102.919C179.171 102.919 179.387 103.027 179.387 103.279V112.831C179.387 113.083 179.171 113.191 178.955 113.191C178.739 113.191 178.523 113.083 178.523 112.831V108.763H176.843C176.627 108.763 176.543 108.595 176.543 108.391C176.543 108.187 176.627 108.007 176.843 108.007H178.523V106.135H176.843C176.627 106.135 176.543 105.955 176.543 105.751C176.543 105.547 176.627 105.379 176.843 105.379H178.523V103.279C178.523 103.027 178.739 102.919 178.955 102.919ZM186.649 103.747C186.865 103.747 186.961 103.915 186.961 104.119C186.961 104.335 186.865 104.503 186.649 104.503H182.941C182.773 104.503 182.713 104.563 182.713 104.731V109.435C182.713 109.603 182.773 109.663 182.941 109.663C184.705 109.663 186.133 109.567 187.561 109.375C187.753 109.351 187.885 109.483 187.921 109.699C187.945 109.915 187.861 110.119 187.669 110.143C186.421 110.311 184.933 110.419 182.665 110.419C182.041 110.419 181.837 110.227 181.837 109.615V104.551C181.837 103.939 182.041 103.747 182.665 103.747H186.649ZM189.277 102.919C189.505 102.919 189.721 103.027 189.721 103.279V106.627H191.245C191.461 106.627 191.557 106.807 191.557 107.011C191.557 107.227 191.461 107.407 191.245 107.407H189.721V112.831C189.721 113.083 189.505 113.191 189.277 113.191C189.061 113.191 188.845 113.083 188.845 112.831V103.279C188.845 103.027 189.061 102.919 189.277 102.919ZM198.879 110.335C199.059 110.311 199.191 110.455 199.203 110.659C199.215 110.875 199.131 111.055 198.939 111.067C196.827 111.247 194.763 111.307 192.555 111.307C192.339 111.307 192.243 111.139 192.243 110.935C192.243 110.731 192.339 110.551 192.555 110.551C193.431 110.551 194.307 110.551 195.207 110.539V108.427H193.791C193.167 108.427 192.963 108.235 192.963 107.623V103.939C192.963 103.699 193.179 103.591 193.383 103.591C193.611 103.591 193.827 103.699 193.827 103.939V105.331H197.439V103.939C197.439 103.699 197.655 103.591 197.859 103.591C198.087 103.591 198.303 103.699 198.303 103.939V107.623C198.303 108.235 198.099 108.427 197.475 108.427H196.071V110.503C196.971 110.479 197.895 110.431 198.879 110.335ZM200.415 102.919C200.643 102.919 200.847 103.027 200.847 103.279V106.987H202.215C202.431 106.987 202.527 107.167 202.527 107.371C202.527 107.587 202.431 107.767 202.215 107.767H200.847V112.831C200.847 113.083 200.643 113.191 200.415 113.191C200.187 113.191 199.983 113.083 199.983 112.831V103.279C199.983 103.027 200.187 102.919 200.415 102.919ZM193.827 107.479C193.827 107.623 193.887 107.683 194.031 107.683H197.223C197.379 107.683 197.439 107.623 197.439 107.479V106.063H193.827V107.479ZM208.181 103.363C210.473 103.363 211.769 104.419 211.769 106.147C211.769 107.875 210.473 108.931 208.181 108.931C205.889 108.931 204.593 107.875 204.593 106.147C204.593 104.419 205.889 103.363 208.181 103.363ZM208.181 104.107C206.345 104.107 205.469 104.971 205.469 106.147C205.469 107.311 206.345 108.175 208.181 108.175C210.017 108.175 210.893 107.311 210.893 106.147C210.893 104.971 210.017 104.107 208.181 104.107ZM206.273 109.207C206.513 109.207 206.717 109.315 206.717 109.567V111.331H209.645V109.567C209.645 109.315 209.849 109.207 210.077 109.207C210.305 109.207 210.521 109.315 210.521 109.567V111.331H212.885C213.089 111.331 213.185 111.499 213.185 111.703C213.185 111.907 213.089 112.075 212.885 112.075H203.477C203.273 112.075 203.177 111.907 203.177 111.703C203.177 111.499 203.273 111.331 203.477 111.331H205.841V109.567C205.841 109.315 206.057 109.207 206.273 109.207ZM215.023 111.163C215.419 111.163 215.707 111.463 215.707 111.847C215.707 112.219 215.419 112.519 215.023 112.519C214.639 112.519 214.339 112.219 214.339 111.847C214.339 111.463 214.639 111.163 215.023 111.163Z" fill="#808983"/>
</g>
<g filter="url(#filter1_d_4352_43271)">
<rect x="124.501" y="168.201" width="44" height="44" rx="16" fill="#FFFDFA"/>
<path d="M138.344 203.132C146.295 203.173 150.059 200.546 148.481 198.886C146.902 197.226 137.096 193.88 136.898 191.438C136.614 187.94 146.653 183.248 158.087 182.586" stroke="url(#paint0_linear_4352_43271)" stroke-opacity="0.5" stroke-width="1.44" stroke-linecap="round"/>
<path d="M135.918 180.583C135.948 180.526 136.029 180.526 136.06 180.583L136.372 181.153C136.38 181.167 136.391 181.178 136.404 181.186L136.975 181.498C137.031 181.528 137.031 181.609 136.975 181.64L136.404 181.952C136.391 181.959 136.38 181.971 136.372 181.984L136.06 182.555C136.029 182.611 135.948 182.611 135.918 182.555L135.606 181.984C135.598 181.971 135.587 181.959 135.573 181.952L135.003 181.64C134.946 181.609 134.946 181.528 135.003 181.498L135.573 181.186C135.587 181.178 135.598 181.167 135.606 181.153L135.918 180.583Z" fill="#07BEB8"/>
<path d="M153.435 184.319C153.024 184.611 152.548 184.799 152.049 184.868C151.5 184.964 150.945 184.96 150.337 184.964C150.137 184.964 149.946 185.044 149.805 185.185C149.664 185.326 149.584 185.517 149.584 185.717C149.584 185.916 149.664 186.107 149.805 186.248C149.946 186.389 150.137 186.469 150.337 186.469H150.455C151.071 186.481 151.687 186.442 152.296 186.351C153.111 186.215 153.802 185.932 154.35 185.511C155.058 184.966 155.493 184.185 155.51 183.423C155.517 183.101 155.446 182.782 155.303 182.493C154.87 182.772 154.435 183.048 153.997 183.322C154.001 183.344 154.004 183.365 154.006 183.387C154.001 183.691 153.776 184.057 153.435 184.319Z" fill="#07BEB8"/>
<path d="M156.374 193.543C156.388 193.509 156.436 193.509 156.45 193.543L156.813 194.464C156.817 194.475 156.825 194.483 156.836 194.487L157.756 194.85C157.791 194.864 157.791 194.912 157.756 194.926L156.836 195.289C156.825 195.293 156.817 195.301 156.813 195.311L156.45 196.232C156.436 196.266 156.388 196.266 156.374 196.232L156.011 195.311C156.007 195.301 155.999 195.293 155.988 195.289L155.068 194.926C155.034 194.912 155.034 194.864 155.068 194.85L155.988 194.487C155.999 194.483 156.007 194.475 156.011 194.464L156.374 193.543Z" fill="#07BEB8"/>
<path d="M146.787 190.799C148.379 190.722 149.938 190.322 151.366 189.625C152.116 189.249 152.878 188.797 153.223 187.802C153.335 187.464 153.355 187.103 153.282 186.755C152.79 186.856 152.296 186.953 151.802 187.046C151.822 187.136 151.819 187.231 151.793 187.32C151.642 187.752 151.31 187.981 150.679 188.298C149.441 188.897 148.092 189.241 146.715 189.312C146.191 189.336 145.666 189.329 145.143 189.291C145.219 189.02 145.295 188.75 145.373 188.478C145.512 187.986 145.654 187.489 145.794 186.983C146.392 184.813 147.681 183.18 149.963 181.686C151.489 180.688 152.974 179.679 154.391 178.319C154.638 178.082 154.813 177.999 154.886 177.979C154.949 178.124 154.978 178.28 154.971 178.437C154.966 180.178 153.527 181.724 151.692 181.957C151.594 181.969 151.499 182.001 151.413 182.049C151.327 182.098 151.251 182.163 151.191 182.24C151.13 182.318 151.085 182.406 151.06 182.501C151.034 182.595 151.027 182.693 151.039 182.79C151.052 182.887 151.084 182.981 151.133 183.066C151.183 183.15 151.249 183.225 151.327 183.284C151.406 183.344 151.496 183.388 151.591 183.414C151.687 183.439 151.787 183.446 151.886 183.433C154.458 183.108 156.478 180.916 156.485 178.442C156.485 177.395 155.966 176.634 155.157 176.505C154.578 176.41 153.943 176.67 153.337 177.254C152.011 178.523 150.589 179.488 149.13 180.445C146.553 182.13 145.029 184.081 144.332 186.585C144.192 187.088 144.051 187.583 143.913 188.072C143.816 188.414 143.719 188.752 143.623 189.09C142.374 188.856 141.221 188.454 140.338 187.909C140.169 187.809 139.965 187.778 139.773 187.824C139.58 187.869 139.413 187.987 139.308 188.153C139.203 188.318 139.168 188.517 139.21 188.708C139.253 188.899 139.37 189.065 139.536 189.172C141.232 190.218 143.624 190.813 146.051 190.813C146.296 190.818 146.542 190.812 146.787 190.799Z" fill="#07BEB8"/>
<path d="M144.431 191.227L143.355 191.108C143.173 191.088 143.005 191.213 142.974 191.394C142.158 196.167 143.353 199.392 143.484 199.802C143.618 200.221 144.127 200.088 144.322 200.568C144.709 201.52 145.141 202.124 145.424 202.052C145.706 201.98 145.144 201.409 145.064 200.257C145.033 199.801 145.469 199.721 145.349 199.281C144.858 197.488 144.308 195.218 144.743 191.624C144.767 191.428 144.627 191.248 144.431 191.227Z" fill="#07BEB8"/>
</g>
<path d="M116.615 163.688L120.943 168.016" stroke="#808983" stroke-width="2.43508" stroke-linecap="round"/>
<path d="M127.867 166.285V161.092" stroke="#808983" stroke-width="2.43508" stroke-linecap="round"/>
<path d="M119.212 174.94H114.019" stroke="#808983" stroke-width="2.43508" stroke-linecap="round"/>
<path d="M163.047 221.949L176.581 221.231C177.022 221.105 177.995 220.77 178.358 220.437C178.721 220.105 180.979 216.922 182.063 215.372C182.075 215.082 181.866 213.882 180.929 211.402C179.757 208.302 176.808 205.996 175.069 205.92C173.678 205.86 170.029 208.315 168.378 209.549L164.635 205.467C164.068 205.151 162.662 204.771 161.573 205.769C160.484 206.767 160.741 208.201 161.006 208.793L167.659 216.052L163.198 218.471L163.047 221.949Z" fill="#FFFDFA"/>
<path d="M162.686 206.697C162.445 206.917 162.302 207.224 162.288 207.55C162.274 207.876 162.39 208.195 162.61 208.436L169.264 215.694C169.408 215.851 169.509 216.043 169.556 216.251C169.604 216.459 169.597 216.675 169.536 216.88C169.475 217.084 169.361 217.269 169.207 217.416C169.053 217.563 168.863 217.668 168.656 217.72L165.732 218.457C165.455 218.527 165.195 218.655 164.971 218.833C164.747 219.01 164.564 219.234 164.433 219.488C164.302 219.742 164.227 220.021 164.212 220.307C164.198 220.593 164.244 220.878 164.349 221.144L171.212 220.126C173.209 219.631 175.127 219.726 176.426 219.905C177.079 219.994 177.657 219.768 177.964 219.386L180.933 215.703C181.085 215.514 181.178 215.284 181.2 215.042C181.222 214.799 181.171 214.556 181.055 214.343L178.369 209.398C178.124 208.946 177.787 208.551 177.38 208.237C176.973 207.923 176.505 207.697 176.006 207.574C175.507 207.452 174.988 207.435 174.481 207.524C173.975 207.614 173.493 207.808 173.067 208.094L169.344 210.591C169.1 210.754 168.805 210.825 168.514 210.79C168.222 210.755 167.952 210.616 167.753 210.4L164.427 206.771C164.206 206.53 163.899 206.387 163.573 206.373C163.247 206.358 162.927 206.476 162.686 206.697ZM160.797 210.097C160.136 209.375 159.788 208.42 159.83 207.442C159.873 206.463 160.302 205.542 161.024 204.88C161.746 204.219 162.702 203.871 163.68 203.913C164.658 203.956 165.58 204.385 166.241 205.107L168.853 207.956L171.697 206.05C172.408 205.573 173.211 205.249 174.055 205.1C174.898 204.951 175.763 204.98 176.595 205.184C177.427 205.389 178.207 205.764 178.885 206.287C179.563 206.811 180.125 207.47 180.534 208.222L183.219 213.167C183.567 213.807 183.718 214.536 183.652 215.262C183.586 215.987 183.307 216.678 182.85 217.245L179.885 220.932C178.933 222.108 177.429 222.525 176.095 222.342C174.961 222.186 173.361 222.117 171.758 222.524C171.718 222.534 171.677 222.542 171.636 222.549L164.406 223.623C163.998 223.683 163.581 223.618 163.211 223.437C162.84 223.255 162.533 222.966 162.33 222.607C161.991 222.008 161.794 221.338 161.756 220.65C161.718 219.962 161.839 219.275 162.11 218.642C162.382 218.009 162.795 217.447 163.32 217C163.844 216.553 164.464 216.233 165.132 216.065L166.057 215.835L160.797 210.097Z" fill="#808983"/>
<g filter="url(#filter2_d_4352_43271)">
<path fill-rule="evenodd" clip-rule="evenodd" d="M147.463 13.0048C153.97 13.0894 161.205 14.7101 163.225 20.6622C165.25 26.6319 160.454 32.1125 155.219 35.862C149.724 39.7977 142.743 43.0425 137.007 39.4399C130.512 35.3613 127.575 27.2091 130.334 20.2345C132.786 14.0354 140.571 12.9152 147.463 13.0048Z" fill="url(#paint1_linear_4352_43271)"/>
</g>
<defs>
<filter id="filter0_d_4352_43271" x="0.5" y="13.0071" width="292" height="145.6" filterUnits="userSpaceOnUse" color-interpolation-filters="sRGB">
<feFlood flood-opacity="0" result="BackgroundImageFix"/>
<feColorMatrix in="SourceAlpha" type="matrix" values="0 0 0 0 0 0 0 0 0 0 0 0 0 0 0 0 0 0 127 0" result="hardAlpha"/>
<feOffset dy="3.2"/>
<feGaussianBlur stdDeviation="8"/>
<feComposite in2="hardAlpha" operator="out"/>
<feColorMatrix type="matrix" values="0 0 0 0 0 0 0 0 0 0 0 0 0 0 0 0 0 0 0.08 0"/>
<feBlend mode="normal" in2="BackgroundImageFix" result="effect1_dropShadow_4352_43271"/>
<feBlend mode="normal" in="SourceGraphic" in2="effect1_dropShadow_4352_43271" result="shape"/>
</filter>
<filter id="filter1_d_4352_43271" x="111.701" y="158.601" width="69.6" height="69.6" filterUnits="userSpaceOnUse" color-interpolation-filters="sRGB">
<feFlood flood-opacity="0" result="BackgroundImageFix"/>
<feColorMatrix in="SourceAlpha" type="matrix" values="0 0 0 0 0 0 0 0 0 0 0 0 0 0 0 0 0 0 127 0" result="hardAlpha"/>
<feOffset dy="3.2"/>
<feGaussianBlur stdDeviation="6.4"/>
<feComposite in2="hardAlpha" operator="out"/>
<feColorMatrix type="matrix" values="0 0 0 0 0 0 0 0 0 0 0 0 0 0 0 0 0 0 0.08 0"/>
<feBlend mode="normal" in2="BackgroundImageFix" result="effect1_dropShadow_4352_43271"/>
<feBlend mode="normal" in="SourceGraphic" in2="effect1_dropShadow_4352_43271" result="shape"/>
</filter>
<filter id="filter2_d_4352_43271" x="113.299" y="0.200001" width="66.4" height="60" filterUnits="userSpaceOnUse" color-interpolation-filters="sRGB">
<feFlood flood-opacity="0" result="BackgroundImageFix"/>
<feColorMatrix in="SourceAlpha" type="matrix" values="0 0 0 0 0 0 0 0 0 0 0 0 0 0 0 0 0 0 127 0" result="hardAlpha"/>
<feOffset dy="3.2"/>
<feGaussianBlur stdDeviation="8"/>
<feComposite in2="hardAlpha" operator="out"/>
<feColorMatrix type="matrix" values="0 0 0 0 0.679896 0 0 0 0 0.891667 0 0 0 0 0.823153 0 0 0 0.9 0"/>
<feBlend mode="normal" in2="BackgroundImageFix" result="effect1_dropShadow_4352_43271"/>
<feBlend mode="normal" in="SourceGraphic" in2="effect1_dropShadow_4352_43271" result="shape"/>
</filter>
<linearGradient id="paint0_linear_4352_43271" x1="138.581" y1="203.246" x2="151.318" y2="179.928" gradientUnits="userSpaceOnUse">
<stop stop-color="#07BEB8"/>
<stop offset="0.0001" stop-color="#07BEB8" stop-opacity="0.765716"/>
<stop offset="1" stop-color="#E8E8E8" stop-opacity="0.3"/>
</linearGradient>
<linearGradient id="paint1_linear_4352_43271" x1="137.073" y1="34.6494" x2="168.867" y2="9.18115" gradientUnits="userSpaceOnUse">
<stop stop-color="#B0F5CA"/>
<stop offset="1" stop-color="#8FD3F4"/>
</linearGradient>
</defs>
</svg>
