<svg width="57" height="56" viewBox="0 0 57 56" fill="none" xmlns="http://www.w3.org/2000/svg">
<path d="M27.9346 11.3419C35.2959 11.5848 39.7921 16.065 42.6736 21.2068C43.0936 21.9513 43.4711 22.7183 43.8124 23.498C43.9929 23.9135 44.1701 24.3289 44.3408 24.7507C46.4313 29.8797 47.8327 35.5263 45.8176 41.0132C42.5849 49.8139 33.6516 50.9547 23.4778 50.3603C21.6976 50.259 19.9416 49.9103 18.2628 49.3249C16.7002 48.7941 15.2411 48.0097 13.9471 47.0049C10.0515 43.8892 8.50903 39.5432 8.46308 35.4336C8.40729 30.2535 10.0843 26.7703 12.5031 22.2102C14.5083 18.4202 18.4827 14.2052 22.9789 12.3294C24.5353 11.6468 26.2279 11.3095 27.9346 11.3419Z" fill="white"/>
<path d="M37.5596 14.8858C38.6183 15.7579 39.5778 16.7382 40.4214 17.8098C41.2647 18.8818 42.0186 20.0178 42.6761 21.2067C43.0962 21.9513 43.4736 22.7182 43.8149 23.498C43.9954 23.9134 44.1726 24.3288 44.3433 24.7507C46.4338 29.8796 47.8352 35.5263 45.8201 41.0131C42.5875 49.8138 29.5879 52.1754 19.0005 49.5646" stroke="#868686" stroke-width="1.3" stroke-linecap="round" stroke-linejoin="round"/>
<path d="M25.1786 11.572C26.0179 11.3938 26.8765 11.3165 27.7352 11.3419C30.1966 11.3964 32.6094 12.0196 34.7748 13.1602" stroke="#868686" stroke-width="1.3" stroke-linecap="round" stroke-linejoin="round"/>
<path d="M13.7444 47.005C6.48818 41.2018 7.58105 31.1867 11.3454 23.8272C13.6 19.4141 17.0066 15.2502 21.5915 12.8823" stroke="#868686" stroke-width="1.3" stroke-linecap="round" stroke-linejoin="round"/>
<path d="M30.8672 30.0837C30.6155 29.5258 30.2082 29.0524 29.6941 28.7203C29.1799 28.3881 28.5809 28.2115 27.9688 28.2115C27.3567 28.2115 26.7577 28.3881 26.2435 28.7203C25.7294 29.0524 25.322 29.5258 25.0704 30.0837C25.5337 31.3332 26.6682 32.7904 27.9688 32.7904C29.2694 32.7904 30.4038 31.3332 30.8672 30.0837Z" fill="#FFAFA7"/>
<path d="M29.6836 13.1188C30.2692 12.4118 30.6847 11.5798 30.8979 10.6869C31.3357 8.89096 30.949 7.13976 30.0159 6.0213C28.6706 6.58373 27.5201 7.95145 27.0823 9.75377C26.6445 11.5561 27.028 13.3009 27.9611 14.4162" fill="#FFF8F2"/>
<path d="M29.6836 13.1188C30.2692 12.4118 30.6847 11.5798 30.8979 10.6869C31.3357 8.89096 30.949 7.13976 30.0159 6.0213C28.6706 6.58373 27.5201 7.95145 27.0823 9.75377C26.6445 11.5561 27.028 13.3009 27.9611 14.4162" stroke="#868686" stroke-width="1.3" stroke-linecap="round" stroke-linejoin="round"/>
<path d="M22.8243 25.0667L25.1667 26.035L22.8243 27.163" stroke="#868686" stroke-width="1.3" stroke-linecap="round" stroke-linejoin="round"/>
<path d="M33.1132 25.0667L30.7676 26.035L33.1132 27.163" stroke="#868686" stroke-width="1.3" stroke-linecap="round" stroke-linejoin="round"/>
<path d="M16.3029 4.42676L16.1207 4.36923L15.945 4.3181C15.4433 4.17127 14.9038 4.229 14.4445 4.4787C13.9853 4.7284 13.6435 5.14975 13.494 5.65067L13.4428 5.82643L13.4141 5.91911L13.3214 5.89354L13.1456 5.83921C12.6431 5.69132 12.1024 5.74848 11.6418 5.99821C11.1813 6.24794 10.8384 6.6699 10.6882 7.17178L10.6371 7.35074L10.5827 7.52969C10.4369 8.03098 10.4951 8.56961 10.7447 9.02815C10.9943 9.48669 11.4151 9.82795 11.9153 9.97753L12.0943 10.0287L12.1869 10.0574L16.3412 11.2781L16.8429 9.57808L17.562 7.14302L17.5875 7.05035L17.6419 6.8714C17.7865 6.36969 17.7269 5.83114 17.4761 5.37318C17.2253 4.91523 16.8035 4.57502 16.3029 4.42676Z" fill="#FFE1FE" stroke="#868686" stroke-width="1.3" stroke-linecap="round" stroke-linejoin="round"/>
<path d="M44.5142 15.6945L48.8009 16.1563L48.8966 16.1649C49.4657 16.2247 50.0353 16.0567 50.4807 15.6976C50.9262 15.3385 51.2113 14.8175 51.2735 14.2487C51.3344 13.6803 51.1672 13.111 50.8086 12.6658C50.45 12.2207 49.9294 11.936 49.3611 11.8744L49.2648 11.8627L49.2733 11.767C49.3334 11.1987 49.1658 10.6299 48.8074 10.1849C48.449 9.73991 47.9289 9.45505 47.3609 9.39267C46.7927 9.33264 46.2238 9.50017 45.7788 9.85859C45.3338 10.217 45.049 10.7371 44.9866 11.3051L44.9749 11.4014L44.5165 15.707" fill="#FFE1FE"/>
<path d="M44.5142 15.6945L48.8009 16.1563L48.8966 16.1649C49.4657 16.2247 50.0353 16.0567 50.4807 15.6976C50.9262 15.3385 51.2113 14.8175 51.2735 14.2487C51.3344 13.6803 51.1672 13.111 50.8086 12.6658C50.45 12.2207 49.9294 11.936 49.3611 11.8744L49.2648 11.8627L49.2733 11.767C49.3334 11.1987 49.1658 10.6299 48.8074 10.1849C48.449 9.73991 47.9289 9.45505 47.3609 9.39267C46.7927 9.33264 46.2238 9.50017 45.7788 9.85859C45.3338 10.217 45.049 10.7371 44.9866 11.3051L44.9749 11.4014L44.5165 15.707" stroke="#868686" stroke-width="1.3" stroke-linecap="round" stroke-linejoin="round"/>
<path d="M20.1753 32.5604C21.7531 32.5604 23.0322 31.855 23.0322 30.9849C23.0322 30.1148 21.7531 29.4095 20.1753 29.4095C18.5975 29.4095 17.3184 30.1148 17.3184 30.9849C17.3184 31.855 18.5975 32.5604 20.1753 32.5604Z" fill="#FFD1F6"/>
<path d="M35.7554 32.5604C37.3332 32.5604 38.6123 31.855 38.6123 30.9849C38.6123 30.1148 37.3332 29.4095 35.7554 29.4095C34.1776 29.4095 32.8985 30.1148 32.8985 30.9849C32.8985 31.855 34.1776 32.5604 35.7554 32.5604Z" fill="#FFD1F6"/>
<path d="M16.2043 30.2567C16.4215 30.8338 16.4865 31.4571 16.3931 32.0666C16.2996 32.6761 16.0508 33.2512 15.6706 33.7367C15.5175 33.9342 15.4152 34.1663 15.3728 34.4126C15.3305 34.6589 15.3493 34.9119 15.4278 35.1492C15.5946 35.668 15.6407 36.2182 15.5627 36.7576C15.4846 37.297 15.2843 37.8114 14.9772 38.2617C14.1879 39.5112 10.2221 39.671 10.0463 38.2042C9.69483 35.2834 9.37208 31.6692 10.2605 29.8445C10.89 28.5375 15.7633 28.873 16.2043 30.2567Z" fill="#FFFCBB"/>
<path d="M15.551 36.3477C15.9057 37.9455 13.1894 40.8439 8.63249 42.3522C8.32277 42.4733 7.98997 42.5237 7.65829 42.5C7.32661 42.4762 7.00441 42.3788 6.71512 42.2148C6.04724 41.793 5.73727 40.9813 5.57429 40.2399C5.04062 37.8176 5.54553 35.4944 6.79501 33.3853C7.75369 31.7875 9.24285 30.2952 10.2047 28.7581C10.7576 27.8761 11.2689 26.9781 11.729 26.0706C11.8357 25.8488 12.0016 25.6608 12.2084 25.5273C12.4621 25.3559 12.7697 25.283 13.0734 25.3224C13.377 25.3618 13.6558 25.5109 13.8573 25.7414C14.3532 26.2668 14.663 26.9404 14.7393 27.6588C14.9374 29.4547 14.3143 31.1196 11.7802 32.3627" fill="#FFFCBB"/>
<path d="M15.551 36.3477C15.9057 37.9455 13.1894 40.8439 8.63249 42.3522C8.32277 42.4733 7.98997 42.5237 7.65829 42.5C7.32661 42.4762 7.00441 42.3788 6.71512 42.2148C6.04724 41.793 5.73727 40.9813 5.57429 40.2399C5.04062 37.8176 5.54553 35.4944 6.79501 33.3853C7.75369 31.7875 9.24285 30.2952 10.2047 28.7581C10.7576 27.8761 11.2689 26.9781 11.729 26.0706C11.8357 25.8488 12.0016 25.6608 12.2084 25.5273C12.4621 25.3559 12.7697 25.283 13.0734 25.3224C13.377 25.3618 13.6558 25.5109 13.8573 25.7414C14.3532 26.2668 14.663 26.9404 14.7393 27.6588C14.9374 29.4547 14.3143 31.1196 11.7802 32.3627" stroke="#868686" stroke-width="1.3" stroke-linecap="round" stroke-linejoin="round"/>
<path d="M16.1994 31.2795C16.3525 31.7901 16.3459 32.3354 16.1803 32.8421C15.7361 34.1651 13.9242 35.4913 11.9141 35.9195" fill="#FFFCBB"/>
<path d="M16.1994 31.2795C16.3525 31.7901 16.3459 32.3354 16.1803 32.8421C15.7361 34.1651 13.9242 35.4913 11.9141 35.9195" stroke="#868686" stroke-width="1.3" stroke-linecap="round" stroke-linejoin="round"/>
<path d="M37.8303 29.6816C37.5589 30.2351 37.4343 30.8491 37.4685 31.4646C37.5026 32.0801 37.6943 32.6766 38.0252 33.1967C38.1587 33.4079 38.2382 33.6486 38.2566 33.8978C38.275 34.1469 38.2317 34.3967 38.1307 34.6252C37.9153 35.1264 37.8172 35.6702 37.8438 36.2151C37.8704 36.7601 38.0209 37.2917 38.284 37.7697C38.9519 39.0862 43.1094 38.9488 43.4258 37.5076C44.0649 34.6316 42.9912 31.6533 42.2818 29.7487C41.78 28.4033 38.4055 28.3554 37.8303 29.6816Z" fill="#FFFCBB"/>
<path d="M37.8277 35.8907C37.3228 37.4374 39.7451 40.5947 44.1359 42.5376C44.4344 42.6902 44.7635 42.7738 45.0987 42.7821C45.4339 42.7904 45.7667 42.7232 46.0724 42.5855C46.7754 42.2276 47.1621 41.4511 47.3954 40.7289C48.1591 38.3705 47.8843 36.009 46.8425 33.7912C46.0436 32.0944 44.7079 30.4774 43.8962 28.854C43.4211 27.9145 42.9961 26.9739 42.6211 26.0323C42.5324 25.7987 42.3809 25.5941 42.1833 25.4411C41.9468 25.2458 41.6472 25.1436 41.3406 25.1536C41.0341 25.1636 40.7417 25.2851 40.5184 25.4954C39.9781 25.9669 39.6066 26.602 39.4607 27.3041C39.0868 29.0713 39.547 30.7873 41.9501 32.2669" fill="#FFFCBB"/>
<path d="M37.8277 35.8907C37.3228 37.4374 39.7451 40.5947 44.1359 42.5376C44.4344 42.6902 44.7635 42.7738 45.0987 42.7821C45.4339 42.7904 45.7667 42.7232 46.0724 42.5855C46.7754 42.2276 47.1621 41.4511 47.3954 40.7289C48.1591 38.3705 47.8843 36.009 46.8425 33.7912C46.0436 32.0944 44.7079 30.4774 43.8962 28.854C43.4211 27.9145 42.9961 26.9739 42.6211 26.0323C42.5324 25.7987 42.3809 25.5941 42.1833 25.4411C41.9468 25.2458 41.6472 25.1436 41.3406 25.1536C41.0341 25.1636 40.7417 25.2851 40.5184 25.4954C39.9781 25.9669 39.6066 26.602 39.4607 27.3041C39.0868 29.0713 39.547 30.7873 41.9501 32.2669" stroke="#868686" stroke-width="1.3" stroke-linecap="round" stroke-linejoin="round"/>
<path d="M37.6659 30.7712C37.4626 31.2651 37.4168 31.8097 37.5349 32.3306C37.8544 33.6856 39.5257 35.1811 41.4815 35.8043" fill="#FFFCBB"/>
<path d="M37.6659 30.7712C37.4626 31.2651 37.4168 31.8097 37.5349 32.3306C37.8544 33.6856 39.5257 35.1811 41.4815 35.8043" stroke="#868686" stroke-width="1.3" stroke-linecap="round" stroke-linejoin="round"/>
</svg>
