<svg width="31" height="22" viewBox="0 0 31 22" fill="none" xmlns="http://www.w3.org/2000/svg">
<path d="M26.5002 10.7679L29.5899 9.22301C29.7086 9.16362 29.8144 9.08116 29.901 8.98046C29.9875 8.87975 30.0532 8.76281 30.0941 8.63646C30.135 8.51011 30.1503 8.37688 30.1391 8.24455C30.128 8.11222 30.0905 7.98343 30.0291 7.86571L26.955 1.97859C26.8336 1.74619 26.6258 1.57075 26.3764 1.49003C26.127 1.40932 25.8558 1.42978 25.6213 1.54703L22.5002 3.10761M26.5002 10.7679L22.5002 3.10761M26.5002 10.7679L24.5002 13.1076M22.5002 3.10761L17.4144 3.10761C17.2831 3.10761 17.153 3.13347 17.0317 3.18373C16.9104 3.23398 16.8001 3.30764 16.7073 3.4005L11.8155 8.29231C11.7142 8.39361 11.6358 8.51551 11.5857 8.64974C11.5356 8.78396 11.5149 8.92739 11.5251 9.0703C11.5352 9.21321 11.576 9.35227 11.6446 9.47807C11.7131 9.60386 11.8079 9.71345 11.9226 9.79941L12.6002 10.3076C13.2925 10.8269 14.1347 11.1076 15.0002 11.1076C15.8656 11.1076 16.7078 10.8269 17.4002 10.3076L19.0002 9.10761L24.5002 13.1076M24.5002 13.1076L19.9005 17.7073C19.7784 17.8294 19.6268 17.9178 19.4603 17.9639C19.2939 18.01 19.1184 18.0122 18.9509 17.9703L11.7063 16.1591C11.5704 16.1252 11.4431 16.063 11.3328 15.9767L4.50016 10.6339M4.50016 10.6339L1.41045 9.08904C1.29167 9.02965 1.18591 8.94719 1.09934 8.84649C1.01277 8.74578 0.947126 8.62884 0.906239 8.50249C0.865353 8.37614 0.850043 8.24291 0.861203 8.11058C0.872364 7.97824 0.90977 7.84946 0.97124 7.73174L4.04536 1.84462C4.16671 1.61222 4.37447 1.43677 4.62391 1.35606C4.87334 1.27534 5.1445 1.29581 5.379 1.41305L8.50016 2.97363L4.50016 10.6339ZM13.5002 20.6076L9.73273 19.6658C9.57985 19.6275 9.43816 19.5537 9.31923 19.4503L6.50016 16.9999M8.57196 2.97363L14.987 1.10344C15.2161 1.03664 15.4616 1.054 15.6791 1.1524L20.0002 3.10761" stroke="url(#paint0_linear_702_930)" stroke-width="1.5" stroke-linecap="round" stroke-linejoin="round"/>
<defs>
<linearGradient id="paint0_linear_702_930" x1="0.857667" y1="21.9795" x2="21.1049" y2="-1.87543" gradientUnits="userSpaceOnUse">
<stop offset="0.046875" stop-color="#7CEFA7"/>
<stop offset="1" stop-color="#8FD3F4"/>
</linearGradient>
</defs>
</svg>
