<svg width="28" height="28" viewBox="0 0 28 28" fill="none" xmlns="http://www.w3.org/2000/svg">
<path d="M14.3466 17.2996L19.32 22.2731M5.24431 8.19737L10.2177 13.1708M14.4109 8.87868C14.9664 8.32317 15.7176 8.00774 16.5032 8.00014C17.2888 7.99254 18.046 8.29339 18.6121 8.83805C19.8238 10.0046 19.795 11.9798 18.6058 13.1691L10.2287 21.2931C10.1335 21.3854 10.0576 21.4957 10.0055 21.6176C9.95331 21.7396 9.92592 21.8706 9.92491 22.0033C9.92389 22.1359 9.94926 22.2674 9.99954 22.3901C10.0498 22.5128 10.124 22.6243 10.2178 22.718L13.7995 26.2998C13.9858 26.4861 14.2382 26.5914 14.5017 26.5926C14.7652 26.5939 15.0186 26.4912 15.2068 26.3066L23.5145 18.1598C27.4135 14.2609 27.5266 7.9105 23.6567 3.98275C22.7307 3.0426 21.6278 2.29503 20.4115 1.78311C19.1953 1.2712 17.8897 1.00507 16.5701 1.00007C15.2505 0.995069 13.943 1.25129 12.7229 1.75397C11.5028 2.25664 10.3942 2.99584 9.46115 3.92893L1.19827 12.2929C1.01262 12.4808 0.90887 12.7346 0.909673 12.9988C0.910476 13.2629 1.01577 13.516 1.20256 13.7028L4.78434 17.2846C4.8779 17.3782 4.98908 17.4522 5.11146 17.5025C5.23384 17.5528 5.36498 17.5783 5.49728 17.5775C5.62958 17.5767 5.76041 17.5497 5.8822 17.498C6.00398 17.4463 6.1143 17.371 6.20675 17.2763L14.4109 8.87868Z" stroke="url(#paint0_linear_702_956)" stroke-width="1.5" stroke-linecap="round" stroke-linejoin="round"/>
<defs>
<linearGradient id="paint0_linear_702_956" x1="0.909669" y1="28.3892" x2="27.0213" y2="7.85987" gradientUnits="userSpaceOnUse">
<stop offset="0.046875" stop-color="#7CEFA7"/>
<stop offset="1" stop-color="#8FD3F4"/>
</linearGradient>
</defs>
</svg>
