<svg width="35" height="38" viewBox="0 0 35 38" fill="none" xmlns="http://www.w3.org/2000/svg">
<g id="Group 300">
<g id="Group 302">
<path id="Vector" d="M11.5756 21.0404C10.4993 16.609 11.015 14.1722 11.6275 12.5445C12.7038 9.68066 20.4976 3.29728 26.0884 1.29471C27.567 0.764804 32.2453 0 34.9064 0C35.3702 1.84439 33.9821 5.3125 33.631 5.94601C32.8366 7.37755 30.8249 9.32554 26.8237 13.4454C26.6253 13.6494 22.7934 13.0815 22.5911 13.2943C22.3683 13.5284 25.775 14.5431 25.5475 14.7883C24.9664 15.4131 24.3704 16.0727 23.7618 16.7711C23.6264 16.9261 17.2184 16.0411 17.0821 16.2001C16.8995 16.4136 22.9879 17.6727 22.8029 17.8926C22.295 18.4977 21.7801 19.1296 21.2605 19.7884C19.9024 21.511 11.5756 21.0404 11.5756 21.0404Z" fill="#FFE26C"/>
<path id="Vector_2" d="M22.4228 9.48631C23.6392 10.1678 26.6881 10.884 28.9746 11.2219C30.4285 9.85538 31.3198 8.81186 32.0881 7.99984C30.3577 7.65415 27.6898 7.0827 26.3531 6.52748L25.728 6.24316L21.9961 9.18506L22.4228 9.48631Z" fill="#FFF3B4"/>
<path id="Vector_3" d="M34.9766 0.407262C34.9624 0.270088 34.9387 0.134022 34.9058 0C34.6014 0 34.2681 0.0110927 33.9195 0.0285242C31.1514 0.16956 27.2311 0.825616 25.8882 1.29706C25.6104 1.39451 25.323 1.51099 25.0355 1.62825C24.6507 1.78514 24.2594 1.95787 23.8608 2.14644C24.1475 3.31989 24.7674 4.63755 25.3157 5.32609C23.9699 6.35619 22.6707 7.44406 21.422 8.58656C16.869 12.7448 13.3537 17.2009 10.9512 20.6634C10.9834 20.8012 11.0124 20.9359 11.0478 21.0786C11.0478 21.0786 11.2241 21.0881 11.522 21.0992C12.7152 19.2863 16.1137 14.5711 22.1451 9.34008C23.4807 8.18347 24.8584 7.07479 26.2754 6.01622C27.6804 6.63979 30.4847 7.28158 32.3035 7.66983C32.5628 7.37746 32.7915 7.10568 32.9871 6.85531C33.2415 6.52886 33.4452 6.23332 33.6014 5.95679C33.9356 5.36571 35.1868 2.3168 34.9766 0.407262Z" fill="#FFDB4B"/>
<path id="Vector_4" d="M34.913 0.00628891C34.613 0.00628891 34.3025 0.00393056 33.988 0C30.8058 1.47317 27.8846 3.29695 25.2324 5.29053C24.6797 4.60662 24.1371 3.33066 23.8477 2.16643C22.5923 2.75996 21.3561 3.65081 20.184 4.38669C20.4351 5.88895 20.8115 7.57262 21.3017 8.52538C12.0137 16.8613 6.98321 26.4236 6.91412 26.558C6.86583 26.6513 6.85784 26.7593 6.89191 26.8583C6.92598 26.9573 6.99931 27.0392 7.09578 27.0859C7.19225 27.1326 7.30395 27.1403 7.4063 27.1074C7.50866 27.0744 7.59329 27.0035 7.64158 26.9102C7.73831 26.7231 17.5123 8.13547 34.9999 0.402489C34.9755 0.26952 34.9465 0.137379 34.913 0.00628891Z" fill="#FFF3B4"/>
<path id="Vector_5" d="M9.81518 22.4918C9.10823 22.077 8.47188 19.4642 8.99927 19.2181C9.64259 18.9193 9.59726 19.8388 10.965 20.9739C12.3327 22.1097 16.6049 21.6525 17.6841 21.9595C18.8722 22.2977 12.1182 23.8424 9.81518 22.4918Z" fill="#FFDB4B"/>
</g>
<path id="Vector 475" d="M11.7714 27.1279H5.9101C5.16322 27.1279 4.4432 27.4065 3.89083 27.9092L2.69928 28.9937C2.25495 29.3981 1.94228 29.9266 1.80176 30.5107L0.890487 34.2988C0.436574 36.1857 1.86657 38.0005 3.80727 38.0005H13.9195C15.8894 38.0005 17.3247 36.1342 16.819 34.2303L15.8115 30.4374C15.6686 29.8993 15.3787 29.4116 14.9743 29.0288L13.8337 27.9492C13.2765 27.4218 12.5385 27.1279 11.7714 27.1279Z" fill="#81E9BA"/>
<rect id="Rectangle 515" x="5.25977" y="24.248" width="7.30061" height="2.36827" rx="1.18414" fill="#81E9BA"/>
</g>
</svg>
