<svg width="24" height="24" viewBox="0 0 24 24" fill="none" xmlns="http://www.w3.org/2000/svg">
<path d="M18.75 4.45312H18.75C18.6108 4.45323 18.4748 4.41206 18.359 4.3348C18.2433 4.25755 18.1531 4.1477 18.0998 4.01915C18.0466 3.8906 18.0326 3.74914 18.0598 3.61267C18.087 3.47621 18.1541 3.35087 18.2525 3.25254L18.2525 3.25252L19.0025 2.50252C19.1345 2.37058 19.3134 2.29646 19.5 2.29646C19.6866 2.29646 19.8655 2.37058 19.9975 2.50252C20.1294 2.63446 20.2035 2.81341 20.2035 3C20.2035 3.18659 20.1294 3.36554 19.9975 3.49748L19.2475 4.24746C19.2475 4.24747 19.2475 4.24747 19.2475 4.24748C19.1821 4.31274 19.1046 4.3645 19.0192 4.39978C18.9339 4.43507 18.8424 4.4532 18.75 4.45312ZM12.5916 6.81267C12.6818 6.79251 12.775 6.79032 12.866 6.80622L12.866 6.80654C15.3376 7.22079 17.2031 9.45361 17.2031 12C17.2031 12.1865 17.129 12.3653 16.9972 12.4972C16.8653 12.629 16.6865 12.7031 16.5 12.7031C16.3135 12.7031 16.1347 12.629 16.0028 12.4972C15.871 12.3653 15.7969 12.1865 15.7969 12C15.7969 10.1329 14.4376 8.49644 12.6359 8.19346L12.6354 8.19339C12.5437 8.17891 12.4557 8.1464 12.3766 8.09773C12.2975 8.04906 12.2288 7.9852 12.1745 7.90983C12.1202 7.83447 12.0814 7.74909 12.0603 7.65864C12.0392 7.56818 12.0362 7.47444 12.0515 7.38283C12.0669 7.29122 12.1002 7.20355 12.1496 7.1249C12.199 7.04624 12.2635 6.97815 12.3393 6.92456C12.4152 6.87097 12.5009 6.83294 12.5916 6.81267ZM3.75 15.0469H3.79688V15V12C3.79684 10.9175 4.01108 9.84565 4.42722 8.8463C4.84337 7.84696 5.4532 6.93987 6.22155 6.17732C6.98991 5.41477 7.9016 4.81184 8.90407 4.40328C9.90654 3.99473 10.98 3.78863 12.0625 3.79687L12.0628 3.75L12.0625 3.79687C16.5503 3.83043 20.2031 7.55243 20.2031 12.0938V15V15.0469H20.25C20.6354 15.0469 21.005 15.2 21.2775 15.4725C21.55 15.745 21.7031 16.1146 21.7031 16.5V18.75C21.7031 19.1354 21.55 19.505 21.2775 19.7775C21.005 20.05 20.6354 20.2031 20.25 20.2031H3.75C3.36461 20.2031 2.995 20.05 2.72249 19.7775C2.44997 19.505 2.29688 19.1354 2.29688 18.75V16.5C2.29688 16.1146 2.44997 15.745 2.72249 15.4725C2.995 15.2 3.36461 15.0469 3.75 15.0469ZM5.20312 15V15.0469H5.25H18.75H18.7969V15V12.0938C18.7969 8.3186 15.772 5.23051 12.0519 5.20312H12.0516H12C10.1974 5.20312 8.46854 5.91922 7.19388 7.19388C5.91922 8.46854 5.20312 10.1974 5.20312 12V15ZM20.25 18.7969H20.2969V18.75V16.5V16.4531H20.25H3.75H3.70312V16.5V18.75V18.7969H3.75H20.25ZM11.2969 1.5V0.75C11.2969 0.56352 11.371 0.384677 11.5028 0.252816C11.6347 0.120954 11.8135 0.046875 12 0.046875C12.1865 0.046875 12.3653 0.120954 12.4972 0.252816C12.629 0.384677 12.7031 0.563519 12.7031 0.75V1.5C12.7031 1.68648 12.629 1.86532 12.4972 1.99718C12.3653 2.12905 12.1865 2.20312 12 2.20312C11.8135 2.20312 11.6347 2.12905 11.5028 1.99718C11.371 1.86532 11.2969 1.68648 11.2969 1.5ZM4.98077 4.39999C4.89541 4.36463 4.81785 4.31281 4.75252 4.24748L4.00252 3.49748C3.87058 3.36554 3.79646 3.18659 3.79646 3C3.79646 2.81341 3.87058 2.63446 4.00252 2.50252C4.13446 2.37058 4.31341 2.29646 4.5 2.29646C4.68659 2.29646 4.86554 2.37058 4.99748 2.50252L5.74748 3.25252C5.81281 3.31785 5.86463 3.39541 5.89999 3.48077C5.93534 3.56612 5.95354 3.65761 5.95354 3.75C5.95354 3.84239 5.93534 3.93388 5.89999 4.01923C5.86463 4.10459 5.81281 4.18215 5.74748 4.24748C5.68215 4.31281 5.60459 4.36463 5.51923 4.39999C5.43388 4.43534 5.34239 4.45354 5.25 4.45354C5.15761 4.45354 5.06612 4.43534 4.98077 4.39999Z" fill="#666F6A" stroke="#666F6A" stroke-width="0.09375"/>
</svg>
