<svg width="57" height="56" viewBox="0 0 57 56" fill="none" xmlns="http://www.w3.org/2000/svg">
<path d="M4.1834 21.1843C4.1834 21.1843 1.77377 25.2188 5.18587 27.1931C4.33668 29.6456 6.00134 31.485 8.47228 32.4844C9.43797 26.8558 5.90018 21.3989 4.1834 21.1843Z" fill="#FAFFBF"/>
<path d="M5.08522 29.1551C5.02391 30.97 8.88667 33.6923 14.8034 33.7322C15.1537 32.4608 15.2659 31.1356 15.1345 29.8234C14.969 27.984 14.2792 26.4665 12.8322 24.8171C11.6458 23.4652 9.98112 22.3309 8.80083 21.0525C8.12331 20.3167 7.48259 19.5626 6.89091 18.787C6.74599 18.596 6.55215 18.4477 6.32989 18.3578C6.05784 18.2412 5.75282 18.227 5.47109 18.3177C5.18937 18.4084 4.94997 18.5979 4.79705 18.8513C4.42626 19.4309 4.2531 20.1149 4.30347 20.8011C4.43223 22.5302 5.31515 23.9894 7.92404 24.7129" fill="#FAFFBF"/>
<path d="M5.08522 29.1551C5.02391 30.97 8.88667 33.6923 14.8034 33.7322C15.1537 32.4608 15.2659 31.1356 15.1345 29.8234C14.969 27.984 14.2792 26.4665 12.8322 24.8171C11.6458 23.4652 9.98112 22.3309 8.80083 21.0525C8.12331 20.3167 7.48259 19.5626 6.89091 18.787C6.74599 18.596 6.55215 18.4477 6.32989 18.3578C6.05784 18.2412 5.75282 18.227 5.47109 18.3177C5.18937 18.4084 4.94997 18.5979 4.79705 18.8513C4.42626 19.4309 4.2531 20.1149 4.30347 20.8011C4.43223 22.5302 5.31515 23.9894 7.92404 24.7129" stroke="#868686" stroke-width="1.3" stroke-linecap="round" stroke-linejoin="round"/>
<path d="M3.57649 24.4768C3.52641 24.9871 3.63337 25.5005 3.88306 25.9483C4.53605 27.1164 6.47969 28.0483 8.44786 28.0943" fill="#FAFFBF"/>
<path d="M3.57649 24.4768C3.52641 24.9871 3.63337 25.5005 3.88306 25.9483C4.53605 27.1164 6.47969 28.0483 8.44786 28.0943" stroke="#868686" stroke-width="1.3" stroke-linecap="round" stroke-linejoin="round"/>
<path d="M27.7066 12.9492C34.7761 12.6556 39.4516 16.7384 42.6168 21.6169C43.0731 22.3211 43.4973 23.0505 43.8829 23.7957C44.0918 24.1904 44.291 24.5914 44.487 24.9924C46.8906 29.9057 48.6644 35.3779 47.1606 40.9385C44.7409 49.8556 36.2575 51.6334 26.4469 51.7849C24.7302 51.8171 23.0179 51.6044 21.3633 51.1534C19.8187 50.7394 18.3571 50.0699 17.0413 49.1736C13.0631 46.3822 11.2572 42.2047 10.8844 38.1219C10.4281 33.016 11.7681 29.4573 13.7379 24.7809C15.3703 20.9065 18.8601 16.4542 23.0279 14.2786C24.4663 13.4965 26.0653 13.0422 27.7066 12.9492Z" fill="white"/>
<path d="M36.9668 15.4963C38.7329 16.9229 40.2777 18.5951 41.5523 20.4601C42.045 21.1611 42.4992 21.8832 42.9148 22.6263C43.1398 23.021 43.3551 23.4188 43.5575 23.8199C46.1636 28.7173 49.152 34.219 47.7735 39.8933C45.5626 48.9967 32.844 54.2194 21.3496 51.1407" stroke="#868686" stroke-width="1.3" stroke-linecap="round" stroke-linejoin="round"/>
<path d="M26.6602 13.2147C29.8061 12.4189 32.9327 13.1136 34.7676 14.203" stroke="#868686" stroke-width="1.3" stroke-linecap="round" stroke-linejoin="round"/>
<path d="M16.5417 48.7946C6.69582 41.2163 10.4161 23.5844 21.904 15.0588" stroke="#868686" stroke-width="1.3" stroke-linecap="round" stroke-linejoin="round"/>
<path d="M27.4528 14.8006C28.097 14.2024 28.5963 13.465 28.9125 12.6446C29.5576 10.9915 29.4124 9.27799 28.6688 8.09672C27.3196 8.45886 26.0485 9.62153 25.4044 11.2717C24.7603 12.9219 24.9016 14.6374 25.6481 15.8196" fill="#FFF8F2"/>
<path d="M27.4528 14.8006C28.097 14.2024 28.5963 13.465 28.9125 12.6446C29.5576 10.9915 29.4124 9.27799 28.6688 8.09672C27.3196 8.45886 26.0485 9.62153 25.4044 11.2717C24.7603 12.9219 24.9016 14.6374 25.6481 15.8196" stroke="#868686" stroke-width="1.3" stroke-linecap="round" stroke-linejoin="round"/>
<path d="M30.8418 27.8828C30.8418 27.8828 31.2557 26.7639 32.5739 27.2207L30.8418 27.8828Z" fill="#FFF8F2"/>
<path d="M30.8418 27.8828C30.8418 27.8828 31.2557 26.7639 32.5739 27.2207" stroke="#868686" stroke-width="1.3" stroke-linecap="round" stroke-linejoin="round"/>
<path d="M23.2285 28.1219C23.2285 28.1219 23.9796 27.2022 25.0679 28.0514L23.2285 28.1219Z" fill="#FFF8F2"/>
<path d="M23.2285 28.1219C23.2285 28.1219 23.9796 27.2022 25.0679 28.0514" stroke="#868686" stroke-width="1.3" stroke-linecap="round" stroke-linejoin="round"/>
<path d="M31.1686 31.3103C30.8537 30.8159 30.4036 30.4223 29.8718 30.1759C29.34 29.9295 28.7487 29.8407 28.168 29.9201C27.5873 29.9994 27.0415 30.2436 26.5953 30.6237C26.149 31.0037 25.8211 31.5037 25.6504 32.0644C26.2635 33.1926 27.5297 34.4281 28.7559 34.2595C29.9822 34.0908 30.8804 32.558 31.1564 31.3103H31.1686Z" fill="#FFAFA7"/>
<path d="M53.6412 24.5605C53.6412 25.6182 53.3346 26.7985 52.1728 27.6048C51.9779 27.7433 51.8201 27.9276 51.7132 28.1414C51.6063 28.3552 51.5535 28.592 51.5596 28.831C51.5664 29.3544 51.4534 29.8723 51.2291 30.3453C51.0049 30.8182 50.6754 31.2335 50.2659 31.5595C50.0258 31.7601 49.7301 31.8825 49.4185 31.9102C49.1068 31.9379 48.7942 31.8696 48.5225 31.7144C48.2508 31.5592 48.0332 31.3246 47.8987 31.042C47.7643 30.7595 47.7195 30.4426 47.7704 30.1339C48.2173 27.6773 49.3309 25.3908 50.9894 23.5243C51.1989 23.3006 51.4706 23.1448 51.7695 23.077C52.0684 23.0092 52.3808 23.0326 52.6663 23.1442C52.9518 23.2557 53.1973 23.4503 53.3711 23.7028C53.5448 23.9553 53.6389 24.254 53.6412 24.5605Z" fill="#FAFFBF"/>
<path d="M51.3305 29.9654C51.2048 31.5227 47.9 33.4265 43.2953 33.5277C42.9745 33.5535 42.6519 33.5069 42.3516 33.3912C42.0512 33.2755 41.7807 33.0938 41.5601 32.8594C41.0696 32.283 41.0114 31.4522 41.0727 30.7134C41.2628 28.3436 42.3787 26.354 44.12 24.7721C45.4505 23.5642 47.2316 22.6261 48.5468 21.4857C49.303 20.8337 50.0183 20.1541 50.6928 19.447C50.8604 19.2728 51.0724 19.1478 51.3059 19.0852C51.5869 19.0037 51.8879 19.0253 52.1544 19.1461C52.4208 19.267 52.6353 19.4792 52.7591 19.7444C53.0633 20.3616 53.159 21.0608 53.0319 21.7371C52.71 23.4416 51.6707 24.8027 48.9944 25.2197" fill="#FAFFBF"/>
<path d="M51.3305 29.9654C51.2048 31.5227 47.9 33.4265 43.2953 33.5277C42.9745 33.5535 42.6519 33.5069 42.3516 33.3912C42.0512 33.2755 41.7807 33.0938 41.5601 32.8594C41.0696 32.283 41.0114 31.4522 41.0727 30.7134C41.2628 28.3436 42.3787 26.354 44.12 24.7721C45.4505 23.5642 47.2316 22.6261 48.5468 21.4857C49.303 20.8337 50.0183 20.1541 50.6928 19.447C50.8604 19.2728 51.0724 19.1478 51.3059 19.0852C51.5869 19.0037 51.8879 19.0253 52.1544 19.1461C52.4208 19.267 52.6353 19.4792 52.7591 19.7444C53.0633 20.3616 53.159 21.0608 53.0319 21.7371C52.71 23.4416 51.6707 24.8027 48.9944 25.2197" stroke="#868686" stroke-width="1.3" stroke-linecap="round" stroke-linejoin="round"/>
<path d="M53.3553 25.4863C53.3504 25.9991 53.19 26.4983 52.8955 26.918C52.1168 28.0032 50.0812 28.7083 48.1191 28.5397" fill="#FAFFBF"/>
<path d="M53.3553 25.4863C53.3504 25.9991 53.19 26.4983 52.8955 26.918C52.1168 28.0032 50.0812 28.7083 48.1191 28.5397" stroke="#868686" stroke-width="1.3" stroke-linecap="round" stroke-linejoin="round"/>
<path d="M15.1089 43.2727L12.0432 44.781C11.898 44.8537 11.7399 44.8968 11.578 44.9079C11.416 44.9191 11.2535 44.8979 11.0997 44.8457C10.946 44.7935 10.8042 44.7113 10.6825 44.6039C10.5608 44.4965 10.4616 44.366 10.3908 44.2199C10.3185 44.0749 10.2758 43.9171 10.2649 43.7555C10.254 43.5938 10.2753 43.4317 10.3275 43.2783C10.3796 43.125 10.4617 42.9835 10.5688 42.862C10.676 42.7405 10.8061 42.6415 10.9518 42.5706L14.0175 41.0592C14.1629 40.9856 14.3216 40.9416 14.4842 40.93C14.6468 40.9184 14.8101 40.9393 14.9645 40.9915C15.1189 41.0438 15.2614 41.1263 15.3836 41.2342C15.5057 41.3422 15.6052 41.4734 15.676 41.6202C15.7485 41.7658 15.7913 41.9242 15.802 42.0864C15.8127 42.2487 15.791 42.4114 15.7382 42.5651C15.6855 42.7189 15.6026 42.8606 15.4946 42.9821C15.3865 43.1036 15.2554 43.2023 15.1089 43.2727Z" fill="#FFF9CF" stroke="#868686" stroke-width="1.3" stroke-linecap="round" stroke-linejoin="round"/>
<path d="M42.8112 8.97502L46.0807 7.98021C46.2357 7.93212 46.3987 7.91528 46.5602 7.93067C46.7218 7.94605 46.8787 7.99334 47.0219 8.06982C47.165 8.1463 47.2916 8.25042 47.3942 8.37617C47.4968 8.50192 47.5734 8.64679 47.6196 8.80238C47.6676 8.95761 47.6844 9.12084 47.6688 9.28259C47.6533 9.44435 47.6057 9.60141 47.529 9.74463C47.4522 9.88785 47.3477 10.0144 47.2216 10.1169C47.0955 10.2193 46.9502 10.2957 46.7943 10.3416L43.5237 11.3242C43.3686 11.3718 43.2057 11.3882 43.0442 11.3724C42.8828 11.3566 42.7261 11.3089 42.5832 11.2321C42.4404 11.1554 42.3141 11.051 42.2119 10.9251C42.1096 10.7992 42.0334 10.6543 41.9875 10.4987C41.8951 10.1874 41.9299 9.85218 42.0843 9.56655C42.2388 9.28091 42.5002 9.06818 42.8112 8.97502Z" fill="#FFF9CF" stroke="#868686" stroke-width="1.3" stroke-linecap="round" stroke-linejoin="round"/>
<path d="M19.3854 8.26716L16.424 6.55957C16.2829 6.4792 16.1592 6.37163 16.06 6.24307C15.9608 6.11452 15.8882 5.96755 15.8463 5.81069C15.8043 5.65383 15.794 5.49022 15.8158 5.32933C15.8376 5.16844 15.8912 5.01348 15.9733 4.87344C16.0537 4.73237 16.1613 4.60866 16.2898 4.50949C16.4184 4.41032 16.5653 4.33766 16.7222 4.29574C16.8791 4.25381 17.0427 4.24345 17.2036 4.26526C17.3645 4.28708 17.5194 4.34062 17.6595 4.42279L20.6178 6.13037C20.7589 6.21074 20.8826 6.31832 20.9818 6.44688C21.081 6.57543 21.1536 6.7224 21.1956 6.87925C21.2375 7.03611 21.2478 7.19973 21.226 7.36062C21.2042 7.52151 21.1507 7.67648 21.0685 7.81651C20.9881 7.95718 20.8807 8.08052 20.7524 8.17942C20.624 8.27832 20.4774 8.35083 20.3209 8.39273C20.1644 8.43463 20.0012 8.4451 19.8406 8.42355C19.68 8.40199 19.5253 8.34884 19.3854 8.26716Z" fill="#FFF9CF" stroke="#868686" stroke-width="1.3" stroke-linecap="round" stroke-linejoin="round"/>
<path d="M6.41998 41.7091C7.33258 41.7091 8.07239 40.9693 8.07239 40.0567C8.07239 39.1441 7.33258 38.4043 6.41998 38.4043C5.50738 38.4043 4.76758 39.1441 4.76758 40.0567C4.76758 40.9693 5.50738 41.7091 6.41998 41.7091Z" fill="#FFD1F6" stroke="#868686" stroke-width="1.3" stroke-linecap="round" stroke-linejoin="round"/>
<path d="M44.3126 48.613C45.2252 48.613 45.965 47.8732 45.965 46.9606C45.965 46.048 45.2252 45.3082 44.3126 45.3082C43.4 45.3082 42.6602 46.048 42.6602 46.9606C42.6602 47.8732 43.4 48.613 44.3126 48.613Z" fill="#FFD1F6" stroke="#868686" stroke-width="1.3" stroke-linecap="round" stroke-linejoin="round"/>
<path d="M13.0332 16.2391C13.9458 16.2391 14.6856 15.4993 14.6856 14.5867C14.6856 13.6741 13.9458 12.9343 13.0332 12.9343C12.1206 12.9343 11.3808 13.6741 11.3808 14.5867C11.3808 15.4993 12.1206 16.2391 13.0332 16.2391Z" fill="#FFD1F6" stroke="#868686" stroke-width="1.3" stroke-linecap="round" stroke-linejoin="round"/>
<path d="M50.9654 40.361L48.0438 42.1402C47.9056 42.2253 47.752 42.282 47.5917 42.3073C47.4314 42.3325 47.2677 42.3256 47.1101 42.2871C46.9525 42.2486 46.8041 42.1792 46.6735 42.0829C46.5429 41.9866 46.4327 41.8654 46.3493 41.7262C46.2643 41.588 46.2075 41.4343 46.1823 41.2741C46.1571 41.1138 46.1639 40.9501 46.2025 40.7925C46.241 40.6349 46.3104 40.4865 46.4066 40.3559C46.5029 40.2253 46.6242 40.1151 46.7633 40.0317L49.6835 38.2584C49.8216 38.1733 49.9753 38.1166 50.1356 38.0914C50.2959 38.0662 50.4596 38.073 50.6172 38.1115C50.7748 38.15 50.9232 38.2194 51.0538 38.3157C51.1844 38.412 51.2946 38.5332 51.378 38.6724C51.4621 38.8103 51.5182 38.9634 51.543 39.123C51.5679 39.2826 51.5609 39.4455 51.5226 39.6024C51.4842 39.7593 51.4153 39.9071 51.3196 40.0373C51.224 40.1674 51.1037 40.2774 50.9654 40.361Z" fill="#FFF9CF" stroke="#868686" stroke-width="1.3" stroke-linecap="round" stroke-linejoin="round"/>
</svg>
