<svg width="335" height="55" viewBox="0 0 335 55" fill="none" xmlns="http://www.w3.org/2000/svg">
<rect width="335" height="55" rx="20" fill="#F9F7F2"/>
<path d="M24.947 20.539C27.531 20.539 28.806 22.256 28.806 24.483C28.806 26.727 27.531 28.444 24.947 28.444C22.363 28.444 21.088 26.727 21.088 24.483C21.088 22.256 22.363 20.539 24.947 20.539ZM24.947 21.984C23.332 21.984 22.72 23.123 22.72 24.483C22.72 25.843 23.332 26.999 24.947 26.999C26.562 26.999 27.174 25.843 27.174 24.483C27.174 23.123 26.562 21.984 24.947 21.984ZM32.682 19.774C33.107 19.774 33.515 19.995 33.515 20.488V30.552C33.515 31.045 33.107 31.266 32.682 31.266C32.257 31.266 31.832 31.045 31.832 30.552V26.948H29.86C29.452 26.948 29.282 26.608 29.282 26.217C29.282 25.826 29.452 25.486 29.86 25.486H31.832V23.565H29.86C29.452 23.565 29.282 23.242 29.282 22.834C29.282 22.443 29.452 22.12 29.86 22.12H31.832V20.488C31.832 19.995 32.257 19.774 32.682 19.774ZM24.386 29.838C24.811 29.838 25.236 30.059 25.236 30.552V33.425C25.236 33.68 25.321 33.765 25.593 33.765H33.311C33.736 33.765 33.923 34.105 33.923 34.513C33.923 34.904 33.736 35.244 33.311 35.244H24.828C23.842 35.244 23.519 34.938 23.519 33.969V30.552C23.519 30.059 23.927 29.838 24.386 29.838ZM37.2407 20.777H42.3747C43.3607 20.777 43.6837 21.083 43.6837 22.052V23.446C43.6837 25.86 42.7997 26.591 37.5807 29.209C37.1897 29.396 36.7477 29.175 36.5607 28.818C36.4077 28.478 36.3907 27.985 36.8327 27.781C41.5587 25.452 41.9837 24.993 41.9837 23.395V22.596C41.9837 22.341 41.8987 22.256 41.6267 22.256H37.2407C36.8157 22.256 36.6287 21.916 36.6287 21.525C36.6287 21.117 36.8157 20.777 37.2407 20.777ZM47.3047 19.774C47.7467 19.774 48.1547 19.995 48.1547 20.488V24.126H50.0247C50.4667 24.126 50.6537 24.466 50.6537 24.857C50.6537 25.282 50.4667 25.605 50.0247 25.605H48.1547V30.552C48.1547 31.045 47.7467 31.266 47.3047 31.266C46.8627 31.266 46.4547 31.045 46.4547 30.552V20.488C46.4547 19.995 46.8627 19.774 47.3047 19.774ZM39.2637 29.838C39.6887 29.838 40.1137 30.059 40.1137 30.552V33.425C40.1137 33.68 40.1987 33.765 40.4707 33.765H47.9507C48.3757 33.765 48.5627 34.105 48.5627 34.513C48.5627 34.904 48.3757 35.244 47.9507 35.244H39.7057C38.7197 35.244 38.3967 34.938 38.3967 33.969V30.552C38.3967 30.059 38.8047 29.838 39.2637 29.838ZM56.3853 27.526H65.8033C66.1603 26.064 66.2963 24.585 66.2963 23.004V22.409C66.2963 22.137 66.2113 22.052 65.9393 22.052H58.1703C57.7453 22.052 57.5753 21.712 57.5753 21.321C57.5753 20.913 57.7453 20.573 58.1703 20.573H66.6873C67.6733 20.573 67.9963 20.879 67.9963 21.848V22.919C67.9963 24.585 67.8093 26.2 67.4693 27.526H69.4753C69.8833 27.526 70.0703 27.866 70.0703 28.257C70.0703 28.648 69.8833 28.971 69.4753 28.971H63.7803V34.938C63.7803 35.431 63.3723 35.652 62.9303 35.652C62.4883 35.652 62.0803 35.431 62.0803 34.938V28.971H56.3853C55.9773 28.971 55.7903 28.648 55.7903 28.257C55.7903 27.866 55.9773 27.526 56.3853 27.526ZM82.942 20.301C83.333 20.301 83.52 20.624 83.52 21.015C83.52 21.406 83.333 21.729 82.942 21.729H75.292C75.037 21.729 74.935 21.814 74.935 22.086V24.075C74.935 24.347 75.037 24.432 75.292 24.432H83.112C83.503 24.432 83.69 24.755 83.69 25.146C83.69 25.537 83.503 25.86 83.112 25.86H79.236V27.594H84.965C85.356 27.594 85.543 27.917 85.543 28.308C85.543 28.699 85.356 29.022 84.965 29.022H71.841C71.45 29.022 71.263 28.699 71.263 28.308C71.263 27.917 71.45 27.594 71.841 27.594H77.57V25.86H74.527C73.541 25.86 73.235 25.554 73.235 24.585V21.576C73.235 20.607 73.541 20.301 74.527 20.301H82.942ZM82.313 30.348C83.299 30.348 83.622 30.654 83.622 31.623V34.938C83.622 35.431 83.197 35.652 82.755 35.652C82.33 35.652 81.922 35.431 81.922 34.938V32.133C81.922 31.861 81.82 31.776 81.565 31.776H73.575C73.167 31.776 72.997 31.453 72.997 31.062C72.997 30.671 73.167 30.348 73.575 30.348H82.313Z" fill="#404642"/>
<path d="M91.182 19.468C91.42 19.604 91.488 19.876 91.335 20.114C90.043 22.12 89.414 24.432 89.414 27.016V27.543C89.414 30.127 90.043 32.456 91.335 34.462C91.488 34.7 91.42 34.955 91.182 35.091C90.944 35.227 90.689 35.176 90.485 34.938C88.921 33 88.139 30.331 88.139 27.458V27.101C88.139 24.228 88.921 21.559 90.485 19.621C90.689 19.383 90.944 19.349 91.182 19.468ZM98.5831 20.777C98.9741 20.777 99.2461 20.93 99.2461 21.321V32.49C99.2461 32.847 98.9571 33 98.6171 33C98.2941 33 98.0051 32.847 98.0051 32.49V22.273L95.1151 24.109C94.8091 24.279 94.5201 24.143 94.3501 23.871C94.1971 23.616 94.2141 23.293 94.5031 23.106L97.7161 21.1C98.0561 20.896 98.3451 20.777 98.5831 20.777ZM104.866 20.709C105.189 20.709 105.495 20.862 105.495 21.219V27.288C105.495 27.526 105.58 27.611 105.818 27.611C107.994 27.611 110.221 27.543 112.091 27.339C112.363 27.305 112.55 27.492 112.584 27.798C112.635 28.121 112.482 28.393 112.21 28.41C110.578 28.597 108.317 28.682 105.41 28.682C104.526 28.682 104.237 28.41 104.237 27.543V21.219C104.237 20.862 104.543 20.709 104.866 20.709ZM115.355 19.842C115.661 19.842 115.967 19.995 115.967 20.352V30.722C115.967 31.079 115.661 31.232 115.355 31.232C115.049 31.232 114.743 31.079 114.743 30.722V25.69H110.51C110.221 25.69 110.085 25.452 110.085 25.146C110.085 24.857 110.221 24.619 110.51 24.619H114.743V22.987H110.51C110.221 22.987 110.085 22.749 110.085 22.443C110.085 22.154 110.221 21.916 110.51 21.916H114.743V20.352C114.743 19.995 115.049 19.842 115.355 19.842ZM106.889 30.008C107.212 30.008 107.518 30.161 107.518 30.518V33.748C107.518 33.969 107.603 34.054 107.841 34.054H115.967C116.273 34.054 116.409 34.309 116.409 34.598C116.409 34.887 116.273 35.142 115.967 35.142H107.433C106.549 35.142 106.26 34.87 106.26 34.003V30.518C106.26 30.161 106.566 30.008 106.889 30.008ZM119.302 19.468C119.54 19.349 119.795 19.383 119.999 19.621C121.563 21.559 122.362 24.228 122.362 27.101V27.458C122.362 30.331 121.563 33 119.999 34.938C119.795 35.176 119.54 35.227 119.302 35.091C119.081 34.955 119.013 34.7 119.149 34.462C120.458 32.456 121.07 30.127 121.07 27.543V27.016C121.07 24.432 120.458 22.12 119.149 20.114C119.013 19.876 119.081 19.604 119.302 19.468Z" fill="#404642"/>
<rect x="234" y="10" width="81" height="35" rx="17.5" fill="#07BEB8"/>
<path d="M251.083 20.658C253.888 20.658 255.35 22.477 255.35 25.792V26.285C255.35 31.691 253.514 33.119 250.624 33.119C249.536 33.119 248.567 32.881 247.938 32.507C247.513 32.269 247.445 31.895 247.615 31.487C247.802 31.079 248.176 30.909 248.618 31.113C249.23 31.402 249.91 31.572 250.726 31.572C252.613 31.572 253.548 30.45 253.667 27.373C253.106 28.257 251.899 28.767 250.709 28.767C248.363 28.767 246.884 27.254 246.884 24.908V24.619C246.884 22.273 248.567 20.658 251.083 20.658ZM251.117 22.205C249.536 22.205 248.567 23.072 248.567 24.67V24.806C248.567 26.421 249.383 27.271 251.049 27.271C252.732 27.271 253.599 26.2 253.599 24.908V24.772C253.599 23.174 252.664 22.205 251.117 22.205ZM261.459 20.658C264.264 20.658 265.726 22.477 265.726 25.792V26.285C265.726 31.691 263.89 33.119 261 33.119C259.912 33.119 258.943 32.881 258.314 32.507C257.889 32.269 257.821 31.895 257.991 31.487C258.178 31.079 258.552 30.909 258.994 31.113C259.606 31.402 260.286 31.572 261.102 31.572C262.989 31.572 263.924 30.45 264.043 27.373C263.482 28.257 262.275 28.767 261.085 28.767C258.739 28.767 257.26 27.254 257.26 24.908V24.619C257.26 22.273 258.943 20.658 261.459 20.658ZM261.493 22.205C259.912 22.205 258.943 23.072 258.943 24.67V24.806C258.943 26.421 259.759 27.271 261.425 27.271C263.108 27.271 263.975 26.2 263.975 24.908V24.772C263.975 23.174 263.04 22.205 261.493 22.205ZM271.937 20.658C274.997 20.658 276.289 22.715 276.289 26.472V27.305C276.289 31.062 274.997 33.119 271.937 33.119C268.877 33.119 267.585 31.062 267.585 27.305V26.472C267.585 22.715 268.877 20.658 271.937 20.658ZM271.937 22.256C269.931 22.256 269.302 23.582 269.302 26.608V27.169C269.302 30.195 269.931 31.521 271.937 31.521C273.943 31.521 274.572 30.195 274.572 27.169V26.608C274.572 23.582 273.943 22.256 271.937 22.256ZM282.313 20.658C285.373 20.658 286.665 22.715 286.665 26.472V27.305C286.665 31.062 285.373 33.119 282.313 33.119C279.253 33.119 277.961 31.062 277.961 27.305V26.472C277.961 22.715 279.253 20.658 282.313 20.658ZM282.313 22.256C280.307 22.256 279.678 23.582 279.678 26.608V27.169C279.678 30.195 280.307 31.521 282.313 31.521C284.319 31.521 284.948 30.195 284.948 27.169V26.608C284.948 23.582 284.319 22.256 282.313 22.256ZM293.42 20.063C296.123 20.063 297.449 21.219 297.449 22.902C297.449 24.585 296.123 25.741 293.42 25.741C290.734 25.741 289.408 24.585 289.408 22.902C289.408 21.219 290.734 20.063 293.42 20.063ZM293.42 21.406C291.754 21.406 291.006 22.035 291.006 22.902C291.006 23.769 291.754 24.398 293.42 24.398C295.086 24.398 295.851 23.769 295.851 22.902C295.851 22.035 295.086 21.406 293.42 21.406ZM300.373 19.774C300.815 19.774 301.223 19.995 301.223 20.488V31.062C301.223 31.555 300.815 31.776 300.373 31.776C299.948 31.776 299.54 31.555 299.54 31.062V30.28H296.82C296.429 30.28 296.242 29.974 296.242 29.6C296.242 29.209 296.429 28.903 296.82 28.903H299.54V20.488C299.54 19.995 299.948 19.774 300.373 19.774ZM297.993 26.438C298.384 26.387 298.622 26.659 298.639 27.067C298.673 27.441 298.52 27.781 298.129 27.832C296.956 27.985 295.579 28.087 294.117 28.155V30.161C294.117 30.62 293.743 30.824 293.267 30.824C292.808 30.824 292.434 30.62 292.434 30.161V28.206C291.244 28.24 290.037 28.257 288.898 28.257C288.49 28.257 288.303 27.951 288.303 27.56C288.303 27.169 288.49 26.846 288.898 26.846C291.737 26.846 294.967 26.795 297.993 26.438ZM291.669 31.096C292.094 31.096 292.519 31.317 292.519 31.81V33.476C292.519 33.731 292.604 33.833 292.876 33.833H301.036C301.444 33.833 301.631 34.156 301.631 34.547C301.631 34.938 301.444 35.278 301.036 35.278H292.111C291.125 35.278 290.802 34.972 290.802 34.003V31.81C290.802 31.317 291.21 31.096 291.669 31.096Z" fill="white"/>
</svg>
