<svg width="57" height="56" viewBox="0 0 57 56" fill="none" xmlns="http://www.w3.org/2000/svg">
<path d="M29.1366 11.9427C36.5772 12.1909 41.1206 16.755 44.0328 22.0031C44.4547 22.761 44.839 23.5423 45.1856 24.3505C45.3664 24.7731 45.5435 25.1989 45.7168 25.6282C47.8303 30.8562 49.2468 36.6107 47.2237 42.2043C43.9612 51.1681 34.9308 52.3351 24.6459 51.7281C22.8367 51.6233 21.057 51.2669 19.3716 50.6718C17.7723 50.1187 16.2954 49.3183 15.009 48.3076C11.0759 45.1319 9.51246 40.7053 9.46725 36.5001C9.41074 31.2251 11.106 27.6738 13.5511 23.0293C15.5779 19.1795 19.5788 14.8804 24.1374 12.9689C25.6869 12.2742 27.4018 11.9222 29.1366 11.9427Z" fill="white"/>
<path d="M38.8642 15.5543C41.0116 17.3249 42.6956 19.5785 44.033 21.9963C44.4549 22.7542 44.8392 23.5355 45.1858 24.3437C45.3666 24.7663 45.5437 25.1922 45.717 25.6214C47.8305 30.8494 49.247 36.6039 47.2239 42.1975C43.9614 51.1613 30.8208 53.5724 20.0989 50.9165" stroke="#868686" stroke-width="1.3" stroke-linecap="round" stroke-linejoin="round"/>
<path d="M26.5565 12.1773C27.4006 11.9944 28.2689 11.9154 29.1371 11.9426C31.6503 12.0047 34.103 12.6434 36.2574 13.7971" stroke="#868686" stroke-width="1.3" stroke-linecap="round" stroke-linejoin="round"/>
<path d="M15.0659 48.4584C5.27071 40.5711 9.89326 25.4839 17.4845 17.8112C19.0642 16.1875 20.9248 14.7985 22.9961 13.6965" stroke="#868686" stroke-width="1.3" stroke-linecap="round" stroke-linejoin="round"/>
<path d="M31.8397 29.0793C31.5841 28.4951 31.1638 27.9981 30.6301 27.649C30.0965 27.3 29.4727 27.1141 28.835 27.1141C28.1974 27.1141 27.5736 27.3 27.0399 27.649C26.5063 27.9981 26.0859 28.4951 25.8303 29.0793V29.096C26.3099 30.4072 27.507 31.9364 28.8484 31.9364C30.1898 31.9364 31.3736 30.4072 31.8665 29.096L31.8397 29.0793Z" fill="#FFAFA7"/>
<path d="M23.9846 25.5547L25.5071 23.9182" stroke="#868686" stroke-width="1.3" stroke-linecap="round" stroke-linejoin="round"/>
<path d="M23.9299 23.9752L25.5664 25.4977" stroke="#868686" stroke-width="1.3" stroke-linecap="round" stroke-linejoin="round"/>
<path d="M32.1624 25.5547L33.6848 23.9182" stroke="#868686" stroke-width="1.3" stroke-linecap="round" stroke-linejoin="round"/>
<path d="M32.1038 23.9752L33.7402 25.4977" stroke="#868686" stroke-width="1.3" stroke-linecap="round" stroke-linejoin="round"/>
<path d="M14.8949 24.4213C15.2841 24.9388 15.5344 25.5473 15.6219 26.1889C15.7093 26.8305 15.6311 27.4838 15.3946 28.0866C15.2991 28.3308 15.2654 28.5947 15.2964 28.855C15.3274 29.1153 15.4222 29.364 15.5723 29.5789C15.8945 30.0514 16.1043 30.5915 16.1857 31.1576C16.2671 31.7237 16.2179 32.301 16.0418 32.8452C15.9438 33.1727 15.7481 33.4626 15.4808 33.6758C15.2135 33.889 14.8874 34.0153 14.5462 34.038C14.2051 34.0606 13.8651 33.9784 13.572 33.8023C13.2789 33.6263 13.0466 33.3649 12.9063 33.0531C12.4569 32.0135 9.97874 31.3026 9.63668 30.32C9.04648 28.6433 10.7601 26.7486 10.9781 25.4172C11.2296 23.9082 14.0364 23.1537 14.8949 24.4213Z" fill="#FFEDC5"/>
<path d="M16.054 30.7391C16.8823 32.2314 15.0212 35.9671 10.8863 38.8444C10.6095 39.0617 10.2874 39.2141 9.94376 39.2901C9.60012 39.3662 9.24378 39.3639 8.90111 39.2837C8.10634 39.0556 7.55973 38.3346 7.16402 37.6371C5.90648 35.3568 5.71868 32.8719 6.34913 30.3769C6.83202 28.4688 7.88501 26.5372 8.39809 24.7029C8.68984 23.6499 8.93464 22.5969 9.12578 21.5439C9.17208 21.2852 9.28802 21.0441 9.46113 20.8464C9.66808 20.601 9.95615 20.438 10.273 20.387C10.5899 20.3359 10.9146 20.4001 11.1882 20.568C11.8384 20.9474 12.3479 21.5276 12.6402 22.2213C13.378 23.9684 13.2472 25.8296 11.0674 27.835" fill="#FFEDC5"/>
<path d="M16.054 30.7391C16.8823 32.2314 15.0212 35.9671 10.8863 38.8444C10.6095 39.0617 10.2874 39.2141 9.94376 39.2901C9.60012 39.3662 9.24378 39.3639 8.90111 39.2837C8.10634 39.0556 7.55973 38.3346 7.16402 37.6371C5.90648 35.3568 5.71868 32.8719 6.34913 30.3769C6.83202 28.4688 7.88501 26.5372 8.39809 24.7029C8.68984 23.6499 8.93464 22.5969 9.12578 21.5439C9.17208 21.2852 9.28802 21.0441 9.46113 20.8464C9.66808 20.601 9.95615 20.438 10.273 20.387C10.5899 20.3359 10.9146 20.4001 11.1882 20.568C11.8384 20.9474 12.3479 21.5276 12.6402 22.2213C13.378 23.9684 13.2472 25.8296 11.0674 27.835" stroke="#868686" stroke-width="1.3" stroke-linecap="round" stroke-linejoin="round"/>
<path d="M15.1898 25.4272C15.4978 25.8953 15.6546 26.4466 15.6392 27.0067C15.5855 28.4655 14.157 30.3434 12.2656 31.3662" stroke="#868686" stroke-width="1.3" stroke-linecap="round" stroke-linejoin="round"/>
<path d="M42.1085 24.4213C41.7193 24.9388 41.469 25.5473 41.3815 26.1889C41.294 26.8305 41.3723 27.4838 41.6088 28.0866C41.7043 28.3308 41.738 28.5947 41.707 28.855C41.676 29.1153 41.5812 29.364 41.4311 29.5789C41.1089 30.0514 40.8991 30.5915 40.8177 31.1576C40.7363 31.7237 40.7855 32.301 40.9616 32.8452C41.0595 33.1727 41.2553 33.4626 41.5226 33.6758C41.7899 33.889 42.116 34.0153 42.4572 34.038C42.7983 34.0606 43.1382 33.9784 43.4314 33.8023C43.7245 33.6263 43.9568 33.3649 44.0971 33.0531C44.5398 32.047 48.3627 32.3824 48.7014 31.4233C49.3017 29.7097 46.2467 26.7653 46.0186 25.4172C45.7738 23.9082 42.967 23.1537 42.1085 24.4213Z" fill="#FFEDC5"/>
<path d="M40.947 30.7391C40.1187 32.2314 41.9799 35.9671 46.1147 38.8444C46.3915 39.0617 46.7137 39.2141 47.0573 39.2901C47.4009 39.3662 47.7573 39.3639 48.0999 39.2837C48.8947 39.0556 49.4413 38.3346 49.837 37.6371C51.0946 35.3568 51.2824 32.8719 50.6519 30.3769C50.169 28.4688 49.116 26.5372 48.603 24.7029C48.3112 23.6499 48.0664 22.5969 47.8752 21.5439C47.829 21.2852 47.713 21.0441 47.5399 20.8464C47.333 20.601 47.0449 20.438 46.728 20.387C46.4111 20.3359 46.0864 20.4001 45.8129 20.568C45.1627 20.9474 44.6531 21.5276 44.3608 22.2213C43.6231 23.9684 43.7539 25.8296 45.9336 27.835" fill="#FFEDC5"/>
<path d="M40.947 30.7391C40.1187 32.2314 41.9799 35.9671 46.1147 38.8444C46.3915 39.0617 46.7137 39.2141 47.0573 39.2901C47.4009 39.3662 47.7573 39.3639 48.0999 39.2837C48.8947 39.0556 49.4413 38.3346 49.837 37.6371C51.0946 35.3568 51.2824 32.8719 50.6519 30.3769C50.169 28.4688 49.116 26.5372 48.603 24.7029C48.3112 23.6499 48.0664 22.5969 47.8752 21.5439C47.829 21.2852 47.713 21.0441 47.5399 20.8464C47.333 20.601 47.0449 20.438 46.728 20.387C46.4111 20.3359 46.0864 20.4001 45.8129 20.568C45.1627 20.9474 44.6531 21.5276 44.3608 22.2213C43.6231 23.9684 43.7539 25.8296 45.9336 27.835" stroke="#868686" stroke-width="1.3" stroke-linecap="round" stroke-linejoin="round"/>
<path d="M41.8139 25.4272C41.506 25.8953 41.3491 26.4466 41.3646 27.0067C41.4182 28.4655 42.8468 30.3434 44.7381 31.3662" stroke="#868686" stroke-width="1.3" stroke-linecap="round" stroke-linejoin="round"/>
<path d="M43.8505 8.4873L41.7144 8.94339L41.6708 11.1298L39.5312 11.5859" stroke="#868686" stroke-width="1.3" stroke-linecap="round" stroke-linejoin="round"/>
<path d="M14.8613 5.53784L16.1423 8.35809H19.2376L20.5186 11.1784" stroke="#868686" stroke-width="1.3" stroke-linecap="round" stroke-linejoin="round"/>
<path d="M36.7818 3.04612L34.9295 4.59817L35.5403 6.93594L33.6856 8.48721" stroke="#868686" stroke-width="1.3" stroke-linecap="round" stroke-linejoin="round"/>
<path d="M24.7557 8.35804L23.2131 4.82349" stroke="#868686" stroke-width="1.3" stroke-linecap="round" stroke-linejoin="round"/>
<path d="M15.4597 14.781L11.9777 13.1234" stroke="#868686" stroke-width="1.3" stroke-linecap="round" stroke-linejoin="round"/>
<path d="M36.9911 21.7385C36.8167 22.3388 36.6557 23.0095 36.7262 23.3482C36.7536 23.5016 36.8121 23.6477 36.8981 23.7777C36.984 23.9076 37.0957 24.0186 37.2261 24.1039C37.3565 24.1892 37.503 24.2469 37.6565 24.2735C37.81 24.3001 37.9674 24.2951 38.1189 24.2587C38.2704 24.2223 38.4129 24.1553 38.5376 24.0619C38.6622 23.9685 38.7665 23.8505 38.844 23.7153C38.9214 23.5801 38.9705 23.4305 38.9881 23.2757C39.0056 23.1209 38.9914 22.9641 38.9462 22.815C38.8834 22.587 38.7885 22.3691 38.6645 22.1678" stroke="#868686" stroke-width="1.3" stroke-linecap="round" stroke-linejoin="round"/>
<path d="M29.2696 11.6143C29.9034 13.9617 32.1603 15.5043 34.2395 15.4004C34.2998 14.4647 34.3602 12.2314 32.2811 10.8464C31.548 10.3443 30.7121 10.0121 29.8343 9.87406C28.9566 9.73599 28.0591 9.7955 27.2073 10.0483" fill="#FFF8F2"/>
<path d="M29.2696 11.6143C29.9034 13.9617 32.1603 15.5043 34.2395 15.4004C34.2998 14.4647 34.3602 12.2314 32.2811 10.8464C31.548 10.3443 30.7121 10.0121 29.8343 9.87406C28.9566 9.73599 28.0591 9.7955 27.2073 10.0483" stroke="#868686" stroke-width="1.3" stroke-linecap="round" stroke-linejoin="round"/>
</svg>
