<svg width="121" height="120" viewBox="0 0 121 120" fill="none" xmlns="http://www.w3.org/2000/svg">
<g id="Profile 02">
<circle id="Ellipse 212" cx="60.5" cy="60" r="60" fill="#F9F7F2"/>
<g id="Mask group">
<mask id="mask0_17_29187" style="mask-type:alpha" maskUnits="userSpaceOnUse" x="0" y="0" width="121" height="120">
<circle id="Ellipse 211" cx="60.5" cy="60" r="60" fill="#F9F7F2"/>
</mask>
<g mask="url(#mask0_17_29187)">
<g id="&#237;&#150;&#137;&#235;&#179;&#181;&#237;&#149;&#180;&#236;&#154;&#148;">
<g id="Group 217">
<path id="Vector" d="M56.3425 39.7677C72.6388 40.0462 82.7488 49.883 89.31 61.2538C90.2664 62.9003 91.1292 64.5983 91.9125 66.326C92.3269 67.2466 92.734 68.1673 93.1268 69.1025C97.9376 80.4731 101.242 93.0235 96.9816 105.34C90.1467 125.094 70.4221 127.96 47.8899 126.998C43.9476 126.835 40.0495 126.12 36.314 124.874C32.8374 123.745 29.5806 122.047 26.6814 119.851C17.9495 113.038 14.3797 103.395 14.1296 94.226C13.8192 82.6685 17.4041 74.8355 22.5912 64.5729C26.8911 56.0437 35.5327 46.4955 45.4132 42.1486C48.8322 40.5697 52.5652 39.7564 56.3425 39.7677Z" fill="white"/>
<path id="Vector_2" d="M77.768 47.3313C80.1419 49.2394 82.3002 51.3926 84.2055 53.7538C86.11 56.1159 87.8192 58.6238 89.3168 61.2534C90.2732 62.8999 91.136 64.5979 91.9193 66.3257C92.3337 67.2462 92.7408 68.1669 93.1336 69.1021C97.9444 80.4727 101.249 93.0232 96.9884 105.339C90.1535 125.094 61.4759 130.829 37.956 125.382" stroke="#868686" stroke-width="2.44" stroke-linecap="round" stroke-linejoin="round"/>
<path id="Vector_3" d="M50.2546 40.3799C52.1052 39.9522 54.0022 39.749 55.903 39.775C61.351 39.8083 66.7121 41.1127 71.5446 43.5806" stroke="#868686" stroke-width="2.44" stroke-linecap="round" stroke-linejoin="round"/>
<path id="Vector_4" d="M26.2304 119.859C9.96572 107.168 12.0222 84.7804 20.0855 68.2228C24.9149 58.294 32.302 48.8803 42.3608 43.432" stroke="#868686" stroke-width="2.44" stroke-linecap="round" stroke-linejoin="round"/>
</g>
<path id="Vector_5" d="M71.1158 85.8423C70.5589 84.6077 69.6575 83.56 68.5198 82.8251C67.3821 82.0901 66.0564 81.6992 64.702 81.6992C63.3475 81.6992 62.0219 82.0901 60.8841 82.8251C59.7464 83.56 58.845 84.6077 58.2881 85.8423C59.3135 88.6073 61.8238 91.8319 64.702 91.8319C67.5801 91.8319 70.0905 88.6073 71.1158 85.8423Z" fill="#FFABA3"/>
<g id="Vector_6">
<path d="M60.9077 43.7059C62.2037 42.1414 63.123 40.3003 63.5949 38.3244C64.5637 34.3502 63.708 30.475 61.6432 28C58.666 29.2446 56.1203 32.2712 55.1515 36.2595C54.1827 40.2479 55.0313 44.1089 57.0962 46.5769" fill="#FFF8F2"/>
<path d="M60.9077 43.7059C62.2037 42.1415 63.123 40.3003 63.5949 38.3244C64.5637 34.3502 63.708 30.475 61.6432 28C58.666 29.2446 56.1203 32.2712 55.1515 36.2595C54.1827 40.2479 55.0313 44.1089 57.0962 46.5769" stroke="#868686" stroke-width="2.44" stroke-linecap="round" stroke-linejoin="round"/>
</g>
<path id="Vector_7" d="M81.6784 93.2232C84.5831 93.1234 86.8933 91.744 86.8383 90.1422C86.7833 88.5404 84.384 87.3227 81.4792 87.4224C78.5745 87.5222 76.2643 88.9016 76.3193 90.5034C76.3743 92.1052 78.7737 93.3229 81.6784 93.2232Z" fill="#FFD1F6"/>
<path id="Vector_8" d="M41.6543 92.4163C44.4436 92.6475 46.8083 91.588 46.9358 90.0498C47.0633 88.5116 44.9054 87.0772 42.116 86.8459C39.3267 86.6147 36.9621 87.6742 36.8345 89.2124C36.707 90.7506 38.8649 92.1851 41.6543 92.4163Z" fill="#FFD1F6"/>
<path id="Star 1" d="M100.391 43.1259C100.407 43.0976 100.42 43.0881 100.429 43.0831C100.441 43.0759 100.461 43.0695 100.486 43.0695C100.511 43.0695 100.53 43.0759 100.543 43.0831C100.552 43.0881 100.565 43.0976 100.581 43.1259L103.637 48.7616C103.813 49.0857 104.057 49.3678 104.352 49.5883L105.082 48.6109L104.352 49.5883L109.549 53.4696C109.607 53.5127 109.607 53.5991 109.549 53.6422L104.352 57.5234C104.057 57.744 103.813 58.0261 103.637 58.3501L100.581 63.9859C100.565 64.0142 100.552 64.0237 100.543 64.0287C100.53 64.0359 100.511 64.0423 100.486 64.0423C100.461 64.0423 100.441 64.0359 100.429 64.0287C100.42 64.0237 100.407 64.0142 100.391 63.9859L97.3348 58.3502C97.1591 58.0261 96.9151 57.744 96.6198 57.5234L95.8897 58.5009L96.6198 57.5234L91.423 53.6422C91.3653 53.5991 91.3653 53.5127 91.423 53.4696L96.6198 49.5883L95.8897 48.6109L96.6198 49.5883C96.9151 49.3678 97.1591 49.0857 97.3348 48.7616L100.391 43.1259Z" fill="#FFFCC4" stroke="#868686" stroke-width="2.44"/>
<g id="Group 333">
<path id="Vector_9" d="M53.1249 76.536C54.2656 76.536 55.1903 75.6113 55.1903 74.4706C55.1903 73.33 54.2656 72.4053 53.1249 72.4053C51.9843 72.4053 51.0596 73.33 51.0596 74.4706C51.0596 75.6113 51.9843 76.536 53.1249 76.536Z" fill="#868686"/>
<path id="Vector_10" d="M73.7792 76.536C74.9199 76.536 75.8446 75.6113 75.8446 74.4706C75.8446 73.33 74.9199 72.4053 73.7792 72.4053C72.6386 72.4053 71.7139 73.33 71.7139 74.4706C71.7139 75.6113 72.6386 76.536 73.7792 76.536Z" fill="#868686"/>
<path id="Vector 486" d="M60.2539 74.5289C62.7522 73.0501 64.1518 73.1663 66.6499 74.5289" stroke="#575757" stroke-width="2.52269" stroke-linecap="round"/>
<path id="Ellipse 256" d="M60.254 73.463C60.254 81.7052 53.5724 86.2549 45.3301 86.2549C37.0879 86.2549 30.4063 81.7052 30.4063 73.463C30.4062 65.2207 37.0879 58.5391 45.3301 58.5391C53.5724 58.5391 60.254 65.2207 60.254 73.463Z" fill="#E3F4F9" fill-opacity="0.6" stroke="#575757" stroke-width="2.89151"/>
<path id="Ellipse 257" d="M96.4982 73.463C96.4982 81.7052 89.8165 86.7879 81.5743 86.7879C73.332 86.7879 66.6504 81.7052 66.6504 73.463C66.6504 65.2207 73.332 58.5391 81.5743 58.5391C89.8165 58.5391 96.4982 65.2207 96.4982 73.463Z" fill="#E3F4F9" fill-opacity="0.6" stroke="#575757" stroke-width="2.89151"/>
<path id="Vector 487" d="M40.0003 64.9351C38.579 65.7879 35.7363 68.261 35.7363 71.331" stroke="white" stroke-width="2.5817" stroke-linecap="round"/>
<path id="Vector 488" d="M87.9694 80.9248C89.3908 80.072 92.2334 77.5989 92.2334 74.5288" stroke="white" stroke-width="2.5817" stroke-linecap="round"/>
</g>
<g id="Group 335">
<path id="Vector 490" d="M39.9976 92.5428L17.7949 80.6669L22.9583 71.8892L44.6446 83.2486L39.9976 92.5428Z" fill="#F2FDF6"/>
<path id="Ellipse 258" d="M17.0502 80.7103C15.3927 79.8755 14.0665 78.5519 13.3634 77.0307C12.6602 75.5095 12.6376 73.9154 13.3007 72.5989C13.9637 71.2825 15.2581 70.3516 16.8989 70.0111C18.5398 69.6705 20.3928 69.9482 22.0503 70.783L19.5502 75.7466L17.0502 80.7103Z" fill="#B0F5CA"/>
<path id="Vector 489" d="M39.9972 93.0589L44.6444 83.7648L52.6476 93.059L39.9972 93.0589Z" fill="#FFECCF"/>
<path id="Polygon 1" d="M51.873 93.5752L47.6898 92.6652L49.184 89.8466L51.873 93.5752Z" fill="#868686"/>
<g id="Group">
<g id="Group_2">
<path id="Vector_11" d="M17.75 80.6265L22.7876 71.3441" stroke="#868686" stroke-width="2.44" stroke-linecap="round" stroke-linejoin="round"/>
<path id="Vector_12" d="M40.4258 91.4302L44.204 84.4684" stroke="#868686" stroke-width="2.44" stroke-linecap="round" stroke-linejoin="round"/>
</g>
<path id="Vector_13" d="M52.7568 93.6172L40.9556 93.2208L15.4292 79.3673C13.1086 78.1079 12.0474 74.5279 13.3068 72.2073C14.5662 69.8867 18.1462 68.8256 20.4668 70.085L45.9932 83.9384L52.7568 93.6172Z" stroke="#868686" stroke-width="2.44" stroke-linecap="round" stroke-linejoin="round"/>
</g>
</g>
<g id="Group 225">
<path id="Vector_14" d="M87.2041 84.6104C86.2992 85.5122 85.6487 86.6303 85.315 87.8576C84.9812 89.0849 84.9754 90.3802 85.298 91.6191C85.4274 92.1215 85.4292 92.6458 85.3033 93.1456C85.1774 93.6453 84.9276 94.1053 84.576 94.4848C83.8174 95.3217 83.2657 96.3203 82.963 97.4043C82.6602 98.4884 82.6144 99.6294 82.8289 100.74C83.3059 103.763 91.719 106.273 93.2938 103.664C96.4522 98.4634 96.2482 91.9179 96.0721 87.7168C95.9465 84.7489 89.222 82.3997 87.2041 84.6104Z" fill="#FBFFE7"/>
<g id="Vector_15">
<path d="M83.1418 96.759C81.1206 99.4481 83.9075 107.245 91.4285 113.982C91.9265 114.48 92.5307 114.863 93.1964 115.104C93.862 115.344 94.5721 115.435 95.2741 115.37C96.9154 115.139 98.1968 113.878 99.1356 112.621C102.205 108.517 103.198 103.712 102.561 98.6758C102.07 94.8214 100.452 90.7645 99.8877 87.0454C99.5503 84.8894 99.3139 82.7649 99.1784 80.6717C99.1532 80.1553 98.9836 79.6537 98.6881 79.2222C98.3422 78.682 97.809 78.2817 97.1888 78.0963C96.5685 77.911 95.9038 77.9535 95.3195 78.2158C93.9297 78.7771 92.7711 79.7718 92.0203 81.0481C90.1173 84.2563 89.9176 87.9218 93.762 92.4231" fill="#FBFFE7"/>
<path d="M83.1418 96.759C81.1206 99.4481 83.9075 107.245 91.4285 113.982C91.9265 114.48 92.5307 114.863 93.1964 115.104C93.862 115.344 94.5721 115.435 95.2741 115.37C96.9154 115.139 98.1968 113.878 99.1356 112.621C102.205 108.517 103.198 103.712 102.561 98.6758C102.07 94.8214 100.452 90.7645 99.8877 87.0454C99.5503 84.8894 99.3139 82.7649 99.1784 80.6717C99.1532 80.1553 98.9836 79.6537 98.6881 79.2222C98.3422 78.682 97.809 78.2817 97.1888 78.0963C96.5685 77.911 95.9038 77.9535 95.3195 78.2158C93.9297 78.7771 92.7711 79.7718 92.0203 81.0481C90.1173 84.2563 89.9176 87.9218 93.762 92.4231" stroke="#868686" stroke-width="2.44" stroke-linecap="round" stroke-linejoin="round"/>
</g>
<g id="Vector_16">
<path d="M86.1602 86.6324C85.4305 87.4629 84.9831 88.4981 84.8791 89.5964C84.6338 92.4613 87.0027 96.5048 90.511 99.0312" fill="#FBFFE7"/>
<path d="M86.1602 86.6324C85.4305 87.4629 84.9831 88.4981 84.8791 89.5964C84.6338 92.4613 87.0027 96.5048 90.511 99.0312" stroke="#868686" stroke-width="2.44" stroke-linecap="round" stroke-linejoin="round"/>
</g>
</g>
<g id="Group 224">
<path id="Vector_17" d="M35.2147 86.6699C35.5394 87.8834 35.5462 89.1602 35.2345 90.3771C34.9228 91.5941 34.303 92.7103 33.4348 93.6184C33.0847 93.988 32.8308 94.4381 32.6956 94.929C32.5603 95.4199 32.5478 95.9365 32.6592 96.4333C32.8934 97.5188 32.8766 98.6433 32.6102 99.7213C32.3437 100.799 31.8345 101.802 31.1215 102.653C29.2707 105.028 21.1983 104.557 21.1361 101.548C21.0092 95.5558 21.0796 88.1635 23.2466 84.6422C24.7851 82.1185 34.5981 83.7761 35.2147 86.6699Z" fill="#FBFFE7"/>
<g id="Vector_18">
<path d="M32.6732 98.8878C33.0719 102.198 26.9836 107.53 17.4423 109.674C16.7901 109.858 16.1052 109.893 15.4375 109.778C14.7698 109.664 14.1361 109.402 13.5825 109.011C12.313 108.022 11.8473 106.314 11.6656 104.778C11.0693 99.7604 12.5589 95.1515 15.5151 91.126C17.7791 88.0788 21.0976 85.3518 23.356 82.4284C24.6537 80.7511 25.8704 79.033 26.9853 77.2853C27.2461 76.8571 27.6201 76.5092 28.0661 76.28C28.6148 75.9833 29.2531 75.8972 29.8609 76.038C30.4686 76.1789 31.004 76.5369 31.3663 77.0448C32.2663 78.2094 32.7594 79.6371 32.7699 81.109C32.8115 84.7898 31.2142 88.0404 25.8272 90.0525" fill="#FBFFE7"/>
<path d="M32.6732 98.8878C33.0719 102.198 26.9836 107.53 17.4423 109.674C16.7901 109.858 16.1052 109.893 15.4375 109.778C14.7698 109.664 14.1361 109.402 13.5825 109.011C12.313 108.022 11.8473 106.314 11.6656 104.778C11.0693 99.7604 12.5589 95.1515 15.5151 91.126C17.7791 88.0788 21.0976 85.3518 23.356 82.4284C24.6537 80.7511 25.8704 79.033 26.9853 77.2853C27.2461 76.8571 27.6201 76.5092 28.0661 76.28C28.6148 75.9833 29.2531 75.8972 29.8609 76.038C30.4686 76.1789 31.004 76.5369 31.3663 77.0448C32.2663 78.2094 32.7594 79.6371 32.7699 81.109C32.8115 84.7898 31.2142 88.0404 25.8272 90.0525" stroke="#868686" stroke-width="2.44" stroke-linecap="round" stroke-linejoin="round"/>
</g>
<g id="Vector_19">
<path d="M35.0056 88.7427C35.2136 89.8087 35.0907 90.9128 34.6533 91.907C33.4875 94.5002 29.548 96.8255 25.3869 97.2906" fill="#FBFFE7"/>
<path d="M35.0056 88.7427C35.2136 89.8087 35.0907 90.9128 34.6533 91.907C33.4875 94.5002 29.548 96.8255 25.3869 97.2906" stroke="#868686" stroke-width="2.44" stroke-linecap="round" stroke-linejoin="round"/>
</g>
</g>
</g>
</g>
</g>
</g>
</svg>
