<svg width="57" height="56" viewBox="0 0 57 56" fill="none" xmlns="http://www.w3.org/2000/svg">
<path d="M30.7142 9.26833C38.1207 9.81375 42.4702 14.5384 45.166 19.8641C45.5551 20.6353 45.906 21.4274 46.2082 22.2333C46.375 22.6606 46.5348 23.0914 46.6876 23.5222C48.5879 28.8062 49.7656 34.5834 47.511 40.0619C43.898 48.8442 34.8448 49.6398 24.6138 48.6219C22.8266 48.4461 21.0727 48.0216 19.4028 47.3608C17.8533 46.7607 16.4149 45.9059 15.1471 44.8318C11.3605 41.5245 9.98127 37.0604 10.1202 32.8916C10.2766 27.6424 12.1074 24.1823 14.7337 19.6591C16.9084 15.9141 21.0877 11.8044 25.6942 10.0847C27.2896 9.45588 29.0017 9.17745 30.7142 9.26833Z" fill="white"/>
<path d="M45.5556 42.6362C40.6191 49.1708 29.0888 50.3658 19.6534 47.6179" stroke="#868686" stroke-width="1.32575" stroke-linecap="round" stroke-linejoin="round"/>
<path d="M39.7891 13.2355C41.8183 15.1118 43.4795 17.3503 44.6874 19.8362C45.0765 20.6109 45.4274 21.4029 45.7296 22.2054" stroke="#868686" stroke-width="1.32575" stroke-linecap="round" stroke-linejoin="round"/>
<path d="M27.651 9.38293C28.5031 9.23629 29.3698 9.19314 30.2322 9.2544C32.7073 9.40885 35.1124 10.138 37.2566 11.384" stroke="#868686" stroke-width="1.32575" stroke-linecap="round" stroke-linejoin="round"/>
<path d="M13.2067 21.2396C15.6628 16.8589 19.2653 12.7804 23.9761 10.564" stroke="#868686" stroke-width="1.32575" stroke-linecap="round" stroke-linejoin="round"/>
<path d="M16.6488 46.2282C14.5157 45.2798 12.6189 43.2336 11.7296 41.5244" stroke="#868686" stroke-width="1.32575" stroke-linecap="round" stroke-linejoin="round"/>
<path d="M33.4796 27.8C33.1918 27.1602 32.7252 26.6172 32.1361 26.2362C31.547 25.8553 30.8604 25.6526 30.1588 25.6526C29.4572 25.6526 28.7706 25.8553 28.1815 26.2362C27.5924 26.6172 27.1258 27.1602 26.838 27.8V27.8184C27.3655 29.2507 28.6697 30.9212 30.1606 30.9212C31.6516 30.9212 32.9521 29.2507 33.4796 27.8184V27.8Z" fill="#FFAFA7"/>
<path d="M35.4826 23.3592C35.4826 23.3592 34.2664 24.1102 33.3652 22.7035" stroke="#868686" stroke-width="1.32575" stroke-linecap="round" stroke-linejoin="round"/>
<path d="M26.9717 22.7878C26.9717 22.7878 26.294 24.0443 24.8104 23.2787" stroke="#868686" stroke-width="1.32575" stroke-linecap="round" stroke-linejoin="round"/>
<path d="M48.3028 39.0744C47.2672 38.6189 46.2545 37.7963 45.9857 36.3018C45.9379 36.0502 45.8289 35.8143 45.6683 35.6148C45.5077 35.4153 45.3004 35.2584 45.0648 35.158C44.5526 34.9336 44.0983 34.5952 43.7365 34.1687C43.3748 33.7422 43.1151 33.2388 42.9772 32.6968C42.5544 31.2417 46.3003 28.6526 47.549 29.5113C50.0365 31.222 49.6792 35.0171 50.4986 36.9409C50.6297 37.2458 50.6652 37.5833 50.6003 37.9087C50.5354 38.2342 50.3732 38.5323 50.1352 38.7636C49.8971 38.9948 49.5945 39.1484 49.2673 39.2039C48.9401 39.2594 48.6038 39.2142 48.3028 39.0744Z" fill="#DCF8FF"/>
<path d="M44.0543 34.4403C42.5927 33.6374 42.1994 29.5768 44.1264 25.0476C44.243 24.7242 44.4307 24.4311 44.6758 24.19C44.9208 23.9489 45.217 23.766 45.5422 23.6547C46.3189 23.4286 47.1547 23.74 47.8363 24.1168C50.0583 25.3491 51.5069 27.3122 52.2803 29.7046C52.8703 31.5334 53.0013 33.68 53.529 35.4661C53.8349 36.4886 54.1801 37.486 54.5646 38.4583C54.6644 38.6951 54.6951 38.9553 54.6531 39.2088C54.6085 39.5187 54.4544 39.8024 54.2188 40.0086C53.9832 40.2148 53.6815 40.3298 53.3684 40.3329C52.633 40.3574 51.9096 40.1423 51.307 39.72C49.7896 38.6549 48.9342 37.0491 49.6978 34.2568" fill="#DCF8FF"/>
<path d="M44.0543 34.4403C42.5927 33.6374 42.1994 29.5768 44.1264 25.0476C44.243 24.7242 44.4307 24.4311 44.6758 24.19C44.9208 23.9489 45.217 23.766 45.5422 23.6547C46.3189 23.4286 47.1547 23.74 47.8363 24.1168C50.0583 25.3491 51.5069 27.3122 52.2803 29.7046C52.8703 31.5334 53.0013 33.68 53.529 35.4661C53.8349 36.4886 54.1801 37.486 54.5646 38.4583C54.6644 38.6951 54.6951 38.9553 54.6531 39.2088C54.6085 39.5187 54.4544 39.8024 54.2188 40.0086C53.9832 40.2148 53.6815 40.3298 53.3684 40.3329C52.633 40.3574 51.9096 40.1423 51.307 39.72C49.7896 38.6549 48.9342 37.0491 49.6978 34.2568" stroke="#868686" stroke-width="1.32575" stroke-linecap="round" stroke-linejoin="round"/>
<path d="M47.5291 38.3861C47.0301 38.1593 46.6134 37.7839 46.3361 37.3111C45.6217 36.0723 45.8314 33.7782 46.8605 31.9429" stroke="#868686" stroke-width="1.32575" stroke-linecap="round" stroke-linejoin="round"/>
<path d="M8.77165 38.9925C9.39504 38.8347 9.96768 38.52 10.4351 38.0783C10.9024 37.6366 11.249 37.0827 11.4418 36.4692C11.5205 36.2208 11.6591 35.9957 11.8454 35.8135C12.0316 35.6313 12.2598 35.4977 12.5099 35.4245C13.0559 35.2613 13.5573 34.9752 13.9756 34.5881C14.3939 34.2011 14.718 33.7233 14.923 33.1916C15.5272 31.7731 12.2362 28.649 10.8711 29.3666C8.1475 30.7918 7.86714 34.7069 6.81576 36.566C6.64611 36.858 6.56902 37.1945 6.59466 37.5312C6.62031 37.8679 6.74748 38.1889 6.95938 38.4518C7.17129 38.7147 7.45796 38.9071 7.78153 39.0036C8.10509 39.1002 8.45033 39.0963 8.77165 38.9925Z" fill="#DCF8FF"/>
<path d="M13.6277 34.8137C15.2031 34.1796 16.1009 30.141 14.7024 25.308C14.6245 24.9669 14.471 24.6476 14.2532 24.3738C14.0354 24.1 13.7589 23.8786 13.4441 23.7259C12.6831 23.3921 11.8019 23.6157 11.0676 23.9128C8.66784 24.8874 6.96561 26.6965 5.89087 29.0195C5.06979 30.7985 4.67595 32.9546 3.92163 34.6936C3.48995 35.6927 3.01933 36.6595 2.50977 37.594C2.38311 37.8224 2.32082 38.0808 2.32954 38.3417C2.33653 38.6613 2.45793 38.9677 2.67169 39.2053C2.88544 39.443 3.17737 39.5961 3.4944 39.6367C4.23428 39.7501 4.99095 39.6201 5.65055 39.2662C7.31941 38.3751 8.37746 36.8564 7.9469 33.9259" fill="#DCF8FF"/>
<path d="M13.6277 34.8137C15.2031 34.1796 16.1009 30.141 14.7024 25.308C14.6245 24.9669 14.471 24.6476 14.2532 24.3738C14.0354 24.1 13.7589 23.8786 13.4441 23.7259C12.6831 23.3921 11.8019 23.6157 11.0676 23.9128C8.66784 24.8874 6.96561 26.6965 5.89087 29.0195C5.06979 30.7985 4.67595 32.9546 3.92163 34.6936C3.48995 35.6927 3.01933 36.6595 2.50977 37.594C2.38311 37.8224 2.32082 38.0808 2.32954 38.3417C2.33653 38.6613 2.45793 38.9677 2.67169 39.2053C2.88544 39.443 3.17737 39.5961 3.4944 39.6367C4.23428 39.7501 4.99095 39.6201 5.65055 39.2662C7.31941 38.3751 8.37746 36.8564 7.9469 33.9259" stroke="#868686" stroke-width="1.32575" stroke-linecap="round" stroke-linejoin="round"/>
<path d="M9.63501 38.3884C10.166 38.2188 10.632 37.8902 10.9701 37.4471C11.8446 36.2823 11.9147 33.9392 11.0969 31.9566" stroke="#868686" stroke-width="1.32575" stroke-linecap="round" stroke-linejoin="round"/>
<path d="M37.4838 25.5695C37.8098 26.2032 38.6304 27.4451 38.6304 28.0239C38.6396 28.1934 38.6141 28.363 38.5556 28.5223C38.4971 28.6816 38.4067 28.8273 38.2899 28.9506C38.1732 29.0738 38.0326 29.1719 37.8767 29.239C37.7207 29.3061 37.5528 29.3407 37.383 29.3407C37.2133 29.3407 37.0453 29.3061 36.8894 29.239C36.7335 29.1719 36.5929 29.0738 36.4761 28.9506C36.3594 28.8273 36.269 28.6816 36.2105 28.5223C36.1519 28.363 36.1265 28.1934 36.1357 28.0239C36.1429 27.7646 36.1886 27.5078 36.2712 27.2619" stroke="#868686" stroke-width="1.32575" stroke-linecap="round" stroke-linejoin="round"/>
<path d="M22.3794 26.379C22.0423 26.9725 21.687 27.6429 21.687 28.0238C21.6778 28.1933 21.7033 28.3629 21.7618 28.5223C21.8203 28.6816 21.9107 28.8273 22.0275 28.9505C22.1442 29.0738 22.2848 29.1719 22.4407 29.239C22.5967 29.3061 22.7646 29.3407 22.9344 29.3407C23.1041 29.3407 23.2721 29.3061 23.428 29.239C23.5839 29.1719 23.7245 29.0738 23.8413 28.9505C23.958 28.8273 24.0484 28.6816 24.1069 28.5223C24.1655 28.3629 24.1909 28.1933 24.1817 28.0238C24.1741 27.7649 24.1297 27.5083 24.0498 27.2619" stroke="#868686" stroke-width="1.32575" stroke-linecap="round" stroke-linejoin="round"/>
<path d="M31.0433 9.15541C32.0617 11.8333 34.7066 13.3169 36.9632 12.87C36.8972 11.749 36.6445 9.09314 34.1937 7.77801C33.3432 7.29679 32.3881 7.03057 31.4113 7.00248C30.4345 6.97439 29.4656 7.18528 28.5889 7.61683" fill="#FFF8F2"/>
<path d="M31.0433 9.15541C32.0617 11.8333 34.7066 13.3169 36.9632 12.87C36.8972 11.749 36.6445 9.09314 34.1937 7.77801C33.3432 7.29679 32.3881 7.03057 31.4113 7.00248C30.4345 6.97439 29.4656 7.18528 28.5889 7.61683" stroke="#868686" stroke-width="1.32575" stroke-linecap="round" stroke-linejoin="round"/>
</svg>
