<svg width="834" height="462" viewBox="0 0 834 462" fill="none" xmlns="http://www.w3.org/2000/svg">
<path d="M639 11H195C95.5887 11 15 91.5887 15 191V275C15 374.411 95.5887 455 195 455H639C738.411 455 819 374.411 819 275V191C819 91.5887 738.411 11 639 11Z" fill="#FFFDFA"/>
<g filter="url(#filter0_d_361_2623)">
<path d="M732.709 291.222C731.365 290.022 729.577 289.386 727.765 289.482C725.941 289.566 724.237 290.358 723.013 291.69C714.589 300.87 704.401 304.17 695.029 300.87C690.397 299.166 686.401 296.106 683.557 292.11C688.309 291.57 692.881 290.022 696.961 287.574C701.053 285.126 704.557 281.838 707.233 277.926C714.457 267.33 715.081 252.186 708.733 241.926C707.317 239.574 705.421 237.546 703.153 235.974C700.885 234.402 698.293 233.334 695.581 232.83C692.533 232.35 689.425 232.494 686.437 233.286C683.461 234.066 680.689 235.47 678.289 237.378C668.401 244.986 662.749 259.266 663.553 274.638C664.537 293.01 675.025 308.382 690.385 313.782C694.189 315.114 698.197 315.786 702.241 315.774C713.281 315.774 724.285 310.602 733.225 300.87C733.837 300.198 734.305 299.418 734.605 298.578C734.905 297.738 735.037 296.838 734.989 295.938C734.941 295.05 734.725 294.174 734.329 293.358C733.933 292.554 733.393 291.822 732.709 291.222ZM678.337 278.634H677.905C677.617 277.062 677.437 275.478 677.353 273.882C676.801 263.238 680.569 252.882 686.761 248.118C687.637 247.398 688.645 246.858 689.737 246.522C690.829 246.198 691.969 246.09 693.109 246.222C693.913 246.39 694.669 246.726 695.329 247.218C695.989 247.71 696.529 248.334 696.913 249.054C700.405 254.694 699.877 264.222 695.749 270.294C693.865 273.018 691.309 275.202 688.333 276.666C685.345 278.13 682.033 278.802 678.709 278.634H678.337Z" fill="#B3B9B5"/>
<path d="M639.972 236.17C637.812 234.55 635.292 233.47 632.616 233.026C629.94 232.582 627.192 232.786 624.612 233.626C619.68 235.402 615.516 238.786 612.804 243.226C610.08 238.786 605.916 235.402 600.984 233.626C598.404 232.786 595.656 232.57 592.98 233.014C590.292 233.458 587.76 234.538 585.6 236.17C574.404 244.21 572.688 258.526 571.548 267.994C570.108 280.102 568.704 294.419 569.304 308.927C569.376 310.691 570.132 312.358 571.416 313.582C572.712 314.794 574.416 315.478 576.204 315.478H576.48C577.392 315.442 578.28 315.238 579.096 314.854C579.924 314.482 580.668 313.954 581.28 313.294C581.892 312.634 582.372 311.866 582.684 311.026C582.996 310.174 583.14 309.286 583.104 308.386C582.54 294.826 583.884 281.182 585.276 269.626C586.404 260.206 587.916 251.41 593.724 247.222C594.108 246.862 594.588 246.61 595.104 246.502C595.62 246.394 596.16 246.431 596.652 246.611C598.932 247.355 601.464 250.306 602.424 253.342C603.384 256.378 603.636 262.331 603.876 267.611C604.2 274.883 604.5 281.734 606.276 286.75C606.756 288.094 607.632 289.246 608.796 290.074C609.972 290.89 611.364 291.334 612.792 291.334C614.232 291.334 615.624 290.89 616.788 290.074C617.964 289.246 618.84 288.094 619.308 286.75C621.072 281.734 621.396 274.882 621.72 267.622C621.96 262.33 622.224 256.33 623.172 253.342C624.12 250.354 626.7 247.355 628.944 246.611C629.436 246.431 629.976 246.394 630.504 246.502C631.02 246.622 631.5 246.862 631.884 247.222C637.716 251.41 639.204 260.206 640.332 269.626C641.712 281.182 643.056 294.826 642.504 308.386C642.468 309.286 642.6 310.174 642.924 311.026C643.236 311.866 643.704 312.634 644.328 313.294C644.94 313.954 645.672 314.482 646.5 314.854C647.316 315.238 648.216 315.442 649.116 315.478H649.392C651.18 315.478 652.896 314.794 654.18 313.582C655.464 312.358 656.22 310.691 656.292 308.927C656.892 294.419 655.488 280.102 654.048 267.994C652.884 258.526 651.168 244.21 639.972 236.17Z" fill="#B3B9B5"/>
<path d="M181.022 285.478C180.158 285.166 179.258 285.034 178.346 285.082C177.434 285.13 176.546 285.358 175.73 285.742C174.914 286.138 174.17 286.678 173.57 287.35C172.958 288.022 172.502 288.802 172.202 289.654C171.158 292.474 169.454 295.006 167.246 297.058C165.026 299.11 162.362 300.622 159.446 301.462C156.71 302.254 153.818 302.386 151.034 301.822C148.238 301.258 145.622 300.022 143.414 298.234C141.95 297.022 140.798 295.486 140.054 293.746C139.298 292.018 138.974 290.134 139.094 288.25C139.646 269.59 143.042 251.842 147.506 233.998C142.934 233.314 138.362 232.63 133.79 231.922C129.29 250.126 125.858 268.354 125.294 287.842C125.09 291.862 125.858 295.87 127.514 299.53C129.182 303.202 131.69 306.43 134.858 308.962C138.782 312.094 143.426 314.242 148.37 315.214C153.326 316.198 158.438 315.97 163.286 314.578C168.314 313.138 172.922 310.546 176.738 307.006C180.554 303.454 183.458 299.062 185.222 294.19C185.834 292.486 185.726 290.602 184.946 288.97C184.154 287.338 182.738 286.078 181.022 285.478Z" fill="#B3B9B5"/>
<path d="M168.349 226.256C182.893 225.548 197.125 221.876 210.157 215.48C217.021 212.036 223.969 207.896 227.125 198.776C228.145 195.668 228.325 192.368 227.665 189.176C223.165 190.1 218.653 190.988 214.141 191.84C214.321 192.668 214.296 193.532 214.056 194.36C212.688 198.32 209.652 200.408 203.892 203.324C192.576 208.808 180.265 211.976 167.689 212.612C162.901 212.84 158.113 212.78 153.337 212.42C154.033 209.948 154.717 207.464 155.437 204.968C156.709 200.468 158.005 195.896 159.289 191.264C164.749 171.356 176.509 156.392 197.353 142.686C211.285 133.535 224.845 124.288 237.793 111.812C240.037 109.64 241.633 108.881 242.305 108.698C242.881 110.02 243.145 111.455 243.085 112.894C243.037 128.858 229.897 143.035 213.145 145.172C212.245 145.286 211.381 145.576 210.589 146.021C209.809 146.467 209.112 147.062 208.56 147.772C208.008 148.481 207.601 149.292 207.361 150.157C207.133 151.022 207.061 151.925 207.181 152.814C207.301 153.703 207.588 154.561 208.044 155.336C208.488 156.116 209.089 156.8 209.809 157.34C210.529 157.892 211.344 158.3 212.22 158.528C213.096 158.768 214.008 158.828 214.908 158.708C238.392 155.732 256.836 135.628 256.908 112.938C256.908 103.342 252.169 96.3625 244.789 95.1757C239.497 94.3033 233.701 96.6936 228.157 102.042C216.049 113.68 203.064 122.534 189.744 131.31C166.212 146.76 152.293 164.648 145.933 187.616C144.649 192.224 143.365 196.76 142.105 201.248C141.217 204.392 140.341 207.488 139.453 210.584C128.053 208.436 117.529 204.752 109.462 199.76C107.912 198.836 106.057 198.548 104.297 198.968C102.538 199.388 101.014 200.468 100.054 201.992C99.0929 203.504 98.7725 205.328 99.1613 207.08C99.5501 208.832 100.617 210.356 102.133 211.328C117.625 220.928 139.465 226.376 161.629 226.376C163.861 226.424 166.105 226.376 168.349 226.256Z" fill="#B3B9B5"/>
<path d="M229.297 166.874C225.529 169.526 221.161 171.23 216.577 171.866C211.549 172.73 206.449 172.694 200.869 172.73C199.033 172.73 197.281 173.45 195.985 174.734C194.689 176.018 193.969 177.758 193.969 179.57C193.969 181.382 194.689 183.11 195.985 184.394C197.281 185.678 199.033 186.398 200.869 186.398H201.961C207.601 186.518 213.253 186.158 218.845 185.33C226.333 184.094 232.669 181.526 237.697 177.698C244.201 172.754 248.185 165.662 248.341 158.738C248.401 155.81 247.753 152.915 246.445 150.289C242.473 152.82 238.477 155.33 234.457 157.814C234.505 158.018 234.529 158.21 234.541 158.414C234.493 161.162 232.429 164.486 229.297 166.874Z" fill="#B3B9B5"/>
<path d="M538.526 287.018C538.778 284.834 538.754 282.626 538.454 280.442C538.454 280.046 538.454 279.662 538.454 279.266C538.322 265.826 538.178 250.586 536.69 239.414C536.45 237.614 535.49 235.994 534.038 234.89C532.586 233.798 530.75 233.318 528.926 233.558C527.114 233.798 525.47 234.734 524.366 236.174C523.25 237.614 522.758 239.438 523.01 241.226C523.178 242.498 523.322 243.842 523.466 245.234C519.398 242.75 514.718 241.442 509.942 241.442C494.378 241.442 481.718 255.506 481.718 272.798C481.718 281.69 486.086 291.314 492.098 295.682C492.83 296.21 493.658 296.594 494.534 296.81C495.422 297.026 496.334 297.062 497.234 296.93C498.122 296.786 498.986 296.486 499.766 296.018C500.534 295.55 501.218 294.938 501.746 294.218C502.286 293.486 502.67 292.67 502.886 291.794C503.102 290.93 503.138 290.018 502.994 289.13C502.862 288.242 502.538 287.402 502.07 286.634C501.59 285.866 500.978 285.194 500.246 284.666C498.302 283.262 495.494 278.222 495.494 272.798C495.494 263.042 501.998 255.11 509.978 255.11C517.958 255.11 524.45 263.042 524.45 272.798C524.462 273.194 524.498 273.59 524.582 273.986C524.582 275.81 524.618 277.622 524.642 279.398C524.642 281.63 524.642 283.766 524.714 285.938C524.27 288.53 523.046 290.93 521.186 292.814C515.234 299.114 504.23 302.018 496.742 301.538C484.346 300.662 474.998 292.142 473.51 280.226C473.138 277.298 473.018 274.118 472.886 270.818C472.37 257.666 471.578 237.818 447.902 235.322C440.654 234.602 433.37 236.102 427.022 239.618C426.806 237.878 425.906 236.282 424.526 235.178C423.134 234.074 421.37 233.534 419.606 233.69C417.83 233.834 416.186 234.662 415.01 235.982C413.834 237.314 413.234 239.03 413.306 240.794C413.57 245.582 413.654 252.134 413.57 258.626C413.438 259.67 413.366 260.726 413.366 261.782C413.366 262.226 413.402 262.67 413.498 263.114C413.402 267.422 413.222 271.526 412.982 274.814C412.826 277.046 412.802 279.446 412.79 281.918C412.79 288.89 412.73 296.138 408.674 299.546C407.726 300.35 406.622 300.95 405.434 301.298C404.234 301.646 402.974 301.73 401.75 301.55C400.262 301.322 398.834 300.794 397.574 299.99C396.302 299.198 395.222 298.142 394.382 296.906C390.062 290.582 389.33 281.954 388.922 272.906C388.622 266.402 388.634 259.718 388.67 253.238C388.67 248.654 388.67 244.058 388.598 239.474C388.598 239.222 388.538 238.982 388.514 238.742C388.49 238.502 388.514 238.358 388.442 238.178C388.358 237.77 388.238 237.386 388.07 237.002C388.07 237.002 388.07 236.966 388.07 236.942C387.59 235.706 386.726 234.638 385.598 233.894C384.482 233.15 383.162 232.766 381.806 232.778H381.578C381.35 232.778 381.146 232.838 380.906 232.862C380.678 232.886 380.474 232.862 380.258 232.934C380.042 233.018 379.826 233.066 379.61 233.138C379.406 233.21 379.178 233.258 378.974 233.354C378.782 233.438 378.59 233.546 378.41 233.654C378.206 233.762 377.99 233.858 377.798 233.99C377.606 234.122 377.474 234.254 377.318 234.386C377.162 234.518 376.946 234.674 376.778 234.83C376.61 234.986 376.526 235.154 376.382 235.31C376.25 235.466 376.082 235.658 375.95 235.85C375.818 236.042 375.746 236.234 375.65 236.414C375.53 236.606 375.422 236.81 375.338 237.014C375.254 237.23 375.194 237.458 375.122 237.674C375.05 237.89 374.978 238.082 374.942 238.298C374.906 238.55 374.882 238.79 374.87 239.042C374.87 239.234 374.81 239.426 374.81 239.618C374.81 254.498 373.43 267.374 370.61 279.002C367.082 293.402 362.066 300.554 354.734 301.502C349.25 302.21 344.522 299.678 340.19 293.51C344.942 286.958 348.794 279.818 351.65 272.27C354.866 263.846 356.978 255.05 357.938 246.098C359.702 230.51 357.986 216.674 352.97 204.986C349.142 196.058 342.818 190.946 335.594 190.946C331.082 191.078 326.81 192.962 323.678 196.178C319.094 200.606 316.91 206.402 315.518 210.95C309.482 230.702 310.094 253.118 317.282 275.786C318.938 281.282 320.978 286.658 323.39 291.878C319.202 296.09 314.018 299.222 308.318 300.986C297.122 304.25 285.854 301.274 278.822 293.606C291.842 276.686 297.77 252.926 298.73 232.07C299.042 225.506 299.162 217.814 297.734 210.506C294.974 196.43 286.418 188.318 276.002 189.878C261.014 192.098 253.61 210.482 251.858 225.554C250.49 237.302 251.486 249.434 252.506 258.698C253.982 272.102 256.91 283.13 261.482 292.13C258.026 295.262 254.03 297.758 249.686 299.498C239.246 303.614 227.846 303.074 219.938 298.058C217.574 296.57 215.498 294.662 213.818 292.442C218.606 291.926 223.214 290.378 227.33 287.918C231.458 285.458 234.986 282.134 237.674 278.186C244.898 267.59 245.522 252.446 239.174 242.198C237.77 239.834 235.874 237.794 233.618 236.222C231.35 234.65 228.782 233.57 226.058 233.054C223.01 232.574 219.902 232.73 216.926 233.51C213.938 234.302 211.166 235.694 208.766 237.602C198.878 245.21 193.238 259.49 194.042 274.862C195.086 294.518 204.626 304.526 212.486 309.518C219.386 313.778 227.378 315.986 235.502 315.89C242.126 315.866 248.666 314.582 254.798 312.134C260.078 310.046 264.986 307.118 269.33 303.494C279.914 314.306 296.426 318.638 312.194 314.042C319.058 312.002 325.382 308.498 330.722 303.782C336.734 311.186 345.05 316.514 356.498 315.038C368.258 313.526 375.026 305.15 378.986 296.942C380.006 299.63 381.326 302.186 382.934 304.562C384.854 307.394 387.35 309.794 390.266 311.606C393.182 313.418 396.446 314.594 399.854 315.086C402.998 315.518 406.214 315.29 409.274 314.414C412.334 313.526 415.166 312.014 417.59 309.974C426.494 302.498 426.554 291.122 426.59 281.99C426.59 279.83 426.59 277.73 426.746 275.798C427.07 271.442 427.274 265.754 427.358 259.934C427.778 257.414 429.074 255.122 431.042 253.454C434.81 250.082 440.87 248.258 446.45 248.882C457.298 250.034 458.486 255.626 459.11 271.334C459.242 274.826 459.386 278.39 459.818 281.882C462.122 300.194 476.93 313.874 495.83 315.146C496.646 315.194 497.486 315.218 498.362 315.218C507.926 315.134 517.262 312.314 525.266 307.13C525.446 318.794 524.438 330.59 518.546 338.126C512.654 345.674 501.974 346.622 494.63 344.15C492.566 343.466 485.81 340.742 485.81 335.09C485.81 333.278 485.078 331.55 483.782 330.266C482.486 328.982 480.734 328.262 478.898 328.262C477.074 328.262 475.31 328.982 474.014 330.266C472.718 331.55 471.998 333.278 471.998 335.09C471.998 344.882 478.958 353.306 490.154 357.074C494.054 358.37 498.134 359.018 502.25 359.006C511.958 359.006 522.446 355.466 529.454 346.478C539.534 333.554 539.558 315.002 538.79 298.634C538.67 295.214 538.598 291.278 538.526 287.018ZM209.15 278.918H208.274C208.01 277.346 207.842 275.762 207.77 274.178C207.206 263.51 210.974 253.166 217.166 248.402C218.042 247.682 219.05 247.13 220.142 246.806C221.234 246.482 222.374 246.374 223.514 246.506C224.318 246.674 225.074 247.01 225.734 247.502C226.394 247.994 226.934 248.618 227.318 249.338C230.846 254.978 230.282 264.506 226.154 270.59C224.27 273.302 221.714 275.486 218.738 276.938C215.774 278.402 212.462 279.074 209.15 278.918ZM266.186 257.186C265.238 248.63 264.326 237.47 265.538 227.066C266.81 216.122 271.814 204.254 277.994 203.342H278.318C281.174 203.342 283.346 209.078 284.126 213.086C285.29 218.978 285.17 225.65 284.894 231.398C284.162 247.202 280.046 265.946 271.262 280.166C268.634 272.738 266.942 265.022 266.222 257.186H266.186ZM333.038 279.23C332.162 276.902 331.274 274.37 330.398 271.646C325.982 257.69 322.058 236.486 328.67 214.874C329.558 211.886 330.938 208.154 333.266 205.898C333.866 205.226 334.67 204.758 335.558 204.578C336.65 204.578 338.69 206.714 340.226 210.29C344.306 219.806 345.638 231.362 344.174 244.598C343.334 252.398 341.498 260.066 338.702 267.41C337.154 271.49 335.27 275.438 333.074 279.23H333.038Z" fill="#B3B9B5"/>
<path d="M381.961 226.168C383.545 226.168 385.081 225.7 386.401 224.836C387.709 223.96 388.741 222.724 389.341 221.284C389.953 219.844 390.109 218.248 389.797 216.712C389.485 215.188 388.729 213.772 387.613 212.668C386.497 211.564 385.069 210.808 383.521 210.508C381.973 210.208 380.365 210.364 378.901 210.952C377.437 211.552 376.189 212.572 375.313 213.868C374.437 215.164 373.969 216.7 373.969 218.26C373.969 220.36 374.809 222.364 376.309 223.852C377.809 225.328 379.837 226.168 381.961 226.168Z" fill="#B3B9B5"/>
</g>
<defs>
<filter id="filter0_d_361_2623" x="0.586197" y="0.522747" width="832.826" height="460.833" filterUnits="userSpaceOnUse" color-interpolation-filters="sRGB">
<feFlood flood-opacity="0" result="BackgroundImageFix"/>
<feColorMatrix in="SourceAlpha" type="matrix" values="0 0 0 0 0 0 0 0 0 0 0 0 0 0 0 0 0 0 127 0" result="hardAlpha"/>
<feOffset dy="3.93655"/>
<feGaussianBlur stdDeviation="49.2069"/>
<feComposite in2="hardAlpha" operator="out"/>
<feColorMatrix type="matrix" values="0 0 0 0 0.679896 0 0 0 0 0.891667 0 0 0 0 0.823153 0 0 0 0.8 0"/>
<feBlend mode="normal" in2="BackgroundImageFix" result="effect1_dropShadow_361_2623"/>
<feBlend mode="normal" in="SourceGraphic" in2="effect1_dropShadow_361_2623" result="shape"/>
</filter>
</defs>
</svg>
