<svg width="57" height="56" viewBox="0 0 57 56" fill="none" xmlns="http://www.w3.org/2000/svg">
<path d="M50.0037 48.5543C50.0037 48.5543 44.9662 49.1234 44.5612 44.8423C41.773 44.5779 40.7253 42.0976 40.8458 39.1855C46.8004 40.7688 50.566 46.7468 50.0037 48.5543Z" fill="#CFFFE2"/>
<path d="M42.5747 44.0557C40.7672 43.2959 39.83 38.2283 42.4475 32.3406C43.8543 32.5682 45.2063 33.0563 46.434 33.7799C48.1712 34.784 49.3427 36.143 50.3101 38.3287C51.1034 40.1194 51.4682 42.2851 52.1912 44.0189C52.6062 45.0231 53.0615 46.0005 53.5568 46.941C53.681 47.1706 53.7389 47.4302 53.7242 47.6908C53.719 48.0099 53.598 48.3162 53.3837 48.5526C53.1694 48.7891 52.8764 48.9396 52.5594 48.9761C51.8242 49.0844 51.0739 48.948 50.4239 48.5878C48.7871 47.6774 47.7461 46.1444 48.2147 43.2323" fill="#CFFFE2"/>
<path d="M42.5747 44.0557C40.7672 43.2959 39.83 38.2283 42.4475 32.3406C43.8543 32.5682 45.2063 33.0563 46.434 33.7799C48.1712 34.784 49.3427 36.143 50.3101 38.3287C51.1034 40.1194 51.4682 42.2851 52.1912 44.0189C52.6062 45.0231 53.0615 46.0005 53.5568 46.941C53.681 47.1706 53.7389 47.4302 53.7242 47.6908C53.719 48.0099 53.598 48.3162 53.3837 48.5526C53.1694 48.7891 52.8764 48.9396 52.5594 48.9761C51.8242 49.0844 51.0739 48.948 50.4239 48.5878C48.7871 47.6774 47.7461 46.1444 48.2147 43.2323" stroke="#868686" stroke-width="1.3" stroke-linecap="round" stroke-linejoin="round"/>
<path d="M46.5036 47.6672C45.9779 47.4895 45.5189 47.1555 45.1882 46.7099C44.338 45.5351 44.2978 43.182 45.1313 41.2004" stroke="#868686" stroke-width="1.3" stroke-linecap="round" stroke-linejoin="round"/>
<path d="M30.3915 12.9034C37.5822 13.5461 41.7158 18.2589 44.2396 23.5642C44.6031 24.334 44.932 25.1206 45.2194 25.9072C45.3717 26.3323 45.5171 26.7574 45.6591 27.1858C47.3901 32.4309 48.4287 38.1512 46.1437 43.5268C42.4636 52.1458 33.6493 52.8052 23.7236 51.6605C21.9847 51.4552 20.2863 51.0041 18.6829 50.3216C17.1786 49.7034 15.7955 48.8395 14.5943 47.7677C10.9661 44.444 9.70937 40.019 9.91017 35.8919C10.1629 30.7138 12.0082 27.3231 14.6462 22.8948C16.8308 19.2128 20.9713 15.2263 25.4824 13.5963C27.0438 13.0106 28.722 12.7737 30.3915 12.9034Z" fill="white"/>
<path d="M40.5289 17.6901C42.38 19.7 43.8276 22.0258 44.7975 24.5485C45.1207 25.3384 45.4011 26.1406 45.6388 26.9551C45.7669 27.3869 45.8881 27.822 46.0058 28.2571C47.4391 33.6126 48.128 39.3665 45.4657 44.5948C41.2005 52.9828 28.0863 53.8732 17.9599 50.0909" stroke="#868686" stroke-width="1.3" stroke-linecap="round" stroke-linejoin="round"/>
<path d="M28.9245 13.0307C29.773 12.9474 30.6289 12.9665 31.4725 13.0876C33.8969 13.4207 36.2029 14.3127 38.1958 15.6884" stroke="#868686" stroke-width="1.3" stroke-linecap="round" stroke-linejoin="round"/>
<path d="M14.5905 47.7944C7.28212 41.562 9.15854 30.5598 13.77 23.6712C16.5396 19.5375 20.4101 15.7786 25.2223 13.9376" stroke="#868686" stroke-width="1.3" stroke-linecap="round" stroke-linejoin="round"/>
<path d="M31.2342 31.4872C30.978 30.9053 30.558 30.4105 30.0255 30.0631C29.493 29.7157 28.8709 29.5308 28.2351 29.5308C27.5993 29.5308 26.9772 29.7157 26.4447 30.0631C25.9122 30.4105 25.4922 30.9053 25.236 31.4872V31.504C25.7147 32.8127 26.9096 34.339 28.2485 34.339C29.5874 34.339 30.7689 32.816 31.261 31.504L31.2342 31.4872Z" fill="#FFAFA7"/>
<path d="M31.6629 15.0624C34.2738 15.3068 36.5599 13.7236 37.0988 11.7152C35.7097 11.1328 31.1542 9.94792 28.8848 14.393" fill="#FFF8F2"/>
<path d="M31.6629 15.0624C34.2738 15.3068 36.5599 13.7236 37.0988 11.7152C35.7097 11.1328 31.1542 9.94792 28.8848 14.393" stroke="#868686" stroke-width="1.3" stroke-linecap="round" stroke-linejoin="round"/>
<path d="M33.4092 27.0858C33.4092 27.0858 32.5255 28.0331 31.4009 27.0089" stroke="#868686" stroke-width="1.3" stroke-linecap="round" stroke-linejoin="round"/>
<path d="M25.4401 27.0858C25.4401 27.0858 24.5565 28.0331 23.4318 27.0089" stroke="#868686" stroke-width="1.3" stroke-linecap="round" stroke-linejoin="round"/>
<path d="M19.2197 32.7691C19.3034 33.9206 19.049 35.2293 17.844 36.1866C17.6419 36.3518 17.483 36.5636 17.3809 36.8038C17.2789 37.0441 17.2368 37.3055 17.2582 37.5657C17.3019 38.1343 17.2158 38.7055 17.0065 39.2361C16.7972 39.7666 16.4701 40.2427 16.0499 40.6283C14.9554 41.7061 11.5312 40.6618 11.6986 39.1254C12.0333 36.0628 13.5931 33.5524 14.9252 31.9056C15.8892 30.7273 19.1092 31.2529 19.2197 32.7691Z" fill="#CFFFE2"/>
<path d="M17.097 38.8175C17.0702 40.5212 13.636 42.8341 8.6855 43.2592C8.33949 43.3108 7.98629 43.2827 7.65277 43.1771C7.31925 43.0716 7.0142 42.8913 6.76087 42.65C6.1952 42.0576 6.0747 41.1572 6.09143 40.3606C6.15144 37.8413 7.18283 35.4427 8.97002 33.6662C10.3089 32.257 12.1766 31.1089 13.5188 29.7767C14.2854 29.0136 15.015 28.2236 15.6979 27.4069C15.8632 27.207 16.0794 27.0555 16.3238 26.9684C16.6219 26.8577 16.9502 26.8599 17.2468 26.9746C17.5434 27.0893 17.7877 27.3086 17.9338 27.591C18.3035 28.244 18.4526 28.9988 18.3589 29.7433C18.1313 31.621 17.1003 33.1641 14.2519 33.8135" fill="#CFFFE2"/>
<path d="M17.097 38.8175C17.0702 40.5212 13.636 42.8341 8.6855 43.2592C8.33949 43.3108 7.98629 43.2827 7.65277 43.1771C7.31925 43.0715 7.0142 42.8913 6.76087 42.65C6.1952 42.0576 6.0747 41.1572 6.09143 40.3606C6.15144 37.8413 7.18283 35.4427 8.97002 33.6662C10.3089 32.257 12.1766 31.1089 13.5188 29.7767C14.2854 29.0136 15.015 28.2236 15.6979 27.4069C15.8632 27.207 16.0794 27.0555 16.3238 26.9684C16.6219 26.8577 16.9502 26.8599 17.2468 26.9746C17.5434 27.0893 17.7877 27.3086 17.9338 27.591C18.3035 28.244 18.4526 28.9988 18.3589 29.7433C18.1313 31.621 17.1003 33.1641 14.2519 33.8135" stroke="#868686" stroke-width="1.3" stroke-linecap="round" stroke-linejoin="round"/>
<path d="M18.9712 33.7966C19.0027 34.3542 18.8651 34.9084 18.5762 35.3865C17.8097 36.6249 15.6675 37.5354 13.5554 37.4885" stroke="#868686" stroke-width="1.3" stroke-linecap="round" stroke-linejoin="round"/>
<path d="M37.4124 24.7412C38.0818 24.7412 38.6006 26.3612 38.6006 27.2382C38.6006 28.1152 38.0684 28.8281 37.4124 28.8281C36.7563 28.8281 36.2208 28.1185 36.2208 27.2449C36.2284 26.9387 36.2711 26.6343 36.348 26.3378" stroke="#868686" stroke-width="1.3" stroke-linecap="round" stroke-linejoin="round"/>
<path d="M51.2879 6.5651C53.2989 10.3138 51.7874 12.9173 49.9135 14.5395C47.9624 16.2286 45.1346 15.4671 43.3451 13.6076V13.6076L43.28 13.5388C41.3897 11.5415 41.5418 8.3722 43.6148 6.5651V6.5651L43.7595 6.44951C45.3389 5.18758 47.6171 5.32584 49.0324 6.76951V6.76951C50.3446 8.10814 50.532 10.186 49.4804 11.7378L49.3285 11.9619L49.2699 12.0295C48.0409 13.4466 45.8394 13.4396 44.6195 12.0146L44.4826 11.8547C43.7889 11.0446 43.6285 9.90546 44.0714 8.93522L44.1876 8.68069C44.4268 8.15672 44.8715 7.7546 45.4168 7.56917L45.7225 7.46524C46.4383 7.22182 47.2284 7.48956 47.6488 8.11802V8.11802C48.2492 9.01544 47.8533 10.2381 46.8409 10.6134L45.9691 10.9365" stroke="#868686" stroke-width="1.2" stroke-linecap="round"/>
<path d="M12.1423 14.8581C13.8536 18.0481 12.5673 20.2636 10.9727 21.644C9.31239 23.0814 6.90602 22.4334 5.38328 20.851V20.851L5.3279 20.7925C3.71926 19.0928 3.84873 16.3959 5.61278 14.8581V14.8581L5.73589 14.7597C7.07992 13.6859 9.01861 13.8035 10.2229 15.032V15.032C11.3396 16.1712 11.499 17.9393 10.6042 19.2598L10.4749 19.4506L10.4251 19.5081C9.37923 20.714 7.50585 20.708 6.4677 19.4955L6.3512 19.3594C5.76093 18.67 5.62442 17.7006 6.00133 16.875L6.1002 16.6584C6.30374 16.2125 6.68217 15.8703 7.14622 15.7125L7.40632 15.6241C8.01549 15.4169 8.68784 15.6448 9.0456 16.1796V16.1796C9.55647 16.9432 9.21961 17.9837 8.35809 18.303L7.61617 18.578" stroke="#868686" stroke-linecap="round"/>
</svg>
