<svg width="325" height="180" viewBox="0 0 325 180" fill="none" xmlns="http://www.w3.org/2000/svg">
<rect width="325" height="180" rx="16" fill="#F9F7F2"/>
<path d="M98.8767 68.3974C98.3851 70.8409 98.5803 73.7109 100.937 76.0965C101.327 76.5047 101.612 77.0016 101.767 77.5445C101.922 78.0873 101.942 78.6598 101.826 79.2123C101.577 80.4207 101.609 81.6702 101.918 82.8645C102.228 84.0589 102.807 85.1663 103.612 86.1017C105.694 88.7114 113.364 87.3379 113.407 83.998C113.48 77.3399 107.942 71.065 105.499 67.1757C105.115 66.5574 104.555 66.0691 103.889 65.7746C103.224 65.4802 102.486 65.3933 101.77 65.5253C101.055 65.6572 100.396 66.002 99.88 66.5144C99.3637 67.0268 99.014 67.6831 98.8767 68.3974Z" fill="#F379AC"/>
<path d="M101.837 81.9381C101.433 85.596 108.25 91.4734 118.869 93.7506C119.604 93.957 120.376 93.9946 121.127 93.8606C121.878 93.7267 122.589 93.4246 123.207 92.977C124.602 91.8565 125.101 89.9552 125.289 88.2491C125.896 82.6754 124.19 77.5716 120.865 73.1329C118.32 69.7424 114.611 66.7784 112.067 63.5542C110.621 61.7084 109.259 59.8191 107.982 57.8865C107.68 57.4095 107.252 57.0245 106.746 56.7732C106.13 56.4583 105.421 56.3749 104.749 56.5381C104.076 56.7012 103.484 57.1002 103.081 57.6624C102.103 58.9577 101.573 60.5359 101.57 62.159C101.57 66.2435 103.37 69.8364 109.378 72.0051" fill="#F379AC"/>
<path d="M98.8767 68.3974L99.5139 68.5256L99.515 68.5201L98.8767 68.3974ZM100.937 76.0965L101.407 75.6474L101.399 75.6397L100.937 76.0965ZM101.826 79.2123L101.19 79.0789L101.19 79.0811L101.826 79.2123ZM103.612 86.1017L104.12 85.6963L104.112 85.6869L104.105 85.6778L103.612 86.1017ZM113.407 83.998L114.057 84.0064L114.057 84.0051L113.407 83.998ZM105.499 67.1757L104.946 67.5181L104.948 67.5215L105.499 67.1757ZM102.484 82.0096C102.523 81.6528 102.266 81.3315 101.909 81.292C101.552 81.2525 101.231 81.5098 101.191 81.8666L102.484 82.0096ZM118.869 93.7506L119.045 93.1248C119.032 93.1211 119.019 93.1179 119.006 93.115L118.869 93.7506ZM123.207 92.977L123.588 93.5034C123.597 93.4971 123.606 93.4906 123.614 93.4838L123.207 92.977ZM125.289 88.2491L125.935 88.3203L125.935 88.3195L125.289 88.2491ZM120.865 73.1329L121.385 72.7432L121.385 72.7427L120.865 73.1329ZM112.067 63.5542L111.555 63.955L111.557 63.9569L112.067 63.5542ZM107.982 57.8865L107.433 58.2349L107.44 58.2449L107.982 57.8865ZM106.746 56.7732L106.45 57.3521L106.457 57.3554L106.746 56.7732ZM103.081 57.6624L103.6 58.0541C103.603 58.0499 103.606 58.0456 103.609 58.0414L103.081 57.6624ZM101.57 62.159L100.92 62.1579V62.159H101.57ZM109.157 72.6165C109.494 72.7384 109.867 72.5635 109.989 72.2259C110.111 71.8882 109.936 71.5157 109.598 71.3938L109.157 72.6165ZM98.2394 68.2692C97.7219 70.8418 97.9149 73.9622 100.475 76.5533L101.399 75.6397C99.2457 73.4595 99.0483 70.84 99.5139 68.5256L98.2394 68.2692ZM100.467 76.5455C100.784 76.8774 101.016 77.2815 101.142 77.7229L102.392 77.3661C102.208 76.7218 101.87 76.1319 101.407 75.6474L100.467 76.5455ZM101.142 77.7229C101.268 78.1642 101.284 78.6297 101.19 79.0789L102.462 79.3457C102.6 78.6899 102.576 78.0104 102.392 77.3661L101.142 77.7229ZM101.19 79.0811C100.921 80.3869 100.955 81.737 101.289 83.0276L102.547 82.7015C102.263 81.6033 102.234 80.4545 102.463 79.3435L101.19 79.0811ZM101.289 83.0276C101.624 84.3182 102.25 85.5149 103.119 86.5256L104.105 85.6778C103.365 84.8178 102.832 83.7996 102.547 82.7015L101.289 83.0276ZM103.104 86.5071C103.76 87.33 104.804 87.7821 105.897 87.983C107.002 88.186 108.241 88.1493 109.401 87.9185C110.557 87.6882 111.682 87.2554 112.537 86.6262C113.391 85.9971 114.043 85.1159 114.057 84.0064L112.757 83.9896C112.75 84.55 112.427 85.093 111.766 85.5792C111.105 86.0654 110.174 86.4391 109.147 86.6435C108.124 86.8472 107.052 86.8734 106.132 86.7044C105.2 86.5331 104.504 86.1782 104.12 85.6963L103.104 86.5071ZM114.057 84.0051C114.095 80.5011 112.66 77.1447 110.958 74.2215C110.104 72.7546 109.173 71.3802 108.309 70.1376C107.438 68.8852 106.649 67.7852 106.049 66.8299L104.948 67.5215C105.57 68.5108 106.389 69.6537 107.242 70.8797C108.101 72.1156 109.008 73.4553 109.835 74.8756C111.494 77.7267 112.792 80.8368 112.757 83.9909L114.057 84.0051ZM106.051 66.8333C105.599 66.1038 104.937 65.5277 104.153 65.1803L103.626 66.369C104.172 66.6105 104.632 67.011 104.946 67.5181L106.051 66.8333ZM104.153 65.1803C103.368 64.8329 102.496 64.7303 101.653 64.886L101.888 66.1645C102.475 66.0562 103.081 66.1275 103.626 66.369L104.153 65.1803ZM101.653 64.886C100.809 65.0418 100.031 65.4485 99.4221 66.0531L100.338 66.9757C100.761 66.5555 101.302 66.2727 101.888 66.1645L101.653 64.886ZM99.4221 66.0531C98.8129 66.6576 98.4004 67.4319 98.2384 68.2747L99.515 68.5201C99.6276 67.9343 99.9144 67.396 100.338 66.9757L99.4221 66.0531ZM101.191 81.8666C101.067 82.995 101.503 84.2039 102.297 85.3721C103.097 86.5493 104.301 87.7483 105.832 88.8842C108.897 91.1574 113.344 93.2305 118.733 94.3861L119.006 93.115C113.775 91.9934 109.504 89.9893 106.606 87.84C105.157 86.7646 104.068 85.6661 103.372 84.6414C102.67 83.6076 102.406 82.7101 102.484 82.0096L101.191 81.8666ZM118.694 94.3763C119.522 94.6092 120.393 94.6517 121.241 94.5005L121.013 93.2207C120.358 93.3375 119.685 93.3047 119.045 93.1248L118.694 94.3763ZM121.241 94.5005C122.089 94.3494 122.891 94.0085 123.588 93.5034L122.826 92.4506C122.287 92.8407 121.667 93.104 121.013 93.2207L121.241 94.5005ZM123.614 93.4838C125.224 92.1911 125.744 90.0568 125.935 88.3203L124.643 88.178C124.458 89.8536 123.981 91.5219 122.8 92.4702L123.614 93.4838ZM125.935 88.3195C126.563 82.5578 124.793 77.2928 121.385 72.7432L120.344 73.5226C123.587 77.8504 125.23 82.7931 124.643 88.1787L125.935 88.3195ZM121.385 72.7427C120.081 71.0057 118.486 69.3865 116.926 67.8223C115.354 66.2453 113.821 64.7276 112.577 63.1515L111.557 63.9569C112.857 65.6051 114.451 67.1815 116.005 68.7402C117.572 70.3115 119.104 71.8696 120.345 73.5231L121.385 72.7427ZM112.578 63.1534C111.143 61.3211 109.792 59.446 108.525 57.5282L107.44 58.2449C108.727 60.1922 110.099 62.0956 111.555 63.955L112.578 63.1534ZM108.531 57.5382C108.165 56.961 107.647 56.4952 107.035 56.1911L106.457 57.3554C106.857 57.5539 107.194 57.858 107.433 58.2348L108.531 57.5382ZM107.042 56.1944C106.287 55.8088 105.419 55.7066 104.595 55.9064L104.902 57.1697C105.423 57.0433 105.973 57.1079 106.45 57.352L107.042 56.1944ZM104.595 55.9064C103.772 56.1062 103.047 56.5948 102.553 57.2835L103.609 58.0414C103.922 57.6055 104.38 57.2962 104.902 57.1697L104.595 55.9064ZM102.562 57.2708C101.499 58.6786 100.923 60.3939 100.92 62.1579L102.22 62.16C102.222 60.678 102.707 59.2369 103.6 58.0541L102.562 57.2708ZM100.92 62.159C100.92 64.2989 101.393 66.361 102.692 68.1785C103.99 69.9933 106.066 71.5006 109.157 72.6165L109.598 71.3938C106.682 70.341 104.854 68.9674 103.75 67.4224C102.647 65.8801 102.22 64.1036 102.22 62.159H100.92Z" fill="#F379AC"/>
<path d="M195.684 50.3517L195.684 50.3518C196.776 52.0508 197.772 53.8038 198.687 55.5741C199.178 56.5322 199.652 57.4899 200.11 58.4545L200.111 58.4562C205.788 70.3012 209.829 83.3201 205.84 96.3145C202.643 106.72 195.856 112.835 186.837 116.337C177.788 119.85 166.497 120.73 154.344 120.618H154.344C150.119 120.58 145.924 119.966 141.898 118.795L141.895 118.794C138.123 117.725 134.584 116.064 131.438 113.888C121.871 107.087 117.661 97.1616 116.987 87.5541C116.174 75.4708 119.619 67.156 124.762 56.1202L124.762 56.12C128.982 47.0531 137.805 36.751 148.14 31.8474L148.14 31.8475L148.147 31.844C151.679 30.0999 155.607 29.126 159.622 29.0006C176.964 28.7276 188.156 38.6285 195.684 50.3517Z" fill="#F379AC" stroke="#F379AC"/>
<path d="M162.637 37.0857C164.749 36.1075 166.609 34.656 168.074 32.8432C171.047 29.2102 172.125 24.7727 171.185 21.1804C167.49 20.9853 163.358 22.8709 160.385 26.5038C157.411 30.1368 156.333 34.5743 157.273 38.1666" fill="#F379AC"/>
<path d="M162.637 37.0857C164.749 36.1075 166.609 34.656 168.074 32.8432C171.047 29.2102 172.125 24.7727 171.185 21.1804C167.49 20.9853 163.358 22.8709 160.385 26.5038C157.411 30.1368 156.333 34.5743 157.273 38.1666" stroke="#F379AC" stroke-width="1.3" stroke-linecap="round" stroke-linejoin="round"/>
<path d="M211.563 64.152L218.699 61.9182" stroke="#F379AC" stroke-width="4" stroke-linecap="round" stroke-linejoin="round"/>
<path d="M208.086 57.0403L211.57 54.2571" stroke="#F379AC" stroke-width="4" stroke-linecap="round" stroke-linejoin="round"/>
<path d="M124.332 39.2425L118.845 34.1676" stroke="#F379AC" stroke-width="4" stroke-linecap="round" stroke-linejoin="round"/>
<path d="M117.275 45.4259L113.125 43.7849" stroke="#F379AC" stroke-width="4" stroke-linecap="round" stroke-linejoin="round"/>
<path d="M220.4 94.7576C220.44 93.3614 220.119 91.9785 219.469 90.7423C218.819 89.506 217.861 88.458 216.688 87.6993C216.216 87.3896 215.827 86.969 215.555 86.4741C215.283 85.9793 215.137 85.4254 215.128 84.8608C215.104 83.6276 214.796 82.4165 214.23 81.3208C213.664 80.225 212.854 79.2738 211.862 78.5405C209.251 76.4495 199.936 79.1359 200.637 82.3937C202.039 88.9023 210.971 94.1504 214.215 97.4048C214.725 97.9215 215.379 98.2727 216.091 98.4125C216.804 98.5523 217.542 98.4743 218.209 98.1886C218.877 97.9029 219.443 97.4228 219.834 96.8108C220.224 96.1988 220.422 95.4834 220.4 94.7576Z" fill="#F379AC"/>
<path d="M214.518 82.2033C214.101 78.5453 206.155 74.3278 195.3 74.4578C194.541 74.4227 193.785 74.5586 193.086 74.8556C192.388 75.1525 191.765 75.6028 191.264 76.1731C190.155 77.5721 190.087 79.5334 190.281 81.2367C190.93 86.8116 193.715 91.4055 197.944 94.9964C201.178 97.7406 205.453 99.812 208.647 102.387C210.479 103.87 212.225 105.411 213.885 107.012C214.286 107.411 214.79 107.691 215.342 107.82C216.011 108 216.723 107.929 217.343 107.62C217.964 107.312 218.45 106.787 218.711 106.145C219.38 104.666 219.548 103.009 219.189 101.426C218.301 97.4433 215.737 94.344 209.401 93.5496" fill="#F379AC"/>
<path d="M220.4 94.7576L219.75 94.7392L219.75 94.7581L219.75 94.777L220.4 94.7576ZM216.688 87.6993L216.332 88.2428L216.335 88.245L216.688 87.6993ZM215.128 84.8608L215.778 84.8512L215.778 84.8478L215.128 84.8608ZM211.862 78.5405L211.456 79.0478L211.465 79.0557L211.475 79.0631L211.862 78.5405ZM200.637 82.3937L200.002 82.5305L200.002 82.5306L200.637 82.3937ZM214.215 97.4048L214.677 96.9482L214.675 96.9459L214.215 97.4048ZM213.872 82.2769C213.913 82.6336 214.235 82.8897 214.592 82.8491C214.948 82.8084 215.205 82.4863 215.164 82.1296L213.872 82.2769ZM195.3 74.4578L195.27 75.1071C195.282 75.1077 195.295 75.1079 195.307 75.1078L195.3 74.4578ZM191.264 76.1731L190.775 75.7441C190.768 75.7524 190.761 75.7608 190.754 75.7695L191.264 76.1731ZM190.281 81.2367L189.635 81.3101L189.635 81.3119L190.281 81.2367ZM197.944 94.9964L197.523 95.4918L197.523 95.492L197.944 94.9964ZM208.647 102.387L209.056 101.881L209.055 101.881L208.647 102.387ZM213.885 107.012L214.343 106.551L214.336 106.545L213.885 107.012ZM215.342 107.82L215.51 107.192C215.503 107.19 215.496 107.189 215.489 107.187L215.342 107.82ZM218.711 106.145L218.119 105.877C218.115 105.885 218.112 105.892 218.109 105.9L218.711 106.145ZM219.189 101.426L218.555 101.568L218.556 101.57L219.189 101.426ZM209.482 92.9047C209.125 92.86 208.8 93.1126 208.756 93.4688C208.711 93.825 208.964 94.1499 209.32 94.1946L209.482 92.9047ZM221.05 94.776C221.093 93.2682 220.746 91.7748 220.044 90.4397L218.893 91.0448C219.492 92.1822 219.787 93.4546 219.75 94.7392L221.05 94.776ZM220.044 90.4397C219.342 89.1047 218.308 87.9729 217.041 87.1535L216.335 88.245C217.414 88.9431 218.295 89.9073 218.893 91.0448L220.044 90.4397ZM217.045 87.1558C216.662 86.9043 216.346 86.5628 216.125 86.1611L214.986 86.7872C215.309 87.3751 215.771 87.8749 216.332 88.2428L217.045 87.1558ZM216.125 86.1611C215.904 85.7593 215.785 85.3096 215.778 84.8512L214.478 84.8704C214.488 85.5412 214.662 86.1993 214.986 86.7872L216.125 86.1611ZM215.778 84.8478C215.752 83.5152 215.42 82.2064 214.808 81.0223L213.653 81.6192C214.173 82.6266 214.456 83.74 214.478 84.8738L215.778 84.8478ZM214.808 81.0223C214.196 79.8382 213.32 78.8103 212.248 78.0178L211.475 79.0631C212.387 79.7373 213.132 80.6118 213.653 81.6192L214.808 81.0223ZM212.268 78.0331C211.438 77.368 210.178 77.1432 208.903 77.1523C207.599 77.1615 206.147 77.4164 204.81 77.8419C203.479 78.2656 202.214 78.8742 201.313 79.6232C200.428 80.3581 199.75 81.3607 200.002 82.5305L201.273 82.2569C201.174 81.7978 201.397 81.2429 202.143 80.6232C202.872 80.0176 203.968 79.4744 205.204 79.0806C206.435 78.6887 207.758 78.4604 208.912 78.4522C210.097 78.4439 210.981 78.6675 211.456 79.0478L212.268 78.0331ZM200.002 82.5306C200.749 86.0024 203.476 89.061 206.3 91.6027C207.724 92.884 209.204 94.0607 210.516 95.1094C211.841 96.1683 212.975 97.0816 213.754 97.8637L214.675 96.9459C213.833 96.1008 212.634 95.1378 211.328 94.0939C210.009 93.0399 208.56 91.8876 207.17 90.6365C204.366 88.1134 201.926 85.2937 201.273 82.2569L200.002 82.5306ZM213.752 97.8614C214.354 98.4711 215.125 98.8854 215.966 99.0503L216.216 97.7747C215.632 97.66 215.096 97.372 214.677 96.9482L213.752 97.8614ZM215.966 99.0503C216.807 99.2153 217.678 99.1232 218.465 98.7862L217.954 97.591C217.406 97.8253 216.801 97.8893 216.216 97.7747L215.966 99.0503ZM218.465 98.7862C219.253 98.4491 219.92 97.8827 220.381 97.1606L219.286 96.461C218.965 96.9629 218.501 97.3567 217.954 97.591L218.465 98.7862ZM220.381 97.1606C220.843 96.4386 221.075 95.5945 221.05 94.7382L219.75 94.777C219.768 95.3722 219.606 95.9591 219.286 96.461L220.381 97.1606ZM215.164 82.1296C215.035 81.0015 214.342 79.9194 213.309 78.9562C212.268 77.9855 210.829 77.0833 209.085 76.3152C205.594 74.7779 200.8 73.7419 195.292 73.8079L195.307 75.1078C200.654 75.0437 205.261 76.0515 208.561 77.5049C210.213 78.2322 211.517 79.062 212.422 79.9069C213.336 80.7592 213.792 81.576 213.872 82.2769L215.164 82.1296ZM195.33 73.8085C194.474 73.7689 193.62 73.9223 192.832 74.2573L193.34 75.4538C193.949 75.195 194.609 75.0765 195.27 75.1071L195.33 73.8085ZM192.832 74.2573C192.044 74.5924 191.341 75.1005 190.775 75.7441L191.752 76.6021C192.189 76.105 192.732 75.7126 193.34 75.4538L192.832 74.2573ZM190.754 75.7695C189.475 77.3835 189.438 79.5758 189.635 81.3101L190.927 81.1633C190.737 79.491 190.835 77.7608 191.773 76.5767L190.754 75.7695ZM189.635 81.3119C190.307 87.0736 193.188 91.8107 197.523 95.4918L198.365 94.5009C194.242 91.0003 191.554 86.5495 190.927 81.1615L189.635 81.3119ZM197.523 95.492C199.18 96.8979 201.095 98.1245 202.963 99.3046C204.847 100.494 206.678 101.634 208.24 102.893L209.055 101.881C207.423 100.565 205.519 99.3813 203.658 98.2056C201.781 97.0203 199.942 95.839 198.365 94.5007L197.523 95.492ZM208.238 102.892C210.056 104.363 211.788 105.893 213.433 107.48L214.336 106.545C212.663 104.93 210.903 103.376 209.056 101.881L208.238 102.892ZM213.426 107.473C213.913 107.957 214.525 108.297 215.194 108.453L215.489 107.187C215.056 107.086 214.659 106.866 214.343 106.551L213.426 107.473ZM215.173 108.448C215.995 108.669 216.87 108.581 217.633 108.202L217.054 107.038C216.575 107.276 216.026 107.331 215.51 107.192L215.173 108.448ZM217.633 108.202C218.395 107.823 218.993 107.178 219.313 106.389L218.109 105.9C217.908 106.395 217.533 106.8 217.054 107.038L217.633 108.202ZM219.303 106.413C220.031 104.805 220.213 103.004 219.823 101.283L218.556 101.57C218.883 103.015 218.729 104.527 218.119 105.877L219.303 106.413ZM219.824 101.285C219.358 99.196 218.44 97.2908 216.77 95.8063C215.102 94.3244 212.742 93.3134 209.482 92.9047L209.32 94.1946C212.396 94.5803 214.486 95.5161 215.906 96.7781C217.324 98.0376 218.132 99.6734 218.555 101.568L219.824 101.285Z" fill="#F379AC"/>
<path d="M161.34 56.508C167.43 56.508 171.084 59.7 171.084 64.278V64.74C171.084 67.47 169.992 69.276 166.044 72.846C163.608 75.03 163.272 75.912 163.272 77.676C163.272 78.936 162.138 79.734 160.836 79.734C159.45 79.734 158.274 79.062 158.274 77.55C158.274 74.61 158.736 73.056 161.76 70.41C165.246 67.386 165.708 66.462 165.708 64.782V64.572C165.708 62.808 164.49 61.254 161.172 61.254C158.946 61.254 157.35 62.01 155.838 63.06C154.746 63.816 153.57 63.522 152.772 62.472C151.974 61.464 151.974 60.036 153.066 59.196C155.124 57.6 157.854 56.508 161.34 56.508ZM160.794 82.548C162.6 82.548 163.986 83.934 163.986 85.74C163.986 87.546 162.6 88.932 160.794 88.932C158.988 88.932 157.602 87.546 157.602 85.74C157.602 83.934 158.988 82.548 160.794 82.548Z" fill="white"/>
<path d="M24.857 69.4521C24.857 69.4521 22.3543 73.6477 25.9027 75.7104C25.0196 78.261 26.7412 80.1739 29.3204 81.2069C29.7094 78.9273 30.6786 76.4437 30.0378 74.5308C29.0335 71.5276 25.9505 69.5891 24.857 69.4521Z" fill="#FAB0CF"/>
<path d="M25.7842 77.7444C25.7205 79.6287 29.7376 82.4629 35.8876 82.5044C36.2515 81.1811 36.3683 79.8019 36.2319 78.4363C36.0629 76.5234 35.3456 74.9452 33.8376 73.23C32.6037 71.824 30.8726 70.6476 29.6451 69.3149C28.9437 68.5529 28.2774 67.7686 27.6589 66.9588C27.5101 66.7596 27.3093 66.6052 27.0786 66.5125C26.7954 66.3916 26.4779 66.3772 26.1849 66.4722C25.8918 66.5671 25.6431 66.7649 25.4846 67.029C25.0968 67.6308 24.9165 68.3429 24.9713 69.0567C25.1052 70.8516 26.0202 72.3692 28.7365 73.1216" fill="#FAB0CF"/>
<path d="M51.7802 57.7217C58.998 58.3026 63.1969 62.8691 65.7733 68.0009C66.1467 68.7464 66.4794 69.5106 66.7775 70.2841C66.9344 70.6941 67.0913 71.1104 67.2325 71.5267C69.0276 76.6119 69.7838 81.8679 67.6719 87.1675C64.5714 94.9336 52.047 97.8101 45.1964 95.8344C43.562 95.3743 41.9531 94.8299 40.3762 94.2036C38.8719 93.6177 37.4772 92.7872 36.2495 91.7464C32.5621 88.5343 31.2755 84.2382 31.4261 80.2247C31.6333 75.186 33.4722 71.8932 36.0643 67.5442C38.2265 63.9656 42.3407 60.0515 46.8596 58.4362C48.4289 57.8509 50.1072 57.6073 51.7802 57.7217Z" fill="#FAB0CF"/>
<path d="M50.6391 59.084C51.492 58.744 52.2555 58.2128 52.8709 57.5314C54.1111 56.1637 54.6052 54.4453 54.3183 53.0201C52.8741 52.8735 51.2098 53.5302 49.9696 54.898C48.7294 56.2657 48.2353 57.9809 48.5222 59.4061" fill="#FAB0CF"/>
<path d="M50.6391 59.084C51.492 58.744 52.2555 58.2128 52.8709 57.5314C54.1111 56.1637 54.6052 54.4453 54.3183 53.0201C52.8741 52.8735 51.2098 53.5302 49.9696 54.898C48.7294 56.2657 48.2353 57.9809 48.5222 59.4061M51.7802 57.7217C58.998 58.3026 63.1969 62.8691 65.7733 68.0009C66.1467 68.7464 66.4794 69.5106 66.7775 70.2841C66.9344 70.6941 67.0913 71.1104 67.2325 71.5267C69.0276 76.6119 69.7838 81.8679 67.6719 87.1675C64.5714 94.9336 52.047 97.8101 45.1964 95.8344C43.562 95.3743 41.9531 94.8299 40.3762 94.2036C38.8719 93.6177 37.4772 92.7872 36.2495 91.7464C32.5621 88.5343 31.2755 84.2382 31.4261 80.2247C31.6333 75.186 33.4722 71.8932 36.0643 67.5442C38.2265 63.9656 42.3407 60.0515 46.8596 58.4362C48.4289 57.8509 50.1072 57.6073 51.7802 57.7217Z" stroke="#FAB0CF" stroke-width="1.29504" stroke-linecap="round" stroke-linejoin="round"/>
<path d="M59.639 83.9996C59.5243 85.6192 62.6327 88.0837 67.3544 88.8967C67.68 88.9721 68.0183 88.9734 68.3444 88.9005C68.6705 88.8277 68.9761 88.6826 69.2386 88.4758C69.8316 87.9593 70.0197 87.1145 70.0707 86.3557C70.2365 83.8881 69.3948 81.6723 67.839 79.7785C66.6562 78.3279 64.9697 77.0909 63.7868 75.7168C63.111 74.9303 62.4733 74.1216 61.8739 73.2905C61.7319 73.0854 61.5354 72.9242 61.3064 72.8251C61.03 72.6986 60.7175 72.675 60.4252 72.7586C60.1329 72.8422 59.8801 73.0275 59.7124 73.281C59.3054 73.8696 59.1007 74.5745 59.1289 75.2895C59.1991 77.0909 60.0599 78.6403 62.7443 79.4884" fill="#FAB0CF"/>
<path d="M59.639 83.9996C59.5243 85.6192 62.6327 88.0837 67.3544 88.8967C67.68 88.9721 68.0183 88.9734 68.3444 88.9005C68.6705 88.8277 68.9761 88.6826 69.2386 88.4758C69.8316 87.9593 70.0197 87.1145 70.0707 86.3557C70.2365 83.8881 69.3948 81.6723 67.839 79.7785C66.6562 78.3279 64.9697 77.0909 63.7868 75.7168C63.111 74.9303 62.4733 74.1216 61.8739 73.2905C61.7319 73.0854 61.5354 72.9242 61.3064 72.8251C61.03 72.6986 60.7175 72.675 60.4252 72.7586C60.1329 72.8422 59.8801 73.0275 59.7124 73.281C59.3054 73.8696 59.1007 74.5745 59.1289 75.2895C59.1991 77.0909 60.0599 78.6403 62.7443 79.4884" stroke="#FAB0CF" stroke-width="1.29504" stroke-linecap="round" stroke-linejoin="round"/>
<path d="M32.8218 61.0492L34.0428 56.8727L34.0683 56.7803C34.2294 56.2286 34.1651 55.6355 33.8896 55.1311C33.6141 54.6267 33.1498 54.2521 32.5986 54.0894C32.1818 53.965 31.7369 53.9705 31.3233 54.1054C30.9853 54.2133 30.6788 54.4021 30.4304 54.6555C30.182 54.9089 29.9993 55.2191 29.8982 55.5592L29.8695 55.6516L29.7771 55.6261C29.2253 55.4651 28.6323 55.5293 28.1279 55.8049C27.6235 56.0804 27.2489 56.5446 27.0862 57.0959C26.9261 57.6476 26.9907 58.2403 27.2661 58.7444C27.5415 59.2486 28.0052 59.6233 28.556 59.7867L28.6484 59.8154L32.8122 61.0365" fill="#FAB0CF"/>
<path d="M32.8218 61.0492L34.0428 56.8727L34.0683 56.7803C34.2294 56.2286 34.1651 55.6355 33.8896 55.1311C33.6141 54.6267 33.1498 54.2521 32.5986 54.0894C32.1818 53.965 31.7369 53.9705 31.3233 54.1054C30.9853 54.2133 30.6788 54.4021 30.4304 54.6555C30.182 54.9089 29.9993 55.2191 29.8982 55.5592L29.8695 55.6516L29.7771 55.6261C29.2253 55.4651 28.6323 55.5293 28.1279 55.8049C27.6235 56.0804 27.2489 56.5446 27.0862 57.0959C26.9261 57.6476 26.9907 58.2403 27.2661 58.7444C27.5415 59.2486 28.0052 59.6233 28.556 59.7867L28.6484 59.8154L32.8122 61.0365" stroke="#FAB0CF" stroke-width="1.29504" stroke-linecap="round" stroke-linejoin="round"/>
<path d="M0 108H325V164C325 172.837 317.837 180 309 180H16C7.16344 180 0 172.837 0 164V108Z" fill="#FAB0CF"/>
<path d="M30.762 126.046C31.098 126.046 31.252 126.326 31.252 126.662C31.252 126.984 31.098 127.25 30.762 127.25H26.898C26.688 127.25 26.604 127.334 26.604 127.544V132.584C26.604 132.794 26.688 132.878 26.898 132.878C28.732 132.878 30.286 132.78 31.798 132.57C32.12 132.528 32.33 132.766 32.358 133.088C32.4 133.424 32.274 133.732 31.966 133.774C30.664 133.956 28.998 134.082 26.282 134.082C25.47 134.082 25.204 133.83 25.204 133.032V127.096C25.204 126.298 25.47 126.046 26.282 126.046H30.762ZM34.43 125.108C34.794 125.108 35.13 125.29 35.13 125.696V136.616C35.13 137.022 34.794 137.204 34.43 137.204C34.08 137.204 33.744 137.022 33.744 136.616V130.498H30.916C30.58 130.498 30.426 130.232 30.426 129.896C30.426 129.574 30.58 129.294 30.916 129.294H33.744V125.696C33.744 125.29 34.08 125.108 34.43 125.108ZM43.1122 125.374C45.8002 125.374 47.3682 126.172 47.3682 127.852C47.3682 129.532 45.8002 130.33 43.1122 130.33C40.4242 130.33 38.8562 129.532 38.8562 127.852C38.8562 126.172 40.4242 125.374 43.1122 125.374ZM46.3322 133.816C47.1442 133.816 47.4102 134.068 47.4102 134.866V137.596C47.4102 138.002 47.0602 138.184 46.6962 138.184C46.3462 138.184 46.0102 138.002 46.0102 137.596V135.286C46.0102 135.062 45.9262 134.992 45.7162 134.992H39.1362C38.8002 134.992 38.6602 134.726 38.6602 134.404C38.6602 134.082 38.8002 133.816 39.1362 133.816H42.4262V132.444H37.7082C37.3862 132.444 37.2322 132.178 37.2322 131.856C37.2322 131.534 37.3862 131.268 37.7082 131.268H48.5162C48.8382 131.268 48.9922 131.534 48.9922 131.856C48.9922 132.178 48.8382 132.444 48.5162 132.444H43.7982V133.816H46.3322ZM43.1122 126.522C41.1102 126.522 40.2422 127.012 40.2422 127.852C40.2422 128.706 41.1102 129.196 43.1122 129.196C45.1142 129.196 45.9822 128.706 45.9822 127.852C45.9822 127.012 45.1142 126.522 43.1122 126.522ZM64.7584 131.254C65.0804 131.254 65.2344 131.52 65.2344 131.842C65.2344 132.15 65.0804 132.416 64.7584 132.416H60.0404V133.578C62.3224 133.69 63.6384 134.418 63.6384 135.902C63.6384 137.526 62.0564 138.254 59.3544 138.254C56.6524 138.254 55.0704 137.526 55.0704 135.902C55.0704 134.418 56.3864 133.69 58.6684 133.578V132.416H53.9504C53.6284 132.416 53.4744 132.15 53.4744 131.842C53.4744 131.52 53.6284 131.254 53.9504 131.254H64.7584ZM63.4844 125.626C63.7924 125.626 63.9464 125.892 63.9464 126.186C63.9464 126.48 63.7924 126.746 63.4844 126.746H62.0984V129.07H63.5404C63.8484 129.07 64.0024 129.336 64.0024 129.63C64.0024 129.938 63.8484 130.204 63.5404 130.204H55.1684C54.8604 130.204 54.7064 129.938 54.7064 129.63C54.7064 129.336 54.8604 129.07 55.1684 129.07H56.6104V126.746H55.2244C54.9164 126.746 54.7624 126.48 54.7624 126.186C54.7624 125.892 54.9164 125.626 55.2244 125.626H63.4844ZM59.3544 134.67C57.3384 134.67 56.4564 135.104 56.4564 135.902C56.4564 136.7 57.3384 137.134 59.3544 137.134C61.3704 137.134 62.2524 136.7 62.2524 135.902C62.2524 135.104 61.3704 134.67 59.3544 134.67ZM57.9544 129.07H60.7544V126.746H57.9544V129.07ZM68.4986 125.486C68.8486 125.486 69.1846 125.668 69.1846 126.06V127.292H75.0086V126.06C75.0086 125.668 75.3446 125.486 75.6806 125.486C76.0306 125.486 76.3806 125.668 76.3806 126.06V130.078C76.3806 130.876 76.1146 131.128 75.3026 131.128H68.8906C68.0786 131.128 67.8266 130.876 67.8266 130.078V126.06C67.8266 125.668 68.1626 125.486 68.4986 125.486ZM69.1846 129.742C69.1846 129.882 69.2546 129.952 69.4086 129.952H74.7846C74.9386 129.952 75.0086 129.882 75.0086 129.742V128.482H69.1846V129.742ZM77.4866 132.584C77.8226 132.584 77.9766 132.864 77.9766 133.186C77.9766 133.508 77.8226 133.774 77.4866 133.774H72.7966V137.596C72.7966 138.002 72.4606 138.184 72.0966 138.184C71.7326 138.184 71.3966 138.002 71.3966 137.596V133.774H66.7066C66.3706 133.774 66.2166 133.508 66.2166 133.186C66.2166 132.864 66.3706 132.584 66.7066 132.584H77.4866ZM82.7528 128.538C84.6148 128.538 85.7348 129.462 85.7348 130.876C85.7348 132.29 84.6148 133.214 82.7528 133.214C80.8908 133.214 79.7708 132.29 79.7708 130.876C79.7708 129.462 80.8908 128.538 82.7528 128.538ZM82.7528 125.08C83.1168 125.08 83.4528 125.262 83.4528 125.668V126.55H85.9588C86.2948 126.55 86.4488 126.83 86.4488 127.152C86.4488 127.474 86.2948 127.754 85.9588 127.754H79.4068C79.0708 127.754 78.9168 127.474 78.9168 127.152C78.9168 126.83 79.0708 126.55 79.4068 126.55H82.0528V125.668C82.0528 125.262 82.4028 125.08 82.7528 125.08ZM82.7528 129.644C81.6328 129.644 81.0308 130.148 81.0308 130.876C81.0308 131.59 81.6328 132.108 82.7528 132.108C83.8868 132.108 84.4748 131.59 84.4748 130.876C84.4748 130.148 83.8868 129.644 82.7528 129.644ZM88.2128 125.108C88.5768 125.108 88.9128 125.29 88.9128 125.696V128.846H90.4668C90.8168 128.846 90.9708 129.112 90.9708 129.448C90.9708 129.784 90.8168 130.05 90.4668 130.05H88.9128V134.124C88.9128 134.53 88.5768 134.712 88.2128 134.712C87.8628 134.712 87.5268 134.53 87.5268 134.124V125.696C87.5268 125.29 87.8628 125.108 88.2128 125.108ZM81.5908 133.928C81.9408 133.928 82.2908 134.11 82.2908 134.516V136.35C82.2908 136.56 82.3608 136.63 82.5847 136.63H88.7448C89.0948 136.63 89.2488 136.91 89.2488 137.246C89.2488 137.568 89.0948 137.848 88.7448 137.848H81.9548C81.1428 137.848 80.8768 137.596 80.8768 136.798V134.516C80.8768 134.11 81.2128 133.928 81.5908 133.928ZM96.1529 125.822H100.395C101.207 125.822 101.473 126.074 101.473 126.872V127.88C101.473 129.812 100.745 130.386 96.4189 132.36C96.0969 132.5 95.7609 132.318 95.6069 132.01C95.4809 131.744 95.4949 131.338 95.8589 131.184C99.7509 129.434 100.073 129.07 100.073 127.824V127.32C100.073 127.11 100.003 127.026 99.7789 127.026H96.1529C95.8169 127.026 95.6629 126.76 95.6629 126.438C95.6629 126.102 95.8169 125.822 96.1529 125.822ZM104.455 125.108C104.819 125.108 105.155 125.29 105.155 125.696V128.062H106.695C107.059 128.062 107.213 128.342 107.213 128.664C107.213 129.014 107.059 129.28 106.695 129.28H105.155V131.814C105.155 132.22 104.819 132.402 104.455 132.402C104.091 132.402 103.755 132.22 103.755 131.814V125.696C103.755 125.29 104.091 125.108 104.455 125.108ZM98.1969 133.004H104.077C104.889 133.004 105.155 133.256 105.155 134.054V136.896C105.155 137.694 104.889 137.946 104.077 137.946H98.1969C97.3849 137.946 97.1189 137.694 97.1189 136.896V134.054C97.1189 133.256 97.3849 133.004 98.1969 133.004ZM103.475 134.18H98.7989C98.5889 134.18 98.5049 134.264 98.5049 134.474V136.476C98.5049 136.686 98.5889 136.77 98.7989 136.77H103.475C103.685 136.77 103.769 136.686 103.769 136.476V134.474C103.769 134.264 103.685 134.18 103.475 134.18ZM114.901 125.836C115.237 125.836 115.391 126.116 115.391 126.438C115.391 126.76 115.237 127.026 114.901 127.026H112.661V127.782C112.661 128.678 112.913 129.238 113.585 129.784C114.229 130.316 114.831 130.764 115.251 131.058C115.559 131.296 115.559 131.632 115.363 131.912C115.181 132.136 114.845 132.318 114.495 132.08C114.187 131.856 113.613 131.422 113.011 130.946C112.297 130.386 112.059 130.064 111.989 129.784H111.975C111.905 130.092 111.625 130.442 110.925 131.016C110.309 131.492 109.721 131.926 109.189 132.304C108.867 132.542 108.503 132.374 108.335 132.136C108.139 131.856 108.125 131.492 108.447 131.254C109.091 130.792 109.693 130.358 110.351 129.826C111.009 129.28 111.261 128.72 111.261 127.81V127.026H108.923C108.573 127.026 108.419 126.76 108.419 126.438C108.419 126.116 108.573 125.836 108.923 125.836H114.901ZM117.897 125.108C118.247 125.108 118.583 125.29 118.583 125.696V132.206C118.583 132.598 118.247 132.78 117.897 132.78C117.533 132.78 117.197 132.598 117.197 132.206V129.504H115.181C114.831 129.504 114.677 129.224 114.677 128.902C114.677 128.566 114.831 128.3 115.181 128.3H117.197V125.696C117.197 125.29 117.533 125.108 117.897 125.108ZM114.551 132.906C117.141 132.906 118.653 133.802 118.653 135.552C118.653 137.302 117.141 138.198 114.551 138.198C111.961 138.198 110.449 137.302 110.449 135.552C110.449 133.802 111.961 132.906 114.551 132.906ZM114.551 134.04C112.647 134.04 111.835 134.628 111.835 135.552C111.835 136.476 112.647 137.064 114.551 137.064C116.441 137.064 117.267 136.476 117.267 135.552C117.267 134.628 116.441 134.04 114.551 134.04ZM134.195 125.976C134.531 125.976 134.685 126.242 134.685 126.564C134.685 126.872 134.531 127.138 134.195 127.138H132.837V130.876H134.265C134.587 130.876 134.741 131.142 134.741 131.464C134.741 131.786 134.587 132.052 134.265 132.052H132.585V134.81H135.455C135.791 134.81 135.945 135.076 135.945 135.384C135.945 135.706 135.791 135.986 135.455 135.986H124.675C124.339 135.986 124.185 135.706 124.185 135.384C124.185 135.076 124.339 134.81 124.675 134.81H127.545V132.052H125.865C125.543 132.052 125.389 131.786 125.389 131.464C125.389 131.142 125.543 130.876 125.865 130.876H127.293V127.138H125.935C125.599 127.138 125.445 126.872 125.445 126.564C125.445 126.242 125.599 125.976 125.935 125.976H134.195ZM128.651 130.876H131.479V127.138H128.651V130.876ZM128.875 134.81H131.255V132.052H128.875V134.81ZM140.834 128.538C142.654 128.538 143.746 129.462 143.746 130.876C143.746 132.29 142.654 133.214 140.834 133.214C139.014 133.214 137.922 132.29 137.922 130.876C137.922 129.462 139.014 128.538 140.834 128.538ZM140.834 125.08C141.198 125.08 141.534 125.262 141.534 125.668V126.55H143.97C144.306 126.55 144.46 126.83 144.46 127.152C144.46 127.474 144.306 127.754 143.97 127.754H137.558C137.222 127.754 137.068 127.474 137.068 127.152C137.068 126.83 137.222 126.55 137.558 126.55H140.133V125.668C140.133 125.262 140.484 125.08 140.834 125.08ZM140.834 129.644C139.742 129.644 139.182 130.148 139.182 130.876C139.182 131.59 139.742 132.108 140.834 132.108C141.926 132.108 142.486 131.59 142.486 130.876C142.486 130.148 141.926 129.644 140.834 129.644ZM146.882 125.108C147.232 125.108 147.568 125.29 147.568 125.682V134.138C147.568 134.53 147.232 134.712 146.882 134.712C146.532 134.712 146.196 134.53 146.196 134.138V132.136H144.782C144.446 132.136 144.32 131.87 144.32 131.548C144.32 131.226 144.446 130.96 144.782 130.96H146.196V129.714H144.712C144.376 129.714 144.25 129.448 144.25 129.126C144.25 128.804 144.376 128.538 144.712 128.538H146.196V125.682C146.196 125.29 146.532 125.108 146.882 125.108ZM140.05 133.928C140.4 133.928 140.75 134.11 140.75 134.516V136.35C140.75 136.56 140.82 136.63 141.044 136.63H147.4C147.75 136.63 147.904 136.91 147.904 137.246C147.904 137.568 147.75 137.848 147.4 137.848H140.414C139.602 137.848 139.336 137.596 139.336 136.798V134.516C139.336 134.11 139.672 133.928 140.05 133.928Z" fill="white"/>
<path d="M28.718 149.836C29.628 149.836 30.454 150.074 30.972 150.368C31.21 150.508 31.266 150.746 31.154 150.998C31.042 151.236 30.804 151.32 30.552 151.194C30.02 150.928 29.446 150.774 28.704 150.774C26.856 150.774 26.1 152.342 25.932 154.932C26.38 154.05 27.444 153.546 28.55 153.546C30.454 153.546 31.672 154.75 31.672 156.668V156.892C31.672 158.88 30.272 160.098 28.354 160.098C26.352 160.098 24.938 158.74 24.938 155.898V155.604C24.938 151.334 26.436 149.836 28.718 149.836ZM28.382 154.442C26.912 154.442 26.03 155.436 26.03 156.626V156.696C26.03 158.194 26.982 159.16 28.34 159.16C29.698 159.16 30.664 158.362 30.664 156.864V156.766C30.664 155.254 29.88 154.442 28.382 154.442ZM42.7825 149.682C43.0065 149.682 43.1185 149.878 43.1185 150.116C43.1185 150.354 43.0065 150.55 42.7825 150.55H39.2825V150.872C39.2825 151.544 39.6045 151.992 40.6405 152.44C41.6345 152.846 42.4605 153.168 43.2585 153.462C43.5245 153.546 43.5805 153.826 43.4965 154.036C43.4125 154.26 43.2165 154.4 42.9365 154.302C42.1665 154.022 41.3265 153.7 40.4025 153.308C39.2545 152.846 38.8905 152.44 38.7785 152.09H38.7645C38.6665 152.454 38.2885 152.86 37.1405 153.322C36.2025 153.714 35.3765 154.036 34.6065 154.316C34.3265 154.414 34.1165 154.274 34.0325 154.05C33.9485 153.84 34.0045 153.546 34.2705 153.462C35.0685 153.168 35.8945 152.846 36.8885 152.44C37.9245 151.992 38.2465 151.544 38.2465 150.872V150.55H34.7465C34.5225 150.55 34.4105 150.354 34.4105 150.116C34.4105 149.878 34.5225 149.682 34.7465 149.682H42.7825ZM38.7645 153.742C39.0305 153.742 39.2685 153.868 39.2685 154.162V155.548H44.2525C44.4905 155.548 44.6025 155.744 44.6025 155.982C44.6025 156.22 44.4905 156.416 44.2525 156.416H33.2765C33.0385 156.416 32.9265 156.22 32.9265 155.982C32.9265 155.744 33.0385 155.548 33.2765 155.548H38.2605V154.162C38.2605 153.868 38.5125 153.742 38.7645 153.742ZM38.7645 157.522C41.4245 157.522 42.9365 158.278 42.9365 159.846C42.9365 161.414 41.4245 162.17 38.7645 162.17C36.1045 162.17 34.5925 161.414 34.5925 159.846C34.5925 158.278 36.1045 157.522 38.7645 157.522ZM38.7645 158.348C36.6225 158.348 35.6145 158.88 35.6145 159.846C35.6145 160.812 36.6225 161.344 38.7645 161.344C40.9065 161.344 41.9145 160.812 41.9145 159.846C41.9145 158.88 40.9065 158.348 38.7645 158.348ZM53.5087 149.304C53.7467 149.304 53.9847 149.43 53.9847 149.71V160.154C53.9847 160.434 53.7467 160.56 53.5087 160.56C53.2567 160.56 53.0187 160.434 53.0187 160.154V154.442H51.2687C51.1847 156.78 50.3167 157.998 48.5667 157.998C46.7047 157.998 45.8367 156.626 45.8367 154.008C45.8367 151.39 46.7047 150.018 48.5667 150.018C50.3167 150.018 51.1707 151.236 51.2687 153.56H53.0187V149.71C53.0187 149.43 53.2567 149.304 53.5087 149.304ZM48.5667 150.928C47.2927 150.928 46.8027 152.02 46.8027 154.008C46.8027 155.996 47.2927 157.088 48.5667 157.088C49.8407 157.088 50.3167 155.996 50.3167 154.008C50.3167 152.02 49.8407 150.928 48.5667 150.928ZM55.9727 149.164C56.2247 149.164 56.4627 149.29 56.4627 149.57V160.742C56.4627 161.022 56.2247 161.148 55.9727 161.148C55.7347 161.148 55.4967 161.022 55.4967 160.742V149.57C55.4967 149.29 55.7347 149.164 55.9727 149.164ZM62.3869 149.822C62.6529 149.822 62.9049 149.948 62.9049 150.256V152.58C62.9049 153.812 63.1709 154.442 64.0529 155.38C64.6689 156.038 65.2709 156.612 65.8029 157.102C66.0129 157.27 65.9569 157.564 65.7889 157.746C65.6349 157.9 65.3549 157.97 65.1589 157.774C64.6689 157.34 64.1649 156.836 63.5489 156.22C62.6669 155.296 62.4569 154.918 62.4009 154.61H62.3869C62.3169 154.932 62.1069 155.31 61.2249 156.234C60.6089 156.85 60.0769 157.382 59.4469 157.956C59.2229 158.152 58.9429 158.068 58.7889 157.9C58.6209 157.704 58.5929 157.438 58.7889 157.256C59.4609 156.64 60.0909 156.038 60.7069 155.38C61.5889 154.442 61.8689 153.812 61.8689 152.58V150.256C61.8689 149.948 62.1069 149.822 62.3869 149.822ZM68.3789 149.164C68.6309 149.164 68.8829 149.29 68.8829 149.584V160.728C68.8829 161.022 68.6309 161.148 68.3789 161.148C68.1129 161.148 67.8749 161.022 67.8749 160.728V153.91H65.3689C65.1309 153.91 65.0189 153.714 65.0189 153.462C65.0189 153.224 65.1309 153.028 65.3689 153.028H67.8749V149.584C67.8749 149.29 68.1129 149.164 68.3789 149.164ZM84.2571 149.766C84.5091 149.766 84.6211 149.962 84.6211 150.2C84.6211 150.452 84.5091 150.648 84.2571 150.648H77.6211C77.4251 150.648 77.3551 150.718 77.3551 150.9V153.672C77.3551 153.868 77.4251 153.924 77.6211 153.924H84.3971C84.6491 153.924 84.7611 154.134 84.7611 154.372C84.7611 154.61 84.6491 154.82 84.3971 154.82H77.2991C76.5711 154.82 76.3331 154.596 76.3331 153.882V150.704C76.3331 149.99 76.5711 149.766 77.2991 149.766H84.2571ZM85.9651 156.612C86.2171 156.612 86.3291 156.808 86.3291 157.06C86.3291 157.298 86.2171 157.494 85.9651 157.494H81.0091V161.708C81.0091 162.002 80.7571 162.128 80.4911 162.128C80.2391 162.128 79.9871 162.002 79.9871 161.708V157.494H75.0171C74.7651 157.494 74.6531 157.298 74.6531 157.06C74.6531 156.808 74.7651 156.612 75.0171 156.612H85.9651ZM88.7673 156.696C88.7673 156.892 88.8513 156.948 89.0333 156.948H91.5533C91.7493 156.948 91.8193 156.892 91.8193 156.696V153.966H88.7673V156.696ZM88.2773 150.102C88.5293 150.102 88.7673 150.214 88.7673 150.494V153.084H91.8193V150.494C91.8193 150.214 92.0573 150.102 92.3093 150.102C92.5613 150.102 92.7993 150.214 92.7993 150.494V156.892C92.7993 157.606 92.5613 157.83 91.8333 157.83H88.7673C88.0393 157.83 87.8013 157.606 87.8013 156.892V150.494C87.8013 150.214 88.0393 150.102 88.2773 150.102ZM97.6993 149.164C97.9513 149.164 98.1893 149.29 98.1893 149.57V160.742C98.1893 161.022 97.9513 161.148 97.6993 161.148C97.4613 161.148 97.2233 161.022 97.2233 160.742V154.442H95.3613V160.154C95.3613 160.434 95.1233 160.56 94.8713 160.56C94.6333 160.56 94.3953 160.434 94.3953 160.154V149.71C94.3953 149.43 94.6333 149.304 94.8713 149.304C95.1233 149.304 95.3613 149.43 95.3613 149.71V153.56H97.2233V149.57C97.2233 149.29 97.4613 149.164 97.6993 149.164ZM105.849 149.318C106.115 149.318 106.353 149.444 106.353 149.738V152.244C106.353 152.426 106.437 152.496 106.619 152.496H113.507C113.745 152.496 113.857 152.692 113.857 152.93C113.857 153.168 113.745 153.364 113.507 153.364H106.297C105.569 153.364 105.331 153.14 105.331 152.426V149.738C105.331 149.444 105.569 149.318 105.849 149.318ZM114.963 154.694C115.201 154.694 115.313 154.89 115.313 155.128C115.313 155.366 115.201 155.562 114.963 155.562H103.987C103.749 155.562 103.637 155.366 103.637 155.128C103.637 154.89 103.749 154.694 103.987 154.694H114.963ZM112.667 156.948C113.395 156.948 113.633 157.172 113.633 157.886V158.922C113.633 159.636 113.395 159.86 112.667 159.86H106.521C106.367 159.86 106.297 159.916 106.297 160.084V160.952C106.297 161.106 106.367 161.162 106.521 161.162H113.647C113.871 161.162 113.969 161.358 113.969 161.568C113.969 161.792 113.871 161.988 113.647 161.988H106.269C105.541 161.988 105.303 161.764 105.303 161.05V160C105.303 159.286 105.541 159.062 106.269 159.062H112.415C112.583 159.062 112.653 159.006 112.653 158.852V157.984C112.653 157.83 112.583 157.76 112.415 157.76H105.611C105.387 157.76 105.275 157.578 105.275 157.354C105.275 157.144 105.387 156.948 105.611 156.948H112.667ZM126.348 149.164C126.6 149.164 126.852 149.29 126.852 149.584V160.728C126.852 161.022 126.6 161.148 126.348 161.148C126.082 161.148 125.844 161.022 125.844 160.728V154.442H123.128C123.016 156.822 121.966 158.096 120.006 158.096C117.934 158.096 116.856 156.668 116.856 154.008C116.856 151.348 117.934 149.92 120.006 149.92C121.952 149.92 123.016 151.194 123.128 153.56H125.844V149.584C125.844 149.29 126.082 149.164 126.348 149.164ZM120.006 150.83C118.508 150.83 117.864 151.978 117.864 154.008C117.864 156.038 118.508 157.186 120.006 157.186C121.504 157.186 122.148 156.038 122.148 154.008C122.148 151.978 121.504 150.83 120.006 150.83ZM130.256 149.878C130.522 149.878 130.774 150.004 130.774 150.298V154.722C130.774 154.904 130.844 154.974 131.04 154.974C133.056 154.974 134.722 154.876 136.388 154.638C136.612 154.61 136.766 154.778 136.808 155.016C136.836 155.268 136.738 155.506 136.514 155.534C135.058 155.744 133.322 155.87 130.704 155.87C129.976 155.87 129.738 155.646 129.738 154.932V150.298C129.738 150.004 129.99 149.878 130.256 149.878ZM138.39 149.164C138.656 149.164 138.908 149.29 138.908 149.584V152.832H140.686C140.938 152.832 141.05 153.042 141.05 153.294C141.05 153.532 140.938 153.742 140.686 153.742H138.908V158.124C138.908 158.418 138.656 158.544 138.39 158.544C138.138 158.544 137.886 158.418 137.886 158.124V149.584C137.886 149.29 138.138 149.164 138.39 149.164ZM131.628 157.452C131.894 157.452 132.146 157.578 132.146 157.872V160.616C132.146 160.798 132.216 160.868 132.412 160.868H138.908C139.16 160.868 139.272 161.078 139.272 161.316C139.272 161.554 139.16 161.764 138.908 161.764H132.076C131.348 161.764 131.11 161.54 131.11 160.826V157.872C131.11 157.578 131.362 157.452 131.628 157.452ZM149.914 149.934C150.236 149.934 150.46 150.06 150.46 150.382V159.58C150.46 159.874 150.222 160 149.942 160C149.676 160 149.438 159.874 149.438 159.58V151.166L147.058 152.678C146.806 152.818 146.568 152.706 146.428 152.482C146.302 152.272 146.316 152.006 146.554 151.852L149.2 150.2C149.48 150.032 149.718 149.934 149.914 149.934ZM157.427 149.836C159.387 149.836 160.409 150.914 160.409 152.3V152.426C160.409 153.462 160.003 154.218 159.079 155.226L155.593 159.062H160.465C160.731 159.062 160.843 159.258 160.843 159.496C160.843 159.748 160.731 159.944 160.465 159.944H155.019C154.459 159.944 154.249 159.762 154.249 159.398C154.249 159.216 154.333 159.062 154.627 158.726L158.197 154.806C159.149 153.756 159.387 153.224 159.387 152.454V152.37C159.387 151.39 158.715 150.76 157.455 150.76C156.419 150.76 155.761 151.236 155.229 152.048C155.089 152.258 154.823 152.314 154.599 152.16C154.375 152.006 154.305 151.754 154.445 151.516C155.033 150.564 155.999 149.836 157.427 149.836ZM172.009 149.682C172.233 149.682 172.345 149.878 172.345 150.116C172.345 150.354 172.233 150.55 172.009 150.55H168.509V150.872C168.509 151.544 168.831 151.992 169.867 152.44C170.861 152.846 171.687 153.168 172.485 153.462C172.751 153.546 172.807 153.826 172.723 154.036C172.639 154.26 172.443 154.4 172.163 154.302C171.393 154.022 170.553 153.7 169.629 153.308C168.481 152.846 168.117 152.44 168.005 152.09H167.991C167.893 152.454 167.515 152.86 166.367 153.322C165.429 153.714 164.603 154.036 163.833 154.316C163.553 154.414 163.343 154.274 163.259 154.05C163.175 153.84 163.231 153.546 163.497 153.462C164.295 153.168 165.121 152.846 166.115 152.44C167.151 151.992 167.473 151.544 167.473 150.872V150.55H163.973C163.749 150.55 163.637 150.354 163.637 150.116C163.637 149.878 163.749 149.682 163.973 149.682H172.009ZM167.991 153.742C168.257 153.742 168.495 153.868 168.495 154.162V155.548H173.479C173.717 155.548 173.829 155.744 173.829 155.982C173.829 156.22 173.717 156.416 173.479 156.416H162.503C162.265 156.416 162.153 156.22 162.153 155.982C162.153 155.744 162.265 155.548 162.503 155.548H167.487V154.162C167.487 153.868 167.739 153.742 167.991 153.742ZM167.991 157.522C170.651 157.522 172.163 158.278 172.163 159.846C172.163 161.414 170.651 162.17 167.991 162.17C165.331 162.17 163.819 161.414 163.819 159.846C163.819 158.278 165.331 157.522 167.991 157.522ZM167.991 158.348C165.849 158.348 164.841 158.88 164.841 159.846C164.841 160.812 165.849 161.344 167.991 161.344C170.133 161.344 171.141 160.812 171.141 159.846C171.141 158.88 170.133 158.348 167.991 158.348ZM179.179 149.906C181.377 149.906 182.483 151.208 182.483 152.888C182.483 154.554 181.377 155.856 179.179 155.856C176.981 155.856 175.875 154.554 175.875 152.888C175.875 151.208 176.981 149.906 179.179 149.906ZM179.179 150.788C177.611 150.788 176.869 151.726 176.869 152.888C176.869 154.05 177.611 154.988 179.179 154.988C180.747 154.988 181.489 154.05 181.489 152.888C181.489 151.726 180.747 150.788 179.179 150.788ZM183.225 157.718C183.449 157.69 183.589 157.858 183.617 158.096C183.631 158.348 183.519 158.572 183.309 158.586C180.705 158.81 178.241 158.894 175.441 158.894C175.189 158.894 175.077 158.698 175.077 158.446C175.077 158.208 175.189 157.998 175.441 157.998C178.003 157.998 180.397 157.97 183.225 157.718ZM185.031 149.164C185.283 149.164 185.535 149.29 185.535 149.584V160.728C185.535 161.022 185.283 161.148 185.031 161.148C184.765 161.148 184.527 161.022 184.527 160.728V149.584C184.527 149.29 184.765 149.164 185.031 149.164ZM196.303 149.906C197.031 149.906 197.269 150.13 197.269 150.844V151.838C197.269 153.77 196.527 154.288 192.187 156.276C191.977 156.374 191.725 156.276 191.599 156.038C191.487 155.828 191.501 155.534 191.753 155.422C195.799 153.602 196.261 153.21 196.261 151.796V151.054C196.261 150.858 196.191 150.788 195.995 150.788H192.033C191.781 150.788 191.669 150.592 191.669 150.354C191.669 150.102 191.781 149.906 192.033 149.906H196.303ZM200.405 149.164C200.671 149.164 200.923 149.29 200.923 149.584V152.202H202.701C202.953 152.202 203.065 152.412 203.065 152.664C203.065 152.902 202.953 153.112 202.701 153.112H200.923V155.954C200.923 156.248 200.671 156.374 200.405 156.374C200.153 156.374 199.901 156.248 199.901 155.954V149.584C199.901 149.29 200.153 149.164 200.405 149.164ZM199.957 157.088C200.685 157.088 200.923 157.312 200.923 158.026V160.924C200.923 161.638 200.685 161.862 199.957 161.862H194.091C193.363 161.862 193.125 161.638 193.125 160.924V158.026C193.125 157.312 193.363 157.088 194.091 157.088H199.957ZM194.413 157.956C194.217 157.956 194.147 158.026 194.147 158.222V160.728C194.147 160.924 194.217 160.994 194.413 160.994H199.649C199.831 160.994 199.915 160.924 199.915 160.728V158.222C199.915 158.026 199.831 157.956 199.649 157.956H194.413ZM210.936 149.92C211.174 149.92 211.286 150.116 211.286 150.354C211.286 150.606 211.174 150.802 210.936 150.802H208.402V151.796C208.402 152.762 208.668 153.35 209.382 153.924C210.082 154.47 210.74 154.96 211.174 155.268C211.412 155.45 211.426 155.716 211.272 155.912C211.146 156.094 210.894 156.206 210.642 156.024C210.306 155.8 209.662 155.31 209.004 154.806C208.276 154.218 207.968 153.826 207.898 153.532H207.884C207.814 153.84 207.506 154.246 206.764 154.834C206.12 155.352 205.448 155.842 204.902 156.22C204.664 156.388 204.412 156.276 204.272 156.094C204.132 155.898 204.118 155.618 204.37 155.45C205.042 154.974 205.686 154.498 206.386 153.938C207.1 153.364 207.366 152.776 207.366 151.824V150.802H204.748C204.51 150.802 204.398 150.606 204.398 150.354C204.398 150.116 204.51 149.92 204.748 149.92H210.936ZM213.848 149.164C214.1 149.164 214.352 149.29 214.352 149.584V156.402C214.352 156.696 214.1 156.822 213.848 156.822C213.582 156.822 213.344 156.696 213.344 156.402V153.35H210.95C210.712 153.35 210.6 153.154 210.6 152.902C210.6 152.664 210.712 152.454 210.95 152.454H213.344V149.584C213.344 149.29 213.582 149.164 213.848 149.164ZM210.46 156.99C213.008 156.99 214.45 157.886 214.45 159.552C214.45 161.218 213.008 162.114 210.46 162.114C207.912 162.114 206.484 161.218 206.484 159.552C206.484 157.886 207.912 156.99 210.46 156.99ZM210.46 157.83C208.444 157.83 207.492 158.488 207.492 159.552C207.492 160.616 208.444 161.274 210.46 161.274C212.49 161.274 213.442 160.616 213.442 159.552C213.442 158.488 212.49 157.83 210.46 157.83ZM222.46 149.738C225.134 149.738 226.646 151.012 226.646 153.07C226.646 155.142 225.134 156.416 222.46 156.416C219.786 156.416 218.274 155.142 218.274 153.07C218.274 151.012 219.786 149.738 222.46 149.738ZM222.46 150.606C220.318 150.606 219.296 151.656 219.296 153.07C219.296 154.484 220.318 155.534 222.46 155.534C224.602 155.534 225.624 154.484 225.624 153.07C225.624 151.656 224.602 150.606 222.46 150.606ZM227.934 158.95C228.186 158.95 228.298 159.16 228.298 159.412C228.298 159.65 228.186 159.846 227.934 159.846H216.986C216.734 159.846 216.622 159.65 216.622 159.412C216.622 159.16 216.734 158.95 216.986 158.95H227.934ZM238.352 149.92C239.08 149.92 239.318 150.144 239.318 150.858V152.678C239.318 153.392 239.08 153.616 238.352 153.616H232.346C232.15 153.616 232.08 153.686 232.08 153.882V155.352C232.08 155.534 232.15 155.604 232.346 155.604H239.304C239.542 155.604 239.654 155.8 239.654 156.038C239.654 156.276 239.542 156.486 239.304 156.486H235.72V158.964H240.676C240.928 158.964 241.04 159.16 241.04 159.412C241.04 159.65 240.928 159.846 240.676 159.846H229.728C229.476 159.846 229.364 159.65 229.364 159.412C229.364 159.16 229.476 158.964 229.728 158.964H234.698V156.486H232.038C231.31 156.486 231.072 156.262 231.072 155.548V153.714C231.072 153 231.31 152.776 232.038 152.776H238.058C238.24 152.776 238.324 152.706 238.324 152.51V151.054C238.324 150.858 238.24 150.788 238.058 150.788H231.394C231.156 150.788 231.044 150.592 231.044 150.354C231.044 150.116 231.156 149.92 231.394 149.92H238.352ZM255.644 150.06C255.868 150.06 255.98 150.256 255.98 150.494C255.98 150.732 255.868 150.928 255.644 150.928H254.048V155.044H255.714C255.952 155.044 256.064 155.24 256.064 155.478C256.064 155.716 255.952 155.912 255.714 155.912H253.838V158.978H256.932C257.17 158.978 257.282 159.174 257.282 159.412C257.282 159.65 257.17 159.846 256.932 159.846H245.956C245.718 159.846 245.606 159.65 245.606 159.412C245.606 159.174 245.718 158.978 245.956 158.978H249.05V155.912H247.174C246.936 155.912 246.824 155.716 246.824 155.478C246.824 155.24 246.936 155.044 247.174 155.044H248.84V150.928H247.244C247.02 150.928 246.908 150.732 246.908 150.494C246.908 150.256 247.02 150.06 247.244 150.06H255.644ZM249.834 155.044H253.054V150.928H249.834V155.044ZM250.03 158.978H252.858V155.912H250.03V158.978ZM262.254 152.538C264.046 152.538 265.082 153.448 265.082 154.82C265.082 156.192 264.046 157.102 262.254 157.102C260.462 157.102 259.426 156.192 259.426 154.82C259.426 153.448 260.462 152.538 262.254 152.538ZM262.254 149.136C262.52 149.136 262.772 149.262 262.772 149.556V150.662H265.488C265.74 150.662 265.852 150.858 265.852 151.096C265.852 151.348 265.74 151.544 265.488 151.544H258.88C258.628 151.544 258.516 151.348 258.516 151.096C258.516 150.858 258.628 150.662 258.88 150.662H261.736V149.556C261.736 149.262 262.002 149.136 262.254 149.136ZM262.254 153.364C261.036 153.364 260.364 153.952 260.364 154.82C260.364 155.688 261.036 156.276 262.254 156.276C263.472 156.276 264.144 155.688 264.144 154.82C264.144 153.952 263.472 153.364 262.254 153.364ZM268.33 149.164C268.582 149.164 268.82 149.29 268.82 149.584V158.278C268.82 158.558 268.582 158.684 268.33 158.684C268.064 158.684 267.812 158.558 267.812 158.278V155.982H266.076C265.838 155.982 265.726 155.8 265.726 155.548C265.726 155.31 265.838 155.114 266.076 155.114H267.812V153.56H266.006C265.768 153.56 265.656 153.378 265.656 153.126C265.656 152.888 265.768 152.692 266.006 152.692H267.812V149.584C267.812 149.29 268.064 149.164 268.33 149.164ZM261.344 157.984C261.61 157.984 261.862 158.11 261.862 158.404V160.616C261.862 160.798 261.932 160.868 262.128 160.868H268.82C269.072 160.868 269.184 161.078 269.184 161.316C269.184 161.554 269.072 161.764 268.82 161.764H261.792C261.064 161.764 260.826 161.54 260.826 160.826V158.404C260.826 158.11 261.078 157.984 261.344 157.984ZM274.269 153.014C275.991 153.014 276.845 154.176 276.845 155.66C276.845 157.144 275.991 158.306 274.269 158.306C272.547 158.306 271.707 157.144 271.707 155.66C271.707 154.176 272.547 153.014 274.269 153.014ZM274.269 149.248C274.521 149.248 274.773 149.374 274.773 149.668V151.082H277.069C277.321 151.082 277.433 151.278 277.433 151.516C277.433 151.768 277.321 151.964 277.069 151.964H271.301C271.063 151.964 270.951 151.768 270.951 151.516C270.951 151.278 271.063 151.082 271.301 151.082H273.765V149.668C273.765 149.374 274.017 149.248 274.269 149.248ZM274.269 153.882C273.135 153.882 272.617 154.666 272.617 155.66C272.617 156.668 273.135 157.452 274.269 157.452C275.417 157.452 275.935 156.668 275.935 155.66C275.935 154.666 275.417 153.882 274.269 153.882ZM281.395 149.164C281.647 149.164 281.885 149.29 281.885 149.57V160.742C281.885 161.022 281.647 161.148 281.395 161.148C281.157 161.148 280.919 161.022 280.919 160.742V154.582H279.085V160.154C279.085 160.434 278.847 160.56 278.595 160.56C278.357 160.56 278.119 160.434 278.119 160.154V149.71C278.119 149.43 278.357 149.304 278.595 149.304C278.847 149.304 279.085 149.43 279.085 149.71V153.7H280.919V149.57C280.919 149.29 281.157 149.164 281.395 149.164ZM289.671 149.682C292.345 149.682 293.857 150.914 293.857 152.93C293.857 154.946 292.345 156.178 289.671 156.178C286.997 156.178 285.485 154.946 285.485 152.93C285.485 150.914 286.997 149.682 289.671 149.682ZM289.671 150.55C287.529 150.55 286.507 151.558 286.507 152.93C286.507 154.288 287.529 155.296 289.671 155.296C291.813 155.296 292.835 154.288 292.835 152.93C292.835 151.558 291.813 150.55 289.671 150.55ZM287.445 156.5C287.725 156.5 287.963 156.626 287.963 156.92V158.978H291.379V156.92C291.379 156.626 291.617 156.5 291.883 156.5C292.149 156.5 292.401 156.626 292.401 156.92V158.978H295.159C295.397 158.978 295.509 159.174 295.509 159.412C295.509 159.65 295.397 159.846 295.159 159.846H284.183C283.945 159.846 283.833 159.65 283.833 159.412C283.833 159.174 283.945 158.978 284.183 158.978H286.941V156.92C286.941 156.626 287.193 156.5 287.445 156.5Z" fill="white"/>
<path d="M250.826 65.7499C250.826 65.7499 248.416 69.7843 251.828 71.7586C250.979 74.2112 252.644 76.0506 255.115 77.05C256.081 71.4214 252.543 65.9645 250.826 65.7499Z" fill="#FAB0CF"/>
<path d="M251.728 73.7206C251.666 75.5355 255.529 78.2579 261.446 78.2977C261.796 77.0263 261.909 75.7012 261.777 74.389C261.612 72.5496 260.922 71.032 259.475 69.3827C258.288 68.0307 256.624 66.8964 255.443 65.618C254.766 64.8823 254.125 64.1281 253.533 63.3525C253.389 63.1615 253.195 63.0132 252.972 62.9233C252.7 62.8068 252.395 62.7925 252.114 62.8832C251.832 62.974 251.593 63.1635 251.44 63.4169C251.069 63.9965 250.896 64.6805 250.946 65.3667C251.075 67.0957 251.958 68.555 254.567 69.2785" fill="#FAB0CF"/>
<path d="M250.826 65.7499L250.907 65.1049L250.486 65.0523L250.268 65.4166L250.826 65.7499ZM251.828 71.7586L252.443 71.9713L252.618 71.4646L252.154 71.196L251.828 71.7586ZM255.115 77.05L254.871 77.6526L255.619 77.9551L255.756 77.1599L255.115 77.05ZM252.377 73.7426C252.39 73.3838 252.109 73.0831 251.75 73.071C251.391 73.0589 251.09 73.3399 251.078 73.6987L252.377 73.7426ZM261.446 78.2977L261.442 78.9477C261.736 78.9497 261.995 78.7539 262.073 78.4703L261.446 78.2977ZM261.777 74.389L261.13 74.4472L261.13 74.4537L261.777 74.389ZM259.475 69.3827L259.963 68.954L259.963 68.954L259.475 69.3827ZM255.443 65.618L254.965 66.0584L254.966 66.059L255.443 65.618ZM253.533 63.3525L253.016 63.7454L253.017 63.7467L253.533 63.3525ZM252.972 62.9233L252.716 63.5209L252.729 63.5259L252.972 62.9233ZM251.44 63.4169L251.987 63.7672C251.99 63.7624 251.993 63.7576 251.996 63.7527L251.44 63.4169ZM250.946 65.3667L250.298 65.4142L250.298 65.4149L250.946 65.3667ZM254.393 69.9048C254.739 70.0008 255.097 69.7981 255.193 69.4522C255.289 69.1062 255.086 68.748 254.74 68.6521L254.393 69.9048ZM250.826 65.7499C250.268 65.4166 250.268 65.4168 250.268 65.4171C250.268 65.4172 250.267 65.4175 250.267 65.4177C250.267 65.4181 250.267 65.4186 250.266 65.4192C250.266 65.4203 250.265 65.4216 250.264 65.4232C250.262 65.4264 250.26 65.4306 250.257 65.4358C250.251 65.4461 250.243 65.4603 250.233 65.4781C250.213 65.5138 250.185 65.5642 250.152 65.6278C250.086 65.7549 249.998 65.9358 249.904 66.1584C249.717 66.6005 249.502 67.2228 249.404 67.9237C249.306 68.6241 249.321 69.4323 249.626 70.2215C249.936 71.0229 250.529 71.7576 251.503 72.3212L252.154 71.196C251.422 70.7725 251.036 70.2625 250.838 69.7522C250.636 69.2296 250.614 68.6591 250.691 68.1041C250.769 67.5496 250.943 67.0399 251.102 66.6638C251.18 66.4773 251.254 66.3276 251.306 66.2264C251.332 66.1759 251.353 66.1376 251.367 66.1132C251.374 66.101 251.379 66.0923 251.382 66.0872C251.383 66.0847 251.384 66.0831 251.384 66.0824C251.385 66.082 251.385 66.0819 251.385 66.0821C251.385 66.0821 251.385 66.0823 251.384 66.0824C251.384 66.0825 251.384 66.0827 251.384 66.0828C251.384 66.083 251.384 66.0832 250.826 65.7499ZM251.214 71.5459C250.721 72.9715 250.957 74.2609 251.693 75.3199C252.408 76.3506 253.566 77.1247 254.871 77.6526L255.359 76.4474C254.193 75.9758 253.283 75.3305 252.761 74.5785C252.258 73.8549 252.087 72.9982 252.443 71.9713L251.214 71.5459ZM255.756 77.1599C256.266 74.1852 255.585 71.2786 254.565 69.0946C254.054 68.001 253.449 67.0678 252.843 66.3834C252.54 66.0414 252.227 65.7507 251.915 65.533C251.609 65.3202 251.266 65.1498 250.907 65.1049L250.745 66.3949C250.815 66.4036 250.958 66.4507 251.171 66.5993C251.377 66.7432 251.615 66.9579 251.87 67.2456C252.379 67.8206 252.92 68.6437 253.387 69.6448C254.324 71.65 254.93 74.2862 254.474 76.9401L255.756 77.1599ZM251.078 73.6987C251.055 74.3837 251.398 75.0496 251.899 75.6232C252.409 76.2077 253.139 76.7644 254.037 77.2474C255.838 78.215 258.388 78.9271 261.442 78.9477L261.45 77.6477C258.587 77.6284 256.248 76.9595 254.653 76.1023C253.854 75.6728 253.26 75.2061 252.878 74.7685C252.487 74.32 252.37 73.9651 252.377 73.7426L251.078 73.6987ZM262.073 78.4703C262.444 77.1217 262.563 75.7161 262.424 74.3242L261.13 74.4537C261.254 75.6862 261.148 76.9309 260.819 78.1251L262.073 78.4703ZM262.424 74.3307C262.245 72.3322 261.486 70.6891 259.963 68.954L258.986 69.8114C260.358 71.375 260.978 72.7669 261.13 74.4472L262.424 74.3307ZM259.963 68.954C259.336 68.2387 258.589 67.5892 257.881 66.98C257.159 66.3591 256.48 65.7828 255.921 65.1771L254.966 66.059C255.587 66.7317 256.331 67.3617 257.033 67.9656C257.749 68.5811 258.427 69.1747 258.986 69.8114L259.963 68.954ZM255.922 65.1777C255.256 64.4544 254.628 63.7157 254.05 62.9583L253.017 63.7467C253.622 64.5406 254.276 65.3101 254.965 66.0584L255.922 65.1777ZM254.051 62.9596C253.836 62.6753 253.547 62.4546 253.216 62.3207L252.729 63.5259C252.842 63.5719 252.942 63.6477 253.016 63.7454L254.051 62.9596ZM253.228 62.3258C252.812 62.1475 252.345 62.1257 251.914 62.2645L252.313 63.502C252.445 63.4593 252.589 63.466 252.716 63.5208L253.228 62.3258ZM251.914 62.2645C251.483 62.4033 251.117 62.6933 250.883 63.081L251.996 63.7527C252.068 63.6337 252.181 63.5446 252.313 63.502L251.914 62.2645ZM250.892 63.0666C250.446 63.7644 250.237 64.588 250.298 65.4142L251.594 65.3191C251.554 64.7729 251.692 64.2285 251.987 63.7672L250.892 63.0666ZM250.298 65.4149C250.37 66.378 250.656 67.3162 251.328 68.1173C251.998 68.9156 252.999 69.5183 254.393 69.9048L254.74 68.6521C253.525 68.3151 252.781 67.8264 252.324 67.282C251.87 66.7404 251.651 66.0844 251.594 65.3184L250.298 65.4149Z" fill="#FAB0CF"/>
<path d="M274.349 57.5147C281.419 57.2211 286.094 61.3039 289.259 66.1824C289.716 66.8866 290.14 67.616 290.525 68.3612C290.734 68.7559 290.934 69.1569 291.13 69.5579C293.533 74.4712 295.307 79.9434 293.803 85.504C291.383 94.4211 282.9 96.1989 273.09 96.3504C271.373 96.3826 269.66 96.1699 268.006 95.7189C266.461 95.3049 265 94.6353 263.684 93.7391C259.706 90.9477 257.9 86.7702 257.527 82.6874C257.071 77.5815 258.411 74.0228 260.38 69.3464C262.013 65.472 265.503 61.0197 269.67 58.8441C271.109 58.062 272.708 57.6077 274.349 57.5147Z" fill="#FAB0CF"/>
<path d="M274.095 59.3662C274.74 58.7679 275.239 58.0305 275.555 57.2102C276.2 55.5571 276.055 53.8435 275.311 52.6623C273.962 53.0244 272.691 54.1871 272.047 55.8373C271.403 57.4875 271.544 59.2029 272.291 60.3852" fill="#FAB0CF"/>
<path d="M274.095 59.3662C274.74 58.7679 275.239 58.0305 275.555 57.2102C276.2 55.5571 276.055 53.8435 275.311 52.6623C273.962 53.0244 272.691 54.1871 272.047 55.8373C271.403 57.4875 271.544 59.2029 272.291 60.3852" stroke="#FAB0CF" stroke-width="1.3" stroke-linecap="round" stroke-linejoin="round"/>
<path d="M300.284 69.126C300.284 70.1837 299.977 71.364 298.815 72.1702C298.621 72.3088 298.463 72.4931 298.356 72.7069C298.249 72.9207 298.196 73.1575 298.202 73.3965C298.209 73.9199 298.096 74.4378 297.872 74.9107C297.647 75.3837 297.318 75.799 296.908 76.125C296.668 76.3256 296.373 76.448 296.061 76.4757C295.749 76.5034 295.437 76.435 295.165 76.2799C294.893 76.1247 294.676 75.8901 294.541 75.6075C294.407 75.325 294.362 75.0081 294.413 74.6994C294.86 72.2428 295.973 69.9563 297.632 68.0898C297.841 67.8661 298.113 67.7102 298.412 67.6425C298.711 67.5747 299.023 67.5981 299.309 67.7097C299.594 67.8212 299.84 68.0158 300.014 68.2683C300.187 68.5207 300.282 68.8195 300.284 69.126Z" fill="#FAB0CF"/>
<path d="M297.973 74.5308C297.847 76.0882 294.543 77.992 289.938 78.0932C289.617 78.119 289.294 78.0724 288.994 77.9567C288.694 77.841 288.423 77.6592 288.203 77.4248C287.712 76.8485 287.654 76.0177 287.715 75.2789C287.905 72.9091 289.021 70.9195 290.763 69.3376C292.093 68.1297 293.874 67.1916 295.189 66.0512C295.946 65.3992 296.661 64.7196 297.335 64.0125C297.503 63.8383 297.715 63.7132 297.948 63.6507C298.23 63.5692 298.53 63.5907 298.797 63.7116C299.063 63.8325 299.278 64.0447 299.402 64.3098C299.706 64.927 299.802 65.6263 299.674 66.3025C299.353 68.0071 298.313 69.3682 295.637 69.7852" fill="#FAB0CF"/>
<path d="M300.284 69.126H300.934L300.934 69.1212L300.284 69.126ZM298.815 72.1702L298.445 71.6362L298.439 71.6405L298.815 72.1702ZM298.202 73.3965L298.852 73.3881L298.852 73.38L298.202 73.3965ZM296.908 76.125L296.504 75.6164L296.498 75.6213L296.492 75.6263L296.908 76.125ZM294.413 74.6994L293.773 74.5831L293.772 74.5937L294.413 74.6994ZM297.632 68.0898L297.157 67.6456L297.152 67.6518L297.146 67.6581L297.632 68.0898ZM298.621 74.5831C298.65 74.2253 298.383 73.9118 298.025 73.883C297.667 73.8541 297.354 74.1207 297.325 74.4786L298.621 74.5831ZM289.938 78.0932L289.924 77.4433C289.911 77.4436 289.898 77.4443 289.886 77.4453L289.938 78.0932ZM288.203 77.4248L287.708 77.8461C287.715 77.8544 287.722 77.8624 287.729 77.8703L288.203 77.4248ZM287.715 75.2789L288.363 75.3326L288.363 75.3308L287.715 75.2789ZM290.763 69.3376L290.326 68.8563L290.325 68.8565L290.763 69.3376ZM295.189 66.0512L294.765 65.5589L294.764 65.5601L295.189 66.0512ZM297.335 64.0125L296.867 63.5617L296.865 63.5639L297.335 64.0125ZM297.948 63.6507L298.117 64.2788L298.13 64.275L297.948 63.6507ZM299.402 64.3098L298.812 64.5848L298.819 64.5972L299.402 64.3098ZM299.674 66.3025L300.313 66.4232L300.313 66.4226L299.674 66.3025ZM295.537 69.1429C295.182 69.1982 294.939 69.5305 294.995 69.8852C295.05 70.2399 295.382 70.4827 295.737 70.4274L295.537 69.1429ZM299.634 69.126C299.634 70.0596 299.369 70.9946 298.445 71.6362L299.186 72.7043C300.585 71.7334 300.934 70.3077 300.934 69.126H299.634ZM298.439 71.6405C298.157 71.8408 297.929 72.1071 297.774 72.4162L298.937 72.9976C298.996 72.879 299.084 72.7768 299.192 72.7L298.439 71.6405ZM297.774 72.4162C297.62 72.7253 297.544 73.0676 297.552 73.413L298.852 73.38C298.849 73.2475 298.878 73.1162 298.937 72.9976L297.774 72.4162ZM297.552 73.4049C297.558 73.8291 297.466 74.2489 297.284 74.6323L298.459 75.1892C298.726 74.6267 298.86 74.0106 298.852 73.3881L297.552 73.4049ZM297.284 74.6323C297.103 75.0156 296.836 75.3522 296.504 75.6164L297.313 76.6335C297.8 76.2458 298.192 75.7518 298.459 75.1892L297.284 74.6323ZM296.492 75.6263C296.353 75.7418 296.183 75.8123 296.004 75.8283L296.119 77.1232C296.562 77.0837 296.983 76.9095 297.325 76.6237L296.492 75.6263ZM296.004 75.8283C295.824 75.8442 295.644 75.8048 295.488 75.7155L294.843 76.8443C295.23 77.0653 295.675 77.1626 296.119 77.1232L296.004 75.8283ZM295.488 75.7155C295.331 75.6261 295.206 75.491 295.128 75.3282L293.954 75.8868C294.146 76.2892 294.456 76.6233 294.843 76.8443L295.488 75.7155ZM295.128 75.3282C295.051 75.1655 295.025 74.983 295.054 74.8052L293.772 74.5937C293.699 75.0333 293.763 75.4845 293.954 75.8868L295.128 75.3282ZM295.053 74.8158C295.478 72.4764 296.538 70.299 298.118 68.5216L297.146 67.6581C295.408 69.6137 294.242 72.0093 293.774 74.5831L295.053 74.8158ZM298.106 68.534C298.227 68.4052 298.384 68.3154 298.556 68.2764L298.268 67.0086C297.843 67.1051 297.456 67.327 297.157 67.6456L298.106 68.534ZM298.556 68.2764C298.728 68.2374 298.908 68.2509 299.072 68.3151L299.545 67.1043C299.139 66.9454 298.694 66.9121 298.268 67.0086L298.556 68.2764ZM299.072 68.3151C299.237 68.3794 299.378 68.4914 299.478 68.6368L300.549 67.8997C300.302 67.5402 299.952 67.2631 299.545 67.1043L299.072 68.3151ZM299.478 68.6368C299.578 68.7822 299.633 68.9543 299.634 69.1308L300.934 69.1212C300.931 68.6847 300.797 68.2593 300.549 67.8997L299.478 68.6368ZM297.325 74.4786C297.311 74.6541 297.195 74.9288 296.853 75.2704C296.518 75.6043 296.016 75.953 295.353 76.2726C294.029 76.9106 292.145 77.3945 289.924 77.4433L289.952 78.743C292.335 78.6906 294.406 78.1721 295.917 77.4436C296.672 77.0799 297.307 76.6543 297.771 76.1901C298.228 75.7336 298.572 75.1863 298.621 74.5831L297.325 74.4786ZM289.886 77.4453C289.662 77.4633 289.437 77.4308 289.228 77.3501L288.761 78.5633C289.152 78.714 289.572 78.7748 289.99 78.7411L289.886 77.4453ZM289.228 77.3501C289.018 77.2695 288.83 77.1428 288.676 76.9794L287.729 77.8703C288.017 78.1757 288.369 78.4125 288.761 78.5633L289.228 77.3501ZM288.698 77.0036C288.386 76.637 288.304 76.0392 288.363 75.3326L287.067 75.2251C287.003 75.9962 287.039 77.06 287.708 77.8461L288.698 77.0036ZM288.363 75.3308C288.538 73.1497 289.562 71.3068 291.2 69.8187L290.325 68.8565C288.481 70.5321 287.273 72.6685 287.067 75.2269L288.363 75.3308ZM291.199 69.8188C291.826 69.25 292.567 68.7374 293.347 68.2064C294.113 67.6855 294.923 67.1428 295.615 66.5422L294.764 65.5601C294.141 66.1 293.403 66.5965 292.616 67.1317C291.844 67.6568 291.03 68.2173 290.326 68.8563L291.199 69.8188ZM295.614 66.5434C296.386 65.878 297.116 65.1839 297.806 64.4611L296.865 63.5639C296.205 64.2554 295.505 64.9204 294.765 65.5589L295.614 66.5434ZM297.804 64.4632C297.889 64.3744 297.997 64.3105 298.117 64.2786L297.78 63.0228C297.433 63.116 297.117 63.3023 296.867 63.5617L297.804 64.4632ZM298.13 64.275C298.262 64.2366 298.403 64.2468 298.528 64.3036L299.065 63.1197C298.658 62.9347 298.197 62.9017 297.767 63.0265L298.13 64.275ZM298.528 64.3036C298.654 64.3604 298.754 64.4601 298.813 64.5847L299.991 64.035C299.801 63.6292 299.473 63.3046 299.065 63.1197L298.528 64.3036ZM298.819 64.5972C299.061 65.0882 299.137 65.6445 299.036 66.1825L300.313 66.4226C300.466 65.6081 300.351 64.7659 299.985 64.0225L298.819 64.5972ZM299.036 66.1819C298.893 66.9379 298.602 67.5679 298.09 68.0564C297.576 68.5469 296.782 68.9489 295.537 69.1429L295.737 70.4274C297.168 70.2045 298.232 69.7174 298.987 68.997C299.745 68.2745 300.134 67.3717 300.313 66.4232L299.036 66.1819Z" fill="#FAB0CF"/>
<path d="M293.847 58.1655L290.781 59.6738C290.636 59.7465 290.478 59.7896 290.316 59.8008C290.154 59.8119 289.991 59.7907 289.838 59.7385C289.684 59.6863 289.542 59.6042 289.42 59.4967C289.299 59.3893 289.199 59.2588 289.129 59.1128C289.056 58.9678 289.014 58.8099 289.003 58.6483C288.992 58.4867 289.013 58.3245 289.065 58.1711C289.117 58.0178 289.2 57.8763 289.307 57.7548C289.414 57.6333 289.544 57.5343 289.69 57.4634L292.755 55.952C292.901 55.8784 293.059 55.8344 293.222 55.8228C293.385 55.8112 293.548 55.8321 293.702 55.8844C293.857 55.9366 293.999 56.0191 294.121 56.1271C294.244 56.235 294.343 56.3662 294.414 56.5131C294.486 56.6586 294.529 56.817 294.54 56.9793C294.551 57.1415 294.529 57.3042 294.476 57.458C294.423 57.6117 294.341 57.7535 294.232 57.8749C294.124 57.9964 293.993 58.0952 293.847 58.1655Z" fill="#FAB0CF" stroke="#FAB0CF" stroke-width="1.3" stroke-linecap="round" stroke-linejoin="round"/>
<path d="M298.652 89.3048C299.565 89.3048 300.305 88.565 300.305 87.6524C300.305 86.7398 299.565 86 298.652 86C297.74 86 297 86.7398 297 87.6524C297 88.565 297.74 89.3048 298.652 89.3048Z" fill="#FAB0CF" stroke="#FAB0CF" stroke-width="1.3" stroke-linecap="round" stroke-linejoin="round"/>
<path d="M259.676 60.8047C260.588 60.8047 261.328 60.0649 261.328 59.1523C261.328 58.2397 260.588 57.4999 259.676 57.4999C258.763 57.4999 258.023 58.2397 258.023 59.1523C258.023 60.0649 258.763 60.8047 259.676 60.8047Z" fill="#FAB0CF" stroke="#FAB0CF" stroke-width="1.3" stroke-linecap="round" stroke-linejoin="round"/>
<path d="M255.056 88.1163L252.135 89.8956C251.996 89.9806 251.843 90.0374 251.682 90.0626C251.522 90.0878 251.359 90.081 251.201 90.0425C251.043 90.0039 250.895 89.9346 250.764 89.8383C250.634 89.742 250.524 89.6207 250.44 89.4816C250.355 89.3434 250.298 89.1897 250.273 89.0294C250.248 88.8692 250.255 88.7055 250.293 88.5479C250.332 88.3902 250.401 88.2418 250.497 88.1112C250.594 87.9806 250.715 87.8705 250.854 87.7871L253.774 86.0137C253.912 85.9287 254.066 85.8719 254.226 85.8467C254.387 85.8215 254.55 85.8284 254.708 85.8669C254.866 85.9054 255.014 85.9748 255.145 86.0711C255.275 86.1674 255.385 86.2886 255.469 86.4278C255.553 86.5656 255.609 86.7188 255.634 86.8784C255.659 87.038 255.652 87.2009 255.613 87.3578C255.575 87.5147 255.506 87.6625 255.41 87.7926C255.315 87.9228 255.194 88.0328 255.056 88.1163Z" fill="#FAB0CF" stroke="#FAB0CF" stroke-width="1.3" stroke-linecap="round" stroke-linejoin="round"/>
</svg>
