<svg width="18" height="18" viewBox="0 0 18 18" fill="none" xmlns="http://www.w3.org/2000/svg">
<path d="M15.9605 13.818C15.6996 14.4206 15.3908 14.9754 15.0331 15.4854C14.5454 16.1807 14.1461 16.662 13.8384 16.9293C13.3613 17.368 12.8502 17.5926 12.303 17.6054C11.91 17.6054 11.4362 17.4936 10.8847 17.2668C10.3313 17.0411 9.82275 16.9293 9.35776 16.9293C8.87009 16.9293 8.34707 17.0411 7.78763 17.2668C7.22735 17.4936 6.77598 17.6118 6.43089 17.6235C5.90606 17.6459 5.38293 17.4148 4.86076 16.9293C4.52748 16.6386 4.11062 16.1403 3.61124 15.4343C3.07544 14.6805 2.63494 13.8063 2.28984 12.8096C1.92026 11.7331 1.73499 10.6907 1.73499 9.68151C1.73499 8.52548 1.98478 7.52842 2.48512 6.69288C2.87835 6.02175 3.40148 5.49234 4.05621 5.1037C4.71095 4.71505 5.41839 4.517 6.18024 4.50433C6.5971 4.50433 7.14376 4.63328 7.82309 4.8867C8.50051 5.14097 8.93547 5.26991 9.12617 5.26991C9.26875 5.26991 9.75194 5.11914 10.5711 4.81855C11.3457 4.53979 11.9995 4.42437 12.5351 4.46983C13.9864 4.58696 15.0767 5.15907 15.8018 6.18978C14.5039 6.97622 13.8618 8.07774 13.8746 9.49081C13.8863 10.5915 14.2856 11.5074 15.0703 12.2346C15.426 12.5722 15.8231 12.8331 16.265 13.0183C16.1692 13.2962 16.068 13.5624 15.9605 13.818V13.818ZM12.632 0.720098C12.632 1.58279 12.3168 2.38829 11.6886 3.13385C10.9304 4.02018 10.0135 4.53234 9.01906 4.45152C9.00638 4.34802 8.99904 4.23909 8.99904 4.12463C8.99904 3.29644 9.35957 2.41012 9.99983 1.68543C10.3195 1.31851 10.726 1.01341 11.219 0.770036C11.7109 0.530289 12.1762 0.397705 12.6139 0.375C12.6266 0.490329 12.632 0.605665 12.632 0.720087V0.720098Z" fill="white"/>
</svg>
