<svg width="234" height="98" viewBox="0 0 234 98" fill="none" xmlns="http://www.w3.org/2000/svg">
<path d="M233.158 72.8385C232.661 72.3907 232.006 72.1574 231.338 72.1896C230.669 72.2217 230.04 72.5167 229.588 73.0101C226.489 76.4201 222.74 77.6442 219.294 76.4201C217.589 75.7866 216.118 74.6516 215.075 73.1655C216.82 72.9656 218.503 72.392 220.006 71.4837C221.509 70.5755 222.798 69.3542 223.785 67.9032C226.44 63.9686 226.67 58.3468 224.334 54.5384C223.815 53.6636 223.115 52.9096 222.281 52.3271C221.446 51.7445 220.496 51.3469 219.495 51.1608C218.375 50.9806 217.23 51.038 216.134 51.3293C215.038 51.6205 214.015 52.1392 213.134 52.8513C209.496 55.6719 207.419 60.9731 207.714 66.6823C208.074 73.5023 211.933 79.2051 217.587 81.2096C218.986 81.7045 220.46 81.9554 221.945 81.9512C226.008 81.9512 230.059 80.0309 233.346 76.4169C233.57 76.1698 233.743 75.8812 233.854 75.5675C233.966 75.2537 234.014 74.9211 233.997 74.5887C233.979 74.2562 233.896 73.9305 233.752 73.6301C233.608 73.3298 233.406 73.0608 233.158 72.8385ZM213.15 68.1623H212.991C212.888 67.5796 212.821 66.9913 212.79 66.4006C212.585 62.4465 213.974 58.6026 216.253 56.8377C216.573 56.5679 216.945 56.3661 217.346 56.2447C217.748 56.1234 218.169 56.0849 218.586 56.1317C218.883 56.193 219.163 56.3191 219.405 56.5011C219.648 56.6831 219.847 56.9164 219.988 57.1842C221.27 59.2762 221.075 62.8125 219.556 65.0696C218.865 66.078 217.926 66.8921 216.828 67.4337C215.731 67.9753 214.512 68.2262 213.29 68.1623H213.15Z" fill="#07BEB8"/>
<path d="M199.04 52.4008C198.244 51.7987 197.314 51.3984 196.329 51.2343C195.344 51.0701 194.334 51.147 193.386 51.4584C191.573 52.1171 190.04 53.3738 189.04 55.0206C188.04 53.3745 186.507 52.118 184.695 51.4584C183.745 51.1454 182.733 51.0676 181.746 51.2318C180.76 51.3959 179.828 51.7971 179.031 52.4008C174.913 55.3865 174.283 60.7007 173.865 64.2176C173.333 68.7092 172.816 74.0233 173.037 79.412C173.064 80.0658 173.343 80.684 173.816 81.1372C174.289 81.5905 174.919 81.8437 175.575 81.844H175.679C176.012 81.8307 176.339 81.752 176.642 81.6124C176.944 81.4729 177.217 81.2752 177.443 81.0307C177.669 80.7862 177.844 80.4997 177.959 80.1875C178.074 79.8753 178.127 79.5436 178.113 79.2112C177.909 74.1755 178.402 69.1107 178.911 64.8199C179.327 61.3257 179.885 58.0614 182.021 56.5038C182.162 56.3703 182.338 56.2786 182.529 56.2386C182.72 56.1986 182.918 56.2119 183.101 56.2771C183.939 56.5523 184.87 57.6502 185.224 58.7771C185.577 59.9041 185.668 62.1126 185.756 64.0751C185.876 66.7726 185.986 69.3148 186.642 71.1801C186.815 71.6765 187.139 72.1069 187.569 72.4114C187.998 72.716 188.512 72.8796 189.039 72.8796C189.566 72.8796 190.079 72.716 190.509 72.4114C190.938 72.1069 191.262 71.6765 191.435 71.1801C192.085 69.3148 192.205 66.7726 192.321 64.0783C192.409 62.1126 192.51 59.8879 192.857 58.7771C193.204 57.6663 194.155 56.5523 194.979 56.2771C195.163 56.2119 195.362 56.1989 195.552 56.2395C195.743 56.2801 195.919 56.3727 196.06 56.507C198.205 58.0614 198.754 61.3257 199.169 64.8199C199.679 69.1107 200.172 74.1755 199.968 79.2112C199.954 79.5436 200.006 79.8753 200.122 80.1875C200.237 80.4997 200.412 80.7862 200.638 81.0307C200.864 81.2752 201.136 81.4729 201.439 81.6124C201.741 81.752 202.069 81.8307 202.402 81.844H202.506C203.161 81.8437 203.792 81.5905 204.265 81.1372C204.738 80.684 205.017 80.0658 205.044 79.412C205.264 74.0233 204.748 68.7092 204.216 64.2176C203.788 60.7007 203.158 55.3865 199.04 52.4008Z" fill="#07BEB8"/>
<path d="M30.176 70.7104C29.8609 70.5983 29.5267 70.5495 29.1926 70.5669C28.8585 70.5842 28.5312 70.6674 28.2295 70.8116C27.9278 70.9558 27.6577 71.1582 27.4348 71.407C27.2118 71.6559 27.0404 71.9463 26.9305 72.2616C26.5467 73.3073 25.9225 74.2487 25.1081 75.0102C24.2936 75.7717 23.3116 76.3321 22.2409 76.6463C21.234 76.9415 20.1701 76.9866 19.1418 76.7778C18.1135 76.569 17.1519 76.1125 16.3407 75.4481C15.8027 74.9979 15.3784 74.4277 15.1022 73.7835C14.8259 73.1394 14.7054 72.4394 14.7505 71.7402C14.9549 64.8133 16.2012 58.2265 17.8466 51.6008C16.1655 51.3504 14.4833 51.0935 12.8 50.8301C11.1415 57.5885 9.87908 64.3567 9.67137 71.5912C9.59831 73.0819 9.87917 74.5688 10.4911 75.9306C11.103 77.2925 12.0287 78.4908 13.1927 79.4281C14.638 80.5912 16.3437 81.3883 18.1645 81.7515C19.9853 82.1146 21.8671 82.033 23.6494 81.5136C25.5001 80.9818 27.1974 80.018 28.6009 78.702C30.0044 77.3861 31.0738 75.7556 31.7208 73.9455C31.9454 73.3121 31.9089 72.6156 31.6192 72.009C31.3296 71.4024 30.8105 70.9354 30.176 70.7104Z" fill="#07BEB8"/>
<path d="M25.516 48.7249C30.8645 48.4597 36.101 47.0983 40.8993 44.7255C43.421 43.4464 45.9784 41.9081 47.1402 38.5208C47.5144 37.3706 47.5826 36.1431 47.3382 34.9586C45.683 35.3019 44.0246 35.6311 42.363 35.9463C42.4308 36.2559 42.4207 36.5774 42.3338 36.8822C41.8275 38.3524 40.711 39.1296 38.5918 40.2112C34.4314 42.2476 29.9003 43.4208 25.2726 43.6601C23.5127 43.7432 21.7493 43.7195 19.9923 43.5889C20.2487 42.6692 20.5018 41.7495 20.7647 40.8233C21.232 39.1491 21.7091 37.4554 22.1797 35.7326C24.1886 28.3459 28.518 22.7888 36.1869 17.7014C41.3115 14.3043 46.3029 10.8716 51.0639 6.24078C51.8915 5.43443 52.4789 5.15269 52.7256 5.08468C52.9382 5.57549 53.0359 6.10821 53.0112 6.64234C52.995 12.5685 48.1593 17.8309 41.9962 18.6243C41.6655 18.6668 41.3464 18.7739 41.0572 18.9395C40.7679 19.1051 40.5142 19.3259 40.3105 19.5893C40.1068 19.8527 39.957 20.1536 39.8698 20.4748C39.7826 20.7959 39.7597 21.1311 39.8023 21.4611C39.8449 21.7911 39.9523 22.1095 40.1182 22.3981C40.2842 22.6867 40.5055 22.9399 40.7695 23.1432C41.0334 23.3465 41.335 23.4959 41.6568 23.5829C41.9787 23.6699 42.3146 23.6928 42.6453 23.6502C51.2879 22.5427 58.0741 15.0815 58.0968 6.65853C58.0968 3.09633 56.354 0.505632 53.6376 0.0652139C51.6903 -0.258623 49.5581 0.62869 47.5199 2.61381C43.0672 6.93379 38.29 10.2207 33.3861 13.4785C24.7273 19.2137 19.6093 25.8556 17.2661 34.3789C16.7955 36.092 16.3217 37.776 15.8576 39.4405C15.5331 40.6063 15.2085 41.7559 14.884 42.9056C10.6876 42.1089 6.81586 40.7423 3.84954 38.8868C3.27881 38.5449 2.59641 38.4401 1.94907 38.5949C1.30173 38.7498 0.741133 39.152 0.387822 39.7149C0.0345115 40.2779 -0.083303 40.9567 0.0597098 41.6054C0.202723 42.2542 0.595142 42.821 1.1526 43.1841C6.85156 46.7463 14.8872 48.7703 23.043 48.7703C23.8641 48.7864 24.6916 48.767 25.516 48.7249Z" fill="#07BEB8"/>
<path d="M47.9411 26.6786C46.5532 27.6627 44.9478 28.2981 43.2612 28.5309C41.4081 28.8548 39.5355 28.8386 37.4811 28.8548C36.8071 28.8548 36.1608 29.1219 35.6842 29.5975C35.2077 30.073 34.9399 30.7179 34.9399 31.3904C34.9399 32.0629 35.2077 32.7079 35.6842 33.1834C36.1608 33.6589 36.8071 33.9261 37.4811 33.9261H37.8803C39.9594 33.9694 42.0385 33.8373 44.0953 33.531C46.8474 33.0711 49.1809 32.1158 51.0307 30.6974C53.4226 28.8613 54.8896 26.2285 54.948 23.6572C54.9695 22.5717 54.7302 21.4968 54.2502 20.5225C52.7876 21.4616 51.3174 22.3932 49.8397 23.3172C49.854 23.3899 49.8637 23.4634 49.8689 23.5374C49.8527 24.5607 49.0932 25.7945 47.9411 26.6786Z" fill="#07BEB8"/>
<path d="M161.713 71.2766C161.805 70.4647 161.796 69.6444 161.684 68.8349C161.684 68.6892 161.684 68.5467 161.684 68.4009C161.635 63.4106 161.583 57.7532 161.035 53.6048C160.945 52.9388 160.594 52.3355 160.059 51.9277C159.524 51.5199 158.848 51.341 158.18 51.4303C157.513 51.5196 156.908 51.8699 156.5 52.404C156.091 52.9381 155.912 53.6124 156.001 54.2784C156.063 54.7512 156.118 55.2499 156.17 55.7648C154.675 54.8444 152.952 54.3578 151.195 54.3594C145.47 54.3594 140.809 59.5796 140.809 65.9981C140.809 69.298 142.416 72.8699 144.629 74.4923C144.898 74.6895 145.203 74.8318 145.527 74.9112C145.851 74.9906 146.188 75.0054 146.518 74.9549C146.847 74.9043 147.164 74.7894 147.449 74.6167C147.734 74.444 147.983 74.2168 148.18 73.9483C148.377 73.6794 148.519 73.3744 148.598 73.0508C148.676 72.7271 148.69 72.3911 148.639 72.062C148.587 71.7329 148.471 71.4172 148.297 71.1329C148.123 70.8487 147.895 70.6015 147.625 70.4055C146.911 69.8841 145.879 68.0123 145.879 65.9981C145.879 62.3776 148.271 59.4307 151.208 59.4307C154.145 59.4307 156.533 62.3776 156.533 65.9981C156.535 66.146 156.55 66.2934 156.579 66.4385C156.579 67.1153 156.595 67.7889 156.602 68.4495C156.602 69.2753 156.602 70.0687 156.628 70.8751C156.467 71.8383 156.014 72.7291 155.329 73.4269C153.142 75.7682 149.092 76.8466 146.34 76.6653C141.777 76.3414 138.34 73.1775 137.788 68.7539C137.655 67.6691 137.609 66.4871 137.561 65.263C137.369 60.3827 137.08 53.0122 128.366 52.0861C125.703 51.8178 123.022 52.3753 120.688 53.6826C120.606 53.0344 120.275 52.443 119.766 52.0325C119.257 51.6219 118.608 51.4239 117.955 51.48C117.303 51.5361 116.698 51.8419 116.266 52.3334C115.835 52.8249 115.611 53.4639 115.641 54.1165C115.738 55.8944 115.768 58.3264 115.738 60.7357C115.689 61.1246 115.663 61.5161 115.661 61.908C115.66 62.0744 115.677 62.2404 115.709 62.4035C115.674 64.0032 115.609 65.5253 115.521 66.7461C115.463 67.5752 115.456 68.4657 115.45 69.3822C115.45 71.9729 115.427 74.6639 113.934 75.9269C113.588 76.2272 113.182 76.4493 112.742 76.5779C112.302 76.7064 111.84 76.7385 111.386 76.6717C110.84 76.5868 110.317 76.3899 109.851 76.0934C109.384 75.7969 108.984 75.4072 108.676 74.9489C107.086 72.6011 106.82 69.3951 106.668 66.0369C106.557 63.6244 106.564 61.1405 106.573 58.7377C106.573 57.0343 106.573 55.3309 106.551 53.6275C106.551 53.5336 106.528 53.4462 106.518 53.3555C106.508 53.2648 106.518 53.213 106.492 53.145C106.462 52.9962 106.416 52.8508 106.356 52.7111C106.356 52.7035 106.356 52.6959 106.356 52.6884C106.176 52.227 105.858 51.8317 105.447 51.5556C105.035 51.2794 104.548 51.1357 104.052 51.1437H103.967C103.883 51.1437 103.805 51.1631 103.721 51.1728C103.636 51.1825 103.558 51.1728 103.481 51.202C103.403 51.2311 103.321 51.2506 103.244 51.2765C103.166 51.3024 103.081 51.3218 103.007 51.3542C102.935 51.3881 102.866 51.4259 102.799 51.4675C102.724 51.5096 102.646 51.5452 102.575 51.5938C102.504 51.6424 102.458 51.691 102.4 51.7395C102.341 51.7881 102.263 51.8464 102.202 51.9047C102.14 51.963 102.108 52.0245 102.056 52.0828C102.004 52.1411 101.945 52.2123 101.897 52.2836C101.848 52.3548 101.822 52.4228 101.783 52.4941C101.741 52.5651 101.703 52.6386 101.67 52.7143C101.637 52.7953 101.618 52.8795 101.592 52.9604C101.566 53.0414 101.54 53.1126 101.524 53.1903C101.51 53.2826 101.501 53.3756 101.498 53.4688C101.498 53.5401 101.475 53.6081 101.475 53.6793C101.475 59.204 100.969 63.9838 99.93 68.3006C98.6319 73.6471 96.7852 76.3026 94.0883 76.6555C92.0696 76.9179 90.3301 75.9755 88.7366 73.686C90.4857 71.2561 91.9044 68.6056 92.9556 65.8038C94.1368 62.6767 94.9133 59.4119 95.2664 56.0887C95.9154 50.3017 95.2858 45.1657 93.4424 40.8262C92.0339 37.5134 89.7037 35.6125 87.0457 35.6125C85.387 35.6645 83.8145 36.3618 82.6644 37.5555C80.9768 39.1974 80.1719 41.3509 79.6624 43.0413C77.4393 50.373 77.6632 58.6923 80.3114 67.1056C80.9206 69.1466 81.671 71.143 82.5573 73.0804C81.0157 74.6459 79.1105 75.8072 77.0109 76.4612C72.8924 77.6724 68.7448 76.5681 66.1582 73.7216C70.9516 67.4424 73.1293 58.6211 73.4863 50.8781C73.5999 48.4429 73.6454 45.5867 73.1163 42.8729C72.1005 37.6494 68.9557 34.6377 65.1229 35.2174C59.6057 36.0432 56.8827 42.8664 56.2402 48.4591C55.7339 52.8212 56.1006 57.3257 56.4771 60.7649C57.0191 65.739 58.0998 69.8323 59.7809 73.1743C58.5084 74.3373 57.0378 75.264 55.4385 75.9107C51.5992 77.4392 47.4061 77.2352 44.495 75.3764C43.6239 74.823 42.8607 74.1164 42.2426 73.2909C44.0029 73.0968 45.6999 72.523 47.2157 71.6093C48.7316 70.6956 50.0302 69.4638 51.0215 67.9994C53.6763 64.0648 53.9067 58.443 51.57 54.6379C51.055 53.7619 50.3583 53.0059 49.5265 52.4205C48.6947 51.8352 47.7471 51.4341 46.7473 51.2441C45.627 51.0662 44.4818 51.1248 43.3855 51.416C42.2893 51.7071 41.2665 52.2245 40.383 52.9345C36.7449 55.7584 34.6711 61.0563 34.9664 66.7656C35.3494 74.0616 38.8609 77.776 41.7526 79.6284C44.2915 81.2087 47.231 82.0301 50.2231 81.9956C52.6563 81.9837 55.0651 81.51 57.3209 80.5999C59.2635 79.8231 61.0683 78.7395 62.6661 77.3907C66.5606 81.4062 72.636 83.0125 78.4388 81.3091C80.9625 80.5524 83.289 79.2524 85.2542 77.5008C87.4676 80.2469 90.528 82.2255 94.7406 81.6783C99.0635 81.1148 101.556 78.0059 103.013 74.9619C103.387 75.9572 103.875 76.9059 104.467 77.789C105.172 78.839 106.09 79.7294 107.161 80.4023C108.233 81.0751 109.435 81.5154 110.689 81.6944C111.849 81.8579 113.031 81.7732 114.156 81.446C115.282 81.1189 116.324 80.5567 117.215 79.7968C120.493 77.0247 120.513 72.8019 120.529 69.4081C120.529 68.6082 120.529 67.831 120.584 67.1121C120.704 65.4929 120.779 63.3815 120.808 61.2247C120.963 60.2877 121.443 59.4348 122.164 58.8154C123.553 57.5654 125.78 56.8885 127.834 57.1185C131.826 57.5459 132.261 59.6217 132.491 65.454C132.54 66.7494 132.592 68.0739 132.754 69.3692C133.598 76.1698 139.047 81.2443 146.002 81.7171C146.304 81.7365 146.612 81.7463 146.933 81.7463C150.453 81.7116 153.889 80.6685 156.832 78.7411C156.897 83.0707 156.527 87.449 154.359 90.2502C152.191 93.0514 148.261 93.4011 145.561 92.4847C144.801 92.2288 142.315 91.2217 142.315 89.1233C142.315 88.4508 142.048 87.8058 141.571 87.3303C141.094 86.8548 140.448 86.5876 139.774 86.5876C139.1 86.5876 138.454 86.8548 137.977 87.3303C137.501 87.8058 137.233 88.4508 137.233 89.1233C137.233 92.7567 139.794 95.885 143.912 97.2839C145.347 97.7632 146.851 98.005 148.365 97.9996C151.935 97.9996 155.793 96.6848 158.374 93.3493C162.083 88.5501 162.093 81.6653 161.807 75.5869C161.765 74.3174 161.736 72.8569 161.713 71.2766ZM40.5258 68.2714H40.2013C40.1068 67.6881 40.045 67.0999 40.0163 66.5097C39.8086 62.5525 41.1976 58.7085 43.4759 56.9436C43.7956 56.6726 44.1677 56.4702 44.5691 56.3487C44.9705 56.2273 45.3927 56.1895 45.8094 56.2376C46.1059 56.3002 46.3852 56.4268 46.6274 56.6086C46.8696 56.7905 47.069 57.0231 47.2114 57.2901C48.5096 59.3821 48.3019 62.9184 46.7797 65.1788C46.0875 66.183 45.1497 66.9942 44.0552 67.5354C42.9608 68.0766 41.7459 68.33 40.5258 68.2714ZM61.5107 60.2014C61.1635 57.0246 60.8259 52.8827 61.2706 49.0226C61.7379 44.9584 63.5813 40.5542 65.8563 40.2142H65.9732C67.0247 40.2142 67.8231 42.345 68.1119 43.8315C68.5403 46.0206 68.4949 48.4979 68.3943 50.632C68.1249 56.4967 66.6093 63.456 63.3768 68.7345C62.4124 65.9763 61.7901 63.1106 61.5237 60.2014H61.5107ZM86.1078 68.3848C85.7832 67.5212 85.4587 66.5831 85.1342 65.5706C83.5114 60.3892 82.0672 52.5168 84.5013 44.4953C84.8258 43.3846 85.3354 42.0018 86.1922 41.163C86.4131 40.9134 86.7091 40.7418 87.036 40.674C87.4352 40.674 88.1881 41.4674 88.7495 42.7952C90.2522 46.3282 90.7422 50.6158 90.2035 55.5284C89.8965 58.4251 89.2204 61.2709 88.1913 63.9968C87.6206 65.5126 86.9281 66.9801 86.1208 68.3848H86.1078Z" fill="#07BEB8"/>
<path d="M104.107 48.6892C104.689 48.6892 105.257 48.5171 105.74 48.1947C106.224 47.8724 106.601 47.4141 106.823 46.878C107.046 46.3419 107.104 45.752 106.991 45.1829C106.877 44.6137 106.597 44.0909 106.186 43.6806C105.775 43.2703 105.251 42.9909 104.681 42.8777C104.11 42.7645 103.519 42.8226 102.982 43.0446C102.445 43.2667 101.986 43.6427 101.663 44.1252C101.34 44.6077 101.167 45.175 101.167 45.7552C101.167 46.5334 101.477 47.2796 102.028 47.8299C102.58 48.3801 103.327 48.6892 104.107 48.6892Z" fill="#07BEB8"/>
</svg>
