<svg width="57" height="56" viewBox="0 0 57 56" fill="none" xmlns="http://www.w3.org/2000/svg">
<path d="M5.96639 23.5763C5.96639 23.5763 3.42488 27.837 7.02832 29.9317C6.13151 32.5218 7.87981 34.4643 10.499 35.5133C10.894 33.1984 11.8782 30.6763 11.2275 28.7338C10.2076 25.684 7.07689 23.7155 5.96639 23.5763Z" fill="#FFDEFE"/>
<path d="M6.90803 31.9972C6.84328 33.9106 10.9226 36.7889 17.168 36.831C17.5376 35.4871 17.6561 34.0866 17.5176 32.6998C17.346 30.7572 16.6176 29.1546 15.0862 27.4128C13.8332 25.985 12.0752 24.7903 10.8288 23.437C10.1165 22.6632 9.43983 21.8668 8.81174 21.0444C8.66063 20.8421 8.45678 20.6853 8.22249 20.5912C7.93482 20.4684 7.61242 20.4538 7.31486 20.5502C7.0173 20.6466 6.76469 20.8475 6.6037 21.1157C6.20993 21.7268 6.02687 22.4499 6.08244 23.1748C6.21842 24.9975 7.14761 26.5386 9.90604 27.3027" fill="#FFDEFE"/>
<path d="M6.90803 31.9972C6.84328 33.9106 10.9226 36.7889 17.168 36.831C17.5376 35.4871 17.6561 34.0866 17.5176 32.6998C17.346 30.7572 16.6176 29.1546 15.0862 27.4128C13.8332 25.985 12.0752 24.7903 10.8288 23.437C10.1165 22.6632 9.43983 21.8668 8.81174 21.0444C8.66063 20.8421 8.45678 20.6853 8.22249 20.5912C7.93482 20.4684 7.61242 20.4538 7.31486 20.5502C7.0173 20.6466 6.76469 20.8475 6.6037 21.1157C6.20993 21.7268 6.02687 22.4499 6.08244 23.1748C6.21842 24.9975 7.14761 26.5386 9.90604 27.3027" stroke="#868686" stroke-width="1.29504" stroke-linecap="round" stroke-linejoin="round"/>
<path d="M5.32759 27.0566C5.2747 27.5955 5.38766 28.1377 5.65135 28.6107C6.34096 29.841 8.3936 30.8252 10.4721 30.877" stroke="#868686" stroke-width="1.29504" stroke-linecap="round" stroke-linejoin="round"/>
<path d="M21.4447 26.775L22.6135 28.4974" stroke="#FFE1FE" stroke-width="1.29504" stroke-linecap="round" stroke-linejoin="round"/>
<path d="M24.7468 27.0858L25.9156 28.8082" stroke="#FFE1FE" stroke-width="1.29504" stroke-linecap="round" stroke-linejoin="round"/>
<path d="M37.3513 28.1542L38.5169 29.8733" stroke="#FFE1FE" stroke-width="1.29504" stroke-linecap="round" stroke-linejoin="round"/>
<path d="M40.6534 28.465L41.8189 30.1841" stroke="#FFE1FE" stroke-width="1.29504" stroke-linecap="round" stroke-linejoin="round"/>
<path d="M33.3069 11.6642C40.6366 12.2541 44.9005 16.8913 47.5169 22.1026C47.8961 22.8597 48.2339 23.6358 48.5367 24.4213C48.696 24.8377 48.8553 25.2604 48.9987 25.6831C50.8216 30.8471 51.5896 36.1847 49.4449 41.5664C46.2963 49.4528 33.5778 52.374 26.621 50.3677C24.9613 49.9004 23.3275 49.3476 21.7261 48.7115C20.1985 48.1166 18.7822 47.2732 17.5354 46.2162C13.7909 42.9544 12.4843 38.5916 12.6373 34.5159C12.8476 29.3992 14.7151 26.0553 17.3474 21.6389C19.5431 18.0049 23.721 14.0301 28.31 12.3897C29.9037 11.7954 31.608 11.5479 33.3069 11.6642Z" fill="white"/>
<path d="M41.0476 14.7433C43.1866 16.4076 44.9936 18.452 46.3759 20.7717C46.8221 21.4909 47.23 22.2322 47.6029 22.9799C47.8004 23.3805 47.9917 23.7874 48.1797 24.1944C50.4742 29.1755 52.1122 34.6928 50.3818 40.1976C47.6029 49.0304 33.0679 53.2827 24.3488 49.7654" stroke="#868686" stroke-width="1.29504" stroke-linecap="round" stroke-linejoin="round"/>
<path d="M30.518 11.759C31.3539 11.6211 32.2036 11.5851 33.0483 11.6517C35.0105 11.7921 36.9285 12.2973 38.7017 13.1407" stroke="#868686" stroke-width="1.29504" stroke-linecap="round" stroke-linejoin="round"/>
<path d="M17.4446 46.2101C10.5962 40.1438 12.1864 30.3047 16.2687 23.2132C18.7162 18.9608 22.2822 15.0113 26.919 12.8851" stroke="#868686" stroke-width="1.29504" stroke-linecap="round" stroke-linejoin="round"/>
<path d="M34.5834 30.5721C34.3829 29.9852 34.0173 29.4687 33.5304 29.0846C33.0435 28.7004 32.4561 28.465 31.8387 28.4066C31.2213 28.3481 30.6002 28.4691 30.0498 28.755C29.4995 29.0409 29.0434 29.4796 28.7363 30.0184V30.0346C29.0828 31.3296 30.0994 32.9193 31.4009 33.0423C32.7024 33.1654 33.9909 31.8056 34.5802 30.5882L34.5834 30.5721Z" fill="#FFAFA7"/>
<path d="M32.1484 13.0476C33.0144 12.7023 33.7897 12.1629 34.4147 11.4709C35.6741 10.082 36.1759 8.33693 35.8845 6.88972C34.4179 6.74079 32.7279 7.40772 31.4685 8.79665C30.209 10.1856 29.7072 11.9274 29.9986 13.3746" fill="#FFF8F2"/>
<path d="M32.1484 13.0476C33.0144 12.7023 33.7897 12.1629 34.4147 11.4709C35.6741 10.082 36.1759 8.33693 35.8845 6.88972C34.4179 6.74079 32.7279 7.40772 31.4685 8.79665C30.209 10.1856 29.7072 11.9274 29.9986 13.3746" stroke="#868686" stroke-width="1.29504" stroke-linecap="round" stroke-linejoin="round"/>
<path d="M44.9088 11.5994L49.2569 12.2922H49.354C49.9309 12.3827 50.5201 12.2411 50.9927 11.8983C51.4654 11.5555 51.783 11.0394 51.8761 10.463C51.9657 9.88666 51.8236 9.29829 51.4809 8.82636C51.1382 8.35443 50.6226 8.03726 50.0469 7.94412L49.9497 7.92794L49.9659 7.83082C50.0556 7.25411 49.9136 6.66536 49.5709 6.19291C49.2283 5.72046 48.7127 5.40262 48.1367 5.30872C47.56 5.21908 46.9712 5.36107 46.4988 5.70373C46.0263 6.04639 45.7085 6.56194 45.6146 7.13797L45.5984 7.23509L44.9088 11.5864" fill="#FFDEFE"/>
<path d="M44.9088 11.5994L49.2569 12.2922H49.354C49.9309 12.3827 50.5201 12.2411 50.9927 11.8983C51.4654 11.5555 51.783 11.0394 51.8761 10.463C51.9657 9.88666 51.8236 9.29829 51.4809 8.82636C51.1382 8.35443 50.6226 8.03726 50.0469 7.94412L49.9497 7.92794L49.9659 7.83082C50.0556 7.25411 49.9136 6.66536 49.5709 6.19291C49.2283 5.72046 48.7127 5.40262 48.1367 5.30872C47.56 5.21908 46.9712 5.36107 46.4988 5.70373C46.0263 6.04639 45.7085 6.56194 45.6146 7.13797L45.5984 7.23509L44.9088 11.5864" stroke="#868686" stroke-width="1.29504" stroke-linecap="round" stroke-linejoin="round"/>
<path d="M17.1347 15.9591L18.3747 11.7179L18.4006 11.624C18.5641 11.0638 18.4989 10.4615 18.2191 9.94926C17.9393 9.43704 17.4678 9.05666 16.908 8.89149C16.4847 8.76509 16.033 8.77073 15.613 8.90767C15.2697 9.01723 14.9585 9.209 14.7062 9.46631C14.454 9.72361 14.2685 10.0387 14.1658 10.384L14.1367 10.4779L14.0428 10.452C13.4825 10.2885 12.8802 10.3537 12.368 10.6335C11.8558 10.9133 11.4754 11.3847 11.3102 11.9445C11.1476 12.5048 11.2132 13.1067 11.4929 13.6186C11.7725 14.1306 12.2435 14.5112 12.8028 14.6771L12.8967 14.7062L17.125 15.9462" fill="#FFDEFE"/>
<path d="M17.1347 15.9591L18.3747 11.7179L18.4006 11.624C18.5641 11.0638 18.4989 10.4615 18.2191 9.94926C17.9393 9.43704 17.4678 9.05666 16.908 8.89149C16.4847 8.76509 16.033 8.77073 15.613 8.90767C15.2697 9.01723 14.9585 9.209 14.7062 9.46631C14.454 9.72361 14.2685 10.0387 14.1658 10.384L14.1367 10.4779L14.0428 10.452C13.4825 10.2885 12.8802 10.3537 12.368 10.6335C11.8558 10.9133 11.4754 11.3847 11.3102 11.9445C11.1476 12.5048 11.2132 13.1067 11.4929 13.6186C11.7725 14.1306 12.2435 14.5112 12.8028 14.6771L12.8967 14.7062L17.125 15.9462" stroke="#868686" stroke-width="1.29504" stroke-linecap="round" stroke-linejoin="round"/>
<path d="M39.7111 32.3598C39.5824 32.9702 39.6128 33.6035 39.7993 34.1988C39.9858 34.7941 40.3223 35.3314 40.7763 35.7592C40.959 35.9339 41.0961 36.1506 41.1756 36.3905C41.2552 36.6303 41.2748 36.886 41.2328 37.1352C41.1432 37.681 41.18 38.2402 41.3406 38.7695C41.5011 39.2988 41.781 39.7842 42.1588 40.1883C43.13 41.3182 47.504 40.253 47.4587 38.7573C47.3713 35.7787 43.8196 33.3796 42.6541 31.6831C42.471 31.4125 42.2103 31.2037 41.9063 31.084C41.6022 30.9644 41.2691 30.9395 40.9507 31.0127C40.6323 31.0859 40.3435 31.2538 40.1222 31.4942C39.901 31.7346 39.7577 32.0364 39.7111 32.3598Z" fill="#FFDEFE"/>
<path d="M41.2878 38.3493C41.1713 39.994 44.3279 42.4967 49.1228 43.3223C49.4534 43.3988 49.797 43.4002 50.1281 43.3262C50.4593 43.2522 50.7696 43.1048 51.0362 42.8949C51.6384 42.3704 51.8295 41.5125 51.8813 40.7419C52.0496 38.236 51.1949 35.9859 49.6149 34.0628C48.4138 32.5897 46.7011 31.3335 45.5 29.9381C44.8136 29.1395 44.1661 28.3182 43.5574 27.4742C43.4132 27.266 43.2136 27.1022 42.9811 27.0016C42.7004 26.8731 42.383 26.8492 42.0862 26.9341C41.7894 27.019 41.5327 27.2071 41.3623 27.4645C40.9491 28.0623 40.7412 28.7781 40.7698 29.5042C40.8411 31.3335 41.7152 32.9069 44.4413 33.7681" fill="#FFDEFE"/>
<path d="M41.2878 38.3493C41.1713 39.994 44.3279 42.4967 49.1228 43.3223C49.4534 43.3988 49.797 43.4002 50.1281 43.3262C50.4593 43.2522 50.7696 43.1048 51.0362 42.8949C51.6384 42.3704 51.8295 41.5125 51.8813 40.7419C52.0496 38.236 51.1949 35.9859 49.6149 34.0628C48.4138 32.5897 46.7011 31.3335 45.5 29.9381C44.8136 29.1395 44.1661 28.3182 43.5574 27.4742C43.4132 27.266 43.2136 27.1022 42.9811 27.0016C42.7004 26.8731 42.383 26.8492 42.0862 26.9341C41.7894 27.019 41.5327 27.2071 41.3623 27.4645C40.9491 28.0623 40.7412 28.7781 40.7698 29.5042C40.8411 31.3335 41.7152 32.9069 44.4413 33.7681" stroke="#868686" stroke-width="1.29504" stroke-linecap="round" stroke-linejoin="round"/>
<path d="M39.8696 33.37C39.7939 33.9051 39.8831 34.4506 40.1254 34.9338C40.7729 36.1899 42.7867 37.2454 44.862 37.3749" stroke="#868686" stroke-width="1.29504" stroke-linecap="round" stroke-linejoin="round"/>
<path d="M5.09613 38.5951C5.35156 39.0771 5.73912 39.4762 6.21335 39.7457C6.68759 40.0152 7.22883 40.1439 7.77362 40.1168" stroke="#868686" stroke-width="1.29504" stroke-linecap="round" stroke-linejoin="round"/>
<path d="M6.65668 36.8987C6.65668 36.8987 6.88007 37.9671 8.2431 37.9638" stroke="#868686" stroke-width="1.29504" stroke-linecap="round" stroke-linejoin="round"/>
<path d="M36.0204 40.6351C36.0055 41.2683 36.1875 41.8906 36.5412 42.416C36.895 42.9414 37.4031 43.344 37.9954 43.5684" stroke="#868686" stroke-width="1.29504" stroke-linecap="round" stroke-linejoin="round"/>
<path d="M38.2638 40.1204C38.2638 40.1204 38.335 41.3733 39.3225 41.7133" stroke="#868686" stroke-width="1.29504" stroke-linecap="round" stroke-linejoin="round"/>
<path d="M26.8933 27.1856L28.8197 26.2402L26.6699 24.9775" stroke="#868686" stroke-width="1.29504" stroke-linecap="round" stroke-linejoin="round"/>
<path d="M36.4889 27.438L34.5625 26.4926L36.709 25.23" stroke="#868686" stroke-width="1.29504" stroke-linecap="round" stroke-linejoin="round"/>
</svg>
