<svg width="24" height="25" viewBox="0 0 24 25" fill="none" xmlns="http://www.w3.org/2000/svg">
<path d="M12 20.7969H12.0001C14.1997 20.7944 16.3086 19.9195 17.864 18.364C19.4195 16.8086 20.2944 14.6997 20.2969 12.5001V12.5C20.2969 10.859 19.8103 9.25492 18.8986 7.8905C17.9869 6.52609 16.6911 5.46266 15.1751 4.83469C13.659 4.20672 11.9908 4.04241 10.3814 4.36255C8.77193 4.68268 7.29357 5.47288 6.13323 6.63322C4.97289 7.79356 4.18269 9.27192 3.86255 10.8814C3.54241 12.4908 3.70672 14.159 4.33469 15.6751C4.96266 17.1911 6.02609 18.4869 7.39051 19.3986C8.75492 20.3103 10.359 20.7969 12 20.7969ZM7.64184 15.1015L7.64187 15.1015L7.64081 15.0999C7.58994 15.0198 7.55578 14.9303 7.54039 14.8368C7.525 14.7432 7.52869 14.6475 7.55126 14.5554C7.57382 14.4633 7.61478 14.3767 7.67167 14.3008C7.72856 14.2249 7.80022 14.1614 7.88232 14.1139C7.96442 14.0664 8.05527 14.0361 8.14941 14.0246C8.24354 14.0132 8.33902 14.0209 8.4301 14.0474C8.52117 14.0738 8.60596 14.1184 8.67936 14.1784C8.75276 14.2384 8.81326 14.3127 8.85722 14.3967L8.85718 14.3967L8.85818 14.3985C9.56612 15.622 10.6815 16.2969 12 16.2969C13.3185 16.2969 14.4339 15.621 15.1409 14.3985L15.1409 14.3984C15.2342 14.2369 15.3877 14.119 15.5679 14.0707C15.7481 14.0224 15.94 14.0477 16.1016 14.1409C16.2631 14.2342 16.381 14.3877 16.4293 14.5679C16.4776 14.7481 16.4523 14.94 16.3591 15.1016C15.4022 16.7558 13.8131 17.7031 12 17.7031C10.1868 17.7031 8.59868 16.7567 7.64184 15.1015ZM6.60924 4.43215C8.2049 3.36596 10.0809 2.79688 12 2.79688C14.5726 2.7996 17.039 3.82277 18.8581 5.64187C20.6772 7.46098 21.7004 9.92744 21.7031 12.5C21.7031 14.4191 21.134 16.2951 20.0679 17.8908C19.0017 19.4864 17.4862 20.7301 15.7132 21.4645C13.9402 22.1989 11.9892 22.3911 10.107 22.0167C8.2248 21.6423 6.49587 20.7182 5.13886 19.3611C3.78185 18.0041 2.85772 16.2752 2.48332 14.393C2.10892 12.5108 2.30108 10.5598 3.03549 8.78677C3.76989 7.01376 5.01357 5.49834 6.60924 4.43215ZM7.54688 10.625C7.54688 10.4118 7.61011 10.2033 7.72858 10.026C7.84704 9.84873 8.01542 9.71054 8.21242 9.62894C8.40943 9.54734 8.6262 9.52599 8.83534 9.56759C9.04447 9.60919 9.23658 9.71187 9.38735 9.86265C9.53813 10.0134 9.64081 10.2055 9.68241 10.4147C9.72401 10.6238 9.70266 10.8406 9.62106 11.0376C9.53946 11.2346 9.40127 11.403 9.22398 11.5214C9.04668 11.6399 8.83824 11.7031 8.625 11.7031C8.33907 11.7031 8.06484 11.5895 7.86265 11.3873C7.66047 11.1852 7.54688 10.9109 7.54688 10.625ZM16.4531 10.625C16.4531 10.8382 16.3899 11.0467 16.2714 11.224C16.153 11.4013 15.9846 11.5395 15.7876 11.6211C15.5906 11.7027 15.3738 11.724 15.1647 11.6824C14.9555 11.6408 14.7634 11.5381 14.6127 11.3873C14.4619 11.2366 14.3592 11.0445 14.3176 10.8353C14.276 10.6262 14.2973 10.4094 14.3789 10.2124C14.4605 10.0154 14.5987 9.84704 14.776 9.72857C14.9533 9.61011 15.1618 9.54688 15.375 9.54688C15.6609 9.54688 15.9352 9.66046 16.1374 9.86265C16.3395 10.0648 16.4531 10.3391 16.4531 10.625Z" fill="url(#paint0_linear_1306_842)" stroke="url(#paint1_linear_1306_842)" stroke-width="0.09375"/>
<defs>
<linearGradient id="paint0_linear_1306_842" x1="2.25" y1="23.6188" x2="22.1459" y2="7.97483" gradientUnits="userSpaceOnUse">
<stop offset="0.046875" stop-color="#7CEFA7"/>
<stop offset="1" stop-color="#8FD3F4"/>
</linearGradient>
<linearGradient id="paint1_linear_1306_842" x1="2.25" y1="23.6188" x2="22.1459" y2="7.97483" gradientUnits="userSpaceOnUse">
<stop offset="0.046875" stop-color="#7CEFA7"/>
<stop offset="1" stop-color="#8FD3F4"/>
</linearGradient>
</defs>
</svg>
