<svg width="151" height="163" viewBox="0 0 151 163" fill="none" xmlns="http://www.w3.org/2000/svg">
<g filter="url(#filter0_d_961_1922)">
<path d="M56.8742 114.75V119.406C56.8742 124.346 58.8364 129.083 62.3293 132.576C65.8222 136.069 70.5595 138.031 75.4992 138.031C80.4388 138.031 85.1762 136.069 88.669 132.576C92.1619 129.083 94.1242 124.346 94.1242 119.406V114.75" fill="url(#paint0_linear_961_1922)"/>
<path d="M33.7111 68.1875C33.6957 62.6897 34.7654 57.2429 36.8586 52.1591C38.9519 47.0754 42.0277 42.4547 45.9099 38.5617C49.792 34.6687 54.4041 31.58 59.482 29.4725C64.5598 27.365 70.0037 26.2802 75.5015 26.2802C80.9993 26.2802 86.4431 27.365 91.521 29.4725C96.5989 31.58 101.211 34.6687 105.093 38.5617C108.975 42.4547 112.051 47.0754 114.144 52.1591C116.238 57.2429 117.307 62.6897 117.292 68.1875C117.292 89.0333 121.653 101.13 125.494 107.741C125.908 108.448 126.128 109.251 126.133 110.069C126.137 110.888 125.926 111.693 125.519 112.404C125.113 113.115 124.527 113.706 123.819 114.118C123.111 114.53 122.308 114.748 121.489 114.75H29.5092C28.6904 114.748 27.8866 114.53 27.179 114.118C26.4713 113.706 25.8848 113.115 25.4787 112.404C25.0725 111.693 24.861 110.887 24.8655 110.069C24.87 109.25 25.0904 108.447 25.5044 107.74C29.3477 101.129 33.7111 89.0322 33.7111 68.1875Z" fill="url(#paint1_linear_961_1922)"/>
<path d="M107.763 16.9619C117.237 22.9432 124.875 31.4262 129.832 41.4745L107.763 16.9619Z" fill="url(#paint2_linear_961_1922)"/>
<path d="M21.166 41.4745C26.1235 31.4262 33.7611 22.9432 43.2358 16.9619L21.166 41.4745Z" fill="url(#paint3_linear_961_1922)"/>
<path d="M56.8742 114.75V119.406C56.8742 124.346 58.8364 129.083 62.3293 132.576C65.8222 136.069 70.5595 138.031 75.4992 138.031C80.4388 138.031 85.1762 136.069 88.669 132.576C92.1619 129.083 94.1242 124.346 94.1242 119.406V114.75M107.763 16.9619C117.237 22.9432 124.875 31.4262 129.832 41.4745M21.166 41.4745C26.1235 31.4262 33.7611 22.9432 43.2358 16.9619M33.7111 68.1875C33.6957 62.6897 34.7654 57.2429 36.8586 52.1591C38.9519 47.0754 42.0277 42.4547 45.9099 38.5617C49.792 34.6687 54.4041 31.58 59.482 29.4725C64.5598 27.365 70.0037 26.2802 75.5015 26.2802C80.9993 26.2802 86.4431 27.365 91.521 29.4725C96.5989 31.58 101.211 34.6687 105.093 38.5617C108.975 42.4547 112.051 47.0754 114.144 52.1591C116.238 57.2429 117.307 62.6897 117.292 68.1875C117.292 89.0333 121.653 101.13 125.494 107.741C125.908 108.448 126.128 109.251 126.133 110.069C126.137 110.888 125.926 111.693 125.519 112.404C125.113 113.115 124.527 113.706 123.819 114.118C123.111 114.53 122.308 114.748 121.489 114.75H29.5092C28.6904 114.748 27.8866 114.53 27.179 114.118C26.4713 113.706 25.8848 113.115 25.4787 112.404C25.0725 111.693 24.861 110.887 24.8655 110.069C24.87 109.25 25.0904 108.447 25.5044 107.74C29.3477 101.129 33.7111 89.0322 33.7111 68.1875Z" stroke="url(#paint4_linear_961_1922)" stroke-width="1.5" stroke-linecap="round" stroke-linejoin="round"/>
</g>
<defs>
<filter id="filter0_d_961_1922" x="-19" y="-13" width="189" height="189" filterUnits="userSpaceOnUse" color-interpolation-filters="sRGB">
<feFlood flood-opacity="0" result="BackgroundImageFix"/>
<feColorMatrix in="SourceAlpha" type="matrix" values="0 0 0 0 0 0 0 0 0 0 0 0 0 0 0 0 0 0 127 0" result="hardAlpha"/>
<feOffset dy="4"/>
<feGaussianBlur stdDeviation="10"/>
<feComposite in2="hardAlpha" operator="out"/>
<feColorMatrix type="matrix" values="0 0 0 0 0.679896 0 0 0 0 0.891667 0 0 0 0 0.823153 0 0 0 0.9 0"/>
<feBlend mode="normal" in2="BackgroundImageFix" result="effect1_dropShadow_961_1922"/>
<feBlend mode="normal" in="SourceGraphic" in2="effect1_dropShadow_961_1922" result="shape"/>
</filter>
<linearGradient id="paint0_linear_961_1922" x1="21.166" y1="146.53" x2="140.934" y2="62.0051" gradientUnits="userSpaceOnUse">
<stop offset="0.046875" stop-color="#7CEFA7"/>
<stop offset="1" stop-color="#8FD3F4"/>
</linearGradient>
<linearGradient id="paint1_linear_961_1922" x1="21.166" y1="146.53" x2="140.934" y2="62.0051" gradientUnits="userSpaceOnUse">
<stop offset="0.046875" stop-color="#7CEFA7"/>
<stop offset="1" stop-color="#8FD3F4"/>
</linearGradient>
<linearGradient id="paint2_linear_961_1922" x1="21.166" y1="146.53" x2="140.934" y2="62.0051" gradientUnits="userSpaceOnUse">
<stop offset="0.046875" stop-color="#7CEFA7"/>
<stop offset="1" stop-color="#8FD3F4"/>
</linearGradient>
<linearGradient id="paint3_linear_961_1922" x1="21.166" y1="146.53" x2="140.934" y2="62.0051" gradientUnits="userSpaceOnUse">
<stop offset="0.046875" stop-color="#7CEFA7"/>
<stop offset="1" stop-color="#8FD3F4"/>
</linearGradient>
<linearGradient id="paint4_linear_961_1922" x1="21.166" y1="146.53" x2="140.934" y2="62.0051" gradientUnits="userSpaceOnUse">
<stop offset="0.046875" stop-color="#7CEFA7"/>
<stop offset="1" stop-color="#8FD3F4"/>
</linearGradient>
</defs>
</svg>
