<svg width="325" height="180" viewBox="0 0 325 180" fill="none" xmlns="http://www.w3.org/2000/svg">
<mask id="mask0_1_606" style="mask-type:alpha" maskUnits="userSpaceOnUse" x="0" y="0" width="325" height="180">
<rect width="325" height="180" rx="16" fill="#FFC9A3"/>
</mask>
<g mask="url(#mask0_1_606)">
<rect width="325" height="180" rx="16" fill="#F9F7F2"/>
<rect x="166" y="15.0201" width="117.488" height="135.69" rx="25" fill="#FDB683"/>
<rect x="39" y="75.4" width="80" height="23.4" rx="8" fill="#FDB683"/>
<path d="M56.824 83.6C57.288 83.6 57.672 83.84 57.608 84.304L57.384 85.872L58.728 84.864C59.08 84.608 59.544 84.8 59.752 85.216C59.96 85.632 59.88 86.112 59.432 86.272L57.816 86.848L59.432 87.408C59.88 87.568 59.96 88.048 59.752 88.464C59.544 88.88 59.08 89.072 58.728 88.816L57.384 87.808L57.608 89.36C57.672 89.824 57.288 90.064 56.824 90.064C56.376 90.064 55.992 89.824 56.056 89.36L56.28 87.808L54.936 88.816C54.584 89.072 54.12 88.88 53.912 88.464C53.704 88.048 53.784 87.568 54.232 87.408L55.848 86.848L54.232 86.272C53.784 86.112 53.704 85.632 53.912 85.216C54.12 84.8 54.584 84.608 54.936 84.864L56.28 85.872L56.056 84.304C55.992 83.84 56.376 83.6 56.824 83.6ZM67.6802 83.6C68.1442 83.6 68.5283 83.84 68.4643 84.304L68.2403 85.872L69.5842 84.864C69.9363 84.608 70.4002 84.8 70.6083 85.216C70.8163 85.632 70.7362 86.112 70.2882 86.272L68.6723 86.848L70.2882 87.408C70.7362 87.568 70.8163 88.048 70.6083 88.464C70.4002 88.88 69.9363 89.072 69.5842 88.816L68.2403 87.808L68.4643 89.36C68.5283 89.824 68.1442 90.064 67.6802 90.064C67.2322 90.064 66.8482 89.824 66.9123 89.36L67.1363 87.808L65.7922 88.816C65.4402 89.072 64.9762 88.88 64.7682 88.464C64.5602 88.048 64.6402 87.568 65.0882 87.408L66.7042 86.848L65.0882 86.272C64.6402 86.112 64.5602 85.632 64.7682 85.216C64.9762 84.8 65.4402 84.608 65.7922 84.864L67.1363 85.872L66.9123 84.304C66.8482 83.84 67.2322 83.6 67.6802 83.6ZM78.5365 83.6C79.0005 83.6 79.3845 83.84 79.3205 84.304L79.0965 85.872L80.4405 84.864C80.7925 84.608 81.2565 84.8 81.4645 85.216C81.6725 85.632 81.5925 86.112 81.1445 86.272L79.5285 86.848L81.1445 87.408C81.5925 87.568 81.6725 88.048 81.4645 88.464C81.2565 88.88 80.7925 89.072 80.4405 88.816L79.0965 87.808L79.3205 89.36C79.3845 89.824 79.0005 90.064 78.5365 90.064C78.0885 90.064 77.7045 89.824 77.7685 89.36L77.9925 87.808L76.6485 88.816C76.2965 89.072 75.8325 88.88 75.6245 88.464C75.4165 88.048 75.4965 87.568 75.9445 87.408L77.5605 86.848L75.9445 86.272C75.4965 86.112 75.4165 85.632 75.6245 85.216C75.8325 84.8 76.2965 84.608 76.6485 84.864L77.9925 85.872L77.7685 84.304C77.7045 83.84 78.0885 83.6 78.5365 83.6ZM89.3927 83.6C89.8567 83.6 90.2407 83.84 90.1767 84.304L89.9527 85.872L91.2967 84.864C91.6487 84.608 92.1127 84.8 92.3207 85.216C92.5287 85.632 92.4487 86.112 92.0007 86.272L90.3847 86.848L92.0007 87.408C92.4487 87.568 92.5287 88.048 92.3207 88.464C92.1127 88.88 91.6487 89.072 91.2967 88.816L89.9527 87.808L90.1767 89.36C90.2407 89.824 89.8567 90.064 89.3927 90.064C88.9447 90.064 88.5607 89.824 88.6247 89.36L88.8487 87.808L87.5047 88.816C87.1527 89.072 86.6887 88.88 86.4807 88.464C86.2727 88.048 86.3527 87.568 86.8007 87.408L88.4167 86.848L86.8007 86.272C86.3527 86.112 86.2727 85.632 86.4807 85.216C86.6887 84.8 87.1527 84.608 87.5047 84.864L88.8487 85.872L88.6247 84.304C88.5607 83.84 88.9447 83.6 89.3927 83.6ZM100.249 83.6C100.713 83.6 101.097 83.84 101.033 84.304L100.809 85.872L102.153 84.864C102.505 84.608 102.969 84.8 103.177 85.216C103.385 85.632 103.305 86.112 102.857 86.272L101.241 86.848L102.857 87.408C103.305 87.568 103.385 88.048 103.177 88.464C102.969 88.88 102.505 89.072 102.153 88.816L100.809 87.808L101.033 89.36C101.097 89.824 100.713 90.064 100.249 90.064C99.801 90.064 99.417 89.824 99.481 89.36L99.705 87.808L98.361 88.816C98.009 89.072 97.545 88.88 97.337 88.464C97.129 88.048 97.209 87.568 97.657 87.408L99.273 86.848L97.657 86.272C97.209 86.112 97.129 85.632 97.337 85.216C97.545 84.8 98.009 84.608 98.361 84.864L99.705 85.872L99.481 84.304C99.417 83.84 99.801 83.6 100.249 83.6Z" fill="white"/>
<rect x="58" y="25" width="42.4446" height="42.4444" rx="6.22222" fill="#FDB683"/>
<path fill-rule="evenodd" clip-rule="evenodd" d="M92.4446 55.1575V52.1876C92.4446 51.8168 92.144 51.5162 91.7731 51.5162C91.4023 51.5162 91.1017 51.8168 91.1017 52.1876V55.1575C91.1017 56.7808 89.781 58.1015 88.1577 58.1015H85.1879C84.817 58.1015 84.5164 58.4021 84.5164 58.7729C84.5164 59.1437 84.817 59.4444 85.1879 59.4444H88.1577C90.5215 59.4444 92.4446 57.5213 92.4446 55.1575Z" fill="white"/>
<path fill-rule="evenodd" clip-rule="evenodd" d="M73.9282 58.7729C73.9282 58.4021 73.6275 58.1015 73.2567 58.1015H70.2869C68.6636 58.1015 67.3429 56.7808 67.3429 55.1575V52.1876C67.3429 51.8168 67.0423 51.5162 66.6714 51.5162C66.3006 51.5162 66 51.8168 66 52.1876V55.1575C66 57.5213 67.9231 59.4444 70.2869 59.4444H73.2567C73.6275 59.4444 73.9282 59.1437 73.9282 58.7729Z" fill="white"/>
<path fill-rule="evenodd" clip-rule="evenodd" d="M67.3429 40.2567V37.2869C67.3429 35.6636 68.6636 34.3429 70.2869 34.3429H73.2567C73.6275 34.3429 73.9282 34.0423 73.9282 33.6714C73.9282 33.3006 73.6275 33 73.2567 33H70.2869C67.9231 33 66 34.9231 66 37.2869V40.2567C66 40.6275 66.3006 40.9282 66.6714 40.9282C67.0423 40.9282 67.3429 40.6275 67.3429 40.2567Z" fill="white"/>
<path fill-rule="evenodd" clip-rule="evenodd" d="M92.4446 40.2567V37.2869C92.4446 34.9231 90.5215 33 88.1577 33H85.1879C84.817 33 84.5164 33.3006 84.5164 33.6714C84.5164 34.0423 84.817 34.3429 85.1879 34.3429H88.1577C89.781 34.3429 91.1017 35.6636 91.1017 37.2869V40.2567C91.1017 40.6275 91.4023 40.9282 91.7731 40.9282C92.144 40.9282 92.4446 40.6275 92.4446 40.2567Z" fill="white"/>
<path fill-rule="evenodd" clip-rule="evenodd" d="M83.8562 52.5451C84.139 52.2838 84.1565 51.8426 83.8952 51.5597C83.6339 51.2769 83.1928 51.2594 82.9099 51.5206C81.9034 52.4504 80.5938 52.9625 79.2225 52.9625C77.8512 52.9625 76.5416 52.4504 75.535 51.5206C75.2521 51.2594 74.811 51.2769 74.5497 51.5597C74.2884 51.8426 74.3059 52.2838 74.5888 52.5451C75.8538 53.7135 77.4994 54.357 79.2225 54.357C80.9456 54.357 82.5911 53.7135 83.8562 52.5451Z" fill="white"/>
<path fill-rule="evenodd" clip-rule="evenodd" d="M80.6171 47.9266V42.9683C80.6171 42.5832 80.305 42.271 79.9199 42.271C79.5348 42.271 79.2226 42.5832 79.2226 42.9683V47.9266C79.2226 48.1402 79.0488 48.314 78.8352 48.314H78.2671C77.882 48.314 77.5698 48.6262 77.5698 49.0113C77.5698 49.3964 77.882 49.7085 78.2671 49.7085H78.8352C79.8178 49.7085 80.6171 48.9092 80.6171 47.9266Z" fill="white"/>
<path fill-rule="evenodd" clip-rule="evenodd" d="M85.4203 44.9181V42.9296C85.4203 42.5659 85.1255 42.271 84.7618 42.271C84.3981 42.271 84.1033 42.5659 84.1033 42.9296V44.9181C84.1033 45.2817 84.3981 45.5766 84.7618 45.5766C85.1255 45.5766 85.4203 45.2817 85.4203 44.9181Z" fill="white"/>
<path fill-rule="evenodd" clip-rule="evenodd" d="M73.838 45.5766C73.4743 45.5766 73.1794 45.2817 73.1794 44.9181V42.9296C73.1794 42.5659 73.4743 42.271 73.838 42.271C74.2017 42.271 74.4965 42.5659 74.4965 42.9296V44.9181C74.4965 45.2817 74.2017 45.5766 73.838 45.5766Z" fill="white"/>
</g>
<mask id="mask1_1_606" style="mask-type:luminance" maskUnits="userSpaceOnUse" x="203" y="49" width="41" height="46">
<path d="M205.999 56.2561L224.008 51.0001L241.999 56.2561V67.0341C241.999 72.5578 240.261 77.9414 237.031 82.4223C233.801 86.9031 229.243 90.254 224.002 92.0001C218.76 90.2542 214.201 86.9029 210.969 82.4211C207.738 77.9393 205.999 72.5543 205.999 67.0291V56.2561Z" fill="white" stroke="white" stroke-width="4" stroke-linejoin="round"/>
</mask>
<g mask="url(#mask1_1_606)">
<path d="M199.999 47.0001H247.999V95.0001H199.999V47.0001Z" fill="#F99F5E"/>
</g>
<path fill-rule="evenodd" clip-rule="evenodd" d="M215.507 70.7571C215.507 70.0277 215.797 69.3283 216.313 68.8125C216.828 68.2968 217.528 68.0071 218.257 68.0071H229.257C229.986 68.0071 230.686 68.2968 231.202 68.8125C231.717 69.3283 232.007 70.0277 232.007 70.7571V77.1737C232.007 77.9031 231.717 78.6026 231.202 79.1183C230.686 79.634 229.986 79.9237 229.257 79.9237H218.257C217.528 79.9237 216.828 79.634 216.313 79.1183C215.797 78.6026 215.507 77.9031 215.507 77.1737V70.7571ZM224.674 72.5904C224.674 72.3473 224.577 72.1141 224.405 71.9422C224.233 71.7703 224 71.6737 223.757 71.6737C223.514 71.6737 223.281 71.7703 223.109 71.9422C222.937 72.1141 222.84 72.3473 222.84 72.5904V75.3404C222.84 75.5835 222.937 75.8167 223.109 75.9886C223.281 76.1605 223.514 76.2571 223.757 76.2571C224 76.2571 224.233 76.1605 224.405 75.9886C224.577 75.8167 224.674 75.5835 224.674 75.3404V72.5904Z" fill="white"/>
<path d="M220.09 68.9237V66.1737C220.09 65.2013 220.477 64.2687 221.164 63.581C221.852 62.8934 222.785 62.5071 223.757 62.5071C224.73 62.5071 225.662 62.8934 226.35 63.581C227.037 64.2687 227.424 65.2013 227.424 66.1737V68.9237" stroke="white" stroke-width="2" stroke-linecap="round" stroke-linejoin="round"/>
<path d="M0 108H325V164C325 172.837 317.837 180 309 180H16C7.16344 180 0 172.837 0 164V108Z" fill="#FFAC70"/>
<path d="M30.37 125.64C30.748 125.64 31.084 125.822 31.084 126.242V127.012C31.084 128.202 31.42 128.846 32.456 129.532C33.296 130.064 34.178 130.582 35.088 131.086C35.368 131.254 35.368 131.66 35.214 131.926C35.032 132.206 34.696 132.36 34.388 132.192C33.506 131.702 32.596 131.17 31.812 130.666C30.874 130.064 30.468 129.574 30.384 129.224H30.37C30.272 129.602 29.866 130.092 28.928 130.694C28.144 131.198 27.248 131.73 26.352 132.22C26.058 132.388 25.708 132.234 25.526 131.94C25.358 131.66 25.372 131.254 25.652 131.086C26.562 130.582 27.444 130.064 28.284 129.532C29.32 128.846 29.656 128.202 29.656 127.012V126.242C29.656 125.822 29.992 125.64 30.37 125.64ZM30.37 132.038C30.734 132.038 31.07 132.22 31.07 132.626V134.796H35.76C36.096 134.796 36.25 135.062 36.25 135.384C36.25 135.706 36.096 135.986 35.76 135.986H24.98C24.644 135.986 24.49 135.706 24.49 135.384C24.49 135.062 24.644 134.796 24.98 134.796H29.67V132.626C29.67 132.22 30.006 132.038 30.37 132.038ZM48.5162 131.1C48.8382 131.1 48.9922 131.366 48.9922 131.688C48.9922 132.01 48.8382 132.276 48.5162 132.276H43.7982V133.466C46.0802 133.578 47.3962 134.348 47.3962 135.846C47.3962 137.498 45.8142 138.254 43.1122 138.254C40.4102 138.254 38.8282 137.498 38.8282 135.846C38.8282 134.348 40.1442 133.578 42.4262 133.466V132.276H37.7082C37.3862 132.276 37.2322 132.01 37.2322 131.688C37.2322 131.366 37.3862 131.1 37.7082 131.1H48.5162ZM47.0602 125.57C47.3962 125.57 47.5502 125.836 47.5502 126.158C47.5502 126.48 47.3962 126.746 47.0602 126.746H43.8262V126.956C43.8262 127.516 44.1342 127.908 45.0722 128.286C46.0102 128.65 46.8082 128.944 47.5782 129.21C47.9002 129.308 47.9982 129.686 47.8862 129.966C47.7602 130.274 47.4802 130.442 47.1302 130.33C46.4302 130.106 45.6182 129.798 44.7782 129.462C43.5742 129 43.2382 128.636 43.1262 128.3H43.1122C43.0002 128.65 42.6502 129.028 41.4462 129.49C40.6202 129.826 39.7942 130.134 39.1082 130.358C38.7442 130.47 38.4642 130.302 38.3382 129.98C38.2262 129.7 38.3102 129.308 38.6462 129.21C39.4162 128.944 40.2142 128.65 41.1522 128.286C42.0902 127.908 42.3982 127.516 42.3982 126.956V126.746H39.1642C38.8282 126.746 38.6742 126.48 38.6742 126.158C38.6742 125.836 38.8282 125.57 39.1642 125.57H47.0602ZM43.1122 134.558C41.0962 134.558 40.2142 135.02 40.2142 135.846C40.2142 136.672 41.0962 137.134 43.1122 137.134C45.1282 137.134 46.0102 136.672 46.0102 135.846C46.0102 135.02 45.1282 134.558 43.1122 134.558ZM53.7684 128.538C55.6304 128.538 56.7504 129.462 56.7504 130.876C56.7504 132.29 55.6304 133.214 53.7684 133.214C51.9064 133.214 50.7864 132.29 50.7864 130.876C50.7864 129.462 51.9064 128.538 53.7684 128.538ZM53.7684 125.08C54.1324 125.08 54.4684 125.262 54.4684 125.668V126.55H56.9744C57.3104 126.55 57.4644 126.83 57.4644 127.152C57.4644 127.474 57.3104 127.754 56.9744 127.754H50.4224C50.0864 127.754 49.9324 127.474 49.9324 127.152C49.9324 126.83 50.0864 126.55 50.4224 126.55H53.0684V125.668C53.0684 125.262 53.4184 125.08 53.7684 125.08ZM53.7684 129.644C52.6484 129.644 52.0464 130.148 52.0464 130.876C52.0464 131.59 52.6484 132.108 53.7684 132.108C54.9024 132.108 55.4904 131.59 55.4904 130.876C55.4904 130.148 54.9024 129.644 53.7684 129.644ZM59.2284 125.108C59.5924 125.108 59.9284 125.29 59.9284 125.696V128.846H61.4824C61.8324 128.846 61.9864 129.112 61.9864 129.448C61.9864 129.784 61.8324 130.05 61.4824 130.05H59.9284V134.124C59.9284 134.53 59.5924 134.712 59.2284 134.712C58.8784 134.712 58.5424 134.53 58.5424 134.124V125.696C58.5424 125.29 58.8784 125.108 59.2284 125.108ZM52.6064 133.928C52.9564 133.928 53.3064 134.11 53.3064 134.516V136.35C53.3064 136.56 53.3764 136.63 53.6004 136.63H59.7604C60.1104 136.63 60.2644 136.91 60.2644 137.246C60.2644 137.568 60.1104 137.848 59.7604 137.848H52.9704C52.1584 137.848 51.8924 137.596 51.8924 136.798V134.516C51.8924 134.11 52.2284 133.928 52.6064 133.928ZM67.4626 125.934C67.8406 125.934 68.1766 126.116 68.1766 126.536V132.444C68.1766 132.654 68.2606 132.738 68.4706 132.738C70.2626 132.738 71.8166 132.64 73.3286 132.43C73.6506 132.388 73.8606 132.626 73.8886 132.948C73.9306 133.284 73.8046 133.592 73.4966 133.634C72.1946 133.816 70.5286 133.942 67.8406 133.942C67.0286 133.942 66.7626 133.69 66.7626 132.892V126.536C66.7626 126.116 67.0986 125.934 67.4626 125.934ZM75.4706 125.108C75.8346 125.108 76.1706 125.29 76.1706 125.696V129.336H77.7106C78.0746 129.336 78.2286 129.602 78.2286 129.938C78.2286 130.274 78.0746 130.554 77.7106 130.554H76.1706V136.616C76.1706 137.022 75.8346 137.204 75.4706 137.204C75.1066 137.204 74.7706 137.022 74.7706 136.616V125.696C74.7706 125.29 75.1066 125.108 75.4706 125.108ZM83.2708 125.836C85.5108 125.836 86.6588 127.152 86.6588 128.888C86.6588 130.638 85.5108 131.954 83.2708 131.954C81.0308 131.954 79.8828 130.638 79.8828 128.888C79.8828 127.152 81.0308 125.836 83.2708 125.836ZM83.2708 127.012C81.8708 127.012 81.2128 127.824 81.2128 128.888C81.2128 129.952 81.8708 130.778 83.2708 130.778C84.6708 130.778 85.3288 129.952 85.3288 128.888C85.3288 127.824 84.6708 127.012 83.2708 127.012ZM87.1208 133.536C87.4428 133.508 87.6248 133.732 87.6388 134.068C87.6668 134.39 87.5408 134.684 87.2188 134.712C84.9788 134.922 82.3608 135.006 79.6168 135.006C79.2808 135.006 79.1268 134.726 79.1268 134.404C79.1268 134.082 79.2808 133.802 79.6168 133.802C82.0948 133.802 84.5308 133.774 87.1208 133.536ZM89.0668 125.108C89.4308 125.108 89.7668 125.29 89.7668 125.696V136.616C89.7668 137.022 89.4308 137.204 89.0668 137.204C88.7168 137.204 88.3808 137.022 88.3808 136.616V125.696C88.3808 125.29 88.7168 125.108 89.0668 125.108ZM104.287 132.486C105.099 132.486 105.365 132.738 105.365 133.536V134.74C105.365 135.538 105.099 135.79 104.287 135.79H98.3649C98.2109 135.79 98.1409 135.846 98.1409 136V136.728C98.1409 136.868 98.2109 136.938 98.3649 136.938H105.211C105.519 136.938 105.673 137.204 105.673 137.484C105.673 137.778 105.519 138.044 105.211 138.044H97.8609C97.0489 138.044 96.7829 137.792 96.7829 136.994V135.776C96.7829 134.978 97.0489 134.74 97.8609 134.74H103.783C103.937 134.74 104.007 134.67 104.007 134.516V133.816C104.007 133.662 103.937 133.592 103.783 133.592H97.2029C96.8949 133.592 96.7549 133.326 96.7549 133.046C96.7549 132.752 96.8949 132.486 97.2029 132.486H104.287ZM106.485 130.008C106.807 130.008 106.961 130.26 106.961 130.568C106.961 130.904 106.807 131.156 106.485 131.156H95.6769C95.3549 131.156 95.2009 130.904 95.2009 130.568C95.2009 130.26 95.3549 130.008 95.6769 130.008H103.503C103.727 129.182 103.839 128.314 103.839 127.376V126.984C103.839 126.76 103.769 126.69 103.545 126.69H97.1609C96.8249 126.69 96.6849 126.41 96.6849 126.088C96.6849 125.766 96.8249 125.486 97.1609 125.486H104.161C104.973 125.486 105.239 125.738 105.239 126.536V127.222C105.239 128.244 105.071 129.252 104.861 130.008H106.485ZM113.823 125.248C116.511 125.248 118.079 125.934 118.079 127.488C118.079 129.056 116.511 129.742 113.823 129.742C111.135 129.742 109.567 129.056 109.567 127.488C109.567 125.934 111.135 125.248 113.823 125.248ZM113.823 126.354C111.821 126.354 110.953 126.76 110.953 127.488C110.953 128.216 111.821 128.636 113.823 128.636C115.825 128.636 116.693 128.216 116.693 127.488C116.693 126.76 115.825 126.354 113.823 126.354ZM119.227 130.624C119.549 130.624 119.703 130.876 119.703 131.184C119.703 131.52 119.549 131.772 119.227 131.772H108.419C108.097 131.772 107.943 131.52 107.943 131.184C107.943 130.876 108.097 130.624 108.419 130.624H119.227ZM117.029 132.85C117.841 132.85 118.107 133.102 118.107 133.9V134.936C118.107 135.734 117.841 135.986 117.029 135.986H111.107C110.953 135.986 110.883 136.042 110.883 136.196V136.77C110.883 136.91 110.953 136.98 111.107 136.98H117.953C118.261 136.98 118.415 137.246 118.415 137.526C118.415 137.82 118.261 138.072 117.953 138.072H110.603C109.791 138.072 109.525 137.82 109.525 137.022V135.986C109.525 135.188 109.791 134.936 110.603 134.936H116.525C116.679 134.936 116.749 134.866 116.749 134.726V134.166C116.749 134.012 116.679 133.942 116.525 133.942H109.945C109.637 133.942 109.497 133.69 109.497 133.396C109.497 133.116 109.637 132.85 109.945 132.85H117.029ZM126.467 125.696C126.817 125.696 127.167 125.892 127.167 126.284V127.95H132.963V126.284C132.963 125.892 133.313 125.696 133.649 125.696C134.013 125.696 134.363 125.892 134.363 126.284V131.226C134.363 132.024 134.097 132.276 133.285 132.276H130.765V134.796H135.455C135.791 134.796 135.945 135.062 135.945 135.384C135.945 135.706 135.791 135.986 135.455 135.986H124.675C124.339 135.986 124.185 135.706 124.185 135.384C124.185 135.062 124.339 134.796 124.675 134.796H129.365V132.276H126.845C126.033 132.276 125.781 132.024 125.781 131.226V126.284C125.781 125.892 126.117 125.696 126.467 125.696ZM127.167 130.806C127.167 131.016 127.251 131.086 127.461 131.086H132.669C132.879 131.086 132.963 131.016 132.963 130.806V129.14H127.167V130.806ZM142.808 128.58C145.202 128.58 146.644 129.406 146.644 130.96C146.644 132.36 145.482 133.158 143.507 133.312V134.796H148.198C148.534 134.796 148.688 135.062 148.688 135.384C148.688 135.706 148.534 135.986 148.198 135.986H137.418C137.082 135.986 136.928 135.706 136.928 135.384C136.928 135.062 137.082 134.796 137.418 134.796H142.108V133.312C140.133 133.158 138.972 132.36 138.972 130.96C138.972 129.406 140.414 128.58 142.808 128.58ZM142.808 124.912C143.186 124.912 143.522 125.094 143.522 125.5V126.508H147.232C147.568 126.508 147.722 126.774 147.722 127.11C147.722 127.418 147.568 127.698 147.232 127.698H138.384C138.048 127.698 137.894 127.418 137.894 127.11C137.894 126.774 138.048 126.508 138.384 126.508H142.094V125.5C142.094 125.094 142.444 124.912 142.808 124.912ZM142.808 129.686C141.086 129.686 140.33 130.176 140.33 130.96C140.33 131.73 141.086 132.22 142.808 132.22C144.53 132.22 145.286 131.73 145.286 130.96C145.286 130.176 144.53 129.686 142.808 129.686ZM152.876 129C154.598 129 155.508 130.134 155.508 131.702C155.508 133.256 154.598 134.404 152.876 134.404C151.154 134.404 150.23 133.256 150.23 131.702C150.23 130.134 151.154 129 152.876 129ZM152.862 125.192C153.226 125.192 153.562 125.374 153.562 125.766V126.956H155.536C155.872 126.956 156.026 127.236 156.026 127.544C156.026 127.866 155.872 128.146 155.536 128.146H150.02C149.67 128.146 149.516 127.866 149.516 127.544C149.516 127.236 149.67 126.956 150.02 126.956H152.176V125.766C152.176 125.374 152.526 125.192 152.862 125.192ZM152.876 130.134C151.938 130.134 151.448 130.764 151.448 131.702C151.448 132.626 151.938 133.256 152.876 133.256C153.8 133.256 154.304 132.626 154.304 131.702C154.304 130.764 153.8 130.134 152.876 130.134ZM159.974 125.108C160.31 125.108 160.632 125.276 160.632 125.654V136.658C160.632 137.036 160.31 137.204 159.974 137.204C159.652 137.204 159.33 137.036 159.33 136.658V130.736H157.846V136.084C157.846 136.448 157.524 136.616 157.202 136.616C156.88 136.616 156.558 136.448 156.558 136.084V125.78C156.558 125.416 156.88 125.248 157.202 125.248C157.524 125.248 157.846 125.416 157.846 125.78V129.546H159.33V125.654C159.33 125.276 159.652 125.108 159.974 125.108ZM168.292 125.598C170.994 125.598 172.604 126.83 172.604 128.93C172.604 131.03 170.994 132.262 168.292 132.262C165.59 132.262 163.994 131.03 163.994 128.93C163.994 126.83 165.59 125.598 168.292 125.598ZM168.292 126.788C166.29 126.788 165.394 127.712 165.394 128.93C165.394 130.162 166.29 131.072 168.292 131.072C170.294 131.072 171.19 130.162 171.19 128.93C171.19 127.712 170.294 126.788 168.292 126.788ZM166.136 132.542C166.5 132.542 166.836 132.724 166.836 133.116V134.81H169.748V133.116C169.748 132.724 170.084 132.542 170.448 132.542C170.826 132.542 171.148 132.724 171.148 133.116V134.81H173.682C174.018 134.81 174.172 135.076 174.172 135.384C174.172 135.706 174.018 135.986 173.682 135.986H162.902C162.566 135.986 162.412 135.706 162.412 135.384C162.412 135.076 162.566 134.81 162.902 134.81H165.436V133.116C165.436 132.724 165.758 132.542 166.136 132.542Z" fill="white"/>
<path d="M25.862 150.004C26.114 150.004 26.366 150.13 26.366 150.41V153.084H30.216V150.41C30.216 150.13 30.454 150.004 30.706 150.004C30.972 150.004 31.224 150.13 31.224 150.41V156.99C31.224 157.704 30.986 157.928 30.258 157.928H26.324C25.596 157.928 25.358 157.704 25.358 156.99V150.41C25.358 150.13 25.61 150.004 25.862 150.004ZM26.366 156.794C26.366 156.99 26.436 157.046 26.632 157.046H29.95C30.132 157.046 30.216 156.99 30.216 156.794V153.966H26.366V156.794ZM34.402 149.164C34.668 149.164 34.92 149.29 34.92 149.584V160.728C34.92 161.022 34.668 161.148 34.402 161.148C34.15 161.148 33.898 161.022 33.898 160.728V149.584C33.898 149.29 34.15 149.164 34.402 149.164ZM42.9442 149.738C43.6722 149.738 43.9102 149.962 43.9102 150.676V154.036C43.9102 154.75 43.6722 154.974 42.9442 154.974H39.0522C38.3242 154.974 38.0862 154.75 38.0862 154.036V150.676C38.0862 149.962 38.3242 149.738 39.0522 149.738H42.9442ZM39.3602 150.592C39.1642 150.592 39.0942 150.662 39.0942 150.858V153.854C39.0942 154.036 39.1642 154.106 39.3602 154.106H42.6362C42.8322 154.106 42.9022 154.036 42.9022 153.854V150.858C42.9022 150.662 42.8322 150.592 42.6362 150.592H39.3602ZM47.1442 149.164C47.4102 149.164 47.6622 149.29 47.6622 149.584V155.296C47.6622 155.59 47.4102 155.716 47.1442 155.716C46.8922 155.716 46.6402 155.59 46.6402 155.296V149.584C46.6402 149.29 46.8922 149.164 47.1442 149.164ZM46.6962 156.416C47.4242 156.416 47.6622 156.64 47.6622 157.354V158.642C47.6622 159.356 47.4242 159.58 46.6962 159.58H41.0122C40.8302 159.58 40.7462 159.636 40.7462 159.832V160.826C40.7462 161.022 40.8302 161.092 41.0122 161.092H47.6622C47.8862 161.092 47.9982 161.288 47.9982 161.512C47.9982 161.736 47.8862 161.932 47.6622 161.932H40.7182C39.9902 161.932 39.7522 161.708 39.7522 160.994V159.692C39.7522 158.978 39.9902 158.754 40.7182 158.754H46.4022C46.5982 158.754 46.6682 158.698 46.6682 158.502V157.508C46.6682 157.326 46.5982 157.256 46.4022 157.256H40.0602C39.8362 157.256 39.7242 157.06 39.7242 156.836C39.7242 156.612 39.8362 156.416 40.0602 156.416H46.6962ZM59.9844 149.164C60.2364 149.164 60.4884 149.29 60.4884 149.584V158.124C60.4884 158.418 60.2364 158.544 59.9844 158.544C59.7184 158.544 59.4804 158.418 59.4804 158.124V153.462H56.4844V155.198C56.4844 155.912 56.2464 156.136 55.5184 156.136H51.7244C50.9964 156.136 50.7584 155.912 50.7584 155.198V150.284C50.7584 150.004 51.0104 149.878 51.2624 149.878C51.5144 149.878 51.7664 150.004 51.7664 150.284V152.23H55.4764V150.284C55.4764 150.004 55.7284 149.878 55.9804 149.878C56.2464 149.878 56.4844 150.004 56.4844 150.284V152.58H59.4804V149.584C59.4804 149.29 59.7184 149.164 59.9844 149.164ZM53.0124 157.536C53.2784 157.536 53.5304 157.662 53.5304 157.956V160.616C53.5304 160.798 53.6004 160.868 53.7964 160.868H60.4884C60.7404 160.868 60.8524 161.078 60.8524 161.316C60.8524 161.554 60.7404 161.764 60.4884 161.764H53.4604C52.7324 161.764 52.4944 161.54 52.4944 160.826V157.956C52.4944 157.662 52.7464 157.536 53.0124 157.536ZM51.7664 155.002C51.7664 155.198 51.8364 155.268 52.0324 155.268H55.2104C55.4064 155.268 55.4764 155.198 55.4764 155.002V153.098H51.7664V155.002ZM68.5966 152.608C70.9346 152.608 72.3206 153.42 72.3206 154.918C72.3206 156.304 71.1306 157.116 69.1146 157.228V158.964H74.0706C74.3226 158.964 74.4346 159.16 74.4346 159.412C74.4346 159.65 74.3226 159.846 74.0706 159.846H63.1226C62.8706 159.846 62.7586 159.65 62.7586 159.412C62.7586 159.16 62.8706 158.964 63.1226 158.964H68.0926V157.228C66.0626 157.116 64.8726 156.304 64.8726 154.918C64.8726 153.42 66.2586 152.608 68.5966 152.608ZM68.5966 153.434C66.7626 153.434 65.8666 153.994 65.8666 154.918C65.8666 155.856 66.7626 156.416 68.5966 156.416C70.4306 156.416 71.3266 155.856 71.3266 154.918C71.3266 153.994 70.4306 153.434 68.5966 153.434ZM68.5966 148.968C68.8626 148.968 69.1146 149.108 69.1146 149.402V150.592H73.0906C73.3426 150.592 73.4546 150.802 73.4546 151.04C73.4546 151.278 73.3426 151.488 73.0906 151.488H64.1026C63.8506 151.488 63.7386 151.278 63.7386 151.04C63.7386 150.802 63.8506 150.592 64.1026 150.592H68.0786V149.402C68.0786 149.108 68.3306 148.968 68.5966 148.968ZM83.2288 157.816C83.4388 157.788 83.5928 157.956 83.6068 158.194C83.6208 158.446 83.5228 158.656 83.2988 158.67C80.8348 158.88 78.4268 158.95 75.8508 158.95C75.5988 158.95 75.4868 158.754 75.4868 158.516C75.4868 158.278 75.5988 158.068 75.8508 158.068C76.8728 158.068 77.8948 158.068 78.9448 158.054V155.66C77.1108 155.478 76.2148 154.274 76.2148 152.762C76.2148 151.124 77.2788 149.85 79.4348 149.85C81.5908 149.85 82.6548 151.124 82.6548 152.762C82.6548 154.26 81.7588 155.464 79.9528 155.646V158.012C81.0028 157.984 82.0808 157.928 83.2288 157.816ZM79.4348 150.732C77.8948 150.732 77.1948 151.642 77.1948 152.762C77.1948 153.882 77.8948 154.792 79.4348 154.792C80.9748 154.792 81.6748 153.882 81.6748 152.762C81.6748 151.642 80.9748 150.732 79.4348 150.732ZM85.0208 149.164C85.2868 149.164 85.5248 149.29 85.5248 149.584V153.91H87.1208C87.3728 153.91 87.4848 154.12 87.4848 154.358C87.4848 154.61 87.3728 154.82 87.1208 154.82H85.5248V160.728C85.5248 161.022 85.2868 161.148 85.0208 161.148C84.7548 161.148 84.5168 161.022 84.5168 160.728V149.584C84.5168 149.29 84.7548 149.164 85.0208 149.164ZM94.9209 149.668C95.1869 149.668 95.4389 149.794 95.4389 150.088V151.516C95.4389 152.482 95.5789 153.042 96.2929 153.742C96.8529 154.288 97.3149 154.694 97.7769 155.1C97.9729 155.268 97.9589 155.548 97.8049 155.73C97.6369 155.926 97.3709 155.982 97.1469 155.8C96.7689 155.478 96.3069 155.072 95.8589 154.638C95.2289 154.036 95.0049 153.686 94.9489 153.406H94.9349C94.8649 153.714 94.6689 154.036 94.0109 154.68C93.4369 155.226 93.0029 155.59 92.4849 156.038C92.2749 156.206 91.9949 156.15 91.8269 155.954C91.6729 155.772 91.6589 155.478 91.8549 155.31C92.3869 154.862 93.0029 154.316 93.5769 153.756C94.2769 153.07 94.4169 152.496 94.4169 151.544V150.088C94.4169 149.794 94.6689 149.668 94.9209 149.668ZM102.047 149.164C102.299 149.164 102.537 149.29 102.537 149.57V156.472C102.537 156.752 102.299 156.864 102.047 156.864C101.809 156.864 101.571 156.752 101.571 156.472V153.252H99.7089V155.884C99.7089 156.164 99.4709 156.276 99.2189 156.276C98.9809 156.276 98.7429 156.164 98.7429 155.884V149.64C98.7429 149.36 98.9809 149.234 99.2189 149.234C99.4709 149.234 99.7089 149.36 99.7089 149.64V152.37H101.571V149.57C101.571 149.29 101.809 149.164 102.047 149.164ZM98.3929 156.99C101.025 156.99 102.523 157.886 102.523 159.552C102.523 161.218 101.025 162.114 98.3929 162.114C95.7609 162.114 94.2629 161.218 94.2629 159.552C94.2629 157.886 95.7609 156.99 98.3929 156.99ZM98.3929 157.83C96.2789 157.83 95.2849 158.488 95.2849 159.552C95.2849 160.616 96.2789 161.274 98.3929 161.274C100.507 161.274 101.501 160.616 101.501 159.552C101.501 158.488 100.507 157.83 98.3929 157.83ZM107.733 149.248C107.999 149.248 108.237 149.374 108.237 149.654V151.012H110.309C110.561 151.012 110.673 151.208 110.673 151.446C110.673 151.698 110.561 151.894 110.309 151.894H108.237V153.21C108.237 154.358 108.489 154.946 109.189 155.73C109.721 156.318 110.239 156.85 110.589 157.186C110.757 157.34 110.729 157.634 110.547 157.802C110.379 157.984 110.127 157.998 109.945 157.83C109.553 157.452 109.119 157.004 108.727 156.584C108.097 155.912 107.817 155.464 107.761 155.086H107.747C107.677 155.478 107.383 155.94 106.753 156.612C106.361 157.032 105.857 157.55 105.297 158.096C105.129 158.25 104.849 158.236 104.681 158.068C104.499 157.872 104.471 157.606 104.625 157.438C105.213 156.878 105.759 156.318 106.277 155.73C106.991 154.946 107.229 154.358 107.229 153.21V151.894H104.975C104.723 151.894 104.611 151.698 104.611 151.446C104.611 151.208 104.723 151.012 104.975 151.012H107.229V149.654C107.229 149.374 107.481 149.248 107.733 149.248ZM112.325 149.304C112.563 149.304 112.801 149.43 112.801 149.71V160.154C112.801 160.434 112.563 160.56 112.325 160.56C112.073 160.56 111.835 160.434 111.835 160.154V154.568H110.155C109.903 154.568 109.791 154.372 109.791 154.12C109.791 153.882 109.903 153.686 110.155 153.686H111.835V149.71C111.835 149.43 112.073 149.304 112.325 149.304ZM114.789 149.164C115.041 149.164 115.279 149.29 115.279 149.57V160.742C115.279 161.022 115.041 161.148 114.789 161.148C114.551 161.148 114.313 161.022 114.313 160.742V149.57C114.313 149.29 114.551 149.164 114.789 149.164ZM120.951 149.808C123.093 149.808 124.115 151.208 124.115 152.986C124.115 154.75 123.093 156.15 120.951 156.15C118.809 156.15 117.787 154.75 117.787 152.986C117.787 151.208 118.809 149.808 120.951 149.808ZM120.951 150.69C119.397 150.69 118.781 151.754 118.781 152.986C118.781 154.204 119.397 155.268 120.951 155.268C122.505 155.268 123.121 154.204 123.121 152.986C123.121 151.754 122.505 150.69 120.951 150.69ZM127.111 149.164C127.363 149.164 127.615 149.29 127.615 149.584V158.124C127.615 158.418 127.363 158.544 127.111 158.544C126.845 158.544 126.593 158.418 126.593 158.124V149.584C126.593 149.29 126.845 149.164 127.111 149.164ZM120.195 157.452C120.461 157.452 120.713 157.578 120.713 157.872V160.616C120.713 160.798 120.783 160.868 120.979 160.868H127.615C127.867 160.868 127.979 161.078 127.979 161.316C127.979 161.554 127.867 161.764 127.615 161.764H120.643C119.915 161.764 119.677 161.54 119.677 160.826V157.872C119.677 157.578 119.929 157.452 120.195 157.452ZM134.072 149.584C134.338 149.584 134.59 149.71 134.59 150.004V151.432C134.59 152.384 134.898 153.028 135.612 153.616C136.298 154.176 136.928 154.666 137.446 155.03C137.669 155.184 137.669 155.478 137.53 155.674C137.39 155.856 137.138 155.954 136.9 155.786C136.48 155.492 135.85 155.002 135.22 154.498C134.506 153.938 134.156 153.476 134.086 153.182H134.072C134.002 153.49 133.638 153.966 132.938 154.526C132.308 155.044 131.678 155.52 131.048 155.968C130.81 156.136 130.544 156.052 130.404 155.856C130.264 155.674 130.25 155.366 130.488 155.198C131.216 154.68 131.846 154.204 132.532 153.63C133.246 153.042 133.553 152.398 133.553 151.446V150.004C133.553 149.71 133.806 149.584 134.072 149.584ZM139.854 149.164C140.106 149.164 140.358 149.29 140.358 149.584V156.234C140.358 156.528 140.106 156.654 139.854 156.654C139.588 156.654 139.336 156.528 139.336 156.234V149.584C139.336 149.29 139.588 149.164 139.854 149.164ZM139.392 157.368C140.12 157.368 140.358 157.592 140.358 158.306V161.652C140.358 161.946 140.106 162.072 139.84 162.072C139.588 162.072 139.336 161.946 139.336 161.652V158.502C139.336 158.32 139.266 158.25 139.07 158.25H132.518C132.28 158.25 132.168 158.054 132.168 157.816C132.168 157.564 132.28 157.368 132.518 157.368H139.392ZM148.55 149.738C151.224 149.738 152.736 151.012 152.736 153.07C152.736 155.142 151.224 156.416 148.55 156.416C145.876 156.416 144.364 155.142 144.364 153.07C144.364 151.012 145.876 149.738 148.55 149.738ZM148.55 150.606C146.408 150.606 145.386 151.656 145.386 153.07C145.386 154.484 146.408 155.534 148.55 155.534C150.692 155.534 151.714 154.484 151.714 153.07C151.714 151.656 150.692 150.606 148.55 150.606ZM154.024 158.95C154.276 158.95 154.388 159.16 154.388 159.412C154.388 159.65 154.276 159.846 154.024 159.846H143.076C142.824 159.846 142.712 159.65 142.712 159.412C142.712 159.16 142.824 158.95 143.076 158.95H154.024ZM164.442 149.92C165.17 149.92 165.408 150.144 165.408 150.858V152.678C165.408 153.392 165.17 153.616 164.442 153.616H158.436C158.24 153.616 158.17 153.686 158.17 153.882V155.352C158.17 155.534 158.24 155.604 158.436 155.604H165.394C165.632 155.604 165.744 155.8 165.744 156.038C165.744 156.276 165.632 156.486 165.394 156.486H161.81V158.964H166.766C167.018 158.964 167.13 159.16 167.13 159.412C167.13 159.65 167.018 159.846 166.766 159.846H155.818C155.566 159.846 155.454 159.65 155.454 159.412C155.454 159.16 155.566 158.964 155.818 158.964H160.788V156.486H158.128C157.4 156.486 157.162 156.262 157.162 155.548V153.714C157.162 153 157.4 152.776 158.128 152.776H164.148C164.33 152.776 164.414 152.706 164.414 152.51V151.054C164.414 150.858 164.33 150.788 164.148 150.788H157.484C157.246 150.788 157.134 150.592 157.134 150.354C157.134 150.116 157.246 149.92 157.484 149.92H164.442ZM175.126 149.808C177.254 149.808 178.276 151.208 178.276 152.986C178.276 154.75 177.254 156.15 175.126 156.15C172.998 156.15 171.976 154.75 171.976 152.986C171.976 151.208 172.998 149.808 175.126 149.808ZM175.126 150.69C173.586 150.69 172.97 151.754 172.97 152.986C172.97 154.204 173.586 155.268 175.126 155.268C176.666 155.268 177.282 154.204 177.282 152.986C177.282 151.754 176.666 150.69 175.126 150.69ZM180.964 149.164C181.23 149.164 181.482 149.29 181.482 149.584V152.832H183.26C183.512 152.832 183.624 153.042 183.624 153.294C183.624 153.532 183.512 153.742 183.26 153.742H181.482V158.124C181.482 158.418 181.23 158.544 180.964 158.544C180.712 158.544 180.46 158.418 180.46 158.124V149.584C180.46 149.29 180.712 149.164 180.964 149.164ZM174.202 157.452C174.468 157.452 174.72 157.578 174.72 157.872V160.616C174.72 160.798 174.79 160.868 174.986 160.868H181.482C181.734 160.868 181.846 161.078 181.846 161.316C181.846 161.554 181.734 161.764 181.482 161.764H174.65C173.922 161.764 173.684 161.54 173.684 160.826V157.872C173.684 157.578 173.936 157.452 174.202 157.452ZM191.494 150.032C191.732 150.032 191.844 150.228 191.844 150.48C191.844 150.718 191.732 150.928 191.494 150.928H188.96V152.02C188.96 153.014 189.282 153.672 190.01 154.302C190.64 154.82 191.298 155.324 191.746 155.674C191.97 155.842 191.984 156.094 191.83 156.318C191.69 156.514 191.424 156.584 191.186 156.416C190.752 156.08 190.22 155.674 189.576 155.156C188.834 154.554 188.526 154.106 188.456 153.784H188.442C188.372 154.12 188.05 154.582 187.308 155.184C186.678 155.716 186.048 156.192 185.474 156.612C185.236 156.78 184.984 156.682 184.844 156.5C184.69 156.304 184.676 156.024 184.914 155.842C185.53 155.394 186.244 154.848 186.874 154.316C187.602 153.7 187.924 153.028 187.924 152.034V150.928H185.306C185.068 150.928 184.956 150.718 184.956 150.48C184.956 150.228 185.068 150.032 185.306 150.032H191.494ZM194.406 149.164C194.658 149.164 194.91 149.29 194.91 149.584V158.124C194.91 158.418 194.658 158.544 194.406 158.544C194.14 158.544 193.902 158.418 193.902 158.124V153.588H191.508C191.27 153.588 191.158 153.392 191.158 153.14C191.158 152.902 191.27 152.692 191.508 152.692H193.902V149.584C193.902 149.29 194.14 149.164 194.406 149.164ZM187.434 157.452C187.7 157.452 187.952 157.578 187.952 157.872V160.616C187.952 160.798 188.022 160.868 188.218 160.868H194.91C195.162 160.868 195.274 161.078 195.274 161.316C195.274 161.554 195.162 161.764 194.91 161.764H187.882C187.154 161.764 186.916 161.54 186.916 160.826V157.872C186.916 157.578 187.168 157.452 187.434 157.452ZM201.002 153C202.836 153 203.928 154.134 203.928 155.702C203.928 157.27 202.836 158.404 201.002 158.404C199.168 158.404 198.076 157.27 198.076 155.702C198.076 154.134 199.168 153 201.002 153ZM201.002 149.164C201.268 149.164 201.52 149.29 201.52 149.584V150.998H204.334C204.572 150.998 204.684 151.194 204.684 151.432C204.684 151.684 204.572 151.88 204.334 151.88H197.53C197.278 151.88 197.166 151.684 197.166 151.432C197.166 151.194 197.278 150.998 197.53 150.998H200.484V149.584C200.484 149.29 200.75 149.164 201.002 149.164ZM201.002 153.854C199.77 153.854 199.028 154.61 199.028 155.702C199.028 156.794 199.77 157.55 201.002 157.55C202.234 157.55 202.976 156.794 202.976 155.702C202.976 154.61 202.234 153.854 201.002 153.854ZM206.462 149.164C206.714 149.164 206.966 149.29 206.966 149.584V153.63H208.744C208.996 153.63 209.108 153.84 209.108 154.078C209.108 154.33 208.996 154.54 208.744 154.54H206.966V160.728C206.966 161.022 206.714 161.148 206.462 161.148C206.196 161.148 205.958 161.022 205.958 160.728V149.584C205.958 149.29 206.196 149.164 206.462 149.164ZM217.679 149.304C217.917 149.304 218.155 149.43 218.155 149.71V160.154C218.155 160.434 217.917 160.56 217.679 160.56C217.427 160.56 217.189 160.434 217.189 160.154V154.442H214.949C214.585 155.632 213.591 156.374 210.917 158.264C210.721 158.404 210.427 158.334 210.287 158.124C210.133 157.914 210.133 157.606 210.343 157.466C213.843 155.044 214.137 154.778 214.137 152.608V151.39C214.137 151.208 214.053 151.138 213.871 151.138H210.679C210.427 151.138 210.315 150.928 210.315 150.69C210.315 150.452 210.427 150.242 210.679 150.242H214.165C214.893 150.242 215.131 150.466 215.131 151.18V152.65C215.131 152.986 215.117 153.294 215.089 153.56H217.189V149.71C217.189 149.43 217.427 149.304 217.679 149.304ZM220.227 149.164C220.479 149.164 220.717 149.29 220.717 149.57V160.742C220.717 161.022 220.479 161.148 220.227 161.148C219.989 161.148 219.751 161.022 219.751 160.742V149.57C219.751 149.29 219.989 149.164 220.227 149.164ZM228.335 149.78C228.587 149.78 228.839 149.906 228.839 150.2V152.146H235.167V150.2C235.167 149.906 235.419 149.78 235.671 149.78C235.923 149.78 236.175 149.906 236.175 150.2V155.226C236.175 155.94 235.937 156.164 235.209 156.164H232.521V158.964H237.477C237.729 158.964 237.841 159.16 237.841 159.412C237.841 159.65 237.729 159.846 237.477 159.846H226.529C226.277 159.846 226.165 159.65 226.165 159.412C226.165 159.16 226.277 158.964 226.529 158.964H231.499V156.164H228.797C228.069 156.164 227.831 155.94 227.831 155.226V150.2C227.831 149.906 228.083 149.78 228.335 149.78ZM228.839 155.03C228.839 155.212 228.923 155.282 229.105 155.282H234.901C235.083 155.282 235.167 155.212 235.167 155.03V153.028H228.839V155.03ZM244.997 149.934C245.725 149.934 245.963 150.158 245.963 150.872V151.768C245.963 152.622 245.879 153.406 245.669 154.092C245.599 154.344 245.347 154.456 245.053 154.4C244.787 154.33 244.633 154.134 244.703 153.868C244.871 153.154 244.955 152.51 244.955 151.726V151.082C244.955 150.886 244.871 150.83 244.689 150.83H240.139C239.887 150.83 239.775 150.62 239.775 150.382C239.775 150.13 239.887 149.934 240.139 149.934H244.997ZM248.427 149.164C248.693 149.164 248.931 149.29 248.931 149.584V153.168H250.527C250.779 153.168 250.891 153.378 250.891 153.616C250.891 153.868 250.779 154.078 250.527 154.078H248.931V158.32C248.931 158.614 248.693 158.74 248.427 158.74C248.161 158.74 247.923 158.614 247.923 158.32V149.584C247.923 149.29 248.161 149.164 248.427 149.164ZM242.001 152.776C242.267 152.776 242.519 152.902 242.519 153.196V155.702C243.821 155.66 245.179 155.59 246.635 155.464C246.845 155.45 246.999 155.604 247.013 155.856C247.027 156.094 246.929 156.304 246.705 156.332C244.241 156.542 241.833 156.598 239.257 156.598C239.005 156.598 238.893 156.402 238.893 156.164C238.893 155.926 239.005 155.73 239.257 155.73C239.999 155.73 240.755 155.73 241.511 155.716V153.196C241.511 152.902 241.749 152.776 242.001 152.776ZM241.357 157.886C241.623 157.886 241.875 158.012 241.875 158.32V160.658C241.875 160.854 241.945 160.924 242.141 160.924H248.945C249.183 160.924 249.295 161.12 249.295 161.358C249.295 161.596 249.183 161.792 248.945 161.792H241.805C241.077 161.792 240.839 161.568 240.839 160.854V158.32C240.839 158.012 241.091 157.886 241.357 157.886ZM254.827 153.014C256.549 153.014 257.403 154.176 257.403 155.66C257.403 157.144 256.549 158.306 254.827 158.306C253.105 158.306 252.265 157.144 252.265 155.66C252.265 154.176 253.105 153.014 254.827 153.014ZM254.827 149.248C255.079 149.248 255.331 149.374 255.331 149.668V151.082H257.627C257.879 151.082 257.991 151.278 257.991 151.516C257.991 151.768 257.879 151.964 257.627 151.964H251.859C251.621 151.964 251.509 151.768 251.509 151.516C251.509 151.278 251.621 151.082 251.859 151.082H254.323V149.668C254.323 149.374 254.575 149.248 254.827 149.248ZM254.827 153.882C253.693 153.882 253.175 154.666 253.175 155.66C253.175 156.668 253.693 157.452 254.827 157.452C255.975 157.452 256.493 156.668 256.493 155.66C256.493 154.666 255.975 153.882 254.827 153.882ZM261.953 149.164C262.205 149.164 262.443 149.29 262.443 149.57V160.742C262.443 161.022 262.205 161.148 261.953 161.148C261.715 161.148 261.477 161.022 261.477 160.742V154.582H259.643V160.154C259.643 160.434 259.405 160.56 259.153 160.56C258.915 160.56 258.677 160.434 258.677 160.154V149.71C258.677 149.43 258.915 149.304 259.153 149.304C259.405 149.304 259.643 149.43 259.643 149.71V153.7H261.477V149.57C261.477 149.29 261.715 149.164 261.953 149.164ZM270.229 149.682C272.903 149.682 274.415 150.914 274.415 152.93C274.415 154.946 272.903 156.178 270.229 156.178C267.555 156.178 266.043 154.946 266.043 152.93C266.043 150.914 267.555 149.682 270.229 149.682ZM270.229 150.55C268.087 150.55 267.065 151.558 267.065 152.93C267.065 154.288 268.087 155.296 270.229 155.296C272.371 155.296 273.393 154.288 273.393 152.93C273.393 151.558 272.371 150.55 270.229 150.55ZM268.003 156.5C268.283 156.5 268.521 156.626 268.521 156.92V158.978H271.937V156.92C271.937 156.626 272.175 156.5 272.441 156.5C272.707 156.5 272.959 156.626 272.959 156.92V158.978H275.717C275.955 158.978 276.067 159.174 276.067 159.412C276.067 159.65 275.955 159.846 275.717 159.846H264.741C264.503 159.846 264.391 159.65 264.391 159.412C264.391 159.174 264.503 158.978 264.741 158.978H267.499V156.92C267.499 156.626 267.751 156.5 268.003 156.5Z" fill="white"/>
</svg>
