<svg width="24" height="25" viewBox="0 0 24 25" fill="none" xmlns="http://www.w3.org/2000/svg">
<g clip-path="url(#clip0_1306_847)">
<path d="M20.9719 12.0875L20.9531 12.1016V12.125V17.75C20.9531 18.5332 20.642 19.2844 20.0882 19.8382C19.5344 20.392 18.7832 20.7031 18 20.7031H6C5.21679 20.7031 4.46565 20.392 3.91183 19.8382C3.35801 19.2844 3.04688 18.5332 3.04688 17.75V12.125V12.1016L3.02813 12.0875L0.328128 10.0625C0.178944 9.95061 0.0803171 9.78404 0.0539448 9.59944C0.0275725 9.41483 0.0756149 9.22731 0.187503 9.07812C0.299391 8.92894 0.46596 8.83031 0.650566 8.80394C0.835172 8.77757 1.02269 8.82561 1.17188 8.9375L2.97188 10.2875L3.04688 10.3438V10.25V8.75C3.04688 8.36461 3.19997 7.995 3.47249 7.72249C3.745 7.44997 4.11461 7.29688 4.5 7.29688H19.5C19.8854 7.29688 20.255 7.44997 20.5275 7.72249C20.8 7.995 20.9531 8.36461 20.9531 8.75V10.25V10.3438L21.0281 10.2875L22.8281 8.9375C22.9773 8.82561 23.1648 8.77757 23.3494 8.80394C23.534 8.83031 23.7006 8.92894 23.8125 9.07812C23.9244 9.22731 23.9724 9.41483 23.9461 9.59944C23.9197 9.78404 23.8211 9.95061 23.6719 10.0625L20.9719 12.0875ZM19.5469 8.75V8.70312H19.5H4.5H4.45313V8.75V17.75C4.45313 18.1603 4.6161 18.5537 4.9062 18.8438C5.19629 19.1339 5.58975 19.2969 6 19.2969H18C18.4103 19.2969 18.8037 19.1339 19.0938 18.8438C19.3839 18.5537 19.5469 18.1603 19.5469 17.75V8.75ZM8.29688 5V2C8.29688 1.81352 8.37096 1.63468 8.50282 1.50282C8.63468 1.37095 8.81352 1.29688 9 1.29688C9.18648 1.29688 9.36533 1.37095 9.49719 1.50282C9.62905 1.63468 9.70313 1.81352 9.70313 2V5C9.70313 5.18648 9.62905 5.36532 9.49719 5.49718C9.36533 5.62905 9.18648 5.70312 9 5.70312C8.81352 5.70312 8.63468 5.62905 8.50282 5.49718C8.37096 5.36532 8.29688 5.18648 8.29688 5ZM12.4972 5.49718C12.3653 5.62905 12.1865 5.70312 12 5.70312C11.8135 5.70312 11.6347 5.62905 11.5028 5.49718C11.371 5.36532 11.2969 5.18648 11.2969 5V2C11.2969 1.81352 11.371 1.63468 11.5028 1.50282C11.6347 1.37095 11.8135 1.29688 12 1.29688C12.1865 1.29688 12.3653 1.37095 12.4972 1.50282C12.629 1.63468 12.7031 1.81352 12.7031 2V5C12.7031 5.18648 12.629 5.36532 12.4972 5.49718ZM15.4972 5.49718C15.3653 5.62905 15.1865 5.70312 15 5.70312C14.8135 5.70312 14.6347 5.62905 14.5028 5.49718C14.371 5.36532 14.2969 5.18648 14.2969 5V2C14.2969 1.81352 14.371 1.63468 14.5028 1.50282C14.6347 1.37095 14.8135 1.29688 15 1.29688C15.1865 1.29688 15.3653 1.37095 15.4972 1.50282C15.629 1.63468 15.7031 1.81352 15.7031 2V5C15.7031 5.18648 15.629 5.36532 15.4972 5.49718Z" fill="url(#paint0_linear_1306_847)" stroke="url(#paint1_linear_1306_847)" stroke-width="0.09375"/>
</g>
<defs>
<linearGradient id="paint0_linear_1306_847" x1="1.21325e-06" y1="22.1188" x2="20.4627" y2="2.31614" gradientUnits="userSpaceOnUse">
<stop offset="0.046875" stop-color="#7CEFA7"/>
<stop offset="1" stop-color="#8FD3F4"/>
</linearGradient>
<linearGradient id="paint1_linear_1306_847" x1="1.21325e-06" y1="22.1188" x2="20.4627" y2="2.31614" gradientUnits="userSpaceOnUse">
<stop offset="0.046875" stop-color="#7CEFA7"/>
<stop offset="1" stop-color="#8FD3F4"/>
</linearGradient>
<clipPath id="clip0_1306_847">
<rect width="24" height="24" fill="white" transform="translate(0 0.5)"/>
</clipPath>
</defs>
</svg>
