<svg width="24" height="25" viewBox="0 0 24 25" fill="none" xmlns="http://www.w3.org/2000/svg">
<g clip-path="url(#clip0_1133_7597)">
<path d="M8.25 5V2C8.25 1.80109 8.32902 1.61032 8.46967 1.46967C8.61032 1.32902 8.80109 1.25 9 1.25C9.19892 1.25 9.38968 1.32902 9.53033 1.46967C9.67099 1.61032 9.75 1.80109 9.75 2V5C9.75 5.19891 9.67099 5.38968 9.53033 5.53033C9.38968 5.67098 9.19892 5.75 9 5.75C8.80109 5.75 8.61032 5.67098 8.46967 5.53033C8.32902 5.38968 8.25 5.19891 8.25 5ZM12 5.75C12.1989 5.75 12.3897 5.67098 12.5303 5.53033C12.671 5.38968 12.75 5.19891 12.75 5V2C12.75 1.80109 12.671 1.61032 12.5303 1.46967C12.3897 1.32902 12.1989 1.25 12 1.25C11.8011 1.25 11.6103 1.32902 11.4697 1.46967C11.329 1.61032 11.25 1.80109 11.25 2V5C11.25 5.19891 11.329 5.38968 11.4697 5.53033C11.6103 5.67098 11.8011 5.75 12 5.75ZM15 5.75C15.1989 5.75 15.3897 5.67098 15.5303 5.53033C15.671 5.38968 15.75 5.19891 15.75 5V2C15.75 1.80109 15.671 1.61032 15.5303 1.46967C15.3897 1.32902 15.1989 1.25 15 1.25C14.8011 1.25 14.6103 1.32902 14.4697 1.46967C14.329 1.61032 14.25 1.80109 14.25 2V5C14.25 5.19891 14.329 5.38968 14.4697 5.53033C14.6103 5.67098 14.8011 5.75 15 5.75ZM23.7 10.1L21 12.125V17.75C21 18.5456 20.6839 19.3087 20.1213 19.8713C19.5587 20.4339 18.7957 20.75 18 20.75H6C5.20435 20.75 4.44129 20.4339 3.87868 19.8713C3.31607 19.3087 3 18.5456 3 17.75V12.125L0.300003 10.1C0.140873 9.98065 0.0356714 9.80298 0.00754094 9.60607C-0.0205895 9.40915 0.0306556 9.20913 0.150003 9.05C0.26935 8.89087 0.447024 8.78567 0.643937 8.75754C0.84085 8.72941 1.04087 8.78065 1.2 8.9L3 10.25V8.75C3 8.35218 3.15804 7.97064 3.43934 7.68934C3.72065 7.40804 4.10218 7.25 4.5 7.25H19.5C19.8978 7.25 20.2794 7.40804 20.5607 7.68934C20.842 7.97064 21 8.35218 21 8.75V10.25L22.8 8.9C22.9591 8.78065 23.1592 8.72941 23.3561 8.75754C23.553 8.78567 23.7307 8.89087 23.85 9.05C23.9693 9.20913 24.0206 9.40915 23.9925 9.60607C23.9643 9.80298 23.8591 9.98065 23.7 10.1ZM19.5 8.75H4.5V17.75C4.5 18.1478 4.65804 18.5294 4.93934 18.8107C5.22065 19.092 5.60218 19.25 6 19.25H18C18.3978 19.25 18.7794 19.092 19.0607 18.8107C19.342 18.5294 19.5 18.1478 19.5 17.75V8.75Z" fill="url(#paint0_linear_1133_7597)"/>
</g>
<defs>
<linearGradient id="paint0_linear_1133_7597" x1="1.21325e-06" y1="22.1188" x2="20.4627" y2="2.31614" gradientUnits="userSpaceOnUse">
<stop offset="0.046875" stop-color="#7CEFA7"/>
<stop offset="1" stop-color="#8FD3F4"/>
</linearGradient>
<clipPath id="clip0_1133_7597">
<rect width="24" height="24" fill="white" transform="translate(0 0.5)"/>
</clipPath>
</defs>
</svg>
