<svg width="57" height="56" viewBox="0 0 57 56" fill="none" xmlns="http://www.w3.org/2000/svg">
<path d="M6.08493 34.0524C6.57437 34.1583 7.0828 34.1369 7.56159 33.9902C8.04039 33.8434 8.47353 33.5763 8.81957 33.2143C8.9599 33.0679 9.1342 32.9584 9.327 32.8955C9.51981 32.8326 9.72515 32.8182 9.92483 32.8537C10.3612 32.9274 10.8088 32.9001 11.2329 32.7737C11.6571 32.6473 12.0466 32.4252 12.3715 32.1246C12.5698 31.9497 12.71 31.7184 12.7732 31.4616C12.8364 31.2048 12.8195 30.9348 12.725 30.6878C12.6304 30.4408 12.4626 30.2286 12.2441 30.0797C12.0256 29.9307 11.7668 29.8521 11.5023 29.8544C9.39044 29.9102 7.33475 30.5466 5.56084 31.6939C5.34432 31.8395 5.17672 32.0469 5.07992 32.2892C4.98311 32.5315 4.9616 32.7973 5.0182 33.052C5.07479 33.3067 5.20686 33.5383 5.39716 33.7168C5.58746 33.8953 5.82715 34.0122 6.08493 34.0524Z" fill="#D2FFFF"/>
<path d="M10.904 32.8147C12.222 32.9133 14.238 30.3914 14.9177 26.5541C14.9806 26.2894 14.9831 26.0139 14.9252 25.748C14.8673 25.4822 14.7503 25.2327 14.5831 25.0181C14.1627 24.533 13.4752 24.3773 12.8603 24.3332C10.8521 24.1879 9.04632 24.8521 7.49739 26.1182C6.31428 27.073 5.29982 28.4533 4.17638 29.3977C3.53294 29.946 2.87307 30.4589 2.19676 30.9363C2.02918 31.0506 1.89704 31.2098 1.81537 31.3955C1.70863 31.6193 1.68689 31.8743 1.75419 32.113C1.8215 32.3516 1.97324 32.5577 2.18119 32.6928C2.6571 33.0274 3.22913 33.1977 3.81056 33.1779C5.27907 33.1286 6.5426 32.4333 7.24312 30.2513" fill="#D2FFFF"/>
<path d="M10.904 32.8147C12.222 32.9133 14.238 30.3914 14.9177 26.5541C14.9806 26.2894 14.9831 26.0139 14.9252 25.748C14.8673 25.4822 14.7503 25.2327 14.5831 25.0181C14.1627 24.533 13.4752 24.3773 12.8603 24.3332C10.8521 24.1879 9.04632 24.8521 7.49739 26.1182C6.31428 27.073 5.29982 28.4533 4.17638 29.3977C3.53294 29.946 2.87307 30.4589 2.19676 30.9363C2.02918 31.0506 1.89704 31.2098 1.81537 31.3955C1.70863 31.6193 1.68689 31.8743 1.75419 32.113C1.8215 32.3516 1.97324 32.5577 2.18119 32.6928C2.6571 33.0274 3.22913 33.1977 3.81056 33.1779C5.27907 33.1286 6.5426 32.4333 7.24312 30.2513" stroke="#868686" stroke-width="1.3" stroke-linecap="round" stroke-linejoin="round"/>
<path d="M6.89569 33.9305C7.32458 33.9933 7.76243 33.9245 8.15144 33.7333C9.15812 33.2144 10.0143 31.6084 10.1233 29.9453" fill="#D2FFFF"/>
<path d="M6.89569 33.9305C7.32458 33.9933 7.76243 33.9245 8.15144 33.7333C9.15812 33.2144 10.0143 31.6084 10.1233 29.9453" stroke="#868686" stroke-width="1.3" stroke-linecap="round" stroke-linejoin="round"/>
<path d="M50.602 37.8137C50.1017 37.8402 49.6029 37.7376 49.1536 37.5159C48.7042 37.2942 48.3194 36.9608 48.036 36.5475C47.9196 36.3809 47.7641 36.2453 47.5832 36.1526C47.4023 36.0599 47.2015 36.0129 46.9982 36.0157C46.5551 36.0183 46.1172 35.9193 45.7183 35.7263C45.3194 35.5334 44.97 35.2516 44.6969 34.9026C44.5288 34.698 44.4273 34.4468 44.4061 34.1829C44.385 33.9189 44.4451 33.6548 44.5784 33.426C44.7117 33.1972 44.9119 33.0147 45.152 32.903C45.3921 32.7912 45.6606 32.7557 45.9215 32.801C47.9951 33.1967 49.9202 34.1543 51.4867 35.5694C51.6766 35.7471 51.8086 35.9778 51.8657 36.2315C51.9228 36.4852 51.9024 36.7502 51.807 36.9922C51.7116 37.2341 51.5457 37.4418 51.3309 37.5883C51.116 37.7348 50.8621 37.8133 50.602 37.8137Z" fill="#D2FFFF"/>
<path d="M46.0403 35.8132C44.7249 35.6991 43.137 32.8866 43.08 28.9896C43.0605 28.7179 43.1024 28.4453 43.2025 28.192C43.3027 27.9387 43.4585 27.7112 43.6585 27.5263C44.1489 27.1163 44.852 27.0722 45.4747 27.1267C47.4803 27.3057 49.1537 28.2631 50.4821 29.7472C51.4888 30.8836 52.2672 32.404 53.2323 33.5248C53.7789 34.1683 54.3489 34.7797 54.9421 35.3592C55.0883 35.5016 55.1932 35.6809 55.2457 35.8781C55.3131 36.1171 55.2926 36.3723 55.1879 36.5975C55.0832 36.8227 54.9012 37.0029 54.6749 37.1053C54.1504 37.3591 53.5573 37.4347 52.9859 37.3206C51.5485 37.0378 50.4121 36.1505 50.0696 33.8829" fill="#D2FFFF"/>
<path d="M46.0403 35.8132C44.7249 35.6991 43.137 32.8866 43.08 28.9896C43.0605 28.7179 43.1024 28.4453 43.2025 28.192C43.3027 27.9387 43.4585 27.7112 43.6585 27.5263C44.1489 27.1163 44.852 27.0722 45.4747 27.1267C47.4803 27.3057 49.1537 28.2631 50.4821 29.7472C51.4888 30.8836 52.2672 32.404 53.2323 33.5248C53.7789 34.1683 54.3489 34.7797 54.9421 35.3592C55.0883 35.5016 55.1932 35.6809 55.2457 35.8781C55.3131 36.1171 55.2926 36.3723 55.1879 36.5975C55.0832 36.8227 54.9012 37.0029 54.6749 37.1053C54.1504 37.3591 53.5573 37.4347 52.9859 37.3206C51.5485 37.0378 50.4121 36.1505 50.0696 33.8829" stroke="#868686" stroke-width="1.3" stroke-linecap="round" stroke-linejoin="round"/>
<path d="M49.8238 37.5646C49.3907 37.5579 48.9699 37.4194 48.6174 37.1677C47.7041 36.4983 47.1177 34.7729 47.276 33.1124" fill="#D2FFFF"/>
<path d="M49.8238 37.5646C49.3907 37.5579 48.9699 37.4194 48.6174 37.1677C47.7041 36.4983 47.1177 34.7729 47.276 33.1124" stroke="#868686" stroke-width="1.3" stroke-linecap="round" stroke-linejoin="round"/>
<path d="M20.0462 7.72363C20.2821 7.14159 20.3175 6.49754 20.1465 5.8932C19.9756 5.28886 19.6082 4.7587 19.1024 4.38646C18.5965 4.01422 17.9811 3.82112 17.3533 3.83767C16.7254 3.85423 16.121 4.07949 15.6355 4.47786C15.3516 3.9546 14.9096 3.5344 14.3727 3.27723C13.8357 3.02006 13.2313 2.93905 12.6456 3.04577C12.0599 3.1525 11.5229 3.44151 11.1112 3.87155C10.6995 4.30158 10.4342 4.85066 10.353 5.44044C10.2414 5.42179 10.1288 5.40966 10.0157 5.40411C9.58325 5.38464 9.15206 5.46472 8.7554 5.63818C8.35874 5.81165 8.0072 6.07387 7.72788 6.40463C7.44855 6.7354 7.24889 7.12588 7.14428 7.54598C7.03967 7.96608 7.03292 8.40458 7.12452 8.82771C7.21613 9.25084 7.40366 9.64729 7.67266 9.98651C7.94167 10.3257 8.28496 10.5986 8.67608 10.7843C9.06721 10.9699 9.49572 11.0632 9.92861 11.0571C10.3615 11.0509 10.7872 10.9455 11.1729 10.7489C11.2024 11.3563 11.427 11.938 11.8135 12.4075C12.2 12.8771 12.7276 13.2094 13.318 13.3551C13.9085 13.5008 14.5301 13.4521 15.0907 13.2163C15.6512 12.9805 16.1207 12.5701 16.4294 12.0461C17.0087 12.4634 17.7245 12.6459 18.4328 12.557C19.1412 12.468 19.7896 12.1142 20.2478 11.5667C20.7059 11.0191 20.9398 10.3185 20.9024 9.60553C20.865 8.89259 20.5591 8.22023 20.0462 7.72363Z" fill="white" stroke="#868686" stroke-width="1.3" stroke-linecap="round" stroke-linejoin="round"/>
<path d="M15.4447 7.02563C15.4447 7.02563 17.1467 7.14499 17.2479 8.91706" stroke="#868686" stroke-width="1.3" stroke-linecap="round" stroke-linejoin="round"/>
<path d="M32.2195 10.5218C40.6028 12.2703 44.942 20.183 46.5282 28.8514C47.4369 33.7931 48.0875 39.0053 45.4819 43.4951C41.0723 51.0966 29.9996 51.0114 21.9751 49.3518C20.266 48.9761 18.6155 48.3271 17.0759 47.4255C15.655 46.6368 14.3603 45.597 13.243 44.3471C11.7905 42.6925 10.711 40.6835 10.0917 38.4826C9.47244 36.2816 9.33085 33.9505 9.67841 31.6779C10.4094 26.4139 12.3108 23.191 15.3489 18.9716C17.8672 15.4746 22.6189 11.8406 27.2599 10.6922C28.8854 10.263 30.573 10.205 32.2195 10.5218Z" fill="white"/>
<path d="M39.5813 14.5253C41.4755 16.4589 43.023 18.7643 44.1438 21.3224C44.5025 22.1092 44.808 22.9143 45.1068 23.7339C45.2563 24.1673 45.4024 24.6044 45.5418 25.0415C47.2586 30.4108 48.2846 36.2499 46.0366 41.6775C42.4271 50.3834 27.7202 52.8931 17.061 47.2325" stroke="#868686" stroke-width="1.3" stroke-linecap="round" stroke-linejoin="round"/>
<path d="M30.031 10.3339C30.8883 10.2905 31.7474 10.3541 32.5912 10.5235C34.3428 10.8665 36.0328 11.5076 37.5979 12.4228" stroke="#868686" stroke-width="1.3" stroke-linecap="round" stroke-linejoin="round"/>
<path d="M13.0386 43.9552C6.98725 37.027 9.54833 27.2679 14.2608 20.5736C17.085 16.5592 20.9683 12.98 25.7074 11.3721" stroke="#868686" stroke-width="1.3" stroke-linecap="round" stroke-linejoin="round"/>
<path d="M32.8842 29.7771C32.6854 29.1055 32.2905 28.5044 31.7473 28.0467C31.2041 27.589 30.536 27.2944 29.824 27.1986C29.112 27.1028 28.3867 27.21 27.7362 27.5072C27.0856 27.8043 26.5377 28.2786 26.1589 28.8725C26.4914 30.3511 27.5861 32.1712 29.0806 32.3746C30.5752 32.5781 32.1369 31.114 32.873 29.7771H32.8842Z" fill="#FFAFA7"/>
<path d="M35.0744 24.9017C35.0744 24.9017 33.9834 25.8244 32.8625 24.5929" stroke="#868686" stroke-width="1.3" stroke-linecap="round" stroke-linejoin="round"/>
<path d="M26.6394 24.0441C26.6394 24.0441 25.5484 24.9705 24.4275 23.7354" stroke="#868686" stroke-width="1.3" stroke-linecap="round" stroke-linejoin="round"/>
<path d="M29.0611 11.0398C29.8569 13.7789 32.4237 15.4755 34.7402 15.2321C34.7738 14.1204 34.7626 11.4757 32.3901 9.95715C31.0086 9.07125 29.3308 8.73328 27.701 9.01261" fill="#FFF8F2"/>
<path d="M29.0611 11.0398C29.8569 13.7789 32.4237 15.4755 34.7402 15.2321C34.7738 14.1204 34.7626 11.4757 32.3901 9.95715C31.0086 9.07125 29.3308 8.73328 27.701 9.01261" stroke="#868686" stroke-width="1.3" stroke-linecap="round" stroke-linejoin="round"/>
<path d="M23.7209 27.888C23.635 28.8725 22.0769 29.5518 20.2387 29.3993C18.4004 29.2467 16.9769 28.3094 17.0666 27.3358C17.1562 26.3622 18.7105 25.6756 20.5488 25.8245C22.387 25.9735 23.8068 26.8998 23.7209 27.888Z" fill="#FFD1F6"/>
<path d="M41.8681 29.3882C41.7821 30.3763 40.2204 31.052 38.3821 30.8994C36.5439 30.7469 35.1241 29.8096 35.21 28.8396C35.2959 27.8696 36.8577 27.1757 38.696 27.3283C40.5342 27.4809 41.954 28.4037 41.8681 29.3882Z" fill="#FFD1F6"/>
<path d="M46.497 44.9108C46.3743 44.0958 45.9664 43.3507 45.3459 42.8082C44.7255 42.2656 43.9327 41.9608 43.1086 41.9479C42.3949 41.9428 41.6975 42.1605 41.1134 42.5705C40.7965 42.1603 40.3906 41.8274 39.9263 41.5968C39.4621 41.3663 38.9515 41.2441 38.4332 41.2396C37.7786 41.236 37.1365 41.4182 36.5813 41.7649C36.026 42.1116 35.5805 42.6087 35.2964 43.1984C34.387 43.0552 33.4576 43.2736 32.7072 43.807C31.9568 44.3403 31.4449 45.1462 31.2812 46.0522C31.1174 46.9581 31.3148 47.8922 31.831 48.6545C32.3472 49.4168 33.1413 49.9468 34.0433 50.131C34.2658 50.8226 34.6997 51.4269 35.2839 51.8589C35.868 52.2908 36.573 52.5286 37.2994 52.5387C37.9752 52.5467 38.6377 52.3514 39.2012 51.9783C39.5564 52.339 39.9872 52.6164 40.4625 52.7907C40.9379 52.9649 41.4459 53.0316 41.9501 52.9859C42.4543 52.9403 42.9421 52.7834 43.3784 52.5266C43.8147 52.2699 44.1886 51.9196 44.4733 51.5009C44.9755 51.7843 45.5416 51.9351 46.1182 51.9394C47.0099 51.9231 47.8623 51.5698 48.5041 50.9505C49.1458 50.3312 49.5292 49.4918 49.5772 48.6013C49.6252 47.7108 49.3342 46.8351 48.7628 46.1504C48.1913 45.4657 47.3818 45.0228 46.497 44.9108Z" fill="white" stroke="#868686" stroke-width="1.3" stroke-linecap="round" stroke-linejoin="round"/>
<path d="M35.9938 47.0383C35.9938 47.0383 36.876 44.7032 39.4134 45.2974L35.9938 47.0383Z" fill="white"/>
<path d="M35.9938 47.0383C35.9938 47.0383 36.876 44.7032 39.4134 45.2974" stroke="#868686" stroke-width="1.3" stroke-linecap="round" stroke-linejoin="round"/>
</svg>
