<svg width="325" height="180" viewBox="0 0 325 180" fill="none" xmlns="http://www.w3.org/2000/svg">
<mask id="mask0_1_596" style="mask-type:alpha" maskUnits="userSpaceOnUse" x="0" y="0" width="325" height="180">
<rect width="325" height="180" rx="16" fill="#FFEFB0"/>
</mask>
<g mask="url(#mask0_1_596)">
<rect width="325" height="180" rx="16" fill="#F9F7F2"/>
<rect x="130.285" y="-44.216" width="84.26" height="104.942" rx="14" transform="rotate(42.3777 130.285 -44.216)" fill="white"/>
<path d="M136.188 8.89415C142.287 14.2976 142.939 20.655 136.171 28.294L135.029 29.5828C131.965 33.0408 128.986 34.9465 126.074 35.5092L126.31 38.9166C126.385 40.1616 125.445 40.8433 124.2 40.9185C123.014 40.9902 121.998 40.4268 121.923 39.1817L121.662 35.3594C119.725 34.8219 117.753 33.6915 115.772 31.9367C109.674 26.5333 109.022 20.1759 115.79 12.5369L116.932 11.248C123.7 3.6091 130.09 3.49071 136.188 8.89415ZM132.93 12.5722C129.252 9.31338 125.75 9.4655 120.709 15.1554L120.124 15.8156C115.082 21.5055 115.353 24.9999 119.031 28.2587C119.848 28.9829 120.624 29.5013 121.297 29.8177L121.086 26.3196C121.011 25.0746 121.951 24.3929 123.137 24.3212C124.382 24.246 125.398 24.8094 125.473 26.0545L125.713 30.0268C127.4 29.3893 129.191 28.0017 131.252 25.6755L131.837 25.0153C136.878 19.3254 136.608 15.8309 132.93 12.5722Z" fill="#7C7CFB"/>
<rect x="209.28" y="22.4322" width="84.26" height="104.942" rx="14" transform="rotate(42.3777 209.28 22.4322)" fill="white"/>
<path d="M214.184 75.5011C220.283 80.9045 220.935 87.2619 214.167 94.9009L213.025 96.1898C209.961 99.6477 206.982 101.553 204.07 102.116L204.306 105.523C204.381 106.769 203.441 107.45 202.195 107.525C201.01 107.597 199.994 107.034 199.919 105.789L199.658 101.966C197.721 101.429 195.749 100.298 193.768 98.5436C187.67 93.1402 187.018 86.7828 193.786 79.1438L194.928 77.855C201.696 70.216 208.086 70.0976 214.184 75.5011ZM210.925 79.1791C207.247 75.9203 203.746 76.0724 198.705 81.7623L198.12 82.4225C193.078 88.1124 193.349 91.6069 197.027 94.8656C197.844 95.5898 198.619 96.1083 199.293 96.4246L199.082 92.9265C199.006 91.6815 199.947 90.9998 201.133 90.9282C202.378 90.8529 203.394 91.4163 203.469 92.6614L203.709 96.6337C205.396 95.9962 207.187 94.6086 209.248 92.2824L209.833 91.6222C214.874 85.9323 214.604 82.4379 210.925 79.1791Z" fill="#FAB0CF"/>
<circle cx="161.509" cy="56.6525" r="31.5" fill="#F9F7F2"/>
<path d="M178.304 66.9768C178.322 67.2808 178.251 67.5836 178.099 67.8476C177.947 68.1115 177.721 68.3251 177.449 68.4618C177.177 68.5984 176.87 68.6522 176.568 68.6164C176.265 68.5807 175.98 68.4569 175.747 68.2605L173.867 66.6285L173.745 66.7695C171.133 69.7778 167.37 71.7864 163.092 72.1108C160.107 72.3181 157.125 71.6613 154.504 70.2191C151.883 68.7768 149.732 66.6101 148.31 63.978C147.499 62.491 148.56 60.6511 150.252 60.5537C151.218 60.4854 152.072 61.0207 152.526 61.827C154.502 65.4377 158.416 67.7643 162.807 67.4541C165.88 67.2369 168.532 65.7479 170.362 63.5449L168.153 61.6273C167.095 60.7093 167.68 58.9913 169.064 58.9156L176.176 58.4131C177.055 58.351 177.783 58.9834 177.845 59.8615L178.304 66.9768ZM173.759 52.6054C173.298 52.6313 172.839 52.5253 172.436 52.2998C172.033 52.0743 171.703 51.7386 171.485 51.3321C169.509 47.7214 165.594 45.3948 161.204 45.705C158.131 45.9221 155.455 47.3907 153.645 49.5702L155.854 51.4879C156.912 52.4059 156.327 54.1238 154.943 54.1996L147.834 54.746C146.956 54.8081 146.227 54.1756 146.165 53.2976L145.663 46.1854C145.644 45.8813 145.715 45.5786 145.867 45.3146C146.019 45.0506 146.245 44.8371 146.518 44.7004C146.79 44.5637 147.096 44.5099 147.399 44.5457C147.701 44.5815 147.986 44.7053 148.219 44.9017L150.123 46.5541C152.728 43.458 156.505 41.338 160.875 41.0513C163.86 40.8441 166.841 41.5008 169.462 42.9431C172.084 44.3854 174.234 46.5521 175.657 49.1842C176.491 50.6916 175.45 52.5079 173.759 52.6054Z" fill="#87F0AE"/>
</g>
<path d="M0 108H325V164C325 172.837 317.837 180 309 180H16C7.16344 180 0 172.837 0 164V108Z" fill="#FFD83D"/>
<path d="M31.616 125.696C31.952 125.696 32.106 125.976 32.106 126.298C32.106 126.62 31.952 126.886 31.616 126.886H29.334V127.46C29.334 128.258 29.6 128.72 30.216 129.168C30.874 129.644 31.448 130.036 31.938 130.33C32.246 130.526 32.274 130.918 32.092 131.184C31.938 131.436 31.588 131.59 31.238 131.38C30.832 131.128 30.286 130.764 29.726 130.358C28.998 129.826 28.718 129.504 28.662 129.252H28.648C28.578 129.546 28.284 129.896 27.542 130.414C26.94 130.848 26.38 131.226 25.764 131.618C25.442 131.814 25.092 131.632 24.938 131.394C24.77 131.128 24.742 130.75 25.078 130.54C25.75 130.12 26.366 129.7 27.052 129.21C27.668 128.748 27.934 128.286 27.934 127.488V126.886H25.554C25.204 126.886 25.05 126.62 25.05 126.298C25.05 125.976 25.204 125.696 25.554 125.696H31.616ZM34.346 125.108C34.71 125.108 35.046 125.29 35.046 125.696V131.128C35.046 131.534 34.71 131.716 34.346 131.716C33.982 131.716 33.646 131.534 33.646 131.128V125.696C33.646 125.29 33.982 125.108 34.346 125.108ZM33.968 132.318C34.78 132.318 35.046 132.57 35.046 133.368V134.656C35.046 135.454 34.78 135.706 33.968 135.706H28.55C28.34 135.706 28.256 135.776 28.256 136V136.602C28.256 136.812 28.34 136.896 28.55 136.896H34.892C35.214 136.896 35.354 137.162 35.354 137.456C35.354 137.75 35.214 138.016 34.892 138.016H27.976C27.164 138.016 26.898 137.764 26.898 136.966V135.678C26.898 134.88 27.164 134.628 27.976 134.628H33.38C33.604 134.628 33.674 134.558 33.674 134.334V133.732C33.674 133.522 33.604 133.452 33.38 133.452H27.332C27.01 133.452 26.87 133.186 26.87 132.878C26.87 132.584 27.01 132.318 27.332 132.318H33.968ZM46.3042 125.598C47.1162 125.598 47.3822 125.85 47.3822 126.648V129.294C47.3822 130.092 47.1162 130.344 46.3042 130.344H39.9202C39.1082 130.344 38.8562 130.092 38.8562 129.294V126.648C38.8562 125.85 39.1082 125.598 39.9202 125.598H46.3042ZM40.5362 126.774C40.3122 126.774 40.2422 126.844 40.2422 127.068V128.874C40.2422 129.098 40.3122 129.168 40.5362 129.168H45.6882C45.9122 129.168 45.9822 129.098 45.9822 128.874V127.068C45.9822 126.844 45.9122 126.774 45.6882 126.774H40.5362ZM48.5022 131.618C48.8382 131.618 48.9922 131.884 48.9922 132.206C48.9922 132.514 48.8382 132.794 48.5022 132.794H43.9662V134.754C43.9662 135.118 43.6582 135.286 43.2662 135.286C42.8882 135.286 42.5802 135.118 42.5802 134.754V132.794H37.7222C37.3862 132.794 37.2322 132.514 37.2322 132.206C37.2322 131.884 37.3862 131.618 37.7222 131.618H48.5022ZM39.5282 133.928C39.8922 133.928 40.2282 134.11 40.2282 134.516V136.42C40.2282 136.63 40.3122 136.714 40.5222 136.714H47.1442C47.4802 136.714 47.6342 136.98 47.6342 137.302C47.6342 137.624 47.4802 137.904 47.1442 137.904H39.8922C39.0802 137.904 38.8282 137.652 38.8282 136.854V134.516C38.8282 134.11 39.1642 133.928 39.5282 133.928ZM55.8544 125.248C58.5424 125.248 60.1104 125.934 60.1104 127.488C60.1104 129.056 58.5424 129.742 55.8544 129.742C53.1664 129.742 51.5984 129.056 51.5984 127.488C51.5984 125.934 53.1664 125.248 55.8544 125.248ZM55.8544 126.354C53.8524 126.354 52.9844 126.76 52.9844 127.488C52.9844 128.216 53.8524 128.636 55.8544 128.636C57.8564 128.636 58.7244 128.216 58.7244 127.488C58.7244 126.76 57.8564 126.354 55.8544 126.354ZM61.2584 130.624C61.5804 130.624 61.7344 130.876 61.7344 131.184C61.7344 131.52 61.5804 131.772 61.2584 131.772H50.4504C50.1284 131.772 49.9744 131.52 49.9744 131.184C49.9744 130.876 50.1284 130.624 50.4504 130.624H61.2584ZM59.0604 132.85C59.8724 132.85 60.1384 133.102 60.1384 133.9V134.936C60.1384 135.734 59.8724 135.986 59.0604 135.986H53.1384C52.9844 135.986 52.9144 136.042 52.9144 136.196V136.77C52.9144 136.91 52.9844 136.98 53.1384 136.98H59.9844C60.2924 136.98 60.4464 137.246 60.4464 137.526C60.4464 137.82 60.2924 138.072 59.9844 138.072H52.6344C51.8224 138.072 51.5564 137.82 51.5564 137.022V135.986C51.5564 135.188 51.8224 134.936 52.6344 134.936H58.5564C58.7104 134.936 58.7804 134.866 58.7804 134.726V134.166C58.7804 134.012 58.7104 133.942 58.5564 133.942H51.9764C51.6684 133.942 51.5284 133.69 51.5284 133.396C51.5284 133.116 51.6684 132.85 51.9764 132.85H59.0604ZM67.3786 125.934C67.7286 125.934 68.0786 126.116 68.0786 126.522V128.93H71.3406V126.522C71.3406 126.116 71.6766 125.934 72.0266 125.934C72.3766 125.934 72.7126 126.116 72.7126 126.522V132.948C72.7126 133.746 72.4466 133.998 71.6346 133.998H67.7706C66.9586 133.998 66.6926 133.746 66.6926 132.948V126.522C66.6926 126.116 67.0286 125.934 67.3786 125.934ZM68.0786 132.514C68.0786 132.738 68.1486 132.808 68.3726 132.808H71.0466C71.2566 132.808 71.3406 132.738 71.3406 132.514V130.12H68.0786V132.514ZM75.4706 125.108C75.8346 125.108 76.1706 125.29 76.1706 125.696V129.336H77.7106C78.0746 129.336 78.2286 129.602 78.2286 129.938C78.2286 130.274 78.0746 130.554 77.7106 130.554H76.1706V136.616C76.1706 137.022 75.8346 137.204 75.4706 137.204C75.1066 137.204 74.7706 137.022 74.7706 136.616V125.696C74.7706 125.29 75.1066 125.108 75.4706 125.108ZM83.1028 125.514C83.9148 125.514 84.1668 125.766 84.1668 126.564V127.208C84.1668 128.174 84.0128 129.112 83.8028 129.868H87.4428C87.6528 129.014 87.7368 128.202 87.7368 127.348V127.012C87.7368 126.802 87.6528 126.732 87.4428 126.732H85.3288C84.9928 126.732 84.8388 126.452 84.8388 126.116C84.8388 125.794 84.9928 125.514 85.3288 125.514H88.0448C88.8568 125.514 89.1228 125.766 89.1228 126.564V127.208C89.1228 128.174 88.9828 129.098 88.7728 129.868H90.2428C90.5648 129.868 90.7188 130.12 90.7188 130.428C90.7188 130.764 90.5648 131.016 90.2428 131.016H85.5248V132.626H88.0448C88.8568 132.626 89.1228 132.878 89.1228 133.676V134.81C89.1228 135.608 88.8568 135.86 88.0448 135.86H82.1228C81.9688 135.86 81.8988 135.916 81.8988 136.07V136.728C81.8988 136.882 81.9688 136.938 82.1228 136.938H88.9688C89.2768 136.938 89.4308 137.204 89.4308 137.484C89.4308 137.778 89.2768 138.044 88.9688 138.044H81.6188C80.8068 138.044 80.5408 137.792 80.5408 136.994V135.86C80.5408 135.062 80.8068 134.81 81.6188 134.81H87.5408C87.6948 134.81 87.7648 134.74 87.7648 134.6V133.942C87.7648 133.802 87.6948 133.732 87.5408 133.732H80.9608C80.6528 133.732 80.5128 133.466 80.5128 133.172C80.5128 132.892 80.6528 132.626 80.9608 132.626H84.1528V131.016H79.4348C79.1128 131.016 78.9588 130.764 78.9588 130.428C78.9588 130.12 79.1128 129.868 79.4348 129.868H82.4588C82.6828 129.014 82.7948 128.202 82.7948 127.348V127.012C82.7948 126.802 82.7108 126.732 82.5008 126.732H80.3167C79.9808 126.732 79.8268 126.452 79.8268 126.116C79.8268 125.794 79.9808 125.514 80.3167 125.514H83.1028ZM101.081 125.43C101.459 125.43 101.795 125.612 101.795 126.032V126.732C101.795 127.628 102.243 128.244 103.139 128.72C104.091 129.224 104.931 129.63 105.701 129.994C106.023 130.134 106.037 130.554 105.911 130.82C105.771 131.114 105.449 131.282 105.113 131.128C104.203 130.708 103.349 130.288 102.523 129.854C101.557 129.336 101.165 128.874 101.095 128.538H101.081C100.997 128.916 100.605 129.364 99.6389 129.882C98.8129 130.316 97.9589 130.736 97.0489 131.156C96.7269 131.31 96.4049 131.142 96.2509 130.834C96.1109 130.554 96.1389 130.134 96.4609 129.994C97.2309 129.63 98.0709 129.224 99.0229 128.72C99.9189 128.244 100.367 127.628 100.367 126.732V126.032C100.367 125.612 100.703 125.43 101.081 125.43ZM106.471 132.472C106.807 132.472 106.961 132.752 106.961 133.074C106.961 133.396 106.807 133.662 106.471 133.662H101.781V137.596C101.781 138.002 101.445 138.184 101.081 138.184C100.717 138.184 100.381 138.002 100.381 137.596V133.662H95.6909C95.3549 133.662 95.2009 133.396 95.2009 133.074C95.2009 132.752 95.3549 132.472 95.6909 132.472H106.471ZM115.195 125.626C117.379 125.626 118.457 126.928 118.457 128.664C118.457 130.414 117.379 131.716 115.195 131.716C113.011 131.716 111.933 130.414 111.933 128.664C111.933 126.928 113.011 125.626 115.195 125.626ZM115.195 126.788C113.809 126.788 113.277 127.642 113.277 128.664C113.277 129.686 113.809 130.54 115.195 130.54C116.581 130.54 117.113 129.686 117.113 128.664C117.113 127.642 116.581 126.788 115.195 126.788ZM121.299 125.108C121.663 125.108 121.999 125.29 121.999 125.696V131.814C121.999 132.22 121.663 132.402 121.299 132.402C120.935 132.402 120.599 132.22 120.599 131.814V125.696C120.599 125.29 120.935 125.108 121.299 125.108ZM115.615 132.738C115.979 132.738 116.301 132.92 116.301 133.312V133.984C116.301 134.796 116.441 135.146 116.959 135.734C117.183 135.972 117.449 136.238 117.659 136.434C117.855 136.602 117.967 136.602 118.149 136.434C118.373 136.238 118.625 135.972 118.849 135.734C119.367 135.146 119.507 134.796 119.507 133.984V133.312C119.507 132.92 119.829 132.738 120.193 132.738C120.543 132.738 120.879 132.92 120.879 133.312V133.984C120.879 134.824 121.075 135.202 121.705 135.79C122.083 136.14 122.573 136.518 123.035 136.854C123.287 137.05 123.273 137.414 123.063 137.666C122.853 137.946 122.517 138.016 122.209 137.792C121.817 137.498 121.453 137.204 121.145 136.924C120.501 136.378 120.277 136.084 120.193 135.804H120.179C120.095 136.112 119.899 136.35 119.283 136.98C119.059 137.204 118.849 137.414 118.625 137.596C118.079 138.058 117.729 138.058 117.197 137.596C116.973 137.414 116.749 137.204 116.539 136.98C115.923 136.35 115.713 136.112 115.629 135.804H115.615C115.531 136.112 115.307 136.392 114.677 136.952C114.369 137.218 114.005 137.512 113.599 137.806C113.291 138.044 112.969 137.96 112.745 137.694C112.535 137.414 112.535 137.05 112.787 136.854C113.235 136.518 113.725 136.14 114.103 135.79C114.733 135.202 114.929 134.824 114.929 133.984V133.312C114.929 132.92 115.265 132.738 115.615 132.738ZM134.125 125.108C134.489 125.108 134.825 125.29 134.825 125.696V136.616C134.825 137.022 134.489 137.204 134.125 137.204C133.775 137.204 133.439 137.022 133.439 136.616V130.596H131.045C130.891 132.934 129.799 134.18 127.825 134.18C125.683 134.18 124.591 132.724 124.591 130.008C124.591 127.292 125.683 125.836 127.825 125.836C129.799 125.836 130.891 127.082 131.045 129.406H133.439V125.696C133.439 125.29 133.775 125.108 134.125 125.108ZM127.825 127.068C126.481 127.068 125.949 128.104 125.949 130.008C125.949 131.912 126.481 132.948 127.825 132.948C129.183 132.948 129.715 131.912 129.715 130.008C129.715 128.104 129.183 127.068 127.825 127.068ZM142.808 125.598C145.51 125.598 147.12 126.83 147.12 128.93C147.12 131.03 145.51 132.262 142.808 132.262C140.106 132.262 138.51 131.03 138.51 128.93C138.51 126.83 140.106 125.598 142.808 125.598ZM142.808 126.788C140.806 126.788 139.91 127.712 139.91 128.93C139.91 130.162 140.806 131.072 142.808 131.072C144.81 131.072 145.706 130.162 145.706 128.93C145.706 127.712 144.81 126.788 142.808 126.788ZM140.652 132.542C141.016 132.542 141.352 132.724 141.352 133.116V134.81H144.264V133.116C144.264 132.724 144.6 132.542 144.964 132.542C145.342 132.542 145.664 132.724 145.664 133.116V134.81H148.198C148.534 134.81 148.688 135.076 148.688 135.384C148.688 135.706 148.534 135.986 148.198 135.986H137.418C137.082 135.986 136.928 135.706 136.928 135.384C136.928 135.076 137.082 134.81 137.418 134.81H139.952V133.116C139.952 132.724 140.274 132.542 140.652 132.542Z" fill="white"/>
<path d="M34.388 149.822C34.626 149.822 34.738 150.032 34.738 150.27C34.738 150.508 34.626 150.718 34.388 150.718H30.888V150.956C30.888 152.02 31.154 152.482 32.204 153.042C33.17 153.546 34.024 153.966 34.92 154.372C35.13 154.484 35.186 154.764 35.074 154.988C34.948 155.212 34.71 155.324 34.5 155.226C33.576 154.806 32.792 154.428 31.896 153.952C30.804 153.378 30.454 152.986 30.384 152.65H30.37C30.3 153 29.95 153.392 28.858 153.966C27.962 154.442 27.164 154.82 26.254 155.24C26.044 155.338 25.792 155.226 25.666 155.002C25.554 154.764 25.596 154.484 25.82 154.372C26.716 153.966 27.57 153.546 28.536 153.042C29.586 152.482 29.852 152.02 29.852 150.956V150.718H26.352C26.114 150.718 26.002 150.508 26.002 150.27C26.002 150.032 26.114 149.822 26.352 149.822H34.388ZM35.844 156.612C36.096 156.612 36.208 156.808 36.208 157.06C36.208 157.298 36.096 157.494 35.844 157.494H30.888V161.708C30.888 162.002 30.636 162.128 30.37 162.128C30.118 162.128 29.866 162.002 29.866 161.708V157.494H24.896C24.644 157.494 24.532 157.298 24.532 157.06C24.532 156.808 24.644 156.612 24.896 156.612H35.844ZM47.2422 149.164C47.4942 149.164 47.7462 149.29 47.7462 149.584V160.728C47.7462 161.022 47.4942 161.148 47.2422 161.148C46.9762 161.148 46.7382 161.022 46.7382 160.728V154.442H44.0222C43.9102 156.822 42.8602 158.096 40.9002 158.096C38.8282 158.096 37.7502 156.668 37.7502 154.008C37.7502 151.348 38.8282 149.92 40.9002 149.92C42.8462 149.92 43.9102 151.194 44.0222 153.56H46.7382V149.584C46.7382 149.29 46.9762 149.164 47.2422 149.164ZM40.9002 150.83C39.4022 150.83 38.7582 151.978 38.7582 154.008C38.7582 156.038 39.4022 157.186 40.9002 157.186C42.3982 157.186 43.0422 156.038 43.0422 154.008C43.0422 151.978 42.3982 150.83 40.9002 150.83ZM57.2404 150.032C57.4784 150.032 57.5904 150.228 57.5904 150.48C57.5904 150.718 57.4784 150.928 57.2404 150.928H54.6644V151.922C54.6644 152.916 55.0004 153.588 55.7284 154.204C56.3584 154.736 57.0444 155.268 57.4924 155.59C57.7304 155.758 57.7304 156.024 57.5764 156.234C57.4364 156.43 57.1704 156.5 56.9324 156.332C56.4984 156.024 55.9384 155.59 55.2944 155.058C54.5524 154.456 54.2304 154.008 54.1604 153.7H54.1464C54.0764 154.022 53.7404 154.484 52.9984 155.086C52.3684 155.618 51.7104 156.122 51.1364 156.528C50.8984 156.696 50.6464 156.612 50.5064 156.43C50.3524 156.22 50.3244 155.94 50.5764 155.772C51.1924 155.324 51.9344 154.75 52.5644 154.218C53.2924 153.602 53.6284 152.93 53.6284 151.936V150.928H50.9684C50.7304 150.928 50.6184 150.718 50.6184 150.48C50.6184 150.228 50.7304 150.032 50.9684 150.032H57.2404ZM59.9004 149.164C60.1524 149.164 60.4044 149.29 60.4044 149.584V158.124C60.4044 158.418 60.1524 158.544 59.9004 158.544C59.6344 158.544 59.3824 158.418 59.3824 158.124V149.584C59.3824 149.29 59.6344 149.164 59.9004 149.164ZM52.9844 157.452C53.2504 157.452 53.5024 157.578 53.5024 157.872V160.616C53.5024 160.798 53.5724 160.868 53.7684 160.868H60.4044C60.6564 160.868 60.7684 161.078 60.7684 161.316C60.7684 161.554 60.6564 161.764 60.4044 161.764H53.4324C52.7044 161.764 52.4664 161.54 52.4664 160.826V157.872C52.4664 157.578 52.7184 157.452 52.9844 157.452ZM73.4826 149.78C73.7206 149.78 73.8326 149.976 73.8326 150.214C73.8326 150.466 73.7206 150.662 73.4826 150.662H70.9066V151.488C70.9066 152.356 71.2006 152.86 71.8726 153.35C72.5446 153.84 73.2026 154.26 73.7066 154.582C73.9306 154.722 73.9726 155.002 73.8326 155.212C73.7066 155.394 73.4546 155.492 73.2166 155.338C72.7686 155.072 72.1386 154.652 71.5226 154.218C70.7526 153.672 70.4726 153.294 70.4026 153.042H70.3886C70.3326 153.322 70.0246 153.7 69.2686 154.246C68.6106 154.722 67.9526 155.156 67.3086 155.534C67.0706 155.688 66.8326 155.576 66.7066 155.38C66.5806 155.198 66.5806 154.904 66.8186 154.764C67.5186 154.33 68.2046 153.882 68.9046 153.364C69.5766 152.874 69.8706 152.384 69.8706 151.516V150.662H67.2106C66.9726 150.662 66.8606 150.466 66.8606 150.214C66.8606 149.976 66.9726 149.78 67.2106 149.78H73.4826ZM76.1286 149.164C76.3946 149.164 76.6466 149.29 76.6466 149.584V155.296C76.6466 155.59 76.3946 155.716 76.1286 155.716C75.8766 155.716 75.6246 155.59 75.6246 155.296V149.584C75.6246 149.29 75.8766 149.164 76.1286 149.164ZM75.6806 156.416C76.4086 156.416 76.6466 156.64 76.6466 157.354V158.642C76.6466 159.356 76.4086 159.58 75.6806 159.58H69.9966C69.8146 159.58 69.7306 159.636 69.7306 159.832V160.826C69.7306 161.022 69.8146 161.092 69.9966 161.092H76.6466C76.8706 161.092 76.9826 161.288 76.9826 161.512C76.9826 161.736 76.8706 161.932 76.6466 161.932H69.7026C68.9746 161.932 68.7366 161.708 68.7366 160.994V159.692C68.7366 158.978 68.9746 158.754 69.7026 158.754H75.3866C75.5826 158.754 75.6526 158.698 75.6526 158.502V157.508C75.6526 157.326 75.5826 157.256 75.3866 157.256H69.0446C68.8206 157.256 68.7086 157.06 68.7086 156.836C68.7086 156.612 68.8206 156.416 69.0446 156.416H75.6806ZM88.0168 149.682C88.7448 149.682 88.9828 149.906 88.9828 150.62V153.322C88.9828 154.036 88.7448 154.26 88.0168 154.26H81.6608C80.9328 154.26 80.6948 154.036 80.6948 153.322V150.62C80.6948 149.906 80.9328 149.682 81.6608 149.682H88.0168ZM81.9688 150.55C81.7728 150.55 81.7028 150.606 81.7028 150.802V153.14C81.7028 153.336 81.7728 153.392 81.9688 153.392H87.7088C87.9048 153.392 87.9748 153.336 87.9748 153.14V150.802C87.9748 150.606 87.9048 150.55 87.7088 150.55H81.9688ZM90.3268 155.758C90.5648 155.758 90.6768 155.954 90.6768 156.192C90.6768 156.43 90.5648 156.626 90.3268 156.626H85.4828V158.88C85.4828 159.16 85.2588 159.272 84.9788 159.272C84.7128 159.272 84.4748 159.16 84.4748 158.88V156.626H79.3508C79.1128 156.626 79.0008 156.43 79.0008 156.192C79.0008 155.954 79.1128 155.758 79.3508 155.758H90.3268ZM81.1848 157.984C81.4508 157.984 81.6888 158.11 81.6888 158.404V160.686C81.6888 160.882 81.7728 160.952 81.9548 160.952H88.8988C89.1368 160.952 89.2488 161.148 89.2488 161.386C89.2488 161.624 89.1368 161.82 88.8988 161.82H81.6328C80.9048 161.82 80.6668 161.596 80.6668 160.882V158.404C80.6668 158.11 80.9048 157.984 81.1848 157.984ZM95.4949 149.906C97.5949 149.906 98.6729 151.348 98.6729 154.008C98.6729 156.668 97.5949 158.11 95.4949 158.11C93.3949 158.11 92.3029 156.668 92.3029 154.008C92.3029 151.348 93.3949 149.906 95.4949 149.906ZM95.4949 150.816C93.9689 150.816 93.3109 151.978 93.3109 154.008C93.3109 156.038 93.9689 157.2 95.4949 157.2C97.0209 157.2 97.6789 156.038 97.6789 154.008C97.6789 151.978 97.0209 150.816 95.4949 150.816ZM101.613 149.164C101.879 149.164 102.131 149.29 102.131 149.584V160.728C102.131 161.022 101.879 161.148 101.613 161.148C101.361 161.148 101.109 161.022 101.109 160.728V149.584C101.109 149.29 101.361 149.164 101.613 149.164ZM111.443 149.92C113.529 149.92 114.607 151.348 114.607 154.008C114.607 156.668 113.529 158.096 111.443 158.096C109.357 158.096 108.265 156.668 108.265 154.008C108.265 151.348 109.357 149.92 111.443 149.92ZM111.443 150.83C109.931 150.83 109.273 151.978 109.273 154.008C109.273 156.038 109.931 157.186 111.443 157.186C112.955 157.186 113.613 156.038 113.613 154.008C113.613 151.978 112.955 150.83 111.443 150.83ZM117.253 149.164C117.519 149.164 117.771 149.29 117.771 149.584V153.49H119.549C119.801 153.49 119.913 153.7 119.913 153.938C119.913 154.19 119.801 154.4 119.549 154.4H117.771V160.728C117.771 161.022 117.519 161.148 117.253 161.148C117.001 161.148 116.749 161.022 116.749 160.728V149.584C116.749 149.29 117.001 149.164 117.253 149.164ZM122.141 149.878C122.421 149.878 122.659 150.004 122.659 150.298V154.722C122.659 154.904 122.743 154.974 122.925 154.974C125.081 154.974 126.747 154.876 128.413 154.638C128.637 154.61 128.791 154.778 128.833 155.016C128.861 155.268 128.763 155.506 128.539 155.534C127.083 155.744 125.347 155.87 122.603 155.87C121.875 155.87 121.637 155.646 121.637 154.932V150.298C121.637 150.004 121.875 149.878 122.141 149.878ZM130.611 149.164C130.863 149.164 131.115 149.29 131.115 149.584V158.124C131.115 158.418 130.863 158.544 130.611 158.544C130.345 158.544 130.093 158.418 130.093 158.124V149.584C130.093 149.29 130.345 149.164 130.611 149.164ZM123.695 157.452C123.961 157.452 124.213 157.578 124.213 157.872V160.616C124.213 160.798 124.283 160.868 124.479 160.868H131.115C131.367 160.868 131.479 161.078 131.479 161.316C131.479 161.554 131.367 161.764 131.115 161.764H124.143C123.415 161.764 123.177 161.54 123.177 160.826V157.872C123.177 157.578 123.429 157.452 123.695 157.452ZM140.148 149.906C140.414 149.906 140.666 150.032 140.666 150.326V152.58C140.666 153.784 140.876 154.414 141.576 155.254C142.108 155.898 142.64 156.486 143.074 156.948C143.242 157.13 143.228 157.424 143.032 157.592C142.864 157.746 142.584 157.774 142.388 157.564C142.066 157.242 141.576 156.696 141.086 156.122C140.4 155.31 140.218 154.918 140.176 154.624H140.162C140.106 154.932 139.938 155.324 139.238 156.15C138.748 156.724 138.23 157.284 137.754 157.788C137.544 157.998 137.25 157.942 137.096 157.788C136.914 157.62 136.872 157.326 137.068 157.13C137.628 156.542 138.202 155.898 138.734 155.254C139.448 154.414 139.644 153.784 139.644 152.58V150.326C139.644 150.032 139.896 149.906 140.148 149.906ZM147.274 149.164C147.526 149.164 147.764 149.29 147.764 149.57V160.742C147.764 161.022 147.526 161.148 147.274 161.148C147.036 161.148 146.798 161.022 146.798 160.742V154.442H144.936V160.154C144.936 160.434 144.698 160.56 144.446 160.56C144.208 160.56 143.97 160.434 143.97 160.154V149.71C143.97 149.43 144.208 149.304 144.446 149.304C144.698 149.304 144.936 149.43 144.936 149.71V153.56H146.798V149.57C146.798 149.29 147.036 149.164 147.274 149.164ZM158.7 149.92C159.428 149.92 159.666 150.144 159.666 150.858V152.678C159.666 153.392 159.428 153.616 158.7 153.616H152.694C152.498 153.616 152.428 153.686 152.428 153.882V155.352C152.428 155.534 152.498 155.604 152.694 155.604H159.652C159.89 155.604 160.002 155.8 160.002 156.038C160.002 156.276 159.89 156.486 159.652 156.486H156.068V158.964H161.024C161.276 158.964 161.388 159.16 161.388 159.412C161.388 159.65 161.276 159.846 161.024 159.846H150.076C149.824 159.846 149.712 159.65 149.712 159.412C149.712 159.16 149.824 158.964 150.076 158.964H155.046V156.486H152.386C151.658 156.486 151.42 156.262 151.42 155.548V153.714C151.42 153 151.658 152.776 152.386 152.776H158.406C158.588 152.776 158.672 152.706 158.672 152.51V151.054C158.672 150.858 158.588 150.788 158.406 150.788H151.742C151.504 150.788 151.392 150.592 151.392 150.354C151.392 150.116 151.504 149.92 151.742 149.92H158.7ZM168.292 149.486C170.938 149.486 172.436 150.326 172.436 151.978C172.436 153.63 170.938 154.47 168.292 154.47C165.646 154.47 164.148 153.63 164.148 151.978C164.148 150.326 165.646 149.486 168.292 149.486ZM168.292 150.34C166.164 150.34 165.17 150.956 165.17 151.978C165.17 153 166.164 153.616 168.292 153.616C170.42 153.616 171.414 153 171.414 151.978C171.414 150.956 170.42 150.34 168.292 150.34ZM173.78 155.758C174.018 155.758 174.13 155.954 174.13 156.192C174.13 156.43 174.018 156.626 173.78 156.626H168.936V158.88C168.936 159.16 168.712 159.272 168.432 159.272C168.166 159.272 167.928 159.16 167.928 158.88V156.626H162.804C162.566 156.626 162.454 156.43 162.454 156.192C162.454 155.954 162.566 155.758 162.804 155.758H173.78ZM164.638 157.984C164.904 157.984 165.142 158.11 165.142 158.404V160.686C165.142 160.882 165.226 160.952 165.408 160.952H172.352C172.59 160.952 172.702 161.148 172.702 161.386C172.702 161.624 172.59 161.82 172.352 161.82H165.086C164.358 161.82 164.12 161.596 164.12 160.882V158.404C164.12 158.11 164.358 157.984 164.638 157.984ZM185.92 149.78C186.158 149.78 186.27 149.976 186.27 150.214C186.27 150.466 186.158 150.662 185.92 150.662H183.344V151.488C183.344 152.356 183.638 152.86 184.31 153.35C184.982 153.84 185.64 154.26 186.144 154.582C186.368 154.722 186.41 155.002 186.27 155.212C186.144 155.394 185.892 155.492 185.654 155.338C185.206 155.072 184.576 154.652 183.96 154.218C183.19 153.672 182.91 153.294 182.84 153.042H182.826C182.77 153.322 182.462 153.7 181.706 154.246C181.048 154.722 180.39 155.156 179.746 155.534C179.508 155.688 179.27 155.576 179.144 155.38C179.018 155.198 179.018 154.904 179.256 154.764C179.956 154.33 180.642 153.882 181.342 153.364C182.014 152.874 182.308 152.384 182.308 151.516V150.662H179.648C179.41 150.662 179.298 150.466 179.298 150.214C179.298 149.976 179.41 149.78 179.648 149.78H185.92ZM188.566 149.164C188.832 149.164 189.084 149.29 189.084 149.584V155.296C189.084 155.59 188.832 155.716 188.566 155.716C188.314 155.716 188.062 155.59 188.062 155.296V149.584C188.062 149.29 188.314 149.164 188.566 149.164ZM188.118 156.416C188.846 156.416 189.084 156.64 189.084 157.354V158.642C189.084 159.356 188.846 159.58 188.118 159.58H182.434C182.252 159.58 182.168 159.636 182.168 159.832V160.826C182.168 161.022 182.252 161.092 182.434 161.092H189.084C189.308 161.092 189.42 161.288 189.42 161.512C189.42 161.736 189.308 161.932 189.084 161.932H182.14C181.412 161.932 181.174 161.708 181.174 160.994V159.692C181.174 158.978 181.412 158.754 182.14 158.754H187.824C188.02 158.754 188.09 158.698 188.09 158.502V157.508C188.09 157.326 188.02 157.256 187.824 157.256H181.482C181.258 157.256 181.146 157.06 181.146 156.836C181.146 156.612 181.258 156.416 181.482 156.416H188.118ZM200.454 149.682C201.182 149.682 201.42 149.906 201.42 150.62V153.322C201.42 154.036 201.182 154.26 200.454 154.26H194.098C193.37 154.26 193.132 154.036 193.132 153.322V150.62C193.132 149.906 193.37 149.682 194.098 149.682H200.454ZM194.406 150.55C194.21 150.55 194.14 150.606 194.14 150.802V153.14C194.14 153.336 194.21 153.392 194.406 153.392H200.146C200.342 153.392 200.412 153.336 200.412 153.14V150.802C200.412 150.606 200.342 150.55 200.146 150.55H194.406ZM202.764 155.758C203.002 155.758 203.114 155.954 203.114 156.192C203.114 156.43 203.002 156.626 202.764 156.626H197.92V158.88C197.92 159.16 197.696 159.272 197.416 159.272C197.15 159.272 196.912 159.16 196.912 158.88V156.626H191.788C191.55 156.626 191.438 156.43 191.438 156.192C191.438 155.954 191.55 155.758 191.788 155.758H202.764ZM193.622 157.984C193.888 157.984 194.126 158.11 194.126 158.404V160.686C194.126 160.882 194.21 160.952 194.392 160.952H201.336C201.574 160.952 201.686 161.148 201.686 161.386C201.686 161.624 201.574 161.82 201.336 161.82H194.07C193.342 161.82 193.104 161.596 193.104 160.882V158.404C193.104 158.11 193.342 157.984 193.622 157.984ZM210.018 149.738C212.692 149.738 214.204 151.012 214.204 153.07C214.204 155.142 212.692 156.416 210.018 156.416C207.344 156.416 205.832 155.142 205.832 153.07C205.832 151.012 207.344 149.738 210.018 149.738ZM210.018 150.606C207.876 150.606 206.854 151.656 206.854 153.07C206.854 154.484 207.876 155.534 210.018 155.534C212.16 155.534 213.182 154.484 213.182 153.07C213.182 151.656 212.16 150.606 210.018 150.606ZM215.492 158.95C215.744 158.95 215.856 159.16 215.856 159.412C215.856 159.65 215.744 159.846 215.492 159.846H204.544C204.292 159.846 204.18 159.65 204.18 159.412C204.18 159.16 204.292 158.95 204.544 158.95H215.492ZM225.911 149.92C226.639 149.92 226.877 150.144 226.877 150.858V152.678C226.877 153.392 226.639 153.616 225.911 153.616H219.905C219.709 153.616 219.639 153.686 219.639 153.882V155.352C219.639 155.534 219.709 155.604 219.905 155.604H226.863C227.101 155.604 227.213 155.8 227.213 156.038C227.213 156.276 227.101 156.486 226.863 156.486H223.279V158.964H228.235C228.487 158.964 228.599 159.16 228.599 159.412C228.599 159.65 228.487 159.846 228.235 159.846H217.287C217.035 159.846 216.923 159.65 216.923 159.412C216.923 159.16 217.035 158.964 217.287 158.964H222.257V156.486H219.597C218.869 156.486 218.631 156.262 218.631 155.548V153.714C218.631 153 218.869 152.776 219.597 152.776H225.617C225.799 152.776 225.883 152.706 225.883 152.51V151.054C225.883 150.858 225.799 150.788 225.617 150.788H218.953C218.715 150.788 218.603 150.592 218.603 150.354C218.603 150.116 218.715 149.92 218.953 149.92H225.911ZM237.141 149.696C237.407 149.696 237.659 149.822 237.659 150.116V151.754C237.659 152.706 237.925 153.392 238.639 154.008C239.339 154.596 239.913 155.058 240.445 155.45C240.683 155.632 240.669 155.926 240.529 156.108C240.375 156.304 240.123 156.388 239.885 156.206C239.395 155.856 238.821 155.394 238.163 154.834C237.463 154.246 237.225 153.854 237.155 153.56H237.141C237.071 153.868 236.833 154.274 236.119 154.876C235.461 155.436 234.789 155.968 234.159 156.416C233.921 156.598 233.669 156.5 233.515 156.304C233.375 156.122 233.347 155.828 233.585 155.646C234.271 155.156 234.943 154.624 235.629 154.022C236.343 153.406 236.623 152.734 236.623 151.782V150.116C236.623 149.822 236.861 149.696 237.141 149.696ZM243.133 149.164C243.385 149.164 243.637 149.29 243.637 149.584V158.124C243.637 158.418 243.385 158.544 243.133 158.544C242.867 158.544 242.629 158.418 242.629 158.124V153H240.123C239.885 153 239.773 152.804 239.773 152.552C239.773 152.314 239.885 152.104 240.123 152.104H242.629V149.584C242.629 149.29 242.867 149.164 243.133 149.164ZM236.161 157.452C236.427 157.452 236.679 157.578 236.679 157.872V160.616C236.679 160.798 236.749 160.868 236.945 160.868H243.637C243.889 160.868 244.001 161.078 244.001 161.316C244.001 161.554 243.889 161.764 243.637 161.764H236.609C235.881 161.764 235.643 161.54 235.643 160.826V157.872C235.643 157.578 235.895 157.452 236.161 157.452ZM251.073 149.906C251.311 149.906 251.423 150.102 251.423 150.34C251.423 150.578 251.311 150.774 251.073 150.774H247.615C247.433 150.774 247.349 150.844 247.349 151.04V152.552H250.863C251.101 152.552 251.213 152.762 251.213 152.986C251.213 153.21 251.101 153.406 250.863 153.406H247.349V154.974C247.349 155.17 247.433 155.24 247.615 155.24C248.973 155.24 250.583 155.142 251.647 154.974C251.857 154.946 252.011 155.114 252.053 155.352C252.081 155.604 251.983 155.828 251.759 155.856C250.919 155.996 249.253 156.108 247.321 156.108C246.593 156.108 246.355 155.884 246.355 155.17V150.844C246.355 150.13 246.593 149.906 247.321 149.906H251.073ZM256.211 149.164C256.463 149.164 256.701 149.29 256.701 149.57V156.542C256.701 156.822 256.463 156.934 256.211 156.934C255.973 156.934 255.735 156.822 255.735 156.542V153.392H253.873V156.472C253.873 156.752 253.635 156.864 253.383 156.864C253.145 156.864 252.907 156.752 252.907 156.472V149.64C252.907 149.36 253.145 149.234 253.383 149.234C253.635 149.234 253.873 149.36 253.873 149.64V152.51H255.735V149.57C255.735 149.29 255.973 149.164 256.211 149.164ZM255.735 157.648C256.463 157.648 256.701 157.872 256.701 158.586V161.652C256.701 161.946 256.449 162.072 256.183 162.072C255.931 162.072 255.679 161.946 255.679 161.652V158.782C255.679 158.6 255.609 158.53 255.413 158.53H248.511C248.273 158.53 248.161 158.334 248.161 158.096C248.161 157.844 248.273 157.648 248.511 157.648H255.735ZM261.827 153.014C263.549 153.014 264.403 154.176 264.403 155.66C264.403 157.144 263.549 158.306 261.827 158.306C260.105 158.306 259.265 157.144 259.265 155.66C259.265 154.176 260.105 153.014 261.827 153.014ZM261.827 149.248C262.079 149.248 262.331 149.374 262.331 149.668V151.082H264.627C264.879 151.082 264.991 151.278 264.991 151.516C264.991 151.768 264.879 151.964 264.627 151.964H258.859C258.621 151.964 258.509 151.768 258.509 151.516C258.509 151.278 258.621 151.082 258.859 151.082H261.323V149.668C261.323 149.374 261.575 149.248 261.827 149.248ZM261.827 153.882C260.693 153.882 260.175 154.666 260.175 155.66C260.175 156.668 260.693 157.452 261.827 157.452C262.975 157.452 263.493 156.668 263.493 155.66C263.493 154.666 262.975 153.882 261.827 153.882ZM268.953 149.164C269.205 149.164 269.443 149.29 269.443 149.57V160.742C269.443 161.022 269.205 161.148 268.953 161.148C268.715 161.148 268.477 161.022 268.477 160.742V154.582H266.643V160.154C266.643 160.434 266.405 160.56 266.153 160.56C265.915 160.56 265.677 160.434 265.677 160.154V149.71C265.677 149.43 265.915 149.304 266.153 149.304C266.405 149.304 266.643 149.43 266.643 149.71V153.7H268.477V149.57C268.477 149.29 268.715 149.164 268.953 149.164ZM277.229 149.682C279.903 149.682 281.415 150.914 281.415 152.93C281.415 154.946 279.903 156.178 277.229 156.178C274.555 156.178 273.043 154.946 273.043 152.93C273.043 150.914 274.555 149.682 277.229 149.682ZM277.229 150.55C275.087 150.55 274.065 151.558 274.065 152.93C274.065 154.288 275.087 155.296 277.229 155.296C279.371 155.296 280.393 154.288 280.393 152.93C280.393 151.558 279.371 150.55 277.229 150.55ZM275.003 156.5C275.283 156.5 275.521 156.626 275.521 156.92V158.978H278.937V156.92C278.937 156.626 279.175 156.5 279.441 156.5C279.707 156.5 279.959 156.626 279.959 156.92V158.978H282.717C282.955 158.978 283.067 159.174 283.067 159.412C283.067 159.65 282.955 159.846 282.717 159.846H271.741C271.503 159.846 271.391 159.65 271.391 159.412C271.391 159.174 271.503 158.978 271.741 158.978H274.499V156.92C274.499 156.626 274.751 156.5 275.003 156.5Z" fill="white"/>
</svg>
