<svg width="251" height="220" viewBox="0 0 251 220" fill="none" xmlns="http://www.w3.org/2000/svg">
<rect x="92" y="88" width="67" height="37" rx="15" fill="#FFFDFA"/>
<g filter="url(#filter0_d_1321_108)">
<path d="M151.809 111.351C151.697 111.251 151.548 111.198 151.397 111.206C151.245 111.213 151.103 111.279 151.001 111.39C150.299 112.155 149.45 112.43 148.669 112.155C148.283 112.013 147.95 111.758 147.713 111.425C148.109 111.38 148.49 111.251 148.83 111.047C149.171 110.843 149.463 110.569 149.686 110.243C150.288 109.36 150.34 108.098 149.811 107.243C149.693 107.047 149.535 106.878 149.346 106.747C149.157 106.616 148.941 106.527 148.715 106.485C148.461 106.445 148.202 106.457 147.953 106.523C147.705 106.588 147.474 106.705 147.274 106.864C146.45 107.498 145.979 108.688 146.046 109.969C146.128 111.5 147.002 112.781 148.282 113.231C148.599 113.342 148.933 113.398 149.27 113.397C150.19 113.397 151.107 112.966 151.852 112.155C151.903 112.099 151.942 112.034 151.967 111.964C151.992 111.894 152.003 111.819 151.999 111.744C151.995 111.67 151.977 111.597 151.944 111.529C151.911 111.462 151.866 111.401 151.809 111.351ZM147.278 110.302H147.242C147.218 110.171 147.203 110.039 147.196 109.906C147.15 109.019 147.464 108.156 147.98 107.759C148.053 107.699 148.137 107.654 148.228 107.626C148.319 107.599 148.414 107.59 148.509 107.601C148.576 107.615 148.639 107.643 148.694 107.684C148.749 107.725 148.794 107.777 148.826 107.837C149.117 108.307 149.073 109.101 148.729 109.607C148.572 109.834 148.359 110.016 148.111 110.138C147.862 110.26 147.586 110.316 147.309 110.302H147.278Z" fill="#B3B9B5"/>
<path d="M144.081 106.764C143.901 106.629 143.691 106.539 143.468 106.502C143.245 106.465 143.016 106.482 142.801 106.552C142.39 106.7 142.043 106.982 141.817 107.352C141.59 106.982 141.243 106.7 140.832 106.552C140.617 106.482 140.388 106.464 140.165 106.501C139.941 106.538 139.73 106.628 139.55 106.764C138.617 107.434 138.474 108.627 138.379 109.416C138.259 110.425 138.142 111.618 138.192 112.827C138.198 112.974 138.261 113.113 138.368 113.215C138.476 113.316 138.618 113.373 138.767 113.373H138.79C138.866 113.37 138.94 113.353 139.008 113.321C139.077 113.29 139.139 113.246 139.19 113.191C139.241 113.136 139.281 113.072 139.307 113.002C139.333 112.931 139.345 112.857 139.342 112.782C139.295 111.652 139.407 110.515 139.523 109.552C139.617 108.767 139.743 108.034 140.227 107.685C140.259 107.655 140.299 107.634 140.342 107.625C140.385 107.616 140.43 107.619 140.471 107.634C140.661 107.696 140.872 107.942 140.952 108.195C141.032 108.448 141.053 108.944 141.073 109.384C141.1 109.99 141.125 110.561 141.273 110.979C141.313 111.091 141.386 111.187 141.483 111.256C141.581 111.324 141.697 111.361 141.816 111.361C141.936 111.361 142.052 111.324 142.149 111.256C142.247 111.187 142.32 111.091 142.359 110.979C142.506 110.561 142.533 109.99 142.56 109.385C142.58 108.944 142.602 108.444 142.681 108.195C142.76 107.946 142.975 107.696 143.162 107.634C143.203 107.619 143.248 107.616 143.292 107.625C143.335 107.635 143.375 107.655 143.407 107.685C143.893 108.034 144.017 108.767 144.111 109.552C144.226 110.515 144.338 111.652 144.292 112.782C144.289 112.857 144.3 112.931 144.327 113.002C144.353 113.072 144.392 113.136 144.444 113.191C144.495 113.246 144.556 113.29 144.625 113.321C144.693 113.353 144.768 113.37 144.843 113.373H144.866C145.015 113.373 145.158 113.316 145.265 113.215C145.372 113.113 145.435 112.974 145.441 112.827C145.491 111.618 145.374 110.425 145.254 109.416C145.157 108.627 145.014 107.434 144.081 106.764Z" fill="#B3B9B5"/>
<path d="M105.835 110.874C105.763 110.848 105.688 110.837 105.612 110.841C105.536 110.845 105.462 110.864 105.394 110.896C105.326 110.929 105.264 110.974 105.214 111.03C105.163 111.086 105.125 111.151 105.1 111.222C105.013 111.457 104.871 111.668 104.687 111.839C104.502 112.01 104.28 112.136 104.037 112.206C103.809 112.272 103.568 112.283 103.336 112.236C103.103 112.189 102.885 112.086 102.701 111.937C102.579 111.836 102.483 111.708 102.421 111.563C102.358 111.419 102.331 111.262 102.341 111.105C102.387 109.55 102.67 108.071 103.042 106.584C102.661 106.527 102.28 106.47 101.899 106.411C101.524 107.928 101.238 109.447 101.191 111.071C101.174 111.406 101.238 111.74 101.376 112.045C101.515 112.351 101.724 112.62 101.988 112.831C102.315 113.092 102.702 113.271 103.114 113.352C103.527 113.434 103.953 113.415 104.357 113.299C104.776 113.179 105.16 112.963 105.478 112.668C105.796 112.372 106.038 112.006 106.185 111.6C106.236 111.458 106.227 111.301 106.162 111.165C106.096 111.029 105.978 110.924 105.835 110.874Z" fill="#B3B9B5"/>
<path d="M104.779 105.938C105.991 105.879 107.177 105.573 108.263 105.04C108.835 104.753 109.414 104.408 109.677 103.648C109.762 103.389 109.777 103.114 109.722 102.848C109.347 102.925 108.971 102.999 108.595 103.07C108.61 103.139 108.608 103.211 108.588 103.28C108.474 103.61 108.221 103.784 107.741 104.027C106.798 104.484 105.772 104.748 104.724 104.801C104.325 104.82 103.926 104.815 103.528 104.785C103.586 104.579 103.643 104.372 103.703 104.164C103.809 103.789 103.917 103.408 104.024 103.022C104.479 101.363 105.459 100.116 107.196 98.9738C108.357 98.2112 109.487 97.4406 110.566 96.401C110.753 96.22 110.886 96.1567 110.942 96.1415C110.99 96.2516 111.012 96.3712 111.007 96.4911C111.003 97.8215 109.908 99.0029 108.512 99.181C108.437 99.1905 108.365 99.2146 108.299 99.2517C108.234 99.2889 108.176 99.3385 108.13 99.3976C108.084 99.4567 108.05 99.5243 108.03 99.5964C108.011 99.6685 108.005 99.7437 108.015 99.8178C108.025 99.8919 108.049 99.9634 108.087 100.028C108.124 100.093 108.174 100.15 108.234 100.195C108.294 100.241 108.362 100.275 108.435 100.294C108.508 100.314 108.584 100.319 108.659 100.309C110.616 100.061 112.153 98.3856 112.159 96.4948C112.159 95.6951 111.764 95.1135 111.149 95.0146C110.708 94.9419 110.225 95.1411 109.763 95.5868C108.754 96.5566 107.672 97.2945 106.562 98.0258C104.601 99.3133 103.441 100.804 102.911 102.718C102.804 103.102 102.697 103.48 102.592 103.854C102.518 104.116 102.445 104.374 102.371 104.632C101.421 104.453 100.544 104.146 99.8718 103.73C99.7426 103.653 99.588 103.629 99.4414 103.664C99.2948 103.699 99.1678 103.789 99.0878 103.916C99.0077 104.042 98.981 104.194 99.0134 104.34C99.0458 104.486 99.1347 104.613 99.261 104.694C100.552 105.494 102.372 105.948 104.219 105.948C104.405 105.952 104.592 105.948 104.779 105.938Z" fill="#B3B9B5"/>
<path d="M109.858 100.989C109.544 101.21 109.18 101.352 108.798 101.405C108.379 101.477 107.954 101.474 107.489 101.477C107.336 101.477 107.19 101.537 107.082 101.644C106.974 101.751 106.914 101.896 106.914 102.047C106.914 102.198 106.974 102.342 107.082 102.449C107.19 102.556 107.336 102.616 107.489 102.616H107.58C108.05 102.626 108.521 102.596 108.987 102.527C109.611 102.424 110.139 102.21 110.558 101.891C111.1 101.479 111.432 100.888 111.445 100.311C111.45 100.067 111.396 99.8257 111.287 99.6069C110.956 99.8178 110.623 100.027 110.288 100.234C110.292 100.251 110.294 100.267 110.295 100.284C110.291 100.513 110.119 100.79 109.858 100.989Z" fill="#B3B9B5"/>
<path d="M135.627 111.001C135.648 110.819 135.646 110.635 135.621 110.453C135.621 110.42 135.621 110.388 135.621 110.355C135.61 109.235 135.598 107.965 135.474 107.034C135.454 106.884 135.374 106.749 135.253 106.657C135.132 106.566 134.979 106.526 134.827 106.546C134.676 106.566 134.539 106.644 134.447 106.764C134.354 106.884 134.313 107.036 134.334 107.185C134.348 107.291 134.36 107.403 134.372 107.519C134.033 107.312 133.643 107.203 133.245 107.203C131.948 107.203 130.893 108.375 130.893 109.816C130.893 110.557 131.257 111.359 131.758 111.723C131.819 111.767 131.888 111.799 131.961 111.817C132.035 111.835 132.111 111.838 132.186 111.827C132.26 111.815 132.332 111.79 132.397 111.751C132.461 111.712 132.518 111.661 132.562 111.601C132.607 111.54 132.639 111.472 132.657 111.399C132.675 111.327 132.678 111.251 132.666 111.177C132.655 111.103 132.628 111.033 132.589 110.969C132.549 110.905 132.498 110.849 132.437 110.805C132.275 110.688 132.041 110.268 132.041 109.816C132.041 109.003 132.583 108.342 133.248 108.342C133.913 108.342 134.454 109.003 134.454 109.816C134.455 109.849 134.458 109.882 134.465 109.915C134.465 110.067 134.468 110.218 134.47 110.366C134.47 110.552 134.47 110.73 134.476 110.911C134.439 111.127 134.337 111.327 134.182 111.484C133.686 112.009 132.769 112.251 132.145 112.211C131.112 112.138 130.333 111.428 130.209 110.435C130.178 110.191 130.168 109.926 130.157 109.651C130.114 108.555 130.048 106.901 128.075 106.693C127.471 106.633 126.864 106.758 126.335 107.051C126.317 106.906 126.242 106.773 126.127 106.681C126.011 106.589 125.864 106.544 125.717 106.557C125.569 106.569 125.432 106.638 125.334 106.748C125.236 106.859 125.186 107.002 125.192 107.149C125.214 107.548 125.221 108.094 125.214 108.635C125.203 108.722 125.197 108.81 125.197 108.898C125.197 108.935 125.2 108.972 125.208 109.009C125.2 109.368 125.185 109.71 125.165 109.984C125.152 110.17 125.15 110.37 125.149 110.576C125.149 111.157 125.144 111.761 124.806 112.045C124.727 112.112 124.635 112.162 124.536 112.191C124.436 112.22 124.331 112.227 124.229 112.212C124.105 112.193 123.986 112.149 123.881 112.082C123.775 112.016 123.685 111.928 123.615 111.825C123.255 111.298 123.194 110.579 123.16 109.825C123.135 109.283 123.136 108.726 123.139 108.186C123.139 107.804 123.139 107.421 123.133 107.039C123.133 107.018 123.128 106.998 123.126 106.978C123.124 106.958 123.126 106.946 123.12 106.931C123.113 106.897 123.103 106.865 123.089 106.833C123.089 106.832 123.089 106.83 123.089 106.828C123.049 106.725 122.977 106.636 122.883 106.574C122.79 106.512 122.68 106.48 122.567 106.481H122.548C122.529 106.481 122.512 106.486 122.492 106.488C122.473 106.49 122.456 106.488 122.438 106.494C122.42 106.501 122.402 106.505 122.384 106.511C122.367 106.517 122.348 106.521 122.331 106.529C122.315 106.536 122.299 106.545 122.284 106.554C122.267 106.563 122.249 106.571 122.233 106.582C122.217 106.593 122.206 106.604 122.193 106.615C122.18 106.626 122.162 106.639 122.148 106.652C122.134 106.665 122.127 106.679 122.115 106.692C122.104 106.705 122.09 106.721 122.079 106.737C122.068 106.753 122.062 106.769 122.054 106.784C122.044 106.8 122.035 106.817 122.028 106.834C122.021 106.852 122.016 106.871 122.01 106.889C122.004 106.907 121.998 106.923 121.995 106.941C121.992 106.962 121.99 106.982 121.989 107.003C121.989 107.019 121.984 107.035 121.984 107.051C121.984 108.291 121.869 109.364 121.634 110.333C121.34 111.533 120.922 112.129 120.311 112.208C119.854 112.267 119.46 112.056 119.099 111.542C119.495 110.996 119.816 110.401 120.054 109.772C120.322 109.07 120.498 108.337 120.578 107.591C120.725 106.292 120.582 105.139 120.164 104.165C119.845 103.421 119.318 102.995 118.716 102.995C118.34 103.006 117.984 103.163 117.723 103.431C117.341 103.8 117.159 104.283 117.043 104.662C116.54 106.308 116.591 108.176 117.19 110.065C117.328 110.523 117.498 110.971 117.699 111.406C117.35 111.757 116.918 112.018 116.443 112.165C115.51 112.437 114.571 112.189 113.985 111.55C115.07 110.14 115.564 108.16 115.644 106.422C115.67 105.875 115.68 105.234 115.561 104.625C115.331 103.452 114.618 102.776 113.75 102.906C112.501 103.091 111.884 104.623 111.738 105.879C111.624 106.858 111.707 107.869 111.792 108.641C111.915 109.758 112.159 110.677 112.54 111.427C112.252 111.688 111.919 111.896 111.557 112.041C110.687 112.384 109.737 112.339 109.078 111.921C108.881 111.797 108.708 111.638 108.568 111.453C108.967 111.41 109.351 111.281 109.694 111.076C110.038 110.871 110.332 110.594 110.556 110.265C111.158 109.382 111.21 108.12 110.681 107.266C110.564 107.069 110.406 106.899 110.218 106.768C110.029 106.637 109.815 106.547 109.588 106.504C109.334 106.464 109.075 106.477 108.827 106.542C108.578 106.608 108.347 106.724 108.147 106.883C107.323 107.517 106.853 108.707 106.92 109.988C107.007 111.626 107.802 112.46 108.457 112.876C109.032 113.231 109.698 113.415 110.375 113.407C110.927 113.405 111.472 113.298 111.983 113.094C112.423 112.92 112.832 112.676 113.194 112.374C114.076 113.275 115.452 113.636 116.766 113.253C117.338 113.083 117.865 112.791 118.31 112.398C118.811 113.015 119.504 113.459 120.458 113.336C121.438 113.21 122.002 112.512 122.332 111.828C122.417 112.052 122.527 112.265 122.661 112.463C122.821 112.699 123.029 112.899 123.272 113.05C123.515 113.201 123.787 113.299 124.071 113.34C124.333 113.376 124.601 113.357 124.856 113.284C125.111 113.21 125.347 113.084 125.549 112.914C126.291 112.291 126.296 111.343 126.299 110.582C126.299 110.402 126.299 110.227 126.312 110.066C126.339 109.703 126.356 109.229 126.363 108.744C126.398 108.534 126.506 108.343 126.67 108.204C126.984 107.923 127.489 107.771 127.954 107.823C128.858 107.919 128.957 108.385 129.009 109.694C129.02 109.985 129.032 110.282 129.068 110.573C129.26 112.099 130.494 113.239 132.069 113.345C132.137 113.349 132.207 113.351 132.28 113.351C133.077 113.344 133.855 113.109 134.522 112.677C134.537 113.649 134.453 114.632 133.962 115.26C133.471 115.889 132.581 115.968 131.969 115.762C131.797 115.705 131.234 115.478 131.234 115.007C131.234 114.856 131.173 114.712 131.065 114.605C130.957 114.498 130.811 114.438 130.658 114.438C130.506 114.438 130.359 114.498 130.251 114.605C130.143 114.712 130.083 114.856 130.083 115.007C130.083 115.823 130.663 116.525 131.596 116.839C131.921 116.947 132.261 117.001 132.604 117C133.413 117 134.287 116.705 134.871 115.956C135.711 114.879 135.713 113.333 135.649 111.969C135.639 111.684 135.633 111.356 135.627 111.001ZM108.179 110.326H108.106C108.084 110.195 108.07 110.063 108.064 109.931C108.017 109.042 108.331 108.18 108.847 107.783C108.92 107.723 109.004 107.677 109.095 107.65C109.186 107.623 109.281 107.614 109.376 107.625C109.443 107.639 109.506 107.667 109.561 107.708C109.616 107.749 109.661 107.801 109.693 107.861C109.987 108.331 109.94 109.125 109.596 109.632C109.439 109.858 109.226 110.04 108.978 110.161C108.731 110.283 108.455 110.339 108.179 110.326ZM112.932 108.515C112.853 107.802 112.777 106.872 112.878 106.005C112.984 105.093 113.401 104.104 113.916 104.028H113.943C114.181 104.028 114.362 104.506 114.427 104.84C114.524 105.331 114.514 105.887 114.491 106.366C114.43 107.683 114.087 109.245 113.355 110.43C113.136 109.811 112.995 109.168 112.935 108.515H112.932ZM118.503 110.352C118.43 110.158 118.356 109.947 118.283 109.72C117.915 108.557 117.588 106.79 118.139 104.989C118.213 104.74 118.328 104.429 118.522 104.241C118.572 104.185 118.639 104.146 118.713 104.131C118.804 104.131 118.974 104.309 119.102 104.607C119.442 105.4 119.553 106.363 119.431 107.466C119.361 108.116 119.208 108.755 118.975 109.367C118.846 109.707 118.689 110.036 118.506 110.352H118.503Z" fill="#B3B9B5"/>
<path d="M122.58 105.931C122.712 105.931 122.84 105.892 122.95 105.82C123.059 105.747 123.145 105.644 123.195 105.524C123.246 105.404 123.259 105.271 123.233 105.143C123.207 105.016 123.144 104.898 123.051 104.806C122.958 104.714 122.839 104.651 122.71 104.626C122.581 104.601 122.447 104.614 122.325 104.663C122.203 104.713 122.099 104.798 122.026 104.906C121.953 105.014 121.914 105.142 121.914 105.272C121.914 105.447 121.984 105.614 122.109 105.738C122.234 105.861 122.403 105.931 122.58 105.931Z" fill="#B3B9B5"/>
</g>
<defs>
<filter id="filter0_d_1321_108" x="0.586189" y="0.522742" width="249.828" height="218.828" filterUnits="userSpaceOnUse" color-interpolation-filters="sRGB">
<feFlood flood-opacity="0" result="BackgroundImageFix"/>
<feColorMatrix in="SourceAlpha" type="matrix" values="0 0 0 0 0 0 0 0 0 0 0 0 0 0 0 0 0 0 127 0" result="hardAlpha"/>
<feOffset dy="3.93655"/>
<feGaussianBlur stdDeviation="49.2069"/>
<feComposite in2="hardAlpha" operator="out"/>
<feColorMatrix type="matrix" values="0 0 0 0 0.679896 0 0 0 0 0.891667 0 0 0 0 0.823153 0 0 0 0.8 0"/>
<feBlend mode="normal" in2="BackgroundImageFix" result="effect1_dropShadow_1321_108"/>
<feBlend mode="normal" in="SourceGraphic" in2="effect1_dropShadow_1321_108" result="shape"/>
</filter>
</defs>
</svg>
