<svg width="375" height="88" viewBox="0 0 375 88" fill="none" xmlns="http://www.w3.org/2000/svg">
<rect width="375" height="88" rx="12" fill="#FFFDFA"/>
<path d="M55.564 18.432H61.72C62.416 18.432 62.644 18.648 62.644 19.332V20.436C62.644 21.9 62.5 23.016 62.26 24.108C62.188 24.432 61.876 24.564 61.528 24.492C61.24 24.444 61.024 24.24 61.084 23.928C61.312 22.8 61.444 21.72 61.444 20.4V19.728C61.444 19.548 61.372 19.476 61.192 19.476H55.564C55.264 19.476 55.144 19.248 55.144 18.96C55.144 18.672 55.264 18.432 55.564 18.432ZM58.204 21.948C58.516 21.948 58.804 22.104 58.804 22.452V25.968H63.58C63.868 25.968 64 26.196 64 26.472C64 26.748 63.868 26.988 63.58 26.988H54.34C54.052 26.988 53.92 26.748 53.92 26.472C53.92 26.196 54.052 25.968 54.34 25.968H57.616V22.452C57.616 22.104 57.904 21.948 58.204 21.948ZM65.5379 18.348H68.4659C69.1619 18.348 69.3899 18.564 69.3899 19.248V20.16C69.3899 21.852 69.0539 22.248 65.8019 24.048C65.5499 24.192 65.2259 24.06 65.0939 23.832C64.9499 23.58 64.9619 23.232 65.2259 23.088C68.0459 21.54 68.2379 21.336 68.2379 20.124V19.632C68.2379 19.452 68.1659 19.38 67.9859 19.38H65.5379C65.2499 19.38 65.1179 19.152 65.1179 18.876C65.1179 18.588 65.2499 18.348 65.5379 18.348ZM73.6739 17.664C73.9619 17.664 74.2379 17.808 74.2379 18.132V23.688C74.2379 24 73.9619 24.156 73.6739 24.156C73.3979 24.156 73.1219 24 73.1219 23.688V21.348H71.7659V23.628C71.7659 23.94 71.4899 24.096 71.2019 24.096C70.9259 24.096 70.6499 23.94 70.6499 23.628V18.192C70.6499 17.868 70.9259 17.724 71.2019 17.724C71.4899 17.724 71.7659 17.868 71.7659 18.192V20.34H73.1219V18.132C73.1219 17.808 73.3979 17.664 73.6739 17.664ZM73.3139 24.672C74.0099 24.672 74.2379 24.888 74.2379 25.572V28.32C74.2379 28.668 73.9499 28.824 73.6379 28.824C73.3259 28.824 73.0379 28.668 73.0379 28.32V25.944C73.0379 25.764 72.9659 25.704 72.7859 25.704H67.1459C66.8459 25.704 66.7139 25.464 66.7139 25.188C66.7139 24.912 66.8459 24.672 67.1459 24.672H73.3139ZM78.4998 18.192C78.8118 18.192 79.0998 18.348 79.0998 18.696V19.92C79.0998 20.748 79.2438 21.276 79.7958 21.852C80.2278 22.32 80.6358 22.692 80.9478 22.98C81.1638 23.184 81.1518 23.52 80.9598 23.748C80.7678 23.964 80.4438 24.012 80.2038 23.796C79.9278 23.544 79.6158 23.256 79.2558 22.884C78.7398 22.368 78.5598 22.08 78.5117 21.84H78.4998C78.4518 22.116 78.2838 22.416 77.7558 22.944C77.3238 23.388 77.0238 23.664 76.6038 24.048C76.3758 24.24 76.0518 24.18 75.8598 23.952C75.6678 23.736 75.6438 23.4 75.8598 23.196C76.3038 22.8 76.7718 22.344 77.2158 21.888C77.7558 21.312 77.8998 20.784 77.8998 19.956V18.696C77.8998 18.348 78.1998 18.192 78.4998 18.192ZM82.4478 17.724C82.7238 17.724 82.9998 17.868 82.9998 18.192V24.804C82.9998 25.128 82.7238 25.272 82.4478 25.272C82.1598 25.272 81.8838 25.128 81.8838 24.804V21.168H80.6838C80.3958 21.168 80.2638 20.928 80.2638 20.652C80.2638 20.364 80.3958 20.136 80.6838 20.136H81.8838V18.192C81.8838 17.868 82.1598 17.724 82.4478 17.724ZM84.5958 17.664C84.8838 17.664 85.1598 17.808 85.1598 18.132V25.308C85.1598 25.62 84.8838 25.776 84.5958 25.776C84.3198 25.776 84.0438 25.62 84.0438 25.308V18.132C84.0438 17.808 84.3198 17.664 84.5958 17.664ZM78.4638 24.768C78.7638 24.768 79.0638 24.924 79.0638 25.272V27.3C79.0638 27.48 79.1238 27.54 79.3158 27.54H85.0158C85.3158 27.54 85.4478 27.78 85.4478 28.068C85.4478 28.344 85.3158 28.584 85.0158 28.584H78.7758C78.0798 28.584 77.8518 28.368 77.8518 27.684V25.272C77.8518 24.924 78.1398 24.768 78.4638 24.768ZM92.0616 18.408C92.3496 18.408 92.4816 18.648 92.4816 18.924C92.4816 19.2 92.3496 19.44 92.0616 19.44H88.7376C88.5456 19.44 88.4856 19.5 88.4856 19.68V21.372H91.5816C91.8696 21.372 92.0016 21.588 92.0016 21.864C92.0016 22.14 91.8696 22.368 91.5816 22.368H88.4856V24.108C88.4856 24.288 88.5456 24.348 88.7376 24.348C90.3216 24.348 91.6536 24.276 92.9496 24.096C93.2256 24.06 93.4056 24.252 93.4296 24.54C93.4656 24.816 93.3576 25.08 93.0936 25.116C91.9776 25.272 90.5496 25.38 88.2216 25.38C87.5256 25.38 87.2976 25.164 87.2976 24.48V19.308C87.2976 18.624 87.5256 18.408 88.2216 18.408H92.0616ZM95.2056 17.664C95.5176 17.664 95.8056 17.82 95.8056 18.168V27.528C95.8056 27.876 95.5176 28.032 95.2056 28.032C94.9056 28.032 94.6176 27.876 94.6176 27.528V22.284H93.0576C92.7576 22.284 92.6256 22.056 92.6256 21.768C92.6256 21.48 92.7576 21.252 93.0576 21.252H94.6176V18.168C94.6176 17.82 94.9056 17.664 95.2056 17.664ZM103.692 20.508C105.36 20.508 106.464 21.552 106.464 23.352V23.376C106.464 23.988 106.236 24.204 105.612 24.204H101.988V24.252C101.988 25.392 102.612 26.052 103.764 26.052C104.472 26.052 104.988 25.92 105.492 25.656C105.756 25.524 106.02 25.608 106.14 25.872C106.26 26.136 106.2 26.412 105.96 26.544C105.384 26.868 104.676 27.048 103.715 27.048C101.916 27.048 100.824 26.016 100.824 23.988V23.58C100.824 21.552 101.928 20.508 103.692 20.508ZM103.668 21.504C102.588 21.504 101.988 22.164 101.988 23.232V23.304H105.324V23.196C105.324 22.164 104.784 21.504 103.668 21.504ZM111.218 22.2C111.494 22.2 111.626 22.416 111.626 22.704C111.626 22.98 111.494 23.208 111.218 23.208H108.014C107.726 23.208 107.594 22.98 107.594 22.704C107.594 22.416 107.726 22.2 108.014 22.2H111.218ZM116.112 20.508C117.036 20.508 117.696 20.964 117.924 21.6C118.344 20.94 118.968 20.508 119.988 20.508C121.332 20.508 122.196 21.42 122.196 22.884V26.52C122.196 26.856 121.908 27.012 121.608 27.012C121.308 27.012 121.02 26.856 121.02 26.52V23.136C121.02 21.984 120.516 21.564 119.676 21.564C118.848 21.564 118.248 22.14 118.248 23.076V26.52C118.248 26.856 117.972 27.012 117.66 27.012C117.36 27.012 117.072 26.856 117.072 26.52V23.124C117.072 22.02 116.592 21.564 115.728 21.564C114.816 21.564 114.312 22.236 114.312 23.04V26.52C114.312 26.856 114.024 27.012 113.712 27.012C113.412 27.012 113.124 26.856 113.124 26.52V21.072C113.124 20.736 113.4 20.592 113.688 20.592C113.976 20.592 114.252 20.736 114.252 21.072V21.564C114.564 20.964 115.188 20.508 116.112 20.508ZM126.457 20.508C127.969 20.508 128.965 21.3 128.965 22.608V26.556C128.965 26.868 128.701 27.012 128.425 27.012C128.149 27.012 127.885 26.868 127.885 26.556V26.1H127.873C127.753 26.376 127.489 26.604 127.177 26.76C126.853 26.928 126.409 27.048 125.929 27.048C124.549 27.048 123.733 26.352 123.733 25.176V25.02C123.733 23.964 124.369 23.172 126.121 23.172H127.789V22.872C127.789 21.948 127.369 21.54 126.433 21.54C125.869 21.54 125.317 21.708 124.825 22.02C124.573 22.176 124.309 22.08 124.153 21.84C124.009 21.6 124.033 21.312 124.285 21.144C124.825 20.772 125.617 20.508 126.457 20.508ZM126.157 24.096C125.221 24.096 124.885 24.504 124.885 25.08V25.128C124.885 25.716 125.281 26.052 126.025 26.052C126.493 26.052 126.853 25.98 127.165 25.812C127.573 25.572 127.801 25.236 127.801 24.708V24.096H126.157ZM131.444 18.216C131.888 18.216 132.236 18.552 132.236 18.972C132.236 19.404 131.888 19.74 131.444 19.74C131 19.74 130.652 19.404 130.652 18.972C130.652 18.552 131 18.216 131.444 18.216ZM131.444 20.592C131.756 20.592 132.032 20.748 132.032 21.084V26.52C132.032 26.856 131.756 27.012 131.444 27.012C131.144 27.012 130.856 26.856 130.856 26.52V21.084C130.856 20.748 131.144 20.592 131.444 20.592ZM134.595 18.06C134.907 18.06 135.195 18.216 135.195 18.564V26.508C135.195 26.856 134.907 27.012 134.595 27.012C134.295 27.012 134.007 26.856 134.007 26.508V18.564C134.007 18.216 134.295 18.06 134.595 18.06Z" fill="#807F7D"/>
<rect x="46" y="12.5" width="98" height="21" rx="10.5" stroke="#807F7D"/>
<path d="M156.782 17.564C157.146 17.564 157.482 17.746 157.482 18.152V19.594H159.106C159.428 19.594 159.582 19.86 159.582 20.168C159.582 20.476 159.428 20.728 159.106 20.728H157.482V24.732C157.482 25.572 157.72 25.88 158.336 25.88C158.588 25.88 158.798 25.838 159.022 25.754C159.274 25.67 159.554 25.754 159.666 26.104C159.778 26.426 159.666 26.706 159.386 26.832C159.078 26.972 158.672 27.056 158.238 27.056C156.726 27.056 156.096 26.356 156.096 24.732V20.728H155.256C154.934 20.728 154.78 20.476 154.78 20.168C154.78 19.86 154.934 19.594 155.256 19.594H156.096V18.152C156.096 17.746 156.432 17.564 156.782 17.564ZM164.207 19.426C166.153 19.426 167.441 20.644 167.441 22.744V22.772C167.441 23.486 167.175 23.738 166.447 23.738H162.219V23.794C162.219 25.124 162.947 25.894 164.291 25.894C165.117 25.894 165.719 25.74 166.307 25.432C166.615 25.278 166.923 25.376 167.063 25.684C167.203 25.992 167.133 26.314 166.853 26.468C166.181 26.846 165.355 27.056 164.235 27.056C162.135 27.056 160.861 25.852 160.861 23.486V23.01C160.861 20.644 162.149 19.426 164.207 19.426ZM164.179 20.588C162.919 20.588 162.219 21.358 162.219 22.604V22.688H166.111V22.562C166.111 21.358 165.481 20.588 164.179 20.588ZM169.978 16.57C170.342 16.57 170.678 16.752 170.678 17.158V26.426C170.678 26.832 170.342 27.014 169.978 27.014C169.628 27.014 169.292 26.832 169.292 26.426V17.158C169.292 16.752 169.628 16.57 169.978 16.57ZM173.629 16.57C173.993 16.57 174.329 16.752 174.329 17.158V26.426C174.329 26.832 173.993 27.014 173.629 27.014C173.279 27.014 172.943 26.832 172.943 26.426V17.158C172.943 16.752 173.279 16.57 173.629 16.57ZM177.321 16.752C177.839 16.752 178.245 17.144 178.245 17.634C178.245 18.138 177.839 18.53 177.321 18.53C176.803 18.53 176.397 18.138 176.397 17.634C176.397 17.144 176.803 16.752 177.321 16.752ZM177.321 19.524C177.685 19.524 178.007 19.706 178.007 20.098V26.44C178.007 26.832 177.685 27.014 177.321 27.014C176.971 27.014 176.635 26.832 176.635 26.44V20.098C176.635 19.706 176.971 19.524 177.321 19.524ZM183.98 19.426C185.646 19.426 186.64 20.42 186.64 22.156V26.44C186.64 26.832 186.304 27.014 185.954 27.014C185.604 27.014 185.268 26.832 185.268 26.44V22.478C185.268 21.134 184.652 20.644 183.588 20.644C182.566 20.644 181.698 21.358 181.698 22.506V26.44C181.698 26.832 181.362 27.014 180.998 27.014C180.648 27.014 180.312 26.832 180.312 26.44V20.084C180.312 19.692 180.634 19.524 180.97 19.524C181.306 19.524 181.628 19.692 181.628 20.084V20.574H181.656C182.006 19.93 182.93 19.426 183.98 19.426ZM191.503 19.426C192.609 19.426 193.365 19.902 193.659 20.364H193.673V20.084C193.673 19.692 193.995 19.524 194.345 19.524C194.681 19.524 195.003 19.692 195.003 20.084V26.734C195.003 28.876 193.841 29.87 191.629 29.87C190.761 29.87 189.963 29.632 189.403 29.296C189.095 29.114 189.081 28.736 189.235 28.456C189.417 28.148 189.683 28.036 190.019 28.204C190.453 28.456 191.041 28.666 191.629 28.666C192.917 28.666 193.645 28.092 193.645 26.72V25.726H193.617C193.225 26.482 192.385 26.86 191.377 26.86C189.459 26.86 188.437 25.628 188.437 23.346V22.954C188.437 20.63 189.641 19.426 191.503 19.426ZM191.685 20.63C190.481 20.63 189.809 21.414 189.809 23.01V23.29C189.809 24.9 190.383 25.67 191.629 25.67C192.763 25.67 193.645 24.844 193.645 23.654V22.24C193.645 21.442 192.959 20.63 191.685 20.63ZM200.751 19.426C201.829 19.426 202.599 19.958 202.865 20.7C203.355 19.93 204.083 19.426 205.273 19.426C206.841 19.426 207.849 20.49 207.849 22.198V26.44C207.849 26.832 207.513 27.014 207.163 27.014C206.813 27.014 206.477 26.832 206.477 26.44V22.492C206.477 21.148 205.889 20.658 204.909 20.658C203.943 20.658 203.243 21.33 203.243 22.422V26.44C203.243 26.832 202.921 27.014 202.557 27.014C202.207 27.014 201.871 26.832 201.871 26.44V22.478C201.871 21.19 201.311 20.658 200.303 20.658C199.239 20.658 198.651 21.442 198.651 22.38V26.44C198.651 26.832 198.315 27.014 197.951 27.014C197.601 27.014 197.265 26.832 197.265 26.44V20.084C197.265 19.692 197.587 19.524 197.923 19.524C198.259 19.524 198.581 19.692 198.581 20.084V20.658C198.945 19.958 199.673 19.426 200.751 19.426ZM213.002 19.426C214.948 19.426 216.236 20.644 216.236 22.744V22.772C216.236 23.486 215.97 23.738 215.242 23.738H211.014V23.794C211.014 25.124 211.742 25.894 213.086 25.894C213.912 25.894 214.514 25.74 215.102 25.432C215.41 25.278 215.718 25.376 215.858 25.684C215.998 25.992 215.928 26.314 215.648 26.468C214.976 26.846 214.15 27.056 213.03 27.056C210.93 27.056 209.656 25.852 209.656 23.486V23.01C209.656 20.644 210.944 19.426 213.002 19.426ZM212.974 20.588C211.714 20.588 211.014 21.358 211.014 22.604V22.688H214.906V22.562C214.906 21.358 214.276 20.588 212.974 20.588ZM219.235 17.564C219.599 17.564 219.935 17.746 219.935 18.152V19.594H221.559C221.881 19.594 222.035 19.86 222.035 20.168C222.035 20.476 221.881 20.728 221.559 20.728H219.935V24.732C219.935 25.572 220.173 25.88 220.789 25.88C221.041 25.88 221.251 25.838 221.475 25.754C221.727 25.67 222.007 25.754 222.119 26.104C222.231 26.426 222.119 26.706 221.839 26.832C221.531 26.972 221.125 27.056 220.691 27.056C219.179 27.056 218.549 26.356 218.549 24.732V20.728H217.709C217.387 20.728 217.233 20.476 217.233 20.168C217.233 19.86 217.387 19.594 217.709 19.594H218.549V18.152C218.549 17.746 218.885 17.564 219.235 17.564ZM224.434 16.752C224.952 16.752 225.358 17.144 225.358 17.634C225.358 18.138 224.952 18.53 224.434 18.53C223.916 18.53 223.51 18.138 223.51 17.634C223.51 17.144 223.916 16.752 224.434 16.752ZM224.434 19.524C224.798 19.524 225.12 19.706 225.12 20.098V26.44C225.12 26.832 224.798 27.014 224.434 27.014C224.084 27.014 223.748 26.832 223.748 26.44V20.098C223.748 19.706 224.084 19.524 224.434 19.524ZM230.911 19.426C231.989 19.426 232.759 19.958 233.025 20.7C233.515 19.93 234.243 19.426 235.433 19.426C237.001 19.426 238.009 20.49 238.009 22.198V26.44C238.009 26.832 237.673 27.014 237.323 27.014C236.973 27.014 236.637 26.832 236.637 26.44V22.492C236.637 21.148 236.049 20.658 235.069 20.658C234.103 20.658 233.403 21.33 233.403 22.422V26.44C233.403 26.832 233.081 27.014 232.717 27.014C232.367 27.014 232.031 26.832 232.031 26.44V22.478C232.031 21.19 231.471 20.658 230.463 20.658C229.399 20.658 228.811 21.442 228.811 22.38V26.44C228.811 26.832 228.475 27.014 228.111 27.014C227.761 27.014 227.425 26.832 227.425 26.44V20.084C227.425 19.692 227.747 19.524 228.083 19.524C228.419 19.524 228.741 19.692 228.741 20.084V20.658C229.105 19.958 229.833 19.426 230.911 19.426ZM243.162 19.426C245.108 19.426 246.396 20.644 246.396 22.744V22.772C246.396 23.486 246.13 23.738 245.402 23.738H241.174V23.794C241.174 25.124 241.902 25.894 243.246 25.894C244.072 25.894 244.674 25.74 245.262 25.432C245.57 25.278 245.878 25.376 246.018 25.684C246.158 25.992 246.088 26.314 245.808 26.468C245.136 26.846 244.31 27.056 243.19 27.056C241.09 27.056 239.816 25.852 239.816 23.486V23.01C239.816 20.644 241.104 19.426 243.162 19.426ZM243.134 20.588C241.874 20.588 241.174 21.358 241.174 22.604V22.688H245.066V22.562C245.066 21.358 244.436 20.588 243.134 20.588ZM253.959 16.374C258.089 16.374 260.315 18.796 260.315 22.366V22.408C260.315 24.032 259.783 26.034 257.739 26.034C256.997 26.034 256.283 25.698 256.031 24.816H256.017C255.653 25.712 254.505 26.006 253.847 26.006C251.971 26.006 251.075 24.788 251.075 22.982V22.464C251.075 20.602 252.041 19.454 253.721 19.454C254.673 19.454 255.317 19.846 255.583 20.364V20.042C255.583 19.664 255.905 19.496 256.227 19.496C256.549 19.496 256.871 19.664 256.871 20.042V23.836C256.871 24.62 257.235 24.998 257.823 24.998C258.705 24.998 259.223 24.256 259.223 22.45V22.408C259.223 19.272 257.375 17.382 253.959 17.382C251.047 17.382 248.947 19.328 248.947 22.59V22.66C248.947 26.118 250.935 28.064 254.211 28.064C255.625 28.064 256.871 27.77 257.809 27.35C258.075 27.224 258.355 27.294 258.481 27.56C258.607 27.826 258.537 28.12 258.243 28.274C257.291 28.722 255.919 29.086 254.253 29.086C250.235 29.086 247.841 26.608 247.841 22.674V22.576C247.841 18.992 250.193 16.374 253.959 16.374ZM253.945 20.644C252.951 20.644 252.419 21.232 252.419 22.548V22.926C252.419 24.102 252.839 24.788 253.945 24.788C254.883 24.788 255.527 24.186 255.527 23.22V22.1C255.527 21.26 254.967 20.644 253.945 20.644ZM264.853 19.426C265.959 19.426 266.715 19.902 267.009 20.364H267.023V20.084C267.023 19.692 267.345 19.524 267.695 19.524C268.031 19.524 268.353 19.692 268.353 20.084V26.734C268.353 28.876 267.191 29.87 264.979 29.87C264.111 29.87 263.313 29.632 262.753 29.296C262.445 29.114 262.431 28.736 262.585 28.456C262.767 28.148 263.033 28.036 263.369 28.204C263.803 28.456 264.391 28.666 264.979 28.666C266.267 28.666 266.995 28.092 266.995 26.72V25.726H266.967C266.575 26.482 265.735 26.86 264.727 26.86C262.809 26.86 261.787 25.628 261.787 23.346V22.954C261.787 20.63 262.991 19.426 264.853 19.426ZM265.035 20.63C263.831 20.63 263.159 21.414 263.159 23.01V23.29C263.159 24.9 263.733 25.67 264.979 25.67C266.113 25.67 266.995 24.844 266.995 23.654V22.24C266.995 21.442 266.309 20.63 265.035 20.63ZM274.1 19.426C275.178 19.426 275.948 19.958 276.214 20.7C276.704 19.93 277.432 19.426 278.622 19.426C280.19 19.426 281.198 20.49 281.198 22.198V26.44C281.198 26.832 280.862 27.014 280.512 27.014C280.162 27.014 279.826 26.832 279.826 26.44V22.492C279.826 21.148 279.238 20.658 278.258 20.658C277.292 20.658 276.592 21.33 276.592 22.422V26.44C276.592 26.832 276.27 27.014 275.906 27.014C275.556 27.014 275.22 26.832 275.22 26.44V22.478C275.22 21.19 274.66 20.658 273.652 20.658C272.588 20.658 272 21.442 272 22.38V26.44C272 26.832 271.664 27.014 271.3 27.014C270.95 27.014 270.614 26.832 270.614 26.44V20.084C270.614 19.692 270.936 19.524 271.272 19.524C271.608 19.524 271.93 19.692 271.93 20.084V20.658C272.294 19.958 273.022 19.426 274.1 19.426ZM286.17 19.426C287.934 19.426 289.096 20.35 289.096 21.876V26.482C289.096 26.846 288.788 27.014 288.466 27.014C288.144 27.014 287.836 26.846 287.836 26.482V25.95H287.822C287.682 26.272 287.374 26.538 287.01 26.72C286.632 26.916 286.114 27.056 285.554 27.056C283.944 27.056 282.992 26.244 282.992 24.872V24.69C282.992 23.458 283.734 22.534 285.778 22.534H287.724V22.184C287.724 21.106 287.234 20.63 286.142 20.63C285.484 20.63 284.84 20.826 284.266 21.19C283.972 21.372 283.664 21.26 283.482 20.98C283.314 20.7 283.342 20.364 283.636 20.168C284.266 19.734 285.19 19.426 286.17 19.426ZM285.82 23.612C284.728 23.612 284.336 24.088 284.336 24.76V24.816C284.336 25.502 284.798 25.894 285.666 25.894C286.212 25.894 286.632 25.81 286.996 25.614C287.472 25.334 287.738 24.942 287.738 24.326V23.612H285.82ZM291.987 16.752C292.505 16.752 292.911 17.144 292.911 17.634C292.911 18.138 292.505 18.53 291.987 18.53C291.469 18.53 291.063 18.138 291.063 17.634C291.063 17.144 291.469 16.752 291.987 16.752ZM291.987 19.524C292.351 19.524 292.673 19.706 292.673 20.098V26.44C292.673 26.832 292.351 27.014 291.987 27.014C291.637 27.014 291.301 26.832 291.301 26.44V20.098C291.301 19.706 291.637 19.524 291.987 19.524ZM295.664 16.57C296.028 16.57 296.364 16.752 296.364 17.158V26.426C296.364 26.832 296.028 27.014 295.664 27.014C295.314 27.014 294.978 26.832 294.978 26.426V17.158C294.978 16.752 295.314 16.57 295.664 16.57ZM299.23 25.614C299.776 25.614 300.182 26.02 300.182 26.552C300.182 27.098 299.776 27.504 299.23 27.504C298.698 27.504 298.292 27.098 298.292 26.552C298.292 26.02 298.698 25.614 299.23 25.614ZM305.054 19.426C306.104 19.426 306.86 19.692 307.392 20.042C307.686 20.238 307.728 20.602 307.532 20.896C307.35 21.162 307.056 21.26 306.762 21.078C306.272 20.798 305.726 20.644 305.054 20.644C303.822 20.644 303.108 21.386 303.108 23.038V23.458C303.108 25.054 303.85 25.838 305.082 25.838C305.824 25.838 306.426 25.67 306.916 25.362C307.224 25.18 307.56 25.264 307.714 25.558C307.896 25.852 307.868 26.216 307.56 26.412C306.986 26.79 306.118 27.056 305.068 27.056C302.982 27.056 301.722 25.866 301.722 23.472V23.01C301.722 20.616 302.982 19.426 305.054 19.426ZM312.481 19.426C314.623 19.426 315.925 20.658 315.925 23.01V23.472C315.925 25.824 314.623 27.056 312.481 27.056C310.339 27.056 309.037 25.824 309.037 23.472V23.01C309.037 20.658 310.339 19.426 312.481 19.426ZM312.481 20.644C311.137 20.644 310.423 21.386 310.423 23.052V23.43C310.423 25.11 311.137 25.838 312.481 25.838C313.839 25.838 314.539 25.11 314.539 23.43V23.052C314.539 21.386 313.839 20.644 312.481 20.644ZM321.282 19.426C322.36 19.426 323.13 19.958 323.396 20.7C323.886 19.93 324.614 19.426 325.804 19.426C327.372 19.426 328.38 20.49 328.38 22.198V26.44C328.38 26.832 328.044 27.014 327.694 27.014C327.344 27.014 327.008 26.832 327.008 26.44V22.492C327.008 21.148 326.42 20.658 325.44 20.658C324.474 20.658 323.774 21.33 323.774 22.422V26.44C323.774 26.832 323.452 27.014 323.088 27.014C322.738 27.014 322.402 26.832 322.402 26.44V22.478C322.402 21.19 321.842 20.658 320.834 20.658C319.77 20.658 319.182 21.442 319.182 22.38V26.44C319.182 26.832 318.846 27.014 318.482 27.014C318.132 27.014 317.796 26.832 317.796 26.44V20.084C317.796 19.692 318.118 19.524 318.454 19.524C318.79 19.524 319.112 19.692 319.112 20.084V20.658C319.476 19.958 320.204 19.426 321.282 19.426Z" fill="#807F7D"/>
<path d="M101.794 46.084C102.49 46.084 102.718 46.3 102.718 46.984V49.252C102.718 49.936 102.49 50.152 101.794 50.152H96.3217C95.6257 50.152 95.4097 49.936 95.4097 49.252V46.984C95.4097 46.3 95.6257 46.084 96.3217 46.084H101.794ZM96.8497 47.092C96.6577 47.092 96.5977 47.152 96.5977 47.344V48.892C96.5977 49.084 96.6577 49.144 96.8497 49.144H101.266C101.458 49.144 101.518 49.084 101.518 48.892V47.344C101.518 47.152 101.458 47.092 101.266 47.092H96.8497ZM103.678 51.244C103.966 51.244 104.098 51.472 104.098 51.748C104.098 52.012 103.966 52.252 103.678 52.252H99.7897V53.932C99.7897 54.244 99.5257 54.388 99.1897 54.388C98.8657 54.388 98.6017 54.244 98.6017 53.932V52.252H94.4377C94.1497 52.252 94.0177 52.012 94.0177 51.748C94.0177 51.472 94.1497 51.244 94.4377 51.244H103.678ZM95.9857 53.224C96.2977 53.224 96.5857 53.38 96.5857 53.728V55.36C96.5857 55.54 96.6577 55.612 96.8377 55.612H102.514C102.802 55.612 102.934 55.84 102.934 56.116C102.934 56.392 102.802 56.632 102.514 56.632H96.2977C95.6017 56.632 95.3857 56.416 95.3857 55.732V53.728C95.3857 53.38 95.6737 53.224 95.9857 53.224ZM108.636 46.288C110.556 46.288 111.54 47.416 111.54 48.904C111.54 50.404 110.556 51.532 108.636 51.532C106.716 51.532 105.732 50.404 105.732 48.904C105.732 47.416 106.716 46.288 108.636 46.288ZM108.636 47.296C107.436 47.296 106.872 47.992 106.872 48.904C106.872 49.816 107.436 50.524 108.636 50.524C109.836 50.524 110.4 49.816 110.4 48.904C110.4 47.992 109.836 47.296 108.636 47.296ZM111.936 52.888C112.212 52.864 112.368 53.056 112.38 53.344C112.404 53.62 112.296 53.872 112.02 53.896C110.1 54.076 107.856 54.148 105.504 54.148C105.216 54.148 105.084 53.908 105.084 53.632C105.084 53.356 105.216 53.116 105.504 53.116C107.628 53.116 109.716 53.092 111.936 52.888ZM113.604 45.664C113.916 45.664 114.204 45.82 114.204 46.168V55.528C114.204 55.876 113.916 56.032 113.604 56.032C113.304 56.032 113.016 55.876 113.016 55.528V46.168C113.016 45.82 113.304 45.664 113.604 45.664ZM117.133 53.824C117.517 53.896 117.745 54.184 117.601 54.58L117.001 56.38C116.893 56.692 116.653 56.788 116.389 56.74C116.125 56.692 115.969 56.512 116.017 56.236L116.329 54.304C116.401 53.896 116.773 53.764 117.133 53.824ZM130.37 45.664C130.682 45.664 130.97 45.82 130.97 46.168V55.528C130.97 55.876 130.682 56.032 130.37 56.032C130.07 56.032 129.782 55.876 129.782 55.528V50.368H127.538V52.384C127.538 53.068 127.31 53.284 126.614 53.284H123.35C122.654 53.284 122.426 53.068 122.426 52.384V46.876C122.426 46.528 122.714 46.372 123.014 46.372C123.314 46.372 123.614 46.528 123.614 46.876V48.94H126.362V46.876C126.362 46.528 126.65 46.372 126.95 46.372C127.25 46.372 127.538 46.528 127.538 46.876V49.348H129.782V46.168C129.782 45.82 130.07 45.664 130.37 45.664ZM123.614 52.012C123.614 52.204 123.674 52.264 123.866 52.264H126.11C126.29 52.264 126.362 52.204 126.362 52.012V49.96H123.614V52.012ZM140.476 46.48C141.172 46.48 141.4 46.696 141.4 47.38V48.376C141.4 50.044 141.28 51.412 141.016 52.672C140.956 52.996 140.632 53.116 140.284 53.056C139.996 52.996 139.768 52.804 139.84 52.48C140.092 51.16 140.2 49.828 140.2 48.592V47.788C140.2 47.596 140.128 47.536 139.948 47.536H134.44C134.14 47.536 134.02 47.296 134.02 47.02C134.02 46.72 134.14 46.48 134.44 46.48H140.476ZM142.432 53.956C142.72 53.956 142.852 54.184 142.852 54.472C142.852 54.748 142.72 54.988 142.432 54.988H133.192C132.904 54.988 132.772 54.748 132.772 54.472C132.772 54.184 132.904 53.956 133.192 53.956H142.432ZM150.221 46.12C150.545 46.12 150.833 46.276 150.833 46.624V47.824C150.833 48.616 151.073 49.18 151.649 49.684C152.201 50.164 152.681 50.548 153.101 50.86C153.377 51.076 153.341 51.388 153.173 51.604C153.017 51.82 152.705 51.952 152.441 51.748C152.057 51.472 151.589 51.088 151.085 50.656C150.509 50.152 150.305 49.888 150.245 49.624H150.233C150.173 49.9 149.981 50.188 149.369 50.716C148.853 51.16 148.349 51.568 147.833 51.94C147.557 52.144 147.245 52.012 147.089 51.796C146.921 51.58 146.873 51.244 147.161 51.028C147.725 50.62 148.241 50.212 148.793 49.72C149.369 49.216 149.609 48.652 149.609 47.872V46.624C149.609 46.276 149.909 46.12 150.221 46.12ZM155.141 45.664C155.453 45.664 155.741 45.82 155.741 46.168V53.272C155.741 53.62 155.453 53.776 155.141 53.776C154.829 53.776 154.541 53.62 154.541 53.272V46.168C154.541 45.82 154.829 45.664 155.141 45.664ZM149.345 52.768C149.645 52.768 149.945 52.924 149.945 53.272V55.3C149.945 55.48 150.005 55.54 150.197 55.54H155.597C155.897 55.54 156.029 55.78 156.029 56.068C156.029 56.344 155.897 56.584 155.597 56.584H149.657C148.961 56.584 148.733 56.368 148.733 55.684V53.272C148.733 52.924 149.021 52.768 149.345 52.768ZM159.259 46.432H165.415C166.111 46.432 166.339 46.648 166.339 47.332V48.436C166.339 49.9 166.195 51.016 165.955 52.108C165.883 52.432 165.571 52.564 165.223 52.492C164.935 52.444 164.719 52.24 164.779 51.928C165.007 50.8 165.139 49.72 165.139 48.4V47.728C165.139 47.548 165.067 47.476 164.887 47.476H159.259C158.959 47.476 158.839 47.248 158.839 46.96C158.839 46.672 158.959 46.432 159.259 46.432ZM161.899 49.948C162.211 49.948 162.499 50.104 162.499 50.452V53.968H167.275C167.563 53.968 167.695 54.196 167.695 54.472C167.695 54.748 167.563 54.988 167.275 54.988H158.035C157.747 54.988 157.615 54.748 157.615 54.472C157.615 54.196 157.747 53.968 158.035 53.968H161.311V50.452C161.311 50.104 161.599 49.948 161.899 49.948ZM169.809 53.824C170.193 53.896 170.421 54.184 170.277 54.58L169.677 56.38C169.569 56.692 169.329 56.788 169.065 56.74C168.801 56.692 168.645 56.512 168.693 56.236L169.005 54.304C169.077 53.896 169.449 53.764 169.809 53.824ZM179.421 46.576C179.709 46.576 179.841 46.816 179.841 47.092C179.841 47.368 179.709 47.608 179.421 47.608H177.885V48.808C177.885 49.792 178.065 50.356 178.605 51.004C179.025 51.508 179.457 51.952 179.757 52.264C179.961 52.492 179.937 52.828 179.733 53.032C179.529 53.224 179.217 53.272 178.989 53.044C178.785 52.84 178.401 52.42 178.017 52C177.489 51.388 177.357 51.088 177.309 50.836H177.297C177.261 51.1 177.105 51.436 176.577 52.036C176.193 52.468 175.821 52.864 175.425 53.26C175.197 53.488 174.861 53.428 174.669 53.236C174.465 53.02 174.405 52.696 174.633 52.456C175.101 51.988 175.557 51.508 175.989 51.004C176.529 50.356 176.709 49.792 176.709 48.808V47.608H175.077C174.777 47.608 174.645 47.368 174.645 47.092C174.645 46.816 174.777 46.576 175.077 46.576H179.421ZM181.209 45.784C181.485 45.784 181.761 45.928 181.761 46.252V55.06C181.761 55.384 181.485 55.528 181.209 55.528C180.921 55.528 180.645 55.384 180.645 55.06V50.188H179.481C179.181 50.188 179.049 49.96 179.049 49.672C179.049 49.384 179.181 49.156 179.481 49.156H180.645V46.252C180.645 45.928 180.921 45.784 181.209 45.784ZM183.357 45.664C183.645 45.664 183.921 45.808 183.921 46.132V55.564C183.921 55.888 183.645 56.032 183.357 56.032C183.081 56.032 182.805 55.888 182.805 55.564V46.132C182.805 45.808 183.081 45.664 183.357 45.664ZM188.411 46.204C190.271 46.204 191.195 47.416 191.195 48.988C191.195 50.572 190.271 51.784 188.411 51.784C186.551 51.784 185.627 50.572 185.627 48.988C185.627 47.416 186.551 46.204 188.411 46.204ZM188.411 47.224C187.235 47.224 186.779 48.028 186.779 48.988C186.779 49.948 187.235 50.764 188.411 50.764C189.587 50.764 190.043 49.948 190.043 48.988C190.043 48.028 189.587 47.224 188.411 47.224ZM193.379 45.664C193.691 45.664 193.979 45.82 193.979 46.168V48.736H195.299C195.611 48.736 195.743 48.976 195.743 49.252C195.743 49.552 195.611 49.78 195.299 49.78H193.979V53.272C193.979 53.62 193.691 53.776 193.379 53.776C193.067 53.776 192.779 53.62 192.779 53.272V46.168C192.779 45.82 193.067 45.664 193.379 45.664ZM187.703 52.768C188.003 52.768 188.303 52.924 188.303 53.272V55.3C188.303 55.48 188.363 55.54 188.555 55.54H193.835C194.135 55.54 194.267 55.78 194.267 56.068C194.267 56.344 194.135 56.584 193.835 56.584H188.015C187.319 56.584 187.091 56.368 187.091 55.684V53.272C187.091 52.924 187.379 52.768 187.703 52.768ZM207.613 46.036C207.889 46.036 208.021 46.264 208.021 46.54C208.021 46.804 207.889 47.032 207.613 47.032H202.213C202.033 47.032 201.961 47.104 201.961 47.284V48.592C201.961 48.772 202.033 48.844 202.213 48.844H207.733C208.009 48.844 208.141 49.072 208.141 49.336C208.141 49.612 208.009 49.84 207.733 49.84H201.673C200.977 49.84 200.761 49.624 200.761 48.94V46.936C200.761 46.252 200.977 46.036 201.673 46.036H207.613ZM209.029 50.896C209.317 50.896 209.449 51.112 209.449 51.4C209.449 51.676 209.317 51.904 209.029 51.904H199.789C199.501 51.904 199.369 51.676 199.369 51.4C199.369 51.112 199.501 50.896 199.789 50.896H209.029ZM204.409 52.804C206.725 52.804 208.081 53.452 208.081 54.868C208.081 56.284 206.725 56.932 204.409 56.932C202.093 56.932 200.737 56.284 200.737 54.868C200.737 53.452 202.093 52.804 204.409 52.804ZM204.409 53.764C202.681 53.764 201.925 54.16 201.925 54.868C201.925 55.576 202.681 55.972 204.409 55.972C206.137 55.972 206.893 55.576 206.893 54.868C206.893 54.16 206.137 53.764 204.409 53.764ZM218.547 46.468C218.835 46.468 218.967 46.708 218.967 46.996C218.967 47.272 218.835 47.5 218.547 47.5H215.187C215.007 47.5 214.935 47.572 214.935 47.752V52C214.935 52.18 215.007 52.252 215.187 52.252C216.759 52.252 218.091 52.168 219.387 51.988C219.663 51.952 219.843 52.156 219.867 52.432C219.903 52.72 219.795 52.984 219.531 53.02C218.415 53.176 216.987 53.284 214.659 53.284C213.963 53.284 213.735 53.068 213.735 52.384V47.368C213.735 46.684 213.963 46.468 214.659 46.468H218.547ZM221.223 45.664C221.535 45.664 221.823 45.82 221.823 46.168V49.288H223.143C223.455 49.288 223.587 49.516 223.587 49.804C223.587 50.092 223.455 50.332 223.143 50.332H221.823V55.528C221.823 55.876 221.535 56.032 221.223 56.032C220.911 56.032 220.623 55.876 220.623 55.528V46.168C220.623 45.82 220.911 45.664 221.223 45.664ZM227.177 46.108C229.037 46.108 229.961 47.26 229.961 48.772C229.961 50.296 229.037 51.448 227.177 51.448C225.317 51.448 224.393 50.296 224.393 48.772C224.393 47.26 225.317 46.108 227.177 46.108ZM227.177 47.116C226.001 47.116 225.545 47.86 225.545 48.772C225.545 49.684 226.001 50.44 227.177 50.44C228.353 50.44 228.809 49.684 228.809 48.772C228.809 47.86 228.353 47.116 227.177 47.116ZM232.145 45.664C232.457 45.664 232.745 45.82 232.745 46.168V47.284H233.993C234.269 47.284 234.401 47.524 234.401 47.8C234.401 48.076 234.269 48.316 233.993 48.316H232.745V49.336H233.993C234.269 49.336 234.401 49.576 234.401 49.852C234.401 50.128 234.269 50.368 233.993 50.368H232.745V51.748C232.745 52.084 232.457 52.24 232.145 52.24C231.833 52.24 231.545 52.084 231.545 51.748V46.168C231.545 45.82 231.833 45.664 232.145 45.664ZM229.373 52.348C231.545 52.348 232.805 53.116 232.805 54.616C232.805 56.116 231.545 56.884 229.373 56.884C227.201 56.884 225.941 56.116 225.941 54.616C225.941 53.116 227.201 52.348 229.373 52.348ZM229.373 53.32C227.789 53.32 227.129 53.824 227.129 54.616C227.129 55.408 227.789 55.912 229.373 55.912C230.945 55.912 231.617 55.408 231.617 54.616C231.617 53.824 230.945 53.32 229.373 53.32ZM238.387 48.604C239.983 48.604 240.943 49.396 240.943 50.608C240.943 51.82 239.983 52.612 238.387 52.612C236.791 52.612 235.831 51.82 235.831 50.608C235.831 49.396 236.791 48.604 238.387 48.604ZM238.387 45.64C238.699 45.64 238.987 45.796 238.987 46.144V46.9H241.135C241.423 46.9 241.555 47.14 241.555 47.416C241.555 47.692 241.423 47.932 241.135 47.932H235.519C235.231 47.932 235.099 47.692 235.099 47.416C235.099 47.14 235.231 46.9 235.519 46.9H237.787V46.144C237.787 45.796 238.087 45.64 238.387 45.64ZM238.387 49.552C237.427 49.552 236.911 49.984 236.911 50.608C236.911 51.22 237.427 51.664 238.387 51.664C239.359 51.664 239.863 51.22 239.863 50.608C239.863 49.984 239.359 49.552 238.387 49.552ZM243.067 45.664C243.379 45.664 243.667 45.82 243.667 46.168V48.868H244.999C245.299 48.868 245.431 49.096 245.431 49.384C245.431 49.672 245.299 49.9 244.999 49.9H243.667V53.392C243.667 53.74 243.379 53.896 243.067 53.896C242.767 53.896 242.479 53.74 242.479 53.392V46.168C242.479 45.82 242.767 45.664 243.067 45.664ZM237.391 53.224C237.691 53.224 237.991 53.38 237.991 53.728V55.3C237.991 55.48 238.051 55.54 238.243 55.54H243.523C243.823 55.54 243.955 55.78 243.955 56.068C243.955 56.344 243.823 56.584 243.523 56.584H237.703C237.007 56.584 236.779 56.368 236.779 55.684V53.728C236.779 53.38 237.067 53.224 237.391 53.224ZM252.753 46.288C254.673 46.288 255.657 47.416 255.657 48.904C255.657 50.404 254.673 51.532 252.753 51.532C250.833 51.532 249.849 50.404 249.849 48.904C249.849 47.416 250.833 46.288 252.753 46.288ZM252.753 47.296C251.553 47.296 250.989 47.992 250.989 48.904C250.989 49.816 251.553 50.524 252.753 50.524C253.953 50.524 254.517 49.816 254.517 48.904C254.517 47.992 253.953 47.296 252.753 47.296ZM256.053 52.888C256.329 52.864 256.485 53.056 256.497 53.344C256.521 53.62 256.413 53.872 256.137 53.896C254.217 54.076 251.973 54.148 249.621 54.148C249.333 54.148 249.201 53.908 249.201 53.632C249.201 53.356 249.333 53.116 249.621 53.116C251.745 53.116 253.833 53.092 256.053 52.888ZM257.721 45.664C258.033 45.664 258.321 45.82 258.321 46.168V55.528C258.321 55.876 258.033 56.032 257.721 56.032C257.421 56.032 257.133 55.876 257.133 55.528V46.168C257.133 45.82 257.421 45.664 257.721 45.664ZM260.975 46.372H264.479C265.175 46.372 265.403 46.588 265.403 47.272V48.256C265.403 50.056 264.875 50.476 261.215 52.324C260.939 52.456 260.615 52.3 260.495 52.048C260.375 51.808 260.375 51.46 260.687 51.316C263.999 49.684 264.203 49.444 264.203 48.22V47.656C264.203 47.476 264.143 47.416 263.951 47.416H260.975C260.675 47.416 260.543 47.176 260.543 46.9C260.543 46.612 260.675 46.372 260.975 46.372ZM268.511 45.664C268.811 45.664 269.099 45.82 269.099 46.168V53.272C269.099 53.62 268.811 53.776 268.511 53.776C268.211 53.776 267.911 53.62 267.911 53.272V50.944H266.243C265.955 50.944 265.835 50.704 265.835 50.428C265.835 50.152 265.955 49.912 266.243 49.912H267.911V48.472H266.339C266.051 48.472 265.931 48.232 265.931 47.956C265.931 47.68 266.051 47.44 266.339 47.44H267.911V46.168C267.911 45.82 268.211 45.664 268.511 45.664ZM262.655 52.768C262.955 52.768 263.255 52.924 263.255 53.272V55.3C263.255 55.48 263.315 55.54 263.507 55.54H268.955C269.255 55.54 269.387 55.78 269.387 56.068C269.387 56.344 269.255 56.584 268.955 56.584H262.967C262.271 56.584 262.043 56.368 262.043 55.684V53.272C262.043 52.924 262.331 52.768 262.655 52.768ZM275.94 45.784C278.244 45.784 279.588 46.372 279.588 47.704C279.588 49.048 278.244 49.636 275.94 49.636C273.636 49.636 272.292 49.048 272.292 47.704C272.292 46.372 273.636 45.784 275.94 45.784ZM275.94 46.732C274.224 46.732 273.48 47.08 273.48 47.704C273.48 48.328 274.224 48.688 275.94 48.688C277.656 48.688 278.4 48.328 278.4 47.704C278.4 47.08 277.656 46.732 275.94 46.732ZM280.572 50.392C280.848 50.392 280.98 50.608 280.98 50.872C280.98 51.16 280.848 51.376 280.572 51.376H271.308C271.032 51.376 270.9 51.16 270.9 50.872C270.9 50.608 271.032 50.392 271.308 50.392H280.572ZM278.688 52.3C279.384 52.3 279.612 52.516 279.612 53.2V54.088C279.612 54.772 279.384 54.988 278.688 54.988H273.612C273.48 54.988 273.42 55.036 273.42 55.168V55.66C273.42 55.78 273.48 55.84 273.612 55.84H279.48C279.744 55.84 279.876 56.068 279.876 56.308C279.876 56.56 279.744 56.776 279.48 56.776H273.18C272.484 56.776 272.256 56.56 272.256 55.876V54.988C272.256 54.304 272.484 54.088 273.18 54.088H278.256C278.388 54.088 278.448 54.028 278.448 53.908V53.428C278.448 53.296 278.388 53.236 278.256 53.236H272.616C272.352 53.236 272.232 53.02 272.232 52.768C272.232 52.528 272.352 52.3 272.616 52.3H278.688Z" fill="#807F7D"/>
<path d="M119.306 64.276C121.166 64.276 122.126 65.536 122.126 67.864C122.126 70.192 121.166 71.452 119.306 71.452C117.446 71.452 116.498 70.192 116.498 67.864C116.498 65.536 117.446 64.276 119.306 64.276ZM119.306 65.332C118.13 65.332 117.662 66.232 117.662 67.864C117.662 69.496 118.13 70.396 119.306 70.396C120.494 70.396 120.962 69.496 120.962 67.864C120.962 66.232 120.494 65.332 119.306 65.332ZM124.514 63.664C124.838 63.664 125.126 63.82 125.126 64.168V73.528C125.126 73.876 124.838 74.032 124.514 74.032C124.214 74.032 123.914 73.876 123.914 73.528V64.168C123.914 63.82 124.214 63.664 124.514 63.664ZM133.228 64.276C135.088 64.276 136.048 65.536 136.048 67.864C136.048 70.192 135.088 71.452 133.228 71.452C131.368 71.452 130.42 70.192 130.42 67.864C130.42 65.536 131.368 64.276 133.228 64.276ZM133.228 65.332C132.052 65.332 131.584 66.232 131.584 67.864C131.584 69.496 132.052 70.396 133.228 70.396C134.416 70.396 134.884 69.496 134.884 67.864C134.884 66.232 134.416 65.332 133.228 65.332ZM138.436 63.664C138.76 63.664 139.048 63.82 139.048 64.168V73.528C139.048 73.876 138.76 74.032 138.436 74.032C138.136 74.032 137.836 73.876 137.836 73.528V64.168C137.836 63.82 138.136 63.664 138.436 63.664ZM147.606 63.784C147.882 63.784 148.158 63.928 148.158 64.252V73.06C148.158 73.384 147.882 73.528 147.606 73.528C147.318 73.528 147.042 73.384 147.042 73.06V68.368H145.65V70.288C145.65 70.972 145.422 71.188 144.726 71.188H142.122C141.426 71.188 141.198 70.972 141.198 70.288V65.44C141.198 64.756 141.426 64.54 142.122 64.54H144.726C145.422 64.54 145.65 64.756 145.65 65.44V67.348H147.042V64.252C147.042 63.928 147.318 63.784 147.606 63.784ZM149.754 63.664C150.042 63.664 150.318 63.808 150.318 64.132V73.564C150.318 73.888 150.042 74.032 149.754 74.032C149.478 74.032 149.202 73.888 149.202 73.564V64.132C149.202 63.808 149.478 63.664 149.754 63.664ZM142.566 65.572C142.386 65.572 142.314 65.632 142.314 65.812V69.916C142.314 70.096 142.386 70.156 142.566 70.156H144.282C144.462 70.156 144.534 70.096 144.534 69.916V65.812C144.534 65.632 144.462 65.572 144.282 65.572H142.566ZM155.06 63.988C156.896 63.988 157.856 65.044 157.856 66.448C157.856 67.864 156.896 68.92 155.06 68.92C153.224 68.92 152.264 67.864 152.264 66.448C152.264 65.044 153.224 63.988 155.06 63.988ZM155.06 64.972C153.908 64.972 153.416 65.656 153.416 66.448C153.416 67.252 153.908 67.936 155.06 67.936C156.212 67.936 156.704 67.252 156.704 66.448C156.704 65.656 156.212 64.972 155.06 64.972ZM160.292 63.664C160.604 63.664 160.892 63.82 160.892 64.168V68.824C160.892 69.172 160.604 69.328 160.292 69.328C159.98 69.328 159.692 69.172 159.692 68.824V64.168C159.692 63.82 159.98 63.664 160.292 63.664ZM159.968 69.844C160.664 69.844 160.892 70.06 160.892 70.744V71.848C160.892 72.532 160.664 72.748 159.968 72.748H155.324C155.144 72.748 155.072 72.808 155.072 73V73.516C155.072 73.696 155.144 73.768 155.324 73.768H160.76C161.036 73.768 161.156 73.996 161.156 74.248C161.156 74.5 161.036 74.728 160.76 74.728H154.832C154.136 74.728 153.908 74.512 153.908 73.828V72.724C153.908 72.04 154.136 71.824 154.832 71.824H159.464C159.656 71.824 159.716 71.764 159.716 71.572V71.056C159.716 70.876 159.656 70.816 159.464 70.816H154.28C154.004 70.816 153.884 70.588 153.884 70.324C153.884 70.072 154.004 69.844 154.28 69.844H159.968ZM174.19 64.204C174.49 64.204 174.622 64.432 174.622 64.72C174.622 64.984 174.49 65.224 174.19 65.224H171.418V65.368C171.418 66.124 171.646 66.484 172.486 66.916C173.278 67.324 173.938 67.636 174.682 67.972C174.946 68.092 174.994 68.404 174.862 68.668C174.742 68.932 174.454 69.064 174.202 68.956C173.398 68.596 172.762 68.296 172.018 67.912C171.166 67.48 170.89 67.18 170.818 66.892H170.806C170.734 67.204 170.446 67.504 169.606 67.936C168.85 68.32 168.214 68.62 167.422 68.98C167.158 69.088 166.87 68.956 166.75 68.68C166.606 68.416 166.666 68.092 166.93 67.972C167.674 67.636 168.334 67.324 169.138 66.916C169.966 66.484 170.194 66.124 170.194 65.368V65.224H167.422C167.122 65.224 166.99 64.984 166.99 64.72C166.99 64.432 167.122 64.204 167.422 64.204H174.19ZM175.426 69.976C175.714 69.976 175.846 70.216 175.846 70.492C175.846 70.768 175.714 70.996 175.426 70.996H171.406V74.368C171.406 74.716 171.118 74.872 170.806 74.872C170.494 74.872 170.206 74.716 170.206 74.368V70.996H166.186C165.898 70.996 165.766 70.768 165.766 70.492C165.766 70.216 165.898 69.976 166.186 69.976H175.426ZM181.728 64.12C182.052 64.12 182.34 64.276 182.34 64.636V65.296C182.34 66.316 182.628 66.868 183.516 67.456C184.236 67.912 184.992 68.356 185.772 68.788C186.012 68.932 186.012 69.28 185.88 69.508C185.724 69.748 185.436 69.88 185.172 69.736C184.416 69.316 183.636 68.86 182.964 68.428C182.16 67.912 181.812 67.492 181.74 67.192H181.728C181.644 67.516 181.296 67.936 180.492 68.452C179.82 68.884 179.052 69.34 178.284 69.76C178.032 69.904 177.732 69.772 177.576 69.52C177.432 69.28 177.444 68.932 177.684 68.788C178.464 68.356 179.22 67.912 179.94 67.456C180.828 66.868 181.116 66.316 181.116 65.296V64.636C181.116 64.276 181.404 64.12 181.728 64.12ZM181.728 69.604C182.04 69.604 182.328 69.76 182.328 70.108V71.968H186.348C186.636 71.968 186.768 72.196 186.768 72.472C186.768 72.748 186.636 72.988 186.348 72.988H177.108C176.82 72.988 176.688 72.748 176.688 72.472C176.688 72.196 176.82 71.968 177.108 71.968H181.128V70.108C181.128 69.76 181.416 69.604 181.728 69.604ZM195.349 64.288C196.045 64.288 196.273 64.504 196.273 65.188V66.784C196.273 67.456 196.045 67.672 195.349 67.672H190.441C190.261 67.672 190.189 67.744 190.189 67.924V68.824C190.189 69.004 190.261 69.064 190.441 69.064H196.117C196.405 69.064 196.537 69.304 196.537 69.58C196.537 69.856 196.405 70.084 196.117 70.084H193.249V71.968H197.269C197.557 71.968 197.689 72.196 197.689 72.472C197.689 72.748 197.557 72.988 197.269 72.988H188.029C187.741 72.988 187.609 72.748 187.609 72.472C187.609 72.196 187.741 71.968 188.029 71.968H192.049V70.084H189.937C189.241 70.084 189.013 69.868 189.013 69.184V67.588C189.013 66.904 189.241 66.7 189.937 66.7H194.845C195.025 66.7 195.097 66.628 195.097 66.448V65.56C195.097 65.38 195.025 65.308 194.845 65.308H189.409C189.121 65.308 188.989 65.08 188.989 64.804C188.989 64.528 189.121 64.288 189.409 64.288H195.349ZM203.487 64.168C203.787 64.168 204.087 64.336 204.087 64.672V66.1H209.055V64.672C209.055 64.336 209.355 64.168 209.643 64.168C209.955 64.168 210.255 64.336 210.255 64.672V68.908C210.255 69.592 210.027 69.808 209.331 69.808H207.171V71.968H211.191C211.479 71.968 211.611 72.196 211.611 72.472C211.611 72.748 211.479 72.988 211.191 72.988H201.951C201.663 72.988 201.531 72.748 201.531 72.472C201.531 72.196 201.663 71.968 201.951 71.968H205.971V69.808H203.811C203.115 69.808 202.899 69.592 202.899 68.908V64.672C202.899 64.336 203.187 64.168 203.487 64.168ZM204.087 68.548C204.087 68.728 204.159 68.788 204.339 68.788H208.803C208.983 68.788 209.055 68.728 209.055 68.548V67.12H204.087V68.548ZM213.401 64.444C213.725 64.444 214.013 64.6 214.013 64.96V69.88C214.013 70.06 214.085 70.132 214.265 70.132C215.129 70.132 216.329 70.06 217.169 69.94C217.433 69.904 217.613 70.096 217.637 70.384C217.673 70.672 217.565 70.924 217.301 70.972C216.689 71.068 215.381 71.164 213.725 71.164C213.029 71.164 212.801 70.948 212.801 70.264V64.96C212.801 64.6 213.089 64.444 213.401 64.444ZM221.285 63.664C221.573 63.664 221.849 63.808 221.849 64.132V73.564C221.849 73.888 221.573 74.032 221.285 74.032C221.009 74.032 220.733 73.888 220.733 73.564V68.368H219.377V73.06C219.377 73.384 219.101 73.528 218.813 73.528C218.537 73.528 218.261 73.384 218.261 73.06V64.252C218.261 63.928 218.537 63.784 218.813 63.784C219.101 63.784 219.377 63.928 219.377 64.252V67.348H220.733V64.132C220.733 63.808 221.009 63.664 221.285 63.664ZM231.799 64.204C232.099 64.204 232.231 64.432 232.231 64.72C232.231 64.984 232.099 65.224 231.799 65.224H229.027V65.368C229.027 66.124 229.255 66.484 230.095 66.916C230.887 67.324 231.547 67.636 232.291 67.972C232.555 68.092 232.603 68.404 232.471 68.668C232.351 68.932 232.063 69.064 231.811 68.956C231.007 68.596 230.371 68.296 229.627 67.912C228.775 67.48 228.499 67.18 228.427 66.892H228.415C228.343 67.204 228.055 67.504 227.215 67.936C226.459 68.32 225.823 68.62 225.031 68.98C224.767 69.088 224.479 68.956 224.359 68.68C224.215 68.416 224.275 68.092 224.539 67.972C225.283 67.636 225.943 67.324 226.747 66.916C227.575 66.484 227.803 66.124 227.803 65.368V65.224H225.031C224.731 65.224 224.599 64.984 224.599 64.72C224.599 64.432 224.731 64.204 225.031 64.204H231.799ZM233.035 69.976C233.323 69.976 233.455 70.216 233.455 70.492C233.455 70.768 233.323 70.996 233.035 70.996H229.015V74.368C229.015 74.716 228.727 74.872 228.415 74.872C228.103 74.872 227.815 74.716 227.815 74.368V70.996H223.795C223.507 70.996 223.375 70.768 223.375 70.492C223.375 70.216 223.507 69.976 223.795 69.976H233.035ZM237.033 64.3C237.345 64.3 237.633 64.456 237.633 64.804V66.64C237.633 67.648 237.813 68.224 238.377 68.908C238.785 69.412 239.217 69.88 239.541 70.228C239.745 70.456 239.697 70.792 239.481 70.984C239.289 71.164 238.953 71.188 238.737 70.972C238.497 70.72 238.125 70.312 237.765 69.88C237.225 69.244 237.093 68.944 237.045 68.692H237.033C236.985 68.968 236.865 69.268 236.313 69.928C235.953 70.348 235.569 70.78 235.185 71.176C234.969 71.404 234.609 71.356 234.429 71.176C234.213 70.96 234.153 70.624 234.381 70.396C234.837 69.904 235.281 69.412 235.701 68.908C236.253 68.224 236.433 67.648 236.433 66.64V64.804C236.433 64.456 236.733 64.3 237.033 64.3ZM243.129 63.664C243.417 63.664 243.693 63.808 243.693 64.132V73.564C243.693 73.888 243.417 74.032 243.129 74.032C242.853 74.032 242.577 73.888 242.577 73.564V64.132C242.577 63.808 242.853 63.664 243.129 63.664ZM240.981 63.784C241.257 63.784 241.533 63.928 241.533 64.252V73.06C241.533 73.384 241.257 73.528 240.981 73.528C240.693 73.528 240.417 73.384 240.417 73.06V67.912H239.217C238.929 67.912 238.797 67.684 238.797 67.396C238.797 67.108 238.929 66.88 239.217 66.88H240.417V64.252C240.417 63.928 240.693 63.784 240.981 63.784ZM250.259 64.084C252.575 64.084 253.955 65.14 253.955 66.94C253.955 68.74 252.575 69.796 250.259 69.796C247.943 69.796 246.575 68.74 246.575 66.94C246.575 65.14 247.943 64.084 250.259 64.084ZM250.259 65.104C248.543 65.104 247.775 65.896 247.775 66.94C247.775 67.996 248.543 68.776 250.259 68.776C251.975 68.776 252.743 67.996 252.743 66.94C252.743 65.896 251.975 65.104 250.259 65.104ZM248.411 70.036C248.723 70.036 249.011 70.192 249.011 70.528V71.98H251.507V70.528C251.507 70.192 251.795 70.036 252.107 70.036C252.431 70.036 252.707 70.192 252.707 70.528V71.98H254.879C255.167 71.98 255.299 72.208 255.299 72.472C255.299 72.748 255.167 72.988 254.879 72.988H245.639C245.351 72.988 245.219 72.748 245.219 72.472C245.219 72.208 245.351 71.98 245.639 71.98H247.811V70.528C247.811 70.192 248.087 70.036 248.411 70.036ZM257.533 64.12C257.929 64.12 258.205 64.288 258.193 64.696L258.049 70.36C258.037 70.744 257.797 70.876 257.533 70.876C257.269 70.876 257.029 70.744 257.029 70.36L256.873 64.696C256.873 64.288 257.137 64.12 257.533 64.12ZM257.533 71.86C257.977 71.86 258.325 72.196 258.325 72.64C258.325 73.084 257.977 73.432 257.533 73.432C257.089 73.432 256.741 73.084 256.741 72.64C256.741 72.196 257.089 71.86 257.533 71.86Z" fill="#807F7D"/>
</svg>
