<svg width="375" height="88" viewBox="0 0 375 88" fill="none" xmlns="http://www.w3.org/2000/svg">
<rect width="375" height="88" rx="12" fill="#FFFDFA"/>
<path d="M55.564 18.432H61.72C62.416 18.432 62.644 18.648 62.644 19.332V20.436C62.644 21.9 62.5 23.016 62.26 24.108C62.188 24.432 61.876 24.564 61.528 24.492C61.24 24.444 61.024 24.24 61.084 23.928C61.312 22.8 61.444 21.72 61.444 20.4V19.728C61.444 19.548 61.372 19.476 61.192 19.476H55.564C55.264 19.476 55.144 19.248 55.144 18.96C55.144 18.672 55.264 18.432 55.564 18.432ZM58.204 21.948C58.516 21.948 58.804 22.104 58.804 22.452V25.968H63.58C63.868 25.968 64 26.196 64 26.472C64 26.748 63.868 26.988 63.58 26.988H54.34C54.052 26.988 53.92 26.748 53.92 26.472C53.92 26.196 54.052 25.968 54.34 25.968H57.616V22.452C57.616 22.104 57.904 21.948 58.204 21.948ZM65.5379 18.348H68.4659C69.1619 18.348 69.3899 18.564 69.3899 19.248V20.16C69.3899 21.852 69.0539 22.248 65.8019 24.048C65.5499 24.192 65.2259 24.06 65.0939 23.832C64.9499 23.58 64.9619 23.232 65.2259 23.088C68.0459 21.54 68.2379 21.336 68.2379 20.124V19.632C68.2379 19.452 68.1659 19.38 67.9859 19.38H65.5379C65.2499 19.38 65.1179 19.152 65.1179 18.876C65.1179 18.588 65.2499 18.348 65.5379 18.348ZM73.6739 17.664C73.9619 17.664 74.2379 17.808 74.2379 18.132V23.688C74.2379 24 73.9619 24.156 73.6739 24.156C73.3979 24.156 73.1219 24 73.1219 23.688V21.348H71.7659V23.628C71.7659 23.94 71.4899 24.096 71.2019 24.096C70.9259 24.096 70.6499 23.94 70.6499 23.628V18.192C70.6499 17.868 70.9259 17.724 71.2019 17.724C71.4899 17.724 71.7659 17.868 71.7659 18.192V20.34H73.1219V18.132C73.1219 17.808 73.3979 17.664 73.6739 17.664ZM73.3139 24.672C74.0099 24.672 74.2379 24.888 74.2379 25.572V28.32C74.2379 28.668 73.9499 28.824 73.6379 28.824C73.3259 28.824 73.0379 28.668 73.0379 28.32V25.944C73.0379 25.764 72.9659 25.704 72.7859 25.704H67.1459C66.8459 25.704 66.7139 25.464 66.7139 25.188C66.7139 24.912 66.8459 24.672 67.1459 24.672H73.3139ZM78.4998 18.192C78.8118 18.192 79.0998 18.348 79.0998 18.696V19.92C79.0998 20.748 79.2438 21.276 79.7958 21.852C80.2278 22.32 80.6358 22.692 80.9478 22.98C81.1638 23.184 81.1518 23.52 80.9598 23.748C80.7678 23.964 80.4438 24.012 80.2038 23.796C79.9278 23.544 79.6158 23.256 79.2558 22.884C78.7398 22.368 78.5598 22.08 78.5117 21.84H78.4998C78.4518 22.116 78.2838 22.416 77.7558 22.944C77.3238 23.388 77.0238 23.664 76.6038 24.048C76.3758 24.24 76.0518 24.18 75.8598 23.952C75.6678 23.736 75.6438 23.4 75.8598 23.196C76.3038 22.8 76.7718 22.344 77.2158 21.888C77.7558 21.312 77.8998 20.784 77.8998 19.956V18.696C77.8998 18.348 78.1998 18.192 78.4998 18.192ZM82.4478 17.724C82.7238 17.724 82.9998 17.868 82.9998 18.192V24.804C82.9998 25.128 82.7238 25.272 82.4478 25.272C82.1598 25.272 81.8838 25.128 81.8838 24.804V21.168H80.6838C80.3958 21.168 80.2638 20.928 80.2638 20.652C80.2638 20.364 80.3958 20.136 80.6838 20.136H81.8838V18.192C81.8838 17.868 82.1598 17.724 82.4478 17.724ZM84.5958 17.664C84.8838 17.664 85.1598 17.808 85.1598 18.132V25.308C85.1598 25.62 84.8838 25.776 84.5958 25.776C84.3198 25.776 84.0438 25.62 84.0438 25.308V18.132C84.0438 17.808 84.3198 17.664 84.5958 17.664ZM78.4638 24.768C78.7638 24.768 79.0638 24.924 79.0638 25.272V27.3C79.0638 27.48 79.1238 27.54 79.3158 27.54H85.0158C85.3158 27.54 85.4478 27.78 85.4478 28.068C85.4478 28.344 85.3158 28.584 85.0158 28.584H78.7758C78.0798 28.584 77.8518 28.368 77.8518 27.684V25.272C77.8518 24.924 78.1398 24.768 78.4638 24.768ZM92.0616 18.408C92.3496 18.408 92.4816 18.648 92.4816 18.924C92.4816 19.2 92.3496 19.44 92.0616 19.44H88.7376C88.5456 19.44 88.4856 19.5 88.4856 19.68V21.372H91.5816C91.8696 21.372 92.0016 21.588 92.0016 21.864C92.0016 22.14 91.8696 22.368 91.5816 22.368H88.4856V24.108C88.4856 24.288 88.5456 24.348 88.7376 24.348C90.3216 24.348 91.6536 24.276 92.9496 24.096C93.2256 24.06 93.4056 24.252 93.4296 24.54C93.4656 24.816 93.3576 25.08 93.0936 25.116C91.9776 25.272 90.5496 25.38 88.2216 25.38C87.5256 25.38 87.2976 25.164 87.2976 24.48V19.308C87.2976 18.624 87.5256 18.408 88.2216 18.408H92.0616ZM95.2056 17.664C95.5176 17.664 95.8056 17.82 95.8056 18.168V27.528C95.8056 27.876 95.5176 28.032 95.2056 28.032C94.9056 28.032 94.6176 27.876 94.6176 27.528V22.284H93.0576C92.7576 22.284 92.6256 22.056 92.6256 21.768C92.6256 21.48 92.7576 21.252 93.0576 21.252H94.6176V18.168C94.6176 17.82 94.9056 17.664 95.2056 17.664ZM103.692 20.508C105.36 20.508 106.464 21.552 106.464 23.352V23.376C106.464 23.988 106.236 24.204 105.612 24.204H101.988V24.252C101.988 25.392 102.612 26.052 103.764 26.052C104.472 26.052 104.988 25.92 105.492 25.656C105.756 25.524 106.02 25.608 106.14 25.872C106.26 26.136 106.2 26.412 105.96 26.544C105.384 26.868 104.676 27.048 103.715 27.048C101.916 27.048 100.824 26.016 100.824 23.988V23.58C100.824 21.552 101.928 20.508 103.692 20.508ZM103.668 21.504C102.588 21.504 101.988 22.164 101.988 23.232V23.304H105.324V23.196C105.324 22.164 104.784 21.504 103.668 21.504ZM111.218 22.2C111.494 22.2 111.626 22.416 111.626 22.704C111.626 22.98 111.494 23.208 111.218 23.208H108.014C107.726 23.208 107.594 22.98 107.594 22.704C107.594 22.416 107.726 22.2 108.014 22.2H111.218ZM116.112 20.508C117.036 20.508 117.696 20.964 117.924 21.6C118.344 20.94 118.968 20.508 119.988 20.508C121.332 20.508 122.196 21.42 122.196 22.884V26.52C122.196 26.856 121.908 27.012 121.608 27.012C121.308 27.012 121.02 26.856 121.02 26.52V23.136C121.02 21.984 120.516 21.564 119.676 21.564C118.848 21.564 118.248 22.14 118.248 23.076V26.52C118.248 26.856 117.972 27.012 117.66 27.012C117.36 27.012 117.072 26.856 117.072 26.52V23.124C117.072 22.02 116.592 21.564 115.728 21.564C114.816 21.564 114.312 22.236 114.312 23.04V26.52C114.312 26.856 114.024 27.012 113.712 27.012C113.412 27.012 113.124 26.856 113.124 26.52V21.072C113.124 20.736 113.4 20.592 113.688 20.592C113.976 20.592 114.252 20.736 114.252 21.072V21.564C114.564 20.964 115.188 20.508 116.112 20.508ZM126.457 20.508C127.969 20.508 128.965 21.3 128.965 22.608V26.556C128.965 26.868 128.701 27.012 128.425 27.012C128.149 27.012 127.885 26.868 127.885 26.556V26.1H127.873C127.753 26.376 127.489 26.604 127.177 26.76C126.853 26.928 126.409 27.048 125.929 27.048C124.549 27.048 123.733 26.352 123.733 25.176V25.02C123.733 23.964 124.369 23.172 126.121 23.172H127.789V22.872C127.789 21.948 127.369 21.54 126.433 21.54C125.869 21.54 125.317 21.708 124.825 22.02C124.573 22.176 124.309 22.08 124.153 21.84C124.009 21.6 124.033 21.312 124.285 21.144C124.825 20.772 125.617 20.508 126.457 20.508ZM126.157 24.096C125.221 24.096 124.885 24.504 124.885 25.08V25.128C124.885 25.716 125.281 26.052 126.025 26.052C126.493 26.052 126.853 25.98 127.165 25.812C127.573 25.572 127.801 25.236 127.801 24.708V24.096H126.157ZM131.444 18.216C131.888 18.216 132.236 18.552 132.236 18.972C132.236 19.404 131.888 19.74 131.444 19.74C131 19.74 130.652 19.404 130.652 18.972C130.652 18.552 131 18.216 131.444 18.216ZM131.444 20.592C131.756 20.592 132.032 20.748 132.032 21.084V26.52C132.032 26.856 131.756 27.012 131.444 27.012C131.144 27.012 130.856 26.856 130.856 26.52V21.084C130.856 20.748 131.144 20.592 131.444 20.592ZM134.595 18.06C134.907 18.06 135.195 18.216 135.195 18.564V26.508C135.195 26.856 134.907 27.012 134.595 27.012C134.295 27.012 134.007 26.856 134.007 26.508V18.564C134.007 18.216 134.295 18.06 134.595 18.06Z" fill="#807F7D"/>
<rect x="46" y="12.5" width="98" height="21" rx="10.5" stroke="#807F7D"/>
<path d="M156.782 17.564C157.146 17.564 157.482 17.746 157.482 18.152V19.594H159.106C159.428 19.594 159.582 19.86 159.582 20.168C159.582 20.476 159.428 20.728 159.106 20.728H157.482V24.732C157.482 25.572 157.72 25.88 158.336 25.88C158.588 25.88 158.798 25.838 159.022 25.754C159.274 25.67 159.554 25.754 159.666 26.104C159.778 26.426 159.666 26.706 159.386 26.832C159.078 26.972 158.672 27.056 158.238 27.056C156.726 27.056 156.096 26.356 156.096 24.732V20.728H155.256C154.934 20.728 154.78 20.476 154.78 20.168C154.78 19.86 154.934 19.594 155.256 19.594H156.096V18.152C156.096 17.746 156.432 17.564 156.782 17.564ZM164.207 19.426C166.153 19.426 167.441 20.644 167.441 22.744V22.772C167.441 23.486 167.175 23.738 166.447 23.738H162.219V23.794C162.219 25.124 162.947 25.894 164.291 25.894C165.117 25.894 165.719 25.74 166.307 25.432C166.615 25.278 166.923 25.376 167.063 25.684C167.203 25.992 167.133 26.314 166.853 26.468C166.181 26.846 165.355 27.056 164.235 27.056C162.135 27.056 160.861 25.852 160.861 23.486V23.01C160.861 20.644 162.149 19.426 164.207 19.426ZM164.179 20.588C162.919 20.588 162.219 21.358 162.219 22.604V22.688H166.111V22.562C166.111 21.358 165.481 20.588 164.179 20.588ZM169.978 16.57C170.342 16.57 170.678 16.752 170.678 17.158V26.426C170.678 26.832 170.342 27.014 169.978 27.014C169.628 27.014 169.292 26.832 169.292 26.426V17.158C169.292 16.752 169.628 16.57 169.978 16.57ZM173.629 16.57C173.993 16.57 174.329 16.752 174.329 17.158V26.426C174.329 26.832 173.993 27.014 173.629 27.014C173.279 27.014 172.943 26.832 172.943 26.426V17.158C172.943 16.752 173.279 16.57 173.629 16.57ZM177.321 16.752C177.839 16.752 178.245 17.144 178.245 17.634C178.245 18.138 177.839 18.53 177.321 18.53C176.803 18.53 176.397 18.138 176.397 17.634C176.397 17.144 176.803 16.752 177.321 16.752ZM177.321 19.524C177.685 19.524 178.007 19.706 178.007 20.098V26.44C178.007 26.832 177.685 27.014 177.321 27.014C176.971 27.014 176.635 26.832 176.635 26.44V20.098C176.635 19.706 176.971 19.524 177.321 19.524ZM183.98 19.426C185.646 19.426 186.64 20.42 186.64 22.156V26.44C186.64 26.832 186.304 27.014 185.954 27.014C185.604 27.014 185.268 26.832 185.268 26.44V22.478C185.268 21.134 184.652 20.644 183.588 20.644C182.566 20.644 181.698 21.358 181.698 22.506V26.44C181.698 26.832 181.362 27.014 180.998 27.014C180.648 27.014 180.312 26.832 180.312 26.44V20.084C180.312 19.692 180.634 19.524 180.97 19.524C181.306 19.524 181.628 19.692 181.628 20.084V20.574H181.656C182.006 19.93 182.93 19.426 183.98 19.426ZM191.503 19.426C192.609 19.426 193.365 19.902 193.659 20.364H193.673V20.084C193.673 19.692 193.995 19.524 194.345 19.524C194.681 19.524 195.003 19.692 195.003 20.084V26.734C195.003 28.876 193.841 29.87 191.629 29.87C190.761 29.87 189.963 29.632 189.403 29.296C189.095 29.114 189.081 28.736 189.235 28.456C189.417 28.148 189.683 28.036 190.019 28.204C190.453 28.456 191.041 28.666 191.629 28.666C192.917 28.666 193.645 28.092 193.645 26.72V25.726H193.617C193.225 26.482 192.385 26.86 191.377 26.86C189.459 26.86 188.437 25.628 188.437 23.346V22.954C188.437 20.63 189.641 19.426 191.503 19.426ZM191.685 20.63C190.481 20.63 189.809 21.414 189.809 23.01V23.29C189.809 24.9 190.383 25.67 191.629 25.67C192.763 25.67 193.645 24.844 193.645 23.654V22.24C193.645 21.442 192.959 20.63 191.685 20.63ZM200.751 19.426C201.829 19.426 202.599 19.958 202.865 20.7C203.355 19.93 204.083 19.426 205.273 19.426C206.841 19.426 207.849 20.49 207.849 22.198V26.44C207.849 26.832 207.513 27.014 207.163 27.014C206.813 27.014 206.477 26.832 206.477 26.44V22.492C206.477 21.148 205.889 20.658 204.909 20.658C203.943 20.658 203.243 21.33 203.243 22.422V26.44C203.243 26.832 202.921 27.014 202.557 27.014C202.207 27.014 201.871 26.832 201.871 26.44V22.478C201.871 21.19 201.311 20.658 200.303 20.658C199.239 20.658 198.651 21.442 198.651 22.38V26.44C198.651 26.832 198.315 27.014 197.951 27.014C197.601 27.014 197.265 26.832 197.265 26.44V20.084C197.265 19.692 197.587 19.524 197.923 19.524C198.259 19.524 198.581 19.692 198.581 20.084V20.658C198.945 19.958 199.673 19.426 200.751 19.426ZM213.002 19.426C214.948 19.426 216.236 20.644 216.236 22.744V22.772C216.236 23.486 215.97 23.738 215.242 23.738H211.014V23.794C211.014 25.124 211.742 25.894 213.086 25.894C213.912 25.894 214.514 25.74 215.102 25.432C215.41 25.278 215.718 25.376 215.858 25.684C215.998 25.992 215.928 26.314 215.648 26.468C214.976 26.846 214.15 27.056 213.03 27.056C210.93 27.056 209.656 25.852 209.656 23.486V23.01C209.656 20.644 210.944 19.426 213.002 19.426ZM212.974 20.588C211.714 20.588 211.014 21.358 211.014 22.604V22.688H214.906V22.562C214.906 21.358 214.276 20.588 212.974 20.588ZM219.235 17.564C219.599 17.564 219.935 17.746 219.935 18.152V19.594H221.559C221.881 19.594 222.035 19.86 222.035 20.168C222.035 20.476 221.881 20.728 221.559 20.728H219.935V24.732C219.935 25.572 220.173 25.88 220.789 25.88C221.041 25.88 221.251 25.838 221.475 25.754C221.727 25.67 222.007 25.754 222.119 26.104C222.231 26.426 222.119 26.706 221.839 26.832C221.531 26.972 221.125 27.056 220.691 27.056C219.179 27.056 218.549 26.356 218.549 24.732V20.728H217.709C217.387 20.728 217.233 20.476 217.233 20.168C217.233 19.86 217.387 19.594 217.709 19.594H218.549V18.152C218.549 17.746 218.885 17.564 219.235 17.564ZM224.434 16.752C224.952 16.752 225.358 17.144 225.358 17.634C225.358 18.138 224.952 18.53 224.434 18.53C223.916 18.53 223.51 18.138 223.51 17.634C223.51 17.144 223.916 16.752 224.434 16.752ZM224.434 19.524C224.798 19.524 225.12 19.706 225.12 20.098V26.44C225.12 26.832 224.798 27.014 224.434 27.014C224.084 27.014 223.748 26.832 223.748 26.44V20.098C223.748 19.706 224.084 19.524 224.434 19.524ZM230.911 19.426C231.989 19.426 232.759 19.958 233.025 20.7C233.515 19.93 234.243 19.426 235.433 19.426C237.001 19.426 238.009 20.49 238.009 22.198V26.44C238.009 26.832 237.673 27.014 237.323 27.014C236.973 27.014 236.637 26.832 236.637 26.44V22.492C236.637 21.148 236.049 20.658 235.069 20.658C234.103 20.658 233.403 21.33 233.403 22.422V26.44C233.403 26.832 233.081 27.014 232.717 27.014C232.367 27.014 232.031 26.832 232.031 26.44V22.478C232.031 21.19 231.471 20.658 230.463 20.658C229.399 20.658 228.811 21.442 228.811 22.38V26.44C228.811 26.832 228.475 27.014 228.111 27.014C227.761 27.014 227.425 26.832 227.425 26.44V20.084C227.425 19.692 227.747 19.524 228.083 19.524C228.419 19.524 228.741 19.692 228.741 20.084V20.658C229.105 19.958 229.833 19.426 230.911 19.426ZM243.162 19.426C245.108 19.426 246.396 20.644 246.396 22.744V22.772C246.396 23.486 246.13 23.738 245.402 23.738H241.174V23.794C241.174 25.124 241.902 25.894 243.246 25.894C244.072 25.894 244.674 25.74 245.262 25.432C245.57 25.278 245.878 25.376 246.018 25.684C246.158 25.992 246.088 26.314 245.808 26.468C245.136 26.846 244.31 27.056 243.19 27.056C241.09 27.056 239.816 25.852 239.816 23.486V23.01C239.816 20.644 241.104 19.426 243.162 19.426ZM243.134 20.588C241.874 20.588 241.174 21.358 241.174 22.604V22.688H245.066V22.562C245.066 21.358 244.436 20.588 243.134 20.588ZM253.959 16.374C258.089 16.374 260.315 18.796 260.315 22.366V22.408C260.315 24.032 259.783 26.034 257.739 26.034C256.997 26.034 256.283 25.698 256.031 24.816H256.017C255.653 25.712 254.505 26.006 253.847 26.006C251.971 26.006 251.075 24.788 251.075 22.982V22.464C251.075 20.602 252.041 19.454 253.721 19.454C254.673 19.454 255.317 19.846 255.583 20.364V20.042C255.583 19.664 255.905 19.496 256.227 19.496C256.549 19.496 256.871 19.664 256.871 20.042V23.836C256.871 24.62 257.235 24.998 257.823 24.998C258.705 24.998 259.223 24.256 259.223 22.45V22.408C259.223 19.272 257.375 17.382 253.959 17.382C251.047 17.382 248.947 19.328 248.947 22.59V22.66C248.947 26.118 250.935 28.064 254.211 28.064C255.625 28.064 256.871 27.77 257.809 27.35C258.075 27.224 258.355 27.294 258.481 27.56C258.607 27.826 258.537 28.12 258.243 28.274C257.291 28.722 255.919 29.086 254.253 29.086C250.235 29.086 247.841 26.608 247.841 22.674V22.576C247.841 18.992 250.193 16.374 253.959 16.374ZM253.945 20.644C252.951 20.644 252.419 21.232 252.419 22.548V22.926C252.419 24.102 252.839 24.788 253.945 24.788C254.883 24.788 255.527 24.186 255.527 23.22V22.1C255.527 21.26 254.967 20.644 253.945 20.644ZM264.853 19.426C265.959 19.426 266.715 19.902 267.009 20.364H267.023V20.084C267.023 19.692 267.345 19.524 267.695 19.524C268.031 19.524 268.353 19.692 268.353 20.084V26.734C268.353 28.876 267.191 29.87 264.979 29.87C264.111 29.87 263.313 29.632 262.753 29.296C262.445 29.114 262.431 28.736 262.585 28.456C262.767 28.148 263.033 28.036 263.369 28.204C263.803 28.456 264.391 28.666 264.979 28.666C266.267 28.666 266.995 28.092 266.995 26.72V25.726H266.967C266.575 26.482 265.735 26.86 264.727 26.86C262.809 26.86 261.787 25.628 261.787 23.346V22.954C261.787 20.63 262.991 19.426 264.853 19.426ZM265.035 20.63C263.831 20.63 263.159 21.414 263.159 23.01V23.29C263.159 24.9 263.733 25.67 264.979 25.67C266.113 25.67 266.995 24.844 266.995 23.654V22.24C266.995 21.442 266.309 20.63 265.035 20.63ZM274.1 19.426C275.178 19.426 275.948 19.958 276.214 20.7C276.704 19.93 277.432 19.426 278.622 19.426C280.19 19.426 281.198 20.49 281.198 22.198V26.44C281.198 26.832 280.862 27.014 280.512 27.014C280.162 27.014 279.826 26.832 279.826 26.44V22.492C279.826 21.148 279.238 20.658 278.258 20.658C277.292 20.658 276.592 21.33 276.592 22.422V26.44C276.592 26.832 276.27 27.014 275.906 27.014C275.556 27.014 275.22 26.832 275.22 26.44V22.478C275.22 21.19 274.66 20.658 273.652 20.658C272.588 20.658 272 21.442 272 22.38V26.44C272 26.832 271.664 27.014 271.3 27.014C270.95 27.014 270.614 26.832 270.614 26.44V20.084C270.614 19.692 270.936 19.524 271.272 19.524C271.608 19.524 271.93 19.692 271.93 20.084V20.658C272.294 19.958 273.022 19.426 274.1 19.426ZM286.17 19.426C287.934 19.426 289.096 20.35 289.096 21.876V26.482C289.096 26.846 288.788 27.014 288.466 27.014C288.144 27.014 287.836 26.846 287.836 26.482V25.95H287.822C287.682 26.272 287.374 26.538 287.01 26.72C286.632 26.916 286.114 27.056 285.554 27.056C283.944 27.056 282.992 26.244 282.992 24.872V24.69C282.992 23.458 283.734 22.534 285.778 22.534H287.724V22.184C287.724 21.106 287.234 20.63 286.142 20.63C285.484 20.63 284.84 20.826 284.266 21.19C283.972 21.372 283.664 21.26 283.482 20.98C283.314 20.7 283.342 20.364 283.636 20.168C284.266 19.734 285.19 19.426 286.17 19.426ZM285.82 23.612C284.728 23.612 284.336 24.088 284.336 24.76V24.816C284.336 25.502 284.798 25.894 285.666 25.894C286.212 25.894 286.632 25.81 286.996 25.614C287.472 25.334 287.738 24.942 287.738 24.326V23.612H285.82ZM291.987 16.752C292.505 16.752 292.911 17.144 292.911 17.634C292.911 18.138 292.505 18.53 291.987 18.53C291.469 18.53 291.063 18.138 291.063 17.634C291.063 17.144 291.469 16.752 291.987 16.752ZM291.987 19.524C292.351 19.524 292.673 19.706 292.673 20.098V26.44C292.673 26.832 292.351 27.014 291.987 27.014C291.637 27.014 291.301 26.832 291.301 26.44V20.098C291.301 19.706 291.637 19.524 291.987 19.524ZM295.664 16.57C296.028 16.57 296.364 16.752 296.364 17.158V26.426C296.364 26.832 296.028 27.014 295.664 27.014C295.314 27.014 294.978 26.832 294.978 26.426V17.158C294.978 16.752 295.314 16.57 295.664 16.57ZM299.23 25.614C299.776 25.614 300.182 26.02 300.182 26.552C300.182 27.098 299.776 27.504 299.23 27.504C298.698 27.504 298.292 27.098 298.292 26.552C298.292 26.02 298.698 25.614 299.23 25.614ZM305.054 19.426C306.104 19.426 306.86 19.692 307.392 20.042C307.686 20.238 307.728 20.602 307.532 20.896C307.35 21.162 307.056 21.26 306.762 21.078C306.272 20.798 305.726 20.644 305.054 20.644C303.822 20.644 303.108 21.386 303.108 23.038V23.458C303.108 25.054 303.85 25.838 305.082 25.838C305.824 25.838 306.426 25.67 306.916 25.362C307.224 25.18 307.56 25.264 307.714 25.558C307.896 25.852 307.868 26.216 307.56 26.412C306.986 26.79 306.118 27.056 305.068 27.056C302.982 27.056 301.722 25.866 301.722 23.472V23.01C301.722 20.616 302.982 19.426 305.054 19.426ZM312.481 19.426C314.623 19.426 315.925 20.658 315.925 23.01V23.472C315.925 25.824 314.623 27.056 312.481 27.056C310.339 27.056 309.037 25.824 309.037 23.472V23.01C309.037 20.658 310.339 19.426 312.481 19.426ZM312.481 20.644C311.137 20.644 310.423 21.386 310.423 23.052V23.43C310.423 25.11 311.137 25.838 312.481 25.838C313.839 25.838 314.539 25.11 314.539 23.43V23.052C314.539 21.386 313.839 20.644 312.481 20.644ZM321.282 19.426C322.36 19.426 323.13 19.958 323.396 20.7C323.886 19.93 324.614 19.426 325.804 19.426C327.372 19.426 328.38 20.49 328.38 22.198V26.44C328.38 26.832 328.044 27.014 327.694 27.014C327.344 27.014 327.008 26.832 327.008 26.44V22.492C327.008 21.148 326.42 20.658 325.44 20.658C324.474 20.658 323.774 21.33 323.774 22.422V26.44C323.774 26.832 323.452 27.014 323.088 27.014C322.738 27.014 322.402 26.832 322.402 26.44V22.478C322.402 21.19 321.842 20.658 320.834 20.658C319.77 20.658 319.182 21.442 319.182 22.38V26.44C319.182 26.832 318.846 27.014 318.482 27.014C318.132 27.014 317.796 26.832 317.796 26.44V20.084C317.796 19.692 318.118 19.524 318.454 19.524C318.79 19.524 319.112 19.692 319.112 20.084V20.658C319.476 19.958 320.204 19.426 321.282 19.426Z" fill="#807F7D"/>
<path d="M69.3238 46.432H75.4798C76.1758 46.432 76.4038 46.648 76.4038 47.332V48.436C76.4038 49.9 76.2598 51.016 76.0198 52.108C75.9478 52.432 75.6358 52.564 75.2878 52.492C74.9998 52.444 74.7838 52.24 74.8438 51.928C75.0718 50.8 75.2038 49.72 75.2038 48.4V47.728C75.2038 47.548 75.1318 47.476 74.9518 47.476H69.3238C69.0238 47.476 68.9038 47.248 68.9038 46.96C68.9038 46.672 69.0238 46.432 69.3238 46.432ZM71.9638 49.948C72.2758 49.948 72.5638 50.104 72.5638 50.452V53.968H77.3398C77.6278 53.968 77.7598 54.196 77.7598 54.472C77.7598 54.748 77.6278 54.988 77.3398 54.988H68.0998C67.8118 54.988 67.6798 54.748 67.6798 54.472C67.6798 54.196 67.8118 53.968 68.0998 53.968H71.3758V50.452C71.3758 50.104 71.6638 49.948 71.9638 49.948ZM79.2976 46.348H82.2256C82.9216 46.348 83.1496 46.564 83.1496 47.248V48.16C83.1496 49.852 82.8136 50.248 79.5616 52.048C79.3096 52.192 78.9856 52.06 78.8536 51.832C78.7096 51.58 78.7216 51.232 78.9856 51.088C81.8056 49.54 81.9976 49.336 81.9976 48.124V47.632C81.9976 47.452 81.9256 47.38 81.7456 47.38H79.2976C79.0096 47.38 78.8776 47.152 78.8776 46.876C78.8776 46.588 79.0096 46.348 79.2976 46.348ZM87.4336 45.664C87.7216 45.664 87.9976 45.808 87.9976 46.132V51.688C87.9976 52 87.7216 52.156 87.4336 52.156C87.1576 52.156 86.8816 52 86.8816 51.688V49.348H85.5256V51.628C85.5256 51.94 85.2496 52.096 84.9616 52.096C84.6856 52.096 84.4096 51.94 84.4096 51.628V46.192C84.4096 45.868 84.6856 45.724 84.9616 45.724C85.2496 45.724 85.5256 45.868 85.5256 46.192V48.34H86.8816V46.132C86.8816 45.808 87.1576 45.664 87.4336 45.664ZM87.0736 52.672C87.7696 52.672 87.9976 52.888 87.9976 53.572V56.32C87.9976 56.668 87.7096 56.824 87.3976 56.824C87.0856 56.824 86.7976 56.668 86.7976 56.32V53.944C86.7976 53.764 86.7256 53.704 86.5456 53.704H80.9056C80.6056 53.704 80.4736 53.464 80.4736 53.188C80.4736 52.912 80.6056 52.672 80.9056 52.672H87.0736ZM92.2595 46.192C92.5715 46.192 92.8595 46.348 92.8595 46.696V47.92C92.8595 48.748 93.0035 49.276 93.5555 49.852C93.9875 50.32 94.3955 50.692 94.7075 50.98C94.9235 51.184 94.9115 51.52 94.7195 51.748C94.5275 51.964 94.2035 52.012 93.9635 51.796C93.6875 51.544 93.3755 51.256 93.0155 50.884C92.4995 50.368 92.3195 50.08 92.2715 49.84H92.2595C92.2115 50.116 92.0435 50.416 91.5155 50.944C91.0835 51.388 90.7835 51.664 90.3635 52.048C90.1355 52.24 89.8115 52.18 89.6195 51.952C89.4275 51.736 89.4035 51.4 89.6195 51.196C90.0635 50.8 90.5315 50.344 90.9755 49.888C91.5155 49.312 91.6595 48.784 91.6595 47.956V46.696C91.6595 46.348 91.9595 46.192 92.2595 46.192ZM96.2075 45.724C96.4835 45.724 96.7595 45.868 96.7595 46.192V52.804C96.7595 53.128 96.4835 53.272 96.2075 53.272C95.9195 53.272 95.6435 53.128 95.6435 52.804V49.168H94.4435C94.1555 49.168 94.0235 48.928 94.0235 48.652C94.0235 48.364 94.1555 48.136 94.4435 48.136H95.6435V46.192C95.6435 45.868 95.9195 45.724 96.2075 45.724ZM98.3555 45.664C98.6435 45.664 98.9195 45.808 98.9195 46.132V53.308C98.9195 53.62 98.6435 53.776 98.3555 53.776C98.0795 53.776 97.8035 53.62 97.8035 53.308V46.132C97.8035 45.808 98.0795 45.664 98.3555 45.664ZM92.2235 52.768C92.5235 52.768 92.8235 52.924 92.8235 53.272V55.3C92.8235 55.48 92.8835 55.54 93.0755 55.54H98.7755C99.0755 55.54 99.2075 55.78 99.2075 56.068C99.2075 56.344 99.0755 56.584 98.7755 56.584H92.5355C91.8395 56.584 91.6115 56.368 91.6115 55.684V53.272C91.6115 52.924 91.8995 52.768 92.2235 52.768ZM105.821 46.408C106.109 46.408 106.241 46.648 106.241 46.924C106.241 47.2 106.109 47.44 105.821 47.44H102.497C102.305 47.44 102.245 47.5 102.245 47.68V49.372H105.341C105.629 49.372 105.761 49.588 105.761 49.864C105.761 50.14 105.629 50.368 105.341 50.368H102.245V52.108C102.245 52.288 102.305 52.348 102.497 52.348C104.081 52.348 105.413 52.276 106.709 52.096C106.985 52.06 107.165 52.252 107.189 52.54C107.225 52.816 107.117 53.08 106.853 53.116C105.737 53.272 104.309 53.38 101.981 53.38C101.285 53.38 101.057 53.164 101.057 52.48V47.308C101.057 46.624 101.285 46.408 101.981 46.408H105.821ZM108.965 45.664C109.277 45.664 109.565 45.82 109.565 46.168V55.528C109.565 55.876 109.277 56.032 108.965 56.032C108.665 56.032 108.377 55.876 108.377 55.528V50.284H106.817C106.517 50.284 106.385 50.056 106.385 49.768C106.385 49.48 106.517 49.252 106.817 49.252H108.377V46.168C108.377 45.82 108.665 45.664 108.965 45.664ZM118.735 46.252C119.035 46.252 119.167 46.492 119.167 46.756C119.167 47.032 119.035 47.26 118.735 47.26H116.107C115.927 47.26 115.855 47.332 115.855 47.512V48.436H118.567C118.855 48.436 118.987 48.664 118.987 48.928C118.987 49.18 118.855 49.408 118.567 49.408H115.855V50.38C115.855 50.56 115.927 50.632 116.107 50.632C117.115 50.632 118.315 50.56 119.155 50.44C119.419 50.404 119.599 50.596 119.623 50.872C119.659 51.16 119.551 51.4 119.287 51.436C118.675 51.544 117.367 51.628 115.615 51.628C114.919 51.628 114.691 51.412 114.691 50.74V47.152C114.691 46.468 114.919 46.252 115.615 46.252H118.735ZM123.199 45.664C123.487 45.664 123.763 45.808 123.763 46.132V51.376C123.763 51.688 123.487 51.844 123.199 51.844C122.923 51.844 122.647 51.688 122.647 51.376V49.372H121.363V51.316C121.363 51.628 121.087 51.784 120.799 51.784C120.523 51.784 120.247 51.628 120.247 51.316V46.192C120.247 45.868 120.523 45.724 120.799 45.724C121.087 45.724 121.363 45.868 121.363 46.192V48.364H122.647V46.132C122.647 45.808 122.923 45.664 123.199 45.664ZM117.031 52.36C117.331 52.36 117.631 52.516 117.631 52.852V53.74H122.587V52.852C122.587 52.516 122.875 52.36 123.163 52.36C123.475 52.36 123.763 52.516 123.763 52.852V55.768C123.763 56.452 123.535 56.668 122.839 56.668H117.379C116.683 56.668 116.455 56.452 116.455 55.768V52.852C116.455 52.516 116.743 52.36 117.031 52.36ZM117.631 55.504C117.631 55.636 117.691 55.684 117.811 55.684H122.395C122.527 55.684 122.587 55.636 122.587 55.504V54.7H117.631V55.504ZM130.329 45.784C132.633 45.784 133.977 46.372 133.977 47.704C133.977 49.048 132.633 49.636 130.329 49.636C128.025 49.636 126.681 49.048 126.681 47.704C126.681 46.372 128.025 45.784 130.329 45.784ZM130.329 46.732C128.613 46.732 127.869 47.08 127.869 47.704C127.869 48.328 128.613 48.688 130.329 48.688C132.045 48.688 132.789 48.328 132.789 47.704C132.789 47.08 132.045 46.732 130.329 46.732ZM134.961 50.392C135.237 50.392 135.369 50.608 135.369 50.872C135.369 51.16 135.237 51.376 134.961 51.376H125.697C125.421 51.376 125.289 51.16 125.289 50.872C125.289 50.608 125.421 50.392 125.697 50.392H134.961ZM133.077 52.3C133.773 52.3 134.001 52.516 134.001 53.2V54.088C134.001 54.772 133.773 54.988 133.077 54.988H128.001C127.869 54.988 127.809 55.036 127.809 55.168V55.66C127.809 55.78 127.869 55.84 128.001 55.84H133.869C134.133 55.84 134.265 56.068 134.265 56.308C134.265 56.56 134.133 56.776 133.869 56.776H127.569C126.873 56.776 126.645 56.56 126.645 55.876V54.988C126.645 54.304 126.873 54.088 127.569 54.088H132.645C132.777 54.088 132.837 54.028 132.837 53.908V53.428C132.837 53.296 132.777 53.236 132.645 53.236H127.005C126.741 53.236 126.621 53.02 126.621 52.768C126.621 52.528 126.741 52.3 127.005 52.3H133.077ZM146.999 52.3C147.695 52.3 147.923 52.516 147.923 53.2V54.088C147.923 54.772 147.695 54.988 146.999 54.988H141.923C141.791 54.988 141.731 55.036 141.731 55.168V55.66C141.731 55.78 141.791 55.84 141.923 55.84H147.791C148.055 55.84 148.187 56.068 148.187 56.308C148.187 56.56 148.055 56.776 147.791 56.776H141.491C140.795 56.776 140.567 56.56 140.567 55.876V54.988C140.567 54.304 140.795 54.088 141.491 54.088H146.567C146.699 54.088 146.759 54.028 146.759 53.908V53.428C146.759 53.296 146.699 53.236 146.567 53.236H140.927C140.663 53.236 140.543 53.02 140.543 52.768C140.543 52.528 140.663 52.3 140.927 52.3H143.663V51.268H139.619C139.343 51.268 139.211 51.04 139.211 50.776C139.211 50.512 139.343 50.284 139.619 50.284H148.883C149.159 50.284 149.291 50.512 149.291 50.776C149.291 51.04 149.159 51.268 148.883 51.268H144.839V52.3H146.999ZM141.203 45.772C141.515 45.772 141.803 45.928 141.803 46.288V48.148C141.803 48.328 141.875 48.388 142.055 48.388H147.695C147.971 48.388 148.103 48.616 148.103 48.88C148.103 49.156 147.971 49.384 147.695 49.384H141.515C140.819 49.384 140.603 49.168 140.603 48.484V46.288C140.603 45.928 140.891 45.772 141.203 45.772ZM154.585 46.408C155.281 46.408 155.509 46.624 155.509 47.308V49.528C155.509 50.212 155.281 50.428 154.585 50.428H152.185C151.993 50.428 151.933 50.488 151.933 50.668V52.252C151.933 52.432 151.993 52.492 152.185 52.492C153.697 52.492 155.029 52.432 156.301 52.252C156.577 52.216 156.757 52.42 156.781 52.684C156.817 52.972 156.709 53.236 156.445 53.272C155.365 53.428 153.925 53.524 151.669 53.524C150.973 53.524 150.745 53.308 150.745 52.624V50.332C150.745 49.648 150.973 49.444 151.669 49.444H154.081C154.261 49.444 154.333 49.372 154.333 49.192V47.68C154.333 47.5 154.261 47.44 154.081 47.44H151.165C150.865 47.44 150.745 47.2 150.745 46.924C150.745 46.648 150.865 46.408 151.165 46.408H154.585ZM158.653 45.664C158.965 45.664 159.253 45.82 159.253 46.168V55.528C159.253 55.876 158.965 56.032 158.653 56.032C158.353 56.032 158.065 55.876 158.065 55.528V50.284H156.625C156.325 50.284 156.193 50.056 156.193 49.768C156.193 49.48 156.325 49.252 156.625 49.252H158.065V46.168C158.065 45.82 158.353 45.664 158.653 45.664ZM171.831 46.084C172.527 46.084 172.755 46.3 172.755 46.984V49.252C172.755 49.936 172.527 50.152 171.831 50.152H166.359C165.663 50.152 165.447 49.936 165.447 49.252V46.984C165.447 46.3 165.663 46.084 166.359 46.084H171.831ZM166.887 47.092C166.695 47.092 166.635 47.152 166.635 47.344V48.892C166.635 49.084 166.695 49.144 166.887 49.144H171.303C171.495 49.144 171.555 49.084 171.555 48.892V47.344C171.555 47.152 171.495 47.092 171.303 47.092H166.887ZM173.715 51.244C174.003 51.244 174.135 51.472 174.135 51.748C174.135 52.012 174.003 52.252 173.715 52.252H169.827V53.932C169.827 54.244 169.563 54.388 169.227 54.388C168.903 54.388 168.639 54.244 168.639 53.932V52.252H164.475C164.187 52.252 164.055 52.012 164.055 51.748C164.055 51.472 164.187 51.244 164.475 51.244H173.715ZM166.023 53.224C166.335 53.224 166.623 53.38 166.623 53.728V55.36C166.623 55.54 166.695 55.612 166.875 55.612H172.551C172.839 55.612 172.971 55.84 172.971 56.116C172.971 56.392 172.839 56.632 172.551 56.632H166.335C165.639 56.632 165.423 56.416 165.423 55.732V53.728C165.423 53.38 165.711 53.224 166.023 53.224ZM178.673 46.288C180.593 46.288 181.577 47.416 181.577 48.904C181.577 50.404 180.593 51.532 178.673 51.532C176.753 51.532 175.769 50.404 175.769 48.904C175.769 47.416 176.753 46.288 178.673 46.288ZM178.673 47.296C177.473 47.296 176.909 47.992 176.909 48.904C176.909 49.816 177.473 50.524 178.673 50.524C179.873 50.524 180.437 49.816 180.437 48.904C180.437 47.992 179.873 47.296 178.673 47.296ZM181.973 52.888C182.249 52.864 182.405 53.056 182.417 53.344C182.441 53.62 182.333 53.872 182.057 53.896C180.137 54.076 177.893 54.148 175.541 54.148C175.253 54.148 175.121 53.908 175.121 53.632C175.121 53.356 175.253 53.116 175.541 53.116C177.665 53.116 179.753 53.092 181.973 52.888ZM183.641 45.664C183.953 45.664 184.241 45.82 184.241 46.168V55.528C184.241 55.876 183.953 56.032 183.641 56.032C183.341 56.032 183.053 55.876 183.053 55.528V46.168C183.053 45.82 183.341 45.664 183.641 45.664ZM187.171 53.824C187.555 53.896 187.783 54.184 187.639 54.58L187.039 56.38C186.931 56.692 186.691 56.788 186.427 56.74C186.163 56.692 186.007 56.512 186.055 56.236L186.367 54.304C186.439 53.896 186.811 53.764 187.171 53.824ZM200.407 45.664C200.719 45.664 201.007 45.82 201.007 46.168V55.528C201.007 55.876 200.719 56.032 200.407 56.032C200.107 56.032 199.819 55.876 199.819 55.528V50.368H197.575V52.384C197.575 53.068 197.347 53.284 196.651 53.284H193.387C192.691 53.284 192.463 53.068 192.463 52.384V46.876C192.463 46.528 192.751 46.372 193.051 46.372C193.351 46.372 193.651 46.528 193.651 46.876V48.94H196.399V46.876C196.399 46.528 196.687 46.372 196.987 46.372C197.287 46.372 197.575 46.528 197.575 46.876V49.348H199.819V46.168C199.819 45.82 200.107 45.664 200.407 45.664ZM193.651 52.012C193.651 52.204 193.711 52.264 193.903 52.264H196.147C196.327 52.264 196.399 52.204 196.399 52.012V49.96H193.651V52.012ZM210.513 46.48C211.209 46.48 211.437 46.696 211.437 47.38V48.376C211.437 50.044 211.317 51.412 211.053 52.672C210.993 52.996 210.669 53.116 210.321 53.056C210.033 52.996 209.805 52.804 209.877 52.48C210.129 51.16 210.237 49.828 210.237 48.592V47.788C210.237 47.596 210.165 47.536 209.985 47.536H204.477C204.177 47.536 204.057 47.296 204.057 47.02C204.057 46.72 204.177 46.48 204.477 46.48H210.513ZM212.469 53.956C212.757 53.956 212.889 54.184 212.889 54.472C212.889 54.748 212.757 54.988 212.469 54.988H203.229C202.941 54.988 202.809 54.748 202.809 54.472C202.809 54.184 202.941 53.956 203.229 53.956H212.469ZM220.259 46.12C220.583 46.12 220.871 46.276 220.871 46.624V47.824C220.871 48.616 221.111 49.18 221.687 49.684C222.239 50.164 222.719 50.548 223.139 50.86C223.415 51.076 223.379 51.388 223.211 51.604C223.055 51.82 222.743 51.952 222.479 51.748C222.095 51.472 221.627 51.088 221.123 50.656C220.547 50.152 220.343 49.888 220.283 49.624H220.271C220.211 49.9 220.019 50.188 219.407 50.716C218.891 51.16 218.387 51.568 217.871 51.94C217.595 52.144 217.283 52.012 217.127 51.796C216.959 51.58 216.911 51.244 217.199 51.028C217.763 50.62 218.279 50.212 218.831 49.72C219.407 49.216 219.647 48.652 219.647 47.872V46.624C219.647 46.276 219.947 46.12 220.259 46.12ZM225.179 45.664C225.491 45.664 225.779 45.82 225.779 46.168V53.272C225.779 53.62 225.491 53.776 225.179 53.776C224.867 53.776 224.579 53.62 224.579 53.272V46.168C224.579 45.82 224.867 45.664 225.179 45.664ZM219.383 52.768C219.683 52.768 219.983 52.924 219.983 53.272V55.3C219.983 55.48 220.043 55.54 220.235 55.54H225.635C225.935 55.54 226.067 55.78 226.067 56.068C226.067 56.344 225.935 56.584 225.635 56.584H219.695C218.999 56.584 218.771 56.368 218.771 55.684V53.272C218.771 52.924 219.059 52.768 219.383 52.768ZM229.296 46.432H235.452C236.148 46.432 236.376 46.648 236.376 47.332V48.436C236.376 49.9 236.232 51.016 235.992 52.108C235.92 52.432 235.608 52.564 235.26 52.492C234.972 52.444 234.756 52.24 234.816 51.928C235.044 50.8 235.176 49.72 235.176 48.4V47.728C235.176 47.548 235.104 47.476 234.924 47.476H229.296C228.996 47.476 228.876 47.248 228.876 46.96C228.876 46.672 228.996 46.432 229.296 46.432ZM231.936 49.948C232.248 49.948 232.536 50.104 232.536 50.452V53.968H237.312C237.6 53.968 237.732 54.196 237.732 54.472C237.732 54.748 237.6 54.988 237.312 54.988H228.072C227.784 54.988 227.652 54.748 227.652 54.472C227.652 54.196 227.784 53.968 228.072 53.968H231.348V50.452C231.348 50.104 231.636 49.948 231.936 49.948ZM239.846 53.824C240.23 53.896 240.458 54.184 240.314 54.58L239.714 56.38C239.606 56.692 239.366 56.788 239.102 56.74C238.838 56.692 238.682 56.512 238.73 56.236L239.042 54.304C239.114 53.896 239.486 53.764 239.846 53.824ZM249.459 46.576C249.747 46.576 249.879 46.816 249.879 47.092C249.879 47.368 249.747 47.608 249.459 47.608H247.923V48.808C247.923 49.792 248.103 50.356 248.643 51.004C249.063 51.508 249.495 51.952 249.795 52.264C249.999 52.492 249.975 52.828 249.771 53.032C249.567 53.224 249.255 53.272 249.027 53.044C248.823 52.84 248.439 52.42 248.055 52C247.527 51.388 247.395 51.088 247.347 50.836H247.335C247.299 51.1 247.143 51.436 246.615 52.036C246.231 52.468 245.859 52.864 245.463 53.26C245.235 53.488 244.899 53.428 244.707 53.236C244.503 53.02 244.443 52.696 244.671 52.456C245.139 51.988 245.595 51.508 246.027 51.004C246.567 50.356 246.747 49.792 246.747 48.808V47.608H245.115C244.815 47.608 244.683 47.368 244.683 47.092C244.683 46.816 244.815 46.576 245.115 46.576H249.459ZM251.247 45.784C251.523 45.784 251.799 45.928 251.799 46.252V55.06C251.799 55.384 251.523 55.528 251.247 55.528C250.959 55.528 250.683 55.384 250.683 55.06V50.188H249.519C249.219 50.188 249.087 49.96 249.087 49.672C249.087 49.384 249.219 49.156 249.519 49.156H250.683V46.252C250.683 45.928 250.959 45.784 251.247 45.784ZM253.395 45.664C253.683 45.664 253.959 45.808 253.959 46.132V55.564C253.959 55.888 253.683 56.032 253.395 56.032C253.119 56.032 252.843 55.888 252.843 55.564V46.132C252.843 45.808 253.119 45.664 253.395 45.664ZM258.448 46.204C260.308 46.204 261.232 47.416 261.232 48.988C261.232 50.572 260.308 51.784 258.448 51.784C256.588 51.784 255.664 50.572 255.664 48.988C255.664 47.416 256.588 46.204 258.448 46.204ZM258.448 47.224C257.272 47.224 256.816 48.028 256.816 48.988C256.816 49.948 257.272 50.764 258.448 50.764C259.624 50.764 260.08 49.948 260.08 48.988C260.08 48.028 259.624 47.224 258.448 47.224ZM263.416 45.664C263.728 45.664 264.016 45.82 264.016 46.168V48.736H265.336C265.648 48.736 265.78 48.976 265.78 49.252C265.78 49.552 265.648 49.78 265.336 49.78H264.016V53.272C264.016 53.62 263.728 53.776 263.416 53.776C263.104 53.776 262.816 53.62 262.816 53.272V46.168C262.816 45.82 263.104 45.664 263.416 45.664ZM257.74 52.768C258.04 52.768 258.34 52.924 258.34 53.272V55.3C258.34 55.48 258.4 55.54 258.592 55.54H263.872C264.172 55.54 264.304 55.78 264.304 56.068C264.304 56.344 264.172 56.584 263.872 56.584H258.052C257.356 56.584 257.128 56.368 257.128 55.684V53.272C257.128 52.924 257.416 52.768 257.74 52.768ZM267.678 53.824C268.062 53.896 268.29 54.184 268.146 54.58L267.546 56.38C267.438 56.692 267.198 56.788 266.934 56.74C266.67 56.692 266.514 56.512 266.562 56.236L266.874 54.304C266.946 53.896 267.318 53.764 267.678 53.824ZM275.971 45.544C276.283 45.544 276.571 45.7 276.571 46.048V46.936H278.599C278.887 46.936 279.019 47.176 279.019 47.452C279.019 47.728 278.887 47.956 278.599 47.956H276.571V48.436C276.571 49.156 276.799 49.564 277.339 49.972C277.903 50.38 278.395 50.716 278.779 50.956C279.043 51.136 279.079 51.46 278.911 51.7C278.779 51.904 278.479 52.036 278.179 51.856C277.879 51.664 277.411 51.352 276.919 50.992C276.295 50.536 276.043 50.26 275.995 50.02H275.983C275.923 50.296 275.659 50.596 275.023 51.052C274.519 51.412 274.039 51.748 273.547 52.06C273.271 52.228 272.971 52.084 272.839 51.868C272.683 51.64 272.671 51.316 272.959 51.136C273.511 50.776 274.027 50.428 274.603 49.996C275.143 49.6 275.371 49.192 275.371 48.46V47.956H273.259C272.959 47.956 272.827 47.728 272.827 47.452C272.827 47.176 272.959 46.936 273.259 46.936H275.371V46.048C275.371 45.7 275.671 45.544 275.971 45.544ZM280.843 45.664C281.155 45.664 281.443 45.82 281.443 46.168V51.988C281.443 52.324 281.155 52.48 280.843 52.48C280.531 52.48 280.243 52.324 280.243 51.988V46.168C280.243 45.82 280.531 45.664 280.843 45.664ZM278.011 52.588C280.219 52.588 281.503 53.32 281.503 54.736C281.503 56.164 280.219 56.884 278.011 56.884C275.803 56.884 274.519 56.164 274.519 54.736C274.519 53.308 275.803 52.588 278.011 52.588ZM278.011 53.56C276.391 53.56 275.707 54.004 275.707 54.736C275.707 55.468 276.391 55.912 278.011 55.912C279.619 55.912 280.315 55.468 280.315 54.736C280.315 54.004 279.619 53.56 278.011 53.56ZM286.64 45.64C286.952 45.64 287.24 45.796 287.24 46.144V47.032H289.256C289.544 47.032 289.676 47.272 289.676 47.548C289.676 47.824 289.544 48.052 289.256 48.052H287.24V48.592C287.24 49.372 287.456 49.792 288.032 50.26C288.608 50.704 289.04 51.016 289.46 51.316C289.724 51.496 289.724 51.832 289.568 52.048C289.4 52.264 289.112 52.384 288.824 52.18C288.512 51.964 288.044 51.616 287.54 51.244C286.916 50.764 286.724 50.476 286.664 50.248H286.652C286.592 50.5 286.364 50.824 285.74 51.292C285.248 51.676 284.708 52.06 284.264 52.372C283.976 52.576 283.688 52.444 283.532 52.228C283.364 52 283.34 51.676 283.628 51.472C284.168 51.088 284.684 50.74 285.248 50.284C285.824 49.828 286.04 49.396 286.04 48.628V48.052H283.94C283.64 48.052 283.508 47.824 283.508 47.548C283.508 47.272 283.64 47.032 283.94 47.032H286.04V46.144C286.04 45.796 286.34 45.64 286.64 45.64ZM291.248 45.664C291.56 45.664 291.848 45.82 291.848 46.168V48.736H293.168C293.48 48.736 293.612 48.976 293.612 49.252C293.612 49.552 293.48 49.78 293.168 49.78H291.848V53.272C291.848 53.62 291.56 53.776 291.248 53.776C290.936 53.776 290.648 53.62 290.648 53.272V46.168C290.648 45.82 290.936 45.664 291.248 45.664ZM285.572 53.008C285.872 53.008 286.172 53.164 286.172 53.512V55.3C286.172 55.48 286.232 55.54 286.424 55.54H291.704C292.004 55.54 292.136 55.78 292.136 56.068C292.136 56.344 292.004 56.584 291.704 56.584H285.884C285.188 56.584 284.96 56.368 284.96 55.684V53.512C284.96 53.164 285.248 53.008 285.572 53.008ZM305.482 46.036C305.758 46.036 305.89 46.264 305.89 46.54C305.89 46.804 305.758 47.032 305.482 47.032H300.082C299.902 47.032 299.83 47.104 299.83 47.284V48.592C299.83 48.772 299.902 48.844 300.082 48.844H305.602C305.878 48.844 306.01 49.072 306.01 49.336C306.01 49.612 305.878 49.84 305.602 49.84H299.542C298.846 49.84 298.63 49.624 298.63 48.94V46.936C298.63 46.252 298.846 46.036 299.542 46.036H305.482ZM306.898 50.896C307.186 50.896 307.318 51.112 307.318 51.4C307.318 51.676 307.186 51.904 306.898 51.904H297.658C297.37 51.904 297.238 51.676 297.238 51.4C297.238 51.112 297.37 50.896 297.658 50.896H306.898ZM302.278 52.804C304.594 52.804 305.95 53.452 305.95 54.868C305.95 56.284 304.594 56.932 302.278 56.932C299.962 56.932 298.606 56.284 298.606 54.868C298.606 53.452 299.962 52.804 302.278 52.804ZM302.278 53.764C300.55 53.764 299.794 54.16 299.794 54.868C299.794 55.576 300.55 55.972 302.278 55.972C304.006 55.972 304.762 55.576 304.762 54.868C304.762 54.16 304.006 53.764 302.278 53.764Z" fill="#807F7D"/>
<path d="M128.295 64.468C128.583 64.468 128.715 64.708 128.715 64.996C128.715 65.272 128.583 65.5 128.295 65.5H124.935C124.755 65.5 124.683 65.572 124.683 65.752V70C124.683 70.18 124.755 70.252 124.935 70.252C126.507 70.252 127.839 70.168 129.135 69.988C129.411 69.952 129.591 70.156 129.615 70.432C129.651 70.72 129.543 70.984 129.279 71.02C128.163 71.176 126.735 71.284 124.407 71.284C123.711 71.284 123.483 71.068 123.483 70.384V65.368C123.483 64.684 123.711 64.468 124.407 64.468H128.295ZM130.971 63.664C131.283 63.664 131.571 63.82 131.571 64.168V67.288H132.891C133.203 67.288 133.335 67.516 133.335 67.804C133.335 68.092 133.203 68.332 132.891 68.332H131.571V73.528C131.571 73.876 131.283 74.032 130.971 74.032C130.659 74.032 130.371 73.876 130.371 73.528V64.168C130.371 63.82 130.659 63.664 130.971 63.664ZM136.925 64.108C138.785 64.108 139.709 65.26 139.709 66.772C139.709 68.296 138.785 69.448 136.925 69.448C135.065 69.448 134.141 68.296 134.141 66.772C134.141 65.26 135.065 64.108 136.925 64.108ZM136.925 65.116C135.749 65.116 135.293 65.86 135.293 66.772C135.293 67.684 135.749 68.44 136.925 68.44C138.101 68.44 138.557 67.684 138.557 66.772C138.557 65.86 138.101 65.116 136.925 65.116ZM141.893 63.664C142.205 63.664 142.493 63.82 142.493 64.168V65.284H143.741C144.017 65.284 144.149 65.524 144.149 65.8C144.149 66.076 144.017 66.316 143.741 66.316H142.493V67.336H143.741C144.017 67.336 144.149 67.576 144.149 67.852C144.149 68.128 144.017 68.368 143.741 68.368H142.493V69.748C142.493 70.084 142.205 70.24 141.893 70.24C141.581 70.24 141.293 70.084 141.293 69.748V64.168C141.293 63.82 141.581 63.664 141.893 63.664ZM139.121 70.348C141.293 70.348 142.553 71.116 142.553 72.616C142.553 74.116 141.293 74.884 139.121 74.884C136.949 74.884 135.689 74.116 135.689 72.616C135.689 71.116 136.949 70.348 139.121 70.348ZM139.121 71.32C137.537 71.32 136.877 71.824 136.877 72.616C136.877 73.408 137.537 73.912 139.121 73.912C140.693 73.912 141.365 73.408 141.365 72.616C141.365 71.824 140.693 71.32 139.121 71.32ZM148.135 66.604C149.731 66.604 150.691 67.396 150.691 68.608C150.691 69.82 149.731 70.612 148.135 70.612C146.539 70.612 145.579 69.82 145.579 68.608C145.579 67.396 146.539 66.604 148.135 66.604ZM148.135 63.64C148.447 63.64 148.735 63.796 148.735 64.144V64.9H150.883C151.171 64.9 151.303 65.14 151.303 65.416C151.303 65.692 151.171 65.932 150.883 65.932H145.267C144.979 65.932 144.847 65.692 144.847 65.416C144.847 65.14 144.979 64.9 145.267 64.9H147.535V64.144C147.535 63.796 147.835 63.64 148.135 63.64ZM148.135 67.552C147.175 67.552 146.659 67.984 146.659 68.608C146.659 69.22 147.175 69.664 148.135 69.664C149.107 69.664 149.611 69.22 149.611 68.608C149.611 67.984 149.107 67.552 148.135 67.552ZM152.815 63.664C153.127 63.664 153.415 63.82 153.415 64.168V66.868H154.747C155.047 66.868 155.179 67.096 155.179 67.384C155.179 67.672 155.047 67.9 154.747 67.9H153.415V71.392C153.415 71.74 153.127 71.896 152.815 71.896C152.515 71.896 152.227 71.74 152.227 71.392V64.168C152.227 63.82 152.515 63.664 152.815 63.664ZM147.139 71.224C147.439 71.224 147.739 71.38 147.739 71.728V73.3C147.739 73.48 147.799 73.54 147.991 73.54H153.271C153.571 73.54 153.703 73.78 153.703 74.068C153.703 74.344 153.571 74.584 153.271 74.584H147.451C146.755 74.584 146.527 74.368 146.527 73.684V71.728C146.527 71.38 146.815 71.224 147.139 71.224ZM162.501 64.288C164.421 64.288 165.405 65.416 165.405 66.904C165.405 68.404 164.421 69.532 162.501 69.532C160.581 69.532 159.597 68.404 159.597 66.904C159.597 65.416 160.581 64.288 162.501 64.288ZM162.501 65.296C161.301 65.296 160.737 65.992 160.737 66.904C160.737 67.816 161.301 68.524 162.501 68.524C163.701 68.524 164.265 67.816 164.265 66.904C164.265 65.992 163.701 65.296 162.501 65.296ZM165.801 70.888C166.077 70.864 166.233 71.056 166.245 71.344C166.269 71.62 166.161 71.872 165.885 71.896C163.965 72.076 161.721 72.148 159.369 72.148C159.081 72.148 158.949 71.908 158.949 71.632C158.949 71.356 159.081 71.116 159.369 71.116C161.493 71.116 163.581 71.092 165.801 70.888ZM167.469 63.664C167.781 63.664 168.069 63.82 168.069 64.168V73.528C168.069 73.876 167.781 74.032 167.469 74.032C167.169 74.032 166.881 73.876 166.881 73.528V64.168C166.881 63.82 167.169 63.664 167.469 63.664ZM170.723 64.372H174.227C174.923 64.372 175.151 64.588 175.151 65.272V66.256C175.151 68.056 174.623 68.476 170.963 70.324C170.687 70.456 170.363 70.3 170.243 70.048C170.123 69.808 170.123 69.46 170.435 69.316C173.747 67.684 173.951 67.444 173.951 66.22V65.656C173.951 65.476 173.891 65.416 173.699 65.416H170.723C170.423 65.416 170.291 65.176 170.291 64.9C170.291 64.612 170.423 64.372 170.723 64.372ZM178.259 63.664C178.559 63.664 178.847 63.82 178.847 64.168V71.272C178.847 71.62 178.559 71.776 178.259 71.776C177.959 71.776 177.659 71.62 177.659 71.272V68.944H175.991C175.703 68.944 175.583 68.704 175.583 68.428C175.583 68.152 175.703 67.912 175.991 67.912H177.659V66.472H176.087C175.799 66.472 175.679 66.232 175.679 65.956C175.679 65.68 175.799 65.44 176.087 65.44H177.659V64.168C177.659 63.82 177.959 63.664 178.259 63.664ZM172.403 70.768C172.703 70.768 173.003 70.924 173.003 71.272V73.3C173.003 73.48 173.063 73.54 173.255 73.54H178.703C179.003 73.54 179.135 73.78 179.135 74.068C179.135 74.344 179.003 74.584 178.703 74.584H172.715C172.019 74.584 171.791 74.368 171.791 73.684V71.272C171.791 70.924 172.079 70.768 172.403 70.768ZM185.689 63.784C187.993 63.784 189.337 64.372 189.337 65.704C189.337 67.048 187.993 67.636 185.689 67.636C183.385 67.636 182.041 67.048 182.041 65.704C182.041 64.372 183.385 63.784 185.689 63.784ZM185.689 64.732C183.973 64.732 183.229 65.08 183.229 65.704C183.229 66.328 183.973 66.688 185.689 66.688C187.405 66.688 188.149 66.328 188.149 65.704C188.149 65.08 187.405 64.732 185.689 64.732ZM190.321 68.392C190.597 68.392 190.729 68.608 190.729 68.872C190.729 69.16 190.597 69.376 190.321 69.376H181.057C180.781 69.376 180.649 69.16 180.649 68.872C180.649 68.608 180.781 68.392 181.057 68.392H190.321ZM188.437 70.3C189.133 70.3 189.361 70.516 189.361 71.2V72.088C189.361 72.772 189.133 72.988 188.437 72.988H183.361C183.229 72.988 183.169 73.036 183.169 73.168V73.66C183.169 73.78 183.229 73.84 183.361 73.84H189.229C189.493 73.84 189.625 74.068 189.625 74.308C189.625 74.56 189.493 74.776 189.229 74.776H182.929C182.233 74.776 182.005 74.56 182.005 73.876V72.988C182.005 72.304 182.233 72.088 182.929 72.088H188.005C188.137 72.088 188.197 72.028 188.197 71.908V71.428C188.197 71.296 188.137 71.236 188.005 71.236H182.365C182.101 71.236 181.981 71.02 181.981 70.768C181.981 70.528 182.101 70.3 182.365 70.3H188.437ZM196.526 64.168C196.826 64.168 197.126 64.336 197.126 64.672V66.1H202.094V64.672C202.094 64.336 202.394 64.168 202.682 64.168C202.994 64.168 203.294 64.336 203.294 64.672V68.908C203.294 69.592 203.066 69.808 202.37 69.808H200.21V71.968H204.23C204.518 71.968 204.65 72.196 204.65 72.472C204.65 72.748 204.518 72.988 204.23 72.988H194.99C194.702 72.988 194.57 72.748 194.57 72.472C194.57 72.196 194.702 71.968 194.99 71.968H199.01V69.808H196.85C196.154 69.808 195.938 69.592 195.938 68.908V64.672C195.938 64.336 196.226 64.168 196.526 64.168ZM197.126 68.548C197.126 68.728 197.198 68.788 197.378 68.788H201.842C202.022 68.788 202.094 68.728 202.094 68.548V67.12H197.126V68.548ZM206.44 64.444C206.764 64.444 207.052 64.6 207.052 64.96V69.88C207.052 70.06 207.124 70.132 207.304 70.132C208.168 70.132 209.368 70.06 210.208 69.94C210.472 69.904 210.652 70.096 210.676 70.384C210.712 70.672 210.604 70.924 210.34 70.972C209.728 71.068 208.42 71.164 206.764 71.164C206.068 71.164 205.84 70.948 205.84 70.264V64.96C205.84 64.6 206.128 64.444 206.44 64.444ZM214.324 63.664C214.612 63.664 214.888 63.808 214.888 64.132V73.564C214.888 73.888 214.612 74.032 214.324 74.032C214.048 74.032 213.772 73.888 213.772 73.564V68.368H212.416V73.06C212.416 73.384 212.14 73.528 211.852 73.528C211.576 73.528 211.3 73.384 211.3 73.06V64.252C211.3 63.928 211.576 63.784 211.852 63.784C212.14 63.784 212.416 63.928 212.416 64.252V67.348H213.772V64.132C213.772 63.808 214.048 63.664 214.324 63.664ZM224.838 64.204C225.138 64.204 225.27 64.432 225.27 64.72C225.27 64.984 225.138 65.224 224.838 65.224H222.066V65.368C222.066 66.124 222.294 66.484 223.134 66.916C223.926 67.324 224.586 67.636 225.33 67.972C225.594 68.092 225.642 68.404 225.51 68.668C225.39 68.932 225.102 69.064 224.85 68.956C224.046 68.596 223.41 68.296 222.666 67.912C221.814 67.48 221.538 67.18 221.466 66.892H221.454C221.382 67.204 221.094 67.504 220.254 67.936C219.498 68.32 218.862 68.62 218.07 68.98C217.806 69.088 217.518 68.956 217.398 68.68C217.254 68.416 217.314 68.092 217.578 67.972C218.322 67.636 218.982 67.324 219.786 66.916C220.614 66.484 220.842 66.124 220.842 65.368V65.224H218.07C217.77 65.224 217.638 64.984 217.638 64.72C217.638 64.432 217.77 64.204 218.07 64.204H224.838ZM226.074 69.976C226.362 69.976 226.494 70.216 226.494 70.492C226.494 70.768 226.362 70.996 226.074 70.996H222.054V74.368C222.054 74.716 221.766 74.872 221.454 74.872C221.142 74.872 220.854 74.716 220.854 74.368V70.996H216.834C216.546 70.996 216.414 70.768 216.414 70.492C216.414 70.216 216.546 69.976 216.834 69.976H226.074ZM230.072 64.3C230.384 64.3 230.672 64.456 230.672 64.804V66.64C230.672 67.648 230.852 68.224 231.416 68.908C231.824 69.412 232.256 69.88 232.58 70.228C232.784 70.456 232.736 70.792 232.52 70.984C232.328 71.164 231.992 71.188 231.776 70.972C231.536 70.72 231.164 70.312 230.804 69.88C230.264 69.244 230.132 68.944 230.084 68.692H230.072C230.024 68.968 229.904 69.268 229.352 69.928C228.992 70.348 228.608 70.78 228.224 71.176C228.008 71.404 227.648 71.356 227.468 71.176C227.252 70.96 227.192 70.624 227.42 70.396C227.876 69.904 228.32 69.412 228.74 68.908C229.292 68.224 229.472 67.648 229.472 66.64V64.804C229.472 64.456 229.772 64.3 230.072 64.3ZM236.168 63.664C236.456 63.664 236.732 63.808 236.732 64.132V73.564C236.732 73.888 236.456 74.032 236.168 74.032C235.892 74.032 235.616 73.888 235.616 73.564V64.132C235.616 63.808 235.892 63.664 236.168 63.664ZM234.02 63.784C234.296 63.784 234.572 63.928 234.572 64.252V73.06C234.572 73.384 234.296 73.528 234.02 73.528C233.732 73.528 233.456 73.384 233.456 73.06V67.912H232.256C231.968 67.912 231.836 67.684 231.836 67.396C231.836 67.108 231.968 66.88 232.256 66.88H233.456V64.252C233.456 63.928 233.732 63.784 234.02 63.784ZM243.298 64.084C245.614 64.084 246.994 65.14 246.994 66.94C246.994 68.74 245.614 69.796 243.298 69.796C240.982 69.796 239.614 68.74 239.614 66.94C239.614 65.14 240.982 64.084 243.298 64.084ZM243.298 65.104C241.582 65.104 240.814 65.896 240.814 66.94C240.814 67.996 241.582 68.776 243.298 68.776C245.014 68.776 245.782 67.996 245.782 66.94C245.782 65.896 245.014 65.104 243.298 65.104ZM241.45 70.036C241.762 70.036 242.05 70.192 242.05 70.528V71.98H244.546V70.528C244.546 70.192 244.834 70.036 245.146 70.036C245.47 70.036 245.746 70.192 245.746 70.528V71.98H247.918C248.206 71.98 248.338 72.208 248.338 72.472C248.338 72.748 248.206 72.988 247.918 72.988H238.678C238.39 72.988 238.258 72.748 238.258 72.472C238.258 72.208 238.39 71.98 238.678 71.98H240.85V70.528C240.85 70.192 241.126 70.036 241.45 70.036ZM250.572 64.12C250.968 64.12 251.244 64.288 251.232 64.696L251.088 70.36C251.076 70.744 250.836 70.876 250.572 70.876C250.308 70.876 250.068 70.744 250.068 70.36L249.912 64.696C249.912 64.288 250.176 64.12 250.572 64.12ZM250.572 71.86C251.016 71.86 251.364 72.196 251.364 72.64C251.364 73.084 251.016 73.432 250.572 73.432C250.128 73.432 249.78 73.084 249.78 72.64C249.78 72.196 250.128 71.86 250.572 71.86Z" fill="#807F7D"/>
</svg>
