<svg width="33" height="32" viewBox="0 0 33 32" fill="none" xmlns="http://www.w3.org/2000/svg">
<rect x="4.04932" y="20.1772" width="17.7074" height="11.7006" rx="1" transform="rotate(-45 4.04932 20.1772)" fill="#B6EF12"/>
<rect width="5.80825" height="11.7006" rx="1" transform="matrix(-0.707107 0.707107 0.707107 0.707107 20.6772 3.54932)" fill="#FF9838"/>
<path d="M4.26141 27.7897L4.07609 20.8126C4.06648 20.4506 4.50465 20.2632 4.75984 20.5202L11.9212 27.7347C12.1764 27.9918 11.9858 28.4286 11.6237 28.4163L4.64767 28.1789C4.43628 28.1717 4.26703 28.0012 4.26141 27.7897Z" fill="#FFE7B8" stroke="#FFE7B8"/>
<path d="M4.11808 28.3145L4.05267 25.8662C4.05146 25.821 4.10609 25.7975 4.13803 25.8295L6.66573 28.3611C6.69777 28.3932 6.67397 28.4479 6.62865 28.4464L4.16637 28.3631C4.13995 28.3622 4.11879 28.3409 4.11808 28.3145Z" fill="#3D3D3D" stroke="#3D3D3D" stroke-width="0.6"/>
<path d="M23.1095 16.4867L24.0147 19.3962C24.0795 19.6046 24.0261 19.8317 23.8752 19.9894L19.2401 24.8316" stroke="#B6EF12" stroke-width="2" stroke-linecap="round"/>
<path d="M8.64307 20.3125L16.6431 12.3125" stroke="#CCFA48" stroke-width="2" stroke-linecap="round"/>
<path d="M12.2495 23.7944L20.2495 15.7944" stroke="#CCFA48" stroke-width="2" stroke-linecap="round"/>
</svg>
