<svg width="24" height="25" viewBox="0 0 24 25" fill="none" xmlns="http://www.w3.org/2000/svg">
<path d="M12 13.3125C14.8926 13.313 17.7393 12.5887 20.2799 11.2058L20.3125 11.1881V11.1509V7.25V7.1875H20.25H3.75H3.6875V7.25V11.1519V11.189L3.72013 11.2068C6.26095 12.5891 9.10749 13.313 12 13.3125ZM12 13.3125L12 13.25M12 13.3125L12 13.25M12 13.25C9.11794 13.2505 6.28165 12.5292 3.75 11.1519V7.3125V7.25H3.8125H20.1875H20.25V7.3125V11.1509C17.7185 12.5289 14.8822 13.2505 12 13.25ZM16.4375 5.75V5.8125H16.5H20.25C20.6312 5.8125 20.9969 5.96395 21.2665 6.23353C21.536 6.50312 21.6875 6.86875 21.6875 7.25V19.25C21.6875 19.6312 21.536 19.9969 21.2665 20.2665C20.9969 20.536 20.6312 20.6875 20.25 20.6875H3.75C3.36875 20.6875 3.00312 20.536 2.73353 20.2665C2.46395 19.9969 2.3125 19.6312 2.3125 19.25V7.25C2.3125 6.86875 2.46395 6.50312 2.73353 6.23353C3.00312 5.96395 3.36875 5.8125 3.75 5.8125H7.5H7.5625V5.75V5C7.5625 4.41984 7.79297 3.86344 8.2032 3.4532C8.61344 3.04297 9.16984 2.8125 9.75 2.8125H14.25C14.8302 2.8125 15.3866 3.04297 15.7968 3.4532C16.207 3.86344 16.4375 4.41984 16.4375 5V5.75ZM15 5.8125H15.0625V5.75V5C15.0625 4.78451 14.9769 4.57785 14.8245 4.42548C14.6722 4.2731 14.4655 4.1875 14.25 4.1875H9.75C9.53451 4.1875 9.32785 4.2731 9.17548 4.42548C9.0231 4.57785 8.9375 4.78451 8.9375 5V5.75V5.8125H9H15ZM20.25 19.3125H20.3125V19.25V12.8403V12.7402L20.2225 12.7842C17.6624 14.0366 14.85 14.6876 12 14.6875C9.15001 14.688 6.33759 14.0374 3.77746 12.7851L3.6875 12.7411V12.8412V19.25V19.3125H3.75H20.25ZM9.8125 11C9.8125 10.8177 9.88493 10.6428 10.0139 10.5139C10.1428 10.3849 10.3177 10.3125 10.5 10.3125H13.5C13.6823 10.3125 13.8572 10.3849 13.9861 10.5139C14.1151 10.6428 14.1875 10.8177 14.1875 11C14.1875 11.1823 14.1151 11.3572 13.9861 11.4861C13.8572 11.6151 13.6823 11.6875 13.5 11.6875H10.5C10.3177 11.6875 10.1428 11.6151 10.0139 11.4861C9.88493 11.3572 9.8125 11.1823 9.8125 11Z" fill="url(#paint0_linear_1306_1184)" stroke="url(#paint1_linear_1306_1184)" stroke-width="0.125"/>
<defs>
<linearGradient id="paint0_linear_1306_1184" x1="2.25" y1="22.0135" x2="20.9083" y2="6.12006" gradientUnits="userSpaceOnUse">
<stop offset="0.046875" stop-color="#7CEFA7"/>
<stop offset="1" stop-color="#8FD3F4"/>
</linearGradient>
<linearGradient id="paint1_linear_1306_1184" x1="2.25" y1="22.0135" x2="20.9083" y2="6.12006" gradientUnits="userSpaceOnUse">
<stop offset="0.046875" stop-color="#7CEFA7"/>
<stop offset="1" stop-color="#8FD3F4"/>
</linearGradient>
</defs>
</svg>
