<svg width="67" height="30" viewBox="0 0 67 30" fill="none" xmlns="http://www.w3.org/2000/svg">
<rect x="0.5" y="0.5" width="66" height="29" rx="14.5" fill="#FFFDFA"/>
<path d="M16.504 10.456C16.708 10.456 16.804 10.624 16.804 10.84C16.804 11.044 16.708 11.224 16.504 11.224H14.332V12.16C14.332 13.012 14.608 13.576 15.232 14.116C15.772 14.56 16.336 14.992 16.72 15.292C16.912 15.436 16.924 15.652 16.792 15.844C16.672 16.012 16.444 16.072 16.24 15.928C15.868 15.64 15.412 15.292 14.86 14.848C14.224 14.332 13.96 13.948 13.9 13.672H13.888C13.828 13.96 13.552 14.356 12.916 14.872C12.376 15.328 11.836 15.736 11.344 16.096C11.14 16.24 10.924 16.156 10.804 16C10.672 15.832 10.66 15.592 10.864 15.436C11.392 15.052 12.004 14.584 12.544 14.128C13.168 13.6 13.444 13.024 13.444 12.172V11.224H11.2C10.996 11.224 10.9 11.044 10.9 10.84C10.9 10.624 10.996 10.456 11.2 10.456H16.504ZM19 9.712C19.216 9.712 19.432 9.82 19.432 10.072V17.392C19.432 17.644 19.216 17.752 19 17.752C18.772 17.752 18.568 17.644 18.568 17.392V13.504H16.516C16.312 13.504 16.216 13.336 16.216 13.12C16.216 12.916 16.312 12.736 16.516 12.736H18.568V10.072C18.568 9.82 18.772 9.712 19 9.712ZM13.024 16.816C13.252 16.816 13.468 16.924 13.468 17.176V19.528C13.468 19.684 13.528 19.744 13.696 19.744H19.432C19.648 19.744 19.744 19.924 19.744 20.128C19.744 20.332 19.648 20.512 19.432 20.512H13.408C12.784 20.512 12.58 20.32 12.58 19.708V17.176C12.58 16.924 12.796 16.816 13.024 16.816ZM24.1619 9.784C24.3899 9.784 24.5939 9.892 24.5939 10.132V11.296H26.3699C26.5859 11.296 26.6819 11.464 26.6819 11.668C26.6819 11.884 26.5859 12.052 26.3699 12.052H24.5939V13.18C24.5939 14.164 24.8099 14.668 25.4099 15.34C25.8659 15.844 26.3099 16.3 26.6099 16.588C26.7539 16.72 26.7299 16.972 26.5739 17.116C26.4299 17.272 26.2139 17.284 26.0579 17.14C25.7219 16.816 25.3499 16.432 25.0139 16.072C24.4739 15.496 24.2339 15.112 24.1859 14.788H24.1739C24.1139 15.124 23.8619 15.52 23.3219 16.096C22.9859 16.456 22.5539 16.9 22.0739 17.368C21.9299 17.5 21.6899 17.488 21.5459 17.344C21.3899 17.176 21.3659 16.948 21.4979 16.804C22.0019 16.324 22.4699 15.844 22.9139 15.34C23.5259 14.668 23.7299 14.164 23.7299 13.18V12.052H21.7979C21.5819 12.052 21.4859 11.884 21.4859 11.668C21.4859 11.464 21.5819 11.296 21.7979 11.296H23.7299V10.132C23.7299 9.892 23.9459 9.784 24.1619 9.784ZM28.0979 9.832C28.3019 9.832 28.5059 9.94 28.5059 10.18V19.132C28.5059 19.372 28.3019 19.48 28.0979 19.48C27.8819 19.48 27.6779 19.372 27.6779 19.132V14.344H26.2379C26.0219 14.344 25.9259 14.176 25.9259 13.96C25.9259 13.756 26.0219 13.588 26.2379 13.588H27.6779V10.18C27.6779 9.94 27.8819 9.832 28.0979 9.832ZM30.2099 9.712C30.4259 9.712 30.6299 9.82 30.6299 10.06V19.636C30.6299 19.876 30.4259 19.984 30.2099 19.984C30.0059 19.984 29.8019 19.876 29.8019 19.636V10.06C29.8019 9.82 30.0059 9.712 30.2099 9.712ZM38.4918 10.048C40.3038 10.048 41.2038 11.092 41.2038 12.448C41.2038 13.792 40.3038 14.836 38.4918 14.836C36.6798 14.836 35.7798 13.792 35.7798 12.448C35.7798 11.092 36.6798 10.048 38.4918 10.048ZM38.4918 10.78C37.1958 10.78 36.6318 11.548 36.6318 12.448C36.6318 13.336 37.1958 14.104 38.4918 14.104C39.7878 14.104 40.3518 13.336 40.3518 12.448C40.3518 11.548 39.7878 10.78 38.4918 10.78ZM43.7598 9.712C43.9878 9.712 44.2038 9.82 44.2038 10.072V14.968C44.2038 15.22 43.9878 15.328 43.7598 15.328C43.5438 15.328 43.3278 15.22 43.3278 14.968V10.072C43.3278 9.82 43.5438 9.712 43.7598 9.712ZM39.6558 16C40.2918 16 40.4838 16.168 40.4838 16.804V17.848C40.4838 18.472 40.2918 18.652 39.6558 18.652H37.9398C37.7718 18.652 37.7118 18.712 37.7118 18.868V19.696C37.7118 19.864 37.7718 19.924 37.9398 19.924C39.1278 19.924 40.1238 19.876 41.0117 19.78C41.2038 19.768 41.3118 19.912 41.3238 20.104C41.3478 20.296 41.2638 20.452 41.0718 20.476C40.4118 20.56 39.3318 20.632 37.7238 20.632C37.0998 20.632 36.8958 20.44 36.8958 19.828V18.784C36.8958 18.148 37.0878 17.98 37.7238 17.98H39.4398C39.6078 17.98 39.6678 17.92 39.6678 17.752V16.924C39.6678 16.768 39.6078 16.708 39.4398 16.708H37.1598C36.9678 16.708 36.8718 16.54 36.8718 16.36C36.8718 16.168 36.9678 16 37.1598 16H39.6558ZM43.3758 16C43.9998 16 44.2038 16.192 44.2038 16.804V20.356C44.2038 20.608 43.9878 20.716 43.7718 20.716C43.5558 20.716 43.3518 20.608 43.3518 20.356V16.984C43.3518 16.816 43.2798 16.756 43.1238 16.756H41.3598C41.1558 16.756 41.0598 16.588 41.0598 16.384C41.0598 16.168 41.1558 16 41.3598 16H43.3758ZM51.2256 9.964C53.4936 9.964 54.7776 10.612 54.7776 11.956C54.7776 13.3 53.4936 13.948 51.2256 13.948C48.9576 13.948 47.6736 13.3 47.6736 11.956C47.6736 10.612 48.9576 9.964 51.2256 9.964ZM51.2256 10.684C49.4016 10.684 48.5496 11.128 48.5496 11.956C48.5496 12.784 49.4016 13.228 51.2256 13.228C53.0496 13.228 53.9016 12.784 53.9016 11.956C53.9016 11.128 53.0496 10.684 51.2256 10.684ZM55.9296 14.992C56.1336 14.992 56.2296 15.16 56.2296 15.364C56.2296 15.58 56.1336 15.748 55.9296 15.748H46.5216C46.3176 15.748 46.2216 15.58 46.2216 15.364C46.2216 15.16 46.3176 14.992 46.5216 14.992H55.9296ZM53.9736 16.96C54.5976 16.96 54.8016 17.152 54.8016 17.764V19.84C54.8016 20.452 54.5976 20.644 53.9736 20.644H48.4776C47.8536 20.644 47.6496 20.452 47.6496 19.84V17.764C47.6496 17.152 47.8536 16.96 48.4776 16.96H53.9736ZM48.7416 17.692C48.5736 17.692 48.5136 17.752 48.5136 17.908V19.696C48.5136 19.852 48.5736 19.912 48.7416 19.912H53.7096C53.8776 19.912 53.9376 19.852 53.9376 19.696V17.908C53.9376 17.752 53.8776 17.692 53.7096 17.692H48.7416Z" fill="#4D534F"/>
<rect x="0.5" y="0.5" width="66" height="29" rx="14.5" stroke="#4D534F"/>
</svg>
