<svg width="325" height="180" viewBox="0 0 325 180" fill="none" xmlns="http://www.w3.org/2000/svg">
<mask id="mask0_1_598" style="mask-type:alpha" maskUnits="userSpaceOnUse" x="0" y="0" width="325" height="180">
<rect width="325" height="180" rx="16" fill="#C2C2FF"/>
</mask>
<g mask="url(#mask0_1_598)">
<rect width="325" height="180" rx="16" fill="#F9F7F2"/>
<path d="M170.657 9.87378C144.819 -27.2029 177.663 -6.59963 211.653 -15.4505L331.171 -13.2124L332.738 51.7607C320.681 51.9828 347.144 65.2496 342.189 75.9326C331.114 85.3142 309.371 84.9281 292.192 78.4743C278.449 73.3112 261.435 60.6087 261.518 53.9874C241.997 54.7314 196.495 46.9504 170.657 9.87378Z" fill="#DADAFF"/>
<path d="M257.376 49.1435L240.883 38.2071C238.921 36.9059 236.176 37.5259 234.648 39.3174C230.827 43.7991 224.151 49.9 219.103 53.1778C216.649 54.7711 214.174 56.3519 211.902 57.7895C208.822 59.7373 209.753 64.0893 213.392 64.268C219.172 64.5517 225.94 64.4285 230.751 63.2135C237.686 61.4623 250.701 58.2524 257.573 54.3348C259.649 53.1513 259.368 50.4642 257.376 49.1435Z" fill="#DADAFF"/>
</g>
<path d="M45.4404 83.4878L64.4652 75.3626C66.5059 74.4911 68.2697 75.2711 69.2468 76.6325C70.2575 78.0408 70.1445 79.5611 68.1038 80.4326L51.3831 87.5738L56.9545 96.2958C58.453 94.4291 60.5793 92.4783 64.5291 90.7914C73.6794 86.8834 82.1862 89.629 86.0944 95.0746L86.4313 95.544C90.3057 100.943 89.5798 108.919 77.533 114.064C71.3451 116.707 66.2622 117.774 61.5283 117.649C58.8137 117.582 57.4371 116.023 57.6128 114.231C57.787 112.316 59.4603 111.172 62.0416 111.174C65.6487 111.167 69.0169 110.587 73.5591 108.647C79.3521 106.173 80.3987 102.598 77.9056 99.1239L77.7034 98.8422C75.1092 95.2275 70.5666 94.5302 65.3002 96.7794C62.272 98.0727 60.0463 100.005 58.9136 102.022C58.1361 103.335 57.6141 103.926 56.1659 104.545C54.1252 105.416 52.2695 105.227 51.4257 103.932L42.776 89.9618C40.681 86.5632 41.1615 85.3153 45.4404 83.4878Z" fill="url(#paint0_linear_1_598)"/>
<path d="M93.528 62.2756C105.706 57.0743 115.25 60.6651 122.662 70.993L124.111 73.0116C131.523 83.3394 130.402 91.4848 118.223 96.6861C106.045 101.887 96.5014 98.2966 89.0894 87.9687L87.6407 85.9501C80.2288 75.6222 81.3496 67.4768 93.528 62.2756ZM97.6046 67.9559C90.7584 70.8798 90.877 74.9999 96.4359 82.7458L97.2782 83.9194C102.837 91.6653 107.301 93.9297 114.147 91.0058C120.993 88.0818 120.874 83.9618 115.315 76.2159L114.473 75.0423C108.914 67.2964 104.451 65.0319 97.6046 67.9559Z" fill="url(#paint1_linear_1_598)"/>
<path d="M134.35 44.8411C146.528 39.6398 156.072 43.2306 163.484 53.5584L164.933 55.5771C172.345 65.9049 171.224 74.0503 159.045 79.2516C146.867 84.4528 137.323 80.862 129.911 70.5342L128.463 68.5156C121.051 58.1877 122.172 50.0423 134.35 44.8411ZM138.427 50.5214C131.58 53.4453 131.699 57.5654 137.258 65.3112L138.1 66.4849C143.659 74.2308 148.123 76.4952 154.969 73.5713C161.815 70.6473 161.696 66.5273 156.137 58.7814L155.295 57.6078C149.736 49.8619 145.273 47.5974 138.427 50.5214Z" fill="url(#paint2_linear_1_598)"/>
<path d="M0 108H325V164C325 172.837 317.837 180 309 180H16C7.16344 180 0 172.837 0 164V108Z" fill="#9B9BFF"/>
<path d="M25.736 125.934C26.114 125.934 26.45 126.116 26.45 126.536V132.444C26.45 132.654 26.534 132.738 26.744 132.738C28.536 132.738 30.09 132.64 31.602 132.43C31.924 132.388 32.134 132.626 32.162 132.948C32.204 133.284 32.078 133.592 31.77 133.634C30.468 133.816 28.802 133.942 26.114 133.942C25.302 133.942 25.036 133.69 25.036 132.892V126.536C25.036 126.116 25.372 125.934 25.736 125.934ZM33.744 125.108C34.108 125.108 34.444 125.29 34.444 125.696V129.336H35.984C36.348 129.336 36.502 129.602 36.502 129.938C36.502 130.274 36.348 130.554 35.984 130.554H34.444V136.616C34.444 137.022 34.108 137.204 33.744 137.204C33.38 137.204 33.044 137.022 33.044 136.616V125.696C33.044 125.29 33.38 125.108 33.744 125.108ZM41.5442 125.836C43.7842 125.836 44.9322 127.152 44.9322 128.888C44.9322 130.638 43.7842 131.954 41.5442 131.954C39.3042 131.954 38.1562 130.638 38.1562 128.888C38.1562 127.152 39.3042 125.836 41.5442 125.836ZM41.5442 127.012C40.1442 127.012 39.4862 127.824 39.4862 128.888C39.4862 129.952 40.1442 130.778 41.5442 130.778C42.9442 130.778 43.6022 129.952 43.6022 128.888C43.6022 127.824 42.9442 127.012 41.5442 127.012ZM45.3942 133.536C45.7162 133.508 45.8982 133.732 45.9122 134.068C45.9402 134.39 45.8142 134.684 45.4922 134.712C43.2522 134.922 40.6342 135.006 37.8902 135.006C37.5542 135.006 37.4002 134.726 37.4002 134.404C37.4002 134.082 37.5542 133.802 37.8902 133.802C40.3682 133.802 42.8042 133.774 45.3942 133.536ZM47.3402 125.108C47.7042 125.108 48.0402 125.29 48.0402 125.696V136.616C48.0402 137.022 47.7042 137.204 47.3402 137.204C46.9902 137.204 46.6542 137.022 46.6542 136.616V125.696C46.6542 125.29 46.9902 125.108 47.3402 125.108ZM56.6804 125.612C57.0444 125.612 57.3804 125.794 57.3804 126.2V127.474C57.3804 128.356 57.5344 128.958 58.1224 129.56C58.6404 130.078 59.0744 130.484 59.5224 130.89C59.7884 131.114 59.7744 131.506 59.5504 131.758C59.3404 132.01 58.9624 132.066 58.6684 131.814C58.3184 131.52 57.9404 131.17 57.5484 130.792C56.9884 130.246 56.7504 129.896 56.6944 129.63H56.6804C56.6244 129.938 56.4564 130.246 55.8124 130.862C55.3224 131.338 54.9444 131.688 54.4684 132.094C54.2024 132.318 53.8244 132.262 53.6004 131.996C53.3764 131.73 53.3484 131.352 53.6004 131.114C54.1184 130.68 54.7064 130.12 55.2384 129.602C55.8264 128.986 55.9804 128.398 55.9804 127.502V126.2C55.9804 125.794 56.3164 125.612 56.6804 125.612ZM63.7784 125.108C64.1144 125.108 64.4364 125.276 64.4364 125.654V132.346C64.4364 132.71 64.1144 132.892 63.7784 132.892C63.4564 132.892 63.1344 132.71 63.1344 132.346V129.406H61.6364V131.758C61.6364 132.122 61.3144 132.304 60.9784 132.304C60.6564 132.304 60.3344 132.122 60.3344 131.758V125.724C60.3344 125.346 60.6564 125.178 60.9784 125.178C61.3144 125.178 61.6364 125.346 61.6364 125.724V128.23H63.1344V125.654C63.1344 125.276 63.4564 125.108 63.7784 125.108ZM60.1664 132.906C62.8404 132.906 64.4084 133.816 64.4084 135.552C64.4084 137.302 62.8404 138.198 60.1664 138.198C57.4924 138.198 55.9244 137.302 55.9244 135.552C55.9244 133.802 57.4924 132.906 60.1664 132.906ZM60.1664 134.04C58.1784 134.04 57.3104 134.628 57.3104 135.552C57.3104 136.476 58.1784 137.064 60.1664 137.064C62.1544 137.064 63.0224 136.476 63.0224 135.552C63.0224 134.628 62.1544 134.04 60.1664 134.04ZM67.1686 125.822H71.4106C72.2226 125.822 72.4886 126.074 72.4886 126.872V127.936C72.4886 129.924 71.6766 130.484 67.4486 132.486C67.1126 132.64 66.7766 132.458 66.6226 132.164C66.4966 131.884 66.4966 131.492 66.8606 131.324C70.7386 129.518 71.0886 129.154 71.0886 127.88V127.32C71.0886 127.11 71.0186 127.026 70.7946 127.026H67.1686C66.8326 127.026 66.6786 126.76 66.6786 126.438C66.6786 126.102 66.8326 125.822 67.1686 125.822ZM75.4706 125.108C75.8346 125.108 76.1706 125.29 76.1706 125.696V128.132H77.7106C78.0746 128.132 78.2286 128.412 78.2286 128.734C78.2286 129.084 78.0746 129.35 77.7106 129.35H76.1706V132.094C76.1706 132.5 75.8346 132.682 75.4706 132.682C75.1066 132.682 74.7706 132.5 74.7706 132.094V125.696C74.7706 125.29 75.1066 125.108 75.4706 125.108ZM68.3866 133.284H75.0926C75.9046 133.284 76.1706 133.536 76.1706 134.334V137.54C76.1706 137.946 75.8346 138.128 75.4706 138.128C75.1066 138.128 74.7706 137.946 74.7706 137.54V134.768C74.7706 134.558 74.6866 134.488 74.4766 134.488H68.3866C68.0366 134.488 67.8826 134.208 67.8826 133.886C67.8826 133.564 68.0366 133.284 68.3866 133.284ZM84.8388 125.248C87.5268 125.248 89.0948 125.934 89.0948 127.488C89.0948 129.056 87.5268 129.742 84.8388 129.742C82.1508 129.742 80.5828 129.056 80.5828 127.488C80.5828 125.934 82.1508 125.248 84.8388 125.248ZM84.8388 126.354C82.8368 126.354 81.9688 126.76 81.9688 127.488C81.9688 128.216 82.8368 128.636 84.8388 128.636C86.8408 128.636 87.7088 128.216 87.7088 127.488C87.7088 126.76 86.8408 126.354 84.8388 126.354ZM90.2428 130.624C90.5648 130.624 90.7188 130.876 90.7188 131.184C90.7188 131.52 90.5648 131.772 90.2428 131.772H79.4348C79.1128 131.772 78.9588 131.52 78.9588 131.184C78.9588 130.876 79.1128 130.624 79.4348 130.624H90.2428ZM88.0448 132.85C88.8568 132.85 89.1228 133.102 89.1228 133.9V134.936C89.1228 135.734 88.8568 135.986 88.0448 135.986H82.1228C81.9688 135.986 81.8988 136.042 81.8988 136.196V136.77C81.8988 136.91 81.9688 136.98 82.1228 136.98H88.9688C89.2768 136.98 89.4308 137.246 89.4308 137.526C89.4308 137.82 89.2768 138.072 88.9688 138.072H81.6188C80.8068 138.072 80.5408 137.82 80.5408 137.022V135.986C80.5408 135.188 80.8068 134.936 81.6188 134.936H87.5408C87.6948 134.936 87.7648 134.866 87.7648 134.726V134.166C87.7648 134.012 87.6948 133.942 87.5408 133.942H80.9608C80.6528 133.942 80.5128 133.69 80.5128 133.396C80.5128 133.116 80.6528 132.85 80.9608 132.85H88.0448ZM101.445 125.99C101.795 125.99 101.935 126.27 101.935 126.592C101.935 126.928 101.795 127.194 101.445 127.194H97.6509L97.4829 130.288C97.9589 129.938 98.6169 129.644 99.4989 129.644C101.431 129.644 102.523 130.988 102.523 132.696V132.85C102.523 134.404 101.557 136.098 99.0089 136.098C97.7489 136.098 96.7409 135.79 95.9849 135.286C95.6489 135.062 95.6069 134.684 95.8029 134.376C96.0129 134.04 96.3209 133.956 96.6569 134.166C97.3009 134.572 98.0289 134.824 98.9949 134.824C100.493 134.824 101.123 133.914 101.123 132.836V132.738C101.123 131.45 100.381 130.792 99.0929 130.792C98.3649 130.792 97.7629 131.058 97.3149 131.45C97.0769 131.646 96.9369 131.716 96.6709 131.716C96.3209 131.716 96.0689 131.534 96.0829 131.226L96.3209 127.068C96.3769 126.214 96.5869 125.99 97.3989 125.99H101.445ZM107.526 125.836C110.046 125.836 111.11 127.53 111.11 130.624V131.31C111.11 134.404 110.046 136.098 107.526 136.098C105.006 136.098 103.942 134.404 103.942 131.31V130.624C103.942 127.53 105.006 125.836 107.526 125.836ZM107.526 127.152C105.874 127.152 105.356 128.244 105.356 130.736V131.198C105.356 133.69 105.874 134.782 107.526 134.782C109.178 134.782 109.696 133.69 109.696 131.198V130.736C109.696 128.244 109.178 127.152 107.526 127.152ZM116.071 125.836C118.591 125.836 119.655 127.53 119.655 130.624V131.31C119.655 134.404 118.591 136.098 116.071 136.098C113.551 136.098 112.487 134.404 112.487 131.31V130.624C112.487 127.53 113.551 125.836 116.071 125.836ZM116.071 127.152C114.419 127.152 113.901 128.244 113.901 130.736V131.198C113.901 133.69 114.419 134.782 116.071 134.782C117.723 134.782 118.241 133.69 118.241 131.198V130.736C118.241 128.244 117.723 127.152 116.071 127.152ZM129.922 132.486C130.734 132.486 131 132.738 131 133.536V134.74C131 135.538 130.734 135.79 129.922 135.79H124C123.846 135.79 123.776 135.846 123.776 136V136.728C123.776 136.868 123.846 136.938 124 136.938H130.846C131.154 136.938 131.308 137.204 131.308 137.484C131.308 137.778 131.154 138.044 130.846 138.044H123.496C122.684 138.044 122.418 137.792 122.418 136.994V135.776C122.418 134.978 122.684 134.74 123.496 134.74H129.418C129.572 134.74 129.642 134.67 129.642 134.516V133.816C129.642 133.662 129.572 133.592 129.418 133.592H122.838C122.53 133.592 122.39 133.326 122.39 133.046C122.39 132.752 122.53 132.486 122.838 132.486H129.922ZM132.12 130.008C132.442 130.008 132.596 130.26 132.596 130.568C132.596 130.904 132.442 131.156 132.12 131.156H121.312C120.99 131.156 120.836 130.904 120.836 130.568C120.836 130.26 120.99 130.008 121.312 130.008H129.138C129.362 129.182 129.474 128.314 129.474 127.376V126.984C129.474 126.76 129.404 126.69 129.18 126.69H122.796C122.46 126.69 122.32 126.41 122.32 126.088C122.32 125.766 122.46 125.486 122.796 125.486H129.796C130.608 125.486 130.874 125.738 130.874 126.536V127.222C130.874 128.244 130.706 129.252 130.496 130.008H132.12ZM140.424 126.088C140.76 126.088 140.914 126.368 140.914 126.69C140.914 127.012 140.76 127.292 140.424 127.292H138.142V128.608C138.142 129.84 138.38 130.484 139.206 131.324C139.794 131.926 140.382 132.486 140.844 132.878C141.124 133.13 141.04 133.522 140.816 133.746C140.592 133.984 140.242 134.068 139.962 133.83C139.556 133.466 139.052 132.976 138.478 132.416C137.68 131.604 137.498 131.268 137.442 130.974H137.428C137.358 131.296 137.19 131.632 136.378 132.444C135.818 133.004 135.286 133.522 134.698 134.04C134.404 134.292 134.026 134.152 133.816 133.914C133.592 133.662 133.564 133.284 133.844 133.046C134.488 132.472 135.062 131.926 135.65 131.324C136.476 130.484 136.714 129.84 136.714 128.608V127.292H134.362C134.012 127.292 133.858 127.012 133.858 126.69C133.858 126.368 134.012 126.088 134.362 126.088H140.424ZM142.832 125.108C143.196 125.108 143.532 125.29 143.532 125.696V129.336H145.072C145.436 129.336 145.59 129.602 145.59 129.938C145.59 130.274 145.436 130.554 145.072 130.554H143.532V136.616C143.532 137.022 143.196 137.204 142.832 137.204C142.468 137.204 142.132 137.022 142.132 136.616V125.696C142.132 125.29 142.468 125.108 142.832 125.108ZM152.382 126.074C153.194 126.074 153.46 126.326 153.46 127.124V129C153.46 131.226 153.208 132.094 150.828 134.726C150.576 135.02 150.184 134.95 149.932 134.726C149.68 134.502 149.582 134.166 149.834 133.9C151.906 131.576 152.116 130.904 152.116 128.944V127.572C152.116 127.362 152.032 127.292 151.822 127.292H150.856C150.52 127.292 150.366 127.012 150.366 126.69C150.366 126.354 150.52 126.074 150.856 126.074H152.382ZM148.826 126.074C149.666 126.074 149.904 126.298 149.904 127.124V128.664C149.904 130.764 149.708 131.352 147.356 133.69C147.09 133.956 146.74 133.886 146.488 133.662C146.25 133.424 146.166 133.074 146.432 132.808C148.448 130.792 148.56 130.386 148.56 128.608V127.572C148.56 127.362 148.476 127.292 148.266 127.292H147.104C146.754 127.292 146.6 127.012 146.6 126.69C146.6 126.354 146.754 126.074 147.104 126.074H148.826ZM155.756 125.108C156.106 125.108 156.442 125.29 156.442 125.682V129.336H157.828C158.178 129.336 158.332 129.602 158.332 129.938C158.332 130.274 158.178 130.54 157.828 130.54H156.442V136.63C156.442 137.022 156.106 137.204 155.756 137.204C155.406 137.204 155.084 137.022 155.084 136.63V125.682C155.084 125.29 155.406 125.108 155.756 125.108ZM166.216 126.074C166.552 126.074 166.706 126.354 166.706 126.676C166.706 126.998 166.552 127.278 166.216 127.278H163.92V128.622C163.92 129.854 164.172 130.498 164.998 131.338C165.586 131.94 166.174 132.5 166.636 132.892C166.916 133.144 166.832 133.536 166.608 133.76C166.384 133.998 166.034 134.082 165.754 133.844C165.348 133.48 164.844 132.99 164.27 132.43C163.472 131.618 163.276 131.282 163.22 130.988H163.206C163.136 131.31 162.954 131.646 162.142 132.458C161.582 133.018 161.05 133.536 160.462 134.054C160.168 134.306 159.79 134.166 159.58 133.928C159.356 133.676 159.328 133.298 159.608 133.06C160.252 132.486 160.826 131.94 161.414 131.338C162.24 130.498 162.492 129.854 162.492 128.622V127.278H160.126C159.776 127.278 159.622 126.998 159.622 126.676C159.622 126.354 159.776 126.074 160.126 126.074H166.216ZM168.904 125.108C169.282 125.108 169.618 125.29 169.618 125.696V136.616C169.618 137.022 169.282 137.204 168.904 137.204C168.554 137.204 168.204 137.022 168.204 136.616V125.696C168.204 125.29 168.554 125.108 168.904 125.108Z" fill="white"/>
<path d="M26.744 149.318C27.01 149.318 27.248 149.444 27.248 149.738V152.244C27.248 152.426 27.332 152.496 27.514 152.496H34.402C34.64 152.496 34.752 152.692 34.752 152.93C34.752 153.168 34.64 153.364 34.402 153.364H27.192C26.464 153.364 26.226 153.14 26.226 152.426V149.738C26.226 149.444 26.464 149.318 26.744 149.318ZM35.858 154.694C36.096 154.694 36.208 154.89 36.208 155.128C36.208 155.366 36.096 155.562 35.858 155.562H24.882C24.644 155.562 24.532 155.366 24.532 155.128C24.532 154.89 24.644 154.694 24.882 154.694H35.858ZM33.562 156.948C34.29 156.948 34.528 157.172 34.528 157.886V158.922C34.528 159.636 34.29 159.86 33.562 159.86H27.416C27.262 159.86 27.192 159.916 27.192 160.084V160.952C27.192 161.106 27.262 161.162 27.416 161.162H34.542C34.766 161.162 34.864 161.358 34.864 161.568C34.864 161.792 34.766 161.988 34.542 161.988H27.164C26.436 161.988 26.198 161.764 26.198 161.05V160C26.198 159.286 26.436 159.062 27.164 159.062H33.31C33.478 159.062 33.548 159.006 33.548 158.852V157.984C33.548 157.83 33.478 157.76 33.31 157.76H26.506C26.282 157.76 26.17 157.578 26.17 157.354C26.17 157.144 26.282 156.948 26.506 156.948H33.562ZM47.2422 149.164C47.4942 149.164 47.7462 149.29 47.7462 149.584V160.728C47.7462 161.022 47.4942 161.148 47.2422 161.148C46.9762 161.148 46.7382 161.022 46.7382 160.728V154.442H44.0222C43.9102 156.822 42.8602 158.096 40.9002 158.096C38.8282 158.096 37.7502 156.668 37.7502 154.008C37.7502 151.348 38.8282 149.92 40.9002 149.92C42.8462 149.92 43.9102 151.194 44.0222 153.56H46.7382V149.584C46.7382 149.29 46.9762 149.164 47.2422 149.164ZM40.9002 150.83C39.4022 150.83 38.7582 151.978 38.7582 154.008C38.7582 156.038 39.4022 157.186 40.9002 157.186C42.3982 157.186 43.0422 156.038 43.0422 154.008C43.0422 151.978 42.3982 150.83 40.9002 150.83ZM51.1504 149.878C51.4164 149.878 51.6684 150.004 51.6684 150.298V154.722C51.6684 154.904 51.7384 154.974 51.9344 154.974C53.9504 154.974 55.6164 154.876 57.2824 154.638C57.5064 154.61 57.6604 154.778 57.7024 155.016C57.7304 155.268 57.6324 155.506 57.4084 155.534C55.9524 155.744 54.2164 155.87 51.5984 155.87C50.8704 155.87 50.6324 155.646 50.6324 154.932V150.298C50.6324 150.004 50.8844 149.878 51.1504 149.878ZM59.2844 149.164C59.5504 149.164 59.8024 149.29 59.8024 149.584V152.832H61.5804C61.8324 152.832 61.9444 153.042 61.9444 153.294C61.9444 153.532 61.8324 153.742 61.5804 153.742H59.8024V158.124C59.8024 158.418 59.5504 158.544 59.2844 158.544C59.0324 158.544 58.7804 158.418 58.7804 158.124V149.584C58.7804 149.29 59.0324 149.164 59.2844 149.164ZM52.5224 157.452C52.7884 157.452 53.0404 157.578 53.0404 157.872V160.616C53.0404 160.798 53.1104 160.868 53.3064 160.868H59.8024C60.0544 160.868 60.1664 161.078 60.1664 161.316C60.1664 161.554 60.0544 161.764 59.8024 161.764H52.9704C52.2424 161.764 52.0044 161.54 52.0044 160.826V157.872C52.0044 157.578 52.2564 157.452 52.5224 157.452ZM75.2886 156.584C76.0166 156.584 76.2546 156.808 76.2546 157.522V158.726C76.2546 159.44 76.0166 159.664 75.2886 159.664H69.1426C68.9886 159.664 68.9186 159.72 68.9186 159.888V160.91C68.9186 161.064 68.9886 161.12 69.1426 161.12H76.2686C76.4926 161.12 76.5906 161.316 76.5906 161.54C76.5906 161.764 76.4926 161.96 76.2686 161.96H68.8906C68.1626 161.96 67.9246 161.736 67.9246 161.022V159.804C67.9246 159.09 68.1626 158.866 68.8906 158.866H75.0366C75.2046 158.866 75.2746 158.796 75.2746 158.642V157.634C75.2746 157.48 75.2046 157.41 75.0366 157.41H68.2326C68.0086 157.41 67.8966 157.214 67.8966 156.99C67.8966 156.78 68.0086 156.584 68.2326 156.584H75.2886ZM77.5846 154.134C77.8226 154.134 77.9346 154.316 77.9346 154.554C77.9346 154.806 77.8226 154.988 77.5846 154.988H66.6086C66.3706 154.988 66.2586 154.806 66.2586 154.554C66.2586 154.316 66.3706 154.134 66.6086 154.134H74.7286C74.9946 153.224 75.1206 152.286 75.1206 151.264V150.704C75.1206 150.508 75.0506 150.452 74.8546 150.452H68.1626C67.9246 150.452 67.8126 150.242 67.8126 150.004C67.8126 149.766 67.9246 149.57 68.1626 149.57H75.1626C75.8906 149.57 76.1286 149.794 76.1286 150.508V151.152C76.1286 152.272 75.9746 153.322 75.7366 154.134H77.5846ZM85.9448 150.172C86.1827 150.172 86.2948 150.368 86.2948 150.62C86.2948 150.858 86.1827 151.068 85.9448 151.068H83.3548V152.65C83.3548 153.896 83.5928 154.526 84.4748 155.436C85.1048 156.066 85.7488 156.682 86.2528 157.116C86.4628 157.298 86.4068 157.592 86.2528 157.76C86.0708 157.928 85.8188 157.998 85.6088 157.802C85.1468 157.41 84.6008 156.878 83.9708 156.248C83.0888 155.366 82.9208 155.002 82.8508 154.694H82.8368C82.7668 155.016 82.5847 155.38 81.7168 156.262C81.0868 156.892 80.5267 157.424 79.8828 157.984C79.6588 158.18 79.3927 158.096 79.2388 157.928C79.0708 157.732 79.0288 157.452 79.2388 157.284C79.9388 156.668 80.5688 156.066 81.1988 155.436C82.0808 154.526 82.3188 153.896 82.3188 152.65V151.068H79.6728C79.4348 151.068 79.3228 150.858 79.3228 150.62C79.3228 150.368 79.4348 150.172 79.6728 150.172H85.9448ZM88.2688 149.164C88.5348 149.164 88.7868 149.29 88.7868 149.584V153.49H90.5648C90.8168 153.49 90.9288 153.7 90.9288 153.938C90.9288 154.19 90.8168 154.4 90.5648 154.4H88.7868V160.728C88.7868 161.022 88.5348 161.148 88.2688 161.148C88.0168 161.148 87.7648 161.022 87.7648 160.728V149.584C87.7648 149.29 88.0168 149.164 88.2688 149.164ZM101.081 149.486C101.347 149.486 101.599 149.626 101.599 149.92V150.788C101.599 151.796 102.089 152.426 103.027 152.916C104.077 153.462 104.931 153.882 105.729 154.26C105.981 154.372 105.995 154.68 105.897 154.876C105.799 155.1 105.575 155.24 105.309 155.114C104.399 154.694 103.531 154.26 102.649 153.784C101.613 153.238 101.179 152.734 101.095 152.37H101.081C100.997 152.748 100.563 153.252 99.5269 153.798C98.6449 154.274 97.7629 154.708 96.8669 155.128C96.6009 155.254 96.3629 155.1 96.2649 154.89C96.1669 154.68 96.1809 154.372 96.4329 154.26C97.2309 153.882 98.0849 153.462 99.1349 152.916C100.073 152.426 100.563 151.796 100.563 150.788V149.92C100.563 149.626 100.815 149.486 101.081 149.486ZM106.555 156.612C106.807 156.612 106.919 156.808 106.919 157.06C106.919 157.298 106.807 157.494 106.555 157.494H101.599V161.708C101.599 162.002 101.347 162.128 101.081 162.128C100.829 162.128 100.577 162.002 100.577 161.708V157.494H95.6069C95.3549 157.494 95.2429 157.298 95.2429 157.06C95.2429 156.808 95.3549 156.612 95.6069 156.612H106.555ZM116.973 149.92C117.701 149.92 117.939 150.144 117.939 150.858V152.678C117.939 153.392 117.701 153.616 116.973 153.616H110.967C110.771 153.616 110.701 153.686 110.701 153.882V155.352C110.701 155.534 110.771 155.604 110.967 155.604H117.925C118.163 155.604 118.275 155.8 118.275 156.038C118.275 156.276 118.163 156.486 117.925 156.486H114.341V158.964H119.297C119.549 158.964 119.661 159.16 119.661 159.412C119.661 159.65 119.549 159.846 119.297 159.846H108.349C108.097 159.846 107.985 159.65 107.985 159.412C107.985 159.16 108.097 158.964 108.349 158.964H113.319V156.486H110.659C109.931 156.486 109.693 156.262 109.693 155.548V153.714C109.693 153 109.931 152.776 110.659 152.776H116.679C116.861 152.776 116.945 152.706 116.945 152.51V151.054C116.945 150.858 116.861 150.788 116.679 150.788H110.015C109.777 150.788 109.665 150.592 109.665 150.354C109.665 150.116 109.777 149.92 110.015 149.92H116.973ZM125.361 150.018C125.627 150.018 125.879 150.144 125.879 150.438V156.71C125.879 156.906 125.949 156.976 126.145 156.976C128.161 156.976 129.827 156.864 131.493 156.64C131.717 156.612 131.871 156.766 131.913 157.018C131.941 157.27 131.843 157.508 131.619 157.536C130.163 157.732 128.427 157.858 125.809 157.858C125.081 157.858 124.843 157.634 124.843 156.92V150.438C124.843 150.144 125.095 150.018 125.361 150.018ZM133.495 149.164C133.761 149.164 134.013 149.29 134.013 149.584V153.49H135.791C136.043 153.49 136.155 153.7 136.155 153.938C136.155 154.19 136.043 154.4 135.791 154.4H134.013V160.728C134.013 161.022 133.761 161.148 133.495 161.148C133.243 161.148 132.991 161.022 132.991 160.728V149.584C132.991 149.29 133.243 149.164 133.495 149.164ZM141.254 149.906C143.452 149.906 144.558 151.208 144.558 152.888C144.558 154.554 143.452 155.856 141.254 155.856C139.056 155.856 137.95 154.554 137.95 152.888C137.95 151.208 139.056 149.906 141.254 149.906ZM141.254 150.788C139.686 150.788 138.944 151.726 138.944 152.888C138.944 154.05 139.686 154.988 141.254 154.988C142.822 154.988 143.564 154.05 143.564 152.888C143.564 151.726 142.822 150.788 141.254 150.788ZM145.3 157.718C145.524 157.69 145.664 157.858 145.692 158.096C145.706 158.348 145.594 158.572 145.384 158.586C142.78 158.81 140.316 158.894 137.516 158.894C137.264 158.894 137.152 158.698 137.152 158.446C137.152 158.208 137.264 157.998 137.516 157.998C140.078 157.998 142.472 157.97 145.3 157.718ZM147.106 149.164C147.358 149.164 147.61 149.29 147.61 149.584V160.728C147.61 161.022 147.358 161.148 147.106 161.148C146.84 161.148 146.602 161.022 146.602 160.728V149.584C146.602 149.29 146.84 149.164 147.106 149.164ZM156.39 149.668C156.656 149.668 156.908 149.794 156.908 150.088V151.516C156.908 152.482 157.048 153.042 157.762 153.742C158.322 154.288 158.784 154.694 159.246 155.1C159.442 155.268 159.428 155.548 159.274 155.73C159.106 155.926 158.84 155.982 158.616 155.8C158.238 155.478 157.776 155.072 157.328 154.638C156.698 154.036 156.474 153.686 156.418 153.406H156.404C156.334 153.714 156.138 154.036 155.48 154.68C154.906 155.226 154.472 155.59 153.954 156.038C153.744 156.206 153.464 156.15 153.296 155.954C153.142 155.772 153.128 155.478 153.324 155.31C153.856 154.862 154.472 154.316 155.046 153.756C155.746 153.07 155.886 152.496 155.886 151.544V150.088C155.886 149.794 156.138 149.668 156.39 149.668ZM163.516 149.164C163.768 149.164 164.006 149.29 164.006 149.57V156.472C164.006 156.752 163.768 156.864 163.516 156.864C163.278 156.864 163.04 156.752 163.04 156.472V153.252H161.178V155.884C161.178 156.164 160.94 156.276 160.688 156.276C160.45 156.276 160.212 156.164 160.212 155.884V149.64C160.212 149.36 160.45 149.234 160.688 149.234C160.94 149.234 161.178 149.36 161.178 149.64V152.37H163.04V149.57C163.04 149.29 163.278 149.164 163.516 149.164ZM159.862 156.99C162.494 156.99 163.992 157.886 163.992 159.552C163.992 161.218 162.494 162.114 159.862 162.114C157.23 162.114 155.732 161.218 155.732 159.552C155.732 157.886 157.23 156.99 159.862 156.99ZM159.862 157.83C157.748 157.83 156.754 158.488 156.754 159.552C156.754 160.616 157.748 161.274 159.862 161.274C161.976 161.274 162.97 160.616 162.97 159.552C162.97 158.488 161.976 157.83 159.862 157.83ZM171.12 149.906C171.848 149.906 172.086 150.13 172.086 150.844V151.88C172.086 153.868 171.288 154.386 167.018 156.416C166.794 156.514 166.528 156.416 166.416 156.178C166.304 155.968 166.304 155.674 166.57 155.562C170.588 153.686 171.078 153.294 171.078 151.838V151.054C171.078 150.858 171.008 150.788 170.812 150.788H166.85C166.598 150.788 166.486 150.592 166.486 150.354C166.486 150.102 166.598 149.906 166.85 149.906H171.12ZM175.222 149.164C175.488 149.164 175.74 149.29 175.74 149.584V152.272H177.518C177.77 152.272 177.882 152.482 177.882 152.734C177.882 152.972 177.77 153.182 177.518 153.182H175.74V156.234C175.74 156.528 175.488 156.654 175.222 156.654C174.97 156.654 174.718 156.528 174.718 156.234V149.584C174.718 149.29 174.97 149.164 175.222 149.164ZM174.774 157.368C175.502 157.368 175.74 157.592 175.74 158.306V161.652C175.74 161.946 175.488 162.072 175.222 162.072C174.97 162.072 174.718 161.946 174.718 161.652V158.502C174.718 158.32 174.648 158.25 174.452 158.25H168.04C167.802 158.25 167.69 158.054 167.69 157.816C167.69 157.564 167.802 157.368 168.04 157.368H174.774ZM184.534 149.318C187.18 149.318 188.678 150.018 188.678 151.502C188.678 152.972 187.18 153.672 184.534 153.672C181.888 153.672 180.39 152.972 180.39 151.502C180.39 150.018 181.888 149.318 184.534 149.318ZM184.534 150.158C182.406 150.158 181.412 150.62 181.412 151.502C181.412 152.37 182.406 152.846 184.534 152.846C186.662 152.846 187.656 152.37 187.656 151.502C187.656 150.62 186.662 150.158 184.534 150.158ZM190.022 154.764C190.26 154.764 190.372 154.96 190.372 155.198C190.372 155.436 190.26 155.632 190.022 155.632H179.046C178.808 155.632 178.696 155.436 178.696 155.198C178.696 154.96 178.808 154.764 179.046 154.764H190.022ZM187.726 156.948C188.454 156.948 188.692 157.172 188.692 157.886V158.922C188.692 159.636 188.454 159.86 187.726 159.86H181.58C181.426 159.86 181.356 159.916 181.356 160.084V160.952C181.356 161.106 181.426 161.162 181.58 161.162H188.706C188.93 161.162 189.028 161.358 189.028 161.568C189.028 161.792 188.93 161.988 188.706 161.988H181.328C180.6 161.988 180.362 161.764 180.362 161.05V160C180.362 159.286 180.6 159.062 181.328 159.062H187.474C187.642 159.062 187.712 159.006 187.712 158.852V157.984C187.712 157.83 187.642 157.76 187.474 157.76H180.67C180.446 157.76 180.334 157.578 180.334 157.354C180.334 157.144 180.446 156.948 180.67 156.948H187.726ZM201.28 150.13C201.532 150.13 201.644 150.326 201.644 150.564C201.644 150.816 201.532 151.012 201.28 151.012H197.01C196.814 151.012 196.744 151.082 196.744 151.278V156.85C196.744 157.046 196.814 157.116 197.01 157.116C199.068 157.116 200.734 157.004 202.4 156.78C202.624 156.752 202.778 156.906 202.82 157.158C202.848 157.41 202.75 157.648 202.526 157.676C201.07 157.872 199.334 157.998 196.688 157.998C195.96 157.998 195.722 157.774 195.722 157.06V151.068C195.722 150.354 195.96 150.13 196.688 150.13H201.28ZM204.906 149.164C205.158 149.164 205.41 149.29 205.41 149.584V160.728C205.41 161.022 205.158 161.148 204.906 161.148C204.64 161.148 204.402 161.022 204.402 160.728V154.344H201.21C200.958 154.344 200.846 154.134 200.846 153.896C200.846 153.644 200.958 153.448 201.21 153.448H204.402V149.584C204.402 149.29 204.64 149.164 204.906 149.164ZM216.654 149.906C217.382 149.906 217.62 150.13 217.62 150.844V151.838C217.62 153.77 216.864 154.288 212.51 156.276C212.3 156.374 212.048 156.276 211.922 156.038C211.81 155.828 211.824 155.534 212.076 155.422C216.136 153.602 216.612 153.21 216.612 151.796V151.054C216.612 150.858 216.542 150.788 216.346 150.788H212.356C212.104 150.788 211.992 150.592 211.992 150.354C211.992 150.102 212.104 149.906 212.356 149.906H216.654ZM221.064 149.164C221.316 149.164 221.568 149.29 221.568 149.584V155.954C221.568 156.248 221.316 156.374 221.064 156.374C220.798 156.374 220.546 156.248 220.546 155.954V149.584C220.546 149.29 220.798 149.164 221.064 149.164ZM221.596 157.158C221.834 157.158 221.946 157.354 221.946 157.592C221.946 157.816 221.834 158.012 221.596 158.012H220.07V160.98H221.694C221.932 160.98 222.044 161.176 222.044 161.414C222.044 161.652 221.932 161.834 221.694 161.834H213.504C213.266 161.834 213.154 161.652 213.154 161.414C213.154 161.176 213.266 160.98 213.504 160.98H215.128V158.012H213.602C213.364 158.012 213.252 157.816 213.252 157.592C213.252 157.354 213.364 157.158 213.602 157.158H221.596ZM216.122 160.98H219.076V158.012H216.122V160.98ZM227.675 149.906C229.775 149.906 230.853 151.348 230.853 154.008C230.853 156.668 229.775 158.11 227.675 158.11C225.575 158.11 224.483 156.668 224.483 154.008C224.483 151.348 225.575 149.906 227.675 149.906ZM227.675 150.816C226.149 150.816 225.491 151.978 225.491 154.008C225.491 156.038 226.149 157.2 227.675 157.2C229.201 157.2 229.859 156.038 229.859 154.008C229.859 151.978 229.201 150.816 227.675 150.816ZM233.793 149.164C234.059 149.164 234.311 149.29 234.311 149.584V160.728C234.311 161.022 234.059 161.148 233.793 161.148C233.541 161.148 233.289 161.022 233.289 160.728V149.584C233.289 149.29 233.541 149.164 233.793 149.164ZM240.389 149.696C242.531 149.696 243.553 150.984 243.553 152.664C243.553 154.33 242.531 155.618 240.389 155.618C238.247 155.618 237.225 154.33 237.225 152.664C237.225 150.984 238.247 149.696 240.389 149.696ZM240.389 150.564C238.835 150.564 238.219 151.53 238.219 152.664C238.219 153.798 238.835 154.75 240.389 154.75C241.943 154.75 242.559 153.798 242.559 152.664C242.559 151.53 241.943 150.564 240.389 150.564ZM246.549 149.164C246.801 149.164 247.053 149.29 247.053 149.584V155.954C247.053 156.248 246.801 156.374 246.549 156.374C246.283 156.374 246.031 156.248 246.031 155.954V149.584C246.031 149.29 246.283 149.164 246.549 149.164ZM240.809 156.794C241.061 156.794 241.299 156.92 241.299 157.214V157.97C241.299 158.894 241.453 159.23 242.097 159.958C242.335 160.224 242.615 160.532 242.867 160.756C243.021 160.91 243.133 160.91 243.301 160.756C243.539 160.532 243.833 160.224 244.071 159.958C244.701 159.23 244.855 158.894 244.855 157.97V157.214C244.855 156.92 245.107 156.794 245.359 156.794C245.611 156.794 245.863 156.92 245.863 157.214V157.97C245.863 158.908 246.031 159.272 246.787 159.958C247.137 160.294 247.655 160.7 248.159 161.078C248.341 161.218 248.341 161.47 248.187 161.68C248.019 161.876 247.781 161.932 247.557 161.764C247.081 161.4 246.661 161.05 246.339 160.77C245.695 160.21 245.443 159.902 245.359 159.622H245.345C245.261 159.916 245.051 160.168 244.421 160.84C244.183 161.092 243.945 161.33 243.707 161.554C243.231 161.988 242.937 161.988 242.447 161.554C242.209 161.33 241.985 161.092 241.733 160.84C241.103 160.168 240.907 159.916 240.823 159.622H240.809C240.725 159.916 240.473 160.224 239.815 160.784C239.507 161.05 239.073 161.414 238.597 161.778C238.387 161.932 238.135 161.89 237.981 161.68C237.813 161.484 237.827 161.218 237.995 161.078C238.513 160.7 239.017 160.294 239.381 159.958C240.137 159.272 240.305 158.908 240.305 157.97V157.214C240.305 156.92 240.557 156.794 240.809 156.794ZM257.163 149.304C257.401 149.304 257.639 149.43 257.639 149.71V160.154C257.639 160.434 257.401 160.56 257.163 160.56C256.911 160.56 256.673 160.434 256.673 160.154V154.442H254.433C254.069 155.632 253.075 156.374 250.401 158.264C250.205 158.404 249.911 158.334 249.771 158.124C249.617 157.914 249.617 157.606 249.827 157.466C253.327 155.044 253.621 154.778 253.621 152.608V151.39C253.621 151.208 253.537 151.138 253.355 151.138H250.163C249.911 151.138 249.799 150.928 249.799 150.69C249.799 150.452 249.911 150.242 250.163 150.242H253.649C254.377 150.242 254.615 150.466 254.615 151.18V152.65C254.615 152.986 254.601 153.294 254.573 153.56H256.673V149.71C256.673 149.43 256.911 149.304 257.163 149.304ZM259.711 149.164C259.963 149.164 260.201 149.29 260.201 149.57V160.742C260.201 161.022 259.963 161.148 259.711 161.148C259.473 161.148 259.235 161.022 259.235 160.742V149.57C259.235 149.29 259.473 149.164 259.711 149.164ZM272.705 149.92C272.943 149.92 273.055 150.116 273.055 150.354C273.055 150.606 272.943 150.802 272.705 150.802H270.171V151.796C270.171 152.762 270.437 153.35 271.151 153.924C271.851 154.47 272.509 154.96 272.943 155.268C273.181 155.45 273.195 155.716 273.041 155.912C272.915 156.094 272.663 156.206 272.411 156.024C272.075 155.8 271.431 155.31 270.773 154.806C270.045 154.218 269.737 153.826 269.667 153.532H269.653C269.583 153.84 269.275 154.246 268.533 154.834C267.889 155.352 267.217 155.842 266.671 156.22C266.433 156.388 266.181 156.276 266.041 156.094C265.901 155.898 265.887 155.618 266.139 155.45C266.811 154.974 267.455 154.498 268.155 153.938C268.869 153.364 269.135 152.776 269.135 151.824V150.802H266.517C266.279 150.802 266.167 150.606 266.167 150.354C266.167 150.116 266.279 149.92 266.517 149.92H272.705ZM275.617 149.164C275.869 149.164 276.121 149.29 276.121 149.584V156.234C276.121 156.528 275.869 156.654 275.617 156.654C275.351 156.654 275.113 156.528 275.113 156.234V153.35H272.719C272.481 153.35 272.369 153.154 272.369 152.902C272.369 152.664 272.481 152.454 272.719 152.454H275.113V149.584C275.113 149.29 275.351 149.164 275.617 149.164ZM275.155 157.368C275.883 157.368 276.121 157.592 276.121 158.306V161.652C276.121 161.946 275.869 162.072 275.603 162.072C275.351 162.072 275.099 161.946 275.099 161.652V158.502C275.099 158.32 275.029 158.25 274.833 158.25H268.225C267.987 158.25 267.875 158.054 267.875 157.816C267.875 157.564 267.987 157.368 268.225 157.368H275.155ZM288.359 149.164C288.611 149.164 288.863 149.29 288.863 149.584V160.728C288.863 161.022 288.611 161.148 288.359 161.148C288.093 161.148 287.855 161.022 287.855 160.728V154.442H285.139C285.027 156.822 283.977 158.096 282.017 158.096C279.945 158.096 278.867 156.668 278.867 154.008C278.867 151.348 279.945 149.92 282.017 149.92C283.963 149.92 285.027 151.194 285.139 153.56H287.855V149.584C287.855 149.29 288.093 149.164 288.359 149.164ZM282.017 150.83C280.519 150.83 279.875 151.978 279.875 154.008C279.875 156.038 280.519 157.186 282.017 157.186C283.515 157.186 284.159 156.038 284.159 154.008C284.159 151.978 283.515 150.83 282.017 150.83ZM296.972 149.682C299.646 149.682 301.158 150.914 301.158 152.93C301.158 154.946 299.646 156.178 296.972 156.178C294.298 156.178 292.786 154.946 292.786 152.93C292.786 150.914 294.298 149.682 296.972 149.682ZM296.972 150.55C294.83 150.55 293.808 151.558 293.808 152.93C293.808 154.288 294.83 155.296 296.972 155.296C299.114 155.296 300.136 154.288 300.136 152.93C300.136 151.558 299.114 150.55 296.972 150.55ZM294.746 156.5C295.026 156.5 295.264 156.626 295.264 156.92V158.978H298.68V156.92C298.68 156.626 298.918 156.5 299.184 156.5C299.45 156.5 299.702 156.626 299.702 156.92V158.978H302.46C302.698 158.978 302.81 159.174 302.81 159.412C302.81 159.65 302.698 159.846 302.46 159.846H291.484C291.246 159.846 291.134 159.65 291.134 159.412C291.134 159.174 291.246 158.978 291.484 158.978H294.242V156.92C294.242 156.626 294.494 156.5 294.746 156.5Z" fill="white"/>
<path d="M171.526 60.6597C169.804 53.5704 170.629 49.6722 171.609 47.0683C173.331 42.4868 185.799 32.2749 194.743 29.0712C197.108 28.2235 204.593 27 208.85 27C209.592 29.9506 207.371 35.4987 206.809 36.5122C205.539 38.8023 202.32 41.9187 195.919 48.5094C195.602 48.8358 189.472 47.9274 189.148 48.2677C188.792 48.6422 194.242 50.2656 193.878 50.6578C192.948 51.6574 191.995 52.7126 191.021 53.8298C190.804 54.0778 180.553 52.662 180.335 52.9163C180.043 53.2579 189.783 55.2722 189.487 55.6239C188.675 56.5919 187.851 57.6028 187.02 58.6568C184.847 61.4125 171.526 60.6597 171.526 60.6597Z" fill="#7676FD"/>
<path d="M188.879 42.1759C190.825 43.2661 195.703 44.4118 199.36 44.9524C201.686 42.7663 203.112 41.0969 204.341 39.7979C201.573 39.2448 197.305 38.3307 195.167 37.4424L194.167 36.9876L188.196 41.694L188.879 42.1759Z" fill="#A1A1FF"/>
<path d="M208.962 27.6515C208.939 27.4321 208.901 27.2144 208.849 27C208.362 27 207.829 27.0177 207.271 27.0456C202.843 27.2713 196.571 28.3208 194.423 29.075C193.978 29.2309 193.519 29.4172 193.059 29.6048C192.443 29.8558 191.817 30.1321 191.179 30.4338C191.638 32.311 192.63 34.419 193.507 35.5205C191.354 37.1684 189.276 38.9087 187.278 40.7365C179.994 47.3886 174.371 54.5173 170.527 60.0565C170.579 60.2771 170.625 60.4925 170.682 60.7207C170.682 60.7207 170.964 60.7359 171.44 60.7537C173.349 57.8535 178.786 50.3103 188.435 41.9419C190.571 40.0916 192.775 38.318 195.042 36.6245C197.29 37.6221 201.776 38.6488 204.686 39.2699C205.101 38.8022 205.466 38.3674 205.779 37.9669C206.186 37.4446 206.512 36.9718 206.762 36.5295C207.297 35.5839 209.298 30.7063 208.962 27.6515Z" fill="#7676FD"/>
<path d="M208.86 27.0101C208.381 27.0101 207.884 27.0063 207.381 27C202.29 29.3567 197.617 32.2743 193.374 35.4636C192.49 34.3695 191.621 32.3283 191.159 30.4658C189.15 31.4153 187.173 32.8404 185.297 34.0177C185.699 36.4209 186.301 39.1144 187.085 40.6386C172.227 53.9741 164.179 69.2715 164.069 69.4865C163.992 69.6358 163.979 69.8086 164.033 69.967C164.088 70.1253 164.205 70.2563 164.359 70.331C164.514 70.4057 164.692 70.4181 164.856 70.3654C165.02 70.3126 165.155 70.1992 165.233 70.0499C165.387 69.7506 181.023 40.0148 208.999 27.6439C208.96 27.4312 208.914 27.2198 208.86 27.0101Z" fill="#9F9FFF"/>
<path d="M168.71 62.9815C167.579 62.3179 166.561 58.138 167.405 57.7444C168.434 57.2664 168.361 58.7374 170.549 60.5532C172.737 62.3702 179.572 61.6389 181.298 62.13C183.199 62.6711 172.394 65.1422 168.71 62.9815Z" fill="#7676FD"/>
<defs>
<linearGradient id="paint0_linear_1_598" x1="37.8862" y1="91.7911" x2="213.562" y2="54.7487" gradientUnits="userSpaceOnUse">
<stop stop-color="#7373FD"/>
<stop offset="1" stop-color="#C2C2FF"/>
</linearGradient>
<linearGradient id="paint1_linear_1_598" x1="37.8862" y1="91.7911" x2="213.562" y2="54.7487" gradientUnits="userSpaceOnUse">
<stop stop-color="#7373FD"/>
<stop offset="1" stop-color="#C2C2FF"/>
</linearGradient>
<linearGradient id="paint2_linear_1_598" x1="37.8862" y1="91.7911" x2="213.562" y2="54.7487" gradientUnits="userSpaceOnUse">
<stop stop-color="#7373FD"/>
<stop offset="1" stop-color="#C2C2FF"/>
</linearGradient>
</defs>
</svg>
