<svg width="18" height="22" viewBox="0 0 18 22" fill="none" xmlns="http://www.w3.org/2000/svg">
<path d="M12.75 3.30438V2.5C12.75 1.90326 12.5129 1.33097 12.091 0.90901C11.669 0.487053 11.0967 0.25 10.5 0.25H7.5C6.90326 0.25 6.33097 0.487053 5.90901 0.90901C5.48705 1.33097 5.25 1.90326 5.25 2.5V3.30438C4.00133 3.48638 2.85973 4.11133 2.0336 5.06518C1.20746 6.01902 0.751879 7.23813 0.75 8.5V19.75C0.75 20.1478 0.908035 20.5294 1.18934 20.8107C1.47064 21.092 1.85218 21.25 2.25 21.25H15.75C16.1478 21.25 16.5294 21.092 16.8107 20.8107C17.092 20.5294 17.25 20.1478 17.25 19.75V8.5C17.2481 7.23813 16.7925 6.01902 15.9664 5.06518C15.1403 4.11133 13.9987 3.48638 12.75 3.30438ZM7.5 1.75H10.5C10.6989 1.75 10.8897 1.82902 11.0303 1.96967C11.171 2.11032 11.25 2.30109 11.25 2.5V3.25H6.75V2.5C6.75 2.30109 6.82902 2.11032 6.96967 1.96967C7.11032 1.82902 7.30109 1.75 7.5 1.75ZM12.75 14.5H5.25V13.75C5.25 13.5511 5.32902 13.3603 5.46967 13.2197C5.61032 13.079 5.80109 13 6 13H12C12.1989 13 12.3897 13.079 12.5303 13.2197C12.671 13.3603 12.75 13.5511 12.75 13.75V14.5ZM5.25 16H9.75V16.75C9.75 16.9489 9.82902 17.1397 9.96967 17.2803C10.1103 17.421 10.3011 17.5 10.5 17.5C10.6989 17.5 10.8897 17.421 11.0303 17.2803C11.171 17.1397 11.25 16.9489 11.25 16.75V16H12.75V19.75H5.25V16ZM15.75 19.75H14.25V13.75C14.25 13.1533 14.0129 12.581 13.591 12.159C13.169 11.7371 12.5967 11.5 12 11.5H6C5.40326 11.5 4.83097 11.7371 4.40901 12.159C3.98705 12.581 3.75 13.1533 3.75 13.75V19.75H2.25V8.5C2.25 7.50544 2.64509 6.55161 3.34835 5.84835C4.05161 5.14509 5.00544 4.75 6 4.75H12C12.9946 4.75 13.9484 5.14509 14.6517 5.84835C15.3549 6.55161 15.75 7.50544 15.75 8.5V19.75ZM11.25 7.75C11.25 7.94891 11.171 8.13968 11.0303 8.28033C10.8897 8.42098 10.6989 8.5 10.5 8.5H7.5C7.30109 8.5 7.11032 8.42098 6.96967 8.28033C6.82902 8.13968 6.75 7.94891 6.75 7.75C6.75 7.55109 6.82902 7.36032 6.96967 7.21967C7.11032 7.07902 7.30109 7 7.5 7H10.5C10.6989 7 10.8897 7.07902 11.0303 7.21967C11.171 7.36032 11.25 7.55109 11.25 7.75Z" fill="url(#paint0_linear_712_835)"/>
<defs>
<linearGradient id="paint0_linear_712_835" x1="0.750001" y1="22.7241" x2="20.4676" y2="10.5426" gradientUnits="userSpaceOnUse">
<stop offset="0.046875" stop-color="#7CEFA7"/>
<stop offset="1" stop-color="#8FD3F4"/>
</linearGradient>
</defs>
</svg>
