<svg width="37" height="37" viewBox="0 0 37 37" fill="none" xmlns="http://www.w3.org/2000/svg">
<path d="M8.30367 34.664C18.2418 34.7156 22.9475 31.4316 20.9744 29.3566C19.0014 27.2817 6.74321 23.0996 6.49585 20.0472C6.14146 15.6739 18.6904 9.80946 32.9821 8.98145" stroke="url(#paint0_linear_2646_9135)" stroke-opacity="0.5" stroke-width="1.8" stroke-linecap="round"/>
<path d="M5.27065 6.47761C5.30914 6.40723 5.41022 6.40723 5.44871 6.47761L5.83874 7.19074C5.84805 7.20777 5.86205 7.22177 5.87908 7.23108L6.59221 7.62111C6.66259 7.6596 6.66259 7.76068 6.59221 7.79918L5.87908 8.1892C5.86205 8.19851 5.84805 8.21251 5.83874 8.22954L5.44871 8.94268C5.41022 9.01306 5.30914 9.01306 5.27065 8.94268L4.88062 8.22954C4.87131 8.21251 4.85731 8.19851 4.84028 8.1892L4.12714 7.79918C4.05677 7.76068 4.05676 7.6596 4.12714 7.62111L4.84028 7.23108C4.85731 7.22177 4.87131 7.20777 4.88062 7.19074L5.27065 6.47761Z" fill="#07BEB8"/>
<path d="M27.1671 11.1478C26.6532 11.5127 26.0589 11.7483 25.4345 11.8346C24.7484 11.9547 24.0551 11.9487 23.2946 11.9547C23.045 11.9547 22.8057 12.0537 22.6293 12.23C22.4529 12.4063 22.3538 12.6454 22.3538 12.8948C22.3538 13.1441 22.4529 13.3832 22.6293 13.5595C22.8057 13.7358 23.045 13.8349 23.2946 13.8349H23.4423C24.2121 13.8509 24.9818 13.8019 25.7433 13.6884C26.7622 13.5179 27.6261 13.1637 28.3109 12.6378C29.1964 11.9571 29.7395 10.9809 29.7612 10.0276C29.7691 9.62518 29.6806 9.22666 29.5028 8.86542C28.9613 9.2136 28.4171 9.55899 27.87 9.90157C27.8753 9.92853 27.8789 9.9558 27.8808 9.98321C27.8748 10.3626 27.5936 10.8201 27.1671 11.1478Z" fill="#07BEB8"/>
<path d="M30.8417 22.6785C30.8586 22.6356 30.9192 22.6356 30.9361 22.6785L31.3899 23.8292C31.3951 23.8422 31.4054 23.8526 31.4185 23.8577L32.5692 24.3116C32.612 24.3285 32.612 24.3891 32.5692 24.406L31.4185 24.8598C31.4054 24.865 31.3951 24.8753 31.3899 24.8884L30.9361 26.0391C30.9192 26.0819 30.8586 26.0819 30.8417 26.0391L30.3878 24.8884C30.3827 24.8753 30.3723 24.865 30.3593 24.8598L29.2085 24.406C29.1657 24.3891 29.1657 24.3285 29.2085 24.3116L30.3593 23.8577C30.3723 23.8526 30.3827 23.8422 30.3878 23.8292L30.8417 22.6785Z" fill="#07BEB8"/>
<path d="M18.8576 19.2482C20.8475 19.1508 22.7958 18.6509 24.581 17.7796C25.5192 17.3099 26.4707 16.7451 26.9029 15.5012C27.0422 15.0788 27.0675 14.6281 26.9766 14.1931C26.3608 14.3192 25.7438 14.4401 25.1255 14.5558C25.1508 14.6695 25.147 14.7876 25.1147 14.8995C24.9263 15.4394 24.511 15.7248 23.7225 16.1219C22.1746 16.8697 20.4888 17.3005 18.7671 17.3884C18.1123 17.4189 17.4562 17.4102 16.8025 17.3622C16.8979 17.0245 16.9921 16.6868 17.0899 16.3467C17.2638 15.7319 17.4413 15.11 17.6163 14.4773C18.3638 11.7649 19.9745 9.72431 22.8277 7.85615C24.7343 6.60873 26.5914 5.34823 28.3628 3.64774C28.6707 3.35164 28.8892 3.24818 28.981 3.22321C29.0601 3.40344 29.0964 3.59906 29.0872 3.79519C29.0812 5.97134 27.2821 7.90371 24.9891 8.19506C24.8661 8.21067 24.7473 8.25 24.6397 8.31081C24.5321 8.37161 24.4377 8.45269 24.3619 8.54942C24.2861 8.64615 24.2304 8.75663 24.198 8.87457C24.1655 8.9925 24.157 9.11557 24.1729 9.23675C24.1887 9.35793 24.2287 9.47485 24.2904 9.58083C24.3521 9.68682 24.4345 9.77978 24.5327 9.85443C24.6309 9.92907 24.7431 9.98394 24.8628 10.0159C24.9826 10.0478 25.1076 10.0562 25.2306 10.0406C28.4461 9.63393 30.9709 6.89412 30.9793 3.80114C30.9793 2.49307 30.3309 1.54175 29.3203 1.38003C28.5958 1.26111 27.8025 1.58694 27.0442 2.31589C25.3876 3.90222 23.6102 5.10921 21.7857 6.30549C18.5642 8.41148 16.66 10.8504 15.7882 13.9803C15.6132 14.6093 15.4369 15.2277 15.2642 15.8389C15.1435 16.267 15.0227 16.6892 14.902 17.1113C13.3407 16.8188 11.9002 16.317 10.7966 15.6356C10.5842 15.51 10.3304 15.4716 10.0895 15.5284C9.84867 15.5853 9.64011 15.733 9.50866 15.9397C9.37721 16.1464 9.33337 16.3957 9.38658 16.6339C9.43979 16.8721 9.58579 17.0803 9.79319 17.2136C11.9135 18.5217 14.9032 19.2649 17.9375 19.2649C18.243 19.2708 18.5509 19.2637 18.8576 19.2482Z" fill="#07BEB8"/>
<path d="M15.9128 19.7823L14.568 19.6337C14.3399 19.6085 14.1302 19.7648 14.0915 19.991C13.0706 25.957 14.5647 29.9885 14.7289 30.5008C14.8967 31.0245 15.5325 30.8588 15.7764 31.4585C16.2602 32.6483 16.7997 33.4038 17.1531 33.314C17.5064 33.2242 16.8035 32.5105 16.7041 31.0694C16.6649 30.5006 17.21 30.4005 17.0594 29.8506C16.4457 27.6088 15.759 24.771 16.3026 20.2786C16.3322 20.0337 16.1579 19.8094 15.9128 19.7823Z" fill="#07BEB8"/>
<defs>
<linearGradient id="paint0_linear_2646_9135" x1="8.60006" y1="34.8072" x2="24.5209" y2="5.65904" gradientUnits="userSpaceOnUse">
<stop stop-color="#07BEB8"/>
<stop offset="0.0001" stop-color="#07BEB8" stop-opacity="0.765716"/>
<stop offset="1" stop-color="#E8E8E8" stop-opacity="0.3"/>
</linearGradient>
</defs>
</svg>
