<svg width="25" height="25" viewBox="0 0 25 25" fill="none" xmlns="http://www.w3.org/2000/svg">
<path d="M1.56353 17.0634L8.43647 23.9363M16.5 20.9998L21.5 15.9998L20.5 11.9998L13.5 4.99985M8.08579 23.9998H2.5C2.23478 23.9998 1.98043 23.8945 1.79289 23.707C1.60536 23.5194 1.5 23.2651 1.5 22.9998V17.4141C1.5 17.2827 1.52587 17.1527 1.57612 17.0314C1.62638 16.9101 1.70004 16.7998 1.79289 16.707L16.7929 1.70695C16.9804 1.51942 17.2348 1.41406 17.5 1.41406C17.7652 1.41406 18.0196 1.51942 18.2071 1.70695L23.7929 7.29274C23.9804 7.48028 24.0858 7.73463 24.0858 7.99985C24.0858 8.26506 23.9804 8.51942 23.7929 8.70696L8.79289 23.707C8.70003 23.7998 8.5898 23.8735 8.46847 23.9237C8.34714 23.974 8.21711 23.9998 8.08579 23.9998Z" stroke="url(#paint0_linear_702_909)" stroke-width="1.5" stroke-linecap="round" stroke-linejoin="round"/>
<defs>
<linearGradient id="paint0_linear_702_909" x1="1.5" y1="25.5853" x2="24.5444" y2="7.4657" gradientUnits="userSpaceOnUse">
<stop offset="0.046875" stop-color="#7CEFA7"/>
<stop offset="1" stop-color="#8FD3F4"/>
</linearGradient>
</defs>
</svg>
