<svg width="57" height="56" viewBox="0 0 57 56" fill="none" xmlns="http://www.w3.org/2000/svg">
<path d="M26.6459 9.09055C19.1098 10.7205 15.1821 16.2273 13.0149 22.1225C12.6991 22.9756 12.4305 23.8432 12.1982 24.7217C12.0784 25.1863 11.9622 25.6546 11.8533 26.1229C10.4993 31.8584 9.31225 38.0078 12.416 43.2169C17.048 50.9744 28.784 50.7239 37.2965 48.898C39.1246 48.4805 40.8785 47.7877 42.4984 46.8434C44.0233 45.9958 45.4012 44.9072 46.5786 43.6199C50.0998 39.6268 51.0146 34.8315 50.4193 30.5262C49.6715 25.1246 47.6749 21.8321 44.4768 17.5341C41.8269 13.9766 36.8137 10.303 31.895 9.18494C30.1734 8.76837 28.3813 8.73614 26.6459 9.09055Z" fill="white"/>
<path d="M46.6244 43.5836C53.1186 36.1528 50.436 25.847 45.4446 18.8264C42.4534 14.6155 38.326 10.8802 33.2802 9.24304" stroke="#868686" stroke-width="1.3" stroke-linecap="round" stroke-linejoin="round"/>
<path d="M11.7209 41.6852C11.8516 41.9901 11.9896 42.2878 12.1384 42.5745C16.4437 50.8293 29.4176 51.9547 39.8141 48.3464" stroke="#868686" stroke-width="1.3" stroke-linecap="round" stroke-linejoin="round"/>
<path d="M18.0679 13.8967C16.3419 15.8211 14.9218 17.9991 13.857 20.3547C13.465 21.1823 13.131 22.0318 12.8115 22.8957C12.6482 23.3531 12.4921 23.8105 12.336 24.2715" stroke="#868686" stroke-width="1.3" stroke-linecap="round" stroke-linejoin="round"/>
<path d="M29.3009 8.85322C28.4157 8.82357 27.5301 8.89668 26.6618 9.07104C24.8436 9.42693 22.9197 10.3768 21.3013 11.2787" stroke="#868686" stroke-width="1.3" stroke-linecap="round" stroke-linejoin="round"/>
<path d="M33.1042 25.3497C32.8729 24.6975 32.4599 24.125 31.9141 23.6997C31.3682 23.2744 30.7121 23.0139 30.0232 22.9491C29.3342 22.8842 28.6411 23.0176 28.0254 23.3336C27.4098 23.6496 26.8973 24.135 26.5483 24.7326C26.9367 26.1846 28.0765 27.9633 29.5358 28.1013C30.9951 28.2392 32.4399 26.7146 33.1006 25.3497H33.1042Z" fill="#FFAFA7"/>
<path d="M29.0882 10.4846C28.2206 13.189 25.665 14.7971 23.4252 14.4777C22.8154 9.07612 27.9737 8.27751 29.7379 8.69859" fill="#FFF8F2"/>
<path d="M29.0882 10.4846C28.2206 13.189 25.665 14.7971 23.4252 14.4777C22.8154 9.07612 27.9737 8.27751 29.7379 8.69859" stroke="#868686" stroke-width="1.3" stroke-linecap="round" stroke-linejoin="round"/>
<path d="M17.03 43.5544C15.8176 43.2459 14.5579 42.5344 13.988 40.9517C13.891 40.6838 13.7292 40.4442 13.517 40.2541C13.3048 40.0641 13.0488 39.9296 12.7719 39.8627C12.1711 39.7124 11.6126 39.4266 11.1394 39.027C10.6662 38.6274 10.2909 38.1248 10.0421 37.5576C9.8856 37.2223 9.83532 36.8471 9.89799 36.4825C9.96067 36.1178 10.1333 35.781 10.3928 35.5172C10.6522 35.2533 10.9861 35.0752 11.3497 35.0064C11.7133 34.9377 12.0892 34.9817 12.4271 35.1327C15.1041 36.3856 17.3848 38.351 19.0193 40.8137C19.2185 41.1214 19.3199 41.4822 19.3101 41.8485C19.3003 42.2149 19.1799 42.5697 18.9646 42.8663C18.7493 43.1629 18.4493 43.3874 18.104 43.5103C17.7586 43.6331 17.3842 43.6485 17.03 43.5544Z" fill="#FFE5D0"/>
<path d="M11.5434 39.2747C9.79729 38.6612 8.61751 34.3015 9.89166 28.9979C9.95923 28.6233 10.1101 28.2686 10.3332 27.9601C10.5562 27.6516 10.8458 27.3971 11.1803 27.2156C11.9899 26.8271 12.9555 27.0123 13.7722 27.2991C16.4294 28.2356 18.3679 30.116 19.653 32.5845C20.6367 34.4757 21.174 36.799 22.0815 38.6503C22.5994 39.7103 23.1596 40.7364 23.7622 41.7286C23.9125 41.9694 23.9929 42.2471 23.9945 42.5309C24.0044 42.8769 23.8884 43.2147 23.6681 43.4817C23.4478 43.7488 23.1382 43.9268 22.7966 43.9829C21.9983 44.1467 21.1683 44.0447 20.4334 43.6925C18.5821 42.8104 17.3515 41.2131 17.6709 38.0223" fill="#FFE5D0"/>
<path d="M11.5434 39.2747C9.79729 38.6612 8.61751 34.3015 9.89166 28.9979C9.95923 28.6233 10.1101 28.2686 10.3332 27.9601C10.5562 27.6516 10.8458 27.3971 11.1803 27.2156C11.9899 26.8271 12.9555 27.0123 13.7722 27.2991C16.4294 28.2356 18.3679 30.116 19.653 32.5845C20.6367 34.4757 21.174 36.799 22.0815 38.6503C22.5994 39.7103 23.1596 40.7364 23.7622 41.7286C23.9125 41.9694 23.9929 42.2471 23.9945 42.5309C24.0044 42.8769 23.8884 43.2147 23.6681 43.4817C23.4478 43.7488 23.1382 43.9268 22.7966 43.9829C21.9983 44.1467 21.1683 44.0447 20.4334 43.6925C18.5821 42.8104 17.3515 41.2131 17.6709 38.0223" stroke="#868686" stroke-width="1.3" stroke-linecap="round" stroke-linejoin="round"/>
<path d="M16.0596 42.9448C15.475 42.7852 14.9523 42.4524 14.5604 41.9901C13.5549 40.7668 13.3588 38.2221 14.1466 36.0259" stroke="#868686" stroke-width="1.3" stroke-linecap="round" stroke-linejoin="round"/>
<path d="M33.6703 20.5618L35.6487 21.9521" stroke="#868686" stroke-width="1.3" stroke-linecap="round" stroke-linejoin="round"/>
<path d="M27.0391 19.8358L24.8066 20.7651" stroke="#868686" stroke-width="1.3" stroke-linecap="round" stroke-linejoin="round"/>
<path d="M40.2068 43.4858C41.4229 43.1773 42.6789 42.4658 43.2488 40.8831C43.3464 40.6156 43.5084 40.3762 43.7205 40.1863C43.9326 39.9963 44.1883 39.8616 44.4649 39.794C45.0663 39.6441 45.6253 39.3583 46.0992 38.9588C46.573 38.5592 46.949 38.0564 47.1984 37.489C47.3555 37.1533 47.4062 36.7775 47.3435 36.4122C47.2808 36.0469 47.1078 35.7096 46.8477 35.4455C46.5876 35.1814 46.2529 35.0033 45.8885 34.9352C45.5242 34.867 45.1478 34.912 44.8098 35.0641C42.1333 36.318 39.8529 38.2832 38.2175 40.7451C38.0183 41.0528 37.917 41.4135 37.9267 41.7799C37.9365 42.1463 38.0569 42.5011 38.2722 42.7977C38.4875 43.0943 38.7875 43.3188 39.1329 43.4417C39.4782 43.5645 39.8526 43.5799 40.2068 43.4858Z" fill="#FFE5D0"/>
<path d="M45.6994 39.2057C47.4418 38.5959 48.6216 34.2325 47.3474 28.9326C47.2803 28.5573 47.1297 28.2019 46.9066 27.8927C46.6835 27.5836 46.3938 27.3286 46.0587 27.1466C45.2529 26.7618 44.2836 26.9433 43.4705 27.2337C40.8133 28.1558 38.8675 30.0471 37.5861 32.5119C36.606 34.4031 36.0688 36.7264 35.1612 38.5777C34.6421 39.6377 34.0722 40.6687 33.4805 41.6561C33.3305 41.8971 33.249 42.1744 33.2446 42.4583C33.2392 42.8032 33.3569 43.1387 33.5764 43.4047C33.7959 43.6708 34.1029 43.85 34.4425 43.9103C35.2413 44.0712 36.0707 43.968 36.8057 43.6163C38.657 42.7342 39.8912 41.1369 39.5718 37.9461" fill="#FFE5D0"/>
<path d="M45.6994 39.2057C47.4418 38.5959 48.6216 34.2325 47.3474 28.9326C47.2803 28.5573 47.1297 28.2019 46.9066 27.8927C46.6835 27.5836 46.3938 27.3286 46.0587 27.1466C45.2529 26.7618 44.2836 26.9433 43.4705 27.2337C40.8133 28.1558 38.8675 30.0471 37.5861 32.5119C36.606 34.4031 36.0688 36.7264 35.1612 38.5777C34.6421 39.6377 34.0722 40.6687 33.4805 41.6561C33.3305 41.8971 33.249 42.1744 33.2446 42.4583C33.2392 42.8032 33.3569 43.1387 33.5764 43.4047C33.7959 43.6708 34.1029 43.85 34.4425 43.9103C35.2413 44.0712 36.0707 43.968 36.8057 43.6163C38.657 42.7342 39.8912 41.1369 39.5718 37.9461" stroke="#868686" stroke-width="1.3" stroke-linecap="round" stroke-linejoin="round"/>
<path d="M41.1786 42.8757C41.7637 42.7172 42.2867 42.3842 42.6778 41.921C43.687 40.6977 43.8794 38.1566 43.0916 35.9604" stroke="#868686" stroke-width="1.3" stroke-linecap="round" stroke-linejoin="round"/>
<path d="M46.9033 9.46277C47.8363 9.539 49.3972 9.78949 49.8582 10.1307C50.0056 10.2191 50.133 10.3372 50.2323 10.4776C50.3316 10.6179 50.4005 10.7774 50.4347 10.9458C50.469 11.1143 50.4678 11.288 50.4312 11.456C50.3946 11.6239 50.3234 11.7824 50.2222 11.9213C50.1209 12.0603 49.9919 12.1766 49.8432 12.2629C49.6946 12.3492 49.5296 12.4036 49.3587 12.4226C49.1879 12.4417 49.015 12.4249 48.851 12.3734C48.687 12.322 48.5355 12.2369 48.4062 12.1236C48.2031 11.9671 48.0245 11.7811 47.8762 11.5719" stroke="#868686" stroke-width="1.3" stroke-linecap="round" stroke-linejoin="round"/>
<path d="M9.87341 15.0494C8.91507 15.1874 7.64817 15.5032 6.82414 16.4253C6.56813 16.681 6.4207 17.0257 6.41259 17.3875C6.40447 17.7493 6.53629 18.1003 6.78057 18.3673C6.90198 18.4848 7.04555 18.577 7.20292 18.6385C7.36028 18.7 7.52831 18.7296 7.69721 18.7255C7.86611 18.7215 8.03253 18.6839 8.18676 18.6149C8.341 18.5459 8.47998 18.447 8.59561 18.3238C8.77304 18.1377 8.92335 17.9275 9.04212 17.6994" stroke="#868686" stroke-width="1.3" stroke-linecap="round" stroke-linejoin="round"/>
<path d="M28.9567 30.5298L29.5738 32.3448C29.8621 32.1289 30.2042 31.9964 30.5627 31.9618C30.9213 31.9272 31.2824 31.9919 31.6066 32.1488C32.5868 32.6316 32.8481 33.4702 32.5614 34.5265C32.4904 34.7901 32.3653 35.0359 32.1941 35.2484C32.0228 35.4609 31.8092 35.6354 31.5667 35.7607C31.687 36.0509 31.743 36.3636 31.7311 36.6774C31.7192 36.9912 31.6395 37.2988 31.4976 37.5789C31.3556 37.8591 31.1548 38.1052 30.9088 38.3005C30.6629 38.4958 30.3776 38.6356 30.0725 38.7102C29.7674 38.7849 29.4499 38.7927 29.1415 38.7332C28.8331 38.6736 28.5413 38.548 28.286 38.3651C28.0307 38.1822 27.818 37.9462 27.6625 37.6734C27.5069 37.4005 27.4122 37.0973 27.3849 36.7844C27.0078 36.8028 26.6318 36.7317 26.2875 36.5769C25.9433 36.4221 25.6405 36.188 25.404 35.8938C25.1675 35.5996 25.004 35.2536 24.9268 34.8841C24.8496 34.5146 24.861 34.1321 24.96 33.7678C25.3012 32.49 26.2741 31.9782 27.2869 32.2468L28.9567 30.5298Z" fill="#FFF8F2" stroke="#868686" stroke-width="1.3" stroke-linecap="round" stroke-linejoin="round"/>
<path d="M37.1239 8.13235C37.3597 9.44316 35.2065 14.2723 30.1069 15.1273C30.26 15.5687 30.4418 15.9996 30.6511 16.4174C30.6511 16.4174 22.2364 19.1566 18.4339 11.7607C21.6087 4.00096 28.2994 5.43639 28.2994 5.43639C28.2994 5.43639 28.3222 6.16816 28.3155 6.94079C31.7326 5.83629 35.8685 6.80506 37.1142 8.12043L37.1239 8.13235Z" fill="#FFDB9E" stroke="#868686" stroke-width="1.3" stroke-linecap="round" stroke-linejoin="round"/>
<path d="M23.0544 11.9675L24.6967 14.2192" stroke="#868686" stroke-width="1.3" stroke-linecap="round" stroke-linejoin="round"/>
<path d="M23.0553 11.9674L24.8636 8.82606" stroke="#868686" stroke-width="1.3" stroke-linecap="round" stroke-linejoin="round"/>
<path d="M27.3837 11.3433L28.6594 13.0956" stroke="#868686" stroke-width="1.3" stroke-linecap="round" stroke-linejoin="round"/>
<path d="M27.3854 11.3432L28.187 9.49977" stroke="#868686" stroke-width="1.3" stroke-linecap="round" stroke-linejoin="round"/>
<path d="M16.242 10.8045C16.242 10.8045 23.2083 13.6276 31.7446 10.3204" stroke="#868686" stroke-width="1.3" stroke-linecap="round" stroke-linejoin="round"/>
</svg>
