<svg width="23" height="28" viewBox="0 0 23 28" fill="none" xmlns="http://www.w3.org/2000/svg">
<path d="M6.5 27.0001H16.5M11.5 23.0001V16.0001M11.5 16.0001L7.5 12.0001M11.5 16.0001L15.5 12.0001M5.33796 18.8765C4.14889 17.9478 3.1858 16.7616 2.52108 15.4072C1.85636 14.0527 1.50731 12.5652 1.50015 11.0565C1.4702 5.6362 5.84 1.13044 11.2589 1.0029C13.3587 0.952338 15.4212 1.56423 17.1537 2.75179C18.8862 3.93934 20.2008 5.64226 20.911 7.61899C21.6212 9.59571 21.691 11.7459 21.1104 13.7645C20.5299 15.7831 19.3284 17.5677 17.6766 18.8651C17.3127 19.147 17.0178 19.5079 16.8139 19.9205C16.6101 20.3332 16.5028 20.7868 16.5 21.247L16.5 22.0001C16.5 22.2653 16.3947 22.5196 16.2071 22.7072C16.0196 22.8947 15.7652 23.0001 15.5 23.0001H7.49998C7.23477 23.0001 6.98041 22.8947 6.79288 22.7072C6.60534 22.5196 6.49998 22.2653 6.49998 22.0001L6.49997 21.2462C6.49883 20.7889 6.39361 20.3379 6.19228 19.9273C5.99095 19.5167 5.6988 19.1574 5.33796 18.8765Z" stroke="url(#paint0_linear_702_920)" stroke-width="1.5" stroke-linecap="round" stroke-linejoin="round"/>
<defs>
<linearGradient id="paint0_linear_702_920" x1="1.5" y1="28.8252" x2="25.6774" y2="14.2017" gradientUnits="userSpaceOnUse">
<stop offset="0.046875" stop-color="#7CEFA7"/>
<stop offset="1" stop-color="#8FD3F4"/>
</linearGradient>
</defs>
</svg>
