<svg width="33" height="32" viewBox="0 0 33 32" fill="none" xmlns="http://www.w3.org/2000/svg">
<g clip-path="url(#clip0_4390_2380)">
<path d="M12.5 20H5.5C5.23478 20 4.98043 19.8946 4.79289 19.7071C4.60536 19.5196 4.5 19.2652 4.5 19V13C4.5 12.7348 4.60536 12.4804 4.79289 12.2929C4.98043 12.1054 5.23478 12 5.5 12H12.5V5C12.5 4.73478 12.6054 4.48043 12.7929 4.29289C12.9804 4.10536 13.2348 4 13.5 4H19.5C19.7652 4 20.0196 4.10536 20.2071 4.29289C20.3946 4.48043 20.5 4.73478 20.5 5V12H27.5C27.7652 12 28.0196 12.1054 28.2071 12.2929C28.3946 12.4804 28.5 12.7348 28.5 13V19C28.5 19.2652 28.3946 19.5196 28.2071 19.7071C28.0196 19.8946 27.7652 20 27.5 20H20.5V27C20.5 27.2652 20.3946 27.5196 20.2071 27.7071C20.0196 27.8946 19.7652 28 19.5 28H13.5C13.2348 28 12.9804 27.8946 12.7929 27.7071C12.6054 27.5196 12.5 27.2652 12.5 27V20Z" fill="#FF7A72"/>
<mask id="mask0_4390_2380" style="mask-type:alpha" maskUnits="userSpaceOnUse" x="1" y="-5" width="23" height="29">
<rect x="21.876" y="-4.27402" width="2.30713" height="33.575" transform="rotate(38.3056 21.876 -4.27402)" fill="#FF928B"/>
</mask>
<g mask="url(#mask0_4390_2380)">
<path d="M12.5 20H5.5C5.23478 20 4.98043 19.8946 4.79289 19.7071C4.60536 19.5196 4.5 19.2652 4.5 19V13C4.5 12.7348 4.60536 12.4804 4.79289 12.2929C4.98043 12.1054 5.23478 12 5.5 12H12.5V5C12.5 4.73478 12.6054 4.48043 12.7929 4.29289C12.9804 4.10536 13.2348 4 13.5 4H19.5C19.7652 4 20.0196 4.10536 20.2071 4.29289C20.3946 4.48043 20.5 4.73478 20.5 5V12H27.5C27.7652 12 28.0196 12.1054 28.2071 12.2929C28.3946 12.4804 28.5 12.7348 28.5 13V19C28.5 19.2652 28.3946 19.5196 28.2071 19.7071C28.0196 19.8946 27.7652 20 27.5 20H20.5V27C20.5 27.2652 20.3946 27.5196 20.2071 27.7071C20.0196 27.8946 19.7652 28 19.5 28H13.5C13.2348 28 12.9804 27.8946 12.7929 27.7071C12.6054 27.5196 12.5 27.2652 12.5 27V20Z" fill="#FF8882" stroke="#FF8882" stroke-linecap="round" stroke-linejoin="round"/>
</g>
<mask id="mask1_4390_2380" style="mask-type:alpha" maskUnits="userSpaceOnUse" x="6" y="1" width="19" height="23">
<path d="M22.3418 1.85216L24.1522 3.28224L8.40321 23.22L6.51796 21.9229L22.3418 1.85216Z" fill="#FF928B"/>
</mask>
<g mask="url(#mask1_4390_2380)">
<path d="M12.5 20H5.5C5.23478 20 4.98043 19.8946 4.79289 19.7071C4.60536 19.5196 4.5 19.2652 4.5 19V13C4.5 12.7348 4.60536 12.4804 4.79289 12.2929C4.98043 12.1054 5.23478 12 5.5 12H12.5V5C12.5 4.73478 12.6054 4.48043 12.7929 4.29289C12.9804 4.10536 13.2348 4 13.5 4H19.5C19.7652 4 20.0196 4.10536 20.2071 4.29289C20.3946 4.48043 20.5 4.73478 20.5 5V12H27.5C27.7652 12 28.0196 12.1054 28.2071 12.2929C28.3946 12.4804 28.5 12.7348 28.5 13V19C28.5 19.2652 28.3946 19.5196 28.2071 19.7071C28.0196 19.8946 27.7652 20 27.5 20H20.5V27C20.5 27.2652 20.3946 27.5196 20.2071 27.7071C20.0196 27.8946 19.7652 28 19.5 28H13.5C13.2348 28 12.9804 27.8946 12.7929 27.7071C12.6054 27.5196 12.5 27.2652 12.5 27V20Z" fill="#FF8882" stroke="#FF8882" stroke-linecap="round" stroke-linejoin="round"/>
</g>
<path d="M12.5 19.9999H5.5C5.23478 19.9999 4.98043 19.8946 4.79289 19.707C4.60536 19.5195 4.5 19.2651 4.5 18.9999V12.9999C4.5 12.7347 4.60536 12.4803 4.79289 12.2928C4.98043 12.1053 5.23478 11.9999 5.5 11.9999H12.5V4.99991C12.5 4.73469 12.6054 4.48034 12.7929 4.2928C12.9804 4.10527 13.2348 3.99991 13.5 3.99991H19.5C19.7652 3.99991 20.0196 4.10527 20.2071 4.2928C20.3946 4.48034 20.5 4.73469 20.5 4.99991V11.9999H27.5C27.7652 11.9999 28.0196 12.1053 28.2071 12.2928C28.3946 12.4803 28.5 12.7347 28.5 12.9999V18.9999C28.5 19.2651 28.3946 19.5195 28.2071 19.707C28.0196 19.8946 27.7652 19.9999 27.5 19.9999H20.5V26.9999C20.5 27.2651 20.3946 27.5195 20.2071 27.707C20.0196 27.8946 19.7652 27.9999 19.5 27.9999H13.5C13.2348 27.9999 12.9804 27.8946 12.7929 27.707C12.6054 27.5195 12.5 27.2651 12.5 26.9999V19.9999Z" stroke="#FF6960" stroke-linecap="round" stroke-linejoin="round"/>
</g>
<defs>
<clipPath id="clip0_4390_2380">
<rect width="32" height="32" fill="white" transform="translate(0.5)"/>
</clipPath>
</defs>
</svg>
