<svg width="101" height="100" viewBox="0 0 101 100" fill="none" xmlns="http://www.w3.org/2000/svg">
<g clip-path="url(#clip0_4750_59528)">
<path d="M2.54171 44.9687C2.54171 44.9687 -0.647894 53.53 6.57194 56.1115C5.80882 61.1016 9.63038 64.0169 14.7159 65.0543C14.5847 53.9771 5.90421 44.778 2.54171 44.9687Z" fill="#FBFFE7"/>
<path d="M7.07209 59.9032C7.59077 63.3909 15.9374 67.2482 27.265 65.2689C27.4869 62.7131 27.2362 60.1384 26.5257 57.6734C25.5658 54.1798 23.7176 51.5327 20.3551 48.8856C17.6067 46.7155 14.0296 45.1296 11.3229 43.0966C9.79269 41.9361 8.31415 40.7159 6.88727 39.4361C6.53848 39.1312 6.11441 38.9253 5.65913 38.8399C5.10242 38.7197 4.52107 38.8026 4.02024 39.0738C3.51941 39.345 3.13218 39.7865 2.92859 40.3184C2.42084 41.5576 2.33084 42.9285 2.67223 44.2234C3.51881 47.4548 5.71874 49.923 10.9652 50.4059" fill="#FBFFE7"/>
<path d="M7.07209 59.9032C7.59077 63.3909 15.9374 67.2482 27.265 65.2689C27.4869 62.7131 27.2363 60.1384 26.5257 57.6734C25.5658 54.1798 23.7176 51.5327 20.3551 48.8856C17.6067 46.7155 14.0296 45.1296 11.3229 43.0966C9.79269 41.9361 8.31415 40.7159 6.88727 39.4361C6.53848 39.1312 6.11441 38.9253 5.65913 38.8399C5.10242 38.7197 4.52107 38.8026 4.02024 39.0738C3.51941 39.345 3.13218 39.7865 2.92859 40.3184C2.42084 41.5576 2.33084 42.9285 2.67223 44.2234C3.51881 47.4548 5.71874 49.923 10.9652 50.4059" stroke="#878787" stroke-width="2.32143" stroke-linecap="round" stroke-linejoin="round"/>
<path d="M2.53906 51.4844C2.61295 52.4777 2.98957 53.4244 3.61816 54.197C5.27556 56.1943 9.31772 57.2972 13.1035 56.707" fill="#FBFFE7"/>
<path d="M2.53906 51.4844C2.61295 52.4777 2.98957 53.4244 3.61816 54.197C5.27556 56.1943 9.31772 57.2972 13.1035 56.707" stroke="#878787" stroke-width="2.32143" stroke-linecap="round" stroke-linejoin="round"/>
<path d="M48.7846 20.5946C61.6011 20.0635 70.0716 27.3749 75.8099 36.0989C76.643 37.3645 77.4061 38.6641 78.1111 39.9975C78.4839 40.7095 78.8509 41.4214 79.2063 42.1446C83.5581 50.9307 86.7797 60.7226 84.0532 70.6727C79.6665 86.6346 64.2809 89.81 46.4951 90.0869C43.3829 90.1437 40.2786 89.7631 37.2789 88.9568C34.4787 88.2149 31.8304 87.0128 29.4491 85.4028C22.2369 80.3967 18.9629 72.9271 18.2813 65.627C17.4599 56.4906 19.8892 50.1228 23.4603 41.7548C26.4198 34.8219 32.7406 26.8607 40.2966 22.9621C42.9073 21.5661 45.8081 20.757 48.7846 20.5946Z" fill="white"/>
<path d="M66.0231 25.6006C69.9276 28.482 73.2463 32.0417 75.8103 36.0987C76.6433 37.3644 77.4065 38.6639 78.1114 39.9974C78.4843 40.7093 78.8513 41.4212 79.2066 42.1445C83.5584 50.9306 86.78 60.7225 84.0536 70.6725C79.6669 86.6344 57.3836 92.4937 38.6133 89.2562" stroke="#878787" stroke-width="2.32143" stroke-linecap="round" stroke-linejoin="round"/>
<path d="M44.3789 21.3349C45.8104 20.9071 47.2924 20.6583 48.7889 20.5947C53.0866 20.3712 57.376 21.1603 61.2909 22.8943" stroke="#878787" stroke-width="2.32143" stroke-linecap="round" stroke-linejoin="round"/>
<path d="M29.449 85.4031C11.5175 72.9726 17.384 46.2527 29.3965 31.9802C31.9275 28.9209 34.937 26.2651 38.3156 24.1094" stroke="#878787" stroke-width="2.32143" stroke-linecap="round" stroke-linejoin="round"/>
<path d="M49.4707 24.8598C50.755 23.7302 51.7626 22.3207 52.4159 20.7401C53.7454 17.5624 53.5546 14.2238 52.1655 11.8867C49.5184 12.5246 46.9965 14.7186 45.6611 17.8963C44.3256 21.074 44.5164 24.4067 45.8936 26.7497" fill="#FFF9F3"/>
<path d="M49.4707 24.8598C50.755 23.7302 51.7626 22.3207 52.4159 20.7401C53.7454 17.5624 53.5546 14.2238 52.1655 11.8867C49.5184 12.5246 46.9965 14.7186 45.6611 17.8963C44.3256 21.074 44.5164 24.4067 45.8936 26.7497" stroke="#878787" stroke-width="2.32143" stroke-linecap="round" stroke-linejoin="round"/>
<path d="M44.7554 48.912C44.7989 49.3221 44.7199 49.736 44.5284 50.1012C44.3369 50.4665 44.0414 50.7668 43.6793 50.9643C43.3171 51.1617 42.9046 51.2474 42.4938 51.2105C42.0831 51.1736 41.6924 51.0158 41.3712 50.7571C41.0501 50.4983 40.8128 50.1502 40.6894 49.7566C40.5659 49.3631 40.5619 48.9418 40.6778 48.546C40.7937 48.1501 41.0242 47.7975 41.3404 47.5327C41.6566 47.2678 42.0441 47.1026 42.4541 47.0579C42.7272 47.0273 43.0036 47.0511 43.2674 47.1279C43.5312 47.2047 43.7772 47.333 43.9911 47.5054C44.2051 47.6778 44.3828 47.8908 44.514 48.1322C44.6451 48.3737 44.7272 48.6387 44.7554 48.912Z" fill="#878787"/>
<path d="M53.8985 48.647C53.8985 48.647 55.0537 46.6307 57.4368 47.9392L53.8985 48.647Z" fill="#FFF9F3"/>
<path d="M53.8985 48.647C53.8985 48.647 55.0537 46.6307 57.4368 47.9392" stroke="#878787" stroke-width="2.32143" stroke-linecap="round" stroke-linejoin="round"/>
<path d="M55.6767 55.5062C55.0715 54.5336 54.1978 53.7571 53.1609 53.2703C52.124 52.7835 50.9684 52.6074 49.8335 52.7631C48.6987 52.9188 47.6333 53.3998 46.7658 54.1478C45.8984 54.8959 45.2661 55.8792 44.9453 56.9788V57.0086C46.1377 59.1966 48.6059 61.5992 50.9907 61.2773C53.3754 60.9553 55.1461 57.9446 55.6827 55.5599L55.6767 55.5062Z" fill="#FFC3DD"/>
<path d="M88.4063 77.2634C86.3494 77.2634 84.0541 76.6672 82.4862 74.4017C82.2171 74.0224 81.8588 73.7153 81.4429 73.5073C81.027 73.2993 80.5663 73.197 80.1014 73.2093C79.0844 73.223 78.0779 73.0033 77.1591 72.5671C76.2403 72.131 75.4337 71.49 74.8013 70.6934C74.4133 70.2264 74.1772 69.652 74.1245 69.0471C74.0719 68.4422 74.2052 67.8356 74.5066 67.3086C74.8081 66.7815 75.2633 66.3591 75.8114 66.0978C76.3595 65.8365 76.9743 65.7488 77.5736 65.8464C82.349 66.7124 86.7939 68.8761 90.4214 72.1004C90.8587 72.5074 91.1636 73.0363 91.2966 73.6187C91.4296 74.201 91.3846 74.8099 91.1674 75.3663C90.9503 75.9228 90.5709 76.4012 90.0786 76.7394C89.5862 77.0777 89.0036 77.2602 88.4063 77.2634Z" fill="#FBFFE7"/>
<path d="M77.8978 72.7685C74.8692 72.53 71.1728 66.0971 70.9701 57.1424C70.9207 56.5195 71.0119 55.8934 71.2368 55.3104C71.4618 54.7273 71.8148 54.2023 72.2698 53.774C73.3906 52.8201 75.0063 52.7068 76.4431 52.8201C81.0516 53.1957 84.9209 55.3598 87.9972 58.7462C90.3521 61.3336 92.1705 64.7975 94.3943 67.3611C95.6642 68.8277 96.9817 70.2287 98.353 71.5344C98.6943 71.8593 98.9398 72.2718 99.0624 72.7268C99.2284 73.2738 99.1892 73.8627 98.9522 74.3829C98.7151 74.9031 98.2964 75.319 97.7747 75.5527C96.5754 76.1476 95.2145 76.334 93.8995 76.0833C90.5847 75.4573 87.9376 73.4362 87.1327 68.2315" fill="#FBFFE7"/>
<path d="M77.8978 72.7685C74.8692 72.53 71.1728 66.0971 70.9701 57.1424C70.9207 56.5195 71.0119 55.8934 71.2368 55.3104C71.4618 54.7273 71.8148 54.2023 72.2698 53.774C73.3906 52.8201 75.0063 52.7068 76.4431 52.8201C81.0516 53.1957 84.9209 55.3598 87.9972 58.7462C90.3521 61.3336 92.1705 64.7975 94.3943 67.3611C95.6642 68.8277 96.9817 70.2287 98.353 71.5344C98.6943 71.8593 98.9398 72.2718 99.0624 72.7268C99.2284 73.2738 99.1892 73.8627 98.9522 74.3829C98.7151 74.9031 98.2964 75.319 97.7747 75.5527C96.5754 76.1476 95.2145 76.334 93.8995 76.0833C90.5847 75.4573 87.9376 73.4362 87.1327 68.2315" stroke="#878787" stroke-width="2.32143" stroke-linecap="round" stroke-linejoin="round"/>
<path d="M86.6073 76.7034C85.6131 76.6928 84.645 76.3833 83.8291 75.8151C81.7186 74.2948 80.3414 70.3361 80.6693 66.5205" fill="#FBFFE7"/>
<path d="M86.6073 76.7034C85.6131 76.6928 84.645 76.3833 83.8291 75.8151C81.7186 74.2948 80.3414 70.3361 80.6693 66.5205" stroke="#878787" stroke-width="2.32143" stroke-linecap="round" stroke-linejoin="round"/>
<rect x="16.9023" y="12.374" width="3.23237" height="38.2935" transform="rotate(12.5706 16.9023 12.374)" fill="#FFF9E3"/>
<path d="M20.4512 35.3712L15.1213 35.2203L19.5833 15.2104L24.9153 15.3618C28.4767 15.4626 31.9456 16.566 34.8995 18.5375L35.2853 18.7937C38.2361 20.764 41.7386 21.7905 45.2953 21.7274C45.6808 21.7208 46.0639 21.7996 46.4157 21.9577C46.7676 22.1157 47.0788 22.349 47.3258 22.6397C47.5728 22.9304 47.7491 23.271 47.8414 23.6356C47.9336 24.0002 47.9394 24.3792 47.8582 24.7438L44.571 39.4851C44.4312 40.1117 44.0788 40.6721 43.5699 41.0769C43.0609 41.4818 42.4247 41.7081 41.7623 41.7197L41.296 41.727C37.4381 41.7963 33.6387 40.6838 30.4375 38.5474C27.4832 36.5752 24.0134 35.4716 20.4512 35.3712Z" fill="#F2FDF6"/>
<path d="M16.2096 30.3323L14.9271 36.0839L11.8587 49.8441C11.6644 50.7153 10.8007 51.264 9.92952 51.0697V51.0697C9.05832 50.8755 8.50956 50.0118 8.70383 49.1406L16.5506 13.9515C16.7449 13.0803 17.6086 12.5315 18.4798 12.7258V12.7258C19.351 12.92 19.8997 13.7838 19.7055 14.655L19.2022 16.9119L17.9197 22.6635" stroke="#878787" stroke-width="2.31875" stroke-linecap="round"/>
<path d="M16.8284 35.6012L21.8571 35.6849C25.218 35.7404 28.4791 36.7975 31.2428 38.7272C34.2375 40.8175 37.8097 41.8794 41.4518 41.7619L41.892 41.7488C42.5173 41.7289 43.1207 41.4954 43.6061 41.0852C44.0915 40.6751 44.4312 40.1119 44.571 39.4853L47.8581 24.744C47.9393 24.3794 47.9386 24.0015 47.8561 23.6391C47.7736 23.2767 47.6115 22.9393 47.382 22.6525C47.1525 22.3656 46.8616 22.1369 46.5316 21.9837C46.2015 21.8305 45.8408 21.7567 45.4769 21.7681C42.1192 21.8756 38.8262 20.8958 36.0658 18.968L35.7048 18.7173C32.9415 16.7883 29.6812 15.7314 26.321 15.6754L21.2903 15.5913" stroke="#878787" stroke-width="2.31875" stroke-linecap="round"/>
<path d="M38.2861 26.5731C38.242 26.771 38.1352 26.9239 37.9657 27.0315L31.3928 31.2076L30.1581 31.992C29.9887 32.0997 29.8049 32.1314 29.607 32.0873C29.409 32.0432 29.2562 31.9363 29.1486 31.7669L28.3641 30.5322L26.2761 27.2457C26.1684 27.0763 26.1367 26.8926 26.1808 26.6946C26.2249 26.4966 26.3318 26.3438 26.5012 26.2362L27.7359 25.4517C27.9054 25.344 28.0891 25.3123 28.287 25.3564C28.485 25.4006 28.6378 25.5074 28.7455 25.6768L30.4396 28.3534L36.3968 24.5621C36.5663 24.4545 36.75 24.4227 36.948 24.4669C37.1459 24.511 37.2987 24.6178 37.4064 24.7873L38.1909 26.022C38.2985 26.1914 38.3303 26.3751 38.2861 26.5731Z" fill="#07BEB8"/>
<rect x="88.3047" y="19.5361" width="4.16395" height="12.1571" rx="0.878384" transform="rotate(59.4876 88.3047 19.5361)" fill="#C7FFEB" stroke="#878787" stroke-width="1.875"/>
<rect x="73.9297" y="9.88672" width="4.38233" height="8.66216" rx="0.878384" transform="rotate(27.182 73.9297 9.88672)" fill="#FFE9BF" stroke="#878787" stroke-width="1.875"/>
</g>
<defs>
<clipPath id="clip0_4750_59528">
<rect width="100" height="100" fill="white" transform="translate(0.5)"/>
</clipPath>
</defs>
</svg>
