<svg width="24" height="25" viewBox="0 0 24 25" fill="none" xmlns="http://www.w3.org/2000/svg">
<path opacity="0.5" d="M8.41121 18.4584C8.45372 18.4912 8.49623 18.5239 8.5387 18.5566C8.7863 18.7473 9.03274 18.937 9.27174 19.126M8.41121 18.4584L8.962 19.5185M8.41121 18.4584C5.56713 16.2666 2.5 13.8679 2.5 9.74446C2.5 7.50003 3.76855 5.60508 5.52036 4.80433C7.20297 4.03521 9.41819 4.24047 11.5 6.31209M8.41121 18.4584L12 21.1075V20.6075C11.8406 20.6075 11.6746 20.581 11.5 20.5293M9.27174 19.126C9.27186 19.126 9.27198 19.1261 9.2721 19.1262L8.962 19.5185M9.27174 19.126C9.27165 19.1259 9.27157 19.1258 9.27148 19.1257L8.962 19.5185M9.27174 19.126C9.7953 19.5385 10.2778 19.9135 10.7475 20.188C11.0167 20.3453 11.266 20.46 11.5 20.5293M8.962 19.5185C9.82706 20.2002 10.6657 20.8492 11.5 21.0466V20.5293M11.5 20.5293V6.31209M11.5 6.31209C11.5467 6.35853 11.5933 6.40591 11.6398 6.45424L12 6.10746H11.5V6.31209Z" fill="#FF9292" stroke="#FF9292"/>
<path d="M14 8.10745L12 6.10745V21.1074C13 21.1074 14 20.3374 15.038 19.5174C15.315 19.2994 15.602 19.0794 15.894 18.8544C18.702 16.6904 22 14.1494 22 9.74445C22 5.28245 17.369 2.01045 13.129 5.11445L15.06 7.04545C15.2008 7.18601 15.2801 7.37677 15.2802 7.57574C15.2804 7.77472 15.2016 7.96562 15.061 8.10645C14.9204 8.24728 14.7297 8.3265 14.5307 8.32669C14.3317 8.32688 14.1408 8.24801 14 8.10745Z" fill="#F95454"/>
</svg>
