<svg width="24" height="25" viewBox="0 0 24 25" fill="none" xmlns="http://www.w3.org/2000/svg">
<circle cx="12" cy="12.5" r="9.75" fill="#6CDB95"/>
<path d="M7.50019 10.625C7.50019 10.4025 7.56617 10.185 7.68978 9.99998C7.8134 9.81498 7.9891 9.67078 8.19467 9.58564C8.40024 9.50049 8.62644 9.47821 8.84466 9.52162C9.06289 9.56503 9.26335 9.67217 9.42068 9.82951C9.57802 9.98684 9.68516 10.1873 9.72857 10.4055C9.77198 10.6238 9.7497 10.85 9.66455 11.0555C9.5794 11.2611 9.43521 11.4368 9.2502 11.5604C9.0652 11.684 8.84769 11.75 8.62519 11.75C8.32682 11.75 8.04067 11.6315 7.82969 11.4205C7.61871 11.2095 7.50019 10.9234 7.50019 10.625ZM16.5002 10.625C16.5002 10.8475 16.4342 11.065 16.3106 11.25C16.187 11.435 16.0113 11.5792 15.8057 11.6644C15.6001 11.7495 15.3739 11.7718 15.1557 11.7284C14.9375 11.685 14.737 11.5778 14.5797 11.4205C14.4224 11.2632 14.3152 11.0627 14.2718 10.8445C14.2284 10.6262 14.2507 10.4 14.3358 10.1945C14.421 9.98891 14.5652 9.81321 14.7502 9.6896C14.9352 9.56598 15.1527 9.5 15.3752 9.5C15.6736 9.5 15.9597 9.61853 16.1707 9.82951C16.3817 10.0405 16.5002 10.3266 16.5002 10.625ZM16.3999 15.125C15.4352 16.7928 13.8311 17.75 12.0002 17.75C10.1692 17.75 8.56613 16.7938 7.60144 15.125C7.54717 15.0396 7.51074 14.9442 7.49432 14.8444C7.4779 14.7446 7.48185 14.6425 7.50591 14.5442C7.52998 14.446 7.57366 14.3536 7.63435 14.2727C7.69504 14.1918 7.77147 14.1239 7.85904 14.0733C7.94662 14.0227 8.04352 13.9903 8.14394 13.9781C8.24435 13.9659 8.34619 13.9742 8.44334 14.0023C8.54049 14.0305 8.63093 14.0781 8.70922 14.1421C8.78752 14.2062 8.85205 14.2854 8.89894 14.375C9.59925 15.5853 10.6999 16.25 12.0002 16.25C13.3005 16.25 14.4011 15.5844 15.1005 14.375C15.2 14.2027 15.3638 14.077 15.556 14.0254C15.7481 13.9739 15.9529 14.0009 16.1252 14.1003C16.2975 14.1998 16.4232 14.3636 16.4748 14.5558C16.5263 14.7479 16.4993 14.9527 16.3999 15.125Z" fill="#FFFDFA"/>
</svg>
