<svg width="335" height="55" viewBox="0 0 335 55" fill="none" xmlns="http://www.w3.org/2000/svg">
<rect width="335" height="55" rx="20" fill="#F9F7F2"/>
<path d="M25.933 19.825C28.619 19.825 29.945 20.743 29.945 22.222C29.945 23.684 28.619 24.619 25.933 24.619C23.247 24.619 21.938 23.684 21.938 22.222C21.938 20.743 23.247 19.825 25.933 19.825ZM25.933 21.117C24.284 21.117 23.536 21.525 23.536 22.222C23.536 22.902 24.284 23.31 25.933 23.31C27.599 23.31 28.347 22.902 28.347 22.222C28.347 21.525 27.599 21.117 25.933 21.117ZM32.869 19.774C33.311 19.774 33.719 19.995 33.719 20.488V28.58C33.719 29.039 33.345 29.243 32.869 29.243C32.41 29.243 32.036 29.039 32.036 28.58H29.265C28.925 28.58 28.738 28.274 28.738 27.951C28.738 27.594 28.925 27.305 29.265 27.305H32.036V20.488C32.036 19.995 32.444 19.774 32.869 19.774ZM30.489 25.112C30.88 25.078 31.118 25.333 31.135 25.69C31.169 26.081 31.016 26.404 30.625 26.455C29.452 26.608 28.075 26.71 26.613 26.778V28.393C26.613 28.852 26.239 29.039 25.763 29.039C25.304 29.039 24.93 28.852 24.93 28.393V26.829C23.74 26.863 22.533 26.88 21.377 26.88C20.986 26.88 20.799 26.574 20.799 26.2C20.799 25.843 20.986 25.537 21.377 25.537C24.233 25.537 27.463 25.486 30.489 25.112ZM32.41 29.787C33.396 29.787 33.719 30.093 33.719 31.062V31.98C33.719 32.949 33.396 33.238 32.41 33.238H25.202C25.032 33.238 24.964 33.306 24.964 33.476V33.969C24.964 34.122 25.032 34.19 25.202 34.19H33.549C33.923 34.19 34.093 34.496 34.093 34.819C34.093 35.176 33.923 35.482 33.549 35.482H24.641C23.655 35.482 23.332 35.176 23.332 34.207V33.306C23.332 32.337 23.655 32.031 24.641 32.031H31.849C32.002 32.031 32.087 31.963 32.087 31.793V31.317C32.087 31.147 32.002 31.079 31.849 31.079H23.842C23.468 31.079 23.298 30.773 23.298 30.433C23.298 30.11 23.468 29.787 23.842 29.787H32.41ZM37.2407 20.777H42.3747C43.3607 20.777 43.6837 21.083 43.6837 22.052V23.446C43.6837 25.86 42.7997 26.591 37.5807 29.209C37.1897 29.396 36.7477 29.175 36.5607 28.818C36.4077 28.478 36.3907 27.985 36.8327 27.781C41.5587 25.452 41.9837 24.993 41.9837 23.395V22.596C41.9837 22.341 41.8987 22.256 41.6267 22.256H37.2407C36.8157 22.256 36.6287 21.916 36.6287 21.525C36.6287 21.117 36.8157 20.777 37.2407 20.777ZM47.3047 19.774C47.7467 19.774 48.1547 19.995 48.1547 20.488V24.126H50.0247C50.4667 24.126 50.6537 24.466 50.6537 24.857C50.6537 25.282 50.4667 25.605 50.0247 25.605H48.1547V30.552C48.1547 31.045 47.7467 31.266 47.3047 31.266C46.8627 31.266 46.4547 31.045 46.4547 30.552V20.488C46.4547 19.995 46.8627 19.774 47.3047 19.774ZM39.2637 29.838C39.6887 29.838 40.1137 30.059 40.1137 30.552V33.425C40.1137 33.68 40.1987 33.765 40.4707 33.765H47.9507C48.3757 33.765 48.5627 34.105 48.5627 34.513C48.5627 34.904 48.3757 35.244 47.9507 35.244H39.7057C38.7197 35.244 38.3967 34.938 38.3967 33.969V30.552C38.3967 30.059 38.8047 29.838 39.2637 29.838ZM56.3853 27.526H65.8033C66.1603 26.064 66.2963 24.585 66.2963 23.004V22.409C66.2963 22.137 66.2113 22.052 65.9393 22.052H58.1703C57.7453 22.052 57.5753 21.712 57.5753 21.321C57.5753 20.913 57.7453 20.573 58.1703 20.573H66.6873C67.6733 20.573 67.9963 20.879 67.9963 21.848V22.919C67.9963 24.585 67.8093 26.2 67.4693 27.526H69.4753C69.8833 27.526 70.0703 27.866 70.0703 28.257C70.0703 28.648 69.8833 28.971 69.4753 28.971H63.7803V34.938C63.7803 35.431 63.3723 35.652 62.9303 35.652C62.4883 35.652 62.0803 35.431 62.0803 34.938V28.971H56.3853C55.9773 28.971 55.7903 28.648 55.7903 28.257C55.7903 27.866 55.9773 27.526 56.3853 27.526ZM82.942 20.301C83.333 20.301 83.52 20.624 83.52 21.015C83.52 21.406 83.333 21.729 82.942 21.729H75.292C75.037 21.729 74.935 21.814 74.935 22.086V24.075C74.935 24.347 75.037 24.432 75.292 24.432H83.112C83.503 24.432 83.69 24.755 83.69 25.146C83.69 25.537 83.503 25.86 83.112 25.86H79.236V27.594H84.965C85.356 27.594 85.543 27.917 85.543 28.308C85.543 28.699 85.356 29.022 84.965 29.022H71.841C71.45 29.022 71.263 28.699 71.263 28.308C71.263 27.917 71.45 27.594 71.841 27.594H77.57V25.86H74.527C73.541 25.86 73.235 25.554 73.235 24.585V21.576C73.235 20.607 73.541 20.301 74.527 20.301H82.942ZM82.313 30.348C83.299 30.348 83.622 30.654 83.622 31.623V34.938C83.622 35.431 83.197 35.652 82.755 35.652C82.33 35.652 81.922 35.431 81.922 34.938V32.133C81.922 31.861 81.82 31.776 81.565 31.776H73.575C73.167 31.776 72.997 31.453 72.997 31.062C72.997 30.671 73.167 30.348 73.575 30.348H82.313Z" fill="#404642"/>
<path d="M91.182 19.468C91.42 19.604 91.488 19.876 91.335 20.114C90.043 22.12 89.414 24.432 89.414 27.016V27.543C89.414 30.127 90.043 32.456 91.335 34.462C91.488 34.7 91.42 34.955 91.182 35.091C90.944 35.227 90.689 35.176 90.485 34.938C88.921 33 88.139 30.331 88.139 27.458V27.101C88.139 24.228 88.921 21.559 90.485 19.621C90.689 19.383 90.944 19.349 91.182 19.468ZM98.5831 20.777C98.9741 20.777 99.2461 20.93 99.2461 21.321V32.49C99.2461 32.847 98.9571 33 98.6171 33C98.2941 33 98.0051 32.847 98.0051 32.49V22.273L95.1151 24.109C94.8091 24.279 94.5201 24.143 94.3501 23.871C94.1971 23.616 94.2141 23.293 94.5031 23.106L97.7161 21.1C98.0561 20.896 98.3451 20.777 98.5831 20.777ZM110.714 20.539C111.02 20.539 111.156 20.777 111.156 21.066C111.156 21.372 111.02 21.61 110.714 21.61H105.529C105.291 21.61 105.206 21.695 105.206 21.916V25.537C105.206 25.775 105.291 25.843 105.529 25.843C108.028 25.843 110.051 25.724 112.074 25.452C112.346 25.418 112.533 25.605 112.584 25.894C112.618 26.2 112.499 26.489 112.227 26.523C110.459 26.778 108.351 26.931 105.138 26.931C104.254 26.931 103.965 26.659 103.965 25.792V21.678C103.965 20.811 104.254 20.539 105.138 20.539H110.714ZM114.505 19.842C114.828 19.842 115.134 19.995 115.134 20.352V23.157H117.293C117.599 23.157 117.735 23.412 117.735 23.718C117.735 24.007 117.599 24.262 117.293 24.262H115.134V27.288C115.134 27.645 114.828 27.798 114.505 27.798C114.199 27.798 113.893 27.645 113.893 27.288V20.352C113.893 19.995 114.199 19.842 114.505 19.842ZM113.961 28.648C114.845 28.648 115.134 28.92 115.134 29.787V31.351C115.134 32.218 114.845 32.49 113.961 32.49H107.229C107.008 32.49 106.906 32.558 106.906 32.796V34.003C106.906 34.241 107.008 34.326 107.229 34.326H115.134C115.406 34.326 115.542 34.564 115.542 34.836C115.542 35.108 115.406 35.346 115.134 35.346H106.872C105.988 35.346 105.699 35.074 105.699 34.207V32.626C105.699 31.759 105.988 31.487 106.872 31.487H113.604C113.842 31.487 113.927 31.419 113.927 31.181V29.974C113.927 29.753 113.842 29.668 113.604 29.668H106.073C105.801 29.668 105.665 29.43 105.665 29.158C105.665 28.886 105.801 28.648 106.073 28.648H113.961ZM119.302 19.468C119.54 19.349 119.795 19.383 119.999 19.621C121.563 21.559 122.362 24.228 122.362 27.101V27.458C122.362 30.331 121.563 33 119.999 34.938C119.795 35.176 119.54 35.227 119.302 35.091C119.081 34.955 119.013 34.7 119.149 34.462C120.458 32.456 121.07 30.127 121.07 27.543V27.016C121.07 24.432 120.458 22.12 119.149 20.114C119.013 19.876 119.081 19.604 119.302 19.468Z" fill="#404642"/>
<rect x="234" y="10" width="81" height="35" rx="17.5" fill="#07BEB8"/>
<path d="M256.083 20.658C258.888 20.658 260.35 22.477 260.35 25.792V26.285C260.35 31.691 258.514 33.119 255.624 33.119C254.536 33.119 253.567 32.881 252.938 32.507C252.513 32.269 252.445 31.895 252.615 31.487C252.802 31.079 253.176 30.909 253.618 31.113C254.23 31.402 254.91 31.572 255.726 31.572C257.613 31.572 258.548 30.45 258.667 27.373C258.106 28.257 256.899 28.767 255.709 28.767C253.363 28.767 251.884 27.254 251.884 24.908V24.619C251.884 22.273 253.567 20.658 256.083 20.658ZM256.117 22.205C254.536 22.205 253.567 23.072 253.567 24.67V24.806C253.567 26.421 254.383 27.271 256.049 27.271C257.732 27.271 258.599 26.2 258.599 24.908V24.772C258.599 23.174 257.664 22.205 256.117 22.205ZM266.459 20.658C269.264 20.658 270.726 22.477 270.726 25.792V26.285C270.726 31.691 268.89 33.119 266 33.119C264.912 33.119 263.943 32.881 263.314 32.507C262.889 32.269 262.821 31.895 262.991 31.487C263.178 31.079 263.552 30.909 263.994 31.113C264.606 31.402 265.286 31.572 266.102 31.572C267.989 31.572 268.924 30.45 269.043 27.373C268.482 28.257 267.275 28.767 266.085 28.767C263.739 28.767 262.26 27.254 262.26 24.908V24.619C262.26 22.273 263.943 20.658 266.459 20.658ZM266.493 22.205C264.912 22.205 263.943 23.072 263.943 24.67V24.806C263.943 26.421 264.759 27.271 266.425 27.271C268.108 27.271 268.975 26.2 268.975 24.908V24.772C268.975 23.174 268.04 22.205 266.493 22.205ZM276.937 20.658C279.997 20.658 281.289 22.715 281.289 26.472V27.305C281.289 31.062 279.997 33.119 276.937 33.119C273.877 33.119 272.585 31.062 272.585 27.305V26.472C272.585 22.715 273.877 20.658 276.937 20.658ZM276.937 22.256C274.931 22.256 274.302 23.582 274.302 26.608V27.169C274.302 30.195 274.931 31.521 276.937 31.521C278.943 31.521 279.572 30.195 279.572 27.169V26.608C279.572 23.582 278.943 22.256 276.937 22.256ZM288.044 20.063C290.747 20.063 292.073 21.219 292.073 22.902C292.073 24.585 290.747 25.741 288.044 25.741C285.358 25.741 284.032 24.585 284.032 22.902C284.032 21.219 285.358 20.063 288.044 20.063ZM288.044 21.406C286.378 21.406 285.63 22.035 285.63 22.902C285.63 23.769 286.378 24.398 288.044 24.398C289.71 24.398 290.475 23.769 290.475 22.902C290.475 22.035 289.71 21.406 288.044 21.406ZM294.997 19.774C295.439 19.774 295.847 19.995 295.847 20.488V31.062C295.847 31.555 295.439 31.776 294.997 31.776C294.572 31.776 294.164 31.555 294.164 31.062V30.28H291.444C291.053 30.28 290.866 29.974 290.866 29.6C290.866 29.209 291.053 28.903 291.444 28.903H294.164V20.488C294.164 19.995 294.572 19.774 294.997 19.774ZM292.617 26.438C293.008 26.387 293.246 26.659 293.263 27.067C293.297 27.441 293.144 27.781 292.753 27.832C291.58 27.985 290.203 28.087 288.741 28.155V30.161C288.741 30.62 288.367 30.824 287.891 30.824C287.432 30.824 287.058 30.62 287.058 30.161V28.206C285.868 28.24 284.661 28.257 283.522 28.257C283.114 28.257 282.927 27.951 282.927 27.56C282.927 27.169 283.114 26.846 283.522 26.846C286.361 26.846 289.591 26.795 292.617 26.438ZM286.293 31.096C286.718 31.096 287.143 31.317 287.143 31.81V33.476C287.143 33.731 287.228 33.833 287.5 33.833H295.66C296.068 33.833 296.255 34.156 296.255 34.547C296.255 34.938 296.068 35.278 295.66 35.278H286.735C285.749 35.278 285.426 34.972 285.426 34.003V31.81C285.426 31.317 285.834 31.096 286.293 31.096Z" fill="white"/>
</svg>
