<svg width="24" height="25" viewBox="0 0 24 25" fill="none" xmlns="http://www.w3.org/2000/svg">
<g clip-path="url(#clip0_4390_453)">
<path d="M0.682196 12.3385C0.144706 12.0628 -0.0675394 11.4036 0.208132 10.8661C0.483804 10.3287 1.143 10.1164 1.68049 10.3921L4.4611 11.8182C4.99859 12.0939 5.21083 12.7531 4.93516 13.2906C4.65949 13.8281 4.00029 14.0403 3.4628 13.7646L0.682196 12.3385Z" fill="#C15C00"/>
<path d="M23.3178 12.3385C23.8553 12.0628 24.0675 11.4036 23.7919 10.8661C23.5162 10.3287 22.857 10.1164 22.3195 10.3921L19.5389 11.8182C19.0014 12.0939 18.7892 12.7531 19.0648 13.2906C19.3405 13.8281 19.9997 14.0403 20.5372 13.7646L23.3178 12.3385Z" fill="#C15C00"/>
<path d="M3.00977 10.7031C3.00977 9.59856 3.9052 8.70312 5.00977 8.70312H18.9473C20.0518 8.70312 20.9473 9.59856 20.9473 10.7031V19.3281C20.9473 20.985 19.6041 22.3281 17.9473 22.3281H6.00977C4.35291 22.3281 3.00977 20.985 3.00977 19.3281V10.7031Z" fill="#FFA552"/>
<path d="M8.19727 3.4375C8.19727 3.01466 8.54005 2.67188 8.96289 2.67188C9.38573 2.67188 9.72852 3.01466 9.72852 3.4375V6.53125C9.72852 6.95409 9.38573 7.29688 8.96289 7.29688C8.54005 7.29688 8.19727 6.95409 8.19727 6.53125V3.4375Z" fill="#FFD494"/>
<path d="M11.2129 3.4375C11.2129 3.01466 11.5557 2.67188 11.9785 2.67188C12.4014 2.67188 12.7441 3.01466 12.7441 3.4375V6.53125C12.7441 6.95409 12.4014 7.29688 11.9785 7.29688C11.5557 7.29688 11.2129 6.95409 11.2129 6.53125V3.4375Z" fill="#FFD494"/>
<path d="M14.291 3.4375C14.291 3.01466 14.6338 2.67188 15.0566 2.67188C15.4795 2.67188 15.8223 3.01466 15.8223 3.4375V6.53125C15.8223 6.95409 15.4795 7.29688 15.0566 7.29688C14.6338 7.29688 14.291 6.95409 14.291 6.53125V3.4375Z" fill="#FFD494"/>
</g>
<defs>
<clipPath id="clip0_4390_453">
<rect width="24" height="24" fill="white" transform="translate(0 0.5)"/>
</clipPath>
</defs>
</svg>
