<svg width="24" height="25" viewBox="0 0 24 25" fill="none" xmlns="http://www.w3.org/2000/svg">
<rect x="9.23975" y="3" width="6.26728" height="3.5023" rx="1.75115" stroke="#FFB800" stroke-width="1.47465"/>
<path d="M16.3364 22.0783V22.5392H16.7972H19.0092C19.327 22.5392 19.6317 22.4129 19.8564 22.1882C20.0811 21.9635 20.2074 21.6588 20.2074 21.341V10.2811C20.2074 8.98558 19.6927 7.74311 18.7767 6.82703C17.8606 5.91096 16.6181 5.39631 15.3226 5.39631H9.42396C8.12844 5.39631 6.88597 5.91096 5.96989 6.82703C5.05382 7.74311 4.53917 8.98558 4.53917 10.2811V21.341C4.53917 21.6588 4.6654 21.9635 4.8901 22.1882L5.21596 21.8624L4.8901 22.1882C5.1148 22.4129 5.41956 22.5392 5.73733 22.5392H7.94931H8.41014V22.0783V15.4424C8.41014 15.1735 8.51695 14.9156 8.70708 14.7255C8.89721 14.5354 9.15508 14.4286 9.42396 14.4286H15.3226C15.5915 14.4286 15.8493 14.5354 16.0395 14.7255C16.2296 14.9156 16.3364 15.1735 16.3364 15.4424V22.0783Z" fill="#FFDC3F" stroke="#FFDC3F" stroke-width="0.921659"/>
<rect x="7.85718" y="17.1014" width="9.03226" height="5.89862" fill="#FFFCE6"/>
<rect x="15.5068" y="16.3641" width="2.39631" height="1.29032" rx="0.645161" transform="rotate(90 15.5068 16.3641)" fill="#83794B"/>
<path d="M7.85718 15.5346C7.85718 14.6183 8.59993 13.8756 9.51616 13.8756H15.2304C16.1467 13.8756 16.8894 14.6183 16.8894 15.5346V17.1014H7.85718V15.5346Z" fill="#FFB800"/>
<rect x="9.6084" y="8.52995" width="5.52995" height="1.65899" rx="0.829493" fill="#83794B"/>
</svg>
