<svg width="57" height="56" viewBox="0 0 57 56" fill="none" xmlns="http://www.w3.org/2000/svg">
<path d="M53.0081 24.2341C53.0081 24.2341 54.487 28.4433 50.9662 29.6568C51.2987 32.1042 49.4289 33.5073 46.9669 33.9915C47.1215 28.5571 48.335 24.0649 53.0081 24.2341Z" fill="#FFC8C5"/>
<path d="M50.7121 31.5092C50.4204 33.2127 46.3745 35.0417 40.9109 33.9857C40.8218 32.734 40.9622 31.4765 41.3251 30.2753C41.8152 28.5834 42.7282 27.2999 44.3676 26.0281C45.7094 24.9867 47.4509 24.237 48.7752 23.2598C49.5336 22.6997 50.259 22.1163 50.9513 21.5096C51.1158 21.3614 51.3175 21.2606 51.5347 21.2179C51.8059 21.1601 52.0888 21.2035 52.3301 21.34C52.5714 21.4765 52.7543 21.6966 52.8445 21.9588C53.0827 22.5683 53.1175 23.2386 52.9436 23.8695C52.5061 25.4592 51.4268 26.6581 48.886 26.8536" fill="#FFC8C5"/>
<path d="M50.7121 31.5092C50.4204 33.2127 46.3745 35.0417 40.9109 33.9857C40.8218 32.734 40.9622 31.4765 41.3251 30.2753C41.8152 28.5834 42.7282 27.2999 44.3676 26.0281C45.7094 24.9867 47.4509 24.237 48.7752 23.2598C49.5336 22.6997 50.259 22.1163 50.9513 21.5096C51.1158 21.3614 51.3175 21.2606 51.5347 21.2179C51.8058 21.1601 52.0888 21.2035 52.3301 21.34C52.5714 21.4765 52.7543 21.6966 52.8445 21.9588C53.0827 22.5683 53.1175 23.2386 52.9436 23.8695C52.5061 25.4592 51.4268 26.6581 48.886 26.8536" stroke="#868686" stroke-width="1.3" stroke-linecap="round" stroke-linejoin="round"/>
<path d="M52.9622 27.4224C52.9188 27.9067 52.7296 28.3664 52.4196 28.7409C51.6028 29.7094 49.6426 30.2199 47.8165 29.9077" stroke="#868686" stroke-width="1.3" stroke-linecap="round" stroke-linejoin="round"/>
<path d="M4.13053 22.6866C4.13053 22.6866 2.38031 26.7937 5.80782 28.2289C5.31776 30.65 7.09422 32.1669 9.52119 32.8057C9.72538 27.3742 8.53816 22.5728 4.13053 22.6866Z" fill="#FFC8C5"/>
<path d="M5.95347 30.09C6.11975 31.8081 10.0548 33.8821 15.5797 33.185C15.7501 31.9412 15.6917 30.6768 15.4076 29.4541C15.0254 27.736 14.197 26.397 12.6451 25.0231C11.3704 23.8972 9.68143 23.0395 8.42128 21.9807C7.70077 21.3739 7.01235 20.7409 6.36477 20.0846C6.20495 19.9211 6.00304 19.805 5.78136 19.7491C5.51417 19.6746 5.22892 19.7005 4.97954 19.822C4.73015 19.9434 4.5339 20.1521 4.42787 20.4084C4.1516 21.0011 4.07484 21.6674 4.20909 22.3074C4.53871 23.9234 5.54217 25.1865 8.06248 25.5424" fill="#FFC8C5"/>
<path d="M5.95347 30.09C6.11975 31.8081 10.0548 33.8821 15.5797 33.185C15.7501 31.9412 15.6917 30.6768 15.4076 29.4541C15.0254 27.736 14.197 26.397 12.6451 25.0231C11.3704 23.8972 9.68143 23.0395 8.42128 21.9807C7.70077 21.3739 7.01235 20.7409 6.36477 20.0846C6.20495 19.9211 6.00304 19.805 5.78136 19.7491C5.51417 19.6746 5.22892 19.7005 4.97954 19.822C4.73015 19.9434 4.5339 20.1521 4.42787 20.4084C4.1516 21.0011 4.07484 21.6674 4.20909 22.3074C4.53871 23.9234 5.54217 25.1865 8.06248 25.5424" stroke="#868686" stroke-width="1.3" stroke-linecap="round" stroke-linejoin="round"/>
<path d="M3.97278 25.869C3.98426 26.3549 4.14294 26.8258 4.42783 27.2196C5.18043 28.2376 7.10566 28.8706 8.94631 28.6781" stroke="#868686" stroke-width="1.3" stroke-linecap="round" stroke-linejoin="round"/>
<path d="M27.8518 11.9124C34.8096 11.9278 39.2281 16.2352 42.1487 21.2405C42.5742 21.9692 42.9589 22.7164 43.3129 23.4791C43.5001 23.8836 43.6805 24.2912 43.8609 24.7142C46.0327 29.738 47.5747 35.2928 45.9033 40.7921C43.1801 49.6107 34.8028 51.0157 25.1729 50.7347C23.4783 50.6852 21.8032 50.3924 20.2098 49.867C18.6912 49.3774 17.2812 48.6454 16.0467 47.7056C12.2512 44.7383 10.6241 40.4803 10.4199 36.3921C10.1646 31.2602 11.6147 27.7464 13.7218 23.1641C15.451 19.3384 19.0559 15.0372 23.2088 13.0301C24.6319 12.3177 26.2265 11.9339 27.8518 11.9124Z" fill="white"/>
<path d="M37.073 15.1331C39.1495 16.7881 40.8175 18.9403 42.1484 21.2406C42.5739 21.9693 42.9586 22.7166 43.3126 23.4793C43.4998 23.8838 43.6802 24.2913 43.8606 24.7144C46.0324 29.7381 47.5744 35.293 45.903 40.7923C43.1798 49.6109 31.0139 52.3498 20.9142 50.0833" stroke="#868686" stroke-width="1.3" stroke-linecap="round" stroke-linejoin="round"/>
<path d="M25.4475 12.2181C26.2289 12.0144 27.0377 11.9105 27.8507 11.9093C30.2044 11.896 32.5206 12.4444 34.5669 13.4995" stroke="#868686" stroke-width="1.3" stroke-linecap="round" stroke-linejoin="round"/>
<path d="M16.0972 47.8509C6.65784 40.4743 10.3921 25.6623 17.1899 17.9707C18.5973 16.345 20.2819 14.9336 22.1801 13.7899" stroke="#868686" stroke-width="1.3" stroke-linecap="round" stroke-linejoin="round"/>
<path d="M31.2196 30.8381C30.9973 30.33 30.6317 29.8977 30.1675 29.5941C29.7033 29.2905 29.1606 29.1288 28.606 29.1288C28.0513 29.1288 27.5087 29.2905 27.0445 29.5941C26.5803 29.8977 26.2146 30.33 25.9923 30.8381V30.8527C26.4094 31.9933 27.4508 33.3235 28.6176 33.3235C29.7844 33.3235 30.8171 31.9933 31.243 30.8527L31.2196 30.8381Z" fill="#FFAFA7"/>
<path d="M26.9567 13.1962C26.8459 12.3719 26.5464 11.5843 26.0815 10.8946C25.151 9.49736 23.7479 8.67185 22.4119 8.59601C21.9569 9.82699 22.164 11.4343 23.0945 12.8315C24.025 14.2288 25.4281 15.0572 26.7612 15.1331" fill="#FFF8F2"/>
<path d="M26.9567 13.1962C26.8459 12.3719 26.5464 11.5843 26.0815 10.8946C25.151 9.49736 23.7479 8.67185 22.4119 8.59601C21.9569 9.82699 22.164 11.4343 23.0945 12.8315C24.025 14.2288 25.4281 15.0572 26.7612 15.1331" stroke="#868686" stroke-width="1.3" stroke-linecap="round" stroke-linejoin="round"/>
<path d="M14.2942 6.15147V6.13105C14.0992 5.87401 13.8555 5.65789 13.577 5.49504C13.2985 5.33218 12.9907 5.22577 12.6711 5.18189C12.3514 5.13801 12.0263 5.15751 11.7142 5.23929C11.4021 5.32106 11.1092 5.46351 10.8521 5.65849C10.5951 5.85348 10.379 6.09718 10.2161 6.37568C10.0533 6.65419 9.94685 6.96204 9.90297 7.28167C9.85909 7.6013 9.8786 7.92644 9.96037 8.23853C10.0421 8.55062 10.1846 8.84354 10.3796 9.10058L10.3942 9.11809C10.1526 9.35821 9.9636 9.64597 9.83921 9.96306C9.71481 10.2802 9.65773 10.6196 9.67159 10.96C9.68545 11.3003 9.76994 11.634 9.91971 11.94C10.0695 12.2459 10.2812 12.5173 10.5415 12.737C10.8018 12.9567 11.105 13.1199 11.4317 13.2161C11.7585 13.3123 12.1016 13.3396 12.4395 13.2961C12.7773 13.2525 13.1024 13.1392 13.3941 12.9633C13.6858 12.7874 13.9377 12.5528 14.1338 12.2743L15.7877 13.0415L16.0328 13.1553C16.1079 13.1904 16.1912 13.2044 16.2737 13.1956C16.3562 13.1869 16.4348 13.1557 16.5008 13.1056C16.5669 13.0554 16.618 12.9881 16.6486 12.911C16.6792 12.8339 16.6882 12.7499 16.6745 12.6681L16.6308 12.3997L16.3391 10.6029C16.6654 10.4892 16.9637 10.3072 17.2142 10.069C17.6612 9.65765 17.9399 9.09517 17.9964 8.49029C18.053 7.8854 17.8833 7.28103 17.5203 6.79393C17.1572 6.30682 16.6265 5.97156 16.0307 5.85291C15.4348 5.73425 14.8162 5.84062 14.2942 6.15147Z" fill="#FFEFE6" stroke="#868686" stroke-width="1.3" stroke-linecap="round" stroke-linejoin="round"/>
<path d="M43.7542 10.9397V10.9251C44.0567 10.5259 44.5054 10.2633 45.0015 10.1949C45.4977 10.1265 46.0007 10.258 46.3999 10.5605C46.7991 10.863 47.0618 11.3117 47.1302 11.8079C47.1986 12.304 47.067 12.8071 46.7645 13.2063V13.2208C47.0978 13.5546 47.2942 14.0009 47.3153 14.4721C47.3363 14.9432 47.1805 15.4053 46.8783 15.7674C46.5881 16.1158 46.1835 16.3496 45.7367 16.4271C45.29 16.5046 44.8302 16.4207 44.4397 16.1904C44.2224 16.0557 44.034 15.8792 43.8854 15.6711L42.6165 16.2546C42.5414 16.2897 42.4581 16.3037 42.3756 16.2949C42.2931 16.2862 42.2146 16.255 42.1485 16.2049C42.0824 16.1547 42.0313 16.0874 42.0007 16.0103C41.9701 15.9332 41.9611 15.8492 41.9748 15.7674L42.2023 14.3847C41.9607 14.2996 41.7393 14.1655 41.5518 13.9909C41.1897 13.6836 40.9568 13.2511 40.8995 12.7797C40.8422 12.3082 40.9647 11.8325 41.2427 11.4474C41.5206 11.0623 41.9336 10.7961 42.3991 10.702C42.8646 10.6079 43.3485 10.6928 43.7542 10.9397Z" fill="#FFEFE6" stroke="#868686" stroke-width="1.3" stroke-linecap="round" stroke-linejoin="round"/>
<path d="M25.9283 27.5275L24.2247 26.5912" stroke="#868686" stroke-width="1.3" stroke-linecap="round" stroke-linejoin="round"/>
<path d="M31.2853 27.5275L32.9888 26.5912" stroke="#868686" stroke-width="1.3" stroke-linecap="round" stroke-linejoin="round"/>
</svg>
